<svg width="112" height="115" viewBox="0 0 112 115" fill="none" xmlns="http://www.w3.org/2000/svg">
<path d="M38.1374 -25.6039C40.2717 7.08969 64.2672 31.0795 73.3105 34.6768C72.1977 25.4433 71.1519 14.7955 71.2189 9.0766L61.9287 4.24557C61.9287 4.24557 62.6726 13.0259 62.886 13.9076C63.0995 14.7893 44.9366 3.34243 38.1374 -25.6039Z" fill="url(#paint0_linear_5658_230762)" fill-opacity="0.05"/>
<path d="M49.3033 -16.2968C53.2335 -7.07254 59.6699 1.867 75.4118 7.75424C74.7563 14.3762 76.6741 36.2965 76.6741 36.2965L92.5289 47.3638C117.284 13.1853 104.466 -33.334 104.466 -33.334C108.716 7.3838 90.3671 32.8309 90.3671 32.8309C90.3671 32.8309 86.8669 31.3889 84.5192 29.5459C82.1928 24.5159 80.1804 -45.8034 107.387 -90.5746C87.126 -62.8835 77.4516 -24.3822 75.7868 0.183186C68.9876 0.90876 56.9532 -5.41628 49.3033 -16.2968Z" fill="url(#paint1_linear_5658_230762)" fill-opacity="0.05"/>
<path d="M63.6093 83.1959C63.6093 83.1959 86.6231 93.8223 78.5494 114.622C78.5494 114.622 87.6537 105.992 83.1412 95.3163C78.6287 84.6409 63.6093 83.1959 63.6093 83.1959Z" fill="url(#paint2_linear_5658_230762)" fill-opacity="0.05"/>
<path d="M47.5138 58.9523C73.5949 69.2787 90.7363 49.526 90.7363 49.526C74.0004 39.1996 66.8902 34.6778 66.8902 34.6778C60.9263 42.3315 55.2766 43.9878 55.2766 43.9878C65.7255 55.6612 76.5768 51.6201 76.5768 51.6201C62.7161 64.0405 47.5138 58.9523 47.5138 58.9523Z" fill="url(#paint3_linear_5658_230762)" fill-opacity="0.05"/>
<path d="M59.1386 27.0739C58.2453 29.468 54.8152 31.5651 54.8152 31.5651C44.9791 23.0327 38.7256 -4.8023 38.7256 -4.8023C40.2197 22.1388 53.4736 40.6914 53.4736 40.6914C58.6904 39.6444 64.3555 32.6121 64.3555 32.6121L59.1386 27.0739Z" fill="url(#paint4_linear_5658_230762)" fill-opacity="0.05"/>
<path d="M47.5116 61.9406C47.5116 61.9406 44.6791 60.5997 43.1881 56.8585C43.1881 56.8585 61.0735 60.7497 67.7812 54.7614C67.7812 54.7614 43.3375 47.4292 39.9104 19.8941C39.9104 19.8941 36.9285 25.1323 41.9959 40.6939C47.0634 56.2554 21.5677 74.3703 6.97217 75.8643C6.97826 75.8643 30.5195 75.105 47.5116 61.9406Z" fill="url(#paint5_linear_5658_230762)" fill-opacity="0.05"/>
<path d="M37.3772 53.2676C37.3772 53.2676 41.1031 48.1794 39.603 40.694C38.1029 33.2087 16.3544 11.812 23.5074 -16.3231C23.5165 -16.3231 10.3997 18.5472 37.3772 53.2676Z" fill="url(#paint6_linear_5658_230762)" fill-opacity="0.05"/>
<path d="M32.609 59.251C33.8012 58.5009 35.5879 55.3598 35.5879 55.3598C22.7577 45.9304 19.3429 24.9807 19.3429 24.9807C23.2181 52.6657 32.609 59.251 32.609 59.251Z" fill="url(#paint7_linear_5658_230762)" fill-opacity="0.05"/>
<path d="M86.5598 24.3798L90.7338 26.7739C102.421 10.4623 102.655 -37.4255 102.655 -37.4255C112.046 -29.9432 113.388 -16.3257 113.388 -16.3257C113.388 -16.3257 114.729 -29.9432 124.12 -37.4255C124.12 -37.4255 124.355 10.4623 136.042 26.7739L140.222 24.3798C140.222 24.3798 143.948 -43.8913 113.391 -81.2935C113.391 -81.2935 127.996 -55.2341 127.996 -38.1725C127.996 -38.1725 124.867 -46.1048 113.391 -52.2553C101.914 -46.1323 98.7862 -38.1725 98.7862 -38.1725C98.7862 -55.2341 113.391 -81.2935 113.391 -81.2935C82.837 -43.9005 86.5598 24.3798 86.5598 24.3798Z" fill="url(#paint8_linear_5658_230762)" fill-opacity="0.05"/>
<path d="M93.4203 66.1344C92.594 82.4583 103.406 91.1284 103.406 91.1284C93.1215 75.7138 107.787 58.9522 107.787 58.9522C98.6035 61.6463 93.4203 66.1344 93.4203 66.1344Z" fill="url(#paint9_linear_5658_230762)" fill-opacity="0.05"/>
<path d="M142.262 29.5368C139.914 31.3737 136.414 32.8218 136.414 32.8218C136.414 32.8218 118.065 7.36247 122.316 -33.3339C122.316 -33.3339 109.51 13.2007 134.243 47.373L150.098 36.3058C150.098 36.3058 152.016 14.3855 151.36 7.76352C167.102 1.87628 173.539 -7.06326 177.469 -16.2875C169.819 -5.407 157.784 0.918041 150.994 0.183285C149.33 -24.3821 139.655 -62.8833 119.395 -90.5745C146.601 -45.8125 144.588 24.5068 142.262 29.5368Z" fill="url(#paint10_linear_5658_230762)" fill-opacity="0.05"/>
<path d="M133.512 51.1643C115.182 32.0086 113.389 -12.8851 113.389 -12.8851C113.389 -12.8851 111.599 32.0147 93.2657 51.1643C74.9322 70.3139 53.4734 66.8789 49.2993 64.1848C45.8949 66.5446 42.1209 68.3152 38.1339 69.423C38.1339 69.423 49.2993 76.9053 67.6298 80.0464C84.5487 82.9487 89.985 99.0521 88.0581 106.375C88.0581 106.375 99.2966 89.4635 78.5483 75.246C78.5483 75.246 89.549 59.8314 113.395 55.4933C137.241 59.8314 148.242 75.246 148.242 75.246C127.488 89.4819 138.726 106.394 138.726 106.394C136.79 99.046 142.226 82.9548 159.154 80.0648C177.485 76.9237 188.65 69.4414 188.65 69.4414C184.663 68.3335 180.889 66.563 177.485 64.2032C173.302 66.8851 151.843 70.3262 133.512 51.1643Z" fill="url(#paint11_linear_5658_230762)" fill-opacity="0.05"/>
<defs>
<linearGradient id="paint0_linear_5658_230762" x1="73.3105" y1="34.6768" x2="38.1374" y2="34.6768" gradientUnits="userSpaceOnUse">
<stop stop-color="#475467"/>
<stop offset="1" stop-color="#667085"/>
</linearGradient>
<linearGradient id="paint1_linear_5658_230762" x1="107.783" y1="47.3638" x2="49.3033" y2="47.3638" gradientUnits="userSpaceOnUse">
<stop stop-color="#475467"/>
<stop offset="1" stop-color="#667085"/>
</linearGradient>
<linearGradient id="paint2_linear_5658_230762" x1="84.3965" y1="114.622" x2="63.6093" y2="114.622" gradientUnits="userSpaceOnUse">
<stop stop-color="#475467"/>
<stop offset="1" stop-color="#667085"/>
</linearGradient>
<linearGradient id="paint3_linear_5658_230762" x1="90.7363" y1="61.9404" x2="47.5138" y2="61.9404" gradientUnits="userSpaceOnUse">
<stop stop-color="#475467"/>
<stop offset="1" stop-color="#667085"/>
</linearGradient>
<linearGradient id="paint4_linear_5658_230762" x1="64.3555" y1="40.6914" x2="38.7256" y2="40.6914" gradientUnits="userSpaceOnUse">
<stop stop-color="#475467"/>
<stop offset="1" stop-color="#667085"/>
</linearGradient>
<linearGradient id="paint5_linear_5658_230762" x1="67.7812" y1="75.8643" x2="6.97217" y2="75.8643" gradientUnits="userSpaceOnUse">
<stop stop-color="#475467"/>
<stop offset="1" stop-color="#667085"/>
</linearGradient>
<linearGradient id="paint6_linear_5658_230762" x1="39.959" y1="53.2676" x2="20.3272" y2="53.2676" gradientUnits="userSpaceOnUse">
<stop stop-color="#475467"/>
<stop offset="1" stop-color="#667085"/>
</linearGradient>
<linearGradient id="paint7_linear_5658_230762" x1="35.5879" y1="59.251" x2="19.3429" y2="59.251" gradientUnits="userSpaceOnUse">
<stop stop-color="#475467"/>
<stop offset="1" stop-color="#667085"/>
</linearGradient>
<linearGradient id="paint8_linear_5658_230762" x1="140.365" y1="26.7739" x2="86.4168" y2="26.7739" gradientUnits="userSpaceOnUse">
<stop stop-color="#475467"/>
<stop offset="1" stop-color="#667085"/>
</linearGradient>
<linearGradient id="paint9_linear_5658_230762" x1="107.787" y1="91.1284" x2="93.3752" y2="91.1284" gradientUnits="userSpaceOnUse">
<stop stop-color="#475467"/>
<stop offset="1" stop-color="#667085"/>
</linearGradient>
<linearGradient id="paint10_linear_5658_230762" x1="177.469" y1="47.373" x2="119.001" y2="47.373" gradientUnits="userSpaceOnUse">
<stop stop-color="#475467"/>
<stop offset="1" stop-color="#667085"/>
</linearGradient>
<linearGradient id="paint11_linear_5658_230762" x1="188.65" y1="106.394" x2="38.1339" y2="106.394" gradientUnits="userSpaceOnUse">
<stop stop-color="#475467"/>
<stop offset="1" stop-color="#667085"/>
</linearGradient>
</defs>
</svg>
