<svg width="105" height="115" viewBox="0 0 105 115" fill="none" xmlns="http://www.w3.org/2000/svg">
<path d="M-35.8601 24.3798L-31.6861 26.7739C-19.9993 10.4623 -19.7645 -37.4255 -19.7645 -37.4255C-10.3736 -29.9432 -9.03208 -16.3257 -9.03208 -16.3257C-9.03208 -16.3257 -7.69052 -29.9432 1.70038 -37.4255C1.70038 -37.4255 1.93515 10.4623 13.6219 26.7739L17.8021 24.3798C17.8021 24.3798 21.528 -43.8913 -9.02902 -81.2935C-9.02902 -81.2935 5.57564 -55.2341 5.57564 -38.1725C5.57564 -38.1725 2.44738 -46.1048 -9.02902 -52.2553C-20.5054 -46.1323 -23.6337 -38.1725 -23.6337 -38.1725C-23.6337 -55.2341 -9.02902 -81.2935 -9.02902 -81.2935C-39.583 -43.9005 -35.8601 24.3798 -35.8601 24.3798Z" fill="url(#paint0_linear_5658_230739)" fill-opacity="0.05"/>
<path d="M66.2227 -25.6039C59.4234 3.34243 41.2636 14.7893 41.474 13.9076C41.6844 13.0259 42.4314 4.24557 42.4314 4.24557L33.1411 9.0766C33.2082 14.7955 32.1624 25.4433 31.0495 34.6768C40.0928 31.0795 64.0945 7.07745 66.2227 -25.6039Z" fill="url(#paint1_linear_5658_230739)" fill-opacity="0.05"/>
<path d="M19.8421 29.5368C17.4944 31.3737 13.9942 32.8218 13.9942 32.8218C13.9942 32.8218 -4.35468 7.36247 -0.104385 -33.3339C-0.104385 -33.3339 -12.9101 13.2007 11.8233 47.373L27.678 36.3058C27.678 36.3058 29.5958 14.3855 28.9403 7.76352C44.6823 1.87628 51.1187 -7.06326 55.0488 -16.2875C47.3989 -5.407 35.3645 0.918041 28.5744 0.183285C26.9097 -24.3821 17.2352 -62.8833 -3.02531 -90.5745C24.1808 -45.8125 22.1685 24.5068 19.8421 29.5368Z" fill="url(#paint2_linear_5658_230739)" fill-opacity="0.05"/>
<path d="M11.0925 51.1643C-7.23802 32.0086 -9.03083 -12.8851 -9.03083 -12.8851C-9.03083 -12.8851 -10.8206 32.0147 -29.1542 51.1643C-47.4878 70.3139 -68.9466 66.8789 -73.1206 64.1848C-76.525 66.5446 -80.2991 68.3152 -84.286 69.423C-84.286 69.423 -73.1206 76.9053 -54.7901 80.0464C-37.8712 82.9487 -32.4349 99.0521 -34.3618 106.375C-34.3618 106.375 -23.1233 89.4635 -43.8717 75.246C-43.8717 75.246 -32.8709 59.8314 -9.02473 55.4933C14.8214 59.8314 25.8222 75.246 25.8222 75.246C5.0677 89.4819 16.3063 106.394 16.3063 106.394C14.3702 99.046 19.8065 82.9548 36.7345 80.0648C55.0651 76.9237 66.2305 69.4414 66.2305 69.4414C62.2435 68.3335 58.4695 66.563 55.0651 64.2032C50.8818 66.8851 29.423 70.3262 11.0925 51.1643Z" fill="url(#paint3_linear_5658_230739)" fill-opacity="0.05"/>
<path d="M21.226 95.3163C16.7135 105.992 25.8178 114.622 25.8178 114.622C17.7379 93.8223 40.7578 83.1959 40.7578 83.1959C40.7578 83.1959 25.7293 84.644 21.226 95.3163Z" fill="url(#paint4_linear_5658_230739)" fill-opacity="0.05"/>
<path d="M56.8457 58.9523C56.8457 58.9523 41.6434 64.0405 27.7827 51.6201C27.7827 51.6201 38.6341 55.6612 49.083 43.9878C49.083 43.9878 43.4332 42.3407 37.4694 34.6778C37.4694 34.6778 30.3591 39.1996 13.6232 49.526C13.6232 49.526 30.7646 69.2787 56.8457 58.9523Z" fill="url(#paint5_linear_5658_230739)" fill-opacity="0.05"/>
<path d="M45.2198 27.0739L40.003 32.6121C40.003 32.6121 45.668 39.6536 50.8848 40.6914C50.8848 40.6914 64.1388 22.1357 65.6328 -4.8023C65.6328 -4.8023 59.3793 23.0327 49.5433 31.5651C49.5433 31.5682 46.1132 29.468 45.2198 27.0739Z" fill="url(#paint6_linear_5658_230739)" fill-opacity="0.05"/>
<path d="M62.3614 40.6939C67.4288 25.1415 64.4499 19.8941 64.4499 19.8941C61.0229 47.4292 36.5791 54.7614 36.5791 54.7614C43.2869 60.7497 61.1723 56.8585 61.1723 56.8585C59.6813 60.5997 56.8488 61.9406 56.8488 61.9406C73.8408 75.105 97.4004 75.8643 97.4004 75.8643C82.7774 74.3672 57.2939 56.2585 62.3614 40.6939Z" fill="url(#paint7_linear_5658_230739)" fill-opacity="0.05"/>
<path d="M66.9804 53.2676C93.9579 18.5472 80.8412 -16.3231 80.8412 -16.3231C87.9941 11.812 66.2334 33.2118 64.7547 40.694C63.2759 48.1763 66.9804 53.2676 66.9804 53.2676Z" fill="url(#paint8_linear_5658_230739)" fill-opacity="0.05"/>
<path d="M71.7495 59.251C71.7495 59.251 81.1404 52.6657 85.0156 24.9807C85.0156 24.9807 81.6008 45.9304 68.7676 55.3598C68.7676 55.3598 70.5482 58.5101 71.7495 59.251Z" fill="url(#paint9_linear_5658_230739)" fill-opacity="0.05"/>
<path d="M-3.42558 58.9522C-3.42558 58.9522 11.2401 75.7138 0.955824 91.1284C0.955824 91.1284 11.7675 82.4583 10.9413 66.1344C10.9413 66.1344 5.75799 61.6463 -3.42558 58.9522Z" fill="url(#paint10_linear_5658_230739)" fill-opacity="0.05"/>
<defs>
<linearGradient id="paint0_linear_5658_230739" x1="17.9453" y1="26.7739" x2="-36.0031" y2="26.7739" gradientUnits="userSpaceOnUse">
<stop stop-color="#475467"/>
<stop offset="1" stop-color="#667085"/>
</linearGradient>
<linearGradient id="paint1_linear_5658_230739" x1="66.2227" y1="34.6768" x2="31.0495" y2="34.6768" gradientUnits="userSpaceOnUse">
<stop stop-color="#475467"/>
<stop offset="1" stop-color="#667085"/>
</linearGradient>
<linearGradient id="paint2_linear_5658_230739" x1="55.0488" y1="47.373" x2="-3.41847" y2="47.373" gradientUnits="userSpaceOnUse">
<stop stop-color="#475467"/>
<stop offset="1" stop-color="#667085"/>
</linearGradient>
<linearGradient id="paint3_linear_5658_230739" x1="66.2305" y1="106.394" x2="-84.286" y2="106.394" gradientUnits="userSpaceOnUse">
<stop stop-color="#475467"/>
<stop offset="1" stop-color="#667085"/>
</linearGradient>
<linearGradient id="paint4_linear_5658_230739" x1="40.7578" y1="114.622" x2="19.9707" y2="114.622" gradientUnits="userSpaceOnUse">
<stop stop-color="#475467"/>
<stop offset="1" stop-color="#667085"/>
</linearGradient>
<linearGradient id="paint5_linear_5658_230739" x1="56.8457" y1="61.9404" x2="13.6232" y2="61.9404" gradientUnits="userSpaceOnUse">
<stop stop-color="#475467"/>
<stop offset="1" stop-color="#667085"/>
</linearGradient>
<linearGradient id="paint6_linear_5658_230739" x1="65.6328" y1="40.6914" x2="40.003" y2="40.6914" gradientUnits="userSpaceOnUse">
<stop stop-color="#475467"/>
<stop offset="1" stop-color="#667085"/>
</linearGradient>
<linearGradient id="paint7_linear_5658_230739" x1="97.4004" y1="75.8643" x2="36.5791" y2="75.8643" gradientUnits="userSpaceOnUse">
<stop stop-color="#475467"/>
<stop offset="1" stop-color="#667085"/>
</linearGradient>
<linearGradient id="paint8_linear_5658_230739" x1="84.0293" y1="53.2676" x2="64.4061" y2="53.2676" gradientUnits="userSpaceOnUse">
<stop stop-color="#475467"/>
<stop offset="1" stop-color="#667085"/>
</linearGradient>
<linearGradient id="paint9_linear_5658_230739" x1="85.0156" y1="59.251" x2="68.7676" y2="59.251" gradientUnits="userSpaceOnUse">
<stop stop-color="#475467"/>
<stop offset="1" stop-color="#667085"/>
</linearGradient>
<linearGradient id="paint10_linear_5658_230739" x1="10.9863" y1="91.1284" x2="-3.42558" y2="91.1284" gradientUnits="userSpaceOnUse">
<stop stop-color="#475467"/>
<stop offset="1" stop-color="#667085"/>
</linearGradient>
</defs>
</svg>
