<svg width="278" height="132" viewBox="0 0 278 132" fill="none" xmlns="http://www.w3.org/2000/svg">
<path opacity="0.7" d="M137.568 3.66552C136.853 3.21431 136.115 2.81284 135.358 2.46361C136.163 2.27108 136.981 2.13297 137.806 2.05008C139.679 1.84486 141.575 1.85154 143.465 2.06998C145.353 2.27281 147.228 2.67471 149.064 3.27019L149.74 3.2747C149.236 2.67957 148.681 2.13963 148.084 1.66318C147.392 1.09711 146.636 0.636062 145.839 0.293219C146.071 0.230244 146.307 0.185429 146.547 0.159124C147.196 0.0827534 147.852 0.0636038 148.509 0.101877C150.633 0.269755 152.72 0.945678 154.625 2.08254C156.003 2.89563 157.295 3.88434 158.474 5.02735L157.955 3.81606C157.581 2.90186 157.142 2.01899 156.643 1.17602C157.508 1.61848 158.342 2.14059 159.133 2.73658C160.924 4.14198 162.525 5.82833 163.882 7.73844C165.188 9.53167 166.286 11.4938 167.147 13.5754L167.471 12.8438C167.959 11.6843 168.218 10.8405 168.218 10.8405C168.502 11.5365 168.751 12.2475 168.965 12.9701C169.489 14.6387 169.846 16.3573 170.03 18.0945C170.124 18.9539 170.159 19.8425 170.178 20.6968C170.198 21.5512 170.642 22.1197 170.843 22.8456C171.134 22.3768 171.411 21.9152 171.626 21.4826C172.009 20.7789 172.354 20.0503 172.66 19.3001C172.853 20.1452 173.005 20.9987 173.117 21.8572C173.365 23.8357 173.411 25.828 173.255 27.7965C173.105 29.4804 172.793 31.1333 172.322 32.7272L172.345 33.292C172.663 33.1396 172.885 32.8069 173.128 32.5666C173.655 32.0496 174.147 31.4907 174.599 30.8942C174.609 31.7218 174.567 32.5464 174.471 33.3618C174.259 35.2808 173.767 37.1349 173.014 38.8532C172.74 39.4717 172.429 40.0675 172.082 40.6369C171.976 41.9769 171.854 43.3103 171.717 44.6372C172.756 44.0648 173.758 43.4192 174.717 42.7041C174.717 42.7041 174.549 43.5872 174.208 45.0051C173.766 46.7172 173.182 48.374 172.464 49.9553C171.995 50.9652 171.468 51.9391 170.887 52.8712L170.946 53.0076C170.85 54.0613 170.724 55.1707 170.602 56.4628C171.668 55.8009 172.691 55.0626 173.666 54.2525C173.666 54.2525 173.557 55.1478 173.262 56.5027C172.878 58.2105 172.373 59.8764 171.751 61.4852C171.347 62.5013 170.801 63.5244 170.399 64.4164C170.443 65.6883 170.555 66.9598 170.736 68.2241C171.588 67.3105 172.39 66.3419 173.139 65.323C173.362 67.7384 173.367 70.1607 173.155 72.5543C173.068 73.5009 172.944 74.4449 172.79 75.3206C173.189 76.0378 173.63 76.7263 174.11 77.3814C174.316 76.4818 174.465 75.565 174.557 74.6373C174.71 73.2479 174.721 72.2963 174.721 72.2963C175.186 72.9413 175.619 73.6121 176.019 74.3059C177.418 76.7104 178.485 79.3187 179.186 82.0411C179.644 82.3304 180.115 82.5919 180.597 82.8243L180.567 78.4991L186.623 84.128C187.518 84.0397 188.392 83.8206 189.224 83.4765C188.698 82.4331 188.075 81.4496 187.366 80.5427C186.956 80.0395 186.52 79.5619 186.061 79.1123C186.667 79.0729 187.277 79.0756 187.887 79.1204C189.362 79.225 190.829 79.522 192.258 80.0052L193.365 80.42C194.021 79.6261 194.594 78.7513 195.073 77.8112C193.164 77.0534 191.226 76.4048 189.265 75.868C191.622 74.9159 194.039 74.134 196.501 73.5269C196.867 71.9853 197.053 70.3897 197.055 68.7776C196.323 68.7832 195.594 68.8444 194.874 68.9607C194.158 69.0763 193.455 69.2557 192.77 69.497C193.161 68.7989 193.604 68.1393 194.095 67.5247C194.88 66.5112 195.768 65.6022 196.743 64.8141C196.376 62.3701 195.713 59.9765 194.772 57.6984C193.482 59.3615 192.274 61.1012 191.153 62.9105C191.215 59.6699 191.514 56.4526 192.045 53.2894L192.231 52.2336C191.552 50.647 190.781 49.1453 190.116 47.5928C189.45 49.8598 188.914 52.1774 188.513 54.532C188.513 54.532 188.124 53.1556 187.684 51.0221C187.119 48.3685 186.73 45.6819 186.52 42.984C186.391 41.2659 186.342 39.546 186.373 37.8308L185.702 35.5822C185.335 37.1297 185.047 38.7028 184.84 40.2941C184.509 42.7563 184.451 44.4501 184.451 44.4501C184.451 44.4501 183.922 42.8323 183.329 40.2992C182.604 37.1153 182.18 33.872 182.066 30.6227C181.973 28.1792 182.076 25.7418 182.373 23.3388C182.112 23.8345 181.858 24.3059 181.649 24.7556C181.142 25.8208 180.694 26.9215 180.309 28.0519L180.238 27.0367C180.194 26.3794 180.168 25.4252 180.197 24.3008C180.254 21.4295 180.653 18.5969 181.383 15.8756C181.93 13.8388 182.675 11.8822 183.604 10.0386C182.872 10.5189 182.166 11.0433 181.488 11.6093C180.575 12.3537 179.7 13.1512 178.866 13.9986C178.866 13.9986 179.379 12.5593 180.382 10.474C181.641 7.86889 183.171 5.44437 184.943 3.24707C185.652 2.36415 186.408 1.5279 187.205 0.7422C187.768 -0.519901 188.403 -1.73812 189.107 -2.90532C187.352 -2.58124 185.645 -2.04456 184.014 -1.30486C183.302 -0.979178 182.608 -0.611684 181.934 -0.203854L181.117 0.18793L181.608 -0.623494C181.93 -1.14824 182.42 -1.8769 183.062 -2.71951C184.683 -4.83457 186.578 -6.67157 188.69 -8.17611C190.93 -9.75181 193.367 -10.9764 195.935 -11.8169C196.803 -12.0892 197.557 -12.2865 198.167 -12.4355L198.515 -12.6024C196.499 -13.1655 194.445 -13.4965 192.387 -13.59C191.413 -13.6574 190.439 -13.6571 189.471 -13.5893L188.358 -13.5075C188.358 -13.5075 188.721 -13.6816 189.371 -13.9936C190.25 -14.4794 191.153 -14.9129 192.077 -15.2923C195.022 -16.3706 198.108 -16.9861 201.246 -17.1211C203.6 -17.2303 205.968 -17.0999 208.321 -16.7317C209.459 -17.0106 210.626 -17.2212 211.801 -17.3733C209.879 -18.6674 207.859 -19.7641 205.768 -20.6486C204.704 -21.0895 203.623 -21.4698 202.528 -21.7879C203.656 -22.0397 204.8 -22.211 205.954 -22.3007C208.534 -22.5212 211.141 -22.4274 213.729 -22.0211C215.746 -21.701 217.747 -21.2247 219.716 -20.5958C217.31 -22.896 215.361 -24.5109 215.361 -24.5109C218.932 -23.6458 222.458 -22.5209 225.916 -21.1438C227.554 -20.5107 229.176 -19.7877 230.64 -19.0919L229.888 -20.2528C229.017 -21.5626 228.344 -22.4117 228.344 -22.4117C228.344 -22.4117 229.302 -22.1312 230.768 -21.5182C232.568 -20.788 234.319 -19.902 236.004 -18.8685C236.466 -18.5969 236.899 -18.3108 237.331 -18.0247L237.17 -18.4C236.626 -20.0105 236.151 -21.0781 236.151 -21.0781C236.151 -21.0781 237.06 -20.4449 238.361 -19.3212C239.982 -17.9125 241.48 -16.3377 242.835 -14.6196C243.316 -14.0072 243.774 -13.3632 244.21 -12.7291C244.109 -13.647 243.991 -14.5163 243.843 -15.2883C243.649 -16.3998 243.396 -17.501 243.087 -18.5862C243.832 -17.7438 244.539 -16.861 245.204 -15.9413C246.708 -13.8326 248.006 -11.5586 249.074 -9.16044C250.144 -6.77199 250.966 -4.26766 251.522 -1.69765C251.898 -0.966944 252.311 -0.258674 252.758 0.423704C258.264 8.59935 264.792 4.00715 271.129 6.88905C272.844 7.58979 274.347 8.84597 275.434 10.4873C276.522 12.1286 277.141 14.0757 277.209 16.0644C277.259 16.9549 277.217 17.8439 277.086 18.7146L276.947 19.6245C276.832 20.2856 276.671 20.9337 276.465 21.5629C275.977 23.0821 275.242 24.4795 274.295 25.689C273.29 26.9055 272.089 27.9062 270.749 28.6451C268.537 29.8299 266.074 30.3982 263.566 30.3023C262.797 30.2953 262.026 30.218 261.262 30.0713L260.422 29.8983C260.422 29.8983 260.695 29.7678 261.178 29.5356C261.856 29.2751 262.513 28.9599 263.144 28.5924C264.448 27.8661 265.623 26.8991 266.621 25.7311C266.714 25.3112 266.755 24.8765 266.742 24.439C265.556 25.1521 264.311 25.7492 263.023 26.2238C262.353 26.4727 261.671 26.6834 260.978 26.8552C260.978 26.8552 261.454 26.0924 261.986 24.9525C262.505 23.88 262.946 22.7608 263.305 21.605C262.379 22.1112 261.392 22.4811 260.368 22.7058C259.892 22.7954 259.409 22.8484 258.923 22.8644C259.101 22.401 259.242 21.9203 259.347 21.4272C259.57 20.4331 259.644 19.3975 259.565 18.3611C259.563 18.1575 259.543 17.9536 259.505 17.7524L256.077 20.261L255.124 15.8648C254.761 16.3862 254.36 16.874 253.926 17.3239C253.591 17.6791 253.23 18.0035 252.847 18.2941C252.754 17.7978 252.63 17.3077 252.474 16.8278C252.162 15.8455 251.72 14.9136 251.163 14.0636C250.941 13.7181 250.702 13.3866 250.446 13.0707L249.528 15.5676L246.313 11.8045L245.717 13.8593L241.821 9.78504C240.193 9.40785 238.524 9.49999 236.978 10.0524C238.035 11.6313 239.171 13.1464 240.379 14.5901C242.756 17.2869 244.994 20.1269 247.084 23.0956C248.163 24.71 249.106 26.4268 249.899 28.2229C250.619 29.9525 251.181 31.75 251.576 33.5877C252.002 36.5544 252.887 39.4418 254.192 42.1219C255.211 43.9291 256.819 45.2504 258.664 45.7964C259.196 45.9351 259.74 45.986 260.278 45.9474C260.661 45.9072 260.865 45.8714 260.865 45.8714C260.695 45.9711 260.518 46.056 260.335 46.1253C259.779 46.3084 259.193 46.3808 258.604 46.339C256.474 46.1299 254.464 45.002 253.014 43.2014C251.153 40.6181 249.696 37.7199 248.708 34.6352C248.116 33.1217 247.386 31.6731 246.529 30.313C245.626 28.9519 244.613 27.6823 243.502 26.5213C241.337 24.3142 239.067 22.2382 236.702 20.3034C236.87 20.6958 237.038 21.0882 237.191 21.4465C237.5 22.031 237.839 22.5962 238.207 23.1388C237.586 23.0548 236.968 22.9326 236.356 22.7728L235.232 22.4481C236.155 24.5457 237.242 26.5569 238.48 28.4578C237.13 28.1101 235.796 27.6793 234.483 27.1677L234.892 28.123C235.629 29.5072 236.526 30.7852 237.558 31.9234C238.049 32.48 238.576 32.9974 239.132 33.4714C238.423 33.5105 237.71 33.4953 236.999 33.4259C236.176 33.3585 235.356 33.2226 234.546 33.0191C234.966 33.6329 235.418 34.2196 235.9 34.7757C236.757 35.763 237.701 36.6542 238.715 37.435C239.193 37.8191 239.691 38.171 240.206 38.4887C239.657 38.7196 239.095 38.9137 238.522 39.07C237.32 39.4061 236.088 39.619 234.84 39.7061C235.942 40.5408 237.174 41.1313 238.463 41.443C239.104 41.6089 239.755 41.7031 240.406 41.724C239.916 42.2447 239.371 42.6995 238.781 43.0796C237.975 43.6125 237.106 44.0293 236.196 44.3202C236.833 44.7909 237.528 45.1512 238.257 45.3878C239.823 45.853 241.46 45.7399 242.913 45.0663C243.426 44.8388 243.915 44.5559 244.374 44.2214C244.73 43.9474 244.928 43.7703 244.928 43.7703C244.864 44.024 244.788 44.2732 244.701 44.5169C244.476 45.1751 244.189 45.8023 243.844 46.3884C243.198 47.4901 242.372 48.4441 241.404 49.2042C238.889 51.9488 235.679 53.8029 232.154 54.5475C231.025 54.8724 229.832 54.9135 228.662 54.6679C227.492 54.4224 226.373 53.8961 225.386 53.127C218.637 47.5835 224.846 35.8637 225.326 29.8752C225.676 26.4371 222.658 20.1116 219.799 18.5012C217.664 17.3044 215.607 17.7776 213.547 17.8199C212.389 17.9046 211.216 17.7177 210.104 17.2714C209.79 17.1341 207.372 15.1478 207.372 15.1478C207.056 15.2584 206.752 15.4042 206.465 15.5831C205.898 18.1456 205.661 20.7997 205.759 23.4694C205.843 27.2734 206.499 31.066 207.703 34.6911C208.114 35.9295 208.586 37.1449 209.116 38.3318L209.701 39.6967L208.737 38.596C207.89 37.601 207.095 36.5541 206.356 35.461C205.072 33.5745 203.944 31.5681 202.988 29.4679C203.861 33.7266 205.371 37.8271 207.453 41.598L208.94 43.5375C212.035 47.471 214.693 51.7912 216.853 56.3987C218.805 61.0884 219.762 66.164 219.647 71.2229C219.604 72.8346 219.393 74.4266 219.017 75.9671C218.922 76.3911 218.802 76.8062 218.656 77.2098L218.515 77.6475L218.551 77.1778C218.57 76.881 218.605 76.4527 218.597 75.8807C218.615 74.3417 218.468 72.7972 218.158 71.2791C217.661 68.7903 216.854 66.3741 215.759 64.1013C216.037 65.5849 216.239 67.0808 216.365 68.5816C216.818 73.4795 216.243 78.3724 214.686 82.8784C219.058 82.1927 223.302 80.8686 227.308 78.9403C229.621 77.8302 232.252 76.5678 234.839 78.226C237.427 79.8843 237.858 82.6798 239.246 85.3249C240.414 87.541 242.745 88.6848 244.441 90.092C245.936 91.2244 247.11 92.8101 247.812 94.6442C248.115 95.6689 248.199 96.7464 248.057 97.7899C247.915 98.8333 247.551 99.8135 246.994 100.651C245.819 102.049 244.396 103.165 242.805 103.936C243.331 103.023 243.632 101.966 243.68 100.864C243.728 99.7619 243.52 98.6512 243.078 97.6356C242.607 96.6176 241.919 95.7325 241.078 95.0596C240.236 94.3868 239.266 93.947 238.255 93.7799C238.124 97.1335 237.554 100.656 235.727 102.602C233.899 104.549 230.382 103.912 227.859 101.894C228.721 101.853 229.551 101.584 230.28 101.109C231.009 100.634 231.616 99.9669 232.049 99.1641C232.988 97.3065 233.256 95.0982 232.802 92.9623C232.573 91.6376 232.003 90.3963 231.162 89.389C230.606 88.7718 229.884 88.3745 229.116 88.2635C228.349 88.1526 227.582 88.3348 226.946 88.7797C226.36 89.3349 225.904 90.0375 225.613 90.8333C225.322 91.629 225.203 92.4968 225.266 93.3698C225.462 94.9986 225.998 96.5725 226.833 97.9651C225.979 98.1447 225.087 98.0724 224.244 97.7551C223.402 97.4379 222.639 96.8868 222.03 96.1565C221.292 95.4014 220.69 94.4976 220.262 93.4983C219.835 92.4991 219.589 91.4247 219.539 90.3389C217.802 91.6868 216.057 93.0177 214.319 94.3656C210.804 97.4627 206.764 99.7782 202.406 101.193C201.468 101.412 200.511 101.541 199.545 101.578C199.213 101.738 198.901 101.99 198.53 102.23C196.131 103.709 193.585 104.897 190.934 105.772C188.415 106.634 185.809 107.195 183.157 107.447C181.028 107.625 179.578 107.601 179.578 107.601C179.578 107.601 180.848 106.992 182.605 105.902C183.57 105.298 184.504 104.637 185.403 103.922C183.141 104.164 180.854 104.166 178.571 103.93C176.847 104.701 175.245 105.747 173.813 107.036C172.994 108.048 172.44 109.293 172.206 110.645C171.94 112.068 172.288 113.732 172.119 115.211C171.914 116.768 171.232 118.176 170.184 119.204C168.81 120.602 167.129 121.586 165.289 122.071C163.449 122.556 161.507 122.525 159.636 121.983C159.351 121.914 159.052 121.769 158.775 121.717C159.755 121.892 160.747 121.819 161.677 121.505C162.607 121.19 163.449 120.643 164.14 119.904C164.795 119.219 166.033 116.322 164.71 115.147C164.108 114.634 162.593 116.163 162.093 116.526C160.204 117.615 158.127 118.283 155.974 118.496C154.343 118.713 152.671 118.509 151.088 117.899C150.195 117.497 149.351 116.96 148.583 116.304C148.171 115.967 147.781 115.597 147.416 115.198C147.156 114.823 146.866 114.473 146.55 114.154C148.313 114.627 150.13 114.67 151.872 114.282C153.615 113.894 155.24 113.083 156.633 111.907C157.498 111.258 158.154 110.327 158.515 109.235C158.698 108.604 158.744 107.928 158.651 107.26C158.557 106.591 158.326 105.948 157.976 105.381C156.715 103.456 154.503 103.613 152.836 102.315C151.781 101.322 151.044 99.9808 150.744 98.5083C150.444 97.0359 150.6 95.5186 151.184 94.2023C151.829 93.1612 152.692 92.3121 153.705 91.7225C154.718 91.1329 155.854 90.8189 157.021 90.8055C155.533 90.779 154.417 93.4943 154.379 95.3635C154.384 96.3226 154.624 97.2749 155.072 98.1201C155.521 98.9653 156.162 99.6721 156.928 100.166C159.331 101.522 161.421 99.6349 163.517 98.5266C163.726 98.4057 163.943 98.3015 164.167 98.2146C161.33 96.0293 158.844 93.3225 156.825 90.2207C154.148 86.168 152.202 81.6072 151.099 76.8024C149.995 71.9976 149.757 67.0444 150.398 62.2298C151.228 57.0602 153.251 52.6342 154.351 47.5822C154.302 45.7856 154.136 43.989 153.853 42.2065C153.355 39.5495 152.443 36.9872 151.158 34.6358C150.038 32.5621 148.458 30.824 146.576 29.5956C145.222 28.6735 143.665 28.2153 142.113 28.282C141.665 28.3044 141.224 28.3914 140.802 28.5409C141.197 28.2775 141.624 28.0727 142.072 27.9314C143.719 27.4651 145.479 27.5586 147.126 28.2002C149.538 29.0995 151.728 30.6636 153.481 32.7396L153.785 33.1081C153.22 31.6348 152.442 30.2638 151.482 29.0509C149.858 27.1274 147.792 25.7306 145.526 25.025C143.261 24.3194 140.89 24.3345 138.695 25.0684C137.931 25.2991 137.188 25.6005 136.474 25.9694L135.933 26.62C133.907 29.2273 132.308 32.212 131.202 35.4505C129.991 38.8659 129.223 42.4735 128.921 46.1699C128.792 47.4216 128.724 48.6832 128.717 49.9492L128.721 51.4072L128.318 49.9967C127.953 48.7463 127.648 47.4788 127.402 46.1993C127.011 44.1585 126.738 42.0983 126.584 40.0315C125.843 43.3955 125.637 46.9028 125.975 50.4008C126.173 50.8614 126.673 51.7319 127.303 53.0336C128.242 54.9277 129.516 57.6893 130.872 61.0693C134.206 69.3216 136.354 78.0444 137.235 86.9109C138.02 95.6086 137.432 104.318 135.498 112.65C134.85 115.342 134.034 117.973 133.057 120.526C132.722 121.447 132.405 122.154 132.151 122.667L131.834 123.416L132.054 122.611C132.188 122.115 132.393 121.358 132.615 120.388C133.235 117.738 133.685 115.034 133.962 112.297C134.323 108.907 134.433 105.477 134.291 102.041C133.37 109.282 131.446 116.273 128.587 122.773C127.542 127.265 126.037 131.588 124.1 135.662C121.233 141.758 117.234 147.079 112.349 151.295C110.77 152.645 109.097 153.861 107.344 154.931C106.694 155.243 106.18 155.489 105.876 155.759L105.347 156.013L105.818 155.622C106.114 155.377 106.577 155.011 107.154 154.487C108.658 153.121 110.058 151.624 111.343 150.009C113.237 147.645 114.889 145.053 116.27 142.277C113.395 145.515 110.123 148.295 106.541 150.545C105.845 151.36 105.101 152.123 104.311 152.828C102.462 154.486 100.361 155.779 98.0941 156.655C95.5779 157.651 92.8818 158.071 90.1652 157.888C85.4284 157.494 80.8384 155.55 76.9843 152.306C75.774 151.321 74.636 150.23 73.5824 149.043L72.4191 147.689L73.8346 148.696C75.0718 149.566 76.3702 150.32 77.715 150.947C79.1586 151.642 80.6592 152.163 82.19 152.502C79.6429 151.111 77.4245 149.049 75.7404 146.507C73.6012 143.062 72.2732 139.111 71.8834 135.031C71.0696 125.899 71.7704 116.759 73.9512 108.064L74.0567 106.82C74.3493 103.801 74.889 100.251 75.5345 96.651C76.2838 92.8561 77.228 89.1211 78.3626 85.4635C79.5094 82.1388 80.1764 78.6141 80.34 75.0133C80.4419 71.8958 79.7348 68.7681 78.3015 65.9965C77.231 63.9899 75.7621 62.2651 74.012 60.9595C73.5108 60.5849 72.9814 60.2606 72.4307 59.9908L71.8252 59.7261L72.4546 59.8765C73.0481 60.049 73.6289 60.2797 74.1897 60.5658C76.2449 61.6004 78.0705 63.1496 79.5152 65.0851C81.4373 67.6383 82.7377 70.6752 83.2848 73.8882C83.3045 73.5085 83.3466 73.1387 83.3512 72.7663C83.4484 66.6939 80.4773 58.3508 74.7984 57.5179C71.5273 57.1167 68.2961 58.0661 65.7321 60.1819C63.8555 63.2766 62.5546 66.7707 61.9004 70.473C61.0735 75.2864 60.6684 80.1981 60.6904 85.1412C60.6395 89.2788 60.7035 92.0245 60.7035 92.0245C60.7035 92.0245 60.103 89.5157 59.3009 85.6846L59.5655 88.005C60.046 92.3194 60.5741 97.043 60.733 101.841C60.9567 106.562 60.5903 111.264 59.6443 115.813C58.8113 119.813 57.0769 123.473 54.5982 126.461C52.8743 128.519 50.75 130.121 48.3703 131.156C47.7106 131.428 47.0353 131.655 46.3478 131.839L45.6241 132.022L46.3045 131.695C49.2033 130.395 51.6675 128.192 53.4095 125.345C54.504 123.588 55.3297 121.637 55.8555 119.564C54.2685 122.917 51.8595 125.682 48.889 127.561C45.9186 129.439 42.4998 130.36 39.0026 130.222C34.8039 130.084 30.632 129.023 26.7308 127.103C23.8089 125.704 21.0012 124.008 18.3458 122.036C11.7051 116.865 5.58565 110.9 0.106753 104.258C2.48982 106.035 4.89582 107.78 7.35601 109.397C6.47122 108.011 5.97918 107.075 5.97918 107.075C5.97918 107.075 7.00939 108.247 8.71037 109.878C9.26011 110.395 9.91473 110.945 10.5918 111.505C11.2688 112.064 12.4866 112.652 13.4128 113.112L12.0708 110.404L20.2515 116.186C20.4461 116.257 20.6328 116.352 20.82 116.407C21.0072 116.461 21.4938 116.618 21.8307 116.724L20.8956 114.54L28.8076 117.736L29.4541 117.713C29.1077 117.279 28.7415 116.865 28.3572 116.471C28.9526 116.41 29.5528 116.39 30.1541 116.411C31.3797 116.435 32.6061 116.59 33.8159 116.875C35.1355 116.468 36.3915 115.865 37.5505 115.083C37.1844 114.909 36.8183 114.735 36.5116 114.615C35.4795 114.205 34.738 114.006 34.738 114.006C35.2471 113.619 35.7784 113.268 36.3291 112.954C37.5927 112.237 38.9302 111.678 40.3178 111.287C40.6655 111.12 41.0717 111.09 41.4336 110.999C41.7859 110.459 42.1086 109.893 42.4087 109.317C42.1006 109.321 41.7845 109.349 41.5061 109.38C40.8235 109.447 40.1471 109.559 39.4803 109.715C39.8747 109.082 40.3037 108.478 40.7652 107.905C41.7904 106.628 42.9462 105.487 44.2115 104.504C44.3615 103.918 44.5115 103.331 44.6391 102.735L44.2558 102.734C43.6757 102.771 43.1 102.849 42.532 102.965C42.7908 102.401 43.0811 101.857 43.4013 101.335C43.9293 100.441 44.5386 99.6111 45.2204 98.8575C45.379 97.568 45.4928 96.2589 45.5769 94.9229C45.4271 94.9842 45.2807 95.0544 45.1384 95.1333C44.6394 95.4003 44.1651 95.7174 43.7214 96.0806C43.7139 95.446 43.7543 94.8144 43.8423 94.1922C44.0186 92.7104 44.4092 91.2804 44.9992 89.9558C45.1925 89.5135 45.4307 89.0907 45.6537 88.6752L45.607 83.9264L43.6747 84.6068L45.5623 75.9477C45.5854 74.6821 45.6309 73.4263 45.7666 72.1684C44.6629 72.698 43.9497 73.2459 43.9497 73.2459C43.9497 73.2459 44.0496 72.4576 44.2974 71.2487C44.6229 69.7372 45.0736 68.2681 45.644 66.8595C46.0101 65.9441 46.4276 65.057 46.8942 64.2031C47.1846 62.9561 47.5434 61.7332 47.9689 60.5408C47.659 60.5697 47.3521 60.6208 47.0501 60.6938C46.4426 60.8177 45.8454 60.9874 45.2627 61.2018C45.5185 60.5591 45.8124 59.9373 46.1423 59.3401C46.9168 57.9249 47.885 56.6561 49.0144 55.5763C49.7596 54.8572 50.5648 54.2162 51.4204 53.6609C52.1656 52.5752 52.9713 51.543 53.8333 50.5699L53.2116 50.3952C52.4855 50.2216 51.7491 50.1272 51.0131 50.1134C51.6028 49.5939 52.2374 49.1379 52.9087 48.7514C54.3879 47.9108 55.9907 47.343 57.6566 47.0695C59.2408 45.8954 60.9435 44.9198 62.7352 44.1596L62.5787 44.0496C61.9922 43.6095 61.3791 43.2163 60.7444 42.8732C61.4068 42.6587 62.0813 42.4861 62.7649 42.3561C64.3361 42.069 65.9414 41.989 67.5476 42.1177C68.2853 42.175 69.0215 42.2747 69.7534 42.4166C70.6691 42.3488 71.5902 42.3395 72.5119 42.3886L72.1759 41.6039C71.6098 40.5798 71.1596 39.9115 71.1596 39.9115C71.7732 39.9937 72.3839 40.1126 72.9889 40.2677C74.3937 40.619 75.7716 41.1147 77.1042 41.7481C78.3636 42.3498 79.5792 43.0668 80.7378 43.8914L80.4237 43.1578C80.1146 42.4693 79.7477 41.8121 79.328 41.1951C80.0592 41.3613 80.7764 41.6098 81.4683 41.9368C83.0416 42.7022 84.5056 43.7355 85.8046 44.9975C86.7896 45.9655 87.6879 47.0365 88.4858 48.1943C88.4447 47.439 88.3535 46.6854 88.213 45.9396C88.7898 46.4517 89.3331 47.0091 89.8383 47.607C91.0421 49.0199 92.0606 50.6097 92.8616 52.326C93.7497 54.1747 94.3698 56.1546 94.6984 58.1903L94.8824 59.7267C95.5317 58.2634 95.8755 57.1935 95.8755 57.1935C95.8755 57.1935 96.0938 58.3844 96.2665 60.2348C96.464 62.5867 96.4148 64.9429 96.12 67.2563C96.0441 67.9303 95.9155 68.6089 95.7869 69.2876L95.7911 69.5529C96.5108 68.9228 97.1942 68.2447 97.8377 67.522C97.8217 68.3124 97.7694 69.0994 97.681 69.8801C97.3698 72.8408 96.6266 75.7042 95.4799 78.3605L95.2849 80.161C96.147 79.7267 96.9858 79.2419 97.7978 78.7084C97.7978 78.7084 97.5233 79.6422 96.9726 81.0376C96.2989 82.7704 95.4733 84.4199 94.507 85.9636L94.3387 86.2089C93.9547 88.1944 93.4791 90.1523 92.9138 92.0753L92.7408 92.693C93.1793 92.4826 93.6178 92.2722 93.9958 92.0908C94.6418 91.7283 95.2644 91.3197 95.8596 90.8674C95.6704 91.6837 95.4347 92.4836 95.1538 93.2627C94.5137 95.0356 93.6728 96.7033 92.6502 98.2275C91.9874 99.2004 91.2577 100.114 90.4672 100.961L89.878 103.033C91.4923 102.547 92.7619 101.979 92.7619 101.979C91.7655 104.198 90.5586 106.286 89.1605 108.211C88.551 109.121 87.8955 109.991 87.197 110.819L86.9792 111.417C89.0377 110.861 90.6238 110.223 90.6238 110.223C89.5936 112.461 88.3699 114.577 86.9687 116.543C86.2313 117.587 85.4413 118.584 84.6022 119.529C84.4377 120.41 84.3213 121.304 84.2537 122.205C84.6014 122.038 84.8975 121.794 85.1556 121.587C85.6227 121.238 86.0668 120.853 86.485 120.435C86.5323 121.122 86.5339 121.808 86.4898 122.49C86.4055 124.045 86.1184 125.568 85.6375 127.012C85.4635 127.547 85.2614 128.07 85.0321 128.577C85.1817 129.012 85.3625 129.434 85.5727 129.84L85.6977 129.451C86.1108 128.245 86.3244 127.381 86.3244 127.381C86.3244 127.381 86.675 128.2 87.2229 129.48C87.6916 130.764 88.0675 132.083 88.3468 133.424C88.8917 133.86 89.4773 134.228 90.0919 134.52C90.0216 134.034 89.9246 133.551 89.8016 133.076C89.6474 132.391 89.4446 131.718 89.1951 131.063C89.8045 131.369 90.3976 131.717 90.9709 132.103C92.2897 133.007 93.513 134.077 94.6142 135.291C95.3911 135.219 96.1575 135.072 96.9043 134.85C95.6405 133.729 94.6276 132.981 94.6276 132.981C94.6276 132.981 95.4186 132.828 96.6299 132.719C98.1441 132.559 99.6713 132.514 101.201 132.583C101.259 132.581 101.317 132.588 101.374 132.603C102.615 131.686 103.773 130.642 104.831 129.483C104.49 129.343 104.139 129.236 103.783 129.164C103.156 129.013 102.517 128.953 101.884 128.985C101.884 128.985 102.014 128.82 102.25 128.562C102.602 128.182 102.986 127.84 103.397 127.539C104.743 126.564 106.283 125.944 107.906 125.725C108.656 124.666 109.331 123.561 109.968 122.453C108.78 122.558 107.605 122.758 106.451 123.05L106.279 123.03L106.369 122.987C108.184 120.085 110.497 117.615 113.185 115.706C113.473 114.889 113.754 114.055 113.967 113.274C112.684 113.615 111.426 114.047 110.201 114.567C111.181 112.289 112.392 110.149 113.811 108.187C114.446 107.327 115.125 106.487 115.788 105.737C115.974 104.64 116.131 103.516 116.211 102.47C115.909 102.615 115.681 102.848 115.43 103.029C114.859 103.463 114.312 103.932 113.79 104.434C113.876 103.638 114.001 102.851 114.165 102.074C114.546 100.286 115.101 98.5583 115.821 96.919C116.107 96.2676 116.438 95.6358 116.822 94.9992C116.856 94.0574 116.868 93.1058 116.864 92.1614C116.079 92.7081 115.324 93.3038 114.603 93.9458C114.664 90.5484 115.29 87.2223 116.452 84.1329C116.318 82.7987 116.176 81.4888 116.004 80.2347C114.72 81.9613 113.862 83.3193 113.862 83.3193C113.789 80.3753 113.928 77.4409 114.278 74.5437C114.36 73.9281 114.451 73.2883 114.556 72.6825C114.054 70.7022 113.478 68.7167 112.878 66.7628C111.963 68.4565 111.36 69.8152 111.36 69.8152C110.031 64.8927 109.332 59.8206 109.283 54.7498L109.04 53.7147C108.886 53.9941 108.733 54.2735 108.609 54.5384C108.254 55.2027 107.941 55.8954 107.674 56.6117C107.438 55.847 107.239 55.0704 107.079 54.2855C106.671 52.4697 106.489 50.6123 106.538 48.766C106.622 46.7208 106.994 44.7176 107.641 42.8281L107.812 42.3345C107.866 41.6508 107.927 40.984 108.01 40.3271C107.145 41.031 106.382 41.8747 105.747 42.832L105.357 43.4101L105.366 42.6653C105.365 41.9867 105.411 41.3115 105.503 40.6455C105.795 38.4638 106.507 36.3978 107.592 34.5841C108.478 33.189 109.569 31.9711 110.823 30.9772C111.178 30.1897 111.548 29.4363 111.933 28.6757C111.353 28.8102 110.81 28.9472 110.297 29.1112C108.939 29.5573 108.04 29.9683 108.04 29.9683C108.04 29.9683 108.524 29.057 109.405 27.7503C110.527 26.1176 111.807 24.6278 113.225 23.3055C114.382 22.2325 115.623 21.2724 116.935 20.4351C117.279 19.9616 117.623 19.488 117.974 19.0315C117.472 19.1364 116.976 19.2714 116.489 19.4358C115.645 19.6933 114.824 20.0252 114.034 20.4286C114.503 19.586 115.033 18.7885 115.619 18.0433C116.962 16.2928 118.553 14.7945 120.333 13.6013C122.228 12.3625 124.287 11.437 126.447 10.8527C127.167 10.3219 127.842 9.85426 128.63 9.35287C128.143 9.23696 127.663 9.1381 127.235 9.07594C126.308 8.91251 125.375 8.82422 124.443 8.81175C125.249 8.28038 126.094 7.82001 126.97 7.43465C130.012 6.0818 133.293 5.41544 136.629 5.47346C137.339 5.13247 138.108 4.96934 138.877 4.76483C138.537 4.31106 138.031 3.93712 137.568 3.66552ZM154.225 101.217C153.913 100.875 153.636 100.498 153.397 100.092C153.123 99.6445 152.913 99.155 152.776 98.6419C152.581 98.1442 152.461 97.6183 152.419 97.0855C152.354 96.6133 152.339 96.1369 152.376 95.6664C152.386 95.1942 152.449 94.7282 152.566 94.2796C152.322 94.6802 152.136 95.1229 152.017 95.5923C151.894 96.0841 151.837 96.5962 151.848 97.113C151.87 97.7101 151.977 98.3041 152.164 98.8737C152.371 99.4641 152.659 100.02 153.016 100.522C153.328 100.922 153.679 101.285 154.062 101.603C154.444 101.878 154.856 102.096 155.287 102.25C154.892 101.961 154.534 101.613 154.225 101.217ZM162.98 13.8473C160.106 10.6299 156.491 8.35149 152.569 7.28488C148.679 6.30769 144.685 6.25387 140.855 7.12701C137.583 7.88932 134.433 9.11724 131.483 10.7807C129.402 11.957 127.388 13.2664 125.453 14.7026L123.275 16.3851C123.275 16.3851 124.123 15.8547 125.592 14.944C127.062 14.0334 129.203 12.8206 131.82 11.5241C134.796 10.056 137.934 8.98505 141.171 8.33281C144.843 7.54764 148.664 7.6574 152.372 8.65458C156.068 9.59513 159.492 11.6793 162.233 14.658C164.566 17.3526 166.282 20.6142 167.227 24.1488C167.913 26.6826 168.409 29.2649 168.71 31.8691C168.987 33.7928 169.072 34.842 169.072 34.842C169.072 34.842 169.063 33.7565 168.959 31.8528C168.834 29.2091 168.469 26.5733 167.868 23.9853C167.049 20.2347 165.364 16.7395 162.98 13.8473ZM167.986 52.906C168.05 51.3533 168.182 49.7887 168.35 48.3507C168.518 46.9128 168.7 45.5503 168.917 44.3973C169.305 42.1544 169.655 40.588 169.655 40.588C169.655 40.588 169.149 42.0444 168.565 44.2989C168.281 45.4225 168.024 46.7798 167.788 48.2297C167.552 49.6797 167.427 51.2614 167.34 52.8456C167.253 54.4299 167.294 56.0145 167.366 57.5019C167.437 58.9892 167.593 60.3746 167.752 61.5532C168.128 63.9226 168.5 65.4717 168.5 65.4717C168.5 65.4717 168.264 63.8986 168.128 61.5373C168.014 60.3784 167.964 58.9835 167.937 57.5158C167.91 56.048 167.906 54.4659 167.986 52.906ZM186.655 86.4574C184.971 86.9787 183.166 86.9537 181.447 86.3854C179.717 85.802 178.117 84.7793 176.779 83.4015C175.57 82.1856 174.478 80.834 173.522 79.3706C172.682 78.0463 171.974 76.9464 171.532 76.2124L170.773 74.9931L171.35 76.3409C171.832 77.5368 172.375 78.7046 172.975 79.8386C173.829 81.4828 174.877 83.0003 176.091 84.3486C177.539 85.9337 179.3 87.1223 181.219 87.811C183.175 88.3869 185.213 88.3502 187.098 87.705C188.687 87.1464 190.174 86.3081 191.502 85.2213C192.418 84.4757 193.289 83.6663 194.11 82.7979L195.031 81.8003L193.955 82.5637C193.265 83.08 192.264 83.7657 191.135 84.4924C189.742 85.3796 188.234 86.041 186.655 86.4574ZM186.636 27.4629C186.297 25.0935 186.153 22.7052 186.205 20.3277C186.247 17.6138 186.585 14.9311 187.213 12.3376C187.81 9.74248 188.689 7.24989 189.83 4.91238C191.524 1.37684 193.724 -1.81621 196.349 -4.55022C197.141 -5.38263 197.627 -5.82166 197.627 -5.82166C197.627 -5.82166 197.053 -5.54597 196.247 -4.78907C195.004 -3.80969 193.848 -2.70458 192.794 -1.48709C191.29 0.243081 189.98 2.16896 188.891 4.25232C187.651 6.65828 186.686 9.23439 186.016 11.925C185.417 14.6444 185.125 17.4503 185.146 20.2806C185.177 22.7359 185.465 25.1926 186.003 27.6022C186.37 29.2993 186.88 30.9619 187.528 32.5673C188.017 33.7103 188.258 34.2733 188.258 34.2733C188.258 34.2733 187.981 33.625 187.755 32.4585C187.292 30.8119 186.928 29.1381 186.666 27.4484L186.636 27.4629ZM207.679 -10.3567C208.826 -10.7577 210 -11.0736 211.192 -11.3024C212.558 -11.5545 213.94 -11.7096 215.332 -11.7667C216.721 -11.8144 218.117 -11.7556 219.508 -11.5908C220.726 -11.4442 221.938 -11.2153 223.137 -10.9054C224.006 -10.6832 224.866 -10.4092 225.712 -10.0845L226.647 -9.73108L225.736 -10.1988C224.893 -10.6245 224.032 -11.0009 223.157 -11.3264C221.949 -11.7162 220.722 -12.0208 219.486 -12.2383C218.064 -12.4368 216.637 -12.5282 215.213 -12.5119C213.806 -12.4355 212.411 -12.2536 211.035 -11.9674C209.836 -11.6579 208.659 -11.2648 207.511 -10.7905C206.543 -10.3262 205.727 -9.93439 205.189 -9.57339L204.341 -9.04297L205.233 -9.47103C206.032 -9.81233 206.848 -10.1079 207.679 -10.3567ZM207.416 -4.24587C204.819 -3.21217 202.456 -1.61699 200.459 0.449686C199.066 1.88392 197.871 3.53689 196.911 5.3602C196.256 6.68225 195.991 7.46761 195.991 7.46761C196.381 6.81206 196.805 6.18282 197.262 5.58278C198.414 3.97363 199.741 2.52925 201.215 1.27955C203.262 -0.436475 205.572 -1.74657 208.049 -2.59613C210.851 -3.54188 213.827 -3.83584 216.793 -3.45997C219.792 -3.12116 222.734 -2.16852 225.468 -0.651169C228.164 0.749385 230.74 2.12523 233.028 3.08397C234.87 3.88089 236.805 4.34246 238.753 4.45006C239.294 4.47954 239.835 4.46087 240.369 4.3942L240.949 4.34245L240.378 4.28713C239.843 4.24421 239.309 4.16369 238.78 4.0461C236.915 3.63545 235.097 2.94342 233.38 1.98977C231.243 0.95848 228.852 -0.794055 226.082 -2.28245C224.661 -3.06027 223.198 -3.73244 221.703 -4.29426C220.128 -4.8837 218.507 -5.28535 216.87 -5.49209C213.639 -5.81713 210.414 -5.41041 207.394 -4.29705L207.416 -4.24587ZM237.443 -8.18626C236.839 -8.65493 236.214 -9.08989 235.573 -9.48935C234.997 -9.80306 234.409 -10.0835 233.809 -10.3296C233.226 -10.5435 232.633 -10.7193 232.035 -10.856C233.152 -10.2812 234.246 -9.64584 235.31 -8.95223C235.884 -8.54885 236.495 -8.10156 237.068 -7.61543C237.643 -7.1516 238.196 -6.65508 238.725 -6.12802C239.194 -5.68421 239.64 -5.21144 240.061 -4.7122C240.502 -4.25464 240.918 -3.76716 241.305 -3.25285C241.005 -3.8535 240.676 -4.43711 240.32 -5.00105C239.937 -5.57033 239.522 -6.1131 239.077 -6.62591C238.609 -7.08007 238.045 -7.63189 237.443 -8.18626ZM244.628 2.76199C244.011 2.25201 243.328 1.85055 242.606 1.57283C241.593 1.19528 240.555 0.922349 239.505 0.757628C238.37 0.60857 237.248 0.326858 236.156 -0.0826973C235.075 -0.479686 234.039 -1.02604 233.072 -1.70836C232.171 -2.2822 231.296 -2.90559 230.449 -3.57601L228.633 -5.00792L227.933 -5.5358L228.465 -4.80398C228.821 -4.35747 229.308 -3.68662 229.983 -2.96166C230.732 -2.10731 231.547 -1.32824 232.42 -0.634567C233.48 0.140446 234.622 0.761125 235.817 1.21113C237.004 1.58467 238.218 1.82253 239.438 1.92086C240.571 2.05579 241.6 2.07599 242.47 2.27583C243.185 2.39501 243.889 2.6097 244.566 2.91514C244.824 3.03218 245.075 3.16542 245.32 3.31419C245.103 3.10945 244.872 2.92472 244.628 2.76199ZM257.07 12.2369C255.406 11.2874 253.718 10.4108 252.096 9.68777C250.612 9.05758 249.097 8.53414 247.561 8.12089C246.48 7.81034 245.386 7.57285 244.285 7.40979C243.49 7.29781 243.032 7.25015 243.032 7.25015L244.237 7.67983C245 7.93045 246.085 8.37677 247.379 8.88702C248.672 9.39728 250.129 10.1174 251.728 10.9133C253.361 11.7057 254.958 12.5939 256.512 13.5738C258.109 14.5353 259.667 15.577 261.089 16.6426C262.511 17.7082 263.799 18.715 264.915 19.6603C266.03 20.6057 266.923 21.3703 267.539 21.9588L268.528 22.8624L267.707 21.7549C266.976 20.8068 266.2 19.9024 265.381 19.046C264.224 17.8204 262.997 16.6774 261.71 15.6247C260.207 14.3929 258.651 13.245 257.048 12.1857L257.07 12.2369ZM271.676 21.1051L271.603 20.9345L271.537 20.7809C271.527 20.5673 271.497 20.3543 271.447 20.1454C271.357 19.8673 271.242 19.5986 271.104 19.3436L270.618 18.5072L269.958 17.8164C269.744 17.6456 269.52 17.492 269.287 17.3567C269.104 17.2629 268.913 17.1889 268.719 17.1359L268.494 17.0792L268.596 17.3181C268.662 17.5188 268.745 17.7131 268.844 17.8981C268.93 18.1579 269.038 18.4092 269.166 18.6488L269.645 19.3853L270.223 20.054C270.333 20.3099 270.655 20.4229 270.818 20.5913C270.971 20.7171 271.13 20.833 271.295 20.9384L271.452 21.007L271.676 21.1051ZM235.598 47.0955C235.027 46.5334 234.558 45.8568 234.217 45.1052C233.407 43.1489 232.876 41.0778 232.647 38.9692C232.361 36.5259 232.286 34.0692 232.421 31.6325C232.475 29.1184 232.656 26.6047 232.761 24.21C232.855 22.0242 232.809 19.8264 232.624 17.6329C232.476 16.0834 232.191 14.5465 231.771 13.0447C231.66 12.6212 231.53 12.2032 231.38 11.7925L231.198 11.366L231.282 11.8189C231.399 12.0919 231.416 12.5569 231.484 13.0998C231.705 14.6166 231.817 16.1446 231.819 17.6694C231.834 19.8228 231.75 21.9705 231.567 24.104C231.41 26.4621 231.161 28.9878 231.1 31.5262C231.019 34.0538 231.161 36.5958 231.525 39.1166C231.855 41.3447 232.547 43.5076 233.566 45.4999C233.997 46.3111 234.595 47.005 235.307 47.523C235.867 47.8991 236.491 48.1341 237.132 48.2102C237.678 48.2494 238.215 48.1132 238.678 47.8182C238.562 47.8882 238.441 47.9465 238.315 47.9923C237.943 48.0712 237.558 48.0676 237.18 47.9815C236.599 47.8366 236.055 47.5316 235.598 47.0955ZM224.799 49.501C225.372 49.9434 225.97 50.3437 226.588 50.6992C227.507 51.1848 228.464 51.5663 229.445 51.8374C230.586 52.1412 231.753 52.2734 232.912 52.2302C234.047 52.1249 235.159 51.8609 236.221 51.4445C237.142 51.0568 238.013 50.5489 238.817 49.9313C239.371 49.4902 239.883 48.9898 240.346 48.4367C240.689 48.0459 240.88 47.8104 240.88 47.8104L240.279 48.3659C239.751 48.8242 239.191 49.2374 238.603 49.6021C237.783 50.1202 236.911 50.5385 236.003 50.85C234.971 51.2157 233.895 51.4348 232.801 51.5021C231.71 51.5924 230.606 51.5202 229.519 51.2875C228.578 51.0976 227.653 50.8044 226.757 50.4125C226.1 50.1394 225.463 49.8052 224.853 49.4136L224.182 48.9539L224.799 49.501ZM230.589 80.3889L229.391 80.6554C228.644 80.8697 227.559 81.1024 226.284 81.4879C225.009 81.8734 223.517 82.2607 221.954 82.784C220.392 83.3074 218.755 83.8256 217.019 84.4117C215.436 85.0247 213.798 85.4735 212.125 85.7523C210.689 86.0159 209.213 86.0303 207.751 85.7948C206.705 85.6272 205.68 85.2868 204.712 84.7851C204.336 84.5904 203.972 84.3664 203.623 84.1148C203.92 84.4535 204.246 84.7587 204.596 85.0257C205.517 85.7456 206.543 86.2784 207.621 86.5976C209.163 87.0439 210.753 87.18 212.313 86.9991C214.068 86.7748 215.794 86.3735 217.468 85.8004C219.039 85.2114 220.783 84.5596 222.338 83.9778C223.893 83.3961 225.314 82.7554 226.538 82.2505C227.762 81.7456 228.745 81.1913 229.441 80.8575L230.589 80.3889ZM236.591 95.2984C236.623 95.9143 236.572 96.5277 236.441 97.1185C236.324 97.8047 236.098 98.4567 235.771 99.0442C235.483 99.6542 235.1 100.2 234.639 100.657C234.233 101.082 233.773 101.441 233.273 101.724C232.812 102.056 232.301 102.301 231.761 102.449C231.761 102.449 231.897 102.384 232.227 102.431C232.645 102.381 233.057 102.287 233.455 102.15C234.009 101.912 234.528 101.594 235 101.203C235.535 100.723 235.989 100.144 236.344 99.4889C236.67 98.8209 236.888 98.0906 236.987 97.3295C237.059 96.6576 237.042 95.973 236.936 95.297C236.847 94.8345 236.714 94.3813 236.54 93.945L236.335 93.4673C236.501 94.0647 236.587 94.6818 236.591 95.2984ZM236.537 85.0415C237.76 87.533 239.61 89.6017 241.852 90.9846C243.037 91.6006 244.09 92.5024 244.931 93.6204C245.608 94.6208 246.019 95.8016 246.114 97.0218C246.195 97.896 246.11 98.7703 245.865 99.5889C245.794 99.8222 245.708 100.049 245.608 100.267L245.508 100.501L245.631 100.277C245.758 100.079 245.869 99.8671 245.962 99.6452C246.299 98.8258 246.474 97.9293 246.475 97.0132C246.443 95.6954 246.07 94.3972 245.401 93.2713C244.518 92.0466 243.409 91.0406 242.153 90.3259C240.998 89.6313 239.935 88.7552 238.999 87.7265C238.167 86.845 237.437 85.8546 236.825 84.7795C236.376 84.029 235.988 83.2375 235.667 82.415C235.518 82.1097 235.384 81.7964 235.265 81.4767C235.331 81.8116 235.412 82.1433 235.509 82.4705C235.778 83.3378 236.115 84.181 236.515 84.9903L236.537 85.0415ZM225.328 87.767C224.913 88.3393 224.572 88.9734 224.312 89.6526C224.061 90.3759 223.91 91.1415 223.864 91.9246C223.843 92.5858 223.896 93.2513 224.02 93.9063C224.156 94.5166 224.367 95.1075 224.644 95.6631C224.46 95.0419 224.357 94.3989 224.337 93.7539C224.223 92.4011 224.402 91.0532 224.859 89.8223C225.086 89.1631 225.4 88.5484 225.791 87.9972C226.127 87.5015 226.516 87.0527 226.95 86.6597C227.356 86.2363 227.819 85.8828 228.323 85.61C227.788 85.7746 227.28 86.0186 226.811 86.3356C226.254 86.7184 225.748 87.1824 225.306 87.7158L225.328 87.767ZM206.84 97.5432C206.84 97.5432 206.583 97.6665 206.188 98.0207C205.599 98.399 204.97 98.7008 204.313 98.9203C203.407 99.2615 202.451 99.4425 201.48 99.4567C200.391 99.5075 199.293 99.3375 198.24 98.9551C197.175 98.5606 196.178 97.9505 195.301 97.157C194.522 96.4774 193.835 95.6769 193.263 94.7825C192.835 94.1575 192.478 93.4793 192.199 92.7639L191.848 91.945L192.055 92.8121C192.287 93.5683 192.599 94.2956 192.983 94.9788C193.526 95.9627 194.202 96.8529 194.987 97.6161C195.883 98.5049 196.927 99.1874 198.053 99.6203C199.18 100.053 200.365 100.227 201.532 100.131C202.547 100.046 203.537 99.7868 204.465 99.3613C205.104 99.0425 205.702 98.6382 206.246 98.1571C206.605 97.7177 206.818 97.492 206.818 97.492L206.84 97.5432ZM153.431 116.816C153.997 116.915 154.566 116.978 155.135 117.006C155.784 116.995 156.43 116.939 157.069 116.839C157.703 116.709 158.326 116.527 158.932 116.295C159.453 116.096 159.958 115.853 160.444 115.569C160.922 115.255 161.383 114.91 161.824 114.537C161.338 114.819 160.833 115.062 160.312 115.262C159.801 115.494 159.274 115.686 158.734 115.834C158.143 116.014 157.541 116.158 156.933 116.267C156.321 116.381 155.703 116.458 155.081 116.497C154.539 116.557 153.991 116.573 153.442 116.543C152.902 116.558 152.36 116.529 151.82 116.458C152.345 116.599 152.876 116.701 153.41 116.765L153.431 116.816ZM172.247 104.867C171.739 105.413 171.331 106.062 171.043 106.782C170.658 107.794 170.399 108.866 170.275 109.968C170.14 111.184 170.086 112.464 169.928 113.712C169.841 114.926 169.562 116.104 169.104 117.193C168.695 118.135 168.103 118.959 167.368 119.609C166.843 120.089 166.257 120.481 165.625 120.775C165.396 120.905 165.159 121.019 164.915 121.116C165.18 121.078 165.441 121.021 165.698 120.945C166.382 120.751 167.03 120.441 167.619 120.024C168.452 119.386 169.145 118.556 169.655 117.586C170.161 116.44 170.486 115.2 170.617 113.917C170.738 112.625 170.769 111.335 170.836 110.171C170.883 109.114 171.05 108.074 171.333 107.074C171.535 106.339 171.862 105.659 172.297 105.069C172.452 104.838 172.631 104.628 172.831 104.443C172.618 104.548 172.416 104.672 172.225 104.816L172.247 104.867ZM27.4958 125.399C28.7297 125.897 29.5678 126.194 29.5678 126.194C29.5678 126.194 28.7766 125.751 27.6428 125.061C27.0607 124.723 26.3816 124.329 25.7026 123.935C25.0235 123.541 24.2104 123.047 23.4573 122.565C22.7042 122.083 21.9281 121.633 21.2272 121.188L19.2885 119.938L17.4089 118.784C17.4089 118.784 18.0775 119.409 19.126 120.325L20.9645 121.767C21.665 122.253 22.4103 122.759 23.1858 123.251C23.9614 123.742 24.738 124.151 25.5526 124.521C26.3672 124.891 26.8684 125.083 27.4739 125.348L27.4958 125.399ZM44.0854 111.7C42.8871 113.56 41.359 115.125 39.5872 116.306C37.5558 117.664 35.29 118.57 32.9107 118.975C30.5413 119.413 28.1111 119.471 25.6938 119.148C23.5555 118.879 21.4322 118.419 19.3452 117.772C17.4887 117.182 15.9544 116.664 14.8926 116.228L13.2096 115.575L14.8066 116.495C16.2207 117.257 17.6674 117.936 19.1405 118.529C21.2439 119.38 23.4089 120.002 25.6035 120.384C28.1499 120.772 30.7162 120.76 33.2245 120.346C35.7465 119.861 38.137 118.84 40.2659 117.338C42.0934 115.988 43.6257 114.216 44.7639 112.136C45.5484 110.676 46.092 109.066 46.3707 107.375C46.441 106.911 46.4895 106.441 46.5157 105.969L46.537 105.465L46.4485 105.939C46.3615 106.403 46.253 106.86 46.1235 107.309C45.6461 108.874 44.9515 110.337 44.0635 111.649L44.0854 111.7ZM64.5691 45.9737C63.4732 46.3554 62.4054 46.8197 61.373 47.3633C59.9114 48.1672 58.5261 49.1211 57.2346 50.2129C55.7663 51.4781 54.4356 52.9235 53.2661 54.5234C52.1211 56.1467 51.1398 57.9066 50.3381 59.7741C49.6625 61.4127 49.1258 63.1226 48.7346 64.8829C48.4904 66.1302 48.3142 67.3959 48.207 68.6734L48.1365 70.1263L48.3118 68.7054C48.4937 67.4471 48.755 66.2085 49.094 64.9984C49.5397 63.2879 50.1234 61.6314 50.8383 60.0483C52.4684 56.4134 54.7622 53.2143 57.5826 50.6423C58.8124 49.5277 60.1321 48.5366 61.527 47.6802C62.5131 47.0569 63.5364 46.5041 64.5911 46.0249C65.3471 45.6621 65.7856 45.4517 65.7856 45.4517C65.7856 45.4517 65.3529 45.8033 64.5691 45.9737ZM72.5779 44.9688C73.1526 44.9468 73.7295 44.9583 74.306 45.0034C75.8082 45.0764 77.3058 45.3449 78.7678 45.8033C80.8076 46.4488 82.7512 47.4627 84.5178 48.8027C88.5432 51.9219 91.3816 56.5955 92.429 61.8293C92.8853 64.1328 93.1409 66.4688 93.1925 68.805C93.2275 70.8448 93.2286 72.5924 93.1987 73.7995L93.1753 75.7028L93.4537 73.8417C93.687 72.1905 93.843 70.5232 93.921 68.8462C94.0565 66.4445 93.9299 64.0196 93.5438 61.6235C93.058 58.8391 92.0792 56.1628 90.6646 53.7504C89.1806 51.3783 87.2909 49.3399 85.1093 47.7579C83.1983 46.4271 81.093 45.4972 78.9053 45.0176C77.3787 44.6734 75.8256 44.5735 74.2945 44.721C73.7273 44.7945 73.1663 44.9058 72.6144 45.0541L72.5779 44.9688ZM89.9364 90.9537L90.683 87.0788L89.5771 90.8382L88.5301 94.6929L87.4005 99.163L86.3532 103.655C86.0423 105.1 85.7251 106.445 85.508 107.598L84.7541 111.456L85.8595 107.738L86.9143 103.859L88.044 99.3889L89.0986 94.9137L89.9364 90.9537ZM111.22 124.525C110.142 126.359 108.945 128.102 107.639 129.74C106.162 131.599 104.444 133.205 102.538 134.512C100.679 135.844 98.5686 136.716 96.3434 137.073C94.3909 137.385 92.3797 137.22 90.4498 136.59C89.0674 136.136 87.756 135.422 86.5752 134.48C86.2443 134.213 85.9266 133.926 85.6239 133.62L85.2822 133.29L85.5707 133.666C85.8282 134.033 86.1104 134.379 86.4147 134.701C87.5294 135.85 88.8322 136.75 90.2451 137.346C92.2625 138.224 94.4195 138.558 96.531 138.32C98.9433 138.002 101.243 137.122 103.281 135.739C105.267 134.32 107.038 132.576 108.538 130.563C109.811 128.819 110.929 126.94 111.876 124.951C112.747 123.238 113.314 121.711 113.702 120.702L114.324 119.046C114.324 119.046 114.009 119.588 113.479 120.563C112.948 121.537 112.201 122.985 111.257 124.611L111.22 124.525ZM114.488 124.027C112.628 128.066 110.133 131.685 107.112 134.723C104.193 137.698 100.46 139.547 96.435 140.011C95.9986 140.056 95.3895 140.081 94.9009 140.089C94.4123 140.097 93.9237 140.105 93.4132 140.062C92.4301 140.017 91.4493 139.853 90.4882 139.574C88.6243 139.114 86.9163 138.008 85.6195 136.419C84.3592 134.769 83.4789 132.815 83.059 130.738C82.6069 128.579 82.3817 126.382 82.388 124.191C82.4369 119.753 82.871 115.35 83.6845 111.044C84.444 106.731 85.481 102.47 86.4334 98.3519C87.3859 94.2342 88.5715 90.1074 89.5694 85.9679C90.548 81.8497 91.1266 77.6085 91.2957 73.3141C91.5017 69.0936 91.0743 64.831 90.0305 60.6975C89.0391 56.5566 86.8694 52.8194 83.8486 50.0492C80.8127 47.5454 77.1592 46.182 73.4574 46.1715C71.6837 46.1341 69.9195 46.2917 68.1909 46.642C66.5175 46.9125 64.8805 47.3673 63.3042 47.9997C61.7538 48.6573 60.2857 49.5135 58.9289 50.5516C57.608 51.5861 56.4145 52.8011 55.3747 54.1697C53.4204 56.8297 51.9435 59.8877 51.0176 63.1911C50.4145 65.2764 49.9537 67.4154 49.6387 69.5906C49.0643 73.6388 48.7751 77.7447 48.7736 81.8721C48.7521 84.8439 48.837 87.7236 48.9306 90.4961C49.0243 93.2687 49.2467 95.9589 49.1859 98.456C49.2313 103.094 48.3197 107.631 46.5201 111.725C45.0187 114.977 42.6288 117.595 39.6715 119.227C37.454 120.39 35.0484 121.098 32.5662 121.32C31.0156 121.454 29.4538 121.475 27.8909 121.384L26.2842 121.25C26.2842 121.25 26.8162 121.385 27.8737 121.557C29.4508 121.817 31.0391 121.922 32.6196 121.871C33.4739 121.834 34.3232 121.742 35.1632 121.596C35.2713 121.804 35.3642 122.021 35.4408 122.244C35.6278 122.942 35.6778 123.669 35.5874 124.375C35.4853 125.115 35.2465 125.817 34.8856 126.439C34.715 126.734 34.5124 127.004 34.282 127.243C34.5584 127.059 34.8132 126.84 35.0416 126.59C35.5638 126.034 35.9623 125.351 36.2086 124.591C36.4789 123.8 36.5918 122.947 36.5399 122.087L36.4443 121.311C37.7002 121.003 38.9173 120.55 40.0758 119.959C41.0367 119.463 41.9433 118.856 42.7811 118.146C43.8753 119.031 44.8461 120.091 45.6584 121.29C46.4744 122.538 47.1167 123.909 47.5624 125.354C47.3238 123.825 46.865 122.337 46.2037 120.946C45.5602 119.591 44.7366 118.342 43.7617 117.244C45.2257 115.815 46.4419 114.104 47.3561 112.188C47.8104 111.233 48.2091 110.245 48.5499 109.229C48.7358 109.395 48.9296 109.549 49.1304 109.691C50.0495 110.39 51.0333 110.974 52.0625 111.431C53.0825 111.876 54.1406 112.189 55.215 112.365C55.6987 112.447 56.1846 112.502 56.671 112.53C56.1912 112.434 55.7159 112.305 55.2478 112.144C53.2316 111.48 51.3603 110.315 49.7809 108.741C49.3949 108.351 49.1205 108.05 48.965 107.858C49.7536 104.832 50.1838 101.688 50.245 98.5031L50.2492 96.9381C51.3599 97.3099 52.4991 97.5429 53.6452 97.6325C54.9971 97.7253 56.3449 97.6048 57.6477 97.2749C56.3342 97.3552 55.0084 97.2372 53.7065 96.9244C52.4969 96.6191 51.324 96.1296 50.2222 95.4703C50.1821 93.8443 50.0898 92.1816 50.0507 90.4728C50.0116 88.7641 49.9702 86.6245 49.9571 84.6359C50.1315 84.7062 50.3089 84.7653 50.4886 84.8128C51.4205 85.0957 52.3771 85.2387 53.3317 85.2378C54.2746 85.2371 55.2068 85.0942 56.1025 84.8131C56.504 84.6934 56.8953 84.54 57.2731 84.3543C56.871 84.4673 56.4606 84.5473 56.0451 84.5938C54.2821 84.8284 52.4709 84.5074 50.8183 83.6674C50.4225 83.4666 50.1466 83.2905 49.9599 83.195L49.9605 81.9196C50.002 78.1331 50.2768 74.3664 50.7831 70.6456L50.9317 70.7799C51.8975 71.5857 52.9686 72.2179 54.1028 72.6517C55.213 73.0625 56.3682 73.2725 57.5221 73.2732C58.0418 73.2824 58.5585 73.2342 59.0645 73.1294C58.5499 73.1537 58.0321 73.1269 57.5174 73.0492C56.4133 72.8883 55.3328 72.5237 54.3216 71.9708C53.3224 71.4438 52.4035 70.7373 51.6042 69.8814C51.3886 69.6578 51.1881 69.4171 51.0042 69.1616C51.323 67.2853 51.7499 65.4388 52.2822 63.6331C52.8777 61.7123 53.6454 59.8698 54.5745 58.1321C55.4391 59.1317 56.423 59.9961 57.4964 60.6992C58.7384 61.4725 60.0728 62.0326 61.4516 62.3592C60.1603 61.808 58.9431 61.0467 57.842 60.1015C56.8243 59.1983 55.9278 58.138 55.1826 56.9559C55.5735 56.3365 55.9717 55.7341 56.4299 55.1441C58.4216 52.591 60.9815 50.6558 63.8793 49.513C64.2875 49.3171 64.6958 49.1212 65.1625 49.0618C65.3816 50.3867 65.7311 51.6881 66.2045 52.9423C66.7506 54.3576 67.4538 55.6994 68.2972 56.9356C67.6525 55.5975 67.1574 54.184 66.8234 52.7276C66.5323 51.4057 66.3774 50.0586 66.3617 48.7126C67.076 48.5118 67.8033 48.362 68.5392 48.2641C70.1589 47.9907 71.8059 47.889 73.458 47.9604C75.4491 48.0151 77.433 48.4554 79.319 49.2612L79.1375 49.3483C78.4715 50.1974 77.9233 51.153 77.5094 52.1861C77.098 53.1848 76.8241 54.2516 76.6963 55.3527C76.6319 55.848 76.6032 56.3501 76.6102 56.8542C76.6751 56.3608 76.7715 55.8747 76.8987 55.3995C77.1643 54.3844 77.5634 53.424 78.0836 52.5482C78.5921 51.6897 79.217 50.9255 79.9377 50.2805C80.1948 50.1572 80.3402 49.9435 80.507 49.8223C81.3241 50.2701 82.0964 50.8172 82.8092 51.4529C84.7705 53.2345 86.3123 55.5167 87.2895 58.0846C85.0493 58.486 82.9955 59.6073 81.3803 61.3109C82.3618 60.6256 83.4369 60.1097 84.5706 59.78C85.5991 59.4971 86.6659 59.3799 87.7389 59.432C87.9727 59.9779 88.1157 60.5674 88.288 61.2251C89.0085 64.1207 89.3913 67.0891 89.4269 70.0566L84.2009 70.2814L89.4116 71.2979L89.3809 73.1841C89.2281 76.432 88.824 79.6463 88.173 82.7921L87.9326 82.7841C86.9878 82.7471 86.0454 82.5773 85.1281 82.2789C84.1877 81.9677 83.2795 81.5334 82.4234 80.9854C82.0382 80.7345 81.6652 80.4603 81.3062 80.1641C81.625 80.526 81.9649 80.8645 82.3234 81.1773C83.1194 81.8853 83.9882 82.4841 84.9093 82.9597C85.8518 83.4393 86.8399 83.7875 87.8501 83.9959C87.7391 84.4605 87.6584 84.9105 87.5402 85.358L85.0547 94.962C84.2423 94.9024 83.4334 94.7531 82.6403 94.5165C81.328 94.1205 80.0649 93.5215 78.8894 92.7378C79.9669 93.7233 81.1622 94.5356 82.4371 95.1487C83.1897 95.5407 83.9709 95.8545 84.7704 96.0857L84.3521 97.7054C83.5625 100.799 82.8548 103.956 82.1993 107.15L75.691 105.316L81.9749 108.286C81.8228 109.037 81.6484 109.779 81.5109 110.565C80.8977 113.779 80.4686 117.041 80.2259 120.333C79.3004 120.432 78.3627 120.413 77.4309 120.276C76.4171 120.129 75.4181 119.841 74.4578 119.42C74.015 119.229 73.5811 119.012 73.1581 118.768C74.4329 119.764 75.8457 120.513 77.332 120.982C78.2621 121.267 79.212 121.445 80.1663 121.514C80.1254 122.397 80.0844 123.28 80.0811 124.166C80.0677 126.55 80.3082 128.94 80.7976 131.288C81.0099 132.249 81.2975 133.191 81.6573 134.104C81.491 134.184 81.3246 134.264 81.1281 134.358C79.2399 135.307 77.1151 135.612 75.0148 135.235C74.5302 135.159 74.0495 135.046 73.576 134.897C74.0339 135.119 74.5037 135.306 74.982 135.456C76.0459 135.803 77.1439 135.97 78.2376 135.951C79.3583 135.949 80.4647 135.765 81.5211 135.404C81.7137 135.329 81.9006 135.239 82.0805 135.135C82.5421 136.133 83.1139 137.068 83.7823 137.918C84.9216 139.346 86.3402 140.47 87.9205 141.197L87.7216 142.094C87.3857 143.344 86.8932 144.528 86.2579 145.614C85.5947 146.714 84.788 147.697 83.8622 148.532C83.4345 148.928 82.9778 149.285 82.4963 149.599C83.0024 149.355 83.4884 149.067 83.9499 148.737C84.9957 148.013 85.9332 147.12 86.7331 146.085C87.5345 145.033 88.1963 143.857 88.7 142.591C88.8246 142.244 88.9407 141.962 89.0116 141.701L89.7526 141.942C91.9671 142.516 94.2341 142.692 96.465 142.464C96.8712 142.434 97.2628 142.37 97.6544 142.305C97.8486 143.836 97.8977 145.377 97.8007 146.903C97.7016 148.832 97.3803 150.728 96.8445 152.545C97.5927 150.797 98.1332 148.942 98.4531 147.022C98.7132 145.403 98.8242 143.751 98.7843 142.092C102.076 141.302 105.121 139.672 107.681 137.329L108.075 137.654C108.783 138.261 109.416 138.967 109.958 139.753C110.519 140.548 110.979 141.422 111.324 142.347C111.489 142.772 111.627 143.207 111.737 143.651C111.689 143.195 111.617 142.743 111.52 142.294C111.298 141.286 110.959 140.308 110.512 139.385C110.046 138.44 109.473 137.56 108.808 136.768L108.57 136.512C110.741 134.384 112.643 131.944 114.229 129.252L121.389 131.8L114.865 128.185C115.403 127.228 115.873 126.282 116.389 125.274C117.569 122.765 118.592 120.165 119.454 117.49L119.992 117.725C121.05 118.161 122.142 118.471 123.25 118.65C124.351 118.819 125.459 118.853 126.555 118.751C127.443 118.654 128.008 118.526 128.008 118.526C128.008 118.526 127.422 118.561 126.543 118.51C125.478 118.476 124.415 118.295 123.378 117.972C122.352 117.659 121.357 117.219 120.411 116.66L119.859 116.308C121.032 112.405 121.908 108.388 122.479 104.295C123.862 104.68 125.268 104.914 126.679 104.994C128.543 105.095 130.4 104.943 132.209 104.542C130.464 104.745 128.694 104.725 126.934 104.482C125.522 104.238 124.129 103.839 122.777 103.288C122.996 101.415 123.192 99.5315 123.313 97.6431C123.524 94.3356 123.547 91.0069 123.383 87.6762C126.561 88.8886 129.956 88.9859 133.089 87.9545C129.829 88.6371 126.405 88.1138 123.337 86.464C123.021 81.9571 122.321 77.4729 121.248 73.0707C121.368 73.0127 121.489 72.9546 121.677 73.0088C123.078 72.7501 124.447 72.341 125.765 71.7874C127.059 71.2323 128.29 70.5247 129.436 69.6763C129.964 69.3025 130.471 68.8944 130.954 68.4542C130.432 68.828 129.891 69.17 129.333 69.4788C128.125 70.167 126.849 70.7104 125.525 71.1003C124.216 71.4819 122.869 71.7151 121.504 71.7961L120.94 71.7993C120.617 70.5764 120.256 69.351 119.887 68.1913C118.719 64.2453 117.775 60.2338 117.059 56.1807C120.215 56.1132 123.283 55.2661 126.04 53.7014C124.29 54.4066 122.453 54.8526 120.575 55.0281C119.356 55.1228 118.127 55.1003 116.901 54.9608L116.769 54.0988C115.982 49.4136 115.788 44.6615 116.191 39.98L116.283 39.1746C117.259 39.5023 118.26 39.7119 119.267 39.7996C120.748 39.8806 122.221 39.7211 123.639 39.3263C122.207 39.4846 120.751 39.3997 119.321 39.0745C118.347 38.8504 117.393 38.5079 116.478 38.0532C117.058 34.1848 118.34 30.5211 120.248 27.2775C120.829 26.3008 121.473 25.3733 122.176 24.5014C123.198 25.4212 124.296 26.2309 125.453 26.9187C127.172 27.9514 128.997 28.7353 130.88 29.2502C129.083 28.5089 127.367 27.5213 125.776 26.3112C124.716 25.5147 123.721 24.6154 122.803 23.6247C124.655 21.5138 126.762 19.6939 129.069 18.2114C130.856 17.0832 132.716 16.0944 134.637 15.2519C134.924 15.114 135.212 14.9762 135.499 14.8383C135.72 16.0754 136.084 17.2833 136.582 18.4318C137.263 19.9229 138.152 21.2948 139.215 22.4949C138.422 21.1712 137.806 19.7337 137.389 18.2298C137.055 16.9712 136.869 15.678 136.835 14.3824C137.137 14.2373 137.425 14.0995 137.727 13.9544C138.693 13.6142 139.689 13.3008 140.684 13.0289C144.449 11.8678 148.461 11.7731 152.359 12.7533C151.538 14.0669 150.862 15.4884 150.346 16.9895C149.758 18.7094 149.387 20.52 149.242 22.3725C149.6 20.5977 150.17 18.8935 150.935 17.3029C151.683 15.8113 152.601 14.438 153.669 13.215C157.098 14.6348 160.008 17.3496 161.864 20.861C162.899 22.8079 163.697 24.8874 164.238 27.0433L155.524 32.2324L164.5 28.3779C164.857 30.0819 165.102 31.8064 165.233 33.5378C165.381 35.7275 165.349 37.9181 165.137 40.0824C165.004 41.7298 164.629 43.4932 164.352 45.2716L155.921 45.2042L164.162 46.6998C163.646 51.1691 163.58 55.7112 163.965 60.2442C164.05 61.2935 164.157 62.3526 164.302 63.4142C162.521 63.897 160.699 64.2137 158.856 64.3613C156.87 64.4944 154.869 64.4222 152.877 64.1457C154.86 64.6652 156.874 64.9795 158.893 65.0843C160.771 65.1634 162.645 65.069 164.495 64.8022C164.925 67.6831 165.538 70.5365 166.329 73.3413C166.793 74.993 167.338 76.6197 167.96 78.2143C166.414 79.3424 164.767 80.2982 163.04 81.0687C160.976 81.9878 158.819 82.6575 156.605 83.0666C158.893 82.8916 161.146 82.4448 163.325 81.7341C165.124 81.1472 166.862 80.3753 168.516 79.4281C169.356 81.4943 170.384 83.4683 171.585 85.3181C172.61 86.8593 173.817 88.2458 175.172 89.4377C174.357 90.9944 173.44 92.4793 172.427 93.8809C171.232 95.5272 169.911 97.0552 168.478 98.4494C170.06 97.2355 171.545 95.8766 172.917 94.3863C174.1 93.1052 175.189 91.7229 176.177 90.2513C178.817 92.2015 181.982 93.0056 185.032 92.5008C185.269 93.8975 185.397 95.3083 185.416 96.7176C185.433 98.4075 185.304 100.088 185.031 101.735C185.966 98.7206 186.372 95.5122 186.23 92.2757C186.607 92.1909 186.984 92.0923 187.361 91.9798C189.136 91.3646 190.827 90.5118 192.397 89.4397C195.468 87.4411 198.097 84.7369 200.115 81.4996C201.02 79.9939 201.718 78.343 202.19 76.5967C202.535 76.6781 202.977 76.7744 203.516 76.927C204.785 77.2953 206.021 77.8125 207.202 78.4693C207.556 78.3983 207.916 78.3563 208.278 78.3436L208.025 78.136C206.722 77.1772 205.326 76.39 203.868 75.7914C203.345 75.5902 202.918 75.4453 202.559 75.3298C202.878 73.7724 203.037 72.1718 203.031 70.5582C202.931 67.6784 202.486 64.8075 201.708 62.0207C202.807 61.9048 204.77 61.7234 206.778 61.6444C208.784 61.6323 210.795 61.7385 212.801 61.9624C210.806 61.5057 208.796 61.1591 206.779 60.924C204.558 60.6737 202.364 60.6159 201.304 60.6101L201.024 59.6138C199.992 56.3119 198.808 53.0634 197.476 49.8816L197.118 49.0456C198.67 48.8307 200.201 48.4946 201.699 48.0399C203.53 47.4774 205.313 46.7595 207.032 45.8926C205.246 46.5333 203.411 47.0152 201.543 47.3336C199.893 47.5776 198.224 47.6912 196.548 47.6735C194.795 43.5791 193.108 39.6381 191.84 35.7423C193.38 35.6098 194.9 35.3278 196.382 34.8996C198.059 34.4058 199.679 33.7251 201.217 32.8675C199.604 33.4902 197.933 33.9342 196.226 34.1933C194.639 34.4427 193.028 34.5273 191.413 34.4461L190.762 32.3314C189.947 29.6278 189.404 26.8463 189.143 24.0388C189.091 23.4472 189.083 22.8752 189.067 22.2861C190.481 22.5103 191.905 22.5848 193.318 22.5086C195.045 22.4116 196.747 22.1051 198.395 21.5944C196.716 21.8671 195.006 21.9288 193.297 21.7783C191.878 21.6621 190.466 21.3886 189.084 20.9621C189.087 20.6724 189.091 20.3828 189.117 20.103C189.208 18.7841 189.418 17.5726 189.614 16.327C189.946 14.5154 190.405 12.7413 190.987 11.0203C192.244 11.4766 193.535 11.781 194.839 11.9279C196.244 12.0542 197.651 11.994 199.027 11.7486C197.65 11.7505 196.269 11.5706 194.915 11.2126C193.721 10.8614 192.556 10.3799 191.438 9.77555C193.404 4.229 196.817 -0.488542 201.262 -3.80241C203.288 -5.33045 205.48 -6.58252 207.794 -7.533C209.232 -8.14858 210.715 -8.64032 212.231 -9.00401C213.256 -9.24911 213.806 -9.32775 213.806 -9.32775C213.806 -9.32775 213.25 -9.30754 212.196 -9.17205C208.111 -8.53142 204.225 -6.98139 200.769 -4.61446C197.852 -2.62095 195.331 -0.0154813 193.339 3.06367C190.875 6.89484 189.188 11.2908 188.386 15.9703C188.14 17.2571 187.956 18.5605 187.834 19.8751C187.716 21.2452 187.699 22.6289 187.783 24.0127C188.036 26.9362 188.575 29.8358 189.391 32.6607C191.297 38.7244 193.517 44.677 196.04 50.4881C197.257 53.5854 198.488 56.7582 199.462 60.0544C200.508 63.3841 201.081 66.8492 201.162 70.3237C201.267 73.925 200.383 77.4247 198.626 80.3632C196.718 83.3458 194.248 85.8265 191.375 87.6476C188.605 89.7126 185.244 90.6594 181.827 90.3369C180.113 89.9801 178.467 89.2343 176.997 88.1475C175.528 87.0606 174.265 85.6567 173.292 84.026C171.124 80.5823 169.496 76.7786 168.478 72.7833C166.281 64.4014 165.654 55.692 166.636 47.1991C166.873 45.0287 167.432 42.9713 167.634 40.5501C167.826 38.2268 167.827 35.8792 167.638 33.5354C167.391 28.7069 166.113 23.9568 163.908 19.6747C162.724 17.4874 161.203 15.5351 159.417 13.9118C157.592 12.2915 155.505 11.0819 153.283 10.3563C148.861 9.11501 144.277 9.14615 139.98 10.4467C138.909 10.7549 137.875 11.0657 136.773 11.4712C135.671 11.8767 134.765 12.2293 133.654 12.7005C131.6 13.585 129.613 14.6347 127.708 15.8414C123.832 18.2658 120.523 21.6224 118.013 25.6763C115.563 29.8244 114.041 34.5874 113.565 39.5946C113.103 44.5313 113.264 49.5477 114.043 54.5017C114.783 59.405 115.867 64.2554 117.284 69.0084C122.934 87.4629 121.892 107.284 114.381 124.202L114.488 124.027ZM114.537 28.4135C113.8 29.6177 113.18 30.9076 112.686 32.2632C111.996 34.1905 111.495 36.2024 111.192 38.2656C110.869 40.6393 110.736 43.0496 110.795 45.4689C110.912 47.8789 111.164 50.2858 111.548 52.6758C111.888 54.9599 112.396 57.0401 112.818 58.8328C113.239 60.6255 113.664 62.0872 113.945 63.1249L114.429 64.7231L114.193 63.0673L113.526 58.6987C113.225 56.8893 112.987 54.844 112.7 52.5139C112.394 50.17 112.207 47.8153 112.14 45.4609C112.029 43.1234 112.102 40.7895 112.361 38.4859C112.588 36.4658 112.954 34.4751 113.457 32.5309C113.824 31.1522 114.286 29.8105 114.836 28.5167C115.216 27.5735 115.478 27.0364 115.478 27.0364C115.478 27.0364 115.095 27.6315 114.574 28.4988L114.537 28.4135ZM138.527 6.3726C137.665 6.78614 137.247 7.17185 137.247 7.17185C137.247 7.17185 137.746 6.93242 138.592 6.52613C139.783 5.96619 141.021 5.52372 142.291 5.20374C144.083 4.76005 145.928 4.56546 147.785 4.62438C149.893 4.65077 152.001 5.02565 154.039 5.73654C156.086 6.44275 158.043 7.47134 159.848 8.78962C161.446 9.9454 162.914 11.3142 164.217 12.863C165.148 13.9349 165.996 15.0899 166.752 16.3149C167.305 17.222 167.569 17.7534 167.569 17.7534C167.569 17.7534 167.335 17.2075 166.919 16.2351C166.229 14.9391 165.439 13.7076 164.559 12.5549C163.279 10.9588 161.836 9.53136 160.26 8.3041C156.583 5.44943 152.228 3.93404 147.838 3.98197C145.949 4.01163 144.083 4.29938 142.281 4.83863C140.981 5.21186 139.724 5.72559 138.527 6.3726Z" fill="url(#paint0_linear_565_85514)" fill-opacity="0.1"/>
<defs>
<linearGradient id="paint0_linear_565_85514" x1="303.223" y1="74.9453" x2="243.535" y2="-49.4443" gradientUnits="userSpaceOnUse">
<stop stop-color="#475467"/>
<stop offset="1" stop-color="#667085"/>
</linearGradient>
</defs>
</svg>
