<svg width="43" height="92" viewBox="0 0 43 92" fill="none" xmlns="http://www.w3.org/2000/svg">
<path d="M-4.59724 -33.7729C-7.58949 -27.636 -9.31476 -21.22 -8.97779 -14.3407C-8.60713 -6.89893 -5.84401 -0.334519 -1.61622 5.82495C-2.17558 4.3537 -2.81132 3.03317 -3.16401 1.6429C-3.56685 0.196415 -3.78054 -1.2963 -3.79975 -2.79786C-3.77279 -5.04748 -2.20478 -6.7842 -0.00327664 -7.13514C2.51273 -7.53782 4.90519 -6.20154 6.64168 -4.48733C11.1346 -0.0465703 13.4956 5.41102 14.0167 11.6537C14.5402 17.9527 12.8284 23.7387 9.8114 29.2008C7.76424 32.8278 5.274 36.1853 2.39816 39.1959C2.26787 39.3331 2.13084 39.4636 1.90844 39.6863C3.01369 40.3612 4.0538 40.9888 5.07593 41.639C24.1257 53.7375 32.7543 78.2899 32.9317 78.4879C32.77 77.5318 32.6509 76.7511 32.5049 75.975C32.3589 75.1989 32.1971 74.416 32.0107 73.6467C30.1484 65.8764 26.5945 58.9611 21.6029 52.7431C17.5324 47.6702 12.8081 43.3082 7.62113 39.4186C7.36279 39.2229 7.12467 39.0024 6.87307 38.7887C7.87274 37.2432 8.91507 35.7742 9.8114 34.2197C13.5809 27.6643 15.6768 20.6365 15.6117 13.0238C15.6148 6.85712 13.4796 0.880742 9.57103 -3.88443C6.96517 -7.12164 4.17959 -10.2149 1.51532 -13.4071C-1.32643 -16.813 -3.76156 -20.4574 -4.7118 -24.9117C-5.30036 -27.663 -5.21725 -30.4053 -4.7118 -33.1498L-4.59724 -33.7729Z" fill="#F4F4F4"/>
<path d="M12.1181 91.2588C12.1181 90.2105 12.1451 89.1599 12.1181 88.1094C11.9946 82.6563 11.7093 77.2189 10.3771 71.8941C9.00906 66.423 6.61436 61.4738 2.86056 57.2153C2.76689 57.1114 2.69496 56.9898 2.64904 56.8577C2.60312 56.7255 2.58415 56.5855 2.59324 56.4459C3.15709 53.8836 3.76363 51.3302 4.36118 48.7747C4.40513 48.6376 4.45688 48.5031 4.51619 48.372C10.1188 55.7777 11.8935 64.2881 12.4326 73.2326C13.1066 67.541 14.8341 62.0632 20.2952 58.9295C14.8273 50.7948 1.45879 40.7188 1.45879 40.7188C1.21393 47.7218 -0.183354 54.4055 -1.75586 61.1161C-0.969607 61.6223 -0.147409 62.0992 0.618625 62.6526C4.004 65.0979 6.19203 68.4364 7.78925 72.2405C9.42914 76.1548 10.3255 80.2604 11.0196 84.4177C11.3656 86.5504 12.1181 91.2588 12.1181 91.2588Z" fill="#F4F4F4"/>
<path d="M32.3442 33.2456C33.3877 30.1087 34.1183 26.8759 34.5255 23.5947C35.2466 17.1945 34.6153 10.9721 31.996 5.02183C29.8394 0.124393 26.636 -3.97667 22.6014 -7.45684C15.624 -13.4746 7.39526 -17.038 -1.29845 -19.6858C-1.39729 -19.7151 -1.50512 -19.7173 -1.88477 -19.769C-0.161749 -16.9188 3.14051 -13.4926 3.14051 -13.4926C8.79704 -12.2575 15.105 -10.4533 19.7305 -6.87419C27.6334 -0.757461 31.4119 7.2647 30.4841 17.3228C30.2236 20.1821 29.1543 23.1381 27.8468 25.7071C27.8468 25.7049 31.2951 30.8025 32.3442 33.2456Z" fill="#F4F4F4"/>
<path d="M-11.3848 5.58203C-1.65321 21.0122 0.260751 37.7899 -2.34961 55.2425C0.939175 40.6807 1.3997 26.1638 -2.92918 11.5998C2.51506 13.5283 7.77743 15.9373 12.7959 18.7986C13.1823 17.2711 13.0834 14.2993 13.0834 14.2993C9.05673 11.8533 4.74391 9.91446 0.242789 8.52679C-3.27962 7.46722 -10.9512 5.63377 -11.3848 5.58203Z" fill="#F4F4F4"/>
<path d="M28.6519 56.4751C27.2366 53.2131 26.2572 51.4382 24.815 49.2403C23.0313 46.525 21.1982 43.8412 19.4842 41.0764C18.2284 39.0517 17.2557 36.8741 16.8806 34.4827C16.8129 34.0777 16.7955 33.6659 16.8289 33.2567C16.9524 31.9249 17.7859 31.205 19.145 31.2478C20.85 31.3018 22.2001 32.1634 23.4716 33.1937C26.6166 35.738 28.8631 38.9797 30.6939 42.5364C33.4031 47.796 37.2782 58.9924 37.276 58.9811C35.6828 50.7181 32.6958 42.7873 28.443 35.5288C26.6009 32.3793 24.5207 29.3693 21.5105 27.2052C20.4969 26.4702 19.3773 25.8944 18.1902 25.4977C16.0651 24.8048 14.4117 25.7857 13.7737 27.9543C13.1358 30.123 13.448 32.2893 14.1219 34.4085C15.1867 37.7627 17.0019 40.7074 19.0933 43.5015C21.7666 47.0649 24.4713 50.6058 27.14 54.1737C27.6163 54.8103 28.2273 55.7799 28.6519 56.4751Z" fill="#F4F4F4"/>
<path d="M12.5299 32.4963C11.3318 34.4925 10.0738 36.6027 8.75586 38.8268C12.6275 41.7795 16.247 45.0497 19.577 48.6037C22.8972 52.1896 25.6873 55.9194 28.8772 60.3017C28.8772 60.3017 26.1006 55.6607 24.7033 53.5528C21.4033 48.5654 17.5147 44.0414 14.7943 38.6828C13.8234 36.7065 13.0643 34.6328 12.5299 32.4963Z" fill="#F4F4F4"/>
<path d="M6.10352 -9.43872C6.6786 -8.92806 7.08073 -8.57487 7.4761 -8.21942C14.1637 -2.19493 17.3874 6.43913 16.655 15.4894C17.7452 15.9349 18.7415 16.5829 19.5911 17.3993C20.3437 12.6436 19.6855 8.1511 17.9625 3.78233C15.4262 -2.65385 10.4751 -7.4388 6.10352 -9.43872Z" fill="#F4F4F4"/>
<path d="M16.4214 16.9426C16.3216 18.2391 16.143 19.5283 15.8867 20.803C15.8867 20.803 23.4415 26.706 27.3435 31.3065C29.4597 33.8846 33.7167 40.332 34.0245 41.0361C33.1259 34.5347 24.8612 22.4295 16.4214 16.9426Z" fill="#F4F4F4"/>
<path d="M9.11055 21.1267C7.88074 24.3354 6.32873 27.4106 4.4784 30.3052C4.30263 26.1412 3.69202 22.0071 2.65655 17.9705C4.96364 19.0278 7.39877 20.1909 9.11055 21.12M12.3634 19.9457C9.30599 17.7748 -1.86328 13.0168 -1.86328 13.0168C3.12605 24.6834 1.6434 38.3161 1.6434 38.3161C9.43629 30.0578 12.3544 19.9524 12.3544 19.9524L12.3634 19.9457Z" fill="#F4F4F4"/>
<path d="M8.98785 -0.222069C7.45353 -2.39971 5.46319 -4.52785 3.00559 -5.64367C1.93853 -6.12959 0.478353 -6.57276 -0.653851 -6.03285C-2.31846 -5.23873 -4.95128 -3.63475 0.244724 7.57963C4.8568 8.60623 9.21292 10.5593 13.0494 13.3207C13.0494 13.3207 12.8585 5.27602 8.98785 -0.222069ZM4.58708 -1.03868C5.33483 -0.265576 6.02485 0.561514 6.65155 1.4359C7.96347 3.29634 8.81487 5.63146 9.34727 7.7866C7.07731 6.67205 4.70436 5.78149 2.26202 5.12754C1.41961 3.17487 -0.0899996 -0.811471 0.0717438 -2.41545C0.233487 -4.01944 2.47992 -3.11284 4.58708 -1.03868Z" fill="#F4F4F4"/>
<path d="M13.8621 -8.54999C19.1345 -6.19238 23.9711 -2.16555 26.7679 2.94784C28.6529 6.44755 29.5433 10.3979 29.3423 14.3692C29.2165 17.1475 28.556 19.8853 27.6395 22.5083C27.398 23.1603 27.1197 23.7979 26.8061 24.4183C24.5596 21.2125 20.4531 17.9461 20.4531 17.9461C22.0256 11.3232 21.3832 3.74646 17.2564 -1.73813C14.4933 -5.41176 10.8676 -8.07082 6.87343 -10.2597C6.12761 -10.6669 5.37055 -11.0538 4.44727 -11.542C6.64428 -11.3215 11.4449 -9.74229 13.8621 -8.54999Z" fill="#F4F4F4"/>
<path d="M33.4126 -0.406449C34.3789 0.766618 35.2725 1.99798 36.0881 3.28069C39.303 8.17603 41.3556 13.7437 42.0884 19.5567C42.7621 24.9375 42.3232 30.3996 40.7989 35.6033C39.8779 38.7213 38.4604 41.5603 37.1035 44.5006L33.2846 34.0466C33.9068 32.5461 34.2236 31.455 34.2236 31.455C36.2611 24.7354 36.8384 17.9302 35.3468 11.0216C33.4957 2.45282 28.895 -4.44453 22.3444 -10.1248C21.0482 -11.2496 19.1994 -12.5139 17.8516 -13.5938C23.4137 -10.5635 29.0321 -5.7898 33.4126 -0.406449Z" fill="#F4F4F4"/>
</svg>
