<svg width="35" height="37" viewBox="0 0 35 37" fill="none" xmlns="http://www.w3.org/2000/svg">
<path d="M-24.508 14.5662C-24.508 14.5662 -20.6037 20.4285 -13.1757 17.3703C-5.74768 14.3121 3.99366 10.1889 9.49878 10.8143C15.0039 11.4396 19.4548 18.9629 14.3792 23.7408C8.52269 29.3002 4.88189 22.4706 4.88189 22.4706C7.26354 24.9816 14.9649 21.1027 11.2069 17.1261C9.68423 15.5139 7.24402 15.0547 4.37433 15.2501C5.88891 16.7464 7.52095 18.1187 9.25476 19.3538C6.27385 18.6477 3.43726 17.4312 0.870181 15.7582C-0.418251 16.022 -1.74573 16.3737 -3.03416 16.7841C-1.36044 18.6043 0.501261 20.2419 2.51977 21.6694C-0.595945 20.94 -3.55292 19.6488 -6.20644 17.8589C-7.42654 18.2888 -8.62713 18.7382 -9.76915 19.1779C-8.0985 20.921 -6.25751 22.4922 -4.27379 23.8678C-7.27702 23.1641 -10.1343 21.9407 -12.7169 20.2527C-14.1127 20.7998 -15.3426 21.2297 -16.3577 21.6108C-14.741 23.2855 -12.9697 24.8035 -11.0673 26.1443C-11.0673 26.1443 -17.1483 24.8937 -21.326 21.1125C-23.6979 19.0704 -24.508 14.5662 -24.508 14.5662Z" fill="#EAECF0"/>
<path d="M-8.74458 14.007C-8.74458 14.007 7.33155 4.8031 14.6815 11.281C23.232 18.7946 14.8962 34.1149 14.8962 34.1149C14.8962 34.1149 22.0607 27.4318 21.8752 19.3027C21.8752 19.3027 26.7557 23.5138 30.4062 32.4246C30.4062 32.4246 28.1124 18.0227 17.0729 9.0924C17.0729 9.0924 25.1646 10.6655 34.3398 19.8987C34.3398 19.8987 25.4672 3.46454 8.96162 4.96921C11.6822 3.58223 14.5883 2.59502 17.5902 2.03803C17.5902 2.03803 3.65171 -4.52781 -8.74458 14.007Z" fill="#EAECF0"/>
<path d="M16.0859 24.189C15.4123 25.1113 14.5575 25.8862 13.5739 26.4658C12.5903 27.0455 11.4986 27.4178 10.3661 27.5598C9.2234 27.6283 8.08052 27.4291 7.02827 26.9779C5.97602 26.5267 5.04342 25.8361 4.30458 24.9608C4.75746 26.272 5.56462 27.4319 6.63639 28.3116C7.70816 29.1912 9.00258 29.7563 10.3758 29.9438C9.9803 31.0909 9.35972 32.1473 8.55055 33.0509C8.55055 33.0509 4.77311 27.6771 -0.361105 29.3674C-5.77838 31.1554 -6.94969 36.8223 -2.87941 41.3266C-2.87941 41.3266 -5.17321 33.9009 0.556414 32.6991C5.56373 31.6537 7.90634 39.7144 7.90634 39.7144C10.2507 37.8175 12.1849 35.4628 13.5911 32.7937C14.9973 30.1246 15.8462 27.1969 16.0859 24.189Z" fill="#EAECF0"/>
</svg>
