<svg width="152" height="137" viewBox="0 0 152 137" fill="none" xmlns="http://www.w3.org/2000/svg">
<path d="M70.5182 83.6519C88.9827 81.2515 106.181 75.5482 121.34 64.4548C137.729 52.4406 148.531 36.2971 156.212 17.4273C153.701 20.9091 151.648 24.3385 149.012 27.2282C146.322 30.3165 143.244 33.0435 139.854 35.3412C134.691 38.6566 128.383 37.6942 124.28 33.2095C119.588 28.0865 119.041 20.6346 120.338 14.1085C123.708 -2.78483 132.592 -16.3515 146.025 -26.9086C159.583 -37.5552 175.327 -42.3436 192.292 -43.6748C203.623 -44.4589 215.005 -43.83 226.176 -41.8026C226.684 -41.712 227.186 -41.5959 228.027 -41.4239C227.905 -44.9529 227.774 -48.2627 227.72 -51.5654C226.683 -113.09 269.642 -169.587 269.827 -170.288C267.893 -168.485 266.294 -167.042 264.746 -165.545C263.197 -164.047 261.657 -162.504 260.185 -160.925C245.287 -145.022 234.873 -126.551 228.205 -105.855C222.762 -88.9744 219.918 -71.6725 218.845 -54.0263C218.787 -53.1445 218.642 -52.2715 218.533 -51.378C213.514 -51.3337 208.605 -51.5014 203.72 -51.2084C183.136 -49.9493 163.988 -44.1712 146.752 -32.5958C132.705 -23.3463 122.301 -9.51505 117.315 6.53519C113.854 17.3264 110.991 28.3105 107.72 39.1671C104.229 50.7485 99.5845 61.7622 90.8678 70.6114C85.4861 76.0811 79.117 80.0082 72.109 82.9773L70.5182 83.6519Z" fill="#FBFBFB"/>
<path d="M167.688 -101.042C158.979 -98.7088 150.521 -95.5196 142.439 -91.5212C126.783 -83.5557 113.561 -72.7784 103.943 -57.8842C96.0271 -45.6236 91.4958 -32.1755 89.6256 -17.7673C86.3931 7.14899 90.6271 31.2295 97.6437 54.9942C97.7254 55.2631 97.8821 55.512 98.334 56.4539C102.239 48.2532 105.085 35.5931 105.085 35.5931C99.409 20.8628 94.0514 3.79519 95.2604 -12.1065C97.3294 -39.2782 109.926 -59.9213 134.221 -72.907C141.123 -76.6058 149.459 -78.6088 157.271 -79.4889C157.266 -79.4855 163.699 -94.9869 167.688 -101.042Z" fill="#FBFBFB"/>
<path d="M170.318 40.0317C190.851 -5.28257 226.182 -34.8237 269.84 -55.0789C231.747 -40.7073 198 -19.9651 171.333 11.7506C167.554 -3.53733 165.143 -19.1326 164.128 -34.8514C160.07 -33.4381 153.451 -28.7523 153.451 -28.7523C153.924 -15.9145 155.981 -3.18651 159.575 9.14273C162.448 18.7516 169.786 38.9671 170.318 40.0317Z" fill="#FBFBFB"/>
<path d="M100.621 79.6012C114.386 75.7731 127.319 69.4101 138.753 60.8396C148.327 53.67 157.118 44.2874 164.315 34.7823C164.315 34.7823 161.13 24.9239 159.169 19.3507C153.801 33.079 146.702 45.4978 136.435 55.9633C126.168 66.4289 113.956 73.8554 100.621 79.6012Z" fill="#FBFBFB"/>
<path d="M109.871 22.7681C110.171 20.6924 110.372 19.2469 110.588 17.8133C114.27 -6.45342 129.093 -26.7518 150.8 -38.6697C150.179 -41.8202 150.159 -45.0607 150.743 -48.2203C138.785 -42.7948 129.543 -34.553 122.181 -24.073C111.331 -8.63847 107.865 9.81473 109.871 22.7681Z" fill="#FBFBFB"/>
<path d="M174.958 -29.96C184.11 -31.9768 193.442 -33.0599 202.809 -33.1928C193.591 -26.5423 185.094 -18.9468 177.456 -10.5305C176.402 -17.3694 175.396 -24.6585 174.943 -29.9498M167.388 -35.5918C167.032 -25.3734 172.959 7.19409 172.959 7.19409C192.037 -21.6757 225.305 -38.7641 225.305 -38.7641C194.806 -44.1074 167.417 -35.5815 167.417 -35.5815L167.388 -35.5918Z" fill="#FBFBFB"/>
<path d="M126.53 2.36721C123.874 9.12865 122.015 16.8539 123.162 24.1232C123.656 27.2817 124.839 31.2708 127.767 33.0377C132.073 35.635 139.676 39.2206 157.415 10.5591C152.832 -1.48071 150.742 -14.3286 151.273 -27.2069C151.273 -27.2069 133.241 -14.6967 126.53 2.36721ZM131.274 13.6108C131.913 10.7482 132.761 7.93593 133.811 5.19681C136.079 -0.582241 140.118 -6.02549 144.227 -10.4724C145.095 -3.63211 146.628 3.1064 148.804 9.64771C145.622 14.4964 138.81 23.9166 134.915 25.9561C131.02 27.9955 129.713 21.521 131.274 13.6108Z" fill="#FBFBFB"/>
<path d="M100.251 3.77144C97.7081 -11.7694 99.6196 -28.8238 107.066 -42.8659C112.207 -52.4102 119.866 -60.3669 129.21 -65.8703C135.725 -69.7543 142.951 -72.3605 150.299 -74.2114C152.146 -74.6402 154.015 -74.964 155.898 -75.1812C151.97 -65.2555 150.694 -51.0044 150.694 -51.0044C133.254 -44.6427 116.965 -31.807 110.669 -14.1804C106.45 -2.37617 105.836 9.86879 106.846 22.2467C107.038 24.5556 107.293 26.8598 107.566 29.6943C104.772 24.3622 101.164 11.0635 100.251 3.77144Z" fill="#FBFBFB"/>
<path d="M89.4566 -52.9575C90.6777 -56.9181 92.1407 -60.8004 93.8376 -64.5826C100.16 -79.2492 109.758 -92.279 121.895 -102.673C133.137 -112.283 146.233 -119.483 160.369 -123.824C168.851 -126.408 177.443 -127.443 186.174 -128.767L168.1 -104.382C163.75 -103.546 160.79 -102.629 160.79 -102.629C142.432 -97.181 126.07 -88.2804 112.577 -74.5147C95.8426 -57.4387 87.0407 -36.6124 83.9362 -13.1743C83.32 -8.53525 83.2155 -2.42886 82.7793 2.26025C81.3327 -14.95 83.7719 -34.905 89.4566 -52.9575Z" fill="#FBFBFB"/>
</svg>
