<svg width="127" height="137" viewBox="0 0 127 137" fill="none" xmlns="http://www.w3.org/2000/svg">
<path d="M70.5182 83.6519C88.9827 81.2515 106.181 75.5482 121.34 64.4548C137.729 52.4406 148.531 36.2971 156.212 17.4273C153.701 20.9091 151.648 24.3385 149.012 27.2282C146.322 30.3165 143.244 33.0435 139.854 35.3412C134.691 38.6566 128.383 37.6942 124.28 33.2095C119.588 28.0865 119.041 20.6346 120.338 14.1085C123.708 -2.78483 132.592 -16.3515 146.025 -26.9086C159.583 -37.5552 175.327 -42.3436 192.292 -43.6748C203.623 -44.4589 215.005 -43.83 226.176 -41.8026C226.684 -41.712 227.186 -41.5959 228.027 -41.4239C227.905 -44.9529 227.774 -48.2627 227.72 -51.5654C226.683 -113.09 269.642 -169.587 269.827 -170.288C267.893 -168.485 266.294 -167.042 264.746 -165.545C263.197 -164.047 261.657 -162.504 260.185 -160.925C245.287 -145.022 234.873 -126.551 228.205 -105.855C222.762 -88.9744 219.918 -71.6725 218.845 -54.0263C218.787 -53.1445 218.642 -52.2715 218.533 -51.378C213.514 -51.3337 208.605 -51.5014 203.72 -51.2084C183.136 -49.9493 163.988 -44.1712 146.752 -32.5958C132.705 -23.3463 122.301 -9.51505 117.315 6.53519C113.854 17.3264 110.991 28.3105 107.72 39.1671C104.229 50.7485 99.5845 61.7622 90.8678 70.6114C85.4861 76.0811 79.117 80.0082 72.109 82.9773L70.5182 83.6519Z" fill="#FBFBFB"/>
<path d="M167.688 -101.042C158.979 -98.7086 150.521 -95.5194 142.439 -91.521C126.783 -83.5554 113.561 -72.7782 103.943 -57.8839C96.0271 -45.6234 91.4958 -32.1753 89.6256 -17.767C86.3931 7.14923 90.6271 31.2298 97.6437 54.9945C97.7254 55.2634 97.8821 55.5122 98.334 56.4541C102.239 48.2534 105.085 35.5933 105.085 35.5933C99.409 20.8631 94.0514 3.79544 95.2604 -12.1063C97.3294 -39.278 109.926 -59.921 134.221 -72.9068C141.123 -76.6055 149.459 -78.6085 157.271 -79.4886C157.266 -79.4852 163.699 -94.9867 167.688 -101.042Z" fill="#FBFBFB"/>
<path d="M100.621 79.6014C114.386 75.7733 127.319 69.4103 138.753 60.8398C148.327 53.6702 157.118 44.2877 164.315 34.7825C164.315 34.7825 161.13 24.9242 159.169 19.3509C153.801 33.0792 146.702 45.498 136.435 55.9636C126.168 66.4291 113.956 73.8557 100.621 79.6014Z" fill="#FBFBFB"/>
<path d="M109.871 22.7681C110.171 20.6924 110.372 19.2469 110.588 17.8133C114.27 -6.45342 129.093 -26.7518 150.8 -38.6697C150.179 -41.8202 150.159 -45.0607 150.743 -48.2203C138.785 -42.7948 129.543 -34.553 122.181 -24.073C111.331 -8.63847 107.865 9.81473 109.871 22.7681Z" fill="#FBFBFB"/>
<path d="M126.53 2.36721C123.874 9.12865 122.015 16.8539 123.162 24.1232C123.656 27.2817 124.839 31.2708 127.767 33.0377C132.073 35.635 139.676 39.2206 157.415 10.5591C152.832 -1.48071 150.742 -14.3286 151.273 -27.2069C151.273 -27.2069 133.241 -14.6967 126.53 2.36721ZM131.274 13.6108C131.913 10.7482 132.761 7.93593 133.811 5.19681C136.079 -0.582241 140.118 -6.02549 144.227 -10.4724C145.095 -3.63211 146.628 3.1064 148.804 9.64771C145.622 14.4964 138.81 23.9166 134.915 25.9561C131.02 27.9955 129.713 21.521 131.274 13.6108Z" fill="#FBFBFB"/>
<path d="M100.251 3.77144C97.7081 -11.7694 99.6196 -28.8238 107.066 -42.8659C112.207 -52.4102 119.866 -60.3669 129.21 -65.8703C135.725 -69.7543 142.951 -72.3605 150.299 -74.2114C152.146 -74.6402 154.015 -74.964 155.898 -75.1812C151.97 -65.2555 150.694 -51.0044 150.694 -51.0044C133.254 -44.6427 116.965 -31.807 110.669 -14.1804C106.45 -2.37617 105.836 9.86879 106.846 22.2467C107.038 24.5556 107.293 26.8598 107.566 29.6943C104.772 24.3622 101.164 11.0635 100.251 3.77144Z" fill="#FBFBFB"/>
<path d="M89.4566 -52.9575C90.6777 -56.9181 92.1407 -60.8004 93.8376 -64.5826C100.16 -79.2492 109.758 -92.279 121.895 -102.673C133.137 -112.283 146.233 -119.483 160.369 -123.824C168.851 -126.408 177.443 -127.443 186.174 -128.767L168.1 -104.382C163.75 -103.546 160.79 -102.629 160.79 -102.629C142.432 -97.181 126.07 -88.2804 112.577 -74.5147C95.8426 -57.4387 87.0407 -36.6124 83.9362 -13.1743C83.32 -8.53525 83.2155 -2.42886 82.7793 2.26025C81.3327 -14.95 83.7719 -34.905 89.4566 -52.9575Z" fill="#FBFBFB"/>
</svg>
