<svg width="63" height="61" viewBox="0 0 63 61" fill="none" xmlns="http://www.w3.org/2000/svg">
<path d="M22.4805 82.6879C23.7433 63.4091 37.9405 49.2628 43.291 47.1416C42.6326 52.5864 42.0138 58.8652 42.0535 62.2375L36.5568 65.0862C36.5568 65.0862 36.997 59.9087 37.1233 59.3887C37.2496 58.8688 26.5034 65.6188 22.4805 82.6879Z" fill="#F2F2F2"/>
<path d="M29.0874 77.2C31.4127 71.7606 35.2209 66.4892 44.5347 63.0176C44.1469 59.1127 45.2816 46.1868 45.2816 46.1868L54.6621 39.6606C69.3085 59.815 61.7247 87.2465 61.7247 87.2465C64.2394 63.236 53.3831 48.2304 53.3831 48.2304C53.3831 48.2304 51.3122 49.0807 49.9231 50.1675C48.5467 53.1336 47.3561 94.5994 63.4528 121C51.4655 104.671 45.7416 81.9678 44.7566 67.4821C40.7338 67.0542 33.6135 70.784 29.0874 77.2Z" fill="#F2F2F2"/>
<path d="M37.5507 18.5314C37.5507 18.5314 51.167 12.2652 46.3901 0C46.3901 0 51.7768 5.08913 49.1069 11.3842C46.437 17.6793 37.5507 18.5314 37.5507 18.5314Z" fill="#F2F2F2"/>
<path d="M28.0286 32.8275C43.4597 26.7382 53.6016 38.386 53.6016 38.386C43.6996 44.4752 39.4928 47.1417 39.4928 47.1417C35.9642 42.6284 32.6215 41.6517 32.6215 41.6517C38.8037 34.7682 45.224 37.1511 45.224 37.1511C37.0232 29.8271 28.0286 32.8275 28.0286 32.8275Z" fill="#F2F2F2"/>
<path d="M34.9076 51.6242C34.379 50.2125 32.3496 48.9758 32.3496 48.9758C26.53 54.0072 22.83 70.4209 22.83 70.4209C23.714 54.5343 31.5558 43.5942 31.5558 43.5942C34.6424 44.2116 37.9941 48.3584 37.9941 48.3584L34.9076 51.6242Z" fill="#F2F2F2"/>
<path d="M28.0288 31.0655C28.0288 31.0655 26.3529 31.8562 25.4707 34.0623C25.4707 34.0623 36.0528 31.7677 40.0215 35.2989C40.0215 35.2989 25.5591 39.6226 23.5315 55.8594C23.5315 55.8594 21.7672 52.7705 24.7654 43.5942C27.7636 34.4179 12.6789 23.736 4.04329 22.855C4.0469 22.855 17.9753 23.3027 28.0288 31.0655Z" fill="#F2F2F2"/>
<path d="M22.0311 36.1802C22.0311 36.1802 24.2355 39.1806 23.348 43.5945C22.4604 48.0085 9.59276 60.6257 13.8249 77.2164C13.8303 77.2164 6.06962 56.654 22.0311 36.1802Z" fill="#F2F2F2"/>
<path d="M19.2102 32.6504C19.9155 33.0927 20.9727 34.9449 20.9727 34.9449C13.3816 40.5052 11.3611 52.8589 11.3611 52.8589C13.654 36.5336 19.2102 32.6504 19.2102 32.6504Z" fill="#F2F2F2"/>
<path d="M51.1304 53.213L53.6 51.8013C60.5146 61.4199 60.6535 89.6583 60.6535 89.6583C66.2097 85.2462 67.0035 77.2162 67.0035 77.2162C67.0035 77.2162 67.7972 85.2462 73.3534 89.6583C73.3534 89.6583 73.4923 61.4199 80.4069 51.8013L82.8801 53.213C82.8801 53.213 85.0846 93.4711 67.0053 115.526C67.0053 115.526 75.6462 100.16 75.6462 90.0988C75.6462 90.0988 73.7954 94.7763 67.0053 98.4032C60.2152 94.7926 58.3643 90.0988 58.3643 90.0988C58.3643 100.16 67.0053 115.526 67.0053 115.526C48.9278 93.4765 51.1304 53.213 51.1304 53.213Z" fill="#F2F2F2"/>
<path d="M55.1892 28.5924C54.7003 18.9666 61.0972 13.854 61.0972 13.854C55.0124 22.9437 63.6895 32.8277 63.6895 32.8277C58.2559 31.239 55.1892 28.5924 55.1892 28.5924Z" fill="#F2F2F2"/>
<path d="M78.9104 37.4201C68.065 48.7158 67.0042 75.1887 67.0042 75.1887C67.0042 75.1887 65.9453 48.7122 55.0981 37.4201C44.2509 26.128 31.5546 28.1535 29.085 29.7422C27.0707 28.3506 24.8378 27.3066 22.4789 26.6533C22.4789 26.6533 29.085 22.2412 39.9304 20.3889C49.9406 18.6775 53.157 9.18164 52.0169 4.86337C52.0169 4.86337 58.6663 14.8358 46.3904 23.2196C46.3904 23.2196 52.8991 32.3093 67.0078 34.8674C81.1166 32.3093 87.6253 23.2196 87.6253 23.2196C75.3458 14.825 81.9952 4.85254 81.9952 4.85254C80.8496 9.18525 84.0661 18.6739 94.0817 20.3781C104.927 22.2303 111.533 26.6425 111.533 26.6425C109.174 27.2957 106.941 28.3398 104.927 29.7313C102.452 28.1499 89.7558 26.1207 78.9104 37.4201Z" fill="#F2F2F2"/>
</svg>
