<svg width="74" height="194" viewBox="0 0 74 194" fill="none" xmlns="http://www.w3.org/2000/svg">
<path d="M51.7286 74.4486C52.2251 74.7919 52.6745 75.1645 53.0742 75.5642C53.2019 74.98 53.2753 74.4032 53.2939 73.8369C53.3531 72.5465 53.2027 71.3005 52.8453 70.1183C52.5033 68.9327 51.9672 67.8119 51.2443 66.7715L51.1886 66.3277C51.8101 66.4915 52.3814 66.7046 52.8937 66.9634C53.5011 67.2596 54.0103 67.627 54.4068 68.055C54.4509 67.8845 54.4769 67.7162 54.4845 67.5512C54.5101 67.1025 54.4791 66.6653 54.3918 66.2437C54.0662 64.8935 53.2454 63.7104 51.9867 62.777C51.0852 62.0992 50.0181 61.5273 48.8084 61.0737H50.035C50.9594 61.0623 51.858 61.1024 52.7222 61.1936C52.2228 60.7484 51.6479 60.3471 51.0037 59.9941C49.4904 59.2116 47.7161 58.6333 45.741 58.2787C43.8843 57.9244 41.8779 57.755 39.7722 57.7749L40.4647 57.3551C41.5642 56.7073 42.3716 56.2995 42.3716 56.2995C41.6679 56.3087 40.9522 56.3448 40.2276 56.4074C38.5525 56.5332 36.8409 56.7826 35.1242 57.1511C34.2746 57.3311 33.4011 57.559 32.5622 57.7869C31.7233 58.0148 31.1325 57.8829 30.4056 57.9548C30.8431 57.631 31.2746 57.3191 31.6822 57.0552C32.343 56.6054 33.031 56.1728 33.743 55.7597C32.9001 55.8712 32.0519 56.0113 31.202 56.1795C29.244 56.5744 27.2878 57.1055 25.3702 57.7629C23.731 58.3359 22.1346 59.0074 20.608 59.7662L20.0527 59.9101C20.1779 59.6582 20.4872 59.4183 20.7042 59.1904C21.1711 58.698 21.6816 58.217 22.2319 57.7509C21.42 57.9776 20.615 58.2382 19.823 58.5306C17.9582 59.2113 16.1782 60.0578 14.5511 61.0377C13.9657 61.392 13.4052 61.7646 12.8735 62.1533C11.5682 62.6011 10.2704 63.0569 8.9802 63.5207C9.46245 62.6759 10.0193 61.8345 10.6474 61.0017C10.6474 61.0017 9.79471 61.3616 8.43072 61.9853C6.78616 62.7588 5.20649 63.61 3.71106 64.5284C2.75668 65.1215 1.84209 65.7424 0.97258 66.3877H0.834371C-0.191082 66.7475 -1.26896 67.1434 -2.5262 67.5872C-1.95822 66.6993 -1.31219 65.8178 -0.592053 64.9482C-0.592053 64.9482 -1.4614 65.2721 -2.76698 65.8479C-4.41179 66.582 -6.00628 67.3841 -7.536 68.247C-8.50141 68.7987 -9.4627 69.4465 -10.3066 69.9623C-11.5565 70.2921 -12.8113 70.5765 -14.0643 70.814C-13.2334 69.9957 -12.3448 69.1948 -11.4029 68.4149C-13.7873 68.9491 -16.162 69.6282 -18.492 70.4421C-19.4132 70.766 -20.329 71.1139 -21.1758 71.4617C-21.9089 71.4018 -22.6172 71.3056 -23.2957 71.1739C-22.4295 70.7853 -21.5423 70.4286 -20.64 70.1063C-19.2898 69.6144 -18.3579 69.3386 -18.3579 69.3386C-19.0253 69.2147 -19.7157 69.1186 -20.426 69.0507C-22.8888 68.8082 -25.5264 68.8406 -28.2478 69.1466C-28.5662 68.9268 -28.8582 68.6905 -29.1225 68.4389L-24.8809 67.2393L-30.8574 64.8402C-30.8386 64.2265 -30.6902 63.5893 -30.416 62.945C-29.3535 62.9969 -28.3422 63.1296 -27.3995 63.3408C-26.8752 63.4692 -26.374 63.6214 -25.8986 63.7966C-25.906 63.3864 -25.9549 62.9858 -26.045 62.5971C-26.2594 61.6557 -26.6618 60.7739 -27.2437 59.9701L-27.7342 59.3583C-27.0059 58.7025 -26.1919 58.079 -25.3067 57.499C-24.4191 58.5416 -23.6364 59.6347 -22.9616 60.7738C-22.2072 58.9543 -21.624 57.1433 -21.2158 55.3518C-19.7324 54.6767 -18.1826 54.1044 -16.6027 53.6485C-16.5527 54.1322 -16.5574 54.6292 -16.6167 55.1359C-16.6758 55.6395 -16.7982 56.153 -16.9828 56.6713C-16.3282 56.2172 -15.7153 55.7398 -15.1501 55.2439C-14.2163 54.4417 -13.3927 53.6009 -12.6942 52.7368C-10.2709 52.2897 -7.87442 52.0516 -5.57019 52.0291C-7.10243 53.3466 -8.716 54.6319 -10.4044 55.8796C-7.23286 54.9252 -4.10197 53.8221 -1.04189 52.5809L-0.0211658 52.161C1.58548 52.161 3.11583 52.245 4.68792 52.245C2.51649 53.3225 0.285527 54.3281 -1.99193 55.2559C-1.99193 55.2559 -0.613346 55.1239 1.51117 54.812C4.15495 54.4364 6.8178 53.9352 9.47802 53.3126C11.1718 52.9134 12.8613 52.461 14.5401 51.9571L16.795 51.7652C15.3061 52.4431 13.786 53.0759 12.2419 53.6605C9.85372 54.5721 8.19792 55.0879 8.19792 55.0879C8.19792 55.0879 9.82369 54.98 12.3515 54.6561C15.5273 54.2363 18.7384 53.6011 21.9318 52.7608C24.3339 52.1329 26.7151 51.3783 29.0479 50.5056C28.5818 50.8175 28.139 51.1174 27.7141 51.3813C26.7085 52.0153 25.6635 52.6201 24.5849 53.1926L25.5852 52.9527C26.2329 52.7968 27.1701 52.5449 28.27 52.209C31.08 51.3623 33.8262 50.3017 36.4381 49.0542C38.3929 48.1197 40.2542 47.0783 41.9909 45.9474C41.5755 46.5644 41.1152 47.1771 40.6118 47.7827C39.9513 48.5931 39.2361 49.3939 38.4687 50.1818C38.4687 50.1818 39.8406 49.4381 41.8084 48.1905C44.2664 46.6278 46.5267 44.9376 48.5461 43.1524C49.3577 42.4366 50.12 41.7038 50.8296 40.9572C52.0241 40.2315 53.17 39.4703 54.2606 38.6781C54.076 39.9239 53.6795 41.199 53.0781 42.4807C52.8129 43.0411 52.5054 43.6017 52.1567 44.16L51.8346 44.8078L52.5927 44.256C53.0826 43.8961 53.7597 43.3683 54.5369 42.7086C56.487 41.0456 58.1439 39.2809 59.4584 37.4666C60.833 35.5484 61.8485 33.5996 62.4775 31.6727C62.6787 31.025 62.8148 30.4732 62.9146 30.0294L63.0518 29.7535C63.7566 30.9216 64.2368 32.18 64.4845 33.5081C64.6244 34.1301 64.698 34.7711 64.705 35.4273L64.7092 36.183C64.7092 36.183 64.8524 35.8952 65.1089 35.3793C65.5183 34.6641 65.8747 33.9474 66.1765 33.2322C67.0101 30.9903 67.3794 28.7862 67.2737 26.6826C67.2022 25.1029 66.8949 23.5811 66.3556 22.1363C66.5426 21.3087 66.6604 20.481 66.7205 19.6653C68.1347 20.5654 69.3627 21.5855 70.3882 22.7121C70.9011 23.2881 71.3559 23.8927 71.7507 24.5234C71.912 23.7105 71.9931 22.9092 71.9935 22.1243C72.014 20.3646 71.7244 18.6751 71.1298 17.0862C70.6631 15.8491 70.0445 14.6666 69.2787 13.5476C71.7158 14.4832 73.4465 15.3109 73.4465 15.3109C72.3277 13.2044 70.9578 11.2007 69.3457 9.31318C68.601 8.41352 67.7694 7.54984 66.9763 6.78213L68.1713 6.95007C69.521 7.15399 70.4043 7.35791 70.4043 7.35791C70.4043 7.35791 70.0568 6.80612 69.3448 6.01442C68.4926 5.03553 67.4913 4.13297 66.3506 3.31544C66.0493 3.08752 65.7361 2.8836 65.4229 2.67968H65.8029C67.4228 2.58371 68.5052 2.59571 68.5052 2.59571C68.5052 2.59571 67.8156 2.17587 66.6155 1.63607C65.1118 0.966685 63.4547 0.42428 61.6679 0.0166815C61.0312 -0.127264 60.3653 -0.247218 59.7107 -0.355178C60.618 -0.547105 61.479 -0.715044 62.2469 -0.834999C63.3511 -1.02034 64.4496 -1.16453 65.5367 -1.26683C64.6545 -1.5199 63.7356 -1.73612 62.7837 -1.91459C60.6028 -2.31041 58.2756 -2.52361 55.844 -2.55035C53.4218 -2.58178 50.9048 -2.41674 48.3436 -2.05854C47.5989 -2.10019 46.8734 -2.17229 46.1706 -2.27445C37.7397 -3.59396 41.7457 -9.18385 38.4404 -12.5426C37.6236 -13.4734 36.2783 -14.1085 34.5871 -14.3617C32.8959 -14.6149 30.9405 -14.474 28.9861 -13.9581C28.1095 -13.7398 27.2413 -13.4621 26.3978 -13.1304L25.5165 -12.7825C24.8772 -12.5204 24.2542 -12.2317 23.6531 -11.9188C22.2011 -11.1693 20.8872 -10.2918 19.7734 -9.3278C18.6573 -8.32343 17.7675 -7.25141 17.1449 -6.16099C16.1514 -4.37115 15.7812 -2.59012 16.0652 -0.966947C16.1305 -0.462491 16.2647 0.0229759 16.4664 0.484504L16.6996 0.988315C16.6996 0.988315 16.807 0.772396 16.9979 0.388541C17.2019 -0.130584 17.461 -0.651746 17.7733 -1.17087C18.3863 -2.23393 19.245 -3.27983 20.3141 -4.2657C20.7186 -4.44539 21.1416 -4.59469 21.5714 -4.70954C20.9624 -3.7277 20.4715 -2.74049 20.1041 -1.75865C19.9109 -1.24773 19.7561 -0.739275 19.6403 -0.235225C19.6403 -0.235225 20.3519 -0.763026 21.4288 -1.43477C22.4406 -2.07842 23.5041 -2.68399 24.6098 -3.24609C24.184 -2.49376 23.8962 -1.73992 23.7536 -1.00293C23.7019 -0.664302 23.6865 -0.331642 23.7077 -0.00731004C24.1484 -0.254721 24.6088 -0.483418 25.0842 -0.691052C26.0417 -1.11851 27.0511 -1.45884 28.0729 -1.69867C28.2726 -1.75508 28.4741 -1.79929 28.6741 -1.83062L26.4753 1.13226L30.8565 0.520492C30.373 0.906512 29.9253 1.30755 29.5172 1.72004C29.1945 2.04054 28.9039 2.36942 28.6481 2.70367C29.1416 2.62462 29.6314 2.56849 30.1136 2.53573C31.1001 2.46413 32.047 2.49244 32.9224 2.6197C33.2778 2.66813 33.6209 2.73222 33.9499 2.81163L31.5722 4.11914L35.5044 5.17474L33.5356 6.14637L37.8245 7.56183C38.3176 8.52715 38.3539 9.65147 37.9297 10.8246C36.3019 10.5737 34.7308 10.2533 33.2241 9.86497C30.4006 9.06105 27.4472 8.38817 24.3789 7.84973C22.7147 7.59427 20.9605 7.4577 19.1399 7.44188C17.39 7.45563 15.5856 7.59228 13.7543 7.84973C10.8142 8.40566 7.91699 8.63699 5.19108 8.53347C3.34248 8.37191 1.92544 7.68607 1.2504 6.62619C1.07409 6.31516 0.982949 5.97148 0.979992 5.60657C0.990283 5.34267 1.01002 5.19873 1.01002 5.19873C0.925111 5.33847 0.855319 5.47883 0.801259 5.61857C0.663965 6.03638 0.637507 6.44237 0.723076 6.81812C1.08964 8.16134 2.34753 9.16603 4.22237 9.61306C6.89555 10.1096 9.84666 10.2516 12.9452 10.0329C14.4735 9.99561 15.9487 10.068 17.3468 10.2488C18.7494 10.4593 20.0706 10.7685 21.2929 11.1725C23.6204 11.9751 25.8273 12.8842 27.903 13.8954C27.5057 13.8954 27.1083 13.8954 26.7455 13.8954C26.1492 13.8571 25.5695 13.793 25.0097 13.7035C25.1392 14.0887 25.3058 14.4612 25.5088 14.8191L25.9123 15.4669C23.7864 15.4507 21.7327 15.3021 19.7756 15.023C20.2188 15.8133 20.7422 16.5703 21.3433 17.2902H20.3758C18.9633 17.1951 17.6426 16.9651 16.4487 16.6064C15.8659 16.4401 15.3189 16.2396 14.812 16.0067C14.8275 16.4843 14.8964 16.9492 15.0185 17.3981C15.1468 17.9206 15.3423 18.4218 15.6031 18.8976C14.9697 18.7944 14.3604 18.6622 13.7787 18.5017C12.746 18.2157 11.801 17.8459 10.9587 17.3981C10.546 17.1919 10.1633 16.9635 9.81293 16.7144C9.62818 17.1405 9.48052 17.565 9.37071 17.9859C9.13251 18.8718 9.01732 19.7431 9.02656 20.5889C8.12484 20.0987 7.45258 19.4543 7.04936 18.6936C6.83813 18.3189 6.69644 17.9169 6.62653 17.4941C6.15339 17.9637 5.749 18.4506 5.42109 18.9455C4.95993 19.6266 4.61732 20.3157 4.40114 20.9968C3.89148 20.7101 3.48559 20.3539 3.19845 19.9412C2.62373 19.0414 2.6104 17.9322 3.16051 16.7864C3.34458 16.3847 3.58482 15.983 3.87789 15.5868C4.11935 15.2749 4.27794 15.095 4.27794 15.095C4.03413 15.2084 3.79562 15.3285 3.56343 15.4549C2.93533 15.7881 2.34235 16.154 1.79408 16.5464C0.763134 17.2817 -0.109256 18.0945 -0.78091 18.9455C-3.28029 21.3744 -4.85416 24.0091 -5.31666 26.5387C-5.54948 27.3735 -5.49936 28.17 -5.1699 28.871C-4.84045 29.572 -4.23981 30.1601 -3.41109 30.5932C2.53417 33.4721 13.5506 26.0829 19.3839 24.0796C22.7272 22.8801 29.1561 23.084 30.9513 24.5114C32.2862 25.579 31.9785 27.0665 32.0932 28.434C32.098 29.2201 32.3702 29.9394 32.8919 30.5452C33.0503 30.7131 35.1805 31.7447 35.1805 31.7447C35.0962 31.984 34.9763 32.2251 34.8226 32.4644C32.3541 33.5596 29.7706 34.464 27.1464 35.1514C23.4115 36.1687 19.6444 36.8052 15.9999 37.0347C14.755 37.1133 13.5279 37.1454 12.3243 37.1307H10.9422L12.0941 37.4546C13.1336 37.7316 14.22 37.9599 15.3475 38.1383C17.2939 38.452 19.346 38.6287 21.4771 38.6661C17.2367 39.2915 13.1031 39.4537 9.24912 39.1459L7.23528 38.7141C3.14513 37.7855 -1.29095 37.2536 -5.97079 37.1307C-10.7155 37.1674 -15.7629 37.9682 -20.7127 39.4698C-22.2892 39.9518 -23.8336 40.5395 -25.315 41.2211C-25.7234 41.403 -26.1211 41.5994 -26.5057 41.8089L-26.924 42.0248L-26.4664 41.8689C-26.1768 41.7729 -25.7597 41.629 -25.1984 41.4731C-23.6914 41.0276 -22.1663 40.6894 -20.6549 40.4654C-18.1778 40.0908 -15.7483 39.9414 -13.4375 40.0216C-14.9128 40.2566 -16.3943 40.545 -17.8749 40.8853C-22.7099 41.9675 -27.4622 43.7246 -31.7607 46.0193C-31.4202 42.9484 -30.4442 39.7824 -28.8579 36.6029C-27.9453 34.7676 -26.9075 32.6804 -28.729 31.4448C-30.5505 30.2093 -33.3233 30.7131 -36.0212 30.5452C-38.2819 30.4012 -39.5798 29.1897 -41.0877 28.47C-42.3109 27.8051 -43.9542 27.4791 -45.8052 27.5343C-46.8325 27.6235 -47.895 27.8718 -48.907 28.2594C-49.919 28.647 -50.852 29.1629 -51.6309 29.7655C-52.912 30.9325 -53.8981 32.1837 -54.5331 33.4481C-53.6777 32.8444 -52.6644 32.3484 -51.588 32.0064C-50.5116 31.6645 -49.4072 31.4878 -48.3781 31.4928C-47.3446 31.516 -46.425 31.7189 -45.7017 32.0831C-44.9783 32.4474 -44.4738 32.9617 -44.2333 33.58C-47.5103 34.6116 -50.9199 35.9791 -52.6891 37.7305C-54.4582 39.4818 -53.5678 41.617 -51.3982 42.7086C-51.4234 42.13 -51.2224 41.5078 -50.8121 40.8941C-50.4017 40.2805 -49.794 39.6933 -49.04 39.1819C-47.2904 38.0403 -45.1463 37.2415 -43.0183 36.9388C-41.7025 36.7162 -40.4426 36.7412 -39.3916 37.0107C-38.7445 37.2028 -38.3003 37.5662 -38.1333 38.0401C-37.9664 38.514 -38.0869 39.0696 -38.4746 39.6138C-38.9744 40.1558 -39.6285 40.654 -40.3864 41.0699C-41.1443 41.4858 -41.9858 41.8084 -42.8463 42.0128C-44.4576 42.3434 -46.0409 42.4338 -47.4692 42.2767C-47.5805 42.8894 -47.4419 43.4563 -47.0671 43.9213C-46.6922 44.3863 -46.0942 44.7332 -45.3323 44.9277C-44.5362 45.2012 -43.6047 45.3422 -42.5928 45.3422C-41.5809 45.3422 -40.5093 45.2012 -39.4412 44.9277C-40.6306 46.4512 -41.8027 47.9746 -42.9921 49.498C-45.7612 52.684 -47.7243 55.9957 -48.7802 59.2623C-48.9239 59.9413 -48.9778 60.6075 -48.9411 61.2536C-49.0723 61.5175 -49.2959 61.7934 -49.5028 62.1053C-50.7713 64.101 -51.742 66.1115 -52.3987 68.103C-53.0525 70.0033 -53.4051 71.877 -53.4507 73.6929C-53.4641 75.1444 -53.3307 76.092 -53.3307 76.092C-53.3307 76.092 -52.8296 75.0844 -51.8946 73.6209C-51.3755 72.8153 -50.7986 72.0146 -50.1661 71.2218C-50.2313 72.7782 -50.0605 74.2844 -49.656 75.7201C-50.2808 77.0717 -51.1844 78.421 -52.3392 79.7266C-53.2695 80.5509 -54.4471 81.2664 -55.7552 81.8019C-57.1299 82.3776 -58.7867 82.6175 -60.2239 83.1453C-61.7344 83.7191 -63.0628 84.5651 -63.9909 85.5444C-65.2563 86.8423 -66.0939 88.2263 -66.4294 89.5738C-66.765 90.9213 -66.5881 92.1907 -65.9145 93.2695C-65.8253 93.4375 -65.661 93.5934 -65.589 93.7613C-65.834 93.1654 -65.838 92.4917 -65.6004 91.7913C-65.3629 91.0909 -64.8902 90.3822 -64.2181 89.7189C-63.597 89.0951 -60.8509 87.4637 -59.599 88.0035C-59.0505 88.2554 -60.4341 89.6829 -60.7525 90.1147C-61.676 91.6641 -62.1738 93.2196 -62.219 94.697C-62.3085 95.8312 -61.9816 96.8739 -61.2636 97.7438C-60.8018 98.2186 -60.2116 98.6224 -59.5105 98.9434C-59.1485 99.1193 -58.7566 99.2717 -58.3378 99.3992C-57.9499 99.4644 -57.5852 99.5568 -57.2484 99.6751C-57.8454 98.6482 -58.0261 97.4648 -57.7776 96.2086C-57.5292 94.9525 -56.8577 93.6543 -55.8106 92.4058C-55.2399 91.6537 -54.3774 90.96 -53.3348 90.4146C-52.7303 90.1165 -52.0713 89.8954 -51.409 89.7685C-50.7467 89.6416 -50.0989 89.6123 -49.5158 89.6829C-47.534 89.9708 -47.5195 91.4702 -46.1212 92.2019C-45.0681 92.6163 -43.6974 92.7234 -42.2315 92.5056C-40.7655 92.2879 -39.2901 91.7582 -38.0443 91.0024C-37.0727 90.2846 -36.306 89.4773 -35.8049 88.6444C-35.3038 87.8115 -35.0821 86.976 -35.1574 86.2042C-35.0186 87.1758 -37.5955 88.6753 -39.4247 89.2271C-40.3651 89.494 -41.3167 89.6048 -42.1791 89.5478C-43.0416 89.4908 -43.783 89.2681 -44.3254 88.9032C-45.8366 87.7036 -44.1454 85.7963 -43.218 84.105C-43.1153 83.9333 -43.0296 83.7609 -42.9615 83.5892C-40.6044 84.8402 -37.7628 85.7135 -34.5694 86.1682C-30.3942 86.7877 -25.7762 86.7833 -20.9831 86.1553C-16.19 85.5272 -11.317 84.2881 -6.64651 82.5096C-1.64243 80.5063 2.54229 77.9273 7.41063 75.7801C9.17528 75.3059 10.9488 74.9091 12.7174 74.5926C15.3594 74.1715 17.94 74.0497 20.3422 74.2327C22.4597 74.3853 24.2832 74.9355 25.63 75.8281C26.6365 76.4593 27.2036 77.3547 27.2559 78.3951C27.268 78.6963 27.2161 79.0108 27.1016 79.3308C27.3298 78.9963 27.4981 78.6577 27.6027 78.3232C27.9348 77.1075 27.7097 75.9757 26.9559 75.0724C25.8915 73.7383 24.1925 72.7382 22.0246 72.1695L21.6404 72.0735C23.1273 72.0298 24.5302 72.1555 25.7917 72.4454C27.8003 72.9722 29.3261 73.9386 30.1895 75.2307C31.0528 76.5229 31.2178 78.0869 30.6649 79.7386C30.4968 80.3068 30.2577 80.8805 29.9502 81.454L29.3536 81.9938C26.9517 84.0616 24.1474 85.9551 21.0571 87.5957C17.8013 89.3556 14.3236 90.8776 10.7234 92.118C9.50622 92.5553 8.27491 92.9557 7.03456 93.3175L5.60516 93.7254L7.01829 93.5934C8.27146 93.481 9.53702 93.3249 10.8097 93.1256C12.8397 92.8079 14.8797 92.4072 16.9172 91.926C13.6762 93.3619 10.254 94.4858 6.79983 95.2488C6.33339 95.2488 5.44223 95.1648 4.11857 95.1168C2.19089 95.0329 -0.612504 94.9729 -4.02838 95.0329C-12.3697 95.1642 -21.0824 96.2089 -29.8397 98.1277C-38.4244 100.063 -46.9165 102.904 -54.936 106.525C-57.5255 107.71 -60.0429 108.988 -62.4706 110.351C-63.3484 110.831 -64.0176 111.239 -64.5009 111.551L-65.2107 111.97L-64.4384 111.599C-63.9623 111.371 -63.2365 111.023 -62.3021 110.603C-59.7513 109.448 -57.1356 108.39 -54.4737 107.436C-51.1783 106.244 -47.825 105.205 -44.4464 104.329C-51.4741 106.976 -58.1804 110.212 -64.3344 113.926C-68.6576 115.879 -72.781 118.089 -76.627 120.511C-82.3851 124.116 -87.2972 128.248 -91.0592 132.651C-92.2628 134.071 -93.327 135.514 -94.243 136.969C-94.4995 137.485 -94.7023 137.893 -94.9431 138.169L-95.1519 138.588L-94.8049 138.169C-94.5873 137.905 -94.2636 137.497 -93.7938 136.969C-92.5689 135.595 -91.2078 134.251 -89.7226 132.951C-87.5487 131.038 -85.1335 129.22 -82.5176 127.529C-85.4732 130.334 -87.9501 133.27 -89.8831 136.261C-90.6297 136.949 -91.3208 137.654 -91.9521 138.373C-93.437 140.057 -94.5452 141.804 -95.2312 143.543C-96.0172 145.479 -96.2239 147.372 -95.8393 149.108C-95.0935 152.115 -92.8399 154.588 -89.3677 156.21C-88.311 156.729 -87.1551 157.17 -85.9122 157.529L-84.4964 157.913L-85.5909 157.265C-86.5377 156.696 -87.3744 156.054 -88.0917 155.346C-88.8819 154.592 -89.5066 153.751 -89.9548 152.839C-88.3984 154.123 -86.209 155.002 -83.5893 155.394C-80.0508 155.831 -76.0772 155.592 -72.0487 154.698C-63.0361 152.66 -54.1312 149.624 -45.7738 145.738L-44.563 145.318C-41.6255 144.274 -38.1874 142.919 -34.7075 141.479C-31.0447 139.917 -27.4554 138.243 -23.9564 136.465C-20.7847 134.774 -17.3804 133.341 -13.8636 132.219C-10.8157 131.273 -7.69638 130.857 -4.87106 131.019C-2.82313 131.158 -1.02113 131.639 0.391224 132.423C0.796481 132.647 1.1545 132.904 1.46067 133.19L1.76605 133.514L1.57089 133.143C1.35679 132.801 1.08664 132.483 0.763706 132.195C-0.406242 131.134 -2.06316 130.369 -4.06975 129.964C-6.71806 129.418 -9.79333 129.418 -12.9841 129.964C-12.6135 129.844 -12.2542 129.712 -11.8895 129.604C-5.94495 127.829 2.45789 127.433 3.70493 130.935C4.34626 132.975 3.66072 135.369 1.78138 137.653C-1.10968 139.76 -4.43576 141.601 -8.01499 143.075C-12.6702 144.975 -17.4536 146.626 -22.3004 148.005C-26.352 149.204 -29.0481 149.936 -29.0481 149.936C-29.0481 149.936 -26.5435 149.624 -22.7276 149.072L-25.022 149.552C-29.2873 150.452 -33.9571 151.436 -38.6718 152.683C-43.3166 153.867 -47.8973 155.433 -52.2844 157.337C-56.1421 159.013 -59.5975 161.186 -62.3381 163.659C-64.2249 165.374 -65.6336 167.223 -66.468 169.081C-66.6839 169.592 -66.856 170.1 -66.9837 170.604L-67.1079 171.132L-66.8395 170.592C-65.7848 168.318 -63.813 166.076 -61.1541 164.127C-59.5155 162.912 -57.6656 161.818 -55.6739 160.888C-58.8398 162.877 -61.3675 165.242 -62.9834 167.726C-64.5993 170.211 -65.242 172.72 -64.8418 174.983C-64.3879 177.707 -63.0322 180.154 -60.8538 182.18C-59.2618 183.709 -57.386 185.079 -55.2518 186.27C-49.6798 189.184 -43.3694 191.53 -36.4434 193.264C-38.3657 192.196 -40.2588 191.105 -42.0298 189.941C-40.6049 190.133 -39.65 190.193 -39.65 190.193C-39.65 190.193 -40.8764 189.845 -42.6042 189.185C-43.1533 188.969 -43.7417 188.694 -44.3414 188.406C-44.9411 188.118 -45.6097 187.482 -46.1313 187.002L-43.3749 187.122L-49.6622 183.368C-49.7467 183.26 -49.8545 183.164 -49.9217 183.056C-49.989 182.948 -50.18 182.672 -50.3092 182.48H-48.0979L-51.8303 178.174L-51.8575 177.742C-51.4057 177.847 -50.9715 177.971 -50.5567 178.114C-50.542 177.704 -50.5678 177.304 -50.634 176.914C-50.7501 176.114 -50.9954 175.351 -51.3665 174.635C-51.0675 173.652 -50.572 172.655 -49.8932 171.672C-49.6949 171.864 -49.4967 172.056 -49.3556 172.224C-48.8758 172.788 -48.6241 173.219 -48.6241 173.219C-48.2837 172.775 -47.9798 172.327 -47.7142 171.876C-47.1068 170.842 -46.6603 169.804 -46.3826 168.781C-46.2454 168.505 -46.2465 168.229 -46.1843 167.965C-45.6825 167.582 -45.1521 167.21 -44.6104 166.85C-44.5908 167.054 -44.5945 167.27 -44.6036 167.462C-44.6176 167.93 -44.6757 168.406 -44.7778 168.889C-44.188 168.451 -43.6284 167.999 -43.1018 167.534C-41.9278 166.499 -40.8972 165.417 -40.0289 164.307C-39.4658 164.043 -38.9027 163.779 -38.3282 163.527L-38.298 163.779C-38.2904 164.171 -38.3223 164.572 -38.3935 164.978C-37.8604 164.649 -37.3487 164.305 -36.8613 163.947C-36.0252 163.347 -35.2582 162.713 -34.5713 162.052C-33.3194 161.584 -32.0449 161.14 -30.7418 160.708C-30.7905 160.824 -30.8482 160.94 -30.9148 161.056C-31.1387 161.46 -31.4134 161.861 -31.7358 162.256C-31.1133 162.082 -30.4972 161.877 -29.8941 161.644C-28.455 161.11 -27.083 160.45 -25.8295 159.688C-25.4106 159.437 -25.0143 159.161 -24.6239 158.897L-19.9658 157.589L-20.4861 159.053L-12.142 155.37C-10.9033 154.998 -9.67589 154.614 -8.4532 154.171C-8.88862 155.046 -9.37152 155.67 -9.37152 155.67C-9.37152 155.67 -8.60644 155.382 -7.44031 154.878C-5.98349 154.238 -4.57775 153.527 -3.24039 152.755C-2.37089 152.256 -1.53301 151.731 -0.731448 151.184C0.468741 150.641 1.6402 150.06 2.77661 149.444C2.7718 149.656 2.745 149.873 2.69639 150.092C2.621 150.527 2.49994 150.968 2.33399 151.412C2.94451 151.062 3.53173 150.694 4.09203 150.308C5.42046 149.399 6.59058 148.405 7.56333 147.357C8.21168 146.664 8.7789 145.953 9.25826 145.234C10.2659 144.438 11.2165 143.616 12.1049 142.775L12.3233 143.135C12.5486 143.564 12.6969 144.022 12.7663 144.502C13.2308 143.968 13.6295 143.422 13.9575 142.871C14.6693 141.66 15.1042 140.446 15.2459 139.272C16.2766 137.899 17.1037 136.503 17.713 135.11L17.8327 135.182C18.3085 135.444 18.7404 135.736 19.1249 136.057C19.2848 135.561 19.4028 135.068 19.4784 134.582C19.6407 133.467 19.5974 132.388 19.3494 131.367C19.2373 130.898 19.0837 130.441 18.8892 130C18.8862 129.378 18.8255 128.769 18.7074 128.176H19.5021C20.5487 128.26 21.2379 128.368 21.2379 128.368C21.1108 127.988 20.948 127.619 20.7501 127.265C20.2992 126.439 19.7089 125.672 18.987 124.974C18.3017 124.314 17.5067 123.716 16.6106 123.186H17.3535C18.0517 123.196 18.7238 123.252 19.3603 123.354C19.142 122.92 18.844 122.518 18.4711 122.155C17.6015 121.335 16.4777 120.663 15.1423 120.163C14.1188 119.788 13.0009 119.499 11.8056 119.3C12.549 119.114 13.2945 118.962 14.0362 118.844C13.4905 118.609 12.903 118.408 12.2786 118.244C10.8025 117.85 9.167 117.628 7.42395 117.584C5.54467 117.521 3.55702 117.671 1.53681 118.028L0.016948 118.34C1.40192 117.5 2.42449 116.973 2.42449 116.973C2.42449 116.973 1.24067 117.165 -0.586049 117.572C-2.90629 118.105 -5.21205 118.802 -7.45716 119.648C-8.112 119.887 -8.76744 120.163 -9.4229 120.439L-9.68328 120.511C-9.12023 119.86 -8.50738 119.219 -7.84788 118.592C-8.62132 118.825 -9.38875 119.081 -10.1472 119.36C-13.0256 120.399 -15.7758 121.695 -18.2925 123.198L-20.0425 123.834C-19.6822 123.144 -19.2706 122.456 -18.8092 121.771C-18.8092 121.771 -19.7037 122.215 -21.0296 122.97C-22.6769 123.902 -24.2311 124.91 -25.6709 125.981L-25.8986 126.161C-27.8155 126.973 -29.6986 127.838 -31.5405 128.752L-32.1328 129.04C-31.9598 128.692 -31.7868 128.344 -31.6377 128.044C-31.3314 127.517 -30.9781 126.992 -30.58 126.473C-31.3657 126.828 -32.1319 127.208 -32.8742 127.613C-34.5634 128.533 -36.1342 129.557 -37.5507 130.659C-38.454 131.37 -39.2943 132.108 -40.0648 132.867L-42.0509 133.838C-41.6963 132.639 -41.2358 131.643 -41.2358 131.643C-43.3356 132.924 -45.2911 134.307 -47.071 135.77C-47.917 136.427 -48.7206 137.104 -49.4784 137.797L-50.0481 138.109C-49.6593 136.597 -49.1546 135.374 -49.1546 135.374C-51.2703 136.682 -53.2513 138.084 -55.0715 139.56C-56.0392 140.34 -56.9565 141.141 -57.8192 141.959C-58.6704 142.316 -59.5375 142.644 -60.416 142.943C-60.2788 142.667 -60.0612 142.403 -59.8788 142.175C-59.5711 141.769 -59.2276 141.368 -58.8504 140.976C-59.5265 141.138 -60.1996 141.33 -60.8643 141.551C-62.3821 142.045 -63.8531 142.663 -65.232 143.387C-65.7438 143.652 -66.2409 143.932 -66.7206 144.226C-67.158 144.25 -67.5855 144.25 -67.999 144.226L-67.6272 144.034C-66.4765 143.423 -65.6464 143.039 -65.6464 143.039C-65.6464 143.039 -66.4756 143.039 -67.7713 143.039C-69.0657 143.092 -70.387 143.217 -71.7224 143.411C-72.1911 143.175 -72.5958 142.893 -72.9288 142.571C-72.447 142.48 -71.9669 142.408 -71.4912 142.355C-70.8081 142.263 -70.1332 142.207 -69.4728 142.187C-69.8189 141.872 -70.2043 141.58 -70.6267 141.311C-71.6123 140.698 -72.7541 140.195 -74.0273 139.812C-74.0163 139.281 -73.9298 138.735 -73.769 138.181C-72.5743 138.696 -71.7644 139.152 -71.7644 139.152C-71.7644 139.152 -71.6741 138.588 -71.6599 137.761C-71.6178 136.719 -71.6888 135.701 -71.8724 134.714C-71.8755 134.676 -71.8865 134.639 -71.9051 134.606C-71.1011 133.531 -70.1654 132.475 -69.1099 131.451C-68.9469 131.637 -68.8155 131.837 -68.7171 132.051C-68.5223 132.421 -68.4151 132.825 -68.3979 133.25C-68.3979 133.25 -68.2459 133.119 -68.0116 132.891C-67.6658 132.552 -67.3591 132.202 -67.0954 131.847C-66.2419 130.687 -65.7512 129.498 -65.6593 128.368C-64.6783 127.577 -63.646 126.821 -62.6084 126.089C-62.6217 126.901 -62.7283 127.73 -62.9275 128.572L-62.8948 128.68L-62.859 128.608C-60.1523 126.596 -57.9064 124.378 -56.2395 122.071C-55.4607 121.651 -54.6645 121.231 -53.9155 120.871C-54.1522 121.811 -54.4801 122.761 -54.8972 123.714C-52.7381 122.427 -50.7326 121.027 -48.9172 119.54C-48.1227 118.88 -47.3508 118.196 -46.6659 117.548C-45.6047 117.117 -44.5149 116.697 -43.4954 116.349C-43.6147 116.589 -43.8257 116.805 -43.9849 117.021C-44.3667 117.519 -44.7846 118.011 -45.2368 118.496C-44.4637 118.215 -43.7011 117.911 -42.9523 117.584C-41.2292 116.83 -39.5775 115.977 -38.0253 115.041C-37.4085 114.669 -36.8143 114.274 -36.2195 113.842C-35.2989 113.554 -34.3671 113.278 -33.4412 113.014C-33.9175 113.685 -34.4441 114.35 -35.0187 115.005C-31.6933 114.008 -28.4807 112.658 -25.5407 111.023C-24.2228 110.735 -22.9282 110.459 -21.6859 110.219C-23.2809 111.551 -24.5468 112.498 -24.5468 112.498C-21.6558 111.716 -18.7901 110.798 -15.9769 109.751C-15.3799 109.523 -14.7595 109.283 -14.1738 109.044C-12.1947 108.816 -10.2049 108.636 -8.2443 108.48C-9.83494 109.559 -11.121 110.339 -11.121 110.339C-6.19543 109.826 -1.17094 108.857 3.80293 107.46L4.83598 107.328C4.57376 107.508 4.31152 107.688 4.06123 107.844C3.43717 108.265 2.78187 108.666 2.09999 109.044C2.86752 108.984 3.64377 108.896 4.42522 108.78C6.23593 108.537 8.07023 108.133 9.8762 107.58C11.8745 106.949 13.8097 106.139 15.6126 105.181L16.0834 104.929C16.7496 104.701 17.3984 104.473 18.036 104.233C17.4117 105.001 16.6425 105.741 15.7525 106.429L15.2154 106.848L15.9447 106.632C16.6099 106.442 17.2683 106.221 17.914 105.973C20.0303 105.166 22.0013 104.115 23.6968 102.89C24.997 101.913 26.1079 100.852 26.9871 99.7471C27.732 99.2913 28.4424 98.8354 29.1587 98.3676C29.0709 98.7874 28.9777 99.1833 28.8559 99.5672C28.5217 100.587 28.1871 101.295 28.1871 101.295C28.1871 101.295 29.0435 100.719 30.2575 99.7711C31.7727 98.5723 33.1358 97.3099 34.3245 96.0045C35.2884 94.9405 36.1353 93.8531 36.8565 92.7537C37.2946 92.3939 37.7326 92.034 38.1534 91.6741C38.0887 92.0345 37.994 92.3989 37.8698 92.7657C37.6814 93.3936 37.4183 94.0274 37.0829 94.661C37.8731 94.1148 38.6146 93.5413 39.3006 92.9457C40.9145 91.5681 42.2625 90.0994 43.297 88.5913C44.3674 86.9949 45.1185 85.3792 45.5273 83.7931C45.993 83.1693 46.4002 82.5936 46.8319 81.9338C46.9825 82.2217 47.1157 82.5096 47.2091 82.7735C47.4396 83.3375 47.5969 83.9269 47.6798 84.5368C48.1395 83.8565 48.5267 83.1708 48.838 82.4856C49.9333 80.1026 50.3376 77.755 50.0277 75.5762C50.3081 75.0124 50.4097 74.4606 50.5518 73.8968C51.0224 73.9928 51.4273 74.2207 51.7286 74.4486ZM-45.15 90.9784C-44.7912 91.0869 -44.4005 91.1633 -43.9849 91.2063C-43.5255 91.2605 -43.0298 91.2605 -42.5165 91.2063C-42.0138 91.1941 -41.4893 91.1252 -40.9639 91.0024C-40.4961 90.9123 -40.0281 90.7874 -39.5697 90.6305C-39.1076 90.4914 -38.6557 90.3181 -38.2248 90.1147C-38.5989 90.3885 -39.0188 90.6353 -39.4697 90.8464C-39.9425 91.0657 -40.4402 91.2475 -40.9475 91.3862C-41.5345 91.5396 -42.1248 91.6367 -42.6973 91.6741C-43.2917 91.704 -43.8583 91.6717 -44.3771 91.5782C-44.7936 91.4852 -45.1758 91.3565 -45.5165 91.1943C-45.8151 91.0204 -46.0595 90.8105 -46.2429 90.5705C-45.9304 90.7492 -45.5623 90.8866 -45.15 90.9784ZM39.8217 60.5938C43.1933 61.5788 45.7006 63.3154 47.0434 65.596C48.2962 67.8806 48.6519 70.4944 48.0865 73.2611C47.5875 75.6293 46.6228 78.0481 45.2161 80.4584C44.221 82.1597 43.0902 83.8538 41.8292 85.5324L40.3453 87.4397C40.3453 87.4397 40.8009 86.732 41.5821 85.5084C42.3632 84.2849 43.3895 82.5336 44.4619 80.4464C45.6751 78.0739 46.4868 75.7067 46.8807 73.393C47.3718 70.7548 46.9745 68.271 45.7159 66.1118C44.5137 63.9442 42.2112 62.2784 39.0838 61.3136C36.2657 60.5377 32.9387 60.3275 29.4025 60.7018C26.8671 60.9645 24.2983 61.3657 21.723 61.9013C19.8165 62.2612 18.7816 62.5011 18.7816 62.5011C18.7816 62.5011 19.8463 62.2012 21.7201 61.7334C24.3208 61.0702 26.932 60.5678 29.5142 60.234C33.2525 59.7161 36.8062 59.8402 39.8217 60.5938ZM1.15845 68.3069C2.67544 67.8271 4.19903 67.2993 5.59571 66.7835C6.99239 66.2677 8.31399 65.7639 9.42768 65.2961C11.5966 64.4084 13.1054 63.7367 13.1054 63.7367C13.1054 63.7367 11.7163 64.4804 9.55087 65.5C8.47112 66.0038 7.16021 66.5556 5.75694 67.1194C4.35368 67.6832 2.8128 68.211 1.26661 68.7148C-0.279592 69.2186 -1.83585 69.6384 -3.29916 70.0103C-4.76247 70.3822 -6.1322 70.67 -7.29935 70.898C-9.65031 71.3178 -11.1969 71.5097 -11.1969 71.5097C-11.1969 71.5097 -9.63715 71.2218 -7.3123 70.6461C-6.16777 70.3941 -4.79681 70.0343 -3.35612 69.6384C-1.91543 69.2426 -0.364508 68.7988 1.15845 68.3069ZM-33.143 65.476C-33.5263 66.7307 -33.3648 67.9121 -32.6774 68.8827C-31.9744 69.8572 -30.8507 70.6219 -29.3988 71.1139C-28.1153 71.5673 -26.7076 71.9051 -25.2008 72.1215C-23.8391 72.3014 -22.7074 72.4574 -21.9544 72.5413L-20.7017 72.6973H-22.0665C-23.2753 72.7168 -24.4611 72.6887 -25.6181 72.6133C-27.2943 72.5152 -28.8613 72.2528 -30.2749 71.8336C-31.9384 71.3273 -33.2369 70.5037 -34.0575 69.4345C-34.7703 68.3095 -34.8888 66.9584 -34.3994 65.536C-33.9724 64.3326 -33.2634 63.1179 -32.299 61.9373C-31.6376 61.1244 -30.9104 60.3232 -30.1214 59.5382L-29.2135 58.6506L-29.8801 59.5742C-30.3338 60.174 -30.9301 61.0257 -31.5568 61.9733C-32.3207 63.1402 -32.8546 64.3192 -33.143 65.476ZM24.6823 48.8623C27.0304 48.4177 29.3823 47.8396 31.7086 47.1349C34.3655 46.3428 36.9693 45.3641 39.4637 44.22C41.9621 43.0957 44.3386 41.8152 46.5432 40.4055C49.8801 38.2939 52.843 35.9462 55.3236 33.4481C56.0795 32.6924 56.4729 32.2485 56.4729 32.2485C56.4729 32.2485 56.2463 32.7044 55.5655 33.4481C54.6998 34.5423 53.7043 35.6142 52.5909 36.6509C51.0091 38.1285 49.2208 39.5332 47.2614 40.8373C44.9972 42.3312 42.5454 43.6925 39.9589 44.8918C37.3389 46.0522 34.6108 47.0351 31.8351 47.8187C29.4262 48.4903 26.9964 48.9934 24.5938 49.3181C22.9025 49.5551 21.2343 49.6877 19.6116 49.7139C18.4541 49.7139 17.884 49.7139 17.884 49.7139C17.884 49.7139 18.5405 49.7139 19.7011 49.534C21.3501 49.3746 23.0182 49.1422 24.6942 48.8383L24.6823 48.8623ZM60.1558 24.3555C60.4618 23.4873 60.6824 22.6258 60.8162 21.7765C60.9598 20.807 61.0069 19.8534 60.9574 18.9216C60.8987 17.9936 60.7353 17.0918 60.4682 16.2226C60.2322 15.4625 59.916 14.7294 59.5212 14.0274C59.2376 13.518 58.9038 13.0295 58.5213 12.5639L58.104 12.0481L58.6316 12.516C59.1127 12.9507 59.5469 13.4112 59.9323 13.8954C60.4061 14.581 60.7976 15.3022 61.1046 16.0546C61.407 16.9343 61.6048 17.8481 61.6968 18.7896C61.7286 19.7369 61.6561 20.7067 61.4799 21.6925C61.2675 22.5691 60.9715 23.4545 60.5936 24.3435C60.2119 25.1112 59.8898 25.759 59.5768 26.2148L59.1212 26.9225L59.4731 26.2148C59.747 25.5926 59.9749 24.972 60.1558 24.3555ZM54.1861 26.2508C53.3698 28.2509 51.9855 30.2558 50.1113 32.1526C48.8112 33.4736 47.2816 34.7253 45.5673 35.8712C44.3211 36.6749 43.5715 37.0707 43.5715 37.0707C44.1844 36.629 44.769 36.1725 45.3225 35.7032C46.8123 34.4912 48.1274 33.2109 49.2406 31.8887C50.7673 30.058 51.8762 28.1684 52.5211 26.2988C53.2355 24.1881 53.298 22.1471 52.7047 20.301C52.1451 18.4225 50.9883 16.7545 49.2937 15.3829C47.7165 14.0034 46.1726 12.6959 45.0594 11.4604C44.1386 10.4725 43.5395 9.32958 43.2863 8.07764C43.2163 7.72964 43.1936 7.36861 43.2184 6.99805L43.2252 6.6022L43.3227 6.96206C43.4053 7.30211 43.5247 7.63066 43.6801 7.94569C44.2241 9.05792 45.0402 10.0591 46.1052 10.9206C47.2781 12.0361 49.1771 13.1157 50.8461 14.5192C51.7162 15.2354 52.486 16.0089 53.1501 16.8343C53.8473 17.7049 54.3638 18.6581 54.6906 19.6773C55.2542 21.7119 55.1001 23.9491 54.2379 26.2508H54.1861ZM55.7712 5.37866C56.2764 5.6442 56.75 5.93248 57.1903 6.24233C57.5414 6.53258 57.8609 6.84089 58.1476 7.16598C58.4014 7.48954 58.6186 7.83002 58.7981 8.1856C58.15 7.61201 57.4443 7.07152 56.6837 6.56621C56.2448 6.30231 55.7601 6.02641 55.2401 5.7865C54.7419 5.53885 54.2133 5.31461 53.6565 5.11476C53.186 4.93135 52.6888 4.77114 52.1676 4.63494C51.6856 4.47307 51.1762 4.33683 50.6428 4.22709C51.2543 4.25539 51.8512 4.30745 52.431 4.38303C53.018 4.47462 53.5815 4.59484 54.1179 4.7429C54.5985 4.92283 55.1822 5.13875 55.7712 5.37866ZM44.4953 3.73528C45.042 3.99787 45.4872 4.33399 45.8142 4.7309C46.2611 5.29115 46.6073 5.8976 46.8484 6.54222C47.0805 7.24689 47.4418 7.90637 47.926 8.50948C48.3971 9.10871 49.0112 9.63684 49.7533 10.0809C50.384 10.5118 51.0614 10.9122 51.7828 11.2804L53.324 12.0721L53.8945 12.384L53.1368 12.2401C52.6722 12.1321 51.9777 12.0002 51.2159 11.7603C50.3218 11.5085 49.4963 11.1913 48.7503 10.8126C47.9102 10.3332 47.2152 9.75638 46.6836 9.09726C46.2274 8.421 45.9022 7.68934 45.7133 6.91408C45.4951 6.20635 45.3973 5.5346 45.1355 5.01879C44.9644 4.58135 44.7006 4.17852 44.3499 3.81925C44.2156 3.68276 44.0659 3.55459 43.9016 3.43539C44.1187 3.5205 44.3173 3.62083 44.4953 3.73528ZM34.2649 -1.78264C35.3218 -0.954952 36.3089 -0.0912789 37.1406 0.772396C37.8708 1.57119 38.4987 2.42072 39.0203 3.31544C39.4067 3.93919 39.7224 4.59219 39.9657 5.2707C40.1358 5.76251 40.2172 6.0504 40.2172 6.0504L39.7047 5.37866C39.4011 4.94682 38.8815 4.35904 38.2832 3.65131C37.685 2.94358 36.8687 2.18786 35.9673 1.36017C35.0668 0.508527 34.0751 -0.29236 32.9967 -1.03892C31.9333 -1.81863 30.7941 -2.55035 29.6418 -3.18611C28.4895 -3.82187 27.405 -4.38566 26.3938 -4.85348C25.3826 -5.32131 24.5655 -5.69317 23.9419 -5.93308L22.9813 -6.32893L24.1291 -6.10101C25.1138 -5.88719 26.0591 -5.63088 26.9606 -5.3333C28.2497 -4.91716 29.463 -4.43227 30.5924 -3.88185C31.9138 -3.23985 33.1569 -2.53917 34.3167 -1.78264H34.2649ZM24.465 -8.89596H24.6378H24.7933C25.0034 -8.94974 25.2145 -8.98995 25.423 -9.01592C25.7024 -9.035 25.9745 -9.035 26.2349 -9.01592L27.0915 -8.93195L27.8188 -8.69204C28.0023 -8.59944 28.1699 -8.4952 28.3202 -8.38015C28.426 -8.28596 28.513 -8.18148 28.5797 -8.06827L28.6523 -7.93632H28.4104C28.2086 -7.92331 28.0119 -7.92331 27.8231 -7.93632C27.5619 -7.9196 27.3074 -7.9196 27.0629 -7.93632L26.3046 -8.04428L25.6054 -8.23621C25.3462 -8.23621 25.2111 -8.41614 25.0337 -8.47612C24.8987 -8.54129 24.7731 -8.6134 24.6573 -8.69204L24.5781 -8.776L24.465 -8.89596ZM1.72625 22.1723C2.32054 22.3896 3.01926 22.5079 3.78184 22.5202C5.76073 22.5023 7.83092 22.2675 9.91519 21.8245C12.3317 21.3239 14.7453 20.6812 17.1234 19.9052C19.5835 19.1615 22.0336 18.3338 24.3729 17.5901C26.5081 16.912 28.6658 16.3228 30.8298 15.8267C32.3597 15.487 33.8878 15.2418 35.3916 15.095C35.8152 15.0485 36.2348 15.0164 36.6486 14.999H37.0805L36.6301 15.071C36.3537 15.071 35.8967 15.191 35.3593 15.2989C33.8559 15.5808 32.3497 15.9378 30.8551 16.3665C28.7432 16.9636 26.6446 17.6242 24.5672 18.3458C22.2679 19.1135 19.8112 19.9892 17.3278 20.7449C14.8565 21.5104 12.354 22.133 9.85574 22.6042C7.64674 23.0146 5.47441 23.1691 3.44434 23.06C2.61653 23.0046 1.89111 22.8071 1.32931 22.4842C0.918201 22.2216 0.640583 21.8771 0.517363 21.4766C0.437536 21.1284 0.530284 20.7367 0.784352 20.349C0.72451 20.4448 0.676607 20.5411 0.641202 20.6369C0.592048 20.9037 0.624894 21.1564 0.737848 21.3806C0.92399 21.7221 1.26424 21.9946 1.72625 22.1723ZM0.187427 29.9574C-0.289621 29.705 -0.727312 29.4244 -1.12263 29.1177C-1.66829 28.6499 -2.11476 28.1273 -2.45488 27.5583C-2.83928 26.8925 -3.05728 26.1621 -3.10286 25.3871C-3.08573 24.6103 -2.91129 23.8042 -2.58369 22.988C-2.27351 22.2726 -1.84179 21.556 -1.29739 20.8528C-0.907071 20.364 -0.455372 19.886 0.0515946 19.4254C0.408638 19.0895 0.625017 18.8976 0.625017 18.8976L0.126049 19.4494C-0.283087 19.9264 -0.645551 20.4115 -0.958446 20.9008C-1.40414 21.5866 -1.74803 22.2782 -1.98436 22.964C-2.26456 23.7463 -2.39774 24.516 -2.38076 25.2552C-2.38649 25.9983 -2.23207 26.7044 -1.92158 27.3544C-1.66404 27.9199 -1.30651 28.4463 -0.854425 28.9258C-0.5369 29.2812 -0.161011 29.6063 0.269075 29.8974L0.770484 30.2093L0.187427 29.9574ZM-30.5266 34.8516L-30.6969 35.7152C-30.8504 36.267 -30.9962 37.0467 -31.2774 37.9944C-31.5585 38.942 -31.8249 40.0336 -32.2194 41.2092C-32.6139 42.3847 -32.9977 43.6082 -33.4405 44.9158C-33.9213 46.1307 -34.2369 47.3353 -34.3834 48.5144C-34.5329 49.5341 -34.435 50.5093 -34.0933 51.4053C-33.8497 52.0465 -33.4384 52.6248 -32.8732 53.1207C-32.6539 53.3133 -32.4067 53.4897 -32.1336 53.6485C-32.488 53.5488 -32.812 53.4201 -33.1002 53.2646C-33.8757 52.8613 -34.4757 52.3368 -34.8703 51.7172C-35.4248 50.8277 -35.6787 49.8196 -35.6197 48.7423C-35.5329 47.5239 -35.2705 46.2752 -34.8358 45.0117C-34.3775 43.8122 -33.8709 42.4807 -33.4186 41.2931C-32.9663 40.1056 -32.4462 38.99 -32.0441 38.0423C-31.642 37.0947 -31.1732 36.291 -30.8989 35.7392L-30.5266 34.8516ZM-45.5954 35.1035C-46.2015 35.2558 -46.7989 35.462 -47.368 35.7152C-48.0318 35.9851 -48.6536 36.3181 -49.2047 36.6989C-49.7808 37.0598 -50.2864 37.4656 -50.6995 37.8984C-51.0858 38.2853 -51.4028 38.689 -51.6414 39.0979C-51.9327 39.4951 -52.1342 39.9003 -52.2379 40.2975C-52.2379 40.2975 -52.1842 40.1895 -52.2556 39.9856C-52.2381 39.6961 -52.1771 39.3988 -52.0733 39.0979C-51.8819 38.6667 -51.6093 38.2352 -51.2624 37.8144C-50.8325 37.327 -50.299 36.8648 -49.6841 36.4469C-49.054 36.044 -48.3547 35.695 -47.6163 35.4153C-46.9631 35.1786 -46.2909 34.9968 -45.6203 34.8755C-45.1601 34.8041 -44.7058 34.7639 -44.265 34.7556H-43.7812C-44.3794 34.8146 -44.9908 34.9318 -45.5954 35.1035ZM-35.5379 32.2485C-38.0728 32.1455 -40.2407 31.5108 -41.7662 30.4252C-42.4598 29.8192 -43.4236 29.3801 -44.5832 29.1417C-45.6151 28.9781 -46.8036 29.0406 -48.0068 29.3216C-48.8698 29.5149 -49.7203 29.8172 -50.504 30.2093C-50.7273 30.3214 -50.943 30.4417 -51.1494 30.5692L-51.3705 30.7011L-51.1607 30.5572C-50.9759 30.4173 -50.7771 30.2848 -50.5666 30.1613C-49.789 29.7084 -48.9236 29.3407 -48.0258 29.0817C-46.7317 28.7315 -45.4309 28.6108 -44.2767 28.7339C-43.0092 28.97 -41.9391 29.4166 -41.1435 30.0414C-40.375 30.6059 -39.4357 31.0587 -38.3563 31.3849C-37.4293 31.6836 -36.4031 31.8852 -35.3031 31.9846C-34.5334 32.0691 -33.7281 32.1012 -32.8976 32.0806C-32.587 32.0925 -32.2698 32.0925 -31.9474 32.0806C-32.2806 32.1317 -32.6119 32.1718 -32.94 32.2005C-33.8105 32.2677 -34.6625 32.2838 -35.4861 32.2485H-35.5379ZM-37.3593 40.3935C-37.8889 40.8275 -38.4844 41.2309 -39.1305 41.593C-39.8203 41.9625 -40.5593 42.2778 -41.3234 42.5287C-41.97 42.7284 -42.6261 42.8814 -43.2776 42.9845C-43.8861 43.0665 -44.4813 43.0947 -45.0469 43.0685C-44.4241 43.0146 -43.786 42.9014 -43.1523 42.7326C-41.8177 42.4265 -40.5101 41.9289 -39.3383 41.2811C-38.7094 40.9461 -38.1306 40.5663 -37.6201 40.1535C-37.1597 39.7923 -36.7493 39.41 -36.397 39.014C-36.0128 38.6272 -35.7014 38.2232 -35.4723 37.8144C-35.5931 38.2125 -35.7937 38.6159 -36.0687 39.014C-36.4017 39.4886 -36.8182 39.9523 -37.3075 40.3935H-37.3593ZM-45.5395 55.3158C-45.5395 55.3158 -45.6409 55.5198 -45.958 55.8796C-46.2842 56.3739 -46.5323 56.8728 -46.6976 57.3671C-46.9634 58.0596 -47.0683 58.7395 -47.0086 59.3823C-46.9758 60.1135 -46.7258 60.7884 -46.2712 61.3736C-45.8038 61.9632 -45.1302 62.4475 -44.286 62.801C-43.5608 63.1219 -42.7241 63.3484 -41.804 63.4728C-41.1589 63.5783 -40.4671 63.6226 -39.7447 63.6047H-38.9155L-39.7811 63.7127C-40.5399 63.773 -41.2764 63.773 -41.9751 63.7127C-42.9807 63.6329 -43.9045 63.4385 -44.7121 63.1369C-45.6511 62.7981 -46.3993 62.3033 -46.909 61.6838C-47.4188 61.0644 -47.6791 60.3338 -47.6736 59.5382C-47.6676 58.8462 -47.4881 58.1218 -47.1415 57.3911C-46.8774 56.8809 -46.5265 56.3734 -46.0962 55.8796C-45.6927 55.5198 -45.4876 55.3158 -45.4876 55.3158H-45.5395ZM-60.3796 95.8965C-60.5195 95.5522 -60.6249 95.1957 -60.6952 94.8289C-60.733 94.3986 -60.7274 93.9579 -60.6783 93.5094C-60.5984 93.0552 -60.4673 92.5941 -60.2861 92.13C-60.1305 91.7307 -59.9311 91.3297 -59.6896 90.9304C-59.4179 90.5268 -59.1149 90.1263 -58.7822 89.7309C-59.0219 90.1302 -59.2213 90.5311 -59.3787 90.9304C-59.5673 91.3323 -59.7146 91.7331 -59.8196 92.13C-59.9509 92.5699 -60.0468 93.0064 -60.107 93.4375C-60.1721 93.8719 -60.2006 94.3004 -60.1924 94.721C-60.21 95.095 -60.1835 95.4598 -60.1132 95.8126C-60.0862 96.172 -60.0171 96.5208 -59.9066 96.8562C-60.0845 96.5505 -60.2252 96.2299 -60.3277 95.8965H-60.3796ZM-50.0948 80.1465C-50.5908 80.6344 -51.1959 81.0858 -51.8799 81.478C-52.8431 82.017 -53.8738 82.489 -54.9445 82.8814C-56.1267 83.3133 -57.3773 83.7091 -58.5887 84.165C-59.772 84.5644 -60.9053 85.0799 -61.9376 85.6884C-62.8302 86.2228 -63.5931 86.8446 -64.1744 87.5117C-64.6044 87.9921 -64.9444 88.4888 -65.1845 88.9871C-65.295 89.1749 -65.3886 89.3632 -65.4648 89.5509C-65.4476 89.3658 -65.4117 89.1774 -65.3573 88.9871C-65.2191 88.4824 -64.9636 87.9685 -64.5998 87.4637C-64.0379 86.7358 -63.2766 86.0451 -62.3651 85.4365C-61.2802 84.7807 -60.0892 84.2172 -58.841 83.7691C-57.5838 83.3253 -56.3218 82.9414 -55.1868 82.5696C-54.154 82.2406 -53.147 81.8376 -52.189 81.37C-51.4837 81.03 -50.8419 80.6231 -50.2968 80.1705C-50.0819 80.0031 -49.8896 79.8261 -49.7234 79.6427C-49.8097 79.8117 -49.9166 79.9802 -50.043 80.1465H-50.0948ZM-59.2417 181.196C-59.8233 180.525 -60.1781 180.057 -60.1781 180.057C-60.1781 180.057 -59.6839 180.453 -58.9217 181.004C-58.5466 181.292 -58.109 181.628 -57.6713 181.964C-57.2337 182.3 -56.6876 182.696 -56.1583 183.056C-55.6289 183.416 -55.1288 183.799 -54.6393 184.135L-53.2673 185.059L-51.993 185.971C-51.993 185.971 -52.6565 185.707 -53.6338 185.275L-55.1863 184.471C-55.7163 184.147 -56.2689 183.799 -56.8096 183.428C-57.3503 183.056 -57.8099 182.66 -58.2344 182.228C-58.6589 181.796 -58.8845 181.52 -59.1899 181.196H-59.2417ZM-47.0734 166.418C-48.8052 167.731 -50.2229 169.177 -51.2466 170.676C-52.4236 172.396 -53.1396 174.142 -53.3563 175.822C-53.6055 177.505 -53.4781 179.121 -52.978 180.621C-52.553 181.952 -51.9411 183.22 -51.1485 184.411C-50.4296 185.467 -49.8052 186.33 -49.2968 186.906L-48.5295 187.83L-49.5525 187.038C-50.4066 186.322 -51.1817 185.561 -51.8743 184.759C-52.8684 183.615 -53.6417 182.365 -54.1828 181.028C-54.7567 179.462 -54.939 177.77 -54.7242 176.002C-54.4397 174.206 -53.6198 172.345 -52.3093 170.52C-51.1244 168.937 -49.5037 167.429 -47.5516 166.094C-46.1803 165.166 -44.6429 164.355 -43.0071 163.695C-42.5571 163.518 -42.1007 163.354 -41.6397 163.203L-41.1475 163.047L-41.6057 163.239C-42.0533 163.427 -42.493 163.627 -42.9232 163.839C-44.4209 164.594 -45.8029 165.464 -47.0215 166.418H-47.0734ZM15.7958 134.414C15.5048 135.243 15.1307 136.076 14.6761 136.909C13.999 138.098 13.1691 139.278 12.1969 140.436C11.0682 141.759 9.75239 143.042 8.27295 144.262C6.76871 145.473 5.11814 146.615 3.34842 147.669C1.79364 148.575 0.15835 149.411 -1.53741 150.164C-2.74138 150.676 -3.96862 151.149 -5.21267 151.58L-6.63136 152.035L-5.25194 151.52C-4.03244 151.045 -2.83823 150.524 -1.67786 149.96C-0.0350419 149.185 1.5443 148.334 3.04179 147.417C6.48093 145.32 9.44257 142.909 11.7496 140.328C12.7489 139.204 13.6202 138.056 14.3539 136.897C14.89 136.072 15.3543 135.243 15.744 134.414C16.0422 133.814 16.2152 133.466 16.2152 133.466C16.2152 133.466 15.9034 133.85 15.7958 134.414ZM16.1734 128.86C16.1514 128.476 16.0964 128.099 16.0085 127.733C15.823 126.764 15.4462 125.855 14.8861 125.022C14.0987 123.861 12.9575 122.868 11.5102 122.083C8.14759 120.312 3.35142 119.762 -1.85798 120.547C-4.15031 120.896 -6.45937 121.386 -8.7531 122.011C-10.7551 122.562 -12.4681 123.054 -13.649 123.414L-15.5127 123.966L-13.7096 123.258C-12.1089 122.639 -10.4865 122.067 -8.84872 121.543C-6.50493 120.777 -4.11858 120.177 -1.7407 119.756C1.02526 119.291 3.72267 119.181 6.19445 119.432C8.63199 119.74 10.7733 120.409 12.4893 121.399C13.9387 122.282 15.0098 123.405 15.6458 124.71C16.0989 125.617 16.3146 126.611 16.2861 127.661C16.2571 128.055 16.1906 128.455 16.087 128.86H16.1734ZM-30.2154 130.396L-26.474 128.812L-30.075 130.599L-33.7737 132.375L-38.0695 134.378L-42.3932 136.333C-43.7858 136.945 -45.08 137.533 -46.1937 138.001L-49.9179 139.584L-46.3574 137.809L-42.6355 136.021L-38.3397 134.018L-34.0332 132.063L-30.2154 130.396ZM-64.735 125.849C-66.4506 127.076 -68.0677 128.355 -69.5746 129.676C-71.2842 131.172 -72.7285 132.755 -73.8649 134.378C-75.0291 135.977 -75.7242 137.611 -75.9052 139.176C-76.0634 140.549 -75.7493 141.826 -74.9848 142.919C-74.435 143.701 -73.6356 144.362 -72.6228 144.874C-72.3361 145.017 -72.0306 145.145 -71.708 145.258L-71.359 145.39L-71.7491 145.306C-72.1287 145.24 -72.4892 145.152 -72.8272 145.042C-74.0382 144.632 -75.0189 144.028 -75.7106 143.267C-76.7241 142.186 -77.2151 140.861 -77.1415 139.404C-77.0127 137.727 -76.3251 135.965 -75.1236 134.234C-73.884 132.528 -72.309 130.87 -70.4495 129.316C-68.8364 127.987 -67.0797 126.722 -65.2019 125.537C-63.5886 124.482 -62.1351 123.678 -61.1757 123.138L-59.6001 122.263C-59.6001 122.263 -60.1072 122.622 -61.0221 123.246C-61.9369 123.87 -63.2999 124.77 -64.8214 125.849H-64.735ZM-64.4941 123.558C-68.312 125.92 -71.6698 128.583 -74.4189 131.427C-77.1135 134.187 -78.6423 137.164 -78.792 139.944C-78.8029 140.244 -78.7811 140.652 -78.7521 140.976C-78.7231 141.299 -78.6941 141.623 -78.6133 141.947C-78.4938 142.581 -78.2589 143.181 -77.9127 143.735C-77.3209 144.832 -76.1066 145.644 -74.4512 146.05C-72.7379 146.414 -70.7566 146.443 -68.6883 146.134C-66.5385 145.823 -64.3679 145.352 -62.2203 144.73C-57.874 143.447 -53.592 141.921 -49.4328 140.172C-45.2629 138.456 -41.165 136.573 -37.2012 134.786C-33.2374 132.999 -29.2824 131.055 -25.3006 129.232C-21.3384 127.427 -17.2253 125.851 -13.0289 124.53C-8.90775 123.205 -4.69731 122.285 -0.566646 121.807C3.56724 121.292 7.39477 121.667 10.3391 122.874C13.0235 124.167 14.6369 126.187 14.9279 128.62C15.099 129.777 15.0783 130.982 14.8661 132.219C14.7279 133.396 14.4063 134.602 13.9059 135.817C13.379 137.023 12.651 138.231 11.7365 139.416C10.8227 140.577 9.72232 141.705 8.45974 142.775C6.00071 144.811 3.11541 146.644 -0.0522559 148.185C-2.05048 149.169 -4.11203 150.076 -6.2202 150.896C-10.1445 152.415 -14.147 153.762 -18.1925 154.926C-21.1037 155.778 -23.9326 156.534 -26.6572 157.253C-29.3819 157.973 -32.0356 158.585 -34.4785 159.329C-39.0275 160.606 -43.4059 162.484 -47.2821 164.823C-50.3553 166.727 -52.7401 169.038 -54.1161 171.444C-55.0872 173.231 -55.5993 175.014 -55.6289 176.71C-55.6425 177.768 -55.5448 178.802 -55.3366 179.805L-55.0834 180.825C-55.0834 180.825 -55.2566 180.513 -55.5046 179.865C-55.8796 178.9 -56.1031 177.885 -56.1723 176.83C-56.2006 176.257 -56.1752 175.673 -56.0961 175.079C-56.3084 175.066 -56.5279 175.066 -56.7526 175.079C-57.4504 175.152 -58.1664 175.324 -58.8516 175.582C-59.5695 175.858 -60.2398 176.213 -60.8217 176.626C-61.0977 176.821 -61.3468 177.031 -61.5638 177.25C-61.4049 177.016 -61.2097 176.787 -60.9819 176.566C-60.4765 176.066 -59.8374 175.611 -59.1106 175.235C-58.3559 174.834 -57.5282 174.519 -56.6818 174.311L-55.9133 174.155C-55.7071 173.242 -55.3553 172.313 -54.8637 171.384C-54.4507 170.612 -53.9241 169.844 -53.2925 169.093C-54.2422 168.622 -55.3554 168.282 -56.5922 168.085C-57.8773 167.9 -59.2694 167.864 -60.7193 167.977C-59.2026 167.704 -57.7092 167.586 -56.2964 167.63C-54.9187 167.671 -53.6324 167.861 -52.4824 168.193C-51.1926 166.827 -49.6079 165.544 -47.7989 164.403C-46.8974 163.835 -45.9592 163.294 -44.9897 162.783C-45.1661 162.708 -45.3319 162.624 -45.4864 162.531C-46.2412 162.124 -46.8879 161.641 -47.4138 161.092C-47.9273 160.546 -48.315 159.938 -48.569 159.281C-48.6861 158.985 -48.7769 158.681 -48.8412 158.369C-48.7101 158.657 -48.5475 158.934 -48.3545 159.197C-47.5506 160.336 -46.2671 161.24 -44.6049 161.836C-44.1927 161.98 -43.8776 162.076 -43.6769 162.124C-40.7706 160.752 -37.722 159.583 -34.605 158.645L-33.0713 158.201C-33.52 157.575 -33.8347 156.891 -34.0095 156.162C-34.2029 155.298 -34.1871 154.377 -33.9625 153.427C-33.9416 154.314 -33.7255 155.153 -33.3201 155.922C-32.9291 156.632 -32.3604 157.266 -31.6306 157.805C-30.0338 157.373 -28.3971 156.966 -26.7193 156.51C-25.0415 156.054 -22.9412 155.478 -20.9911 154.926C-21.0733 154.831 -21.1446 154.731 -21.2048 154.626C-21.5528 154.093 -21.7655 153.504 -21.837 152.875C-21.9078 152.254 -21.8384 151.601 -21.6308 150.932C-21.5439 150.634 -21.4233 150.333 -21.2699 150.032C-21.3501 150.329 -21.3975 150.621 -21.4116 150.908C-21.5078 152.134 -21.0558 153.236 -20.1071 154.087C-19.8803 154.291 -19.6868 154.422 -19.579 154.518L-18.329 154.159C-14.6208 153.064 -10.9497 151.822 -7.34105 150.44L-7.48399 150.38C-8.34702 149.971 -9.04795 149.445 -9.55909 148.821C-10.0459 148.206 -10.3393 147.505 -10.4276 146.745C-10.476 146.406 -10.468 146.052 -10.4037 145.69C-10.3884 146.035 -10.3229 146.369 -10.2077 146.685C-9.96621 147.367 -9.52691 147.975 -8.90836 148.485C-8.31598 148.994 -7.5538 149.399 -6.65433 149.684C-6.41876 149.763 -6.16767 149.827 -5.90324 149.876C-4.08835 149.138 -2.31088 148.336 -0.581401 147.477C1.25611 146.544 3.00382 145.519 4.6366 144.418C3.5913 144.131 2.66937 143.727 1.89885 143.219C1.04675 142.619 0.396566 141.899 -0.0281828 141.084C0.610035 141.778 1.44853 142.365 2.45846 142.823C3.42092 143.238 4.52821 143.529 5.74331 143.687C6.32083 143.255 6.88107 142.823 7.42465 142.355C9.77606 140.325 11.4786 138.095 12.3791 135.865C12.5401 135.542 12.7012 135.218 12.724 134.894C11.4087 135.123 10.1067 135.26 8.84146 135.302C7.41283 135.341 6.04438 135.256 4.76872 135.05C6.12913 135.097 7.55214 135.024 9.00499 134.834C10.3227 134.653 11.6548 134.375 12.9754 134.006C13.1179 133.48 13.2096 132.959 13.2498 132.447C13.395 131.304 13.3697 130.191 13.1744 129.124C12.9698 127.829 12.3878 126.647 11.455 125.633L11.3834 125.777C10.6016 126.455 9.70658 127.085 8.72531 127.649C7.77764 128.201 6.75279 128.682 5.68328 129.076C5.20264 129.258 4.71274 129.418 4.2181 129.556C4.69677 129.374 5.16588 129.174 5.62198 128.956C6.59686 128.495 7.50791 127.962 8.32692 127.373C9.1298 126.796 9.83147 126.169 10.4089 125.513C10.5103 125.309 10.7088 125.154 10.8149 125.01C10.3141 124.598 9.71927 124.244 9.04214 123.954C7.14714 123.165 4.79328 122.794 2.20218 122.874C1.97868 124.462 1.03537 126.129 -0.511913 127.673C0.0853142 126.834 0.509435 125.981 0.746627 125.142C0.945962 124.385 0.979932 123.65 0.847482 122.958C0.294657 122.958 -0.293958 123.03 -0.951674 123.102C-3.84448 123.444 -6.78299 124.029 -9.6943 124.842L-9.51836 128.344L-10.9098 125.201L-12.7563 125.753C-15.9281 126.769 -19.048 127.941 -22.082 129.256L-22.0559 129.412C-21.948 130.023 -21.7101 130.596 -21.348 131.115C-20.9717 131.646 -20.4771 132.122 -19.8751 132.531C-19.6 132.714 -19.303 132.882 -18.9854 133.035C-19.3643 132.927 -19.7219 132.798 -20.0557 132.651C-20.8099 132.326 -21.4628 131.923 -21.9988 131.451C-22.5403 130.966 -22.9565 130.414 -23.2374 129.808C-23.6844 130.012 -24.1193 130.192 -24.549 130.396L-33.774 134.738C-33.6539 135.256 -33.4462 135.746 -33.1542 136.201C-32.6665 136.953 -31.9836 137.616 -31.1264 138.169C-32.174 137.737 -33.0608 137.179 -33.7584 136.513C-34.1997 136.128 -34.5665 135.703 -34.8537 135.242L-36.4096 135.973C-39.3819 137.365 -42.4227 138.72 -45.5034 140.052L-43.2128 143.818L-46.5998 140.52C-47.325 140.832 -48.0388 141.155 -48.7986 141.467C-51.902 142.777 -55.0672 143.978 -58.2757 145.066C-58.3022 145.703 -58.2123 146.315 -58.0075 146.889C-57.7864 147.515 -57.4287 148.091 -56.9429 148.605C-56.7224 148.842 -56.4763 149.067 -56.2058 149.276C-57.2786 148.718 -58.12 147.999 -58.6916 147.153C-59.0417 146.621 -59.2885 146.047 -59.428 145.438C-60.2908 145.714 -61.1536 145.99 -62.0217 146.242C-64.3567 146.922 -66.7177 147.437 -69.0563 147.777C-70.0142 147.908 -70.9597 147.984 -71.8819 148.005C-71.9475 148.137 -72.0131 148.269 -72.0906 148.425C-72.8772 149.935 -73.0147 151.419 -72.4865 152.695C-72.3755 152.993 -72.2284 153.277 -72.0462 153.547C-72.2982 153.308 -72.517 153.051 -72.701 152.779C-73.1217 152.177 -73.3684 151.501 -73.4325 150.776C-73.5157 150.038 -73.4188 149.258 -73.1451 148.461C-73.0867 148.313 -73.0129 148.165 -72.9244 148.017C-73.9374 147.994 -74.8971 147.881 -75.7807 147.681C-77.2672 147.334 -78.4766 146.717 -79.3086 145.882L-80.1732 146.266C-81.3726 146.839 -82.4962 147.497 -83.5122 148.221C-84.5404 148.967 -85.4424 149.775 -86.1908 150.62C-86.5463 151.013 -86.8612 151.414 -87.1328 151.819C-86.9324 151.418 -86.6868 151.017 -86.3982 150.62C-85.7678 149.728 -84.9633 148.859 -84.0101 148.041C-83.0394 147.217 -81.9373 146.45 -80.7346 145.762C-80.4033 145.582 -80.1357 145.426 -79.886 145.306L-80.1783 144.886C-80.9083 143.59 -81.2531 142.148 -81.1991 140.616C-81.2001 140.34 -81.1666 140.064 -81.133 139.788C-82.648 140.091 -84.1623 140.494 -85.6511 140.988C-87.5344 141.596 -89.368 142.342 -91.1081 143.207C-89.452 142.222 -87.6742 141.343 -85.817 140.592C-84.2498 139.964 -82.6393 139.426 -81.0098 138.984C-80.4849 136.595 -79.1181 134.132 -77.0164 131.787L-77.3648 131.619C-78.0127 131.324 -78.753 131.107 -79.565 130.971C-80.3868 130.826 -81.2777 130.77 -82.2111 130.803C-82.6397 130.814 -83.0771 130.846 -83.5199 130.899C-83.0701 130.803 -82.6207 130.722 -82.174 130.659C-81.1692 130.522 -80.1849 130.469 -79.246 130.504C-78.2842 130.543 -77.3784 130.672 -76.5518 130.887L-76.2826 130.971C-74.3612 128.943 -72.114 127.004 -69.5957 125.201L-72.6367 121.207L-68.5986 124.482C-67.701 123.858 -66.8101 123.282 -65.8607 122.658C-63.4912 121.175 -61.02 119.769 -58.4635 118.448L-58.7349 118.16C-59.2421 117.586 -59.629 116.955 -59.8889 116.277C-60.1374 115.6 -60.2545 114.88 -60.2378 114.13C-60.21 113.518 -60.1282 113.11 -60.1282 113.11C-60.1282 113.11 -60.1177 113.506 -60.0007 114.07C-59.8867 114.761 -59.6289 115.41 -59.2334 116.001C-58.8487 116.588 -58.342 117.119 -57.723 117.584L-57.336 117.848C-53.5996 115.976 -49.7279 114.267 -45.7598 112.738C-46.2416 111.937 -46.5779 111.077 -46.7638 110.171C-47.0035 108.973 -46.9953 107.708 -46.7394 106.405C-46.8062 107.61 -46.6522 108.769 -46.2805 109.859C-45.9351 110.72 -45.4376 111.524 -44.7957 112.258C-42.9759 111.587 -41.1449 110.927 -39.3031 110.315C-36.0773 109.244 -32.8164 108.29 -29.5393 107.46C-30.9687 105.71 -31.3215 103.503 -30.5481 101.151C-30.97 103.488 -30.1974 105.594 -28.3477 107.148C-23.9063 106.087 -19.4579 105.283 -15.0617 104.749C-15.014 104.653 -14.9663 104.557 -15.0336 104.449C-14.8863 103.454 -14.5892 102.438 -14.1464 101.414C-13.7006 100.406 -13.1003 99.3972 -12.3556 98.4036C-12.0293 97.9506 -11.6678 97.5021 -11.273 97.0601C-11.5997 97.5091 -11.8939 97.9615 -12.1543 98.4156C-12.7372 99.4047 -13.1731 100.398 -13.4548 101.378C-13.7296 102.348 -13.8559 103.3 -13.8318 104.221L-13.7922 104.593C-12.5691 104.461 -11.3407 104.353 -10.176 104.269C-6.21973 103.926 -2.2162 103.417 1.81079 102.746C1.63764 100.65 2.2352 98.3916 3.55976 96.1364C3.00134 97.4871 2.70354 98.8218 2.67385 100.107C2.67351 100.936 2.78881 101.739 3.01846 102.506L3.87341 102.35C8.52523 101.547 13.1978 100.336 17.7559 98.7515L18.5382 98.4636C18.143 97.9136 17.8617 97.3143 17.6994 96.6762C17.5077 95.7245 17.5523 94.71 17.8317 93.6654C17.7852 94.6525 17.9789 95.5869 18.406 96.4363C18.6995 97.0144 19.1076 97.5455 19.6227 98.0197C23.3703 96.5476 26.8641 94.6715 29.8987 92.5018C30.8118 91.8439 31.6721 91.1585 32.4734 90.4506C31.4944 90.037 30.6175 89.5427 29.8556 88.9751C28.713 88.1343 27.8062 87.1543 27.1588 86.0602C28.0216 87.0344 29.1198 87.885 30.4265 88.5913C31.2875 89.0641 32.2445 89.4656 33.2852 89.7908C35.2137 87.977 36.8378 86.0775 38.1158 84.141C39.0861 82.6471 39.9142 81.1442 40.5944 79.6427C40.7077 79.4147 40.8211 79.1868 40.9344 78.9589C39.7051 79.1622 38.4936 79.263 37.3301 79.2588C35.8169 79.2307 34.4048 79.0322 33.148 78.671C34.5055 78.8201 35.9611 78.8201 37.4669 78.671C38.7258 78.5359 40.0075 78.294 41.2799 77.9513C41.3992 77.7114 41.5126 77.4835 41.6319 77.2436C41.892 76.5118 42.1236 75.7681 42.3147 75.0364C43.1673 72.2319 42.9559 69.5648 41.6994 67.2753C40.4742 68.1858 39.1321 69.0311 37.7 69.7944C36.0588 70.6657 34.3123 71.4202 32.5075 72.0375C34.2199 71.3016 35.8472 70.4467 37.3481 69.4945C38.7534 68.5823 40.0298 67.591 41.1476 66.5436C39.4959 64.6865 36.6143 63.5366 33.0318 63.3048C31.0451 63.1727 28.9463 63.2332 26.7922 63.4848L22.3669 70.682L25.4642 63.6887C23.7669 63.9341 22.0581 64.2588 20.3511 64.6603C18.1936 65.1797 16.0489 65.8181 13.9436 66.5676C12.339 67.1194 10.639 67.8631 8.91691 68.5468L9.62238 74.0768L7.53155 69.0746C3.18999 70.6736 -1.25697 71.9971 -5.72919 73.0212C-6.7641 73.2611 -7.81031 73.489 -8.86188 73.6929C-9.19996 75.0011 -9.37232 76.289 -9.37718 77.5435C-9.35708 78.888 -9.13452 80.1851 -8.71239 81.418C-9.37202 80.2593 -9.83279 79.0223 -10.0886 77.7234C-10.3086 76.5092 -10.3583 75.2493 -10.237 73.9568C-13.0933 74.4854 -15.9366 74.8863 -18.7457 75.1564C-20.3998 75.3163 -22.0356 75.4164 -23.6457 75.4562C-24.6342 76.7914 -25.4461 78.1451 -26.0704 79.4987C-26.8146 81.1161 -27.3075 82.7245 -27.5406 84.2969C-27.5425 82.7416 -27.2755 81.133 -26.7441 79.4987C-26.3053 78.1495 -25.6805 76.7882 -24.8776 75.4323C-26.9665 75.4621 -28.9793 75.3415 -30.8834 75.0724C-32.4718 74.8325 -33.9223 74.4288 -35.1933 73.8728C-36.6573 74.8476 -38.0432 75.8699 -39.3402 76.9317C-40.8632 78.1821 -42.2607 79.482 -43.5185 80.8182C-42.4487 79.4344 -41.2294 78.0745 -39.8726 76.7518C-38.7067 75.6122 -37.4345 74.5055 -36.0669 73.441C-38.1787 72.253 -39.2069 70.3964 -38.9434 68.247C-40.3303 68.4849 -41.7228 68.7979 -43.1056 69.1826C-44.7633 69.6477 -46.4003 70.206 -47.9945 70.85C-45.1106 69.3854 -41.9967 68.2137 -38.8136 67.3953C-38.759 67.1234 -38.6909 66.8475 -38.6093 66.5676C-38.1409 65.2261 -37.4333 63.8728 -36.5016 62.5371C-34.7755 59.9528 -32.3242 57.4607 -29.3043 55.2199C-27.897 54.2005 -26.3318 53.2755 -24.656 52.4729C-24.7619 52.269 -24.8899 52.0051 -25.0803 51.6932C-25.5376 50.9618 -26.1382 50.2941 -26.8716 49.7019C-26.8289 49.4488 -26.815 49.2003 -26.83 48.9582L-26.6073 49.0662C-25.5687 49.6537 -24.6913 50.3505 -23.994 51.1414C-23.757 51.4293 -23.5827 51.6692 -23.4422 51.8731C-21.9399 51.2239 -20.3831 50.6686 -18.8011 50.2178C-15.9709 49.4717 -13.1232 48.9554 -10.3327 48.6823C-10.3024 47.9266 -10.2736 46.5831 -10.3484 45.2396C-10.4887 43.9158 -10.7452 42.6224 -11.1168 41.3651C-10.5179 42.5494 -10.0257 43.7745 -9.64232 45.0357C-9.22857 46.4272 -9.00548 47.8546 -8.91953 48.5504L-7.92164 48.4544C-4.60707 48.2027 -1.33325 48.0666 1.88649 48.0466H2.73301C2.82599 46.9647 3.03927 45.8624 3.37129 44.7478C3.78386 43.3844 4.35229 42.009 5.07164 40.6334C4.57903 41.9891 4.24596 43.3327 4.07549 44.6519C3.96144 45.8064 3.97667 46.9368 4.12105 48.0346C8.26724 48.0346 12.2579 48.0346 16.1726 47.7707C16.1857 46.7199 16.3468 45.6402 16.6541 44.5439C17.0109 43.3011 17.5553 42.0433 18.2792 40.7893C17.7912 42.0263 17.4828 43.2516 17.3583 44.4479C17.2341 45.5624 17.2734 46.6466 17.4754 47.6867L19.5975 47.5188C22.3093 47.2937 25.0769 46.8672 27.8484 46.2473C28.4323 46.1153 28.9935 45.9594 29.572 45.8034C29.2451 44.9361 29.0641 44.0203 29.0316 43.0685C28.9957 41.905 29.1671 40.6982 29.5426 39.4698C29.4026 40.6513 29.4718 41.794 29.749 42.8765C29.9705 43.7777 30.3456 44.6297 30.8686 45.4196C31.1522 45.3356 31.4358 45.2516 31.7081 45.1557C32.9939 44.7238 34.1654 44.244 35.3714 43.7642C37.1219 43.035 38.826 42.233 40.4687 41.3651C39.9262 40.6667 39.5299 39.9024 39.287 39.086C39.0566 38.1965 39.009 37.2541 39.1452 36.279C39.2477 37.1859 39.5288 38.0437 39.9824 38.834C40.4172 39.521 40.9774 40.1519 41.6546 40.7173C46.942 37.8606 51.3071 34.2847 54.2181 30.4252C55.5622 28.6616 56.6232 26.866 57.3793 25.0752C57.8736 23.9555 58.2431 22.8408 58.4846 21.7405C58.6471 20.9968 58.6825 20.6129 58.6825 20.6129C58.6825 20.6129 58.7049 20.9848 58.652 21.7165C58.3339 24.5853 57.1093 27.5798 55.0514 30.5212C53.3187 33.0029 50.9561 35.3964 48.0891 37.5745C44.5208 40.276 40.34 42.6252 35.8142 44.4719C34.5716 44.9966 33.3081 45.485 32.0287 45.9354C30.6948 46.3993 29.3398 46.8005 27.9771 47.1349C25.0925 47.7924 22.2095 48.255 19.3788 48.5144C13.2909 48.9686 7.28801 49.1849 1.4009 49.1622C-1.72726 49.2341 -4.9305 49.3181 -8.23512 49.606C-11.578 49.8563 -15.0179 50.4554 -18.4295 51.3813C-21.9673 52.3273 -25.3306 53.8954 -28.0776 55.8796C-30.8562 57.976 -33.1005 60.3005 -34.6675 62.7051C-36.4815 65.1095 -37.1546 67.5886 -36.5793 69.7464C-36.0996 70.7743 -35.2439 71.6468 -34.0671 72.3079C-32.8903 72.9689 -31.4186 73.404 -29.7464 73.585C-26.2067 74.041 -22.355 74.041 -18.3617 73.585C-9.97957 72.6683 -1.39541 70.6265 6.85454 67.5872C8.96385 66.8195 10.9381 65.8719 13.2958 65.0562C15.5584 64.2752 17.8594 63.6127 20.171 63.0769C24.9224 61.8785 29.6752 61.3811 34.0396 61.6255C36.2733 61.7878 38.3022 62.2389 40.0287 62.957C41.7553 63.7016 43.0991 64.734 43.9788 65.9918C45.5309 68.5524 45.8479 71.5776 44.8991 74.7725C44.6782 75.5642 44.4519 76.3319 44.1381 77.1716C43.8242 78.0113 43.5474 78.707 43.1697 79.5707C42.4585 81.172 41.5804 82.7756 40.542 84.3689C38.4597 87.6035 35.4207 90.7271 31.6375 93.5214C27.7575 96.3029 23.2045 98.6468 18.3327 100.371C13.529 102.067 8.59998 103.374 3.68517 104.257C-1.177 105.152 -6.01326 105.806 -10.7794 106.213C-29.2963 107.695 -48.6448 113.967 -64.6574 123.678L-64.4941 123.558ZM29.2182 96.5803C28.0938 97.4046 26.8765 98.1763 25.5853 98.8834C23.7486 99.8807 21.8146 100.777 19.8153 101.558C17.5132 102.44 15.1608 103.206 12.785 103.85C10.414 104.452 8.03578 104.964 5.66405 105.385C3.39946 105.805 1.32206 106.057 -0.467024 106.285C-2.2561 106.513 -3.72107 106.644 -4.75947 106.752L-6.36262 106.884L-4.72182 106.573L-0.389279 105.781C1.407 105.469 3.42972 105.049 5.73543 104.581C8.05598 104.122 10.3781 103.581 12.6908 102.962C14.9904 102.377 17.2725 101.67 19.5107 100.851C21.4735 100.132 23.3969 99.3303 25.2645 98.4516C26.5879 97.8211 27.868 97.1395 29.0944 96.4123C29.9901 95.8965 30.4966 95.5727 30.4966 95.5727C30.4966 95.5727 29.9424 95.9925 29.1318 96.5803H29.2182ZM49.0025 74.5806C48.6625 75.2643 48.3162 75.6482 48.3162 75.6482C48.3162 75.6482 48.513 75.2523 48.8471 74.5806C49.3056 73.6391 49.6454 72.6999 49.8627 71.7736C50.1617 70.4695 50.2125 69.2003 50.014 67.9951C49.8282 66.6149 49.3009 65.3332 48.4496 64.1925C47.6021 63.044 46.4455 62.0458 45.0166 61.2296C43.7625 60.5035 42.3096 59.9231 40.6927 59.5023C39.5715 59.1918 38.3751 58.959 37.1171 58.8065C36.186 58.6986 35.6451 58.6746 35.6451 58.6746C35.6451 58.6746 36.198 58.6746 37.1827 58.6746C38.5053 58.7634 39.7722 58.936 40.9687 59.1904C42.6302 59.5828 44.1388 60.1306 45.4612 60.8218C48.5381 62.4371 50.3537 64.8764 50.6396 67.7791C50.7537 69.0302 50.6133 70.3396 50.2214 71.6777C49.9541 72.638 49.5459 73.6102 49.0025 74.5806Z" fill="url(#paint0_linear_5619_455978)" fill-opacity="0.1"/>
<defs>
<linearGradient id="paint0_linear_5619_455978" x1="-30.6992" y1="-14.4844" x2="72.3671" y2="36.7643" gradientUnits="userSpaceOnUse">
<stop stop-color="#475467"/>
<stop offset="1" stop-color="#667085"/>
</linearGradient>
</defs>
</svg>
