<svg width="184" height="132" viewBox="0 0 184 132" fill="none" xmlns="http://www.w3.org/2000/svg">
<path d="M60.1669 57.0636C60.1669 57.0636 60.5289 44.4566 47.6992 47.6335C36.6994 50.3479 36.981 64.5836 44.3007 69.9119C51.6205 75.2403 68.7335 77.1706 81.8045 78.8193C94.8755 80.4681 95.6597 91.9089 95.6597 91.9089C95.6597 91.9089 98.113 84.8514 96.3635 79.9654C93.4678 71.2591 83.9159 64.6439 83.9159 64.6439C83.9159 64.6439 88.7421 70.676 89.7074 75.2805C87.9981 74.9387 85.8665 74.6371 83.4333 74.2752C81.1259 69.8046 78.0491 65.7753 74.3439 62.3718C76.0602 65.9523 77.4077 69.6981 78.3658 73.5513C76.3548 73.2497 74.3439 72.928 72.333 72.546C70.0041 67.8771 66.842 63.6728 63.0023 60.14C64.7334 63.7701 66.0813 67.5707 67.0242 71.4803C64.8121 70.9977 62.6403 70.4347 60.5892 69.7712C58.2779 65.3203 55.2089 61.306 51.5199 57.9081C53.0093 61.0604 54.2401 64.3284 55.1999 67.6801C50.9971 65.6694 47.9003 63.0354 47.0155 59.5368C44.7632 50.8908 58.8196 51.5744 60.1669 57.0636Z" fill="url(#paint0_linear_5619_455979)" fill-opacity="0.1"/>
<path d="M40.4205 78.6583C35.4402 78.4481 30.5163 77.5204 25.8011 75.9036C25.8011 75.9036 38.4699 96.3323 70.9463 79.925C70.9463 79.925 42.5722 80.106 37.2835 65.0057C31.2507 47.4724 55.3818 32.4123 55.3818 32.4123C55.3818 32.4123 39.8373 36.1522 33.5833 47.8343C33.5833 47.8343 30.0843 37.9819 31.9947 22.3789C31.9947 22.3789 23.6896 44.6574 32.2159 66.192C32.2159 66.192 21.9803 57.4655 16.3497 36.9967C16.2693 37.057 15.6861 67.4989 40.4205 78.6583Z" fill="url(#paint1_linear_5619_455979)" fill-opacity="0.1"/>
<path d="M45.6895 45.703C47.3853 44.9373 49.2197 44.5263 51.0802 44.4952C52.9406 44.4641 54.7877 44.8135 56.5082 45.522C58.1869 46.3457 59.6511 47.5483 60.7853 49.0348C61.9195 50.5213 62.6927 52.2511 63.0437 54.0876C63.4483 51.862 63.2284 49.5679 62.4084 47.4597C61.5885 45.3515 60.2005 43.5116 58.3985 42.144C59.8828 40.8223 61.6206 39.8166 63.5062 39.1883C63.5062 39.1883 64.5519 49.845 73.1989 51.5742C73.1989 51.5742 65.1552 44.6574 69.7602 30.2407C64.9078 31.0474 60.2707 32.8345 56.1321 35.493C51.9936 38.1515 48.4404 41.6255 45.6895 45.703Z" fill="url(#paint2_linear_5619_455979)" fill-opacity="0.1"/>
<path d="M47.2975 123.255C55.5624 119.556 65.8181 105.742 73.7814 95.2264C81.7446 84.7104 92.0406 89.7774 92.0406 89.7774C92.0406 89.7774 87.1339 84.1273 81.9859 83.2024C72.977 81.3525 62.48 86.319 62.48 86.319C62.48 86.319 70.1617 85.1729 74.5455 86.6206C73.3993 87.9275 72.0721 89.6165 70.5237 91.5468C65.4842 91.3457 60.4482 92.0261 55.6428 93.5575C59.5927 93.8714 63.5006 94.5855 67.3062 95.6888C66.0594 97.2571 64.7523 98.8858 63.2843 100.494C58.0775 100.179 52.8569 100.82 47.8807 102.384C51.8888 102.705 55.8521 103.446 59.7049 104.596C58.1766 106.245 56.6081 107.854 55.0195 109.301C50.0058 109.072 44.9906 109.719 40.199 111.211C43.6641 111.508 47.1002 112.079 50.4748 112.92C46.654 115.554 42.8333 116.942 39.3544 115.916C30.7878 113.443 38.3891 101.62 43.8186 103.189C43.8186 103.189 33.0803 96.5735 29.4204 109.221C26.5247 120.099 39.0326 126.935 47.2975 123.255Z" fill="url(#paint3_linear_5619_455979)" fill-opacity="0.1"/>
<path d="M43.2349 142.217C43.2349 142.217 67.2654 141.453 69.3769 105.16C69.3769 105.16 55.3004 129.831 39.6353 126.855C21.3761 123.397 20.4109 94.9453 20.4109 94.9453C20.4109 94.9453 15.8662 110.287 22.8642 121.547C22.8642 121.547 12.5683 119.637 0 110.186C0 110.186 15.1624 128.524 38.0668 131.902C38.0668 131.902 25.398 136.406 4.84633 131.037C4.84633 131.037 30.9883 146.761 52.9476 130.937C50.2739 135.148 47.0021 138.947 43.2349 142.217Z" fill="url(#paint4_linear_5619_455979)" fill-opacity="0.1"/>
<path d="M45.8094 89.0134C45.8094 89.0134 35.7548 92.5723 25.5996 81.3325C23.8713 85.9409 23.1011 90.8533 23.3362 95.7695C23.5714 100.686 24.8068 105.502 26.9671 109.925C27.1498 108.072 27.7097 106.276 28.6123 104.647C29.5149 103.018 30.7411 101.591 32.2156 100.454C33.7642 99.4066 35.5372 98.7371 37.3918 98.4996C39.2464 98.2621 41.1309 98.4633 42.8936 99.087C41.1765 97.6093 39.0821 96.6386 36.8446 96.2835C34.6072 95.9284 32.3151 96.2029 30.2248 97.0763C29.8379 95.1315 29.8379 93.1296 30.2248 91.1849C30.2248 91.1849 39.9777 95.6486 45.8094 89.0134Z" fill="url(#paint5_linear_5619_455979)" fill-opacity="0.1"/>
<path d="M74.0033 155.527C81.8861 163.691 94.1125 156.332 94.9973 147.324C95.8821 138.316 89.0852 122.552 83.9775 110.387C78.8697 98.2224 88.3814 91.8687 88.3814 91.8687C88.3814 91.8687 81.0415 93.2761 77.6833 97.2171C71.6505 104.094 70.645 115.655 70.645 115.655C70.645 115.655 73.5006 108.437 76.9392 105.32C77.5224 106.969 78.3067 108.98 79.2317 111.352C76.5077 115.587 74.5539 120.271 73.4603 125.186C75.7061 121.922 78.2801 118.897 81.1421 116.158C81.8861 118.028 82.6301 119.958 83.3541 121.949C80.4886 126.307 78.444 131.152 77.3213 136.245C79.605 132.939 82.2266 129.879 85.1438 127.116C85.8275 129.268 86.4308 131.419 86.8933 133.53C84.1928 137.754 82.2468 142.414 81.1421 147.303C83.1289 144.45 85.3412 141.761 87.758 139.261C88.12 143.905 87.396 147.887 84.8019 150.4C78.367 156.593 71.932 144.066 75.9941 140.145C75.9338 140.005 64.8536 146.017 74.0033 155.527Z" fill="url(#paint6_linear_5619_455979)" fill-opacity="0.1"/>
<path d="M90.4109 119.214C90.4109 119.214 104.769 143.705 94.3322 155.829C82.2666 169.904 57.0898 156.513 57.0898 156.513C57.0898 156.513 68.0896 168.114 81.3416 167.692C81.3416 167.692 74.5447 175.735 60.0861 181.767C60.0861 181.767 83.5335 177.746 97.9317 159.649C97.9317 159.649 95.4784 172.88 80.5774 188C80.5774 188 107.222 173.262 104.528 146.278C106.838 150.709 108.497 155.449 109.454 160.353C109.454 160.353 120.816 139.16 90.4109 119.214Z" fill="url(#paint7_linear_5619_455979)" fill-opacity="0.1"/>
<path d="M67.7091 148.993C67.5861 147.128 67.8981 145.26 68.6205 143.536C69.3428 141.812 70.4559 140.28 71.8718 139.06C69.7284 139.822 67.8401 141.166 66.4191 142.942C64.9981 144.718 64.1008 146.855 63.8281 149.113C61.9515 148.498 60.2203 147.506 58.7404 146.198C58.7404 146.198 67.4477 139.945 64.6123 131.58C64.6123 131.58 62.6014 142.056 47.8613 145.233C50.989 149.022 54.8556 152.135 59.2256 154.382C63.5955 156.629 68.3772 157.963 73.2794 158.302C71.7648 157.213 70.4893 155.824 69.5313 154.223C68.5734 152.622 67.9533 150.842 67.7091 148.993Z" fill="url(#paint8_linear_5619_455979)" fill-opacity="0.1"/>
<path d="M123.833 130.916C123.833 130.916 123.492 143.523 136.301 140.346C147.321 137.612 147.04 123.376 139.7 118.068C132.36 112.76 115.287 110.789 102.216 109.14C89.145 107.492 88.3608 96.0508 88.3608 96.0508C88.3608 96.0508 85.9074 103.128 87.6368 107.994C90.5326 116.721 100.084 123.316 100.084 123.316C100.084 123.316 95.2582 117.284 94.293 112.699C96.0023 113.021 98.1339 113.343 100.547 113.685C102.868 118.158 105.951 122.192 109.656 125.608C107.937 122.029 106.589 118.283 105.635 114.429C107.646 114.71 109.656 115.052 111.768 115.414C114.097 120.083 117.259 124.287 121.099 127.82C119.368 124.19 118.02 120.389 117.077 116.479C119.289 116.982 121.461 117.545 123.492 118.189C125.81 122.635 128.878 126.648 132.561 130.052C131.085 126.903 129.861 123.642 128.901 120.3C133.104 122.31 136.201 124.924 137.065 128.343C139.257 137.069 125.201 136.385 123.833 130.916Z" fill="url(#paint9_linear_5619_455979)" fill-opacity="0.1"/>
<path d="M143.601 109.322C148.581 109.532 153.505 110.459 158.22 112.076C158.22 112.076 145.551 91.6274 113.055 108.055C113.055 108.055 141.449 107.854 146.718 122.954C152.75 140.487 128.619 155.547 128.619 155.547C128.619 155.547 144.184 151.807 150.438 140.125C150.438 140.125 153.937 149.978 152.026 165.601C152.026 165.601 160.332 143.302 151.805 121.768C151.805 121.768 162.021 130.494 167.671 150.963C167.752 150.903 168.315 120.461 143.601 109.322Z" fill="url(#paint10_linear_5619_455979)" fill-opacity="0.1"/>
<path d="M128.72 78.7791C133.733 78.9708 138.741 78.2905 143.52 76.7684C140.055 76.4703 136.62 75.8988 133.245 75.0593C137.085 72.4253 140.906 71.0379 144.385 72.0634C152.952 74.5365 145.33 86.3795 139.901 84.8112C139.901 84.8112 150.639 91.4063 154.299 78.7791C157.456 67.8811 144.988 61.0046 136.724 64.7042C128.459 68.4039 118.203 82.2174 110.24 92.7132C102.276 103.209 91.9805 98.1622 91.9805 98.1622C91.9805 98.1622 96.867 103.812 102.035 104.757C111.024 106.587 121.521 101.621 121.521 101.621C121.521 101.621 113.859 102.767 109.455 101.339C110.582 100.012 111.929 98.3231 113.477 96.3928C118.511 96.6322 123.548 95.9857 128.358 94.4826C124.4 94.1675 120.485 93.4466 116.675 92.3312C117.921 90.7628 119.249 89.1342 120.596 87.5256C125.808 87.8405 131.034 87.2069 136.02 85.6557C132.013 85.3265 128.05 84.5854 124.195 83.4439C125.563 81.8957 127.071 80.2268 128.72 78.7791Z" fill="url(#paint11_linear_5619_455979)" fill-opacity="0.1"/>
<path d="M140.785 45.7031C140.785 45.7031 116.654 46.4471 114.643 82.7602C114.643 82.7602 128.719 58.0689 144.384 61.0648C162.643 64.5232 163.609 92.9545 163.609 92.9545C163.609 92.9545 168.153 77.633 161.155 66.3731C161.155 66.3731 171.431 68.2631 183.999 77.7134C183.999 77.7134 168.857 59.3959 145.933 55.9979C145.933 55.9979 158.621 51.514 179.153 56.8625C179.153 56.8625 153.011 41.1388 131.052 56.9831C133.731 52.7704 137.01 48.9705 140.785 45.7031Z" fill="url(#paint12_linear_5619_455979)" fill-opacity="0.1"/>
<path d="M158.401 106.627C160.13 102.023 160.902 97.1149 160.67 92.2024C160.439 87.29 159.208 82.4763 157.054 78.0552C156.87 79.91 156.307 81.7074 155.401 83.3363C154.495 84.9652 153.264 86.391 151.785 87.5256C150.235 88.5613 148.466 89.2238 146.617 89.461C144.768 89.6982 142.889 89.5037 141.127 88.8928C142.844 90.3646 144.934 91.3317 147.167 91.6867C149.4 92.0417 151.688 91.7705 153.776 90.9035C154.169 92.8409 154.169 94.8374 153.776 96.7747C153.776 96.7747 144.003 92.3512 138.191 98.9865C138.212 98.9463 148.246 95.4075 158.401 106.627Z" fill="url(#paint13_linear_5619_455979)" fill-opacity="0.1"/>
<path d="M109.998 32.4528C102.135 24.2692 89.8889 31.6284 89.0041 40.6363C88.1193 49.6442 94.9162 65.4282 100.044 77.5728C105.172 89.7174 95.62 96.1114 95.62 96.1114C95.62 96.1114 102.98 94.7039 106.318 90.7629C112.351 83.8863 113.376 72.3047 113.376 72.3047C113.376 72.3047 110.521 79.5231 107.062 82.6397C106.499 80.9909 105.695 78.9802 104.79 76.7081C107.504 72.468 109.457 67.7865 110.561 62.8746C108.313 66.1418 105.732 69.1673 102.859 71.9026C102.135 70.0527 101.391 68.1024 100.667 66.1118C103.533 61.7537 105.577 56.9087 106.7 51.8157C104.42 55.1307 101.798 58.1971 98.8777 60.9644C98.2141 58.7929 97.6108 56.6414 97.1483 54.5503C99.8461 50.3206 101.786 45.6529 102.879 40.7569C100.894 43.6116 98.6818 46.3013 96.2635 48.7997C95.9015 44.155 96.6255 40.1537 99.2397 37.6605C105.675 31.4675 112.11 43.974 108.027 47.8949C108.068 47.9552 119.168 41.9634 109.998 32.4528Z" fill="url(#paint14_linear_5619_455979)" fill-opacity="0.1"/>
<path d="M93.6089 68.7456C93.6089 68.7456 79.2509 44.2755 89.5871 32.151C101.653 18.0761 126.829 31.4473 126.829 31.4473C126.829 31.4473 115.83 19.8455 102.578 20.2879C102.578 20.2879 109.354 12.2451 123.833 6.21304C123.833 6.21304 100.386 10.2344 85.9875 28.3307C85.9875 28.3307 88.4207 15.1204 103.342 0C103.342 0 76.6769 14.7183 79.3917 41.7018C77.0811 37.2714 75.4218 32.531 74.4649 27.6269C74.4649 27.6269 63.2038 48.7996 93.6089 68.7456Z" fill="url(#paint15_linear_5619_455979)" fill-opacity="0.1"/>
<path d="M116.291 38.9875C116.424 40.8487 116.119 42.7152 115.4 44.4368C114.68 46.1585 113.567 47.6873 112.148 48.9002C114.289 48.1345 116.175 46.7889 117.596 45.0136C119.016 43.2383 119.915 41.1033 120.192 38.8468C122.065 39.48 123.794 40.4777 125.28 41.7824C125.28 41.7824 116.573 48.0155 119.408 56.38C119.408 56.38 121.419 45.9244 136.159 42.7274C133.028 38.9335 129.158 35.8151 124.786 33.5615C120.413 31.308 115.628 29.9662 110.721 29.6177C112.242 30.7141 113.522 32.1116 114.48 33.7236C115.438 35.3355 116.055 37.1273 116.291 38.9875Z" fill="url(#paint16_linear_5619_455979)" fill-opacity="0.1"/>
<defs>
<linearGradient id="paint0_linear_5619_455979" x1="39.0801" y1="47.1201" x2="96.9929" y2="47.1201" gradientUnits="userSpaceOnUse">
<stop stop-color="#475467"/>
<stop offset="1" stop-color="#667085"/>
</linearGradient>
<linearGradient id="paint1_linear_5619_455979" x1="16.334" y1="22.3789" x2="70.9463" y2="22.3789" gradientUnits="userSpaceOnUse">
<stop stop-color="#475467"/>
<stop offset="1" stop-color="#667085"/>
</linearGradient>
<linearGradient id="paint2_linear_5619_455979" x1="45.6895" y1="30.2407" x2="73.1989" y2="30.2407" gradientUnits="userSpaceOnUse">
<stop stop-color="#475467"/>
<stop offset="1" stop-color="#667085"/>
</linearGradient>
<linearGradient id="paint3_linear_5619_455979" x1="28.9941" y1="82.7896" x2="92.0406" y2="82.7896" gradientUnits="userSpaceOnUse">
<stop stop-color="#475467"/>
<stop offset="1" stop-color="#667085"/>
</linearGradient>
<linearGradient id="paint4_linear_5619_455979" x1="0" y1="94.9453" x2="69.3769" y2="94.9453" gradientUnits="userSpaceOnUse">
<stop stop-color="#475467"/>
<stop offset="1" stop-color="#667085"/>
</linearGradient>
<linearGradient id="paint5_linear_5619_455979" x1="23.2949" y1="81.3325" x2="45.8094" y2="81.3325" gradientUnits="userSpaceOnUse">
<stop stop-color="#475467"/>
<stop offset="1" stop-color="#667085"/>
</linearGradient>
<linearGradient id="paint6_linear_5619_455979" x1="70.3848" y1="91.8687" x2="95.0757" y2="91.8687" gradientUnits="userSpaceOnUse">
<stop stop-color="#475467"/>
<stop offset="1" stop-color="#667085"/>
</linearGradient>
<linearGradient id="paint7_linear_5619_455979" x1="57.0898" y1="119.214" x2="111.533" y2="119.214" gradientUnits="userSpaceOnUse">
<stop stop-color="#475467"/>
<stop offset="1" stop-color="#667085"/>
</linearGradient>
<linearGradient id="paint8_linear_5619_455979" x1="47.8613" y1="131.58" x2="73.2794" y2="131.58" gradientUnits="userSpaceOnUse">
<stop stop-color="#475467"/>
<stop offset="1" stop-color="#667085"/>
</linearGradient>
<linearGradient id="paint9_linear_5619_455979" x1="87.0195" y1="96.0508" x2="144.935" y2="96.0508" gradientUnits="userSpaceOnUse">
<stop stop-color="#475467"/>
<stop offset="1" stop-color="#667085"/>
</linearGradient>
<linearGradient id="paint10_linear_5619_455979" x1="113.055" y1="101.668" x2="167.687" y2="101.668" gradientUnits="userSpaceOnUse">
<stop stop-color="#475467"/>
<stop offset="1" stop-color="#667085"/>
</linearGradient>
<linearGradient id="paint11_linear_5619_455979" x1="91.9805" y1="63.6953" x2="154.8" y2="63.6953" gradientUnits="userSpaceOnUse">
<stop stop-color="#475467"/>
<stop offset="1" stop-color="#667085"/>
</linearGradient>
<linearGradient id="paint12_linear_5619_455979" x1="114.643" y1="45.7031" x2="183.999" y2="45.7031" gradientUnits="userSpaceOnUse">
<stop stop-color="#475467"/>
<stop offset="1" stop-color="#667085"/>
</linearGradient>
<linearGradient id="paint13_linear_5619_455979" x1="138.191" y1="78.0552" x2="160.71" y2="78.0552" gradientUnits="userSpaceOnUse">
<stop stop-color="#475467"/>
<stop offset="1" stop-color="#667085"/>
</linearGradient>
<linearGradient id="paint14_linear_5619_455979" x1="88.9258" y1="28.9082" x2="113.626" y2="28.9082" gradientUnits="userSpaceOnUse">
<stop stop-color="#475467"/>
<stop offset="1" stop-color="#667085"/>
</linearGradient>
<linearGradient id="paint15_linear_5619_455979" x1="72.4258" y1="0" x2="126.829" y2="-4.48795e-09" gradientUnits="userSpaceOnUse">
<stop stop-color="#475467"/>
<stop offset="1" stop-color="#667085"/>
</linearGradient>
<linearGradient id="paint16_linear_5619_455979" x1="110.721" y1="29.6177" x2="136.159" y2="29.6177" gradientUnits="userSpaceOnUse">
<stop stop-color="#475467"/>
<stop offset="1" stop-color="#667085"/>
</linearGradient>
</defs>
</svg>
