<svg width="36" height="90" viewBox="0 0 36 90" fill="none" xmlns="http://www.w3.org/2000/svg">
<path d="M25.635 41.7185C25.0773 46.8798 24.7094 49.9885 24.7094 49.9885L28.0393 52.3589C28.4697 45.5962 29.998 36.4362 29.998 36.4362C29.998 36.4362 8.97775 30.4101 0.726055 5.47353C8.3576 32.2966 20.2654 38.1368 25.635 41.7185Z" fill="#F2F2F2"/>
<path d="M15.1431 38.3121C15.953 57.5909 25.0586 71.7372 28.4902 73.8584C28.0679 68.4136 27.6711 62.1348 27.6965 58.7625L24.1712 55.9138C24.1712 55.9138 24.4535 61.0913 24.5345 61.6113C24.6155 62.1312 17.7232 55.3812 15.1431 38.3121Z" fill="#F2F2F2"/>
<path d="M19.381 43.8C20.8724 49.2394 23.3148 54.5108 29.2884 57.9824C29.0396 61.8873 29.7674 74.8132 29.7674 74.8132L35.7837 81.3394C45.1774 61.185 40.3134 33.7535 40.3134 33.7535C41.9262 57.764 34.9634 72.7696 34.9634 72.7696C34.9634 72.7696 33.6352 71.9193 32.7443 70.8325C31.8615 67.8664 31.0979 26.4006 41.4218 -7.62939e-05C33.7335 16.3288 30.0624 39.0322 29.4307 53.5179C26.8506 53.9458 22.2839 50.216 19.381 43.8Z" fill="#F2F2F2"/>
<path d="M18.7019 88.1725C28.5989 94.2618 35.1035 82.614 35.1035 82.614C28.7528 76.5248 26.0546 73.8583 26.0546 73.8583C23.7916 78.3716 21.6477 79.3483 21.6477 79.3483C25.6127 86.2318 29.7304 83.8489 29.7304 83.8489C24.4707 91.1729 18.7019 88.1725 18.7019 88.1725Z" fill="#F2F2F2"/>
<path d="M23.1122 69.3758C22.7732 70.7875 21.4716 72.0242 21.4716 72.0242C17.7391 66.9928 15.3661 50.5791 15.3661 50.5791C15.933 66.4657 20.9625 77.4058 20.9625 77.4058C22.9421 76.7884 25.0918 72.6416 25.0918 72.6416L23.1122 69.3758Z" fill="#F2F2F2"/>
<path d="M18.7009 89.9345C18.7009 89.9345 17.626 89.1438 17.0603 86.9377C17.0603 86.9377 23.8472 89.2323 26.3926 85.7011C26.3926 85.7011 17.1169 81.3774 15.8165 65.1406C15.8165 65.1406 14.6849 68.2295 16.6079 77.4058C18.5308 86.5821 8.856 97.264 3.31746 98.145C3.31977 98.145 12.2529 97.6973 18.7009 89.9345Z" fill="#F2F2F2"/>
<path d="M14.8562 84.8198C14.8562 84.8198 16.2701 81.8194 15.7008 77.4055C15.1316 72.9915 6.87875 60.3743 9.59307 43.7836C9.59654 43.7836 4.61914 64.346 14.8562 84.8198Z" fill="#F2F2F2"/>
<path d="M13.0454 88.3496C13.4978 87.9073 14.1758 86.0551 14.1758 86.0551C9.30714 80.4948 8.0113 68.1411 8.0113 68.1411C9.48185 84.4664 13.0454 88.3496 13.0454 88.3496Z" fill="#F2F2F2"/>
<path d="M33.5181 67.787L35.102 69.1987C39.5368 59.5801 39.6259 31.3417 39.6259 31.3417C43.1894 35.7538 43.6985 43.7838 43.6985 43.7838C43.6985 43.7838 44.2076 35.7538 47.7711 31.3417C47.7711 31.3417 47.8602 59.5801 52.295 69.1987L53.8812 67.787C53.8812 67.787 55.2951 27.5289 43.6996 5.47357C43.6996 5.47357 49.2416 20.8403 49.2416 30.9012C49.2416 30.9012 48.0546 26.2237 43.6996 22.5968C39.3447 26.2074 38.1576 30.9012 38.1576 30.9012C38.1576 20.8403 43.6996 5.47357 43.6996 5.47357C32.1054 27.5235 33.5181 67.787 33.5181 67.787Z" fill="#F2F2F2"/>
<path d="M36.1205 92.4076C35.807 102.033 39.9097 107.146 39.9097 107.146C36.0071 98.0563 41.5723 88.1723 41.5723 88.1723C38.0874 89.761 36.1205 92.4076 36.1205 92.4076Z" fill="#F2F2F2"/>
<path d="M51.3347 83.5799C44.3788 72.2842 43.6985 45.8113 43.6985 45.8113C43.6985 45.8113 43.0194 72.2878 36.0624 83.5799C29.1053 94.872 20.9624 92.8465 19.3785 91.2578C18.0866 92.6494 16.6545 93.6934 15.1416 94.3467C15.1416 94.3467 19.3785 98.7588 26.3343 100.611C32.7545 102.323 34.8174 111.818 34.0862 116.137C34.0862 116.137 38.3509 106.164 30.4775 97.7804C30.4775 97.7804 34.652 88.6907 43.7008 86.1326C52.7497 88.6907 56.9242 97.7804 56.9242 97.7804C49.0485 106.175 53.3132 116.147 53.3132 116.147C52.5785 111.815 54.6414 102.326 61.065 100.622C68.0209 98.7697 72.2578 94.3575 72.2578 94.3575C70.7449 93.7043 69.3128 92.6602 68.0209 91.2687C66.4335 92.8501 58.2906 94.8793 51.3347 83.5799Z" fill="#F2F2F2"/>
</svg>
