<svg width="54" height="43" viewBox="0 0 54 43" fill="none" xmlns="http://www.w3.org/2000/svg">
<path d="M4.08568 50.1729C2.69663 49.0898 0.625687 48.2358 0.625687 48.2358C0.625687 48.2358 -10.2306 63.2487 -7.71583 87.2465C-7.71583 87.2465 -15.2925 59.806 -0.658733 39.6553L8.72186 46.1814C8.72186 46.1814 9.85655 59.1073 9.4687 63.0122C18.7825 66.4838 22.5907 71.7553 24.916 77.1946C20.3899 70.7786 13.2696 67.0488 9.25222 67.4821C8.26726 81.9678 2.54329 104.671 -9.44402 121C6.65272 94.6049 5.4621 53.139 4.08568 50.1729Z" fill="#F2F2F2"/>
<path d="M-1.08962 37.4201C-11.935 48.7158 -12.9958 75.1887 -12.9958 75.1887C-12.9958 75.1887 -14.0547 48.7122 -24.9019 37.4201C-35.7491 26.128 -48.4454 28.1535 -50.915 29.7422C-52.9293 28.3506 -55.1622 27.3066 -57.5211 26.6533C-57.5211 26.6533 -50.915 22.2412 -40.0696 20.3889C-30.0594 18.6775 -26.843 9.18164 -27.9831 4.86337C-27.9831 4.86337 -21.3337 14.8358 -33.6096 23.2196C-33.6096 23.2196 -27.1009 32.3093 -12.9922 34.8674C1.11662 32.3093 7.62531 23.2196 7.62531 23.2196C-4.65425 14.825 1.99515 4.85254 1.99515 4.85254C0.849638 9.18525 4.0661 18.6739 14.0817 20.3781C24.9271 22.2303 31.5332 26.6425 31.5332 26.6425C29.1743 27.2957 26.9414 28.3398 24.9271 29.7313C22.4521 28.1499 9.75579 26.1207 -1.08962 37.4201Z" fill="#F2F2F2"/>
<path d="M4.90477 11.3842C2.23491 5.08913 7.62153 0 7.62153 0C2.84104 12.2652 16.4609 18.5314 16.4609 18.5314C16.4609 18.5314 7.56922 17.6775 4.90477 11.3842Z" fill="#F2F2F2"/>
<path d="M25.9805 32.8275C25.9805 32.8275 16.9859 29.8271 8.78511 37.1511C8.78511 37.1511 15.2054 34.7682 21.3876 41.6517C21.3876 41.6517 18.0448 42.623 14.5163 47.1417C14.5163 47.1417 10.3095 44.4752 0.40752 38.386C0.40752 38.386 10.5494 26.7382 25.9805 32.8275Z" fill="#F2F2F2"/>
<path d="M9.25326 48.7392C12.2514 57.9102 10.489 61.0044 10.489 61.0044C8.46132 44.7676 -6.00103 40.4439 -6.00103 40.4439C-2.03232 36.9127 8.54972 39.2073 8.54972 39.2073C7.66758 37.0012 5.9917 36.2105 5.9917 36.2105C16.0452 28.4477 29.9844 28 29.9844 28C21.3326 28.8828 6.25508 39.5611 9.25326 48.7392Z" fill="#F2F2F2"/>
<path d="M31.9774 36.1802C47.9388 56.654 40.1782 77.2164 40.1782 77.2164C44.4103 60.6257 31.5354 48.0067 30.6605 43.5945C29.7855 39.1824 31.9774 36.1802 31.9774 36.1802Z" fill="#F2F2F2"/>
<path d="M34.7994 32.6504C34.7994 32.6504 40.3556 36.5336 42.6484 52.8589C42.6484 52.8589 40.628 40.5052 33.0351 34.9449C33.0351 34.9449 34.0886 33.0873 34.7994 32.6504Z" fill="#F2F2F2"/>
</svg>
