<svg width="125" height="194" viewBox="0 0 125 194" fill="none" xmlns="http://www.w3.org/2000/svg">
<g opacity="0.5">
<path d="M-3.12432 -139C-11.2827 -122.263 -15.9866 -104.764 -15.0678 -86.0023C-14.0572 -65.7064 -6.52362 -47.8032 5.00341 -31.0045C3.47831 -35.017 1.74496 -38.6185 0.783357 -42.4102C-0.314979 -46.3552 -0.897597 -50.4263 -0.949958 -54.5215C-0.87646 -60.6569 3.39869 -65.3935 9.40107 -66.3506C16.2609 -67.4488 22.7839 -63.8044 27.5185 -59.1292C39.7682 -47.0179 46.2055 -32.1334 47.6265 -15.1076C49.0536 2.07152 44.3864 17.8518 36.1607 32.7486C30.5791 42.6404 23.7895 51.7974 15.9486 60.0082C15.5933 60.3825 15.2197 60.7383 14.6133 61.3457C17.6268 63.1864 20.4626 64.8981 23.2495 66.6713C75.1885 99.6675 98.7141 166.629 99.198 167.169C98.757 164.562 98.4324 162.433 98.0342 160.316C97.6361 158.199 97.1951 156.064 96.6868 153.966C91.6092 132.774 81.9197 113.914 68.3102 96.9557C57.2119 83.1203 44.3313 71.2237 30.1889 60.6156C29.4846 60.0818 28.8353 59.4806 28.1494 58.8977C30.8749 54.6827 33.7169 50.6763 36.1607 46.4367C46.4382 28.5581 52.1527 9.39107 51.9751 -11.3712C51.9835 -28.1894 46.162 -44.4888 35.5053 -57.4849C28.4004 -66.3138 20.8056 -74.75 13.5415 -83.4561C5.79352 -92.7451 -0.845834 -102.684 -3.43666 -114.833C-5.04138 -122.336 -4.81476 -129.815 -3.43666 -137.3L-3.12432 -139Z" fill="url(#paint0_linear_5619_455896)" fill-opacity="0.1"/>
<path d="M42.4523 202C42.4523 199.141 42.5258 196.275 42.4523 193.41C42.1154 178.538 41.3375 163.709 37.7055 149.186C33.9754 134.265 27.4463 120.767 17.2116 109.153C16.9562 108.869 16.7601 108.538 16.6349 108.177C16.5097 107.817 16.458 107.435 16.4828 107.054C18.0201 100.066 19.6738 93.1024 21.303 86.1325C21.4229 85.7587 21.564 85.392 21.7257 85.0343C37.0011 105.232 41.8398 128.442 43.3098 152.837C45.1472 137.314 49.8573 122.374 64.7469 113.828C49.8389 91.6421 13.3897 64.1616 13.3897 64.1616C12.7221 83.2612 8.91242 101.489 4.625 119.791C6.76871 121.172 9.01042 122.473 11.099 123.982C20.3292 130.651 26.2948 139.756 30.6496 150.131C35.1208 160.807 37.5646 172.004 39.4572 183.342C40.4004 189.158 42.4523 202 42.4523 202Z" fill="url(#paint1_linear_5619_455896)" fill-opacity="0.1"/>
<path d="M-34.244 39.111C-8.69713 54.8729 -1.78214 79.1752 -2.25988 107.134C-2.08226 105.607 -1.91076 104.067 -1.72089 102.557C-1.53101 101.048 -1.28602 99.4466 -1.10839 97.8882C0.171703 86.0837 1.34156 53.928 -5.39581 49.0442C-23.8317 35.6077 -42.5494 22.619 -62.1367 10.7163L-58.0024 15.8946C-45.3913 31.7117 -35.7997 49.2467 -28.4376 68.0456C-19.3238 91.3233 -13.9278 115.534 -10.5652 140.241C-8.01108 159.485 -6.55304 178.859 -6.19817 198.27C-6.20542 198.429 -6.16647 198.586 -6.08602 198.724C-6.00557 198.861 -5.88707 198.972 -5.74493 199.043C-5.69594 196.632 -5.6347 194.22 -5.60408 191.803C-5.26108 165.267 -6.03892 138.787 -9.94659 112.491C-12.8314 93.0842 -17.2168 74.0522 -25.4854 56.1368C-28.1191 50.4002 -31.2489 44.8906 -34.244 39.111Z" fill="url(#paint2_linear_5619_455896)" fill-opacity="0.1"/>
<path d="M97.6002 43.78C100.445 35.2245 102.437 26.4079 103.547 17.4591C105.514 0.00380707 103.792 -16.9667 96.6508 -33.1949C90.771 -46.5517 82.0369 -57.7365 71.0366 -67.228C52.0127 -83.6403 29.5773 -93.3587 5.87398 -100.58C5.60448 -100.66 5.3105 -100.666 4.27539 -100.807C8.97317 -93.0336 17.9767 -83.6893 17.9767 -83.6893C33.3992 -80.321 50.5979 -75.4004 63.209 -65.639C84.7563 -48.9568 95.0584 -27.0779 92.5288 0.353523C91.8183 8.15163 88.9029 16.2136 85.3382 23.2202C85.3382 23.2141 94.7399 37.1169 97.6002 43.78Z" fill="url(#paint3_linear_5619_455896)" fill-opacity="0.1"/>
<path d="M-21.6328 -31.667C4.90017 10.4158 10.1186 56.1737 3.00144 103.772C11.9683 64.0577 13.2239 24.4659 1.42125 -15.2548C16.2649 -9.99517 30.6127 -3.42492 44.2954 4.37854C45.3489 0.212599 45.0794 -7.89227 45.0794 -7.89227C34.1007 -14.5633 22.3418 -19.8511 10.0696 -23.6357C0.465763 -26.5255 -20.4507 -31.5259 -21.6328 -31.667Z" fill="url(#paint4_linear_5619_455896)" fill-opacity="0.1"/>
<path d="M87.5314 107.134C83.6727 98.2381 81.0023 93.3973 77.0701 87.403C72.2069 79.9975 67.209 72.678 62.5357 65.1375C59.1119 59.6157 56.4599 53.6766 55.437 47.1547C55.2525 46.0501 55.2052 44.927 55.2961 43.8109C55.633 40.1787 57.9053 38.2154 61.6109 38.332C66.2596 38.4792 69.9407 40.8291 73.4074 43.6391C81.9822 50.5782 88.1071 59.4194 93.0989 69.1194C100.486 83.464 111.051 114 111.045 113.969C106.701 91.4336 98.5569 69.8036 86.9618 50.0076C81.9394 41.4181 76.2677 33.2089 68.0604 27.3066C65.2969 25.3021 62.2442 23.7317 59.0078 22.6498C53.2136 20.7601 48.7057 23.4352 46.9663 29.3497C45.2268 35.2642 46.0782 41.1726 47.9156 46.9522C50.8188 56.1001 55.7677 64.1313 61.47 71.7515C68.7586 81.47 76.133 91.1272 83.4093 100.858C84.7078 102.594 86.3738 105.239 87.5314 107.134Z" fill="url(#paint5_linear_5619_455896)" fill-opacity="0.1"/>
<path d="M43.573 41.7368C40.3064 47.181 36.8765 52.936 33.2832 59.0019C43.8391 67.0548 53.7077 75.9737 62.7868 85.6664C71.8394 95.4462 79.4464 105.619 88.1438 117.571C88.1438 117.571 80.5734 104.913 76.7638 99.1643C67.7663 85.5621 57.1641 73.2237 49.7469 58.6092C47.0997 53.2193 45.0302 47.5636 43.573 41.7368Z" fill="url(#paint6_linear_5619_455896)" fill-opacity="0.1"/>
<path d="M26.0488 -72.6333C27.6168 -71.2406 28.7132 -70.2773 29.7912 -69.3079C48.0249 -52.8773 56.8141 -29.3296 54.8174 -4.64681C57.7899 -3.43171 60.506 -1.66432 62.8226 0.562149C64.8745 -12.4081 63.0799 -24.6605 58.3821 -36.5755C51.4671 -54.1289 37.9678 -67.1789 26.0488 -72.6333Z" fill="url(#paint7_linear_5619_455896)" fill-opacity="0.1"/>
<path d="M54.1862 -0.683105C53.9142 2.85274 53.4274 6.36871 52.7285 9.84526C52.7285 9.84526 73.3265 25.9446 83.9654 38.4915C89.7351 45.5227 101.342 63.1068 102.181 65.0272C99.7309 47.2958 77.1974 14.2812 54.1862 -0.683105Z" fill="url(#paint8_linear_5619_455896)" fill-opacity="0.1"/>
<path d="M34.2501 10.7285C30.897 19.4794 26.6655 27.8666 21.6206 35.761C21.1414 24.4046 19.4765 13.1296 16.6533 2.12052C22.9436 5.00416 29.5829 8.17617 34.2501 10.7101M43.1189 7.50741C34.783 1.58674 4.33008 -11.3896 4.33008 -11.3896C17.9334 20.4286 13.891 57.6092 13.891 57.6092C35.1382 35.0861 43.0944 7.52582 43.0944 7.52582L43.1189 7.50741Z" fill="url(#paint9_linear_5619_455896)" fill-opacity="0.1"/>
<path d="M47.2046 -70.2095C61.5797 -63.7796 74.7665 -52.7972 82.392 -38.8514C87.5314 -29.3067 89.9592 -18.5327 89.4111 -7.70195C89.0681 -0.124718 87.2674 7.34209 84.7684 14.496C84.1099 16.2739 83.3513 18.0131 82.4961 19.7049C76.3712 10.962 65.1749 2.05336 65.1749 2.05336C69.4624 -16.0093 67.7107 -36.6734 56.4592 -51.6315C48.9256 -61.6506 39.0401 -68.9027 28.1501 -74.8724C26.1166 -75.9829 24.0525 -77.0382 21.5352 -78.3696C27.5253 -77.7684 40.6142 -73.4613 47.2046 -70.2095Z" fill="url(#paint10_linear_5619_455896)" fill-opacity="0.1"/>
<path d="M100.509 -47.9995C103.144 -44.8002 105.58 -41.4419 107.804 -37.9436C116.569 -24.5925 122.165 -9.40771 124.163 6.44611C126 21.1212 124.804 36.018 120.648 50.21C118.136 58.7137 114.272 66.4566 110.572 74.4755L100.16 45.9643C101.857 41.872 102.72 38.8963 102.72 38.8963C108.275 20.5698 109.85 2.01019 105.783 -16.8317C100.736 -40.2014 88.1919 -59.0126 70.3318 -74.5045C66.7977 -77.5722 61.757 -81.0203 58.082 -83.9653C73.2472 -75.7009 88.5655 -62.6816 100.509 -47.9995Z" fill="url(#paint11_linear_5619_455896)" fill-opacity="0.1"/>
</g>
<defs>
<linearGradient id="paint0_linear_5619_455896" x1="-15.1816" y1="-139" x2="99.198" y2="-139" gradientUnits="userSpaceOnUse">
<stop stop-color="#475467"/>
<stop offset="1" stop-color="#667085"/>
</linearGradient>
<linearGradient id="paint1_linear_5619_455896" x1="4.625" y1="64.1616" x2="64.7469" y2="64.1616" gradientUnits="userSpaceOnUse">
<stop stop-color="#475467"/>
<stop offset="1" stop-color="#667085"/>
</linearGradient>
<linearGradient id="paint2_linear_5619_455896" x1="-62.1367" y1="10.7163" x2="-0.123474" y2="10.7163" gradientUnits="userSpaceOnUse">
<stop stop-color="#475467"/>
<stop offset="1" stop-color="#667085"/>
</linearGradient>
<linearGradient id="paint3_linear_5619_455896" x1="4.27539" y1="-100.807" x2="104.304" y2="-100.807" gradientUnits="userSpaceOnUse">
<stop stop-color="#475467"/>
<stop offset="1" stop-color="#667085"/>
</linearGradient>
<linearGradient id="paint4_linear_5619_455896" x1="-21.6328" y1="-31.667" x2="45.1103" y2="-31.667" gradientUnits="userSpaceOnUse">
<stop stop-color="#475467"/>
<stop offset="1" stop-color="#667085"/>
</linearGradient>
<linearGradient id="paint5_linear_5619_455896" x1="46.0176" y1="22.0508" x2="111.045" y2="22.0508" gradientUnits="userSpaceOnUse">
<stop stop-color="#475467"/>
<stop offset="1" stop-color="#667085"/>
</linearGradient>
<linearGradient id="paint6_linear_5619_455896" x1="33.2832" y1="41.7368" x2="88.1438" y2="41.7368" gradientUnits="userSpaceOnUse">
<stop stop-color="#475467"/>
<stop offset="1" stop-color="#667085"/>
</linearGradient>
<linearGradient id="paint7_linear_5619_455896" x1="26.0488" y1="-72.6333" x2="63.6624" y2="-72.6333" gradientUnits="userSpaceOnUse">
<stop stop-color="#475467"/>
<stop offset="1" stop-color="#667085"/>
</linearGradient>
<linearGradient id="paint8_linear_5619_455896" x1="52.7285" y1="-0.683105" x2="102.181" y2="-0.683105" gradientUnits="userSpaceOnUse">
<stop stop-color="#475467"/>
<stop offset="1" stop-color="#667085"/>
</linearGradient>
<linearGradient id="paint9_linear_5619_455896" x1="4.33008" y1="-11.3896" x2="43.1189" y2="-11.3896" gradientUnits="userSpaceOnUse">
<stop stop-color="#475467"/>
<stop offset="1" stop-color="#667085"/>
</linearGradient>
<linearGradient id="paint10_linear_5619_455896" x1="21.5352" y1="-78.3696" x2="89.487" y2="-78.3696" gradientUnits="userSpaceOnUse">
<stop stop-color="#475467"/>
<stop offset="1" stop-color="#667085"/>
</linearGradient>
<linearGradient id="paint11_linear_5619_455896" x1="58.082" y1="-83.9653" x2="125" y2="-83.9653" gradientUnits="userSpaceOnUse">
<stop stop-color="#475467"/>
<stop offset="1" stop-color="#667085"/>
</linearGradient>
</defs>
</svg>
