<svg width="23" height="23" viewBox="0 0 23 23" fill="none" xmlns="http://www.w3.org/2000/svg">
<g clip-path="url(#clip0_565_64377)">
<g filter="url(#filter0_dd_565_64377)">
<path d="M0.645508 2.92944L2.64551 0.929443H11.6455H20.6455L22.6455 2.92944V11.9294V20.9294L20.6455 22.9294H11.6455H2.64551L0.645508 20.9294V11.9294V2.92944Z" fill="white"/>
<path d="M0.895508 11.9294V3.033L2.74906 1.17944H11.6455H20.542L22.3955 3.033V11.9294V20.8259L20.542 22.6794H11.6455H2.74906L0.895508 20.8259V11.9294Z" stroke="#D0D5DD" stroke-width="0.5"/>
</g>
<path d="M15.1691 11.2193L14.4638 11.1557C14.446 11.3538 14.5122 11.5502 14.6464 11.697C14.7805 11.8438 14.9702 11.9274 15.1691 11.9274V11.2193ZM10.448 16.8844V16.1763L10.444 16.1763L10.448 16.8844ZM7.39541 10.8754L7.53635 11.5694C7.86704 11.5023 8.1044 11.2111 8.10355 10.8736L7.39541 10.8754ZM15.8744 11.2828C15.8868 11.1451 15.8931 11.0058 15.8931 10.8652H14.4768C14.4768 10.9633 14.4724 11.0602 14.4638 11.1557L15.8744 11.2828ZM15.1854 10.5111H15.1691V11.9274H15.1854V10.5111ZM18.7261 14.0518C18.7261 12.0964 17.1409 10.5111 15.1854 10.5111V11.9274C16.3587 11.9274 17.3099 12.8786 17.3099 14.0518H18.7261ZM15.1854 17.5926C17.1409 17.5926 18.7261 16.0073 18.7261 14.0518H17.3099C17.3099 15.2251 16.3587 16.1763 15.1854 16.1763V17.5926ZM10.448 17.5926H15.1854V16.1763H10.448V17.5926ZM10.444 16.1763C10.4395 16.1763 10.4351 16.1763 10.4306 16.1763V17.5926C10.4377 17.5926 10.4448 17.5926 10.4519 17.5926L10.444 16.1763ZM10.4306 16.1763H8.00267V17.5926H10.4306V16.1763ZM8.00267 16.1763C6.71764 16.1763 5.67592 15.1346 5.67592 13.8496H4.25963C4.25963 15.9168 5.93545 17.5926 8.00267 17.5926V16.1763ZM5.67592 13.8496C5.67592 12.7248 6.47471 11.785 7.53635 11.5694L7.25447 10.1815C5.54584 10.5285 4.25963 12.038 4.25963 13.8496H5.67592ZM6.68725 10.8652C6.68725 10.8693 6.68726 10.8733 6.68727 10.8772L8.10355 10.8736C8.10354 10.8708 8.10354 10.868 8.10354 10.8652H6.68725ZM11.2902 6.26232C8.74806 6.26232 6.68725 8.32312 6.68725 10.8652H8.10354C8.10354 9.10531 9.53025 7.6786 11.2902 7.6786V6.26232ZM15.8931 10.8652C15.8931 8.32312 13.8323 6.26232 11.2902 6.26232V7.6786C13.0501 7.6786 14.4768 9.10531 14.4768 10.8652H15.8931Z" fill="#6A0067"/>
</g>
<defs>
<filter id="filter0_dd_565_64377" x="-5.35449" y="-1.07056" width="34" height="34" filterUnits="userSpaceOnUse" color-interpolation-filters="sRGB">
<feFlood flood-opacity="0" result="BackgroundImageFix"/>
<feColorMatrix in="SourceAlpha" type="matrix" values="0 0 0 0 0 0 0 0 0 0 0 0 0 0 0 0 0 0 127 0" result="hardAlpha"/>
<feMorphology radius="2" operator="erode" in="SourceAlpha" result="effect1_dropShadow_565_64377"/>
<feOffset dy="2"/>
<feGaussianBlur stdDeviation="2"/>
<feColorMatrix type="matrix" values="0 0 0 0 0.0627451 0 0 0 0 0.0941176 0 0 0 0 0.156863 0 0 0 0.06 0"/>
<feBlend mode="normal" in2="BackgroundImageFix" result="effect1_dropShadow_565_64377"/>
<feColorMatrix in="SourceAlpha" type="matrix" values="0 0 0 0 0 0 0 0 0 0 0 0 0 0 0 0 0 0 127 0" result="hardAlpha"/>
<feMorphology radius="2" operator="erode" in="SourceAlpha" result="effect2_dropShadow_565_64377"/>
<feOffset dy="4"/>
<feGaussianBlur stdDeviation="4"/>
<feColorMatrix type="matrix" values="0 0 0 0 0.0627451 0 0 0 0 0.0941176 0 0 0 0 0.156863 0 0 0 0.1 0"/>
<feBlend mode="normal" in2="effect1_dropShadow_565_64377" result="effect2_dropShadow_565_64377"/>
<feBlend mode="normal" in="SourceGraphic" in2="effect2_dropShadow_565_64377" result="shape"/>
</filter>
<clipPath id="clip0_565_64377">
<rect width="22" height="22" fill="white" transform="translate(0.645508 0.929443)"/>
</clipPath>
</defs>
</svg>
