<svg width="23" height="23" viewBox="0 0 23 23" fill="none" xmlns="http://www.w3.org/2000/svg">
<g clip-path="url(#clip0_971_81270)">
<g filter="url(#filter0_dd_971_81270)">
<path d="M0.645508 2.07837L2.64551 0.0783691H11.6455H20.6455L22.6455 2.07837V11.0784V20.0784L20.6455 22.0784H11.6455H2.64551L0.645508 20.0784V11.0784V2.07837Z" fill="white"/>
<path d="M0.895508 11.0784V2.18192L2.74906 0.328369H11.6455H20.542L22.3955 2.18192V11.0784V19.9748L20.542 21.8284H11.6455H2.74906L0.895508 19.9748V11.0784Z" stroke="#D0D5DD" stroke-width="0.5"/>
</g>
<path d="M14.4772 8.24346C14.0861 8.24346 13.7691 8.56051 13.7691 8.95161C13.7691 9.3427 14.0861 9.65975 14.4772 9.65975V8.24346ZM8.81207 9.65975C9.20316 9.65975 9.52021 9.3427 9.52021 8.95161C9.52021 8.56051 9.20316 8.24346 8.81207 8.24346V9.65975ZM6.74291 16.5817L6.41647 17.2101L6.41647 17.2101L6.74291 16.5817ZM6.13895 15.9778L6.76736 15.6513H6.76736L6.13895 15.9778ZM17.1503 15.9778L17.7788 16.3042H17.7788L17.1503 15.9778ZM16.5464 16.5817L16.8728 17.2101V17.2101L16.5464 16.5817ZM17.1503 9.71502L17.7788 9.38859L17.7788 9.38859L17.1503 9.71502ZM16.5464 9.11106L16.2199 9.73948L16.5464 9.11106ZM6.13895 9.71502L5.51053 9.38859L6.13895 9.71502ZM6.74291 9.11106L6.41647 8.48265L6.74291 9.11106ZM12.3528 5.41089C12.3528 5.01979 12.0357 4.70275 11.6446 4.70275C11.2535 4.70275 10.9365 5.01979 10.9365 5.41089H12.3528ZM11.6446 12.4923L11.1439 12.9931C11.4205 13.2696 11.8688 13.2696 12.1454 12.9931L11.6446 12.4923ZM10.375 10.2212C10.0985 9.94469 9.6501 9.94469 9.37355 10.2212C9.097 10.4978 9.097 10.9462 9.37355 11.2227L10.375 10.2212ZM13.9157 11.2227C14.1923 10.9462 14.1923 10.4978 13.9157 10.2212C13.6392 9.94469 13.1908 9.94469 12.9143 10.2212L13.9157 11.2227ZM16.6016 11.2318V14.461H18.0179V11.2318H16.6016ZM15.0296 16.033H8.25971V17.4493H15.0296V16.033ZM6.68764 14.461V11.2318H5.27135V14.461H6.68764ZM14.4772 9.65975H15.0296V8.24346H14.4772V9.65975ZM8.25971 9.65975H8.81207V8.24346H8.25971V9.65975ZM8.25971 16.033C7.84455 16.033 7.57647 16.0325 7.37257 16.0155C7.17714 15.9993 7.1049 15.9718 7.06934 15.9533L6.41647 17.2101C6.68788 17.3511 6.97076 17.4033 7.25536 17.427C7.53147 17.4499 7.86832 17.4493 8.25971 17.4493V16.033ZM5.27135 14.461C5.27135 14.8524 5.27078 15.1892 5.29371 15.4653C5.31734 15.7499 5.36955 16.0328 5.51053 16.3042L6.76736 15.6513C6.74889 15.6158 6.72137 15.5435 6.70514 15.3481C6.6882 15.1442 6.68764 14.8761 6.68764 14.461H5.27135ZM7.06934 15.9533C6.94001 15.8861 6.83455 15.7807 6.76736 15.6513L5.51053 16.3042C5.71209 16.6922 6.02846 17.0086 6.41647 17.2101L7.06934 15.9533ZM16.6016 14.461C16.6016 14.8761 16.6011 15.1442 16.5841 15.3481C16.5679 15.5435 16.5404 15.6158 16.5219 15.6513L17.7788 16.3042C17.9197 16.0328 17.9719 15.7499 17.9956 15.4653C18.0185 15.1892 18.0179 14.8524 18.0179 14.461H16.6016ZM15.0296 17.4493C15.421 17.4493 15.7578 17.4499 16.0339 17.427C16.3185 17.4033 16.6014 17.3511 16.8728 17.2101L16.2199 15.9533C16.1844 15.9718 16.1121 15.9993 15.9167 16.0155C15.7128 16.0325 15.4447 16.033 15.0296 16.033V17.4493ZM16.5219 15.6513C16.4547 15.7807 16.3493 15.8861 16.2199 15.9533L16.8728 17.2101C17.2608 17.0086 17.5772 16.6922 17.7788 16.3042L16.5219 15.6513ZM18.0179 11.2318C18.0179 10.8404 18.0185 10.5036 17.9956 10.2275C17.9719 9.94288 17.9197 9.65999 17.7788 9.38859L16.5219 10.0415C16.5404 10.077 16.5679 10.1493 16.5841 10.3447C16.6011 10.5486 16.6016 10.8167 16.6016 11.2318H18.0179ZM15.0296 9.65975C15.4447 9.65975 15.7128 9.66032 15.9167 9.67725C16.1121 9.69348 16.1844 9.72101 16.2199 9.73948L16.8728 8.48265C16.6014 8.34166 16.3185 8.28946 16.0339 8.26582C15.7578 8.24289 15.421 8.24346 15.0296 8.24346V9.65975ZM17.7788 9.38859C17.5772 9.00057 17.2608 8.6842 16.8728 8.48265L16.2199 9.73948C16.3493 9.80666 16.4547 9.91212 16.5219 10.0415L17.7788 9.38859ZM6.68764 11.2318C6.68764 10.8167 6.6882 10.5486 6.70514 10.3447C6.72137 10.1493 6.74889 10.077 6.76736 10.0415L5.51053 9.38859C5.36955 9.65999 5.31734 9.94288 5.29371 10.2275C5.27078 10.5036 5.27135 10.8404 5.27135 11.2318H6.68764ZM8.25971 8.24346C7.86832 8.24346 7.53147 8.24289 7.25536 8.26582C6.97076 8.28946 6.68788 8.34166 6.41647 8.48265L7.06934 9.73948C7.1049 9.72101 7.17714 9.69348 7.37257 9.67725C7.57647 9.66032 7.84455 9.65975 8.25971 9.65975V8.24346ZM6.76736 10.0415C6.83455 9.91212 6.94001 9.80666 7.06934 9.73948L6.41647 8.48265C6.02846 8.6842 5.71209 9.00057 5.51053 9.38859L6.76736 10.0415ZM10.9365 5.41089V12.4923H12.3528V5.41089H10.9365ZM12.1454 11.9916L10.375 10.2212L9.37355 11.2227L11.1439 12.9931L12.1454 11.9916ZM12.1454 12.9931L13.9157 11.2227L12.9143 10.2212L11.1439 11.9916L12.1454 12.9931Z" fill="#6A0067"/>
</g>
<defs>
<filter id="filter0_dd_971_81270" x="-5.35449" y="-1.92163" width="34" height="34" filterUnits="userSpaceOnUse" color-interpolation-filters="sRGB">
<feFlood flood-opacity="0" result="BackgroundImageFix"/>
<feColorMatrix in="SourceAlpha" type="matrix" values="0 0 0 0 0 0 0 0 0 0 0 0 0 0 0 0 0 0 127 0" result="hardAlpha"/>
<feMorphology radius="2" operator="erode" in="SourceAlpha" result="effect1_dropShadow_971_81270"/>
<feOffset dy="2"/>
<feGaussianBlur stdDeviation="2"/>
<feColorMatrix type="matrix" values="0 0 0 0 0.0627451 0 0 0 0 0.0941176 0 0 0 0 0.156863 0 0 0 0.06 0"/>
<feBlend mode="normal" in2="BackgroundImageFix" result="effect1_dropShadow_971_81270"/>
<feColorMatrix in="SourceAlpha" type="matrix" values="0 0 0 0 0 0 0 0 0 0 0 0 0 0 0 0 0 0 127 0" result="hardAlpha"/>
<feMorphology radius="2" operator="erode" in="SourceAlpha" result="effect2_dropShadow_971_81270"/>
<feOffset dy="4"/>
<feGaussianBlur stdDeviation="4"/>
<feColorMatrix type="matrix" values="0 0 0 0 0.0627451 0 0 0 0 0.0941176 0 0 0 0 0.156863 0 0 0 0.1 0"/>
<feBlend mode="normal" in2="effect1_dropShadow_971_81270" result="effect2_dropShadow_971_81270"/>
<feBlend mode="normal" in="SourceGraphic" in2="effect2_dropShadow_971_81270" result="shape"/>
</filter>
<clipPath id="clip0_971_81270">
<rect width="22" height="22" fill="white" transform="translate(0.645508 0.0783691)"/>
</clipPath>
</defs>
</svg>
