<svg width="23" height="23" viewBox="0 0 23 23" fill="none" xmlns="http://www.w3.org/2000/svg">
<g clip-path="url(#clip0_971_82259)">
<g filter="url(#filter0_dd_971_82259)">
<path d="M0.645508 2.48267L2.64551 0.482666H11.6455H20.6455L22.6455 2.48267V11.4827V20.4827L20.6455 22.4827H11.6455H2.64551L0.645508 20.4827V11.4827V2.48267Z" fill="white"/>
<path d="M0.895508 11.4827V2.58622L2.74906 0.732666H11.6455H20.542L22.3955 2.58622V11.4827V20.3791L20.542 22.2327H11.6455H2.74906L0.895508 20.3791V11.4827Z" stroke="#D0D5DD" stroke-width="0.5"/>
</g>
<path d="M10.6997 12.4243L10.2849 12.0095C9.73183 11.4564 9.73183 10.5596 10.2849 10.0065L13.475 6.81643C14.0281 6.26334 14.9249 6.26334 15.478 6.81643L16.3076 7.64607C16.8607 8.19916 16.8607 9.09591 16.3076 9.649L15.1846 10.772M12.5881 10.5359L13.0029 10.9507C13.556 11.5038 13.556 12.4006 13.0029 12.9537L9.81282 16.1438C9.25973 16.6969 8.36298 16.6969 7.80989 16.1438L6.98025 15.3142C6.42716 14.7611 6.42716 13.8643 6.98025 13.3112L8.10321 12.1883" stroke="#6A0067" stroke-width="1.41629" stroke-linecap="round" stroke-linejoin="round"/>
</g>
<defs>
<filter id="filter0_dd_971_82259" x="-5.35449" y="-1.51733" width="34" height="34" filterUnits="userSpaceOnUse" color-interpolation-filters="sRGB">
<feFlood flood-opacity="0" result="BackgroundImageFix"/>
<feColorMatrix in="SourceAlpha" type="matrix" values="0 0 0 0 0 0 0 0 0 0 0 0 0 0 0 0 0 0 127 0" result="hardAlpha"/>
<feMorphology radius="2" operator="erode" in="SourceAlpha" result="effect1_dropShadow_971_82259"/>
<feOffset dy="2"/>
<feGaussianBlur stdDeviation="2"/>
<feColorMatrix type="matrix" values="0 0 0 0 0.0627451 0 0 0 0 0.0941176 0 0 0 0 0.156863 0 0 0 0.06 0"/>
<feBlend mode="normal" in2="BackgroundImageFix" result="effect1_dropShadow_971_82259"/>
<feColorMatrix in="SourceAlpha" type="matrix" values="0 0 0 0 0 0 0 0 0 0 0 0 0 0 0 0 0 0 127 0" result="hardAlpha"/>
<feMorphology radius="2" operator="erode" in="SourceAlpha" result="effect2_dropShadow_971_82259"/>
<feOffset dy="4"/>
<feGaussianBlur stdDeviation="4"/>
<feColorMatrix type="matrix" values="0 0 0 0 0.0627451 0 0 0 0 0.0941176 0 0 0 0 0.156863 0 0 0 0.1 0"/>
<feBlend mode="normal" in2="effect1_dropShadow_971_82259" result="effect2_dropShadow_971_82259"/>
<feBlend mode="normal" in="SourceGraphic" in2="effect2_dropShadow_971_82259" result="shape"/>
</filter>
<clipPath id="clip0_971_82259">
<rect width="22" height="22" fill="white" transform="translate(0.645508 0.482666)"/>
</clipPath>
</defs>
</svg>
