<svg width="24" height="24" viewBox="0 0 24 24" fill="none" xmlns="http://www.w3.org/2000/svg">
<g clip-path="url(#clip0_565_86081)">
<path fill-rule="evenodd" clip-rule="evenodd" d="M0.902517 24.0001C1.33155 21.122 2.55781 18.4216 4.44244 16.2045C6.32708 13.9875 8.79481 12.3423 11.5662 11.4554V16.0313C11.5661 16.2044 11.6142 16.3741 11.7051 16.5213C11.796 16.6686 11.9262 16.7876 12.0809 16.8651C12.2357 16.9426 12.4089 16.9754 12.5813 16.96C12.7537 16.9445 12.9183 16.8814 13.0568 16.7776L17.8467 13.1894L23.1321 9.2303C23.2482 9.14347 23.3423 9.03079 23.4072 8.90121C23.4721 8.77163 23.5059 8.62871 23.5059 8.48379C23.5059 8.33888 23.4721 8.19596 23.4072 8.06638C23.3423 7.9368 23.2482 7.82412 23.1321 7.73729L17.8467 3.77775L13.0567 0.189519C12.9193 0.0836919 12.7546 0.0192248 12.5819 0.0036747C12.4092 -0.0118754 12.2356 0.0221361 12.0815 0.101722C11.9251 0.17727 11.7934 0.295934 11.7022 0.44375C11.6109 0.591565 11.5637 0.762382 11.5662 0.936097V5.01244C7.74796 6.28765 4.54099 8.93828 2.56978 12.4482C0.59857 15.9581 0.00423813 20.076 0.902517 24.0001ZM2.65869 16.035C3.34571 13.8035 4.55551 11.7683 6.1875 10.0986C7.81948 8.42883 9.8265 7.17282 12.0417 6.43496L13.0662 6.09254V2.07066L16.9475 4.97813L21.6268 8.48377L16.9475 11.9888L13.0662 14.8964V9.40121L11.1095 10.0267C7.73763 11.1046 4.78436 13.2042 2.65869 16.035Z" fill="#A63BA3"/>
</g>
<defs>
<clipPath id="clip0_565_86081">
<rect width="24" height="24" fill="white" transform="matrix(-1 0 0 1 24 0)"/>
</clipPath>
</defs>
</svg>
