<svg width="34" height="34" viewBox="0 0 34 34" fill="none" xmlns="http://www.w3.org/2000/svg">
<path fill-rule="evenodd" clip-rule="evenodd" d="M32.7226 34.0001C32.1148 29.9229 30.3776 26.0973 27.7077 22.9564C25.0378 19.8156 21.5418 17.485 17.6157 16.2285V22.7111C17.6158 22.9562 17.5477 23.1966 17.4189 23.4052C17.2901 23.6138 17.1057 23.7825 16.8865 23.8922C16.6673 24.002 16.4218 24.0485 16.1776 24.0266C15.9334 24.0047 15.7002 23.9153 15.504 23.7683L8.71824 18.6849L1.23061 13.0763C1.06625 12.9532 0.932825 12.7936 0.840923 12.61C0.749022 12.4265 0.701172 12.224 0.701172 12.0187C0.701172 11.8134 0.749022 11.6109 0.840923 11.4274C0.932825 11.2438 1.06625 11.0842 1.23061 10.9612L8.71824 5.35182L15.5041 0.268485C15.6987 0.118564 15.9321 0.0272351 16.1768 0.00520582C16.4215 -0.0168234 16.6674 0.0313594 16.8857 0.144106C17.1073 0.251132 17.2938 0.419239 17.4231 0.628645C17.5524 0.838051 17.6192 1.08004 17.6157 1.32614V7.10096C23.0249 8.9075 27.5681 12.6626 30.3606 17.6349C33.1532 22.6073 33.9951 28.4411 32.7226 34.0001ZM30.2347 22.7162C29.2614 19.555 27.5475 16.6718 25.2355 14.3063C22.9235 11.9408 20.0803 10.1615 16.9421 9.11619L15.4907 8.63109V2.93343L9.99225 7.05235L3.36318 12.0187L9.99225 16.9842L15.4907 21.1032V13.3184L18.2627 14.2044C23.0395 15.7315 27.2233 18.706 30.2347 22.7162Z" fill="#344054"/>
</svg>
