<svg width="39" height="39" viewBox="0 0 39 39" fill="none" xmlns="http://www.w3.org/2000/svg">
<g clip-path="url(#clip0_699_55533)">
<g filter="url(#filter0_dd_699_55533)">
<path d="M0 3.5414L3.46426 0.0771484H19.0534H34.6426L38.1068 3.5414V19.1306V34.7197L34.6426 38.184H19.0534H3.46426L0 34.7197V19.1306V3.5414Z" fill="#F8F8F8"/>
<path d="M0.433032 19.1306V3.72077L3.64362 0.51018H19.0534H34.4632L37.6738 3.72077V19.1306V34.5403L34.4632 37.7509H19.0534H3.64362L0.433032 34.5403V19.1306Z" stroke="#D0D5DD" stroke-width="0.866064"/>
</g>
<path d="M9.23633 16.6734C9.23633 15.3185 10.3347 14.2202 11.6895 14.2202H26.4087C27.7635 14.2202 28.8619 15.3185 28.8619 16.6734V16.6734C28.8619 18.7057 27.2144 20.3532 25.1821 20.3532H12.9161C10.8838 20.3532 9.23633 18.7057 9.23633 16.6734V16.6734Z" stroke="#6A0067" stroke-width="1.85564" stroke-linecap="round" stroke-linejoin="round"/>
<path d="M15.3691 11.7667C15.3691 10.4118 16.4675 9.31348 17.8223 9.31348H20.2755C21.6304 9.31348 22.7287 10.4118 22.7287 11.7667V14.2199H15.3691V11.7667Z" stroke="#6A0067" stroke-width="1.85564" stroke-linecap="round" stroke-linejoin="round"/>
<rect x="9.23633" y="14.2202" width="19.6255" height="14.7191" rx="2.45319" stroke="#6A0067" stroke-width="1.85564" stroke-linecap="round" stroke-linejoin="round"/>
<path d="M15.3691 19.1265V21.5797" stroke="#6A0067" stroke-width="1.85564" stroke-linecap="round" stroke-linejoin="round"/>
<path d="M22.7305 19.1265V21.5797" stroke="#6A0067" stroke-width="1.85564" stroke-linecap="round" stroke-linejoin="round"/>
</g>
<defs>
<filter id="filter0_dd_699_55533" x="-6" y="-1.92285" width="50.1074" height="50.1069" filterUnits="userSpaceOnUse" color-interpolation-filters="sRGB">
<feFlood flood-opacity="0" result="BackgroundImageFix"/>
<feColorMatrix in="SourceAlpha" type="matrix" values="0 0 0 0 0 0 0 0 0 0 0 0 0 0 0 0 0 0 127 0" result="hardAlpha"/>
<feMorphology radius="2" operator="erode" in="SourceAlpha" result="effect1_dropShadow_699_55533"/>
<feOffset dy="2"/>
<feGaussianBlur stdDeviation="2"/>
<feColorMatrix type="matrix" values="0 0 0 0 0.0627451 0 0 0 0 0.0941176 0 0 0 0 0.156863 0 0 0 0.06 0"/>
<feBlend mode="normal" in2="BackgroundImageFix" result="effect1_dropShadow_699_55533"/>
<feColorMatrix in="SourceAlpha" type="matrix" values="0 0 0 0 0 0 0 0 0 0 0 0 0 0 0 0 0 0 127 0" result="hardAlpha"/>
<feMorphology radius="2" operator="erode" in="SourceAlpha" result="effect2_dropShadow_699_55533"/>
<feOffset dy="4"/>
<feGaussianBlur stdDeviation="4"/>
<feColorMatrix type="matrix" values="0 0 0 0 0.0627451 0 0 0 0 0.0941176 0 0 0 0 0.156863 0 0 0 0.1 0"/>
<feBlend mode="normal" in2="effect1_dropShadow_699_55533" result="effect2_dropShadow_699_55533"/>
<feBlend mode="normal" in="SourceGraphic" in2="effect2_dropShadow_699_55533" result="shape"/>
</filter>
<clipPath id="clip0_699_55533">
<rect width="38.1068" height="38.1068" fill="white"/>
</clipPath>
</defs>
</svg>
