<svg width="14" height="15" viewBox="0 0 14 15" fill="none" xmlns="http://www.w3.org/2000/svg">
<g clip-path="url(#clip0_706_8530)">
<path d="M5.16056 1.7835C4.86819 0.847924 3.87415 0.321659 2.99704 0.61401C2.47078 0.789432 2.06147 1.19874 1.82756 1.725C0.833492 1.725 0.0733422 2.48515 0.0148775 3.42075C-0.0435872 4.35632 0.716563 5.23343 1.71063 5.23343H4.63433C5.62839 5.23343 6.38854 4.47328 6.38854 3.47922C6.38851 2.71907 5.86225 2.01738 5.16056 1.7835Z" fill="#7E137B"/>
<path d="M8.43307 0.848271C8.02377 0.67285 7.55597 1.25758 7.78985 1.72538C9.36864 4.53212 8.37458 8.09901 5.56784 9.67781C4.106 10.4964 2.35179 10.6719 0.772994 10.0871C0.305195 9.91169 -0.162577 10.4964 0.129773 10.9642C1.70857 13.8294 5.10004 15.1743 8.25762 14.2388C7.49747 13.8295 7.02967 13.0108 7.02967 12.1922C7.02967 11.0227 7.90678 10.0287 9.07627 9.85323C9.71949 8.74224 11.1229 8.3329 12.2339 8.97612C12.4677 9.09308 12.7017 9.32696 12.8771 9.50239C13.9881 5.877 12 2.07622 8.43307 0.848271Z" fill="#7E137B"/>
<path d="M12.7609 10.555C12.4685 9.61941 11.4745 9.09314 10.5974 9.38549C10.0711 9.56092 9.66183 9.97022 9.42791 10.4965C8.43385 10.4965 7.6737 11.2566 7.61523 12.1922C7.61523 13.1863 8.37538 13.9465 9.31098 14.0049H12.2347C13.2287 14.0049 13.9889 13.2448 13.9889 12.2507C13.9889 11.4906 13.4626 10.7889 12.7609 10.555Z" fill="#7E137B"/>
</g>
<defs>
<clipPath id="clip0_706_8530">
<rect width="14" height="14" fill="white" transform="translate(0 0.533203)"/>
</clipPath>
</defs>
</svg>
