<svg width="50" height="65" viewBox="0 0 50 65" fill="none" xmlns="http://www.w3.org/2000/svg">
<path d="M35.2294 49.1168C30.5899 48.4162 25.5724 49.2058 24.9987 49.3009C24.4257 49.2058 19.4072 48.4162 14.7677 49.1168C9.83922 49.8606 7.375 52.1973 7.375 52.1973C7.375 52.1973 8.23201 56.4488 10.4804 58.3621C10.4804 58.3621 19.105 56.2493 24.9968 56.2365C30.8883 56.2493 39.5133 58.3621 39.5133 58.3621C41.7631 56.4488 42.6186 52.1973 42.6186 52.1973C42.6186 52.1973 40.1578 49.8606 35.2294 49.1168Z" fill="url(#paint0_linear_565_85329)"/>
<path d="M39.5659 58.5882L39.4632 58.5634C39.3773 58.5424 30.7943 56.4563 24.9968 56.4435C19.1988 56.4563 10.6163 58.5424 10.5303 58.5634L10.4277 58.5882L10.3474 58.5202C8.06988 56.5836 7.20833 52.4174 7.17273 52.2409L7.15039 52.1312L7.23181 52.0538C7.33444 51.9569 9.7998 49.6626 14.7358 48.9177C16.0075 48.7257 17.4216 48.6284 18.9394 48.6284C21.952 48.6284 24.445 49.0063 24.9987 49.0965C25.552 49.0063 28.0453 48.6284 31.0579 48.6284C32.5727 48.6284 33.9887 48.7257 35.2615 48.9177C40.1975 49.6626 42.6629 51.9569 42.7655 52.0538L42.847 52.1312L42.825 52.2409C42.7894 52.4174 41.9275 56.5836 39.6499 58.5202L39.5659 58.5882ZM7.59839 52.2739C7.74988 52.9464 8.62089 56.4439 10.5345 58.143C11.5369 57.9037 19.4957 56.0487 24.9953 56.0367C30.4959 56.0487 38.4548 57.9037 39.4572 58.143C41.3708 56.4424 42.2406 52.9464 42.3936 52.2739C41.9244 51.8742 39.5022 49.9703 35.1956 49.32C33.9459 49.1322 32.5511 49.0353 31.0549 49.0353C28.0086 49.0353 25.5016 49.4256 25.0297 49.5037L24.996 49.5094L24.9619 49.5037C24.4904 49.4256 21.9834 49.0353 18.9368 49.0353C17.4409 49.0353 16.0476 49.1311 14.796 49.32C10.4898 49.9703 8.06761 51.8738 7.59839 52.2739Z" fill="white"/>
<path d="M47.4434 45.5732C47.4434 45.5732 43.5856 44.4743 38.5488 43.1561C33.918 41.9434 26.2061 42.2169 24.9969 42.2695C23.7874 42.2177 16.0754 41.9434 11.4447 43.1561C6.40791 44.4743 2.55195 45.5732 2.55195 45.5732C2.55195 45.5732 2.3376 50.1875 4.69465 53.1542C4.69465 53.1542 11.016 50.2991 15.7304 49.8581C20.145 49.4448 24.4656 49.3239 24.9969 49.31C25.5271 49.3239 29.8485 49.4463 34.2634 49.8581C38.9775 50.2976 45.2988 53.1542 45.2988 53.1542C47.6574 50.1875 47.4434 45.5732 47.4434 45.5732Z" fill="url(#paint1_linear_565_85329)"/>
<path d="M45.3622 53.4075L45.2156 53.3414C45.1528 53.3128 38.8708 50.4938 34.2457 50.0625C29.8422 49.6523 25.5064 49.5291 24.9986 49.5155C24.4903 49.5291 20.1549 49.6519 15.751 50.0625C11.1259 50.4938 4.84435 53.3128 4.78148 53.3414L4.63492 53.4075L4.53495 53.282C2.15783 50.2902 2.33847 45.7573 2.34869 45.5657L2.35513 45.4196L2.49677 45.3794C2.53464 45.3685 6.41369 44.2652 11.394 42.9612C14.4119 42.1723 18.7094 42.0051 21.7834 42.0051C23.3554 42.0051 24.5479 42.0487 24.9986 42.0679C25.4477 42.0487 26.6414 42.0051 28.2134 42.0051C31.2873 42.0051 35.5848 42.1712 38.6027 42.9612C43.583 44.2652 47.4613 45.3685 47.5 45.3794L47.6416 45.4196L47.6484 45.5657C47.6571 45.7573 47.8378 50.2902 45.4618 53.282L45.3622 53.4075ZM2.75504 45.7295C2.7452 46.5184 2.80503 50.3247 4.76028 52.9049C5.74755 52.4728 11.4198 50.0576 15.7128 49.6572C20.1458 49.2439 24.51 49.1211 24.991 49.1083H25.002C25.4848 49.1211 29.8494 49.2439 34.2821 49.6572C38.5751 50.0576 44.2473 52.4747 45.2346 52.9049C47.1898 50.3247 47.2496 46.5184 47.2417 45.7295C46.493 45.5177 42.9328 44.5157 38.4982 43.3549C35.5227 42.5758 31.2631 42.4124 28.2134 42.4124C26.6391 42.4124 25.4488 42.4563 25.0073 42.4751H24.9914C24.5521 42.4563 23.3599 42.4124 21.7853 42.4124C18.7356 42.4124 14.4763 42.5758 11.5004 43.3549C7.06355 44.5161 3.50374 45.5162 2.75504 45.7295Z" fill="white"/>
<path d="M48.1921 40.2953L46.7992 37.107L43.478 36.0442L24.9973 39.8385L6.51654 36.0442L3.19494 37.107L1.80207 40.2953L0.837891 46.4597C0.837891 46.4597 6.94486 44.2278 13.159 43.2714C17.7182 42.5696 23.4302 42.6064 24.8352 42.6278V42.6338L24.9973 42.6305L25.159 42.6338V42.6278C26.564 42.6064 32.2759 42.5696 36.8351 43.2714C43.0493 44.2278 49.1562 46.4597 49.1562 46.4597L48.1921 40.2953Z" fill="url(#paint2_linear_565_85329)"/>
<path d="M49.4141 46.772L49.0869 46.6525C49.0259 46.6304 42.9265 44.4165 36.8052 43.4744C33.1317 42.9086 28.7009 42.8241 26.3908 42.8241C25.9708 42.8241 25.6232 42.8271 25.3683 42.8301V42.844L25.1582 42.8387L25.0014 42.8357L24.8442 42.8387L24.634 42.844V42.8301C24.378 42.8271 24.0281 42.8241 23.6115 42.8241C21.2984 42.8241 16.8706 42.9086 13.1972 43.4744C7.07545 44.4165 0.976061 46.63 0.91509 46.6525L0.587891 46.772L1.61039 40.2402L1.62099 40.2162L3.0506 36.9429L6.51232 35.8354L6.56496 35.8463L25.0044 39.6309L43.4965 35.8366L46.9578 36.9441L48.3969 40.2413L48.4011 40.2669L49.4141 46.772ZM26.3889 42.4172C28.7134 42.4172 33.1658 42.5021 36.8673 43.072C42.2187 43.8959 47.5497 45.6837 48.9013 46.1548L47.9924 40.354L46.6469 37.2735L43.4658 36.2554L24.9968 40.0463L24.9552 40.0377L6.52747 36.2554L3.34636 37.2735L2.00083 40.354L1.09535 46.1563C2.44694 45.6852 7.77833 43.8974 13.1294 43.0735C16.8308 42.5036 21.2833 42.4187 23.6081 42.4187C24.1538 42.4187 24.5795 42.4232 24.84 42.4274L24.9991 42.4296L25.1578 42.4274C25.4183 42.4217 25.8436 42.4172 26.3897 42.4172H26.3889Z" fill="white"/>
<path d="M10.9087 37.8134L11.8248 42.1306C11.8248 42.1306 14.4 45.0278 17.9519 45.2551C21.5037 45.4824 31.9813 45.8227 34.1573 44.9707C36.3334 44.1187 38.0512 41.2219 38.0512 41.2219L38.6238 36.6763L10.8516 36.789L10.9087 37.8134Z" fill="url(#paint3_linear_565_85329)"/>
<path d="M21.9556 41.1395C21.5269 42.5212 21.5269 43.265 20.3484 43.6903C19.4653 44.0088 18.6442 44.3871 17.8796 44.333C17.8794 44.331 17.8794 44.329 17.8796 44.327L17.877 44.333C17.6156 44.3162 17.3612 44.2418 17.1325 44.1152C16.1679 43.584 14.6682 42.7338 13.918 42.7338C13.1678 42.7338 12.7395 40.1826 12.0968 39.9704C11.4542 39.7581 10.8111 40.3953 10.9179 41.1395C10.9956 41.6767 11.7439 44.9867 12.1533 46.7835C12.1212 46.8405 12.0923 46.8992 12.0669 46.9594L12.1874 46.9342C12.326 47.5409 12.418 47.9414 12.418 47.9414C12.418 47.9414 12.8262 50.0155 13.6772 51.8949C13.6893 51.9592 13.7014 52.0227 13.715 52.0862L13.7529 52.0572C14.1218 52.8424 14.5686 53.5817 15.0973 54.1061C15.1887 54.1965 15.2737 54.2855 15.3522 54.3729C15.3393 54.4604 15.326 54.5487 15.3117 54.6358C14.883 57.293 16.4902 61.2255 16.4902 61.2255C16.4902 61.2255 16.4902 59.2062 16.383 57.293C16.3679 57.0228 16.3936 56.6889 16.4447 56.3117C16.6651 57.0195 16.7784 57.6348 17.4547 58.2498C18.2561 58.9786 18.6829 59.2115 18.8908 59.284C19.0106 59.3255 19.1102 59.4104 19.1695 59.5218C19.6736 60.4681 21.903 64.2928 24.9485 64.2057C28.4235 64.3045 30.8355 59.3126 30.8355 59.3126C30.8355 59.3126 31.157 59.4189 32.4427 58.2498C33.0641 57.6863 33.2099 57.119 33.4008 56.4819C33.4369 56.7507 33.4503 57.022 33.4409 57.293C33.3338 59.2062 33.3338 61.2255 33.3338 61.2255C33.3338 61.2255 34.941 57.293 34.5123 54.6358C34.5017 54.5708 34.4918 54.5062 34.4824 54.4416C34.5786 54.3319 34.6838 54.2196 34.7997 54.1035C36.6213 52.2965 37.4783 47.9387 37.4783 47.9387C37.4783 47.9387 37.5688 47.545 37.7055 46.9458L37.7563 46.9567C37.7449 46.9301 37.7332 46.9041 37.721 46.8786C38.1251 45.1069 38.8996 41.6842 38.9783 41.1368C39.0855 40.3926 38.4425 39.7551 37.7998 39.9677C37.1571 40.1804 36.7285 42.7312 35.9782 42.7312C35.228 42.7312 33.7284 43.5813 32.7642 44.1125C32.5139 44.2503 32.2338 44.3262 31.9477 44.3338L31.9435 44.3244C31.9447 44.3275 31.9457 44.3306 31.9466 44.3338C31.2043 44.3605 30.4053 43.9957 29.5498 43.6876C28.3712 43.2624 28.3712 42.5186 27.9425 41.1368L21.9556 41.1395Z" fill="white"/>
<path d="M33.6561 48.7937C33.6561 48.7937 31.5766 48.4747 30.9203 49.6438L30.7014 51.982C30.7014 51.982 28.1846 52.7262 27.8562 52.3009C27.8562 52.3009 25.887 52.9396 24.9023 52.5136V54.7454L27.0909 54.6391L28.9514 54.2142L30.5927 54.0016L30.9211 55.2789C30.9211 55.2789 32.5624 54.322 33.4379 55.8101C33.4379 55.8101 32.5624 52.8344 32.5624 51.24C32.5624 49.6457 33.6561 48.7937 33.6561 48.7937Z" fill="#C80000"/>
<path d="M25.0506 64.4106C25.0161 64.4106 24.9813 64.4106 24.9464 64.4106H24.9248C22.0467 64.4106 20.0221 61.0341 19.3579 59.9243C19.2954 59.8207 19.2318 59.7143 19.1894 59.649C18.9974 59.6061 18.4149 59.3992 17.3171 58.401C16.6827 57.824 16.5101 57.2439 16.3275 56.6297C16.117 55.9204 15.8988 55.1875 14.9536 54.2498C13.1191 52.4301 12.2648 48.2072 12.2193 47.9836C12.1519 47.6932 10.8223 41.9079 10.7155 41.1663C10.6876 40.9795 10.7005 40.7889 10.7533 40.6074C10.8061 40.4259 10.8976 40.2578 11.0215 40.1144C11.1223 39.9948 11.2477 39.898 11.3895 39.8306C11.5312 39.7632 11.6858 39.7268 11.8429 39.7237C11.9515 39.7238 12.0593 39.7413 12.1622 39.7756C12.5477 39.9029 12.8007 40.504 13.0934 41.2001C13.3157 41.7291 13.652 42.5285 13.9186 42.5285C14.6843 42.5285 16.0708 43.2941 17.0834 43.8535L17.2326 43.9358C17.4759 44.0691 17.75 44.137 18.0279 44.133C18.5819 44.133 19.1913 43.9035 19.8366 43.6608C19.982 43.6059 20.1289 43.5507 20.2774 43.4974C21.1628 43.178 21.2999 42.6889 21.5733 41.7148C21.6267 41.524 21.6869 41.3079 21.7585 41.0762C22.1372 39.8605 24.0474 39.4082 24.8517 39.2699L24.8866 39.2639L24.9218 39.2699C25.9697 39.4499 27.7814 39.924 28.1408 41.0762C28.2124 41.3064 28.273 41.5225 28.3263 41.7148C28.5994 42.6889 28.7365 43.1799 29.6219 43.4974C29.7707 43.5507 29.9177 43.6063 30.0631 43.6608C30.7069 43.9038 31.3177 44.133 31.8718 44.133C32.1497 44.1372 32.4238 44.0692 32.667 43.9358L32.8163 43.8535C33.8289 43.2941 35.2153 42.5285 35.9811 42.5285C36.2462 42.5285 36.584 41.7291 36.8067 41.2001C37.0994 40.504 37.352 39.9029 37.7379 39.7756C37.8406 39.7413 37.9483 39.7238 38.0568 39.7237C38.2139 39.7267 38.3686 39.7631 38.5104 39.8305C38.6522 39.8979 38.7777 39.9948 38.8785 40.1144C39.0025 40.2578 39.094 40.4259 39.1467 40.6074C39.1994 40.7889 39.2122 40.9795 39.1842 41.1663C39.0777 41.9075 37.7481 47.694 37.6818 47.9821C37.6379 48.2075 36.782 52.4286 34.9476 54.2483C34.0027 55.1875 33.7846 55.9189 33.5737 56.6282C33.3911 57.2424 33.2188 57.8225 32.5841 58.3995C31.9646 58.963 31.4749 59.3184 31.1288 59.4566C31.0246 59.4967 30.938 59.5719 30.8841 59.6689C30.2805 60.7813 28.0847 64.4106 25.0506 64.4106ZM24.9521 64.0019H24.9559C24.9877 64.0019 25.0199 64.0019 25.0517 64.0019C27.8583 64.0019 29.9472 60.5371 30.5209 59.475C30.6207 59.2937 30.7816 59.1529 30.9754 59.0772C31.1443 59.01 31.5434 58.7932 32.3065 58.0978C32.8568 57.5974 33.0064 57.094 33.1798 56.5117C33.3945 55.789 33.638 54.9715 34.6568 53.9572C36.4136 52.2144 37.2698 47.9404 37.2789 47.8976V47.8912C37.2929 47.8307 38.671 41.8328 38.7759 41.1055C38.7955 40.9763 38.7869 40.8446 38.7507 40.719C38.7145 40.5935 38.6515 40.4771 38.5661 40.3778C38.3794 40.1644 38.1117 40.0772 37.8651 40.1584C37.6568 40.2271 37.3827 40.8782 37.1835 41.3538C36.8426 42.1656 36.5196 42.9316 35.9792 42.9316C35.3202 42.9316 33.9323 43.6983 33.0139 44.2055L32.8647 44.2878C32.5608 44.4551 32.2182 44.5409 31.8706 44.5365C31.2412 44.5365 30.5978 44.2942 29.9165 44.0376C29.773 43.9839 29.6276 43.929 29.4806 43.876C28.3968 43.485 28.2108 42.8242 27.928 41.82C27.8727 41.6228 27.8143 41.4184 27.7458 41.1937C27.4462 40.2286 25.6739 39.8132 24.8858 39.6749C24.2799 39.7823 22.4621 40.1858 22.1497 41.1937C22.08 41.4191 22.0228 41.6228 21.9672 41.8204C21.6862 42.8227 21.5002 43.485 20.4145 43.876C20.2679 43.929 20.1225 43.9835 19.979 44.0376C19.2973 44.2942 18.6535 44.5361 18.0249 44.5365C17.6773 44.5409 17.3346 44.4552 17.0308 44.2878L16.8793 44.2051C15.9613 43.698 14.5734 42.9316 13.9144 42.9316C13.3744 42.9316 13.0517 42.1652 12.7105 41.3538C12.5106 40.8782 12.2368 40.2268 12.0289 40.1584C11.7842 40.0776 11.515 40.1644 11.3283 40.3778C11.2427 40.4771 11.1797 40.5934 11.1435 40.719C11.1073 40.8445 11.0988 40.9763 11.1185 41.1055C11.223 41.8328 12.6015 47.83 12.6155 47.8912V47.8976C12.6238 47.9404 13.4823 52.2156 15.2376 53.9572C16.2567 54.9677 16.5002 55.7871 16.7146 56.5117C16.8876 57.094 17.0372 57.5974 17.5878 58.0978C18.5479 58.9709 19.0648 59.1873 19.228 59.2369C19.2427 59.2336 19.2577 59.2319 19.2727 59.232C19.4151 59.232 19.4533 59.2958 19.7037 59.7132C20.3395 60.7737 22.2751 64.0004 24.9192 64.0004L24.9521 64.0019Z" fill="#7D330A"/>
<path d="M16.6954 62.2722L16.3 61.3049C16.2334 61.1422 14.6765 57.2889 15.109 54.6067C15.5256 52.0115 15.2192 50.0141 15.2162 49.9938L15.2116 49.9664L15.215 49.9386C15.2211 49.8871 15.3737 48.6797 16.1996 48.6797C16.4621 48.6797 16.7408 48.8048 17.0517 49.0617C17.9606 49.8131 17.4872 52.0968 17.0294 54.305C16.7836 55.4902 16.5518 56.6101 16.5893 57.2844C16.6957 59.1812 16.6969 61.208 16.6969 61.229L16.6954 62.2722ZM15.6263 49.9619C15.6668 50.2376 15.9194 52.1595 15.5127 54.6709C15.2377 56.3761 15.8331 58.653 16.2701 60.0054C16.2568 59.2586 16.2299 58.2664 16.1762 57.3081C16.1356 56.5808 16.3727 55.4361 16.6242 54.2242C17.0169 52.3293 17.5058 49.9712 16.7855 49.3758C16.5583 49.188 16.3542 49.088 16.1962 49.088C15.7865 49.0862 15.6483 49.8176 15.6252 49.9619H15.6263Z" fill="#7D330A"/>
<path d="M23.842 52.9519C23.0286 52.9519 22.1171 52.6229 21.8467 52.5177C21.669 52.5772 21.4824 52.6064 21.2949 52.6041C20.6988 52.6041 20.1164 52.3528 19.9694 52.2848L18.8674 52.163L18.7129 49.4067L19.1211 49.9428C19.1234 49.9455 19.4188 50.3185 20.0849 50.5063C20.6772 50.6746 23.6482 50.7111 24.743 50.7111H24.9482V52.6108L24.8661 52.6717C24.6165 52.8565 24.2715 52.9519 23.842 52.9519ZM21.8478 52.0759L21.9281 52.1093C21.9387 52.1134 22.979 52.5428 23.8424 52.5432C24.1325 52.5432 24.3654 52.4948 24.5362 52.3993V51.1183C23.7031 51.1149 20.6477 51.0901 19.9709 50.8982C19.6921 50.8211 19.4276 50.6998 19.1878 50.539L19.2582 51.7945L20.0861 51.8862L20.119 51.9023C20.1247 51.905 20.7193 52.1953 21.2953 52.1953C21.457 52.1987 21.6178 52.1696 21.7679 52.1097L21.8478 52.0759Z" fill="#7D330A"/>
<path d="M22.1126 56.6038L22.0368 56.5937C21.7415 56.5538 19.1371 56.1846 18.6717 55.3769L18.6543 55.3464L18.6478 55.3122C18.6225 55.1725 18.4183 53.9422 19.1311 53.8009C19.2292 53.7826 19.3289 53.7739 19.4287 53.775C19.9941 53.775 20.7493 53.9921 20.8299 54.0162L22.6272 54.4354L25.1611 54.5481V56.2255L24.951 56.2206C24.951 56.2206 24.8639 56.2184 24.7237 56.2184C23.4714 56.2184 22.4962 56.3491 22.1785 56.5595L22.1126 56.6038ZM19.0451 55.2022C19.3621 55.6575 20.9954 56.0362 22.0202 56.1789C22.6038 55.8607 23.9516 55.8119 24.723 55.8119H24.7514V54.9373L22.5712 54.8389L20.719 54.4065C20.7114 54.4042 19.9536 54.1811 19.4283 54.1811C19.3556 54.1801 19.2829 54.186 19.2113 54.1988C18.9803 54.2453 18.9875 54.8543 19.0451 55.2022Z" fill="#7D330A"/>
<path d="M16.1699 48.7937C16.1699 48.7937 18.2695 48.4747 18.9322 49.6438L19.1533 51.982C19.1533 51.982 21.6944 52.7262 22.0262 52.3009C22.0262 52.3009 24.0148 52.9396 25.0092 52.5136V54.7454L22.7995 54.6391L20.9211 54.2142L19.2639 54.0016L18.9322 55.2789C18.9322 55.2789 17.275 54.322 16.3911 55.8101C16.3911 55.8101 17.275 52.8344 17.275 51.24C17.275 49.6457 16.1699 48.7937 16.1699 48.7937Z" fill="#C80000"/>
<path d="M19.72 57.5078C19.3757 57.5048 19.0329 57.4643 18.6975 57.3872C16.6033 56.9259 16.9289 54.8379 16.9323 54.8169L17.3376 54.8834C17.3258 54.954 17.0755 56.6115 18.7865 56.9898C20.1634 57.2937 20.8194 56.927 21.4533 56.5724C21.6592 56.4498 21.8745 56.3432 22.0971 56.2538C22.984 55.924 24.8855 56.0243 24.9662 56.0284L24.9434 56.4349C24.9245 56.4349 23.0476 56.335 22.241 56.6348C22.0379 56.7172 21.8415 56.8148 21.6533 56.9267C21.1776 57.193 20.6145 57.5078 19.72 57.5078Z" fill="#7D330A"/>
<path d="M19.601 59.4763C19.2886 59.4763 19.0765 59.4601 19.0508 59.4583L19.0743 59.1682C19.0936 59.1682 20.9833 59.3125 22.0013 58.7065C23.0931 58.057 24.876 58.0007 24.9514 57.9988L24.9597 58.2895C24.9419 58.2895 23.1775 58.3455 22.152 58.956C21.4025 59.4023 20.271 59.4763 19.601 59.4763Z" fill="#7D330A"/>
<path d="M21.7478 50.897L21.6406 52.2788L22.0499 52.3101L22.1571 50.9283L21.7478 50.897Z" fill="#7D330A"/>
<path d="M20.2328 50.7051H19.8223V52.0868H20.2328V50.7051Z" fill="#7D330A"/>
<path d="M20.5914 54.1168L19.7344 55.8174L20.1016 55.9995L20.9586 54.2988L20.5914 54.1168Z" fill="#7D330A"/>
<path d="M22.8031 54.6367H22.3926V56.1248H22.8031V54.6367Z" fill="#7D330A"/>
<path d="M22.3841 45.1214C22.4977 44.4538 21.802 43.8441 21.1544 44.0274C20.3538 44.2528 19.9024 45.1815 19.7475 45.9257C19.5832 46.7146 19.7297 47.62 20.3792 48.1602C20.72 48.4434 21.1457 48.5133 21.5782 48.5133C21.7994 48.5133 22.0205 48.4986 22.2417 48.5065C22.478 48.5152 22.7268 48.6162 22.9567 48.5956C23.0703 48.5854 23.054 48.3082 22.9979 48.2503C22.5795 47.8161 21.7437 48.0625 21.2025 47.999C20.8543 47.9566 20.5326 47.7928 20.2949 47.5367C20.0573 47.2807 19.9191 46.9493 19.9051 46.6015C19.8763 45.9347 20.2213 45.1154 20.7761 44.7183C21.0196 44.5451 21.3014 44.4598 21.5998 44.5098C21.9186 44.5639 22.2583 44.7318 22.2735 45.0879C22.278 45.1961 22.3576 45.2683 22.3826 45.1214H22.3841Z" fill="#7D330A"/>
<path d="M19.9404 47.3879C20.5418 47.2628 21.1719 47.0231 21.7676 47.3173C22.2524 47.5562 22.4781 48.06 22.7595 48.4875C23.0336 48.9034 23.3491 49.2741 23.796 49.5146C24.233 49.7497 24.8291 49.9316 25.2922 49.6802C25.3721 49.637 25.3638 49.4045 25.2741 49.3797C25.0146 49.3046 24.7492 49.3012 24.4864 49.246C24.1948 49.1845 23.9173 49.0699 23.668 48.9079C23.2075 48.6073 22.9681 48.1535 22.6436 47.732C22.366 47.3714 22.0471 47.0216 21.5927 46.8924C21.0538 46.7391 20.4255 46.904 19.9241 47.1178C19.8578 47.1463 19.8654 47.4037 19.9404 47.3883V47.3879Z" fill="#7D330A"/>
<path d="M24.9284 47.534C24.5955 47.253 24.2115 47.0325 23.8771 46.7489C23.5427 46.4652 23.2227 46.1534 22.9607 45.7962C22.7111 45.4581 22.4918 45.0824 22.371 44.6767C22.2627 44.3134 22.3119 44.0651 22.6361 43.8468C22.7456 43.7717 22.7876 43.3149 22.6039 43.3077C22.1529 43.2904 22.0404 43.9174 22.0287 44.2537C22.0101 44.7717 22.1881 45.2729 22.4415 45.7188C22.7103 46.1921 23.0871 46.6027 23.4996 46.9585C23.8828 47.288 24.4039 47.6881 24.9144 47.785C24.9992 47.8008 24.9682 47.5678 24.9292 47.5352L24.9284 47.534Z" fill="#7D330A"/>
<path d="M24.9441 45.5051C24.4173 44.9171 23.7114 44.5076 23.1797 43.9156C22.9191 43.6256 22.6495 43.2837 22.5359 42.9084C22.3943 42.455 22.6737 42.2397 22.9665 41.9531C23.0327 41.8881 23.0422 41.5928 22.9214 41.5774C22.5287 41.5259 22.3155 42.1097 22.2731 42.4076C22.2049 42.8727 22.345 43.322 22.5908 43.7157C22.8536 44.1376 23.1967 44.4851 23.58 44.801C23.9871 45.1391 24.4298 45.5148 24.8979 45.7646C24.9891 45.8131 24.9834 45.5471 24.946 45.5054L24.9441 45.5051Z" fill="#7D330A"/>
<path d="M24.9412 44.0303C24.1383 43.2857 21.8608 40.8893 23.805 40.1943C23.9342 40.1485 23.9088 39.7623 23.777 39.7304C23.3347 39.6233 23.0003 40.0005 22.8496 40.3728C22.65 40.8653 22.7132 41.4446 22.8965 41.9311C23.2711 42.9255 24.0777 43.8128 24.8859 44.4856C24.9908 44.5732 25.0457 44.1265 24.9415 44.03L24.9412 44.0303Z" fill="#7D330A"/>
<path d="M23.9246 39.6204C23.2429 40.6802 24.1257 41.9473 24.849 42.7246C24.949 42.8324 25.0005 42.492 24.9289 42.4165C24.2809 41.72 23.5481 40.7884 23.9848 39.7962C24.0022 39.7564 23.9742 39.5434 23.9246 39.6204Z" fill="#7D330A"/>
<path d="M20.2347 45.0295C21.1655 45.2628 21.7892 46.0769 22.1846 46.8992C22.3853 47.3162 22.5516 47.7501 22.7421 48.1716C22.9098 48.5428 23.1022 48.9857 23.4192 49.2554C23.4779 49.3054 23.4832 49.092 23.4684 49.0642C23.2219 48.5999 22.9382 48.1626 22.7182 47.6833C22.519 47.2524 22.3274 46.8192 22.0903 46.406C21.6737 45.6824 21.0803 45.0243 20.2347 44.8248C20.1824 44.8124 20.1669 45.0126 20.2347 45.0291V45.0295Z" fill="#7D330A"/>
<path d="M13.754 52.0615C13.579 51.1148 13.5268 50.0468 13.9706 49.1598C14.322 48.4547 14.9931 47.8536 15.7952 47.7375C16.2761 47.668 16.7582 47.7785 17.2043 47.9543C17.6092 48.1139 17.9822 48.3547 18.3999 48.4802C18.732 48.5809 19.1069 48.5824 19.3789 48.3401C19.6405 48.1072 19.7613 47.739 19.9121 47.4351C19.9738 47.3107 19.85 47.0053 19.7916 47.2251C19.6621 47.7135 19.3656 48.2018 18.7904 48.1928C18.3075 48.1834 17.869 47.8671 17.4399 47.68C16.642 47.3325 15.7736 47.2029 14.9923 47.6579C13.4207 48.5711 13.3283 50.5558 13.6813 52.1284C13.7047 52.2324 13.7646 52.1148 13.754 52.0589V52.0615Z" fill="#7D330A"/>
<path d="M13.7445 45.8163C13.7574 45.3024 13.7763 44.7885 13.7824 44.2761C13.7896 43.7926 13.8438 43.2794 13.7707 42.8004C13.7495 42.6611 13.6571 42.6614 13.6355 42.8004C13.5624 43.2798 13.6165 43.7926 13.6233 44.2761C13.6309 44.7904 13.6495 45.3043 13.6612 45.8163C13.6639 45.9245 13.7396 45.9256 13.7423 45.8163H13.7445Z" fill="#7D330A"/>
<path d="M16.8458 46.8748C17.083 46.4808 17.2963 46.0731 17.4847 45.6539C17.657 45.2617 17.9221 44.8064 17.963 44.3792C17.9675 44.3304 17.9353 44.0475 17.8395 44.1655C17.7217 44.3101 17.7032 44.5077 17.6475 44.6817C17.5687 44.9266 17.4733 45.1663 17.3737 45.4037C17.1908 45.8406 16.998 46.276 16.7859 46.6994C16.7632 46.7448 16.8026 46.9485 16.8458 46.8748Z" fill="#7D330A"/>
<path d="M21.3141 59.2823C22.2609 59.3402 22.9804 59.7963 23.3243 60.7005C23.486 61.1273 23.7056 61.9162 23.3728 62.3076C23.0793 62.6517 22.5442 62.6082 22.1859 62.4034C21.7864 62.175 21.4012 61.7231 21.3418 61.2561C21.2857 60.814 21.6773 60.3955 22.1246 60.3921C22.579 60.3921 22.7884 60.8275 22.8842 61.2054C22.9194 61.3452 22.9532 61.5326 22.8464 61.6562C22.7627 61.755 22.5487 61.7182 22.4518 61.6701C22.2117 61.5514 22.1552 61.2809 22.095 61.045C22.0484 60.862 21.9568 61.0732 21.9693 61.1648C22.0204 61.5431 22.2117 62.0849 22.6945 62.0315C23.1417 61.9827 23.1001 61.4304 23.0281 61.1149C22.9361 60.714 22.7888 60.2095 22.3537 60.0581C21.9636 59.9229 21.5383 60.1648 21.3346 60.4943C20.826 61.3159 21.4705 62.5229 22.3086 62.8388C22.7214 62.9951 23.2326 62.9061 23.492 62.5248C23.7515 62.1435 23.6867 61.6078 23.611 61.1844C23.4155 60.0949 22.5911 58.8518 21.3137 59.0224C21.2338 59.0333 21.2323 59.2737 21.3137 59.279L21.3141 59.2823Z" fill="#7D330A"/>
<path d="M12.1062 47.0446C12.4667 46.2605 13.3268 45.8931 14.1641 45.8946C15.1726 45.8946 16.0197 46.4048 16.8453 46.9161C17.5304 47.3391 18.32 47.6622 19.0452 47.1362C19.6132 46.723 19.9685 45.9979 20.1521 45.3401C20.1661 45.2898 20.1298 45.0693 20.0654 45.1899C19.7246 45.8285 19.4636 46.6633 18.707 46.9334C17.7678 47.2685 16.9362 46.4675 16.1822 46.0498C15.4282 45.632 14.5159 45.3548 13.6498 45.5588C12.953 45.723 12.3168 46.2196 12.0308 46.8736C12.0047 46.9334 12.052 47.1606 12.1066 47.0431L12.1062 47.0446Z" fill="#7D330A"/>
<path d="M14.7457 47.9305C14.2302 48.3937 14.0261 49.1728 14.1583 49.8404C14.2852 50.4757 14.829 51.2901 15.5353 51.378C15.639 51.3908 15.6243 51.0876 15.5549 51.0486C15.3251 50.9178 15.0937 50.8329 14.8896 50.6571C14.6663 50.4652 14.492 50.2236 14.381 49.952C14.1159 49.2991 14.3492 48.6371 14.7813 48.1198C14.8123 48.0823 14.7911 47.8899 14.7457 47.932V47.9305Z" fill="#7D330A"/>
<path d="M33.128 62.273V61.229C33.128 61.2087 33.128 59.182 33.2355 57.2844C33.2734 56.6082 33.0413 55.4902 32.7955 54.305C32.3376 52.0968 31.8643 49.8135 32.7732 49.0617C33.0841 48.8048 33.3628 48.6797 33.6252 48.6797C34.4497 48.6797 34.6023 49.8871 34.6099 49.9386L34.6133 49.9664L34.6087 49.9938C34.6057 50.0141 34.2978 52.016 34.7159 54.6067C35.1484 57.289 33.5915 61.1433 33.5249 61.3049L33.128 62.273ZM33.6241 49.0869C33.4662 49.0869 33.2624 49.1865 33.0348 49.3747C32.3153 49.9701 32.8034 52.3282 33.1962 54.2231C33.4476 55.435 33.6847 56.5797 33.6442 57.307C33.5904 58.2653 33.5639 59.2571 33.5506 60.0035C33.9873 58.6511 34.5826 56.3749 34.308 54.6709C33.9028 52.1595 34.1566 50.238 34.1944 49.9619C34.174 49.8187 34.0361 49.0869 33.6241 49.0869Z" fill="#7D330A"/>
<path d="M25.9836 52.9574C25.5534 52.9574 25.2091 52.8639 24.9611 52.6794L24.8789 52.6186V50.7188H25.0842C26.179 50.7188 29.1495 50.6812 29.7422 50.5141C30.4076 50.3262 30.7034 49.9539 30.706 49.9506L31.1127 49.4126L30.9582 52.1689L29.8562 52.2906C29.7093 52.3586 29.1268 52.6099 28.5307 52.6099C28.3432 52.6123 28.1567 52.583 27.979 52.5235C27.7086 52.6265 26.797 52.9574 25.9836 52.9574ZM25.2898 52.4067C25.4606 52.5021 25.6935 52.5506 25.9836 52.5506C26.8474 52.5506 27.8873 52.1208 27.8979 52.1167L27.9782 52.0832L28.0585 52.1171C28.2085 52.177 28.3691 52.2061 28.5307 52.2027C29.1067 52.2027 29.7013 51.9123 29.7074 51.9093L29.7399 51.8935L30.5678 51.8019L30.6382 50.5464C30.3984 50.7072 30.1339 50.8285 29.8551 50.9055C29.1783 51.0975 26.1229 51.1223 25.2898 51.1257V52.4067Z" fill="#7D330A"/>
<path d="M27.6588 56.6052L27.5948 56.5631C27.2964 56.3655 26.4739 56.2521 25.3385 56.2521C25.0651 56.2521 24.8795 56.2596 24.8777 56.2596L24.6641 56.2679V54.5518L27.198 54.4391L28.9953 54.0198C29.0767 53.9958 29.8322 53.7787 30.3965 53.7787C30.4963 53.7775 30.596 53.7862 30.6942 53.8046C31.4069 53.9458 31.2028 55.1762 31.1774 55.3159L31.1709 55.3501L31.1535 55.3805C30.6881 56.1886 28.0353 56.5579 27.7342 56.5973L27.6588 56.6052ZM25.3385 55.8452C26.1717 55.8452 27.2438 55.905 27.7524 56.1833C28.7976 56.0395 30.4628 55.66 30.782 55.2066C30.8381 54.8595 30.8453 54.2501 30.6161 54.2047C30.5444 54.1919 30.4716 54.186 30.3988 54.187C29.8724 54.187 29.1157 54.4105 29.1081 54.4124L29.096 54.4154L27.2559 54.8448L25.0757 54.9432V55.8494C25.1477 55.846 25.2367 55.8452 25.3385 55.8452Z" fill="#7D330A"/>
<path d="M30.1037 57.5075C29.2088 57.5075 28.646 57.1926 28.1723 56.9267C27.9841 56.8148 27.7876 56.7172 27.5845 56.6348C26.7771 56.3342 24.901 56.4338 24.8821 56.4349L24.8594 56.0284C24.94 56.0239 26.8415 55.9236 27.7284 56.2538C27.9511 56.3432 28.1663 56.4498 28.3722 56.5724C29.0062 56.927 29.6598 57.2937 31.0391 56.9898C32.75 56.6141 32.4997 54.954 32.4883 54.8834L32.8932 54.8169C32.8966 54.8379 33.2223 56.9259 31.128 57.3872C30.792 57.4643 30.4485 57.5047 30.1037 57.5075Z" fill="#7D330A"/>
<path d="M30.4597 59.4661C29.8538 59.4661 28.5177 59.4045 27.6713 58.9026C26.6583 58.2974 24.9264 58.2895 24.873 58.2895V57.9988C24.9488 57.9988 26.7287 57.9988 27.8243 58.6498C28.8445 59.2569 30.7403 59.169 30.7589 59.1679L30.774 59.4583C30.7532 59.4609 30.6384 59.4661 30.4597 59.4661Z" fill="#7D330A"/>
<path d="M28.3812 50.9328L27.9707 50.9653L28.0825 52.3512L28.493 52.3186L28.3812 50.9328Z" fill="#7D330A"/>
<path d="M30.0043 50.7051H29.5938V52.0868H30.0043V50.7051Z" fill="#7D330A"/>
<path d="M29.2343 54.1147L28.8672 54.2969L29.7245 55.9974L30.0916 55.8152L29.2343 54.1147Z" fill="#7D330A"/>
<path d="M27.432 54.6367H27.0215V56.1248H27.432V54.6367Z" fill="#7D330A"/>
<path d="M27.5524 45.0889C27.5816 44.4003 28.5931 44.4101 29.0161 44.6956C29.5921 45.084 29.9545 45.9252 29.9224 46.6025C29.8894 47.2982 29.371 47.8967 28.6726 47.9925C28.1201 48.0676 27.2578 47.8069 26.831 48.2498C26.7742 48.3084 26.7579 48.5849 26.8723 48.5951C27.1022 48.6157 27.351 48.5147 27.5873 48.506C27.8084 48.4981 28.0296 48.5135 28.2508 48.5128C28.6836 48.5128 29.1089 48.4433 29.4497 48.1597C30.0988 47.6198 30.245 46.7129 30.0818 45.9252C29.9265 45.1806 29.4759 44.2512 28.6745 44.0269C28.0266 43.8454 27.3309 44.4529 27.4449 45.1208C27.4691 45.2632 27.5494 45.1997 27.554 45.0874L27.5524 45.0889Z" fill="#7D330A"/>
<path d="M29.9003 47.1185C29.4015 46.9043 28.7793 46.7428 28.2423 46.8882C27.783 47.0144 27.4603 47.3683 27.182 47.7312C26.8673 48.1399 26.634 48.5851 26.1943 48.883C25.9481 49.0494 25.6727 49.1689 25.3824 49.2354C25.1063 49.2981 24.8245 49.2977 24.5515 49.3789C24.4621 49.4055 24.4534 49.6381 24.5333 49.6794C24.9855 49.9247 25.5588 49.7545 25.9906 49.5337C26.4564 49.294 26.7832 48.9153 27.0661 48.4867C27.3395 48.0712 27.5584 47.5787 28.0219 47.3337C28.6248 47.0148 29.2716 47.2586 29.8851 47.3871C29.9609 47.4028 29.9666 47.1448 29.9014 47.1166L29.9003 47.1185Z" fill="#7D330A"/>
<path d="M24.9121 47.7838C25.4082 47.6903 25.9164 47.3056 26.2917 46.9882C26.7185 46.6268 27.1086 46.2057 27.3847 45.7195C27.632 45.2834 27.8073 44.7958 27.7986 44.2901C27.7925 43.9482 27.685 43.2901 27.2226 43.3077C27.0397 43.3149 27.0809 43.7732 27.19 43.8468C27.5138 44.0654 27.5627 44.3134 27.4551 44.6767C27.3343 45.0809 27.1143 45.4573 26.8655 45.7962C26.6034 46.1531 26.2864 46.4626 25.949 46.7489C25.6116 47.0351 25.2295 47.253 24.8977 47.534C24.8598 47.5667 24.8288 47.7996 24.9129 47.7838H24.9121Z" fill="#7D330A"/>
<path d="M24.9292 45.7647C25.3837 45.5239 25.8135 45.1569 26.2096 44.8319C26.6057 44.507 26.9644 44.1516 27.2363 43.7158C27.4745 43.3337 27.615 42.8991 27.5586 42.4468C27.5207 42.1402 27.3132 41.5241 26.9053 41.5775C26.7826 41.5936 26.7947 41.8893 26.8602 41.9531C27.1253 42.2135 27.4177 42.4242 27.3113 42.8446C27.2101 43.2443 26.917 43.6132 26.6451 43.9157C26.1149 44.5077 25.4075 44.9172 24.8807 45.5051C24.8429 45.5483 24.8391 45.812 24.9292 45.7643V45.7647Z" fill="#7D330A"/>
<path d="M24.9408 44.4859C25.7486 43.8131 26.5556 42.9254 26.9301 41.9313C27.11 41.4531 27.1695 40.8986 26.9907 40.4114C26.8468 40.0248 26.506 39.6183 26.0515 39.731C25.9205 39.7629 25.8948 40.1491 26.0235 40.195C27.9667 40.89 25.6899 43.286 24.8874 44.031C24.7852 44.126 24.8367 44.5757 24.9431 44.4866L24.9408 44.4859Z" fill="#7D330A"/>
<path d="M25.84 39.7907C26.2766 40.7821 25.5434 41.7149 24.8959 42.411C24.8266 42.4862 24.8747 42.8276 24.9758 42.7191C25.6991 41.9418 26.5803 40.675 25.9002 39.6149C25.8498 39.5364 25.8244 39.7532 25.84 39.7907Z" fill="#7D330A"/>
<path d="M29.5901 44.7872C28.7392 44.986 28.1404 45.6464 27.722 46.3741C27.4853 46.7873 27.2906 47.2141 27.0907 47.6431C26.8672 48.1217 26.5692 48.5582 26.3443 49.0331C26.3272 49.0707 26.3212 49.3513 26.4101 49.2882C26.7434 49.053 26.9403 48.565 27.0994 48.2055C27.2887 47.781 27.4535 47.3433 27.6527 46.9241C28.042 46.1055 28.6668 45.2933 29.5901 45.0596C29.6795 45.0367 29.6613 44.7703 29.5901 44.7869V44.7872Z" fill="#7D330A"/>
<path d="M36.1443 52.1306C36.4972 50.5562 36.4048 48.5715 34.8332 47.6601C34.0508 47.2052 33.1836 47.3348 32.3857 47.6823C31.9543 47.8701 31.5203 48.183 31.0352 48.1951C30.4622 48.209 30.1642 47.7127 30.0339 47.2273C29.9767 47.0113 29.851 47.3119 29.9135 47.4373C30.065 47.7409 30.1854 48.1087 30.4467 48.3423C30.7178 48.585 31.0943 48.5831 31.4256 48.4825C31.8422 48.3555 32.2168 48.1158 32.6212 47.9565C33.0669 47.7803 33.5494 47.6702 34.0304 47.7397C34.8328 47.8555 35.5054 48.4565 35.8553 49.162C36.2958 50.0513 36.2469 51.1155 36.0716 52.0637C36.0613 52.1182 36.1208 52.2392 36.1443 52.1332V52.1306Z" fill="#7D330A"/>
<path d="M36.1609 45.8163C36.1738 45.3024 36.1923 44.7885 36.1988 44.2761C36.2056 43.7926 36.2597 43.2794 36.1867 42.8004C36.1655 42.6611 36.073 42.6614 36.0515 42.8004C35.9784 43.2798 36.0325 43.7926 36.0397 44.2761C36.0473 44.7904 36.0659 45.3043 36.0776 45.8163C36.0802 45.9245 36.1556 45.9256 36.1586 45.8163H36.1609Z" fill="#7D330A"/>
<path d="M33.0407 46.6997C32.8286 46.2763 32.6355 45.8409 32.4529 45.404C32.3605 45.1835 32.2711 44.9611 32.1962 44.7338C32.1348 44.546 32.1132 44.3205 31.9871 44.1658C31.8898 44.0459 31.8595 44.3359 31.8637 44.3795C31.9046 44.8074 32.1696 45.2616 32.342 45.6542C32.5303 46.0734 32.7436 46.4811 32.9808 46.8751C33.0244 46.9502 33.0626 46.7433 33.0407 46.6997Z" fill="#7D330A"/>
<path d="M28.513 58.9704C27.4212 58.8291 26.5854 59.8581 26.3093 60.7882C26.0821 61.5516 25.989 63.0208 27.1966 62.9209C28.1654 62.8405 28.8819 61.6215 28.5978 60.7326C28.4804 60.3641 28.1385 60.0455 27.737 60.0245C27.3012 60.0016 27.0372 60.3663 26.9092 60.7338C26.7922 61.0689 26.5532 61.7969 27.0054 62.0054C27.5307 62.2473 27.8056 61.5475 27.8571 61.1695C27.8692 61.0798 27.7783 60.8637 27.731 61.0497C27.6715 61.2834 27.6174 61.5595 27.3743 61.6748C26.9978 61.854 26.8585 61.5354 26.9422 61.2082C27.0349 60.8453 27.2326 60.4141 27.6666 60.3945C28.1267 60.3739 28.5422 60.8048 28.4846 61.2586C28.4252 61.7255 28.0396 62.1778 27.6405 62.4059C27.2822 62.6102 26.7471 62.6546 26.4536 62.3101C26.1325 61.9322 26.3313 61.194 26.4763 60.777C26.7963 59.8569 27.5405 59.2912 28.5123 59.2277C28.5933 59.2224 28.5929 58.982 28.5123 58.9715L28.513 58.9704Z" fill="#7D330A"/>
<path d="M37.792 46.8734C37.5057 46.2168 36.8702 45.7224 36.173 45.5586C35.3073 45.3531 34.3969 45.6303 33.6407 46.0496C32.8844 46.4688 32.055 47.2686 31.1159 46.9332C30.3584 46.6631 30.0971 45.8287 29.7574 45.1897C29.6931 45.0691 29.6575 45.2915 29.6707 45.3399C29.8521 45.9887 30.1975 46.695 30.747 47.1139C31.4745 47.668 32.2804 47.3464 32.9772 46.9159C33.791 46.4129 34.6189 45.9147 35.6092 45.8956C36.4616 45.879 37.3485 46.2442 37.7166 47.0444C37.7708 47.162 37.8185 46.9354 37.7924 46.8749L37.792 46.8734Z" fill="#7D330A"/>
<path d="M35.0435 48.1212C35.4756 48.6366 35.707 49.3004 35.4438 49.9533C35.3419 50.2021 35.1868 50.426 34.9893 50.6096C34.7723 50.8121 34.5239 50.9064 34.2698 51.0499C34.2001 51.0875 34.1865 51.3921 34.2895 51.3794C34.9957 51.2915 35.5392 50.4778 35.6664 49.8417C35.7997 49.1742 35.5945 48.395 35.0791 47.9318C35.0325 47.8901 35.0135 48.0855 35.0435 48.1197V48.1212Z" fill="#7D330A"/>
<path d="M24.8421 50.896C24.8168 51.2679 24.8315 51.6421 24.8421 52.0148C24.8527 52.3874 24.8421 52.7661 24.8982 53.1316C24.9164 53.253 25.0069 53.2605 25.0198 53.1316C25.0554 52.762 25.0326 52.3856 25.0239 52.0148C25.0152 51.644 25.0145 51.2664 24.9705 50.896C24.9554 50.7687 24.8527 50.7623 24.8437 50.896H24.8421Z" fill="#7D330A"/>
<path d="M17.9545 55.7831C18.253 55.8139 18.7805 55.7377 18.9498 55.4589C18.9668 55.4311 18.9975 55.2373 18.9252 55.2523C18.7737 55.2846 18.6635 55.4401 18.5192 55.5074C18.3409 55.5867 18.1496 55.6333 17.9545 55.6449C17.911 55.6482 17.911 55.7786 17.9545 55.7831Z" fill="#7D330A"/>
<path d="M18.4124 56.3399C18.7752 56.2858 19.0725 56.1686 19.3436 55.9138C19.4231 55.8387 19.3769 55.5307 19.2895 55.6246C19.0528 55.8789 18.7366 56.1043 18.4052 56.2204C18.3753 56.2309 18.3787 56.3451 18.4124 56.3399Z" fill="#7D330A"/>
<path d="M18.9809 56.6667C19.3217 56.5777 19.6455 56.3876 19.8258 56.0792C19.8446 56.0458 19.8565 56.0091 19.861 55.9711C19.8654 55.9331 19.8622 55.8946 19.8515 55.8579C19.8409 55.8252 19.7928 55.732 19.7534 55.7997C19.5641 56.1254 19.324 56.3977 18.9745 56.5597C18.9483 56.5717 18.9525 56.6724 18.9809 56.6667Z" fill="#7D330A"/>
<path d="M19.7433 56.9217C20.0936 56.8153 20.5083 56.478 20.4515 56.0738C20.4473 56.046 20.4341 55.9817 20.3924 55.9986C20.3326 56.0227 20.3167 56.0956 20.2962 56.1489C20.2616 56.245 20.2171 56.3373 20.1633 56.4243C20.0532 56.5856 19.904 56.7169 19.7293 56.806C19.6994 56.8221 19.7013 56.9344 19.7433 56.9217Z" fill="#7D330A"/>
<path d="M20.826 56.8551C21.0442 56.7556 21.1741 56.6076 21.2737 56.3961C21.304 56.3318 21.3153 56.1883 21.2585 56.1305C21.1926 56.0628 21.1566 56.1789 21.1483 56.2315C21.1195 56.4216 20.9643 56.6098 20.8075 56.7131C20.7738 56.736 20.7772 56.8773 20.8249 56.8551H20.826Z" fill="#7D330A"/>
<path d="M23.5663 59.9453C23.962 60.8939 24.3047 63.0307 22.8785 63.338C22.7362 63.3684 22.7733 63.7821 22.8785 63.7558C24.4835 63.3579 24.1037 60.9424 23.6041 59.8604C23.5769 59.8014 23.5542 59.9156 23.5663 59.9453Z" fill="#7D330A"/>
<path d="M24.0952 59.9284C24.3183 60.62 24.4247 61.3357 24.3433 62.0607C24.3119 62.3859 24.2449 62.7067 24.1437 63.0176C24.0411 63.3181 23.8157 63.5157 23.6949 63.7918C23.6718 63.8448 23.654 64.0172 23.7385 64.0293C24.0077 64.0725 24.216 63.4902 24.2842 63.2933C24.4073 62.9267 24.4804 62.5454 24.5016 62.1595C24.5512 61.3785 24.4372 60.5843 24.1342 59.86C24.1115 59.8052 24.0873 59.9044 24.0964 59.9284H24.0952Z" fill="#7D330A"/>
<path d="M26.1782 59.9192C25.6783 61.0012 25.2985 63.4167 26.9038 63.8149C27.0072 63.8405 27.0473 63.4276 26.9038 63.3968C25.4776 63.0899 25.82 60.9523 26.2157 60.0041C26.2278 59.9748 26.2055 59.8602 26.1778 59.9192H26.1782Z" fill="#7D330A"/>
<path d="M25.646 59.8562C25.343 60.5805 25.2294 61.3747 25.2787 62.1557C25.2996 62.5416 25.3727 62.9229 25.496 63.2895C25.5638 63.4837 25.774 64.0683 26.0417 64.0254C26.1262 64.0119 26.1088 63.841 26.0857 63.788C25.9743 63.534 25.7607 63.3481 25.6585 63.0787C25.5354 62.7542 25.4756 62.4003 25.4369 62.0569C25.3555 61.3319 25.4619 60.6162 25.685 59.9246C25.693 59.8998 25.6687 59.8014 25.6471 59.8562H25.646Z" fill="#7D330A"/>
<path d="M24.8215 59.8968C24.7665 60.5688 24.7696 61.2552 24.7593 61.9299C24.7484 62.6403 24.7491 63.3507 24.7461 64.0611C24.7461 64.3241 24.9434 64.3263 24.9426 64.0611C24.9426 63.3507 24.9426 62.6403 24.9347 61.9299C24.9264 61.2537 24.9305 60.5688 24.8775 59.8968C24.873 59.8389 24.8264 59.8393 24.8215 59.8968Z" fill="#7D330A"/>
<path d="M17.9915 57.8577C18.1971 58.2405 18.4869 58.5715 18.811 58.8611C19.0625 59.0865 19.5646 59.6125 19.9259 59.4036C19.9699 59.3784 19.9725 59.2327 19.9149 59.2218C19.4874 59.1395 19.164 58.9588 18.8341 58.6722C18.5209 58.4002 18.277 58.0793 18.0279 57.7521C17.993 57.7067 17.979 57.8344 17.99 57.8577H17.9915Z" fill="#7D330A"/>
<path d="M18.8658 58.1417C19.1755 58.5279 19.5679 58.8623 20.0344 59.0433C20.4283 59.1974 20.996 59.351 21.4065 59.1955C21.4618 59.1748 21.4561 58.9968 21.394 58.9866C21.1641 58.9491 20.9236 58.9866 20.6896 58.9558C20.461 58.9256 20.2371 58.8677 20.0227 58.7834C19.5902 58.6132 19.2039 58.3777 18.8953 58.0275C18.8593 57.987 18.8434 58.1124 18.8658 58.1402V58.1417Z" fill="#7D330A"/>
<path d="M19.7783 58.0378C20.1339 58.4886 20.6494 58.797 21.2083 58.9341C21.7071 59.0566 22.4622 59.0341 22.85 58.6528C22.8814 58.6216 22.8943 58.4307 22.8242 58.4379C22.5633 58.463 22.3202 58.6013 22.0577 58.6411C21.8026 58.6761 21.544 58.6771 21.2886 58.6441C20.7223 58.585 20.1972 58.3231 19.8117 57.9074C19.7674 57.8605 19.753 58.0062 19.7776 58.0378H19.7783Z" fill="#7D330A"/>
<path d="M20.6197 57.9037C21.5441 58.5612 23.0911 58.9147 24.028 58.0743C24.0602 58.0454 24.0883 57.8357 24.0148 57.853C23.4467 57.9849 22.9412 58.1953 22.3485 58.1998C21.7558 58.2043 21.1491 58.0747 20.636 57.7621C20.5955 57.7377 20.583 57.8789 20.6186 57.9041L20.6197 57.9037Z" fill="#7D330A"/>
<path d="M32.1319 57.752C31.8827 58.0792 31.6396 58.3992 31.3252 58.672C30.9958 58.9597 30.6739 59.1393 30.2448 59.2216C30.1872 59.2325 30.1899 59.3782 30.2338 59.4034C30.594 59.6115 31.1003 59.0826 31.3487 58.8609C31.6729 58.5717 31.9622 58.2403 32.1682 57.8575C32.1811 57.8331 32.166 57.7072 32.1304 57.752H32.1319Z" fill="#7D330A"/>
<path d="M31.2641 58.0303C30.9551 58.3808 30.5696 58.6156 30.1363 58.7861C29.9222 58.8706 29.6983 58.9286 29.4698 58.9586C29.2358 58.9894 28.9953 58.9518 28.7654 58.9894C28.7033 58.9995 28.6977 59.1772 28.7526 59.1983C29.1642 59.3542 29.7304 59.2005 30.125 59.0461C30.5915 58.8639 30.9839 58.5296 31.2937 58.1445C31.3156 58.1167 31.3005 57.9901 31.2641 58.0318V58.0303Z" fill="#7D330A"/>
<path d="M30.3471 57.9075C29.9614 58.323 29.4364 58.5849 28.8701 58.6442C28.6145 58.6772 28.3556 58.6762 28.1002 58.6412C27.8382 58.6014 27.5951 58.4631 27.3341 58.438C27.2637 58.4308 27.2777 58.6224 27.3084 58.6528C27.6965 59.0341 28.4509 59.0567 28.9501 58.9342C29.5105 58.7971 30.0244 58.4906 30.38 58.0379C30.4043 58.0071 30.3906 57.8602 30.3463 57.9075H30.3471Z" fill="#7D330A"/>
<path d="M29.5219 57.7622C29.0099 58.0751 28.4085 58.2051 27.8113 58.2002C27.2141 58.1953 26.7104 57.9853 26.145 57.8535C26.0693 57.8362 26.0996 58.0458 26.1317 58.0747C27.0698 58.9151 28.6168 58.5631 29.5401 57.9042C29.5753 57.8794 29.5639 57.7374 29.5227 57.7622H29.5219Z" fill="#7D330A"/>
<path d="M21.8554 57.3531C22.7389 58.0353 23.8197 58.2171 24.9127 58.2333C25.436 58.2408 25.9662 58.219 26.479 58.1097C26.9334 58.012 27.4806 57.8347 27.7726 57.4537C27.7942 57.4259 27.8147 57.2219 27.7472 57.2422C27.5477 57.3016 27.378 57.4256 27.1887 57.5101C26.9464 57.6136 26.6934 57.6906 26.4343 57.7396C25.934 57.8414 25.4216 57.8568 24.9127 57.8565C23.8822 57.8565 22.748 57.8016 21.8739 57.2009C21.8338 57.1731 21.8175 57.3241 21.8554 57.3512V57.3531Z" fill="#7D330A"/>
<path d="M33.874 47.138C34.7314 47.0764 35.5755 47.4863 36.0962 48.1636C36.7184 48.9732 36.6207 50.0262 36.6029 50.9812C36.6029 51.0424 36.6518 51.0807 36.6639 50.9996C36.8127 50.0127 36.8654 48.8875 36.3 48.0122C35.7861 47.2169 34.7943 46.8645 33.874 47.04C33.8437 47.0456 33.8445 47.1384 33.874 47.1362V47.138Z" fill="#7D330A"/>
<path d="M34.8401 46.6533C35.5755 46.7175 36.1852 47.2209 36.5764 47.8179C37.0589 48.5523 37.0309 49.372 37.0509 50.209C37.0509 50.2789 37.1233 50.4055 37.1543 50.2725C37.5243 48.6988 36.7211 46.5109 34.8401 46.5406C34.8045 46.5406 34.8022 46.6533 34.8401 46.6533Z" fill="#7D330A"/>
<path d="M35.8603 46.2972C36.4113 46.4686 36.8528 47.0088 37.11 47.5028C37.4201 48.1012 37.4413 48.7425 37.625 49.3748C37.6731 49.5412 37.7591 49.3898 37.7591 49.2925C37.7591 48.5832 37.5807 47.7774 37.2255 47.1587C36.9127 46.6132 36.4711 46.3258 35.869 46.1759C35.8375 46.168 35.8311 46.2886 35.8618 46.2972H35.8603Z" fill="#7D330A"/>
<path d="M16.1551 47.0439C15.2348 46.8684 14.243 47.2208 13.7291 48.0161C13.1633 48.8914 13.2163 50.0166 13.3648 51.0035C13.3765 51.0816 13.4269 51.0493 13.4258 50.9851C13.4084 50.0278 13.3122 48.9756 13.9325 48.1675C14.4532 47.4913 15.2958 47.0803 16.1551 47.1419C16.1842 47.1442 16.1854 47.0514 16.1551 47.0458V47.0439Z" fill="#7D330A"/>
<path d="M15.1873 46.5367C13.3066 46.507 12.503 48.6949 12.873 50.2686C12.9045 50.4016 12.9749 50.2754 12.9768 50.2051C12.9984 49.3655 12.9715 48.5522 13.4513 47.814C13.8387 47.2181 14.4545 46.7155 15.1873 46.6494C15.2251 46.646 15.2251 46.5367 15.1873 46.5367Z" fill="#7D330A"/>
<path d="M14.1596 46.1759C13.5575 46.3262 13.1167 46.6132 12.8035 47.1587C12.4479 47.7774 12.268 48.5836 12.2695 49.2925C12.2695 49.3894 12.3559 49.5416 12.404 49.3748C12.5873 48.7429 12.6085 48.1009 12.9186 47.5028C13.1746 47.0088 13.6162 46.4686 14.1684 46.2973C14.2009 46.2871 14.1918 46.168 14.1608 46.1759H14.1596Z" fill="#7D330A"/>
<path d="M14.2434 50.7915C14.371 51.4347 14.9114 51.8017 15.5496 51.8378C15.6401 51.8426 15.6317 51.5455 15.5496 51.5579C15.0038 51.6383 14.46 51.2322 14.2919 50.7273C14.265 50.6461 14.2358 50.754 14.2434 50.7915Z" fill="#7D330A"/>
<path d="M14.2783 51.6723C14.5335 52.1156 14.9698 52.4011 15.4943 52.3195C15.6079 52.3019 15.5897 51.9581 15.4943 51.9743C15.0686 52.0468 14.5687 51.9176 14.3078 51.5592C14.2753 51.5149 14.2624 51.6448 14.2783 51.6719V51.6723Z" fill="#7D330A"/>
<path d="M14.5591 52.3625C14.669 52.5501 14.8202 52.7107 15.0015 52.8321C15.137 52.9208 15.4226 53.0981 15.5635 52.9647C15.6157 52.9155 15.6346 52.7679 15.5782 52.7123C15.4514 52.5879 15.2294 52.6401 15.059 52.5838C14.8693 52.5192 14.7059 52.3953 14.5932 52.2307C14.558 52.1799 14.5387 52.3287 14.5591 52.3625Z" fill="#7D330A"/>
<path d="M14.8414 53.1371C14.8969 53.2869 14.9811 53.4245 15.0894 53.5425C15.1415 53.594 15.1974 53.6417 15.2565 53.6852C15.3242 53.7367 15.3644 53.7893 15.4492 53.7412C15.5193 53.7018 15.5041 53.5402 15.464 53.4854C15.3882 53.3824 15.2546 53.3918 15.1459 53.3227C15.0344 53.2591 14.9415 53.1677 14.8766 53.0575C14.8475 53.0023 14.83 53.1104 14.8414 53.1371Z" fill="#7D330A"/>
<path d="M17.4093 47.1357C17.682 46.677 17.9281 46.2059 18.2091 45.7517C18.4613 45.3441 18.784 44.8689 18.8938 44.4019C18.9006 44.3726 18.8984 44.1389 18.8234 44.1949C18.6643 44.3132 18.5961 44.5199 18.5064 44.6915C18.3716 44.9545 18.2371 45.2141 18.1171 45.4805C17.8819 46.0064 17.6168 46.5124 17.3745 47.0327C17.3627 47.0575 17.3835 47.1774 17.4093 47.1342V47.1357Z" fill="#7D330A"/>
<path d="M18.0914 47.1628C18.7909 46.2961 19.3082 45.2394 19.7304 44.2164C19.7683 44.127 19.7895 43.9647 19.7304 43.8783C19.6827 43.81 19.624 43.7773 19.5812 43.8783C19.3574 44.4043 19.1624 44.9452 18.9352 45.4712C18.7008 46.0133 18.3883 46.5306 18.0539 47.0174C18.0297 47.0524 18.0471 47.2165 18.0918 47.1617L18.0914 47.1628Z" fill="#7D330A"/>
<path d="M20.5011 43.8064C20.1712 44.6201 19.824 45.4387 19.5267 46.264C19.5149 46.2963 19.5354 46.5014 19.5824 46.4267C20.0451 45.6896 20.3625 44.7974 20.5901 43.9619C20.6049 43.9085 20.5522 43.6794 20.5011 43.8064Z" fill="#7D330A"/>
<path d="M17.0056 44.8604C16.9238 45.1075 16.8189 45.3464 16.6924 45.5742C16.572 45.7849 16.3936 45.9499 16.2758 46.1569C16.2607 46.1839 16.2614 46.3751 16.3213 46.3331C16.5159 46.1967 16.6348 45.9198 16.7477 45.7136C16.8809 45.4704 16.984 45.2122 17.0548 44.9446C17.0628 44.9141 17.0298 44.7909 17.006 44.8597L17.0056 44.8604Z" fill="#7D330A"/>
<path d="M16.485 44.9222C16.3237 45.296 16.0874 45.5526 15.7708 45.799C15.6845 45.8667 15.7473 46.1638 15.8087 46.1094C16.134 45.8223 16.3794 45.4166 16.5244 45.012C16.5354 44.9823 16.5123 44.858 16.4847 44.9222H16.485Z" fill="#7D330A"/>
<path d="M15.9053 44.8193C15.8431 45.0193 15.7305 45.2002 15.578 45.3448C15.4256 45.4895 15.2384 45.5931 15.0343 45.6458C14.8911 45.6864 14.9559 46.0632 15.0563 46.0102C15.2736 45.892 15.4651 45.732 15.6196 45.5397C15.774 45.3474 15.8884 45.1265 15.9561 44.89C15.9682 44.8471 15.9318 44.7363 15.9042 44.8212L15.9053 44.8193Z" fill="#7D330A"/>
<path d="M32.4335 47.0346C32.1911 46.5143 31.926 46.0068 31.6908 45.4823C31.5772 45.2318 31.4541 44.9872 31.328 44.743C31.2322 44.5586 31.1561 44.323 30.9845 44.1953C30.9088 44.1374 30.9088 44.3764 30.9141 44.4023C31.0239 44.8696 31.3466 45.3448 31.5984 45.7521C31.8798 46.2063 32.1259 46.6773 32.3986 47.136C32.4247 47.18 32.4444 47.0583 32.4335 47.0346Z" fill="#7D330A"/>
<path d="M31.7556 47.0195C31.4212 46.5311 31.1087 46.0153 30.8743 45.4732C30.6471 44.9473 30.4521 44.4078 30.2282 43.8804C30.1858 43.7808 30.1275 43.815 30.079 43.8804C30.0196 43.9604 30.0438 44.1324 30.079 44.2185C30.5013 45.2414 31.0182 46.2982 31.7181 47.1649C31.762 47.219 31.7802 47.0567 31.7559 47.0206L31.7556 47.0195Z" fill="#7D330A"/>
<path d="M32.7547 44.9496C32.8256 45.2172 32.9287 45.4754 33.0619 45.7186C33.1755 45.924 33.2936 46.2017 33.4883 46.338C33.5485 46.3805 33.5485 46.1878 33.5337 46.1618C33.4156 45.953 33.2372 45.7903 33.1172 45.5792C32.9905 45.3514 32.8856 45.1125 32.8036 44.8654C32.7797 44.7967 32.7472 44.921 32.7551 44.9503L32.7547 44.9496Z" fill="#7D330A"/>
<path d="M33.2839 45.0119C33.4293 45.4165 33.6747 45.8222 34 46.1092C34.0606 46.163 34.1257 45.8673 34.0379 45.7989C33.7217 45.5525 33.485 45.2952 33.324 44.9221C33.2964 44.8583 33.2733 44.9819 33.2839 45.0119Z" fill="#7D330A"/>
<path d="M33.853 44.8879C33.9208 45.1245 34.0353 45.3453 34.1898 45.5377C34.3443 45.73 34.5358 45.8899 34.7532 46.0082C34.8554 46.0619 34.9153 45.6836 34.7752 45.6438C34.5709 45.5912 34.3837 45.4876 34.2313 45.343C34.0788 45.1983 33.9662 45.0173 33.9041 44.8173C33.8765 44.7324 33.8401 44.8432 33.8519 44.8861L33.853 44.8879Z" fill="#7D330A"/>
<path d="M44.3352 30.8958C44.3352 30.8958 46.9066 34.4879 48.0844 37.7533C49.2621 41.0186 49.1557 46.4606 49.1557 46.4606C49.1557 46.4606 44.2273 42.4334 43.1559 41.126C43.1559 41.126 42.62 37.0985 43.4774 35.7915C44.3348 34.4845 42.2891 31.1103 42.2891 31.1103L44.3352 30.8958Z" fill="#7D330A"/>
<path d="M49.3539 46.886L49.0267 46.6185C48.8249 46.4536 44.0699 42.5635 42.9978 41.2565L42.9599 41.2115L42.9523 41.1544C42.93 40.9872 42.4169 37.037 43.3053 35.6835C43.9491 34.6996 42.6615 32.1262 42.1128 31.2179L41.9473 30.9444L44.4319 30.6814L44.5016 30.7787C44.5274 30.8163 47.1029 34.431 48.2773 37.685C49.4551 40.9481 49.3653 46.2417 49.3608 46.4652L49.3539 46.886ZM43.3534 41.0439C44.3001 42.1597 47.8444 45.1136 48.954 46.0298C48.9495 44.6868 48.8548 40.4883 47.8937 37.8222C46.8447 34.9163 44.6531 31.7066 44.238 31.1115L42.6259 31.2821C43.1031 32.1352 44.4278 34.7232 43.6518 35.9055C42.8982 37.052 43.2932 40.5518 43.3534 41.0439Z" fill="white"/>
<path d="M5.65894 30.8958C5.65894 30.8958 3.08755 34.4879 1.90978 37.7533C0.732014 41.0186 0.83843 46.4606 0.83843 46.4606C0.83843 46.4606 5.76687 42.4334 6.83822 41.126C6.83822 41.126 7.37409 37.0985 6.51709 35.7915C5.66008 34.4845 7.3597 31.6215 7.3597 31.6215L5.65894 30.8958Z" fill="#7D330A"/>
<path d="M0.638394 46.8851L0.630063 46.4643C0.625897 46.2389 0.535766 40.9472 1.71353 37.6841C2.88751 34.4301 5.46269 30.8139 5.4892 30.7778L5.58539 30.6433L7.65122 31.5276L7.53344 31.7264C7.079 32.4931 6.04022 34.6987 6.6859 35.6826C7.57396 37.035 7.06082 40.9863 7.03848 41.1535L7.03128 41.2106L6.99341 41.2556C5.9213 42.5626 1.16668 46.4527 0.964836 46.6176L0.638394 46.8851ZM5.7293 31.1482C5.25554 31.8304 3.12799 34.9729 2.09981 37.8213C1.13715 40.4885 1.04285 44.6863 1.03944 46.0289C2.14904 45.1127 5.69446 42.1595 6.6397 41.043C6.69992 40.5509 7.09415 37.0511 6.3428 35.9046C5.55472 34.7024 6.68856 32.415 7.06726 31.7207L5.7293 31.1482Z" fill="white"/>
<path d="M37.914 17.3404C34.9484 12.717 31.1443 11.0028 25.0536 10.5535V10.5381L24.9484 10.546L24.8427 10.5381V10.5535C18.752 11.0043 14.9483 12.717 11.9823 17.3404C10.2301 20.0719 8.08547 27.3558 8.98262 29.6695C9.97898 32.2391 23.02 32.6031 24.8427 32.6415V32.6452L24.9484 32.6433L25.0536 32.6452V32.6415C26.8767 32.6039 39.9177 32.2391 40.9141 29.6695C41.8109 27.3558 39.6663 20.0719 37.914 17.3404Z" fill="#F2DA00"/>
<path d="M24.6362 32.8522V32.8402C23.3906 32.8105 19.9554 32.6967 16.5778 32.3068C11.7921 31.7545 9.24455 30.9168 8.78973 29.7424C7.85433 27.3295 10.0501 19.9727 11.808 17.2303C13.3092 14.8902 15.0054 13.2918 17.1477 12.2001C19.1151 11.1963 21.499 10.6113 24.6381 10.3642V10.3198L24.949 10.3409L25.2595 10.3198V10.3642C28.399 10.6113 30.7825 11.1963 32.7503 12.2001C34.8903 13.2918 36.5865 14.8902 38.0877 17.2303C39.8457 19.9727 42.0418 27.3287 41.106 29.7402C40.6515 30.9134 38.1036 31.7523 33.3183 32.3045C29.9403 32.6944 26.5051 32.8083 25.2595 32.838V32.8458H25.0512H24.949L24.6362 32.8522ZM24.946 10.75L24.8566 10.7564C18.505 11.2248 14.9437 13.1017 12.1545 17.4497C10.478 20.0629 8.29173 27.325 9.17259 29.5963C9.39186 30.1617 10.6514 31.2117 16.6251 31.9025C20.1887 32.3158 23.8182 32.4161 24.8456 32.4379L24.9441 32.4401H24.9497L25.0482 32.4379C26.0756 32.4161 29.7063 32.3139 33.2687 31.9025C39.2424 31.2128 40.5019 30.1617 40.7212 29.5963C41.6021 27.325 39.4162 20.0629 37.7397 17.4497C34.9505 13.1017 31.3907 11.2248 25.0372 10.7564L24.9479 10.75H24.946Z" fill="white"/>
<path d="M24.9475 10.5457C24.9475 10.5457 24.7862 11.4206 24.5983 12.7073C24.4105 13.9939 24.1958 15.6927 24.0886 17.34C23.9814 18.9874 23.928 22.8403 23.9012 26.281C23.8743 29.7218 23.8743 32.7508 23.8743 32.7508L23.2305 32.6445C23.2305 32.6445 23.2581 27.8389 23.4861 22.6738C23.5997 20.0915 23.7648 17.4189 24.0007 15.2119C24.1189 14.1085 24.2549 13.122 24.4116 12.3192C24.5684 11.5164 24.7468 10.9052 24.9475 10.5457Z" fill="white"/>
<path d="M24.9458 10.5532C24.9458 10.5532 24.6534 11.3493 24.2766 12.5262C24.1679 12.8666 24.052 13.24 23.932 13.633C23.634 14.6124 23.3568 15.7367 23.0818 16.8262C22.9288 17.444 22.8118 18.07 22.7315 18.7012C22.4918 20.5574 22.2206 23.3016 22.0559 25.7705C22.0059 26.5147 21.9627 27.2315 21.94 27.886C21.8643 30.338 21.8541 32.3298 21.8525 32.4372C21.8525 32.4579 21.698 32.4436 21.698 32.4436L21.2247 32.3474C21.2247 32.3474 21.2182 30.3605 21.3621 27.7947C21.4576 26.1556 21.6272 24.13 21.8775 22.0668C22.0036 21.0318 22.1547 19.9882 22.3157 18.9743C22.5547 17.4648 22.9239 16.0377 23.2958 14.7837C23.4158 14.3779 23.5283 13.988 23.6446 13.6213C23.8176 13.0762 23.9774 12.5755 24.1562 12.1464C24.3867 11.6 24.6504 11.068 24.9458 10.5532Z" fill="white"/>
<path d="M24.9455 10.5532C24.9455 10.5532 24.5213 11.2704 23.9567 12.3377C23.7927 12.6476 23.6158 12.9879 23.4333 13.3467C22.972 14.2483 22.5297 15.3002 22.0768 16.3074C21.8143 16.886 21.6069 17.4877 21.4572 18.1046C21.0278 19.9007 20.5188 22.7494 20.2121 25.2544C20.117 26.0309 20.0341 26.7691 19.9943 27.4239C19.8485 29.8237 19.8356 31.9034 19.8322 32.1198C19.8322 32.1607 19.7035 32.1622 19.7035 32.1622L19.2195 32.0469C19.2195 32.0469 19.1956 29.8759 19.4228 27.33C19.5743 25.6864 19.8515 23.5815 20.2689 21.4545C20.4752 20.4026 20.7233 19.3507 20.9854 18.3323C21.3641 16.8698 21.9821 15.5256 22.5907 14.3501C22.78 13.9824 22.9576 13.6247 23.1375 13.2919C23.4026 12.8005 23.6435 12.3437 23.9006 11.9672C24.3732 11.276 24.8023 10.8102 24.9455 10.5532Z" fill="white"/>
<path d="M24.9464 10.5532C24.9464 10.5532 24.3886 11.1919 23.6377 12.1491C23.418 12.4289 23.1832 12.7366 22.9355 13.0612C22.3092 13.8877 21.6858 14.8644 21.0731 15.7871C20.7489 16.2754 20.4221 16.8476 20.1843 17.5069C19.5583 19.2436 18.8141 22.1957 18.3691 24.7374C18.2279 25.5455 18.1078 26.3055 18.0495 26.9603C17.8397 29.3086 17.8181 31.4759 17.8132 31.7982C17.8132 31.8598 17.7094 31.8767 17.7094 31.8767L17.2171 31.7418C17.2171 31.7418 17.1717 29.389 17.4871 26.8641C17.7461 24.833 18.1386 22.8209 18.6622 20.8406C18.947 19.7733 19.289 18.7083 19.6567 17.6891C20.168 16.2736 21.0329 15.0117 21.8873 13.9155C22.1452 13.5849 22.3883 13.2607 22.6326 12.9613C22.9897 12.5236 23.3169 12.1123 23.6471 11.7862C24.2913 11.1505 24.8317 10.7587 24.9464 10.5532Z" fill="white"/>
<path d="M24.9478 10.5493C24.9478 10.5493 24.2555 11.1079 23.3193 11.9562C23.0436 12.2057 22.7471 12.4821 22.4385 12.7714C21.6432 13.5175 20.8275 14.4154 20.0697 15.2629C19.6334 15.7512 19.2153 16.2915 18.9116 16.9053C18.0819 18.5804 17.1067 21.6388 16.5258 24.2162C16.3364 25.0559 16.1815 25.8373 16.1039 26.4928C15.832 28.7889 15.8009 31.0441 15.7934 31.4738C15.7918 31.4979 15.7838 31.521 15.77 31.5409C15.7563 31.5607 15.7374 31.5765 15.7154 31.5865L15.2105 31.4321C15.2105 31.4321 15.1484 28.8967 15.5468 26.3921C15.8119 24.7392 16.2993 22.4746 17.0544 20.221C17.4184 19.1378 17.8433 18.0757 18.3273 17.0398C18.9673 15.6693 20.0757 14.4852 21.1831 13.4747C21.5057 13.1798 21.8174 12.8897 22.126 12.6249C22.5748 12.2398 22.9929 11.8784 23.3928 11.5993C24.2165 11.0287 24.8618 10.7033 24.9478 10.5493Z" fill="white"/>
<path d="M24.9485 10.5493C24.9485 10.5493 24.1214 11.0275 23.0001 11.7676C22.6683 11.9863 22.3112 12.2286 21.9397 12.4855C20.9782 13.152 19.9648 13.9612 19.0654 14.7426C18.5132 15.2223 18.005 15.7377 17.638 16.3076C16.5981 17.9177 15.3961 21.0824 14.6841 23.6989C14.4471 24.5701 14.2574 25.3737 14.1604 26.0281C13.8279 28.272 13.7817 30.6151 13.7753 31.1519C13.7775 31.2068 13.7587 31.2605 13.7226 31.3022L13.2072 31.1293C13.2072 31.1293 13.1337 28.4121 13.6101 25.9271C13.9343 24.27 14.5217 21.9254 15.4491 19.609C15.8903 18.5041 16.4091 17.4313 17.0018 16.3985C17.7668 15.0709 19.1191 13.9612 20.4829 13.0415C20.8699 12.7804 21.2505 12.5265 21.6239 12.2962C22.1635 11.9633 22.6733 11.6557 23.1425 11.4205C24.1426 10.9182 24.891 10.6523 24.9485 10.5493Z" fill="white"/>
<path d="M24.9479 10.5457C24.9479 10.5457 23.9838 10.9401 22.6795 11.575C22.2913 11.7628 21.874 11.9717 21.4411 12.196C20.3126 12.7805 19.1004 13.4939 18.0597 14.2186C17.3905 14.6844 16.7933 15.1784 16.3631 15.7059C15.1085 17.2461 13.6819 20.5227 12.8412 23.178C12.5549 24.0796 12.3322 24.9061 12.2152 25.5624C11.8232 27.7552 11.7657 30.185 11.7558 30.8293C11.7572 30.893 11.748 30.9564 11.7285 31.0171L11.2029 30.824C11.2029 30.824 11.1109 27.9231 11.6706 25.4572C12.052 23.7941 12.7355 21.3657 13.8391 18.99C14.3551 17.8603 14.9673 16.7763 15.6689 15.7498C16.5562 14.4628 18.1551 13.4229 19.7752 12.6013C20.2263 12.3725 20.6758 12.1558 21.1143 11.9601C21.7445 11.6794 22.3455 11.4285 22.8844 11.2343C24.0671 10.8094 24.9191 10.5967 24.9479 10.5457Z" fill="white"/>
<path d="M24.9476 10.5457C23.4794 10.8177 22.0298 11.1807 20.6073 11.6325C18.2768 12.3748 15.6247 13.5153 14.3386 15.1097C11.7676 18.298 10.3747 22.548 9.7317 24.994C9.08866 27.44 9.19621 30.5209 9.19621 30.5209L9.7317 30.7335C9.7317 30.7335 9.7317 27.653 10.2676 25.1003C10.8034 22.5476 13.1059 17.0767 15.0888 15.1097C16.3211 13.8873 18.7857 12.7467 20.9421 11.9116C23.0984 11.0765 24.9476 10.5457 24.9476 10.5457Z" fill="white"/>
<path d="M25.0469 10.5457C25.0469 10.5457 25.2078 11.4206 25.3957 12.7073C25.5835 13.9939 25.7982 15.6927 25.9054 17.34C26.0126 18.9874 26.0663 22.8403 26.0929 26.281C26.1194 29.7218 26.1197 32.7508 26.1197 32.7508L26.7635 32.6445C26.7635 32.6445 26.7336 27.8393 26.5064 22.6742C26.3928 20.0918 26.2281 17.4193 25.9917 15.2122C25.874 14.1089 25.7376 13.1224 25.5812 12.3196C25.4248 11.5168 25.2476 10.9052 25.0469 10.5457Z" fill="white"/>
<path d="M25.0469 10.5532C25.0469 10.5532 25.3389 11.3493 25.7157 12.5262C25.8247 12.8666 25.9406 13.24 26.0603 13.633C26.3587 14.6124 26.6355 15.7367 26.9105 16.8262C27.0637 17.4439 27.1807 18.07 27.2608 18.7012C27.5005 20.5574 27.7716 23.3016 27.9368 25.7705C27.9864 26.5147 28.0295 27.2315 28.0504 27.886C28.1261 30.338 28.1363 32.3298 28.1378 32.4372C28.1378 32.4579 28.2924 32.4436 28.2924 32.4436L28.7661 32.3474C28.7661 32.3474 28.7722 30.3605 28.6287 27.7947C28.5332 26.1556 28.3636 24.13 28.1129 22.0668C27.9868 21.0318 27.8356 19.9882 27.6751 18.9743C27.4357 17.4648 27.0669 16.0377 26.695 14.7837C26.5746 14.3779 26.4625 13.988 26.3462 13.6213C26.1728 13.0762 26.0129 12.5755 25.8346 12.1464C25.6047 11.6001 25.3416 11.068 25.0469 10.5532Z" fill="white"/>
<path d="M25.0469 10.5532C25.0469 10.5532 25.471 11.2704 26.0357 12.3377C26.2 12.6476 26.3765 12.9879 26.559 13.3467C27.0203 14.2483 27.463 15.3002 27.9156 16.3074C28.1782 16.886 28.3856 17.4877 28.5351 18.1046C28.9649 19.9007 29.4739 22.7494 29.7807 25.2544C29.8757 26.0309 29.9583 26.7691 29.9984 27.4239C30.1438 29.8237 30.1567 31.9034 30.1601 32.1198C30.1601 32.1607 30.2893 32.1622 30.2893 32.1622L30.7729 32.0469C30.7729 32.0469 30.7963 29.8774 30.5691 27.3315C30.4176 25.6879 30.1404 23.583 29.7231 21.456C29.5171 20.4041 29.2687 19.3522 29.007 18.3338C28.6283 16.8713 28.0102 15.5271 27.4017 14.3516C27.2123 13.9839 27.0343 13.6262 26.8544 13.2934C26.5893 12.802 26.3485 12.3452 26.0913 11.9688C25.6195 11.276 25.1904 10.8102 25.0469 10.5532Z" fill="white"/>
<path d="M25.0469 10.5532C25.0469 10.5532 25.6047 11.1919 26.3557 12.1491C26.5753 12.4289 26.8101 12.7366 27.0578 13.0612C27.6842 13.8877 28.3075 14.8644 28.9206 15.7871C29.2448 16.2754 29.5716 16.8476 29.8091 17.5069C30.4354 19.2436 31.1796 22.1957 31.6242 24.7374C31.7658 25.5455 31.8855 26.3055 31.9438 26.9603C32.1536 29.3086 32.1752 31.4759 32.1805 31.7982C32.1805 31.8598 32.2839 31.8767 32.2839 31.8767L32.7762 31.7418C32.7762 31.7418 32.822 29.389 32.5062 26.8641C32.2466 24.833 31.8535 22.8209 31.3296 20.8406C31.0444 19.7733 30.7028 18.7083 30.3347 17.6891C29.8235 16.2736 28.9589 15.0117 28.1041 13.9155C27.8466 13.5849 27.6035 13.2607 27.3592 12.9613C27.0017 12.5236 26.6745 12.1123 26.3443 11.7862C25.702 11.1505 25.1616 10.7587 25.0469 10.5532Z" fill="white"/>
<path d="M25.0469 10.5493C25.0469 10.5493 25.7391 11.1079 26.6753 11.9562C26.951 12.2057 27.2475 12.4821 27.5562 12.7714C28.3514 13.5175 29.1672 14.4154 29.9253 15.2629C30.3612 15.7512 30.7793 16.2915 31.0834 16.9053C31.9128 18.5804 32.8879 21.6388 33.4692 24.2162C33.6586 25.0559 33.8135 25.8373 33.8911 26.4928C34.163 28.7889 34.1941 31.0441 34.2016 31.4738C34.2033 31.4979 34.2115 31.521 34.2252 31.5409C34.239 31.5607 34.258 31.5765 34.28 31.5865L34.7845 31.4321C34.7845 31.4321 34.847 28.8967 34.4482 26.3921C34.1831 24.7392 33.6957 22.4746 32.9409 20.221C32.5767 19.1379 32.1516 18.0758 31.6677 17.0398C31.0277 15.6693 29.9196 14.4852 28.8119 13.4747C28.4893 13.1798 28.1776 12.8897 27.869 12.6249C27.4202 12.2398 27.0025 11.8784 26.6022 11.5993C25.7785 11.0287 25.1328 10.7033 25.0469 10.5493Z" fill="white"/>
<path d="M25.0469 10.5493C25.0469 10.5493 25.8743 11.0275 26.9949 11.7676C27.3267 11.9863 27.6838 12.2286 28.0553 12.4855C29.0161 13.152 30.0306 13.9608 30.9304 14.7426C31.4822 15.2223 31.9908 15.7377 32.3574 16.3076C33.3973 17.9177 34.5997 21.0824 35.3112 23.6989C35.5483 24.5701 35.738 25.3737 35.8354 26.0281C36.1679 28.272 36.2118 30.6151 36.2201 31.1519C36.2179 31.2068 36.2369 31.2606 36.2732 31.3022L36.7882 31.1286C36.7882 31.1286 36.8617 28.4114 36.3852 25.9263C36.0611 24.2681 35.4737 21.9235 34.5474 19.6071C34.1063 18.5022 33.5874 17.4294 32.9947 16.3966C32.2297 15.069 30.8774 13.9593 29.5137 13.0396C29.1266 12.7786 28.746 12.5246 28.3726 12.2943C27.8334 11.9615 27.3233 11.6538 26.8544 11.4186C25.8524 10.9182 25.1048 10.6523 25.0469 10.5493Z" fill="white"/>
<path d="M25.0469 10.5457C25.0469 10.5457 26.0107 10.9401 27.3149 11.575C27.7031 11.7628 28.1208 11.9717 28.5533 12.196C29.6822 12.7805 30.894 13.4939 31.9347 14.2186C32.6039 14.6844 33.2015 15.1784 33.6313 15.7059C34.8863 17.2461 36.3125 20.5227 37.1533 23.178C37.4396 24.0796 37.6622 24.9061 37.7796 25.5624C38.1716 27.7552 38.2288 30.185 38.2386 30.8293C38.2372 30.893 38.2465 30.9565 38.2663 31.0171L38.7915 30.824C38.7915 30.824 38.882 27.9242 38.3223 25.4598C37.941 23.7967 37.2574 21.3684 36.1539 18.9926C35.6378 17.863 35.0258 16.7791 34.3243 15.7525C33.437 14.4654 31.8382 13.4256 30.2181 12.604C29.7667 12.3752 29.3171 12.1584 28.8786 11.9627C28.2484 11.6821 27.6474 11.4311 27.1089 11.2369C25.9277 10.8094 25.0753 10.5967 25.0469 10.5457Z" fill="white"/>
<path d="M25.0469 10.5457C26.515 10.8178 27.9644 11.1807 29.3868 11.6325C31.7177 12.3748 34.3698 13.5153 35.6555 15.1097C38.2269 18.298 39.6197 22.548 40.2624 24.994C40.9051 27.44 40.7983 30.5209 40.7983 30.5209L40.2624 30.7335C40.2624 30.7335 40.2624 27.653 39.7269 25.1003C39.1914 22.5476 36.8867 17.0767 34.9053 15.1097C33.6734 13.8873 31.2088 12.7467 29.052 11.9116C26.8953 11.0765 25.0469 10.5457 25.0469 10.5457Z" fill="white"/>
<path d="M7.72146 22.5682C6.50695 21.1929 4.51801 21.022 2.65403 22.1325C1.68152 22.7117 0.893816 23.56 0.435585 24.5225C-0.080587 25.6067 -0.139285 26.7389 0.266306 27.8021C1.80536 31.8319 5.58254 33.2264 5.74235 33.2835L5.95746 33.3609L6.07485 33.1659C6.08962 33.1411 7.58474 30.6733 9.06661 29.4603L9.12266 29.4137L9.14879 29.3457C9.20559 29.1985 10.4936 25.7077 7.72146 22.5682Z" fill="white"/>
<path d="M5.46879 31.7751C4.4035 31.2086 2.40887 29.8622 1.45454 27.3591C1.17013 26.6142 1.21369 25.8414 1.58481 25.0626C1.93701 24.3229 2.54937 23.6663 3.30943 23.2132C3.815 22.9127 4.34405 22.7271 4.83863 22.6783C5.38207 22.6245 6.15841 22.706 6.77002 23.3999C8.70405 25.5893 8.2409 27.9639 8.03564 28.6867C6.99838 29.6068 6.02587 30.9453 5.46879 31.7751Z" fill="#7D330A"/>
<path d="M5.53493 32.039L5.37058 31.9533C4.25378 31.3597 2.23416 29.9825 1.25937 27.4302C0.954519 26.6315 1.00034 25.8054 1.39609 24.9745C1.76532 24.1991 2.40609 23.5112 3.20061 23.0379C3.73079 22.7212 4.29051 22.5266 4.8154 22.4744C4.91153 22.4647 5.0081 22.4598 5.10473 22.4597C5.82881 22.4597 6.45708 22.7381 6.9225 23.264C8.93266 25.5406 8.43239 28.0313 8.2313 28.7406L8.21426 28.7977L8.16995 28.8352C7.12624 29.7616 6.13556 31.1434 5.63794 31.8846L5.53493 32.039ZM5.10473 22.8654C5.02293 22.8654 4.93923 22.8696 4.85592 22.8778C4.39125 22.9237 3.89174 23.0991 3.41192 23.385C2.68633 23.8174 2.10199 24.4429 1.76722 25.1469C1.4207 25.8738 1.37904 26.5929 1.64338 27.2841C2.52538 29.5937 4.31362 30.8947 5.40163 31.5025C6.01286 30.6062 6.90092 29.4269 7.85146 28.5723C8.04611 27.8457 8.43769 25.5962 6.61348 23.5308C6.22341 23.0893 5.71482 22.8654 5.10473 22.8654Z" fill="white"/>
<path d="M7.72146 22.5682C6.50695 21.1929 4.51801 21.022 2.65403 22.1325C1.68152 22.7117 0.893816 23.56 0.435585 24.5225C-0.080587 25.6067 -0.139285 26.7389 0.266306 27.8021C1.80536 31.8319 5.58254 33.2264 5.74235 33.2835L5.95746 33.3609L6.07485 33.1659C6.08962 33.1411 7.58474 30.6733 9.06661 29.4603L9.12266 29.4137L9.14879 29.3457C9.20559 29.1985 10.4936 25.7077 7.72146 22.5682ZM8.65344 29.0861C7.35866 30.1726 6.11613 32.0584 5.72417 32.6813C4.92549 32.3316 2.03182 30.8713 0.78475 27.6071C0.0250713 25.6179 1.29373 23.5844 2.93957 22.6039C3.46976 22.2891 4.11355 22.0442 4.7812 21.9784C5.66926 21.8909 6.58989 22.1219 7.3045 22.9308C8.37131 24.1389 8.92005 25.5492 8.93293 27.1225C8.94277 27.7875 8.84822 28.45 8.65269 29.0861H8.65344Z" fill="#7D330A"/>
<path d="M42.2594 22.5682C43.4739 21.1929 45.4629 21.022 47.3269 22.1325C48.2994 22.7117 49.0871 23.56 49.5453 24.5225C50.0615 25.6067 50.1202 26.7389 49.7146 27.8021C48.1755 31.8319 44.3987 33.2264 44.2386 33.2835L44.0234 33.3609L43.906 33.1659C43.8913 33.1411 42.3962 30.6733 40.9143 29.4603L40.8575 29.4137L40.8317 29.3457C40.7753 29.1985 39.4877 25.7077 42.2594 22.5682Z" fill="white"/>
<path d="M44.5153 31.7751C45.5806 31.2086 47.5752 29.8622 48.5296 27.3591C48.814 26.6142 48.7704 25.8414 48.3993 25.0626C48.0471 24.3229 47.4347 23.6663 46.6747 23.2132C46.1687 22.9127 45.6401 22.7271 45.1455 22.6783C44.602 22.6245 43.8257 22.706 43.2141 23.3999C41.2801 25.5893 41.7432 27.9639 41.9481 28.6867C42.9857 29.6068 43.9582 30.9453 44.5153 31.7751Z" fill="#7D330A"/>
<path d="M44.4461 32.0386L44.3427 31.8846C43.8451 31.1434 42.8544 29.7616 41.8107 28.8352L41.7664 28.7977L41.7501 28.7406C41.549 28.0313 41.0487 25.5406 43.0589 23.264C43.5236 22.7381 44.1522 22.4597 44.8767 22.4597C44.9734 22.4598 45.0701 22.4647 45.1664 22.4744C45.6909 22.5262 46.2491 22.7208 46.7808 23.0379C47.5761 23.5112 48.2161 24.1991 48.5853 24.9745C48.9811 25.8054 49.0269 26.6315 48.722 27.4302C47.7472 29.9825 45.7276 31.3598 44.6108 31.9533L44.4461 32.0386ZM42.1296 28.5719C43.0801 29.4277 43.9682 30.6069 44.5794 31.5021C45.6693 30.8928 47.4575 29.5915 48.3376 27.2822C48.6027 26.591 48.5603 25.8719 48.2138 25.145C47.879 24.441 47.2947 23.8155 46.5691 23.3831C46.0893 23.0972 45.5898 22.9218 45.1251 22.876C45.0418 22.8677 44.9581 22.8636 44.8763 22.8636C44.2654 22.8636 43.7576 23.089 43.3675 23.5293C41.5433 25.5962 41.9349 27.8457 42.1296 28.5719Z" fill="white"/>
<path d="M40.8317 29.3456L40.8575 29.4136L40.9143 29.4602C42.3969 30.6732 43.892 33.1418 43.906 33.1658L44.0234 33.3608L44.2386 33.2834C44.3987 33.2263 48.1771 31.8318 49.7146 27.802C50.1202 26.7403 50.0615 25.6065 49.5453 24.5224C49.0871 23.5603 48.2994 22.7116 47.3269 22.1323C45.4629 21.0218 43.4739 21.1932 42.2594 22.5681C39.4877 25.7076 40.7753 29.1983 40.8317 29.3456ZM41.0468 27.1224C41.0616 25.5491 41.6104 24.1388 42.6775 22.9306C43.3918 22.1218 44.3124 21.8908 45.2005 21.9783C45.8666 22.044 46.5138 22.289 47.0421 22.6038C48.6879 23.5843 49.9581 25.6178 49.1969 27.607C47.9498 30.8712 45.0562 32.3314 44.2575 32.6812C43.8648 32.0583 42.623 30.1725 41.3278 29.086C41.1324 28.4498 41.0378 27.7874 41.0476 27.1224H41.0468Z" fill="#7D330A"/>
<path d="M4.86732 41.6458C5.51831 40.6751 6.07917 39.9008 5.91785 38.6258C5.84476 38.0442 5.7747 37.3827 4.95367 37.1111C4.23034 36.8722 3.58769 37.43 3.26617 37.9083C2.66024 38.8099 2.52391 39.2982 2.46256 40.379C2.44817 40.6364 2.52315 41.2487 2.71326 41.4245C3.01622 41.704 3.51535 41.5053 3.81339 41.2224C4.2699 40.7846 4.54435 40.193 4.58254 39.5642C4.59693 39.3084 4.5068 38.9793 4.24852 38.9556C4.26201 39.52 4.05006 40.0667 3.65888 40.4767C3.57254 40.5661 3.42143 40.6484 3.33585 40.5579C3.30809 40.5222 3.29102 40.4795 3.28662 40.4346C3.14195 39.6638 3.27488 38.755 3.91678 38.2978C4.03039 38.2163 4.17278 38.1502 4.30949 38.1851C4.40379 38.208 4.48067 38.2753 4.54656 38.3463C4.96314 38.7941 5.07675 39.4568 4.9779 40.0575C4.7806 41.2405 2.78408 43.4096 1.98047 44.4457C2.51406 44.0535 4.49316 42.2041 4.86732 41.6458Z" fill="white"/>
<path d="M45.1664 41.6458C44.5158 40.6751 43.9545 39.9008 44.1159 38.6258C44.1893 38.0442 44.259 37.3827 45.08 37.1111C45.8034 36.8722 46.446 37.43 46.7675 37.9083C47.3735 38.8099 47.5098 39.2982 47.5711 40.379C47.5855 40.6364 47.5106 41.2487 47.3208 41.4245C47.0179 41.704 46.5184 41.5053 46.2226 41.2224C45.7657 40.7848 45.4911 40.1931 45.4531 39.5642C45.4387 39.3084 45.5288 38.9793 45.7875 38.9556C45.7736 39.52 45.9855 40.0668 46.3767 40.4767C46.4631 40.5661 46.6142 40.6484 46.6997 40.5579C46.7277 40.5223 46.7447 40.4795 46.749 40.4346C46.8936 39.6638 46.7611 38.755 46.1188 38.2978C46.0052 38.2163 45.8628 38.1502 45.7261 38.1851C45.6318 38.208 45.5549 38.2753 45.489 38.3463C45.0725 38.7941 44.9589 39.4568 45.0577 40.0575C45.255 41.2405 47.2515 43.4096 48.0551 44.4457C47.5196 44.0535 45.5405 42.2041 45.1664 41.6458Z" fill="white"/>
<path d="M4.95517 52.9752C4.95517 52.9752 4.7946 51.0623 7.60609 49.3883C7.60609 49.3883 5.19565 48.0337 3.99023 46.28C3.99023 46.28 5.27593 48.7508 6.56163 49.3087C6.56163 49.3087 4.63289 50.7438 4.39204 52.6567L4.95517 52.9752Z" fill="white"/>
<path d="M45.0513 52.9752C45.0513 52.9752 45.2119 51.0623 42.4004 49.3883C42.4004 49.3883 44.8108 48.0337 46.0162 46.28C46.0162 46.28 44.7287 48.7508 43.4449 49.3087C43.4449 49.3087 45.3732 50.7438 45.6144 52.6567L45.0513 52.9752Z" fill="white"/>
<path d="M8.81055 52.4973C8.81055 52.4973 10.8999 55.127 12.8286 55.3667C12.8286 55.3667 10.6226 56.8194 10.4806 58.3649L9.93605 57.839C9.93605 57.839 10.5798 56.3247 11.4626 55.7668C11.4622 55.7653 9.21273 53.7723 8.81055 52.4973Z" fill="white"/>
<path d="M40.8985 52.4973C40.8985 52.4973 38.8096 55.127 36.8809 55.3667C36.8809 55.3667 39.0864 56.8194 39.2288 58.3649L39.7734 57.839C39.7734 57.839 39.1296 56.3247 38.2465 55.7668C38.2468 55.7653 40.4967 53.7723 40.8985 52.4973Z" fill="white"/>
<path d="M24.9931 13.0226C26.6354 13.0226 27.9667 12.3444 27.9667 11.5079C27.9667 10.6713 26.6354 9.99316 24.9931 9.99316C23.3508 9.99316 22.0195 10.6713 22.0195 11.5079C22.0195 12.3444 23.3508 13.0226 24.9931 13.0226Z" fill="#7D330A"/>
<path d="M24.9913 13.2247C23.2092 13.2247 21.8125 12.47 21.8125 11.5064C21.8125 10.5428 23.2114 9.78809 24.9913 9.78809C26.7712 9.78809 28.1724 10.5417 28.1724 11.5064C28.1724 12.4711 26.7743 13.2247 24.9913 13.2247ZM24.9913 10.1953C23.4909 10.1953 22.223 10.7964 22.223 11.5064C22.223 12.2164 23.4909 12.8175 24.9913 12.8175C26.4918 12.8175 27.7597 12.2164 27.7597 11.5064C27.7597 10.7964 26.4925 10.1953 24.9913 10.1953Z" fill="white"/>
<path d="M40.9855 29.6694C40.9855 29.6694 39.8925 30.0579 37.8157 30.9091C35.8529 31.7127 26.0793 32.6061 25.0129 32.6395C23.9465 32.6061 14.1729 31.7127 12.2101 30.9091C10.1337 30.059 9.04072 29.6694 9.04072 29.6694C9.04072 29.6694 5.43357 32.0076 6.08948 35.09C6.73745 38.1359 19.5535 39.8321 24.9186 39.8719H25.108C30.4727 39.8321 43.2887 38.1359 43.9367 35.09C44.5922 32.0076 40.9855 29.6694 40.9855 29.6694Z" fill="white"/>
<path d="M25.1086 40.0747H24.7143V40.0714C22.1626 40.0338 17.7114 39.6284 13.6941 38.8061C11.5237 38.3617 9.76579 37.8556 8.46797 37.3034C6.92173 36.643 6.05336 35.9134 5.88749 35.1316C5.60574 33.8082 6.04617 32.4114 7.16069 31.0928C7.67522 30.4858 8.26924 29.9497 8.92696 29.4988L9.01255 29.4436L9.10836 29.4774C9.11934 29.4815 10.2297 29.8775 12.2872 30.7198C14.2156 31.5087 23.9406 32.399 25.0116 32.4347C26.083 32.3971 35.8081 31.5094 37.736 30.7198C39.7932 29.8775 40.9035 29.48 40.9145 29.4774L41.0107 29.4436L41.0959 29.4988C41.7549 29.9488 42.3502 30.4843 42.866 31.0909C43.9805 32.4095 44.4186 33.8063 44.1392 35.1298C43.9729 35.91 43.1049 36.6411 41.5583 37.3015C40.262 37.8553 38.5044 38.3613 36.3322 38.8042C32.3157 39.6266 27.8644 40.0315 25.3119 40.0695V40.0721L25.1086 40.0747ZM25.0131 39.6671H25.1071C27.6008 39.6487 32.1509 39.2468 36.2504 38.4075C40.8157 37.4732 43.4745 36.2793 43.7366 35.0467C44.3012 32.3934 41.4826 30.2656 40.9569 29.8955C40.6445 30.0082 39.5959 30.3986 37.8951 31.0951C35.8759 31.9215 26.1019 32.807 25.0192 32.8408H25.0063C23.9251 32.807 14.1508 31.9219 12.1304 31.0951C10.4297 30.3986 9.38065 30.0094 9.06822 29.8955C8.54258 30.2656 5.72427 32.3934 6.28854 35.0467C6.55098 36.2793 9.20948 37.4732 13.7751 38.4075C17.8734 39.2468 22.4243 39.6472 24.9185 39.6671H25.0105H25.0131Z" fill="#20297B"/>
<path d="M15.7332 32.0044C15.7332 32.0044 13.6973 34.4489 13.6973 36.2559C13.6973 38.0628 17.4464 38.4509 18.9472 38.6635C18.9472 38.6635 15.5188 38.0625 15.0901 36.0432C14.6614 34.024 15.7332 32.0044 15.7332 32.0044Z" fill="#7D330A"/>
<path d="M21.6246 39.8928L20.7676 36.4126C20.7676 36.4126 22.655 38.7853 22.827 39.9781L21.6246 39.8928Z" fill="#7D330A"/>
<path d="M9.04076 29.6694L14.2309 34.9837L8.33789 30.4133L9.04076 29.6694Z" fill="#7D330A"/>
<path d="M22.7402 40.063L23.1776 32.0217L24.0286 40.063H22.7402Z" fill="#7D330A"/>
<path d="M27.7219 39.8928L28.5785 36.4126C28.5785 36.4126 26.6915 38.7853 26.5195 39.9781L27.7219 39.8928Z" fill="#7D330A"/>
<path d="M26.6067 40.063L26.1693 32.0217L25.3184 40.063H26.6067Z" fill="#7D330A"/>
<path d="M8.23154 31.3684C8.23154 31.3684 6.41035 33.2817 6.83867 34.8761C7.26698 36.4704 11.7675 37.5332 11.7675 37.5332C11.7675 37.5332 7.91153 36.0451 7.48171 34.7697C7.05188 33.4943 8.23154 31.3684 8.23154 31.3684Z" fill="#7D330A"/>
<path d="M8.81324 32.3101C8.81324 32.3101 7.58056 33.605 7.87027 34.6839C8.15997 35.7629 11.2074 36.4823 11.2074 36.4823C11.2074 36.4823 8.59662 35.4751 8.30653 34.6122C8.01645 33.7493 8.81324 32.3101 8.81324 32.3101Z" fill="#7D330A"/>
<path d="M9.68211 32.0217C9.68211 32.0217 8.44943 33.3163 8.73951 34.3956C9.0296 35.4749 12.0755 36.1939 12.0755 36.1939C12.0755 36.1939 9.46511 35.1868 9.17502 34.3235C8.88494 33.4602 9.68211 32.0217 9.68211 32.0217Z" fill="#7D330A"/>
<path d="M10.5554 31.7368C10.5554 31.7368 9.32275 33.0318 9.61245 34.1107C9.90216 35.1896 12.9477 35.909 12.9477 35.909C12.9477 35.909 10.3369 34.9022 10.0468 34.0389C9.75674 33.1756 10.5554 31.7368 10.5554 31.7368Z" fill="#7D330A"/>
<path d="M41.336 32.3101C41.336 32.3101 42.5691 33.605 42.279 34.6839C41.9889 35.7629 38.9434 36.4823 38.9434 36.4823C38.9434 36.4823 41.5538 35.4751 41.8438 34.6122C42.1339 33.7493 41.336 32.3101 41.336 32.3101Z" fill="#7D330A"/>
<path d="M40.4633 32.0217C40.4633 32.0217 41.696 33.3163 41.4059 34.3956C41.1158 35.4749 38.0703 36.1939 38.0703 36.1939C38.0703 36.1939 40.6807 35.1868 40.9708 34.3235C41.2609 33.4602 40.4633 32.0217 40.4633 32.0217Z" fill="#7D330A"/>
<path d="M39.5922 31.7368C39.5922 31.7368 40.8253 33.0318 40.5352 34.1107C40.2451 35.1896 37.1992 35.909 37.1992 35.909C37.1992 35.909 39.81 34.9022 40.1001 34.0389C40.3902 33.1756 39.5922 31.7368 39.5922 31.7368Z" fill="#7D330A"/>
<path d="M34.4254 32.0044C34.4254 32.0044 36.4613 34.4489 36.4613 36.2559C36.4613 38.0628 32.7121 38.4509 31.2109 38.6635C31.2109 38.6635 34.6397 38.0625 35.068 36.0432C35.4963 34.024 34.4254 32.0044 34.4254 32.0044Z" fill="#7D330A"/>
<path d="M41.114 29.6694L35.9238 34.9837L41.8164 30.4133L41.114 29.6694Z" fill="#7D330A"/>
<path d="M41.9242 31.3684C41.9242 31.3684 43.7458 33.2817 43.3171 34.8761C42.8884 36.4704 38.3887 37.5332 38.3887 37.5332C38.3887 37.5332 42.2458 36.0451 42.6745 34.7697C43.1031 33.4943 41.9242 31.3684 41.9242 31.3684Z" fill="#7D330A"/>
<path d="M24.0273 39.99L24.6609 31.8831L25.3157 40.318L24.0273 39.99Z" fill="#7D330A"/>
<path d="M39.0269 17.2314C39.0269 17.2314 38.491 24.0337 35.9215 24.4586C33.352 24.8835 32.4931 23.3962 33.3501 20.845C34.2071 18.2938 34.743 16.275 36.3502 14.8933C37.9574 13.5115 39.8839 11.0667 38.2767 7.34752C36.6694 3.62837 32.5984 4.0525 32.5984 4.0525C32.5984 4.0525 36.1339 5.75317 36.3475 9.04893C36.5611 12.3447 32.812 9.89908 31.8474 7.5609C30.8829 5.22272 31.7402 1.29019 31.7402 1.29019C31.7402 1.29019 28.3118 4.3707 29.1688 7.5609C30.0258 10.7511 32.0618 10.6414 31.6331 14.0442C31.2044 17.4471 28.9545 18.1894 27.8839 16.1698C26.8133 14.1502 29.1696 12.4506 29.1696 12.4506C29.1696 12.4506 24.7766 12.8759 25.8484 16.7021C26.9201 20.5283 29.5975 19.6778 29.5975 23.7167C29.5975 27.4944 25.0985 27.6458 24.5168 27.6496H24.4547C23.8731 27.6458 19.3741 27.4944 19.3741 23.7167C19.3741 19.6778 22.0526 20.528 23.1232 16.7021C24.1938 12.8763 19.8031 12.4488 19.8031 12.4488C19.8031 12.4488 22.1606 14.1494 21.0907 16.1679C20.0209 18.1864 17.7695 17.4452 17.3416 14.0424C16.9136 10.6395 18.9461 10.7481 19.8031 7.55977C20.6601 4.37145 17.2321 1.28906 17.2321 1.28906C17.2321 1.28906 18.0891 5.22122 17.1246 7.55977C16.16 9.89833 12.4105 12.3439 12.6248 9.04781C12.8392 5.75166 16.374 4.05137 16.374 4.05137C16.374 4.05137 12.3048 3.62837 10.6961 7.34752C9.08735 11.0667 11.0172 13.5115 12.6248 14.8933C14.2324 16.275 14.7664 18.2942 15.6249 20.845C16.4834 23.3958 15.6249 24.8839 13.0535 24.4586C10.4821 24.0333 9.94814 17.2314 9.94814 17.2314C9.94814 17.2314 7.48392 21.3766 9.09114 24.8839C10.6984 28.3911 15.8389 28.8164 15.8389 28.8164C15.8389 28.8164 16.8034 29.455 18.3031 31.3672C19.7043 33.152 22.9793 33.7433 24.6627 33.7433C26.3009 33.7433 29.2703 33.152 30.6696 31.3672C32.1697 29.4543 33.1339 28.8164 33.1339 28.8164C33.1339 28.8164 38.2766 28.3915 39.8839 24.8839C41.4911 21.3762 39.0269 17.2314 39.0269 17.2314Z" fill="white"/>
<path d="M24.6629 34.0061C22.8035 34.0061 19.5201 33.3464 18.0955 31.5289C16.8367 29.9237 15.9573 29.2291 15.7433 29.0709C14.7979 28.96 13.869 28.7388 12.9758 28.412C10.963 27.6746 9.53602 26.4923 8.84791 24.9934C8.16625 23.5024 8.09997 21.6627 8.65856 19.6731C9.07816 18.1825 9.69091 17.143 9.71666 17.0994L10.1416 16.3856L10.2071 17.2121C10.3517 19.0473 11.1538 23.8807 13.0943 24.2015C13.3484 24.2452 13.6056 24.2682 13.8635 24.2702C14.5739 24.2702 15.0829 24.0659 15.3756 23.6628C15.785 23.0993 15.7839 22.1541 15.3722 20.929C15.2843 20.6678 15.1994 20.4123 15.1173 20.1626C14.4024 17.9961 13.8373 16.285 12.4498 15.0911C11.3723 14.165 10.6172 13.1556 10.2063 12.091C9.62728 10.5913 9.70984 8.96049 10.4513 7.2448C11.0414 5.87923 12.0112 4.8946 13.334 4.31794C14.4145 3.84685 15.4631 3.7766 15.9918 3.7766C16.2425 3.7766 16.3936 3.792 16.4 3.79275L17.2937 3.88592C17.2462 3.0325 17.1386 2.18343 16.9719 1.34488L16.8007 0.548828L17.4093 1.09581C18.0395 1.69142 18.5944 2.36075 19.0619 3.08912C20.0844 4.68197 20.4283 6.25152 20.0583 7.62798C19.6883 9.00444 19.1062 9.79035 18.5916 10.4793C17.905 11.4027 17.3627 12.1323 17.5997 14.0106C17.8599 16.0768 18.8067 17.0194 19.5758 17.0194C20.0681 17.0194 20.5226 16.6738 20.8543 16.0468C21.8083 14.2488 19.6686 12.6763 19.647 12.6605L18.8631 12.0951L19.8277 12.1886C19.9174 12.1973 22.0408 12.4182 23.0466 13.8739C23.5859 14.653 23.6969 15.6275 23.3769 16.7703C22.8709 18.5811 22.0097 19.3944 21.2493 20.1108C20.3495 20.9583 19.6387 21.6274 19.6387 23.7172C19.6387 27.0284 23.4276 27.3545 24.3176 27.3853L24.4876 27.3883L24.6508 27.3853C25.5313 27.3556 29.3346 27.0348 29.3346 23.7172C29.3346 21.6289 28.6242 20.9594 27.7244 20.1108C26.9636 19.3944 26.1016 18.5822 25.5945 16.7711C25.2745 15.6283 25.3855 14.6538 25.9244 13.8746C26.931 12.4189 29.0544 12.198 29.1434 12.1894L30.1079 12.0958L29.324 12.6612C28.9413 12.9569 28.6078 13.3104 28.336 13.709C27.7963 14.5182 27.7229 15.3052 28.1167 16.0475C28.4492 16.6745 28.9033 17.0201 29.3948 17.0201C30.164 17.0201 31.1107 16.0783 31.3709 14.0114C31.6076 12.133 31.0657 11.4027 30.3791 10.4801C29.8656 9.78922 29.2839 9.00632 28.9135 7.62873C28.5431 6.25114 28.8881 4.68272 29.9102 3.08987C30.3777 2.36156 30.9325 1.69223 31.5625 1.09656L32.1726 0.548828L31.9977 1.34525C31.8309 2.1838 31.7235 3.03288 31.6761 3.88629L32.5691 3.79313C32.5756 3.79313 32.727 3.77697 32.9777 3.77697C33.5079 3.77697 34.5547 3.84722 35.6359 4.31832C36.9583 4.89497 37.9282 5.87961 38.5182 7.24517C39.2597 8.96124 39.3418 10.592 38.7628 12.0913C38.3519 13.156 37.5972 14.1654 36.5198 15.0914C35.1322 16.2846 34.5672 17.9954 33.8522 20.163C33.7696 20.4135 33.6847 20.6692 33.5973 20.9301C33.1856 22.1552 33.1841 23.1008 33.5935 23.6643C33.8866 24.067 34.3952 24.2714 35.1057 24.2714C35.3635 24.2693 35.6208 24.2463 35.8748 24.2026C37.8176 23.8818 38.6181 19.0484 38.7624 17.2132L38.8276 16.3868L39.2528 17.1005C39.2786 17.1441 39.8913 18.1836 40.311 19.6743C40.8711 21.6653 40.8059 23.5035 40.1216 24.9945C39.4346 26.4935 38.0081 27.6757 35.9937 28.4131C35.1005 28.7399 34.1716 28.9611 33.2262 29.0721C33.0126 29.2298 32.1332 29.9241 30.874 31.5301C29.3422 33.4885 26.141 34.0061 24.6629 34.0061ZM9.78255 18.146C9.1789 19.4868 8.20336 22.319 9.32811 24.7766C10.8535 28.1058 15.8096 28.5525 15.8596 28.5566L15.9274 28.5623L15.9842 28.5998C16.0251 28.6269 17.0014 29.2832 18.5105 31.2074C19.8099 32.8648 22.9728 33.4824 24.6614 33.4824C26.2755 33.4824 29.1517 32.8769 30.4601 31.2074C31.9693 29.2832 32.9456 28.6269 32.9865 28.5998L33.0429 28.5623L33.1107 28.5566C33.1607 28.5525 38.1194 28.1009 39.6425 24.7766C40.7688 22.319 39.794 19.4868 39.1881 18.146C39.0744 19.0238 38.9081 19.894 38.6901 20.7521C38.0577 23.1887 37.1374 24.5231 35.9604 24.718C35.6775 24.7661 35.3912 24.7913 35.1042 24.7932C34.2271 24.7932 33.556 24.508 33.1641 23.9667C32.6513 23.2612 32.6274 22.1526 33.0951 20.7611C33.1826 20.5007 33.2667 20.246 33.3492 19.997C34.0896 17.7538 34.6747 15.9822 36.1725 14.6944C38.5867 12.6188 39.212 10.181 38.0315 7.44879C36.9848 5.02608 34.8588 4.44341 33.5651 4.32545C33.9199 4.56707 34.2567 4.83373 34.5728 5.12338C35.815 6.26504 36.5201 7.61633 36.6122 9.03036C36.6584 9.74151 36.5307 10.2622 36.2334 10.5778C36.0282 10.7949 35.7442 10.9098 35.412 10.9098C34.1676 10.9098 32.2828 9.29934 31.6061 7.65803C30.8907 5.92431 31.1323 3.40431 31.3315 2.09321C30.4226 3.12218 28.8385 5.30445 29.4263 7.49161C29.7709 8.7734 30.3211 9.51385 30.8066 10.1671C31.5334 11.1439 32.1605 11.9884 31.8977 14.0741C31.5947 16.469 30.4249 17.5408 29.3982 17.5412C28.7113 17.5412 28.0751 17.0848 27.6532 16.2891C27.1673 15.3736 27.2555 14.3762 27.908 13.4051C28.0267 13.2294 28.1571 13.0618 28.2985 12.9035C27.6634 13.0974 26.8431 13.4712 26.3607 14.1703C25.9149 14.8161 25.8305 15.6429 26.105 16.6287C26.5731 18.3001 27.3442 19.0266 28.0898 19.7287C29.0025 20.5883 29.8648 21.4005 29.8648 23.7135C29.8648 27.4428 25.7847 27.8579 24.722 27.903V27.9094H24.4906H24.2562V27.9026C23.1913 27.8601 19.1111 27.4469 19.1111 23.7157C19.1111 21.4027 19.9735 20.5905 20.8857 19.731C21.6318 19.0289 22.4028 18.3034 22.8709 16.6309C23.147 15.6444 23.0603 14.8165 22.6138 14.1707C22.1294 13.4719 21.3099 13.0963 20.6744 12.9043C20.8163 13.063 20.9471 13.231 21.066 13.4073C21.7189 14.3784 21.8071 15.3758 21.3213 16.2913C20.8994 17.087 20.2609 17.5435 19.5758 17.5435C18.5488 17.5435 17.3793 16.4713 17.0764 14.0764C16.8136 11.9899 17.4407 11.1461 18.167 10.1694C18.6525 9.51611 19.2032 8.77566 19.5474 7.49387C20.1378 5.30182 18.5537 3.12143 17.6448 2.09321C17.844 3.40431 18.086 5.92506 17.3706 7.65954C16.6939 9.30047 14.8087 10.911 13.5643 10.9113C13.2322 10.9113 12.9481 10.7964 12.7429 10.5793C12.4448 10.2641 12.3172 9.74339 12.3642 9.03187C12.4562 7.61634 13.1594 6.26505 14.4035 5.12488C14.7185 4.83605 15.0542 4.57014 15.4078 4.32921C14.1142 4.4483 11.9877 5.02984 10.9391 7.45254C9.75869 10.1833 10.3839 12.621 12.7974 14.6966C14.2956 15.9844 14.8803 17.7565 15.621 19.9996C15.7036 20.2485 15.7882 20.5031 15.8747 20.7633C16.3424 22.1533 16.3186 23.2631 15.8058 23.9689C15.4139 24.5084 14.7432 24.7954 13.8657 24.7954C13.5789 24.7935 13.2926 24.7684 13.0099 24.7203C11.831 24.5253 10.9126 23.1909 10.2798 20.7543C10.0621 19.8954 9.89602 19.0245 9.78255 18.146ZM31.6769 3.89944C31.6137 5.07755 31.6708 6.43785 32.0935 7.46156C32.6801 8.88385 34.3854 10.388 35.4113 10.3877C35.6006 10.3877 35.7423 10.3332 35.8483 10.2212C36.0377 10.0184 36.1217 9.62017 36.0861 9.06568C35.8843 5.96526 32.518 4.30517 32.4839 4.28864L31.6769 3.89944ZM17.2972 3.89944L16.4901 4.28751C16.4564 4.30404 13.0898 5.96413 12.8883 9.06455C12.8523 9.61791 12.9345 10.0176 13.1261 10.2201C13.2322 10.3328 13.3749 10.3865 13.5628 10.3865C14.5891 10.3865 16.2944 8.88385 16.881 7.46043C17.304 6.43785 17.36 5.07792 17.2972 3.90057V3.89944Z" fill="#7D330A"/>
<path d="M15.9471 3.94877C15.212 4.20986 14.4792 4.62235 13.8365 5.06076C13.2363 5.47061 12.6815 5.96011 12.274 6.56344C11.4825 7.73554 11.1595 9.38962 11.62 10.7465C12.0824 12.1095 13.6529 12.41 14.8738 11.8965C16.2216 11.3296 17.2483 10.0493 17.8792 8.77652C18.5759 7.37856 18.8053 5.79666 18.534 4.26058C18.5256 4.21474 18.4999 4.24818 18.5044 4.27898C18.8831 6.84482 17.7531 9.71608 15.5168 11.1369C14.4913 11.7887 12.9462 12.076 12.0653 11.011C11.598 10.4453 11.5651 9.57257 11.6454 8.87607C11.729 8.16214 11.9703 7.47527 12.352 6.86435C12.758 6.21482 13.3139 5.68963 13.9467 5.26024C14.5905 4.8222 15.3074 4.51528 15.966 4.10317C16.0039 4.0795 16.0039 3.92923 15.9471 3.94877Z" fill="#7D330A"/>
<path d="M10.895 11.5213C11.1733 13.2835 13.2115 13.9973 14.2094 15.281C14.9392 16.2202 15.3004 17.4171 15.6738 18.5257C15.8804 19.1388 16.0739 19.7557 16.2544 20.3766C16.4312 20.9837 16.6142 21.5975 16.6774 22.2287C16.7475 22.9244 16.6395 23.6186 16.2074 24.187C15.8435 24.6634 15.3637 24.9827 14.7494 24.9835C14.6968 24.9835 14.6953 25.151 14.7494 25.1544C15.7238 25.2167 16.4786 24.4252 16.7357 23.5559C17.0875 22.3658 16.6535 21.069 16.315 19.928C15.9484 18.6936 15.5644 17.4351 15.0388 16.2566C14.804 15.7307 14.5173 15.2198 14.1336 14.7855C13.8254 14.4365 13.4615 14.1435 13.0899 13.8636C12.2163 13.205 11.2074 12.6239 10.9287 11.4893C10.9166 11.4405 10.8908 11.4965 10.895 11.5213Z" fill="#7D330A"/>
<path d="M9.45066 20.1921C9.01629 21.7293 9.22722 23.4717 9.96342 24.8853C10.7852 26.4631 12.2277 27.5406 13.9887 27.8791C15.0812 28.081 16.2067 28.0186 17.2697 27.6972C17.3122 27.6845 17.3053 27.5274 17.2603 27.5349C15.4804 27.8227 13.6209 27.7134 12.0535 26.7423C10.7163 25.9158 9.83201 24.5097 9.49648 22.9976C9.29387 22.0839 9.30448 21.1628 9.49307 20.248C9.49989 20.2146 9.47073 20.1214 9.45066 20.1921Z" fill="#7D330A"/>
<path d="M16.546 27.6899C16.7354 28.3898 17.2277 29.0829 17.6583 29.658C18.1115 30.2681 18.6447 30.8154 19.2439 31.2854C20.4724 32.2408 22.1221 32.9207 23.7069 32.731C23.7743 32.7231 23.7755 32.5195 23.7069 32.515C22.1099 32.4064 20.6394 31.9158 19.37 30.9308C18.7772 30.4645 18.2437 29.9283 17.7814 29.3342C17.5668 29.0622 17.3648 28.7805 17.1754 28.4889C16.9903 28.2015 16.8297 27.8244 16.5941 27.5794C16.5449 27.528 16.5388 27.6673 16.5449 27.6899H16.546Z" fill="#7D330A"/>
<path d="M18.8692 21.7846C19.1237 21.2001 19.4342 20.6997 19.8917 20.2485C20.3173 19.83 20.7896 19.4622 21.2171 19.0464C22.0082 18.2819 22.8013 17.2431 22.6475 16.0786C22.6331 15.97 22.5683 16.0207 22.5649 16.1037C22.515 17.381 21.6121 18.3056 20.7354 19.1444C19.9943 19.8533 19.0794 20.6772 18.8252 21.7095C18.8192 21.7328 18.8408 21.8421 18.8669 21.782L18.8692 21.7846Z" fill="#7D330A"/>
<path d="M21.4209 13.7121C21.8678 14.3722 22.1355 15.098 21.9049 15.894C21.7087 16.5725 21.2365 17.0759 20.6552 17.4572C20.6173 17.4827 20.6173 17.645 20.6753 17.6217C22.1371 17.0034 22.5915 14.7313 21.4467 13.6133C21.4088 13.5757 21.4058 13.6884 21.4209 13.7121Z" fill="#7D330A"/>
<path d="M19.2126 5.56881C19.3713 6.73113 19.0952 7.77362 18.5639 8.80259C18.5476 8.83452 18.5707 8.9938 18.6101 8.9367C19.2732 7.97273 19.4546 6.6684 19.2679 5.53462C19.2535 5.44822 19.2046 5.51133 19.2126 5.56881Z" fill="#7D330A"/>
<path d="M33.1459 4.10317C33.7223 4.46381 34.3494 4.73617 34.9258 5.10283C35.5166 5.4785 36.0593 5.91616 36.4887 6.47178C37.3276 7.55672 37.8343 9.24799 37.3041 10.5745C36.783 11.8762 35.1076 11.9269 34.0211 11.3826C32.8536 10.7965 31.9038 9.72509 31.3247 8.57216C30.6669 7.26144 30.3946 5.73095 30.609 4.27898C30.6135 4.24855 30.5878 4.21437 30.5795 4.26058C30.3373 5.61695 30.4874 7.01364 31.0123 8.2889C31.5504 9.60375 32.4756 10.881 33.7144 11.6282C34.8183 12.2939 36.5168 12.4434 37.2848 11.1951C37.6684 10.573 37.7218 9.75364 37.6737 9.04325C37.6274 8.32586 37.4296 7.62614 37.0931 6.98945C36.7144 6.27568 36.1547 5.70466 35.5075 5.22605C34.8103 4.71025 33.9844 4.23991 33.1645 3.94877C33.1092 3.92923 33.1077 4.0795 33.1455 4.10317H33.1459Z" fill="#7D330A"/>
<path d="M38.1847 11.4905C37.9378 12.4954 37.1243 13.0458 36.3396 13.6296C35.5001 14.2524 34.7794 14.8798 34.2867 15.8182C33.6993 16.9374 33.332 18.197 32.9593 19.3988C32.5935 20.5803 32.1198 21.8711 32.2894 23.1262C32.4284 24.1566 33.2097 25.2299 34.3639 25.1548C34.4177 25.1514 34.417 24.9843 34.3639 24.9839C33.1987 24.982 32.456 23.8223 32.4163 22.7633C32.392 22.1149 32.5511 21.474 32.723 20.853C32.8907 20.2492 33.0716 19.649 33.2657 19.0524C33.6331 17.9179 33.9852 16.6992 34.6256 15.68C35.16 14.8295 35.9712 14.299 36.7195 13.6566C37.3928 13.0785 38.0745 12.4338 38.2188 11.5217C38.2226 11.4973 38.1968 11.4398 38.1847 11.4898V11.4905Z" fill="#7D330A"/>
<path d="M39.6183 20.248C39.9451 21.8322 39.7058 23.5017 38.8609 24.897C37.9834 26.3471 36.5129 27.2866 34.8372 27.5699C33.8306 27.7401 32.855 27.6972 31.8503 27.5349C31.8045 27.5274 31.7992 27.6852 31.8405 27.6972C33.6507 28.2476 35.7873 28.0594 37.3578 26.9624C38.7068 26.0195 39.546 24.4856 39.7978 22.8853C39.9375 21.9975 39.905 21.0591 39.6599 20.1921C39.6399 20.1214 39.6107 20.2146 39.6175 20.248H39.6183Z" fill="#7D330A"/>
<path d="M32.5174 27.5794C32.2924 27.8135 32.1387 28.1741 31.9614 28.4491C31.7665 28.7542 31.5565 29.0492 31.3313 29.3342C30.868 29.9281 30.3339 30.4642 29.7407 30.9308C28.4739 31.9173 27.0019 32.4057 25.4065 32.515C25.3383 32.5195 25.3387 32.7231 25.4065 32.731C26.9902 32.9189 28.6425 32.2426 29.8695 31.2854C30.4558 30.8252 30.9792 30.2912 31.4263 29.6967C31.8683 29.1118 32.3731 28.404 32.5673 27.6899C32.5734 27.6673 32.5674 27.528 32.5181 27.5794H32.5174Z" fill="#7D330A"/>
<path d="M30.285 21.7141C30.0308 20.6817 29.1159 19.8579 28.3748 19.149C27.4981 18.3101 26.5949 17.3859 26.5453 16.1083C26.5418 16.0286 26.4775 15.9708 26.4627 16.0831C26.3086 17.2477 27.1023 18.2849 27.8931 19.0509C28.3221 19.4642 28.794 19.8331 29.2185 20.2531C29.6771 20.7039 29.9873 21.2046 30.241 21.7892C30.2672 21.8497 30.2884 21.7392 30.2827 21.7167L30.285 21.7141Z" fill="#7D330A"/>
<path d="M27.6664 13.613C26.5216 14.731 26.976 17.003 28.4378 17.6214C28.4942 17.6454 28.498 17.4828 28.4579 17.4569C27.8758 17.0752 27.4051 16.5725 27.2081 15.8937C26.9771 15.098 27.246 14.3715 27.6921 13.7118C27.7073 13.69 27.7042 13.5762 27.6668 13.613H27.6664Z" fill="#7D330A"/>
<path d="M29.8447 5.53461C29.658 6.66838 29.8394 7.97271 30.5025 8.93669C30.5426 8.99492 30.5642 8.833 30.5487 8.80257C30.0185 7.77361 29.7417 6.73112 29.8999 5.56879C29.9079 5.51207 29.8591 5.44783 29.8447 5.53461Z" fill="#7D330A"/>
<path d="M5.12703 28.6002C5.31374 27.868 6.01093 27.2538 5.90451 26.5062C5.84089 26.0587 5.50081 25.7094 5.26072 25.3266C5.02062 24.9437 4.88959 24.3953 5.21073 24.0752C4.52528 24.4884 4.17005 25.3731 4.38213 26.1414C3.85952 25.6019 2.86315 25.6327 2.375 26.2034C3.11385 26.1046 3.87807 26.6722 3.99055 27.4033C4.0394 27.7185 3.9807 28.0393 3.98676 28.3582C4.00267 29.1686 4.51051 30.0773 5.28306 30.3519C5.213 29.7944 4.9782 29.1843 5.12703 28.6002Z" fill="white"/>
<path d="M6.9136 26.4917C6.75227 27.0605 6.30427 27.4985 6.00471 28.0105C5.70516 28.5226 5.59685 29.2555 6.04675 29.6432L6.77689 28.5876C7.15067 27.9745 7.04009 27.1972 6.9136 26.4917Z" fill="white"/>
<path d="M44.9661 28.6002C44.7794 27.868 44.0826 27.2538 44.1887 26.5062C44.2523 26.0587 44.5923 25.7094 44.8324 25.3266C45.0725 24.9437 45.204 24.3953 44.8824 24.0752C45.5679 24.4884 45.9235 25.3731 45.711 26.1414C46.234 25.6019 47.2304 25.6327 47.7182 26.2034C46.9797 26.1046 46.2155 26.6722 46.1026 27.4033C46.0541 27.7185 46.1128 28.0393 46.1064 28.3582C46.0905 29.1686 45.583 30.0773 44.8105 30.3519C44.8802 29.7944 45.1153 29.1843 44.9661 28.6002Z" fill="white"/>
<path d="M43.1813 26.4917C43.343 27.0605 43.7911 27.4985 44.0902 28.0105C44.3894 28.5226 44.4981 29.2555 44.0482 29.6432L43.3177 28.5876C42.9447 27.9745 43.056 27.1972 43.1813 26.4917Z" fill="white"/>
<defs>
<linearGradient id="paint0_linear_565_85329" x1="24.9968" y1="48.8296" x2="24.9968" y2="58.3621" gradientUnits="userSpaceOnUse">
<stop stop-color="#72006D"/>
<stop offset="1"/>
</linearGradient>
<linearGradient id="paint1_linear_565_85329" x1="24.9977" y1="42.2063" x2="24.9977" y2="53.1542" gradientUnits="userSpaceOnUse">
<stop stop-color="#72006D"/>
<stop offset="1"/>
</linearGradient>
<linearGradient id="paint2_linear_565_85329" x1="24.9971" y1="36.0442" x2="24.9971" y2="46.4597" gradientUnits="userSpaceOnUse">
<stop stop-color="#72006D"/>
<stop offset="1"/>
</linearGradient>
<linearGradient id="paint3_linear_565_85329" x1="24.7377" y1="36.6763" x2="24.7377" y2="45.5179" gradientUnits="userSpaceOnUse">
<stop stop-color="#BABABA"/>
<stop offset="1"/>
</linearGradient>
</defs>
</svg>
