<svg width="23" height="23" viewBox="0 0 23 23" fill="none" xmlns="http://www.w3.org/2000/svg">
<g clip-path="url(#clip0_565_80280)">
<g filter="url(#filter0_dd_565_80280)">
<path d="M0.5 2.34766L2.5 0.347656H11.5H20.5L22.5 2.34766V11.3477V20.3477L20.5 22.3477H11.5H2.5L0.5 20.3477V11.3477V2.34766Z" fill="white"/>
<path d="M0.75 11.3477V2.45121L2.60355 0.597656H11.5H20.3964L22.25 2.45121V11.3477V20.2441L20.3964 22.0977H11.5H2.60355L0.75 20.2441V11.3477Z" stroke="#D0D5DD" stroke-width="0.5"/>
</g>
<path d="M5.125 7.09636C5.125 5.92307 6.07614 4.97192 7.24943 4.97192H12.9146C14.0879 4.97192 15.039 5.92306 15.039 7.09635V12.7615C15.039 13.9348 14.0879 14.8859 12.9146 14.8859H7.24943C6.07614 14.8859 5.125 13.9348 5.125 12.7615V7.09636Z" stroke="#6A0067" stroke-width="1.41629" stroke-linecap="round" stroke-linejoin="round"/>
<path d="M17.871 7.80469V15.5943C17.871 16.7676 16.9199 17.7187 15.7466 17.7187H7.95703" stroke="#6A0067" stroke-width="1.41629" stroke-linecap="round" stroke-linejoin="round"/>
</g>
<defs>
<filter id="filter0_dd_565_80280" x="-5.5" y="-1.65234" width="34" height="34" filterUnits="userSpaceOnUse" color-interpolation-filters="sRGB">
<feFlood flood-opacity="0" result="BackgroundImageFix"/>
<feColorMatrix in="SourceAlpha" type="matrix" values="0 0 0 0 0 0 0 0 0 0 0 0 0 0 0 0 0 0 127 0" result="hardAlpha"/>
<feMorphology radius="2" operator="erode" in="SourceAlpha" result="effect1_dropShadow_565_80280"/>
<feOffset dy="2"/>
<feGaussianBlur stdDeviation="2"/>
<feColorMatrix type="matrix" values="0 0 0 0 0.0627451 0 0 0 0 0.0941176 0 0 0 0 0.156863 0 0 0 0.06 0"/>
<feBlend mode="normal" in2="BackgroundImageFix" result="effect1_dropShadow_565_80280"/>
<feColorMatrix in="SourceAlpha" type="matrix" values="0 0 0 0 0 0 0 0 0 0 0 0 0 0 0 0 0 0 127 0" result="hardAlpha"/>
<feMorphology radius="2" operator="erode" in="SourceAlpha" result="effect2_dropShadow_565_80280"/>
<feOffset dy="4"/>
<feGaussianBlur stdDeviation="4"/>
<feColorMatrix type="matrix" values="0 0 0 0 0.0627451 0 0 0 0 0.0941176 0 0 0 0 0.156863 0 0 0 0.1 0"/>
<feBlend mode="normal" in2="effect1_dropShadow_565_80280" result="effect2_dropShadow_565_80280"/>
<feBlend mode="normal" in="SourceGraphic" in2="effect2_dropShadow_565_80280" result="shape"/>
</filter>
<clipPath id="clip0_565_80280">
<rect width="22" height="22" fill="white" transform="translate(0.5 0.347656)"/>
</clipPath>
</defs>
</svg>
