<svg width="22" height="23" viewBox="0 0 22 23" fill="none" xmlns="http://www.w3.org/2000/svg">
<g clip-path="url(#clip0_565_80825)">
<g filter="url(#filter0_dd_565_80825)">
<path d="M0 2.89893L2 0.898926H11H20L22 2.89893V11.8989V20.8989L20 22.8989H11H2L0 20.8989V11.8989V2.89893Z" fill="white"/>
<path d="M21.75 11.8989V20.7954L19.8964 22.6489H11H2.10355L0.25 20.7954V11.8989V3.00248L2.10355 1.14893H11H19.8964L21.75 3.00248V11.8989Z" stroke="#D0D5DD" stroke-width="0.5"/>
</g>
<path d="M8.1875 15.5525L10.125 17.0525C10.375 17.3025 10.9375 17.4275 11.3125 17.4275H13.6875C14.4375 17.4275 15.25 16.865 15.4375 16.115L16.9375 11.5525C17.25 10.6775 16.6875 9.92753 15.75 9.92753H13.25C12.875 9.92753 12.5625 9.61503 12.625 9.17753L12.9375 7.17753C13.0625 6.61503 12.6875 5.99003 12.125 5.80253C11.625 5.61503 11 5.86503 10.75 6.24003L8.1875 10.0525" stroke="#6A0067" stroke-width="1.2" stroke-miterlimit="10"/>
<path d="M5 15.5527V9.42773C5 8.55273 5.375 8.24023 6.25 8.24023H6.875C7.75 8.24023 8.125 8.55273 8.125 9.42773V15.5527C8.125 16.4277 7.75 16.7402 6.875 16.7402H6.25C5.375 16.7402 5 16.4277 5 15.5527Z" stroke="#6A0067" stroke-width="1.2" stroke-linecap="round" stroke-linejoin="round"/>
</g>
<defs>
<filter id="filter0_dd_565_80825" x="-6" y="-1.10107" width="34" height="34" filterUnits="userSpaceOnUse" color-interpolation-filters="sRGB">
<feFlood flood-opacity="0" result="BackgroundImageFix"/>
<feColorMatrix in="SourceAlpha" type="matrix" values="0 0 0 0 0 0 0 0 0 0 0 0 0 0 0 0 0 0 127 0" result="hardAlpha"/>
<feMorphology radius="2" operator="erode" in="SourceAlpha" result="effect1_dropShadow_565_80825"/>
<feOffset dy="2"/>
<feGaussianBlur stdDeviation="2"/>
<feColorMatrix type="matrix" values="0 0 0 0 0.0627451 0 0 0 0 0.0941176 0 0 0 0 0.156863 0 0 0 0.06 0"/>
<feBlend mode="normal" in2="BackgroundImageFix" result="effect1_dropShadow_565_80825"/>
<feColorMatrix in="SourceAlpha" type="matrix" values="0 0 0 0 0 0 0 0 0 0 0 0 0 0 0 0 0 0 127 0" result="hardAlpha"/>
<feMorphology radius="2" operator="erode" in="SourceAlpha" result="effect2_dropShadow_565_80825"/>
<feOffset dy="4"/>
<feGaussianBlur stdDeviation="4"/>
<feColorMatrix type="matrix" values="0 0 0 0 0.0627451 0 0 0 0 0.0941176 0 0 0 0 0.156863 0 0 0 0.1 0"/>
<feBlend mode="normal" in2="effect1_dropShadow_565_80825" result="effect2_dropShadow_565_80825"/>
<feBlend mode="normal" in="SourceGraphic" in2="effect2_dropShadow_565_80825" result="shape"/>
</filter>
<clipPath id="clip0_565_80825">
<rect width="22" height="22" fill="white" transform="translate(0 0.898926)"/>
</clipPath>
</defs>
</svg>
