<svg width="39" height="39" viewBox="0 0 39 39" fill="none" xmlns="http://www.w3.org/2000/svg">
<g clip-path="url(#clip0_740_80605)">
<g filter="url(#filter0_dd_740_80605)">
<path d="M0 3.46426L3.46426 0H19.0534H34.6426L38.1068 3.46426V19.0534V34.6426L34.6426 38.1068H19.0534H3.46426L0 34.6426V19.0534V3.46426Z" fill="#F8F8F8"/>
<path d="M0.433032 19.0534V3.64362L3.64362 0.433032H19.0534H34.4632L37.6738 3.64362V19.0534V34.4632L34.4632 37.6738H19.0534H3.64362L0.433032 34.4632V19.0534Z" stroke="#D0D5DD" stroke-width="0.866064"/>
</g>
<circle cx="19.0489" cy="16.5963" r="3.67978" stroke="#6A0067" stroke-width="1.85564" stroke-linecap="round" stroke-linejoin="round"/>
<path d="M27.6333 16.2898C27.6333 23.1894 19.0471 30.089 19.0471 30.089C19.0471 30.089 10.4609 23.1894 10.4609 16.2898C10.4609 11.7171 14.3051 8.01025 19.0471 8.01025C23.7891 8.01025 27.6333 11.7171 27.6333 16.2898Z" stroke="#6A0067" stroke-width="1.85564" stroke-linecap="round" stroke-linejoin="round"/>
</g>
<defs>
<filter id="filter0_dd_740_80605" x="-6" y="-2" width="50.1074" height="50.1067" filterUnits="userSpaceOnUse" color-interpolation-filters="sRGB">
<feFlood flood-opacity="0" result="BackgroundImageFix"/>
<feColorMatrix in="SourceAlpha" type="matrix" values="0 0 0 0 0 0 0 0 0 0 0 0 0 0 0 0 0 0 127 0" result="hardAlpha"/>
<feMorphology radius="2" operator="erode" in="SourceAlpha" result="effect1_dropShadow_740_80605"/>
<feOffset dy="2"/>
<feGaussianBlur stdDeviation="2"/>
<feColorMatrix type="matrix" values="0 0 0 0 0.0627451 0 0 0 0 0.0941176 0 0 0 0 0.156863 0 0 0 0.06 0"/>
<feBlend mode="normal" in2="BackgroundImageFix" result="effect1_dropShadow_740_80605"/>
<feColorMatrix in="SourceAlpha" type="matrix" values="0 0 0 0 0 0 0 0 0 0 0 0 0 0 0 0 0 0 127 0" result="hardAlpha"/>
<feMorphology radius="2" operator="erode" in="SourceAlpha" result="effect2_dropShadow_740_80605"/>
<feOffset dy="4"/>
<feGaussianBlur stdDeviation="4"/>
<feColorMatrix type="matrix" values="0 0 0 0 0.0627451 0 0 0 0 0.0941176 0 0 0 0 0.156863 0 0 0 0.1 0"/>
<feBlend mode="normal" in2="effect1_dropShadow_740_80605" result="effect2_dropShadow_740_80605"/>
<feBlend mode="normal" in="SourceGraphic" in2="effect2_dropShadow_740_80605" result="shape"/>
</filter>
<clipPath id="clip0_740_80605">
<rect width="38.1068" height="38.1068" fill="white"/>
</clipPath>
</defs>
</svg>
