<svg width="39" height="39" viewBox="0 0 39 39" fill="none" xmlns="http://www.w3.org/2000/svg">
<g clip-path="url(#clip0_5619_431988)">
<g filter="url(#filter0_dd_5619_431988)">
<path d="M-0.000488281 3.95937L3.46377 0.495117H19.0529H34.6421L38.1063 3.95937V19.5485V35.1377L34.6421 38.6019H19.0529H3.46377L-0.000488281 35.1377V19.5485V3.95937Z" fill="#F8F8F8"/>
<path d="M0.432544 19.5485V4.13874L3.64313 0.928149H19.0529H34.4627L37.6733 4.13874V19.5485V34.9583L34.4627 38.1689H19.0529H3.64313L0.432544 34.9583V19.5485Z" stroke="#D0D5DD" stroke-width="0.866064"/>
</g>
<g clip-path="url(#clip1_5619_431988)">
<path d="M19.4791 8.55321C22.0754 8.55321 24.6715 8.55321 27.2675 8.55321C27.4683 8.55321 27.6692 8.54639 27.87 8.5441C28.9467 8.53258 29.65 9.166 29.7625 10.2544C29.7786 10.4098 29.7788 10.5668 29.7805 10.7231C29.8042 12.4584 29.8235 14.194 29.8503 15.9292C29.8876 18.3383 29.9346 20.7472 29.9695 23.1563C29.9952 24.9287 29.7603 26.6828 29.5714 28.439C29.5004 29.0993 29.0531 29.5183 28.5454 29.8736C28.4324 29.9559 28.3075 30.02 28.175 30.0637C27.4243 30.291 26.6881 30.5485 25.8784 30.5349C21.5053 30.4607 17.1319 30.4016 12.7583 30.3574C12.22 30.3571 11.682 30.385 11.1465 30.441C10.0162 30.5467 9.07893 30.1947 8.36087 29.2911C8.15319 29.0338 8.04252 28.7102 8.04858 28.378C8.06863 26.5642 8.09194 24.7506 8.11849 22.937C8.16167 20.2777 8.21479 17.6185 8.25906 14.9591C8.2802 13.692 8.23539 12.4209 8.32229 11.1587C8.40296 9.98804 9.04343 9.25638 10.0452 8.98621C10.8847 8.75967 11.7294 8.77775 12.5725 8.75113C14.874 8.67797 17.1769 8.64889 19.4791 8.60224V8.55321ZM19.4206 14.7089C19.4252 14.7438 19.4318 14.7783 19.4405 14.8124C20.0569 16.6944 20.6796 18.5743 21.2838 20.4604C21.3583 20.6926 21.5077 20.7676 21.693 20.8557C22.9229 21.4406 24.1493 22.033 25.3771 22.6224C25.4726 22.6681 25.5699 22.7102 25.6438 22.7438C25.6902 22.7264 25.7087 22.7255 25.7181 22.7152C26.5943 21.7892 27.4729 20.8656 28.3403 19.9312C28.4293 19.8266 28.4793 19.6938 28.4815 19.5558C28.4725 18.6173 28.4883 17.6755 28.4141 16.7414C28.3171 15.3364 28.3134 13.9265 28.4029 12.521C28.4288 11.898 28.395 11.2739 28.302 10.6575C28.2262 10.1058 28.1503 9.99288 27.6281 9.94551C27.3837 9.92337 27.1403 9.87335 26.8964 9.8674C26.3558 9.85423 25.8139 9.87653 25.2739 9.85275C25.1597 9.84748 25.0457 9.86635 24.939 9.90817C24.8324 9.95 24.7354 10.0139 24.6545 10.0957C22.9215 11.6291 21.184 13.1564 19.4206 14.7089ZM14.4008 9.8707C13.7023 9.8707 13.0247 9.86802 12.347 9.87177C11.992 9.87378 11.6347 9.86265 11.2826 9.89924C10.0311 10.0285 9.43702 10.7082 9.5176 12.0751C9.63151 14.0083 9.66701 15.9488 9.6634 17.886C9.65997 19.7458 9.56331 21.6054 9.50983 23.465C9.50658 23.5777 9.52311 23.6908 9.53088 23.8113L17.2454 18.7209C16.4198 15.737 15.4371 12.8311 14.4008 9.8707ZM17.6021 20.1148C17.5362 20.1464 17.5215 20.1518 17.5085 20.1601C14.8692 21.8361 12.2294 23.5115 9.58933 25.1861C9.52925 25.2201 9.48007 25.2708 9.44764 25.3324C9.41521 25.3938 9.40091 25.4633 9.4064 25.5328C9.40893 26.2675 9.38092 27.0035 9.41597 27.7365C9.44958 28.4393 9.84398 28.9712 10.4307 29.0856C11.0635 29.2248 11.7076 29.3051 12.3548 29.3253C14.9181 29.3415 17.4815 29.314 20.0447 29.301C20.1745 29.3004 20.3043 29.2835 20.4632 29.2721C19.2782 26.2751 18.5785 23.1695 17.6021 20.1148ZM21.9568 22.2678L21.8418 22.3478C22.621 24.6603 23.4002 26.9729 24.1951 29.3321C24.9948 29.3321 25.7832 29.3618 26.5679 29.3197C26.9669 29.2857 27.3589 29.193 27.7314 29.0446C28.1419 28.8936 28.4515 28.5942 28.4782 28.1176C28.5182 27.4018 28.5387 26.6854 28.5397 25.9683C28.5397 25.8721 28.3952 25.7449 28.2883 25.6847C27.7088 25.3578 27.1206 25.0467 26.5347 24.7313C25.009 23.9094 23.483 23.0886 21.9568 22.2678ZM15.5477 9.91295C15.5882 10.0452 15.6128 10.1468 15.6498 10.2436C15.99 11.1318 16.3483 12.0133 16.6706 12.908C17.4373 15.0345 18.0854 17.1982 18.6878 19.3789C19.2939 21.5727 19.9713 23.7467 20.6409 25.922C20.9886 27.0515 21.3872 28.1649 21.7577 29.2704H22.7634C20.3109 22.9067 18.5746 16.3413 16.3806 9.91295H15.5477ZM19.0083 13.5121L23.3414 9.88486H17.6503C18.1154 11.127 18.5612 12.3177 19.0083 13.5121ZM28.5642 24.3225V21.3729L28.4763 21.3444L26.7714 23.3632L28.5642 24.3225Z" fill="#6A0067"/>
<path d="M24.4895 16.7192C24.5914 16.7599 24.6903 16.8078 24.7855 16.8625C25.6633 17.4121 26.5395 17.9644 27.4142 18.5192C27.7756 18.7472 27.8606 19.0581 27.6544 19.4338C27.5927 19.5419 27.5206 19.6436 27.4392 19.7376C27.0308 20.2255 26.6225 20.7136 26.2055 21.194C26.1052 21.3094 25.9653 21.3884 25.855 21.4958C25.5622 21.7817 25.2497 21.7604 24.9251 21.5681C24.4729 21.2999 24.0221 21.0295 23.5728 20.7571C23.2822 20.5804 22.9882 20.4079 22.7088 20.2142C22.2549 19.8993 22.1535 19.4569 22.4615 19.0054C22.9255 18.3251 23.4171 17.6639 23.9013 16.9977C23.9645 16.901 24.0529 16.8238 24.1567 16.7747C24.2605 16.7256 24.3757 16.7063 24.4895 16.7192ZM24.4722 17.7874L23.2256 19.3536L25.255 20.4952L26.534 19.0281L24.4722 17.7874Z" fill="#6A0067"/>
<path d="M14.8834 15.7334C15.0723 15.851 15.3054 15.9321 15.443 16.0956C15.7027 16.4033 15.9301 16.7374 16.1218 17.0925C16.2503 17.3432 16.2879 17.6316 16.228 17.9075C16.1681 18.1833 16.0146 18.4293 15.7942 18.6023C15.3263 18.9575 14.8388 19.2856 14.3341 19.5848C13.8298 19.8823 13.4079 19.7219 13.1709 19.1741C12.9918 18.7606 12.841 18.3403 12.5114 18.0092C12.3496 17.8466 12.3776 17.6303 12.5725 17.4238C12.7678 17.2252 12.9778 17.0421 13.2008 16.8759C13.5914 16.5727 13.9878 16.2774 14.3901 15.9899C14.5488 15.8934 14.7135 15.8078 14.8834 15.7334ZM14.0065 18.4198L15.1109 17.7022L14.6773 17.0985L13.546 17.8245L14.0065 18.4198Z" fill="#6A0067"/>
<path d="M13.4209 23.367C13.7687 23.3433 13.9837 23.4517 14.1075 23.6603C14.3757 24.1139 14.6565 24.5685 14.8504 25.0561C15.0415 25.537 14.7626 25.969 14.4319 26.2606C13.9468 26.6717 13.4275 27.0395 12.8797 27.3599C12.4522 27.6209 12.1119 27.5133 11.853 27.0875C11.5864 26.6485 11.3391 26.1968 11.1027 25.7403C10.8997 25.3483 10.9701 24.9769 11.2969 24.6817C11.4724 24.5289 11.6601 24.391 11.858 24.2696C12.2628 24.0113 12.672 23.7603 13.0858 23.5165C13.1937 23.4583 13.3057 23.4084 13.4209 23.367ZM13.3532 24.6108L12.0103 25.3277L12.6816 26.1458L13.7333 25.4527L13.3532 24.6108Z" fill="#6A0067"/>
</g>
</g>
<defs>
<filter id="filter0_dd_5619_431988" x="-6.00049" y="-1.50488" width="50.1068" height="50.1069" filterUnits="userSpaceOnUse" color-interpolation-filters="sRGB">
<feFlood flood-opacity="0" result="BackgroundImageFix"/>
<feColorMatrix in="SourceAlpha" type="matrix" values="0 0 0 0 0 0 0 0 0 0 0 0 0 0 0 0 0 0 127 0" result="hardAlpha"/>
<feMorphology radius="2" operator="erode" in="SourceAlpha" result="effect1_dropShadow_5619_431988"/>
<feOffset dy="2"/>
<feGaussianBlur stdDeviation="2"/>
<feColorMatrix type="matrix" values="0 0 0 0 0.0627451 0 0 0 0 0.0941176 0 0 0 0 0.156863 0 0 0 0.06 0"/>
<feBlend mode="normal" in2="BackgroundImageFix" result="effect1_dropShadow_5619_431988"/>
<feColorMatrix in="SourceAlpha" type="matrix" values="0 0 0 0 0 0 0 0 0 0 0 0 0 0 0 0 0 0 127 0" result="hardAlpha"/>
<feMorphology radius="2" operator="erode" in="SourceAlpha" result="effect2_dropShadow_5619_431988"/>
<feOffset dy="4"/>
<feGaussianBlur stdDeviation="4"/>
<feColorMatrix type="matrix" values="0 0 0 0 0.0627451 0 0 0 0 0.0941176 0 0 0 0 0.156863 0 0 0 0.1 0"/>
<feBlend mode="normal" in2="effect1_dropShadow_5619_431988" result="effect2_dropShadow_5619_431988"/>
<feBlend mode="normal" in="SourceGraphic" in2="effect2_dropShadow_5619_431988" result="shape"/>
</filter>
<clipPath id="clip0_5619_431988">
<rect width="38.1068" height="38.1068" fill="white" transform="translate(0 0.495117)"/>
</clipPath>
<clipPath id="clip1_5619_431988">
<rect width="22.0417" height="22.0417" fill="white" transform="translate(8 8.49512)"/>
</clipPath>
</defs>
</svg>
