<svg width="42" height="53" viewBox="0 0 42 53" fill="none" xmlns="http://www.w3.org/2000/svg">
<path d="M28.9002 40.3062C25.0944 39.7248 20.9785 40.3801 20.5078 40.459C20.0378 40.3801 15.921 39.7248 12.1151 40.3062C8.07223 40.9235 6.05078 42.8627 6.05078 42.8627C6.05078 42.8627 6.7538 46.3909 8.59817 47.9787C8.59817 47.9787 15.6731 46.2254 20.5063 46.2148C25.3392 46.2254 32.4144 47.9787 32.4144 47.9787C34.26 46.3909 34.9618 42.8627 34.9618 42.8627C34.9618 42.8627 32.9431 40.9235 28.9002 40.3062Z" fill="url(#paint0_linear_565_86224)"/>
<path d="M32.4562 48.1664L32.372 48.1458C32.3015 48.1283 25.2608 46.3971 20.5049 46.3865C15.7488 46.3971 8.70837 48.1283 8.63785 48.1458L8.55366 48.1664L8.4878 48.11C6.61951 46.5028 5.91276 43.0453 5.88356 42.8988L5.86523 42.8078L5.93202 42.7435C6.01621 42.6631 8.03859 40.7592 12.0877 40.1409C13.1309 39.9816 14.2909 39.9009 15.536 39.9009C18.0073 39.9009 20.0523 40.2145 20.5065 40.2893C20.9604 40.2145 23.0057 39.9009 25.477 39.9009C26.7196 39.9009 27.8812 39.9816 28.9253 40.1409C32.9744 40.7592 34.9968 42.6631 35.081 42.7435L35.1478 42.8078L35.1297 42.8988C35.1005 43.0453 34.3935 46.5028 32.5252 48.11L32.4562 48.1664ZM6.23274 42.9262C6.357 43.4843 7.07151 46.3868 8.64126 47.7969C9.46357 47.5983 15.9923 46.0589 20.5037 46.0489C25.016 46.0589 31.5448 47.5983 32.3671 47.7969C33.9368 46.3856 34.6504 43.4843 34.7759 42.9262C34.391 42.5945 32.404 41.0145 28.8712 40.4748C27.8461 40.319 26.7019 40.2385 25.4745 40.2385C22.9756 40.2385 20.919 40.5624 20.532 40.6273L20.5043 40.632L20.4764 40.6273C20.0896 40.5624 18.033 40.2385 15.5338 40.2385C14.3067 40.2385 13.1638 40.318 12.1371 40.4748C8.60461 41.0145 6.61764 42.5942 6.23274 42.9262Z" fill="white"/>
<path d="M38.9193 37.3657C38.9193 37.3657 35.7546 36.4537 31.6229 35.3598C27.8242 34.3534 21.4979 34.5804 20.506 34.624C19.5138 34.581 13.1876 34.3534 9.38885 35.3598C5.25712 36.4537 2.09401 37.3657 2.09401 37.3657C2.09401 37.3657 1.91818 41.1951 3.8517 43.6571C3.8517 43.6571 9.03719 41.2877 12.9046 40.9216C16.5259 40.5787 20.0702 40.4783 20.506 40.4668C20.9409 40.4783 24.4858 40.58 28.1075 40.9216C31.9745 41.2864 37.16 43.6571 37.16 43.6571C39.0948 41.1951 38.9193 37.3657 38.9193 37.3657Z" fill="url(#paint1_linear_565_86224)"/>
<path d="M37.2123 43.867L37.092 43.8121C37.0405 43.7884 31.8873 41.4489 28.0932 41.091C24.4809 40.7506 20.9242 40.6483 20.5076 40.6371C20.0907 40.6483 16.5343 40.7503 12.9217 41.091C9.12763 41.4489 3.97476 43.7884 3.92319 43.8121L3.80297 43.867L3.72095 43.7628C1.77096 41.28 1.91914 37.5182 1.92753 37.3592L1.93281 37.2379L2.049 37.2046C2.08007 37.1955 5.26212 36.2799 9.34757 35.1977C11.8232 34.543 15.3485 34.4043 17.8701 34.4043C19.1597 34.4043 20.1379 34.4405 20.5076 34.4564C20.8761 34.4405 21.8552 34.4043 23.1448 34.4043C25.6664 34.4043 29.1917 34.5421 31.6673 35.1977C35.7528 36.2799 38.9342 37.1955 38.9659 37.2046L39.0821 37.2379L39.0877 37.3592C39.0948 37.5182 39.243 41.28 37.294 43.7628L37.2123 43.867ZM2.26087 37.4951C2.25279 38.1498 2.30187 41.3086 3.9058 43.4498C4.71568 43.0913 9.3687 41.087 12.8903 40.7546C16.5269 40.4117 20.1069 40.3097 20.5014 40.2991H20.5104C20.9065 40.3097 24.4868 40.4117 28.1231 40.7546C31.6447 41.087 36.2977 43.0929 37.1076 43.4498C38.7115 41.3086 38.7606 38.1498 38.754 37.4951C38.1399 37.3193 35.2194 36.4878 31.5816 35.5245C29.1408 34.8779 25.6465 34.7422 23.1448 34.7422C21.8534 34.7422 20.877 34.7787 20.5148 34.7943H20.5017C20.1413 34.7787 19.1634 34.7422 17.8717 34.7422C15.37 34.7422 11.876 34.8779 9.43487 35.5245C5.79521 36.4881 2.87504 37.318 2.26087 37.4951Z" fill="white"/>
<path d="M39.533 32.9854L38.3904 30.3395L35.6659 29.4575L20.5059 32.6063L5.3458 29.4575L2.62103 30.3395L1.47843 32.9854L0.6875 38.1012C0.6875 38.1012 5.69715 36.249 10.7947 35.4552C14.5347 34.8729 19.2204 34.9034 20.3729 34.9212V34.9262L20.5059 34.9234L20.6385 34.9262V34.9212C21.791 34.9034 26.4767 34.8729 30.2167 35.4552C35.3143 36.249 40.3239 38.1012 40.3239 38.1012L39.533 32.9854Z" fill="url(#paint2_linear_565_86224)"/>
<path d="M40.5354 38.3603L40.267 38.2611C40.217 38.2427 35.2136 36.4055 30.1921 35.6236C27.1787 35.1541 23.544 35.0839 21.649 35.0839C21.3045 35.0839 21.0193 35.0864 20.8103 35.0889V35.1005L20.6378 35.0961L20.5092 35.0936L20.3803 35.0961L20.2079 35.1005V35.0889C19.9979 35.0864 19.7108 35.0839 19.3691 35.0839C17.4716 35.0839 13.8394 35.1541 10.8261 35.6236C5.80429 36.4055 0.800845 38.2424 0.750829 38.2611L0.482422 38.3603L1.3212 32.9396L1.32989 32.9197L2.50262 30.2033L5.34234 29.2842L5.38552 29.2932L20.5117 32.4339L35.6811 29.2851L38.5205 30.2042L39.701 32.9406L39.7044 32.9618L40.5354 38.3603ZM21.6475 34.7463C23.5543 34.7463 27.2067 34.8168 30.243 35.2897C34.6329 35.9734 39.0061 37.4571 40.1148 37.848L39.3692 33.0341L38.2654 30.4776L35.6559 29.6327L20.5055 32.7787L20.4713 32.7716L5.35476 29.6327L2.74525 30.4776L1.64148 33.0341L0.898702 37.8493C2.00744 37.4583 6.38086 35.9746 10.7704 35.2909C13.8068 34.818 17.4592 34.7475 19.3663 34.7475C19.814 34.7475 20.1632 34.7513 20.3769 34.7547L20.5074 34.7566L20.6375 34.7547C20.8513 34.75 21.2001 34.7463 21.6481 34.7463H21.6475Z" fill="white"/>
<path d="M8.94925 30.9259L9.70073 34.5087C9.70073 34.5087 11.8132 36.913 14.7268 37.1016C17.6405 37.2903 26.2354 37.5727 28.0205 36.8656C29.8055 36.1586 31.2147 33.7545 31.2147 33.7545L31.6844 29.9822L8.90234 30.0757L8.94925 30.9259Z" fill="url(#paint3_linear_565_86224)"/>
<path d="M18.0093 33.6863C17.6576 34.8329 17.6576 35.4502 16.6909 35.8031C15.9664 36.0675 15.2929 36.3815 14.6657 36.3366C14.6655 36.3349 14.6655 36.3332 14.6657 36.3316L14.6635 36.3366C14.4491 36.3226 14.2404 36.2608 14.0528 36.1557C13.2615 35.7149 12.0313 35.0094 11.4159 35.0094C10.8005 35.0094 10.4492 32.8922 9.92198 32.716C9.3948 32.5399 8.8673 33.0686 8.95491 33.6863C9.01859 34.1321 9.63245 36.879 9.96827 38.3702C9.94193 38.4175 9.91828 38.4662 9.89744 38.5161L9.99623 38.4952C10.1099 38.9987 10.1854 39.3311 10.1854 39.3311C10.1854 39.3311 10.5203 41.0523 11.2184 42.6121C11.2283 42.6654 11.2382 42.7181 11.2494 42.7708L11.2805 42.7468C11.5831 43.3983 11.9496 44.0119 12.3833 44.4471C12.4583 44.5222 12.528 44.5959 12.5924 44.6685C12.5818 44.7411 12.571 44.8144 12.5591 44.8867C12.2075 47.0918 13.5259 50.3554 13.5259 50.3554C13.5259 50.3554 13.5259 48.6796 13.438 47.0918C13.4256 46.8677 13.4467 46.5905 13.4886 46.2775C13.6694 46.8649 13.7623 47.3755 14.3172 47.8859C14.9745 48.4907 15.3246 48.684 15.4952 48.7442C15.5935 48.7786 15.6752 48.8491 15.7238 48.9415C16.1373 49.7269 17.9661 52.9009 20.4644 52.8286C23.315 52.9106 25.2936 48.7679 25.2936 48.7679C25.2936 48.7679 25.5573 48.8561 26.612 47.8859C27.1218 47.4182 27.2414 46.9475 27.398 46.4187C27.4276 46.6418 27.4386 46.8669 27.4309 47.0918C27.343 48.6796 27.343 50.3554 27.343 50.3554C27.343 50.3554 28.6614 47.0918 28.3098 44.8867C28.3011 44.8328 28.293 44.7792 28.2852 44.7255C28.3641 44.6345 28.4505 44.5413 28.5455 44.4449C30.0398 42.9454 30.7428 39.3289 30.7428 39.3289C30.7428 39.3289 30.8171 39.0022 30.9292 38.5049L30.9708 38.5139C30.9615 38.4918 30.9519 38.4703 30.942 38.4491C31.2734 36.9788 31.9087 34.1383 31.9733 33.6841C32.0613 33.0665 31.5338 32.5374 31.0066 32.7139C30.4794 32.8903 30.1277 35.0072 29.5123 35.0072C28.8969 35.0072 27.6667 35.7127 26.8758 36.1536C26.6705 36.2679 26.4407 36.3309 26.206 36.3372L26.2026 36.3294C26.2035 36.3319 26.2044 36.3345 26.2051 36.3372C25.5962 36.3593 24.9407 36.0566 24.2389 35.801C23.2721 35.448 23.2722 34.8307 22.9205 33.6841L18.0093 33.6863Z" fill="white"/>
<path d="M27.6086 40.0379C27.6086 40.0379 25.9027 39.7732 25.3644 40.7434L25.1848 42.6838C25.1848 42.6838 23.1202 43.3014 22.8509 42.9485C22.8509 42.9485 21.2354 43.4785 20.4277 43.125V44.9772L22.223 44.8889L23.7493 44.5363L25.0957 44.3599L25.365 45.4199C25.365 45.4199 26.7114 44.6258 27.4296 45.8607C27.4296 45.8607 26.7114 43.3912 26.7114 42.0681C26.7114 40.745 27.6086 40.0379 27.6086 40.0379Z" fill="#C80000"/>
<path d="M20.5504 52.9983C20.5221 52.9983 20.4935 52.9983 20.4649 52.9983H20.4472C18.0862 52.9983 16.4255 50.1962 15.8806 49.2752C15.8293 49.1892 15.7771 49.1009 15.7423 49.0467C15.5848 49.0111 15.107 48.8394 14.2064 48.011C13.6861 47.5321 13.5444 47.0508 13.3947 46.541C13.222 45.9524 13.043 45.3442 12.2676 44.566C10.7628 43.0558 10.062 39.5513 10.0247 39.3658C9.96939 39.1248 8.87867 34.3236 8.79106 33.7082C8.76818 33.5531 8.77875 33.3949 8.82206 33.2443C8.86536 33.0937 8.94039 32.9542 9.04208 32.8352C9.12473 32.736 9.22766 32.6556 9.3439 32.5997C9.46015 32.5438 9.587 32.5135 9.71589 32.511C9.80493 32.511 9.89337 32.5256 9.97777 32.554C10.294 32.6597 10.5015 33.1585 10.7417 33.7362C10.924 34.1752 11.1999 34.8386 11.4186 34.8386C12.0467 34.8386 13.1841 35.474 14.0148 35.9382L14.1372 36.0065C14.3367 36.1171 14.5616 36.1735 14.7895 36.1702C15.244 36.1702 15.7439 35.9797 16.2732 35.7783C16.3925 35.7328 16.5131 35.6869 16.6348 35.6427C17.3612 35.3777 17.4736 34.9718 17.6979 34.1633C17.7417 34.005 17.7911 33.8257 17.8498 33.6333C18.1605 32.6245 19.7274 32.2491 20.3873 32.1344L20.4158 32.1294L20.4447 32.1344C21.3043 32.2837 22.7905 32.6772 23.0853 33.6333C23.144 33.8245 23.1937 34.0037 23.2375 34.1633C23.4615 34.9718 23.574 35.3792 24.3003 35.6427C24.4224 35.6869 24.5429 35.7331 24.6622 35.7783C25.1903 35.98 25.6914 36.1702 26.1459 36.1702C26.3739 36.1736 26.5988 36.1172 26.7983 36.0065L26.9207 35.9382C27.7514 35.474 28.8887 34.8386 29.5168 34.8386C29.7343 34.8386 30.0114 34.1752 30.1941 33.7362C30.4342 33.1585 30.6414 32.6597 30.958 32.554C31.0423 32.5256 31.1306 32.511 31.2196 32.511C31.3485 32.5135 31.4754 32.5437 31.5917 32.5996C31.708 32.6556 31.811 32.7359 31.8937 32.8352C31.9954 32.9542 32.0704 33.0937 32.1137 33.2443C32.1569 33.3949 32.1674 33.5531 32.1444 33.7082C32.0571 34.3233 30.9664 39.1254 30.912 39.3645C30.876 39.5516 30.1739 43.0546 28.6691 44.5648C27.894 45.3442 27.715 45.9512 27.542 46.5398C27.3923 47.0495 27.2509 47.5309 26.7303 48.0098C26.222 48.4774 25.8203 48.7723 25.5364 48.8871C25.451 48.9203 25.38 48.9827 25.3357 49.0632C24.8405 49.9863 23.0393 52.9983 20.5504 52.9983ZM20.4696 52.6591H20.4727C20.4988 52.6591 20.5252 52.6591 20.5513 52.6591C22.8536 52.6591 24.5672 49.7837 25.0378 48.9023C25.1197 48.7518 25.2516 48.635 25.4106 48.5722C25.5491 48.5164 25.8766 48.3365 26.5025 47.7594C26.9539 47.3441 27.0766 46.9264 27.2189 46.4431C27.3951 45.8433 27.5948 45.1649 28.4305 44.3231C29.8716 42.8769 30.574 39.3299 30.5815 39.2944V39.2891C30.593 39.2389 31.7234 34.2612 31.8095 33.6577C31.8256 33.5505 31.8185 33.4411 31.7888 33.337C31.7591 33.2328 31.7075 33.1362 31.6374 33.0538C31.4842 32.8767 31.2646 32.8044 31.0624 32.8717C30.8915 32.9288 30.6666 33.469 30.5032 33.8637C30.2236 34.5375 29.9586 35.1732 29.5153 35.1732C28.9748 35.1732 27.8362 35.8095 27.0829 36.2303L26.9605 36.2986C26.7112 36.4375 26.4301 36.5087 26.145 36.505C25.6287 36.505 25.1009 36.3039 24.542 36.091C24.4243 36.0464 24.305 36.0009 24.1844 35.9569C23.2953 35.6324 23.1428 35.084 22.9107 34.2506C22.8654 34.087 22.8175 33.9174 22.7613 33.7309C22.5156 32.93 21.0617 32.5852 20.4152 32.4705C19.9182 32.5596 18.427 32.8945 18.1707 33.7309C18.1136 33.918 18.0667 34.087 18.021 34.251C17.7905 35.0827 17.638 35.6324 16.7473 35.9569C16.6271 36.0009 16.5078 36.0461 16.39 36.091C15.8309 36.3039 15.3027 36.5047 14.7871 36.505C14.502 36.5087 14.2208 36.4375 13.9716 36.2986L13.8473 36.23C13.0943 35.8092 11.9557 35.1732 11.4152 35.1732C10.9722 35.1732 10.7075 34.5372 10.4276 33.8637C10.2636 33.469 10.039 32.9284 9.86842 32.8717C9.66774 32.8047 9.44686 32.8767 9.29371 33.0538C9.22355 33.1362 9.17187 33.2327 9.14218 33.3369C9.11248 33.4411 9.10547 33.5505 9.1216 33.6577C9.20734 34.2612 10.3381 39.2383 10.3496 39.2891V39.2944C10.3565 39.3299 11.0607 42.8778 12.5006 44.3231C13.3366 45.1618 13.5363 45.8417 13.7122 46.4431C13.8541 46.9264 13.9769 47.3441 14.4286 47.7594C15.2161 48.4839 15.6401 48.6635 15.774 48.7047C15.786 48.7019 15.7983 48.7006 15.8107 48.7006C15.9275 48.7006 15.9588 48.7536 16.1642 49.1C16.6858 49.9801 18.2736 52.6579 20.4426 52.6579L20.4696 52.6591Z" fill="#7D330A"/>
<path d="M13.6955 51.2239L13.3712 50.4211C13.3165 50.2861 12.0394 47.0883 12.3942 44.8623C12.7359 42.7086 12.4846 41.051 12.4821 41.0342L12.4784 41.0114L12.4812 40.9883C12.4861 40.9456 12.6113 39.9436 13.2889 39.9436C13.5042 39.9436 13.7328 40.0474 13.9879 40.2607C14.7334 40.8842 14.3451 42.7794 13.9695 44.612C13.7679 45.5956 13.5778 46.525 13.6086 47.0846C13.6958 48.6587 13.6968 50.3406 13.6968 50.3581L13.6955 51.2239ZM12.8186 41.0077C12.8518 41.2365 13.059 42.8315 12.7254 44.9156C12.4998 46.3307 12.9882 48.2203 13.3467 49.3427C13.3358 48.7229 13.3137 47.8995 13.2696 47.1042C13.2364 46.5006 13.4309 45.5507 13.6371 44.5449C13.9593 42.9724 14.3603 41.0154 13.7695 40.5213C13.5831 40.3654 13.4156 40.2825 13.2861 40.2825C12.95 40.2809 12.8366 40.8879 12.8176 41.0077H12.8186Z" fill="#7D330A"/>
<path d="M19.5571 43.489C18.8899 43.489 18.1421 43.2159 17.9203 43.1286C17.7745 43.178 17.6215 43.2022 17.4677 43.2003C16.9787 43.2003 16.5009 42.9917 16.3804 42.9353L15.4764 42.8343L15.3496 40.5469L15.6845 40.9918C15.6864 40.9939 15.9287 41.3035 16.4751 41.4594C16.961 41.5991 19.3981 41.6293 20.2962 41.6293H20.4646V43.2059L20.3972 43.2564C20.1924 43.4098 19.9094 43.489 19.5571 43.489ZM17.9212 42.762L17.9871 42.7897C17.9958 42.7931 18.8492 43.1495 19.5575 43.1498C19.7954 43.1498 19.9865 43.1096 20.1266 43.0304V41.9673C19.4431 41.9645 16.9368 41.9439 16.3816 41.7846C16.1529 41.7206 15.9359 41.62 15.7392 41.4865L15.797 42.5284L16.4761 42.6045L16.5031 42.6179C16.5077 42.6201 16.9955 42.8611 17.468 42.8611C17.6007 42.8639 17.7325 42.8397 17.8557 42.79L17.9212 42.762Z" fill="#7D330A"/>
<path d="M18.138 46.5198L18.0758 46.5114C17.8335 46.4783 15.6971 46.1719 15.3153 45.5016L15.301 45.4763L15.2958 45.4479C15.275 45.332 15.1075 44.3109 15.6922 44.1937C15.7727 44.1785 15.8544 44.1713 15.9363 44.1722C16.4002 44.1722 17.0196 44.3524 17.0858 44.3724L18.5602 44.7203L20.6388 44.8138V46.2058L20.4663 46.2018C20.4663 46.2018 20.3949 46.1999 20.2799 46.1999C19.2526 46.1999 18.4527 46.3084 18.192 46.483L18.138 46.5198ZM15.6216 45.3566C15.8817 45.7345 17.2215 46.0487 18.0622 46.1672C18.5409 45.9031 19.6465 45.8626 20.2793 45.8626H20.3026V45.1368L18.5142 45.0551L16.9948 44.6963C16.9885 44.6944 16.3669 44.5092 15.936 44.5092C15.8764 44.5084 15.8168 44.5133 15.758 44.5239C15.5685 44.5625 15.5744 45.0679 15.6216 45.3566Z" fill="#7D330A"/>
<path d="M13.2637 40.0379C13.2637 40.0379 14.986 39.7732 15.5296 40.7434L15.711 42.6838C15.711 42.6838 17.7955 43.3014 18.0677 42.9485C18.0677 42.9485 19.6989 43.4785 20.5147 43.125V44.9772L18.702 44.8889L17.1612 44.5363L15.8017 44.3599L15.5296 45.4199C15.5296 45.4199 14.1702 44.6258 13.4451 45.8607C13.4451 45.8607 14.1702 43.3912 14.1702 42.0681C14.1702 40.745 13.2637 40.0379 13.2637 40.0379Z" fill="#C80000"/>
<path d="M16.1783 47.27C15.896 47.2675 15.6147 47.2339 15.3396 47.17C13.6216 46.7871 13.8888 45.0543 13.8916 45.0369L14.224 45.092C14.2144 45.1507 14.009 46.5262 15.4126 46.8401C16.5421 47.0923 17.0802 46.7881 17.6002 46.4937C17.7691 46.392 17.9457 46.3036 18.1283 46.2294C18.8559 45.9556 20.4157 46.0389 20.4819 46.0423L20.4632 46.3796C20.4477 46.3796 18.9081 46.2967 18.2464 46.5455C18.0798 46.6139 17.9186 46.6949 17.7642 46.7877C17.3741 47.0088 16.9121 47.27 16.1783 47.27Z" fill="#7D330A"/>
<path d="M16.0783 48.9034C15.822 48.9034 15.6481 48.89 15.627 48.8885L15.6462 48.6478C15.6621 48.6478 17.2122 48.7675 18.0473 48.2646C18.9429 47.7256 20.4055 47.6788 20.4673 47.6772L20.4741 47.9186C20.4595 47.9186 19.0122 47.965 18.1709 48.4716C17.5561 48.842 16.6279 48.9034 16.0783 48.9034Z" fill="#7D330A"/>
<path d="M17.8399 41.784L17.752 42.9307L18.0877 42.9566L18.1756 41.8099L17.8399 41.784Z" fill="#7D330A"/>
<path d="M16.5965 41.6245H16.2598V42.7712H16.5965V41.6245Z" fill="#7D330A"/>
<path d="M16.8925 44.4559L16.1895 45.8672L16.4907 46.0183L17.1937 44.607L16.8925 44.4559Z" fill="#7D330A"/>
<path d="M18.7059 44.8875H18.3691V46.1224H18.7059V44.8875Z" fill="#7D330A"/>
<path d="M18.3621 36.9909C18.4553 36.4369 17.8846 35.9309 17.3534 36.0831C16.6967 36.2701 16.3263 37.0408 16.1993 37.6584C16.0645 38.3131 16.1847 39.0645 16.7175 39.5128C16.9971 39.7479 17.3462 39.8059 17.701 39.8059C17.8824 39.8059 18.0639 39.7937 18.2453 39.8002C18.4391 39.8074 18.6432 39.8913 18.8318 39.8741C18.925 39.8657 18.9116 39.6356 18.8657 39.5876C18.5224 39.2272 17.8368 39.4317 17.3928 39.379C17.1072 39.3438 16.8433 39.2079 16.6483 38.9954C16.4534 38.783 16.34 38.5079 16.3285 38.2193C16.3049 37.6659 16.5879 36.9859 17.043 36.6564C17.2428 36.5127 17.4739 36.4419 17.7187 36.4834C17.9803 36.5283 18.2589 36.6676 18.2714 36.9632C18.2751 37.053 18.3403 37.1128 18.3608 36.9909H18.3621Z" fill="#7D330A"/>
<path d="M16.3571 38.8718C16.8504 38.768 17.3673 38.5691 17.856 38.8132C18.2536 39.0115 18.4388 39.4295 18.6696 39.7843C18.8945 40.1294 19.1533 40.4372 19.5199 40.6367C19.8784 40.8319 20.3674 40.9827 20.7473 40.7742C20.8128 40.7383 20.806 40.5453 20.7324 40.5248C20.5196 40.4624 20.3018 40.4596 20.0862 40.4138C19.847 40.3628 19.6194 40.2676 19.4149 40.1332C19.0371 39.8838 18.8408 39.5072 18.5746 39.1574C18.3468 38.8581 18.0853 38.5678 17.7125 38.4606C17.2704 38.3334 16.755 38.4702 16.3437 38.6476C16.2894 38.6713 16.2956 38.8849 16.3571 38.8721V38.8718Z" fill="#7D330A"/>
<path d="M20.4481 38.9928C20.1751 38.7596 19.8601 38.5765 19.5858 38.3412C19.3115 38.1058 19.0489 37.847 18.834 37.5505C18.6293 37.2699 18.4494 36.9582 18.3503 36.6215C18.2614 36.32 18.3018 36.1139 18.5677 35.9328C18.6575 35.8704 18.692 35.4913 18.5413 35.4854C18.1713 35.4711 18.0791 35.9914 18.0694 36.2704C18.0542 36.7003 18.2002 37.1162 18.4081 37.4863C18.6286 37.8791 18.9377 38.2199 19.276 38.5151C19.5904 38.7885 20.0179 39.1206 20.4367 39.201C20.5062 39.2141 20.4808 39.0208 20.4488 38.9937L20.4481 38.9928Z" fill="#7D330A"/>
<path d="M20.463 37.309C20.0309 36.8211 19.4518 36.4813 19.0156 35.9899C18.8019 35.7493 18.5807 35.4656 18.4875 35.1541C18.3713 34.7778 18.6006 34.5992 18.8407 34.3613C18.8951 34.3074 18.9029 34.0623 18.8038 34.0495C18.4816 34.0068 18.3067 34.4913 18.2719 34.7385C18.216 35.1245 18.331 35.4974 18.5326 35.8241C18.7482 36.1742 19.0296 36.4626 19.344 36.7248C19.678 37.0054 20.0411 37.3171 20.4251 37.5245C20.5 37.5647 20.4953 37.3439 20.4645 37.3093L20.463 37.309Z" fill="#7D330A"/>
<path d="M20.4593 36.0853C19.8007 35.4673 17.9324 33.4786 19.5273 32.9018C19.6332 32.8638 19.6124 32.5433 19.5043 32.5168C19.1414 32.4279 18.8671 32.741 18.7435 33.0499C18.5798 33.4586 18.6317 33.9394 18.782 34.3431C19.0893 35.1684 19.751 35.9047 20.4139 36.4631C20.4999 36.5358 20.545 36.1651 20.4596 36.0849L20.4593 36.0853Z" fill="#7D330A"/>
<path d="M19.6267 32.4254C19.0675 33.3049 19.7916 34.3565 20.385 35.0015C20.467 35.091 20.5092 34.8086 20.4505 34.7459C19.919 34.1679 19.3179 33.3947 19.6761 32.5713C19.6904 32.5383 19.6674 32.3615 19.6267 32.4254Z" fill="#7D330A"/>
<path d="M16.5996 36.914C17.3632 37.1076 17.8748 37.7832 18.1992 38.4657C18.3638 38.8117 18.5002 39.1718 18.6564 39.5216C18.7941 39.8296 18.9519 40.1972 19.2119 40.4211C19.26 40.4625 19.2644 40.2854 19.2523 40.2624C19.05 39.877 18.8174 39.5141 18.6369 39.1163C18.4735 38.7587 18.3163 38.3993 18.1218 38.0563C17.7801 37.4559 17.2933 36.9097 16.5996 36.7441C16.5567 36.7338 16.544 36.9 16.5996 36.9137V36.914Z" fill="#7D330A"/>
<path d="M11.2827 42.75C11.1392 41.9644 11.0963 41.078 11.4604 40.3419C11.7487 39.7568 12.2992 39.2579 12.9572 39.1616C13.3517 39.1039 13.7472 39.1956 14.1131 39.3415C14.4452 39.474 14.7512 39.6738 15.0939 39.778C15.3663 39.8615 15.6739 39.8627 15.8969 39.6617C16.1116 39.4684 16.2107 39.1628 16.3343 38.9106C16.3849 38.8074 16.2834 38.554 16.2355 38.7363C16.1293 39.1416 15.886 39.5469 15.4141 39.5395C15.0181 39.5317 14.6583 39.2692 14.3063 39.1139C13.6518 38.8255 12.9394 38.718 12.2986 39.0955C11.0093 39.8534 10.9335 41.5005 11.2231 42.8055C11.2423 42.8919 11.2914 42.7943 11.2827 42.7478V42.75Z" fill="#7D330A"/>
<path d="M11.2748 37.5673C11.2853 37.1408 11.3009 36.7143 11.3058 36.289C11.3118 35.8878 11.3562 35.4619 11.2962 35.0644C11.2788 34.9488 11.203 34.9491 11.1853 35.0644C11.1254 35.4622 11.1698 35.8878 11.1754 36.289C11.1816 36.7158 11.1968 37.1423 11.2064 37.5673C11.2086 37.6571 11.2707 37.658 11.2729 37.5673H11.2748Z" fill="#7D330A"/>
<path d="M13.8182 38.4459C14.0128 38.1189 14.1878 37.7806 14.3423 37.4327C14.4836 37.1072 14.7011 36.7294 14.7346 36.3749C14.7384 36.3344 14.712 36.0996 14.6334 36.1975C14.5368 36.3175 14.5215 36.4815 14.4759 36.6259C14.4113 36.8291 14.333 37.028 14.2513 37.2251C14.1012 37.5877 13.9431 37.949 13.7691 38.3004C13.7505 38.3381 13.7828 38.5071 13.8182 38.4459Z" fill="#7D330A"/>
<path d="M17.4846 48.7428C18.2613 48.7908 18.8515 49.1693 19.1336 49.9197C19.2662 50.2738 19.4464 50.9285 19.1734 51.2534C18.9326 51.539 18.4936 51.5028 18.1998 51.3329C17.872 51.1434 17.5561 50.7683 17.5073 50.3808C17.4613 50.0138 17.7825 49.6665 18.1494 49.6637C18.5222 49.6637 18.694 50.0251 18.7726 50.3387C18.8015 50.4547 18.8291 50.6102 18.7415 50.7128C18.6729 50.7948 18.4974 50.7642 18.4178 50.7243C18.2209 50.6258 18.1746 50.4014 18.1252 50.2056C18.087 50.0537 18.0118 50.2289 18.0221 50.305C18.064 50.619 18.2209 51.0685 18.617 51.0243C18.9839 50.9837 18.9497 50.5254 18.8907 50.2636C18.8152 49.9309 18.6943 49.5122 18.3374 49.3866C18.0174 49.2743 17.6685 49.4751 17.5014 49.7485C17.0842 50.4303 17.6129 51.432 18.3004 51.6942C18.639 51.8239 19.0584 51.75 19.2712 51.4336C19.484 51.1172 19.4309 50.6726 19.3688 50.3212C19.2085 49.4171 18.5322 48.3855 17.4843 48.527C17.4188 48.5361 17.4175 48.7356 17.4843 48.74L17.4846 48.7428Z" fill="#7D330A"/>
<path d="M9.93117 38.5868C10.2269 37.9361 10.9324 37.6312 11.6193 37.6325C12.4466 37.6325 13.1415 38.0558 13.8187 38.4801C14.3807 38.8312 15.0284 39.0993 15.6233 38.6628C16.0893 38.3199 16.3807 37.7182 16.5314 37.1723C16.5429 37.1305 16.5131 36.9475 16.4602 37.0476C16.1807 37.5776 15.9666 38.2703 15.3459 38.4945C14.5755 38.7726 13.8933 38.1079 13.2748 37.7612C12.6563 37.4145 11.9079 37.1845 11.1974 37.3537C10.6258 37.49 10.1039 37.9021 9.86935 38.4449C9.84791 38.4945 9.88675 38.6831 9.93148 38.5855L9.93117 38.5868Z" fill="#7D330A"/>
<path d="M12.096 39.3218C11.6732 39.7062 11.5057 40.3528 11.6141 40.9068C11.7182 41.434 12.1643 42.1099 12.7437 42.1829C12.8288 42.1935 12.8167 41.9419 12.7598 41.9095C12.5713 41.801 12.3815 41.7305 12.214 41.5846C12.0309 41.4253 11.8879 41.2248 11.7968 40.9994C11.5794 40.4576 11.7707 39.9083 12.1252 39.479C12.1506 39.4478 12.1333 39.2882 12.096 39.3231V39.3218Z" fill="#7D330A"/>
<path d="M27.1764 51.2245V50.3581C27.1764 50.3413 27.1764 48.6593 27.2646 47.0846C27.2957 46.5234 27.1052 45.5956 26.9036 44.612C26.528 42.7794 26.1397 40.8845 26.8853 40.2607C27.1403 40.0474 27.369 39.9436 27.5843 39.9436C28.2606 39.9436 28.3858 40.9456 28.392 40.9883L28.3948 41.0114L28.391 41.0342C28.3885 41.051 28.136 42.7124 28.4789 44.8623C28.8337 47.0883 27.5566 50.287 27.5019 50.4211L27.1764 51.2245ZM27.5833 40.2816C27.4538 40.2816 27.2866 40.3642 27.0999 40.5204C26.5097 41.0145 26.9101 42.9715 27.2323 44.544C27.4386 45.5498 27.633 46.4997 27.5998 47.1033C27.5557 47.8986 27.5339 48.7216 27.5231 49.3411C27.8812 48.2188 28.3696 46.3298 28.1444 44.9156C27.812 42.8315 28.0201 41.2368 28.0512 41.0077C28.0344 40.8889 27.9213 40.2816 27.5833 40.2816Z" fill="#7D330A"/>
<path d="M21.3144 43.4936C20.9615 43.4936 20.6791 43.4159 20.4756 43.2629L20.4082 43.2124V41.6358H20.5766C21.4747 41.6358 23.9115 41.6046 24.3977 41.4659C24.9435 41.31 25.1861 41.001 25.1883 40.9982L25.5219 40.5518L25.3952 42.8392L24.4912 42.9402C24.3706 42.9966 23.8928 43.2052 23.4039 43.2052C23.25 43.2071 23.097 43.1829 22.9512 43.1335C22.7294 43.2189 21.9817 43.4936 21.3144 43.4936ZM20.7453 43.0365C20.8854 43.1157 21.0764 43.1559 21.3144 43.1559C22.023 43.1559 22.8761 42.7993 22.8848 42.7958L22.9506 42.7681L23.0165 42.7962C23.1395 42.8459 23.2713 42.8701 23.4039 42.8672C23.8764 42.8672 24.3641 42.6262 24.3691 42.6237L24.3958 42.6107L25.0749 42.5346L25.1327 41.4927C24.9359 41.6261 24.719 41.7268 24.4902 41.7907C23.9351 41.95 21.4287 41.9706 20.7453 41.9734V43.0365Z" fill="#7D330A"/>
<path d="M22.6891 46.5211L22.6366 46.4862C22.3918 46.3222 21.7171 46.228 20.7857 46.228C20.5614 46.228 20.4092 46.2343 20.4076 46.2343L20.2324 46.2411V44.817L22.311 44.7235L23.7854 44.3755C23.8522 44.3556 24.472 44.1754 24.9348 44.1754C25.0167 44.1744 25.0985 44.1817 25.179 44.1969C25.7637 44.3141 25.5962 45.3351 25.5754 45.4511L25.5701 45.4795L25.5558 45.5047C25.174 46.1753 22.9979 46.4818 22.7509 46.5145L22.6891 46.5211ZM20.7857 45.8904C21.4691 45.8904 22.3486 45.94 22.7658 46.171C23.6232 46.0516 24.9892 45.7367 25.2511 45.3604C25.2971 45.0723 25.303 44.5666 25.115 44.5289C25.0562 44.5183 24.9965 44.5134 24.9367 44.5143C24.5049 44.5143 23.8842 44.6998 23.878 44.7013L23.868 44.7038L22.3586 45.0602L20.5701 45.1418V45.8938C20.6291 45.891 20.7021 45.8904 20.7857 45.8904Z" fill="#7D330A"/>
<path d="M24.6946 47.2697C23.9605 47.2697 23.4988 47.0085 23.1102 46.7877C22.9558 46.6949 22.7946 46.6139 22.6281 46.5455C21.9657 46.2961 20.4267 46.3787 20.4112 46.3796L20.3926 46.0423C20.4587 46.0386 22.0186 45.9553 22.7461 46.2294C22.9287 46.3036 23.1053 46.392 23.2742 46.4937C23.7943 46.7881 24.3305 47.0923 25.4619 46.8401C26.8654 46.5284 26.6601 45.1507 26.6508 45.092L26.9829 45.0369C26.9856 45.0543 27.2528 46.7871 25.5349 47.17C25.2593 47.234 24.9775 47.2674 24.6946 47.2697Z" fill="#7D330A"/>
<path d="M24.9852 48.895C24.4881 48.895 23.3921 48.8439 22.6978 48.4273C21.8668 47.9251 20.4461 47.9186 20.4023 47.9186V47.6772C20.4645 47.6772 21.9246 47.6772 22.8233 48.2175C23.6602 48.7213 25.2154 48.6484 25.2306 48.6475L25.243 48.8885C25.2259 48.8906 25.1318 48.895 24.9852 48.895Z" fill="#7D330A"/>
<path d="M23.2821 41.8133L22.9453 41.8403L23.037 42.9904L23.3737 42.9634L23.2821 41.8133Z" fill="#7D330A"/>
<path d="M24.6121 41.6245H24.2754V42.7712H24.6121V41.6245Z" fill="#7D330A"/>
<path d="M23.9809 44.4538L23.6797 44.605L24.3829 46.0162L24.6841 45.865L23.9809 44.4538Z" fill="#7D330A"/>
<path d="M22.5028 44.8875H22.166V46.1224H22.5028V44.8875Z" fill="#7D330A"/>
<path d="M22.6024 36.964C22.6263 36.3925 23.4561 36.4006 23.8031 36.6376C24.2756 36.9599 24.5729 37.658 24.5465 38.2201C24.5195 38.7975 24.0942 39.2941 23.5213 39.3736C23.0681 39.436 22.3607 39.2196 22.0106 39.5872C21.964 39.6358 21.9507 39.8653 22.0445 39.8737C22.2331 39.8908 22.4372 39.807 22.631 39.7998C22.8124 39.7933 22.9938 39.806 23.1753 39.8054C23.5304 39.8054 23.8792 39.7477 24.1588 39.5124C24.6913 39.0644 24.8112 38.3118 24.6773 37.658C24.5499 37.0401 24.1802 36.2688 23.5229 36.0826C22.9914 35.9321 22.4207 36.4362 22.5142 36.9905C22.5341 37.1087 22.5999 37.056 22.6037 36.9628L22.6024 36.964Z" fill="#7D330A"/>
<path d="M24.5277 38.6482C24.1185 38.4705 23.6081 38.3364 23.1676 38.4571C22.7908 38.5618 22.5261 38.8555 22.2978 39.1567C22.0396 39.4959 21.8482 39.8653 21.4876 40.1125C21.2856 40.2507 21.0597 40.3498 20.8215 40.405C20.595 40.457 20.3639 40.4567 20.1399 40.5241C20.0666 40.5462 20.0595 40.7392 20.125 40.7735C20.4959 40.9771 20.9663 40.8358 21.3204 40.6525C21.7025 40.4536 21.9706 40.1394 22.2027 39.7836C22.427 39.4388 22.6066 39.0301 22.9868 38.8268C23.4814 38.5621 24.012 38.7645 24.5152 38.8711C24.5774 38.8842 24.582 38.67 24.5286 38.6466L24.5277 38.6482Z" fill="#7D330A"/>
<path d="M20.4358 39.2001C20.8428 39.1224 21.2597 38.8032 21.5676 38.5398C21.9177 38.2398 22.2376 37.8904 22.4641 37.4869C22.667 37.125 22.8108 36.7203 22.8037 36.3007C22.7987 36.017 22.7105 35.4707 22.3312 35.4854C22.1811 35.4913 22.215 35.8717 22.3044 35.9328C22.57 36.1142 22.6101 36.32 22.5219 36.6215C22.4228 36.9569 22.2423 37.2693 22.0382 37.5505C21.8232 37.8467 21.5632 38.1036 21.2864 38.3412C21.0096 38.5787 20.6962 38.7595 20.424 38.9927C20.393 39.0199 20.3675 39.2132 20.4365 39.2001H20.4358Z" fill="#7D330A"/>
<path d="M20.4511 37.5245C20.8239 37.3247 21.1765 37.0201 21.5014 36.7504C21.8264 36.4807 22.1206 36.1858 22.3436 35.8241C22.539 35.5071 22.6543 35.1464 22.608 34.771C22.5769 34.5166 22.4067 34.0053 22.0721 34.0496C21.9715 34.063 21.9814 34.3083 22.0352 34.3613C22.2526 34.5774 22.4924 34.7523 22.4052 35.1012C22.3222 35.4329 22.0818 35.739 21.8587 35.99C21.4238 36.4813 20.8435 36.8212 20.4114 37.3091C20.3803 37.3449 20.3772 37.5638 20.4511 37.5242V37.5245Z" fill="#7D330A"/>
<path d="M20.4603 36.4633C21.123 35.905 21.785 35.1683 22.0922 34.3433C22.2398 33.9464 22.2885 33.4863 22.1419 33.0819C22.0239 32.7611 21.7443 32.4238 21.3715 32.5173C21.264 32.5438 21.2429 32.8643 21.3485 32.9023C22.9425 33.4791 21.0748 35.4675 20.4165 36.0858C20.3326 36.1647 20.3749 36.5378 20.4622 36.4639L20.4603 36.4633Z" fill="#7D330A"/>
<path d="M21.1977 32.5668C21.5559 33.3895 20.9544 34.1636 20.4232 34.7413C20.3664 34.8037 20.4058 35.0871 20.4888 34.997C21.0821 34.3519 21.805 33.3006 21.2471 32.4208C21.2058 32.3557 21.1849 32.5356 21.1977 32.5668Z" fill="#7D330A"/>
<path d="M24.2746 36.7133C23.5765 36.8783 23.0854 37.4263 22.7421 38.0302C22.5479 38.3732 22.3883 38.7273 22.2242 39.0834C22.041 39.4806 21.7965 39.8428 21.6119 40.2369C21.598 40.2681 21.593 40.501 21.666 40.4486C21.9394 40.2534 22.1009 39.8484 22.2314 39.5501C22.3867 39.1978 22.5219 38.8346 22.6853 38.4866C23.0046 37.8073 23.5172 37.1333 24.2746 36.9394C24.3479 36.9203 24.333 36.6993 24.2746 36.713V36.7133Z" fill="#7D330A"/>
<path d="M29.6486 42.8075C29.9381 41.5009 29.8623 39.8538 28.5731 39.0975C27.9313 38.7199 27.2199 38.8275 26.5653 39.1159C26.2115 39.2718 25.8555 39.5315 25.4575 39.5414C24.9875 39.553 24.743 39.1411 24.6362 38.7383C24.5893 38.5591 24.4861 38.8085 24.5374 38.9126C24.6616 39.1645 24.7604 39.4697 24.9748 39.6637C25.1972 39.8651 25.506 39.8635 25.7778 39.7799C26.1196 39.6746 26.4268 39.4757 26.7586 39.3435C27.1242 39.1973 27.52 39.1059 27.9145 39.1636C28.5728 39.2596 29.1245 39.7584 29.4116 40.3439C29.7729 41.0819 29.7328 41.9651 29.589 42.752C29.5806 42.7972 29.6294 42.8976 29.6486 42.8097V42.8075Z" fill="#7D330A"/>
<path d="M29.6637 37.5673C29.6743 37.1408 29.6895 36.7143 29.6948 36.289C29.7004 35.8878 29.7448 35.4619 29.6849 35.0644C29.6675 34.9488 29.5917 34.9491 29.574 35.0644C29.514 35.4622 29.5584 35.8878 29.5643 36.289C29.5706 36.7158 29.5858 37.1423 29.5954 37.5673C29.5976 37.6571 29.6594 37.658 29.6619 37.5673H29.6637Z" fill="#7D330A"/>
<path d="M27.1045 38.3006C26.9305 37.9492 26.7721 37.5879 26.6224 37.2253C26.5466 37.0423 26.4732 36.8577 26.4117 36.6691C26.3614 36.5132 26.3437 36.3262 26.2403 36.1977C26.1604 36.0983 26.1356 36.339 26.139 36.3751C26.1725 36.7302 26.39 37.1072 26.5313 37.4329C26.6858 37.7808 26.8608 38.1192 27.0554 38.4462C27.0911 38.5085 27.1225 38.3368 27.1045 38.3006Z" fill="#7D330A"/>
<path d="M23.3889 48.4838C22.4933 48.3665 21.8076 49.2205 21.5812 49.9924C21.3948 50.6259 21.3183 51.8452 22.309 51.7623C23.1037 51.6956 23.6915 50.6839 23.4585 49.9462C23.3622 49.6404 23.0816 49.376 22.7523 49.3586C22.3948 49.3395 22.1782 49.6423 22.0732 49.9472C21.9772 50.2253 21.7812 50.8295 22.1521 51.0025C22.583 51.2033 22.8086 50.6225 22.8508 50.3088C22.8608 50.2343 22.7862 50.055 22.7474 50.2094C22.6986 50.4033 22.6542 50.6324 22.4547 50.7281C22.1459 50.8769 22.0316 50.6125 22.1003 50.3409C22.1764 50.0398 22.3385 49.6819 22.6946 49.6657C23.072 49.6485 23.4128 50.0061 23.3656 50.3827C23.3168 50.7702 23.0006 51.1456 22.6731 51.3348C22.3792 51.5044 21.9403 51.5412 21.6995 51.2553C21.4361 50.9417 21.5992 50.3291 21.7182 49.983C21.9807 49.2195 22.5911 48.75 23.3883 48.6973C23.4547 48.6929 23.4544 48.4934 23.3883 48.4847L23.3889 48.4838Z" fill="#7D330A"/>
<path d="M31.0022 38.4448C30.7673 37.8998 30.246 37.4895 29.6741 37.3536C28.964 37.1831 28.2171 37.4131 27.5968 37.7611C26.9764 38.109 26.296 38.7727 25.5256 38.4943C24.9043 38.2702 24.6899 37.5777 24.4113 37.0474C24.3585 36.9474 24.3293 37.1319 24.3401 37.1721C24.489 37.7106 24.7723 38.2967 25.223 38.6443C25.8198 39.1041 26.4809 38.8373 27.0525 38.48C27.7201 38.0625 28.3992 37.6491 29.2116 37.6332C29.9108 37.6195 30.6384 37.9226 30.9404 38.5866C30.9848 38.6842 31.0239 38.4962 31.0025 38.446L31.0022 38.4448Z" fill="#7D330A"/>
<path d="M28.7461 39.4801C29.1006 39.9078 29.2904 40.4587 29.0745 41.0005C28.9909 41.207 28.8637 41.3928 28.7017 41.5452C28.5237 41.7132 28.3199 41.7915 28.1115 41.9106C28.0543 41.9418 28.0431 42.1946 28.1276 42.184C28.707 42.111 29.1528 41.4358 29.2572 40.9079C29.3665 40.3539 29.1981 39.7073 28.7753 39.3229C28.7371 39.2883 28.7216 39.4504 28.7461 39.4788V39.4801Z" fill="#7D330A"/>
<path d="M20.3787 41.7829C20.3579 42.0916 20.37 42.4021 20.3787 42.7114C20.3874 43.0206 20.3787 43.3349 20.4247 43.6382C20.4396 43.7389 20.5138 43.7452 20.5244 43.6382C20.5536 43.3315 20.5349 43.0191 20.5278 42.7114C20.5207 42.4037 20.52 42.0903 20.484 41.7829C20.4716 41.6772 20.3874 41.6719 20.3799 41.7829H20.3787Z" fill="#7D330A"/>
<path d="M14.728 45.8389C14.9728 45.8645 15.4055 45.8012 15.5444 45.5699C15.5584 45.5468 15.5835 45.3859 15.5242 45.3984C15.3999 45.4252 15.3095 45.5543 15.1912 45.6101C15.0449 45.6759 14.888 45.7146 14.728 45.7242C14.6922 45.727 14.6922 45.8352 14.728 45.8389Z" fill="#7D330A"/>
<path d="M15.1027 46.3004C15.4003 46.2555 15.6442 46.1582 15.8666 45.9468C15.9319 45.8845 15.894 45.6288 15.8222 45.7068C15.6281 45.9178 15.3687 46.1049 15.0968 46.2012C15.0723 46.21 15.0751 46.3047 15.1027 46.3004Z" fill="#7D330A"/>
<path d="M15.5704 46.5723C15.8499 46.4984 16.1156 46.3406 16.2634 46.0847C16.2789 46.057 16.2887 46.0265 16.2923 45.995C16.2959 45.9634 16.2933 45.9315 16.2846 45.901C16.2759 45.8739 16.2364 45.7966 16.2041 45.8527C16.0488 46.123 15.8518 46.349 15.5651 46.4834C15.5436 46.4934 15.5471 46.5769 15.5704 46.5723Z" fill="#7D330A"/>
<path d="M16.1961 46.7835C16.4835 46.6952 16.8236 46.4153 16.7771 46.0798C16.7736 46.0567 16.7628 46.0034 16.7286 46.0175C16.6795 46.0374 16.6665 46.0979 16.6497 46.1422C16.6213 46.2219 16.5848 46.2985 16.5406 46.3707C16.4503 46.5046 16.3279 46.6135 16.1846 46.6874C16.1601 46.7008 16.1616 46.7941 16.1961 46.7835Z" fill="#7D330A"/>
<path d="M17.0824 46.7283C17.2613 46.6457 17.3679 46.5229 17.4496 46.3474C17.4744 46.2941 17.4837 46.175 17.4371 46.127C17.3831 46.0708 17.3536 46.1672 17.3467 46.2108C17.3231 46.3686 17.1958 46.5248 17.0671 46.6105C17.0395 46.6295 17.0423 46.7467 17.0814 46.7283H17.0824Z" fill="#7D330A"/>
<path d="M19.3302 49.2928C19.6549 50.08 19.936 51.8533 18.7661 52.1083C18.6493 52.1336 18.6797 52.4768 18.7661 52.455C20.0826 52.1249 19.771 50.1202 19.3613 49.2223C19.3389 49.1734 19.3203 49.2682 19.3302 49.2928Z" fill="#7D330A"/>
<path d="M19.766 49.2788C19.9489 49.8527 20.0362 50.4466 19.9694 51.0483C19.9437 51.3182 19.8888 51.5844 19.8057 51.8424C19.7215 52.0918 19.5367 52.2558 19.4376 52.485C19.4186 52.5289 19.404 52.672 19.4733 52.682C19.6942 52.7178 19.8651 52.2346 19.921 52.0712C20.022 51.767 20.0819 51.4505 20.0993 51.1303C20.14 50.4822 20.0465 49.8231 19.798 49.222C19.7793 49.1765 19.7594 49.2588 19.7669 49.2788H19.766Z" fill="#7D330A"/>
<path d="M21.4736 49.2714C21.0635 50.1693 20.752 52.1739 22.0688 52.5044C22.1536 52.5256 22.1866 52.1829 22.0688 52.1574C20.8989 51.9027 21.1797 50.1287 21.5044 49.3418C21.5143 49.3175 21.496 49.2224 21.4733 49.2714H21.4736Z" fill="#7D330A"/>
<path d="M21.0389 49.2192C20.7904 49.8202 20.6972 50.4793 20.7376 51.1275C20.7548 51.4477 20.8148 51.7642 20.9159 52.0684C20.9715 52.2296 21.1439 52.7147 21.3636 52.6791C21.4328 52.6679 21.4186 52.526 21.3996 52.4821C21.3083 52.2713 21.1331 52.117 21.0492 51.8935C20.9482 51.6241 20.8991 51.3304 20.8675 51.0455C20.8007 50.4438 20.888 49.8499 21.0709 49.2759C21.0775 49.2553 21.0576 49.1736 21.0399 49.2192H21.0389Z" fill="#7D330A"/>
<path d="M20.3626 49.2524C20.3176 49.8102 20.32 50.3798 20.3117 50.9397C20.3026 51.5293 20.3033 52.1188 20.3008 52.7084C20.3008 52.9266 20.4626 52.9285 20.462 52.7084C20.462 52.1188 20.462 51.5293 20.4555 50.9397C20.4487 50.3785 20.4521 49.8102 20.4086 49.2524C20.4049 49.2044 20.3666 49.2047 20.3626 49.2524Z" fill="#7D330A"/>
<path d="M14.7582 47.5603C14.9268 47.8779 15.1645 48.1526 15.4304 48.393C15.6367 48.58 16.0486 49.0165 16.345 48.8432C16.381 48.8223 16.3832 48.7013 16.336 48.6923C15.9853 48.624 15.7199 48.474 15.4494 48.2362C15.1925 48.0104 14.9924 47.7442 14.788 47.4727C14.7594 47.4349 14.7479 47.5409 14.7569 47.5603H14.7582Z" fill="#7D330A"/>
<path d="M15.4752 47.796C15.7294 48.1165 16.0512 48.394 16.4339 48.5442C16.757 48.6721 17.2227 48.7996 17.5594 48.6705C17.6048 48.6534 17.6001 48.5056 17.5492 48.4972C17.3606 48.466 17.1634 48.4972 16.9714 48.4716C16.7839 48.4465 16.6001 48.3984 16.4243 48.3285C16.0695 48.1873 15.7527 47.9918 15.4995 47.7012C15.47 47.6676 15.4569 47.7717 15.4752 47.7948V47.796Z" fill="#7D330A"/>
<path d="M16.2253 47.7096C16.517 48.0837 16.9398 48.3397 17.3983 48.4535C17.8074 48.5551 18.4269 48.5364 18.745 48.22C18.7708 48.1941 18.7814 48.0357 18.7239 48.0416C18.5098 48.0625 18.3104 48.1772 18.0951 48.2103C17.8858 48.2393 17.6737 48.2402 17.4642 48.2128C16.9996 48.1637 16.5689 47.9464 16.2526 47.6014C16.2163 47.5624 16.2045 47.6834 16.2246 47.7096H16.2253Z" fill="#7D330A"/>
<path d="M16.9146 47.5986C17.6729 48.1442 18.9419 48.4376 19.7105 47.7402C19.7369 47.7162 19.7599 47.5422 19.6996 47.5566C19.2336 47.666 18.8189 47.8406 18.3327 47.8443C17.8465 47.8481 17.3489 47.7405 16.9279 47.4811C16.8947 47.4608 16.8844 47.5781 16.9136 47.599L16.9146 47.5986Z" fill="#7D330A"/>
<path d="M26.3592 47.4725C26.1548 47.744 25.9553 48.0097 25.6975 48.236C25.4272 48.4748 25.1631 48.6238 24.8112 48.6921C24.7639 48.7012 24.7661 48.8221 24.8022 48.843C25.0976 49.0157 25.5129 48.5768 25.7167 48.3928C25.9827 48.1528 26.22 47.8778 26.389 47.5601C26.3996 47.5398 26.3871 47.4354 26.3579 47.4725H26.3592Z" fill="#7D330A"/>
<path d="M25.6459 47.7034C25.3924 47.9943 25.0762 48.1892 24.7208 48.3307C24.5451 48.4008 24.3614 48.4489 24.174 48.4738C23.982 48.4994 23.7848 48.4682 23.5962 48.4994C23.5452 48.5078 23.5406 48.6553 23.5856 48.6727C23.9233 48.8021 24.3877 48.6746 24.7114 48.5464C25.0942 48.3952 25.416 48.1178 25.6701 47.7982C25.6882 47.7751 25.6757 47.6701 25.6459 47.7047V47.7034Z" fill="#7D330A"/>
<path d="M24.8942 47.6015C24.5778 47.9463 24.1471 48.1636 23.6827 48.2129C23.473 48.2402 23.2606 48.2394 23.0511 48.2104C22.8361 48.1773 22.6367 48.0626 22.4226 48.0417C22.3649 48.0358 22.3763 48.1948 22.4015 48.22C22.7199 48.5365 23.3388 48.5552 23.7482 48.4535C24.208 48.3397 24.6295 48.0853 24.9212 47.7097C24.9411 47.6841 24.9299 47.5622 24.8936 47.6015H24.8942Z" fill="#7D330A"/>
<path d="M24.2172 47.4812C23.7972 47.7409 23.3038 47.8487 22.8139 47.8447C22.324 47.8406 21.9109 47.6664 21.447 47.5569C21.3849 47.5426 21.4098 47.7165 21.4362 47.7405C22.2057 48.438 23.4747 48.1458 24.2321 47.599C24.261 47.5784 24.2517 47.4606 24.2178 47.4812H24.2172Z" fill="#7D330A"/>
<path d="M17.9277 47.1415C18.6525 47.7077 19.5391 47.8586 20.4356 47.872C20.865 47.8782 21.2999 47.8602 21.7205 47.7694C22.0933 47.6884 22.5422 47.5412 22.7817 47.2251C22.7994 47.202 22.8162 47.0327 22.7609 47.0496C22.5972 47.0988 22.458 47.2017 22.3027 47.2719C22.1039 47.3578 21.8964 47.4217 21.6839 47.4623C21.2735 47.5468 20.8532 47.5596 20.4356 47.5593C19.5903 47.5593 18.6599 47.5138 17.9429 47.0153C17.91 46.9922 17.8966 47.1175 17.9277 47.14V47.1415Z" fill="#7D330A"/>
<path d="M27.7879 38.6641C28.4913 38.613 29.1837 38.9531 29.6109 39.5153C30.1213 40.1871 30.0411 41.061 30.0265 41.8535C30.0265 41.9043 30.0666 41.9361 30.0765 41.8688C30.1986 41.0498 30.2418 40.116 29.778 39.3896C29.3564 38.7296 28.5428 38.4372 27.7879 38.5828C27.7631 38.5874 27.7637 38.6645 27.7879 38.6626V38.6641Z" fill="#7D330A"/>
<path d="M28.5812 38.2617C29.1845 38.3151 29.6847 38.7328 30.0056 39.2282C30.4013 39.8377 30.3783 40.518 30.3948 41.2126C30.3948 41.2706 30.4541 41.3757 30.4796 41.2653C30.7831 39.9593 30.1242 38.1436 28.5812 38.1682C28.552 38.1682 28.5501 38.2617 28.5812 38.2617Z" fill="#7D330A"/>
<path d="M29.4155 37.9667C29.8675 38.1089 30.2298 38.5572 30.4407 38.9672C30.6951 39.4638 30.7125 39.996 30.8632 40.5207C30.9026 40.6588 30.9732 40.5332 30.9732 40.4524C30.9732 39.8638 30.8268 39.1951 30.5354 38.6816C30.2788 38.2289 29.9166 37.9904 29.4227 37.866C29.3969 37.8595 29.3916 37.9596 29.4168 37.9667H29.4155Z" fill="#7D330A"/>
<path d="M13.2531 38.5859C12.4982 38.4403 11.6846 38.7328 11.263 39.3928C10.7989 40.1192 10.8424 41.0529 10.9642 41.8719C10.9738 41.9368 11.0151 41.91 11.0142 41.8567C10.9999 41.0623 10.921 40.189 11.4298 39.5184C11.857 38.9573 12.5482 38.6162 13.2531 38.6673C13.277 38.6692 13.2779 38.5922 13.2531 38.5875V38.5859Z" fill="#7D330A"/>
<path d="M12.4588 38.1653C10.9161 38.1407 10.2568 39.9564 10.5604 41.2624C10.5861 41.3727 10.6439 41.268 10.6455 41.2097C10.6632 40.5129 10.6411 39.8379 11.0347 39.2253C11.3525 38.7308 11.8577 38.3137 12.4588 38.2588C12.4899 38.256 12.4899 38.1653 12.4588 38.1653Z" fill="#7D330A"/>
<path d="M11.6149 37.866C11.121 37.9907 10.7594 38.2289 10.5025 38.6816C10.2108 39.1951 10.0632 39.8641 10.0645 40.4524C10.0645 40.5329 10.1353 40.6591 10.1747 40.5207C10.3251 39.9963 10.3425 39.4635 10.5969 38.9672C10.8069 38.5572 11.1692 38.1089 11.6221 37.9667C11.6488 37.9583 11.6414 37.8595 11.6159 37.866H11.6149Z" fill="#7D330A"/>
<path d="M11.6846 41.696C11.7893 42.2297 12.2326 42.5343 12.756 42.5642C12.8303 42.5683 12.8235 42.3217 12.756 42.332C12.3084 42.3987 11.8623 42.0617 11.7244 41.6427C11.7023 41.5753 11.6784 41.6648 11.6846 41.696Z" fill="#7D330A"/>
<path d="M11.7126 42.4271C11.922 42.795 12.2799 43.0319 12.7101 42.9643C12.8033 42.9496 12.7884 42.6644 12.7101 42.6778C12.3609 42.7379 11.9509 42.6307 11.7368 42.3333C11.7101 42.2965 11.6996 42.4043 11.7126 42.4268V42.4271Z" fill="#7D330A"/>
<path d="M11.9424 42.9999C12.0325 43.1556 12.1565 43.2889 12.3052 43.3896C12.4165 43.4632 12.6507 43.6104 12.7663 43.4997C12.8091 43.4588 12.8247 43.3363 12.7784 43.2902C12.6743 43.187 12.4923 43.2303 12.3525 43.1836C12.1968 43.1299 12.0628 43.0271 11.9704 42.8905C11.9415 42.8484 11.9256 42.9719 11.9424 42.9999Z" fill="#7D330A"/>
<path d="M12.1767 43.6429C12.2222 43.7672 12.2913 43.8814 12.3802 43.9793C12.4229 44.0221 12.4687 44.0617 12.5172 44.0978C12.5728 44.1405 12.6057 44.1841 12.6753 44.1442C12.7328 44.1115 12.7204 43.9774 12.6874 43.9319C12.6253 43.8465 12.5156 43.8543 12.4265 43.7969C12.335 43.7441 12.2589 43.6682 12.2056 43.5768C12.1817 43.531 12.1674 43.6208 12.1767 43.6429Z" fill="#7D330A"/>
<path d="M14.2813 38.662C14.505 38.2813 14.7069 37.8904 14.9374 37.5135C15.1443 37.1752 15.409 36.7808 15.4991 36.3933C15.5047 36.369 15.5028 36.1751 15.4413 36.2215C15.3109 36.3197 15.2549 36.4912 15.1813 36.6337C15.0707 36.8519 14.9604 37.0673 14.862 37.2884C14.669 37.7248 14.4516 38.1448 14.2528 38.5766C14.2431 38.5972 14.2602 38.6966 14.2813 38.6608V38.662Z" fill="#7D330A"/>
<path d="M14.8405 38.6847C15.4143 37.9655 15.8387 37.0885 16.185 36.2396C16.2161 36.1654 16.2335 36.0307 16.185 35.959C16.1459 35.9022 16.0978 35.8751 16.0626 35.959C15.8791 36.3954 15.7191 36.8444 15.5327 37.2809C15.3404 37.7307 15.0841 38.16 14.8098 38.5641C14.7899 38.5931 14.8042 38.7293 14.8408 38.6838L14.8405 38.6847Z" fill="#7D330A"/>
<path d="M16.8176 35.8993C16.547 36.5746 16.2622 37.2539 16.0183 37.9389C16.0087 37.9657 16.0254 38.1359 16.064 38.0739C16.4436 37.4622 16.7039 36.7217 16.8906 36.0284C16.9027 35.9841 16.8595 35.7939 16.8176 35.8993Z" fill="#7D330A"/>
<path d="M13.9511 36.7743C13.884 36.9793 13.798 37.1776 13.6942 37.3666C13.5954 37.5415 13.4491 37.6784 13.3525 37.8502C13.34 37.8726 13.3407 38.0313 13.3897 37.9964C13.5494 37.8832 13.647 37.6534 13.7395 37.4823C13.8488 37.2805 13.9334 37.0662 13.9915 36.8441C13.998 36.8189 13.971 36.7166 13.9514 36.7736L13.9511 36.7743Z" fill="#7D330A"/>
<path d="M13.5229 36.8251C13.3906 37.1354 13.1967 37.3483 12.937 37.5528C12.8662 37.6089 12.9178 37.8555 12.9681 37.8103C13.235 37.5721 13.4363 37.2354 13.5552 36.8997C13.5643 36.875 13.5453 36.7718 13.5226 36.8251H13.5229Z" fill="#7D330A"/>
<path d="M13.0464 36.7399C12.9954 36.9058 12.903 37.0559 12.7779 37.176C12.6529 37.296 12.4993 37.382 12.3319 37.4258C12.2144 37.4594 12.2675 37.7721 12.3499 37.7282C12.5282 37.6301 12.6853 37.4973 12.812 37.3377C12.9387 37.1781 13.0325 36.9948 13.088 36.7985C13.0979 36.763 13.0681 36.671 13.0454 36.7414L13.0464 36.7399Z" fill="#7D330A"/>
<path d="M26.6054 38.5781C26.4066 38.1463 26.1891 37.7252 25.9962 37.2899C25.903 37.082 25.802 36.879 25.6986 36.6764C25.62 36.5233 25.5576 36.3278 25.4168 36.2218C25.3547 36.1738 25.3547 36.3721 25.3591 36.3936C25.4491 36.7814 25.7138 37.1758 25.9204 37.5138C26.1512 37.8907 26.3532 38.2817 26.5768 38.6623C26.5983 38.6988 26.6144 38.5978 26.6054 38.5781Z" fill="#7D330A"/>
<path d="M26.0494 38.5659C25.7751 38.1606 25.5188 37.7326 25.3265 37.2827C25.1401 36.8462 24.9801 36.3985 24.7965 35.9608C24.7617 35.8782 24.7139 35.9066 24.6741 35.9608C24.6253 36.0272 24.6452 36.17 24.6741 36.2414C25.0205 37.0903 25.4445 37.9673 26.0186 38.6866C26.0547 38.7315 26.0696 38.5968 26.0497 38.5668L26.0494 38.5659Z" fill="#7D330A"/>
<path d="M26.8698 36.848C26.928 37.0701 27.0125 37.2844 27.1218 37.4862C27.215 37.6567 27.3119 37.8871 27.4716 38.0003C27.521 38.0355 27.521 37.8756 27.5089 37.8541C27.4119 37.6807 27.2656 37.5458 27.1671 37.3705C27.0632 37.1815 26.9771 36.9832 26.9099 36.7782C26.8903 36.7211 26.8636 36.8243 26.8701 36.8486L26.8698 36.848Z" fill="#7D330A"/>
<path d="M27.3049 36.8996C27.4242 37.2353 27.6255 37.572 27.8923 37.8102C27.942 37.8548 27.9955 37.6095 27.9234 37.5527C27.664 37.3482 27.4699 37.1346 27.3378 36.8251C27.3151 36.7721 27.2962 36.8746 27.3049 36.8996Z" fill="#7D330A"/>
<path d="M27.7704 36.7969C27.826 36.9932 27.9199 37.1765 28.0466 37.3361C28.1734 37.4957 28.3305 37.6284 28.5088 37.7266C28.5927 37.7711 28.6418 37.4572 28.5268 37.4242C28.3593 37.3805 28.2057 37.2946 28.0806 37.1745C27.9556 37.0544 27.8632 36.9043 27.8123 36.7383C27.7896 36.6678 27.7598 36.7598 27.7694 36.7953L27.7704 36.7969Z" fill="#7D330A"/>
<path d="M36.3679 25.1853C36.3679 25.1853 38.4773 28.1664 39.4434 30.8763C40.4096 33.5861 40.3223 38.1023 40.3223 38.1023C40.3223 38.1023 36.2794 34.7602 35.4005 33.6753C35.4005 33.6753 34.961 30.3328 35.6643 29.2482C36.3676 28.1636 34.6895 25.3633 34.6895 25.3633L36.3679 25.1853Z" fill="#7D330A"/>
<path d="M40.486 38.4551L40.2176 38.2331C40.052 38.0962 36.1514 34.8679 35.2719 33.7833L35.2409 33.7458L35.2346 33.6985C35.2163 33.5597 34.7954 30.2815 35.5242 29.1582C36.0523 28.3417 34.9961 26.2061 34.5459 25.4523L34.4102 25.2253L36.4484 25.0071L36.5055 25.0878C36.5267 25.119 38.6394 28.1188 39.6028 30.8193C40.5689 33.5273 40.4953 37.9204 40.4916 38.1059L40.486 38.4551ZM35.5636 33.6068C36.3403 34.5327 39.2477 36.9841 40.1579 37.7445C40.1542 36.63 40.0765 33.1457 39.2881 30.9331C38.4276 28.5216 36.6298 25.8579 36.2893 25.3641L34.9669 25.5056C35.3583 26.2136 36.445 28.3614 35.8084 29.3425C35.1902 30.294 35.5142 33.1984 35.5636 33.6068Z" fill="white"/>
<path d="M4.64194 25.1853C4.64194 25.1853 2.53258 28.1664 1.56644 30.8763C0.600296 33.5861 0.687592 38.1023 0.687592 38.1023C0.687592 38.1023 4.73048 34.7602 5.60933 33.6753C5.60933 33.6753 6.04891 30.3328 5.34589 29.2482C4.64288 28.1636 6.0371 25.7876 6.0371 25.7876L4.64194 25.1853Z" fill="#7D330A"/>
<path d="M0.523057 38.4544L0.516223 38.1052C0.512806 37.9182 0.43887 33.5267 1.40501 30.8187C2.36805 28.1182 4.48052 25.1171 4.50226 25.0872L4.58117 24.9756L6.2758 25.7095L6.17919 25.8744C5.8064 26.5107 4.95427 28.3411 5.48394 29.1576C6.21243 30.2799 5.79149 33.5591 5.77316 33.6978L5.76726 33.7452L5.73619 33.7826C4.85672 34.8673 0.956423 38.0956 0.790843 38.2324L0.523057 38.4544ZM4.69922 25.3946C4.31059 25.9608 2.56532 28.5687 1.72188 30.9325C0.932192 33.146 0.854839 36.6297 0.852043 37.7439C1.76227 36.9835 4.67064 34.5327 5.44604 33.6062C5.49543 33.1978 5.81883 30.2934 5.20248 29.3418C4.55601 28.3442 5.48611 26.4459 5.79677 25.8697L4.69922 25.3946Z" fill="white"/>
<path d="M31.1014 13.9354C28.6687 10.0985 25.5481 8.67594 20.5519 8.30307V8.29028L20.4655 8.29683L20.3788 8.29028V8.30307C15.3825 8.67718 12.2623 10.0985 9.82922 13.9354C8.39181 16.2022 6.63256 22.2471 7.36851 24.1672C8.18585 26.2997 18.8836 26.6018 20.3788 26.6336V26.6367L20.4655 26.6351L20.5519 26.6367V26.6336C22.0474 26.6024 32.7451 26.2997 33.5625 24.1672C34.2981 22.2471 32.5389 16.2022 31.1014 13.9354Z" fill="#F2DA00"/>
<path d="M20.2097 26.8085V26.7985C19.1879 26.7739 16.3699 26.6794 13.5992 26.3558C9.67342 25.8975 7.58364 25.2023 7.21054 24.2277C6.44321 22.2252 8.2444 16.1199 9.68647 13.844C10.9179 11.9021 12.3093 10.5755 14.0667 9.66951C15.6806 8.83648 17.6362 8.35106 20.2112 8.14592V8.10913L20.4663 8.12659L20.721 8.10913V8.14592C23.2963 8.35106 25.2516 8.83648 26.8658 9.66951C28.6213 10.5755 30.0128 11.9021 31.2442 13.844C32.6863 16.1199 34.4878 22.2246 33.7201 24.2258C33.3473 25.1995 31.2572 25.8956 27.3318 26.3539C24.5607 26.6775 21.7428 26.772 20.721 26.7966V26.8032H20.5501H20.4663L20.2097 26.8085ZM20.4638 8.4661L20.3905 8.4714C15.1801 8.86017 12.2587 10.4178 9.97072 14.0261C8.59544 16.1948 6.80202 22.2215 7.52461 24.1064C7.70448 24.5756 8.73772 25.447 13.638 26.0203C16.5613 26.3633 19.5386 26.4465 20.3815 26.4646L20.4622 26.4665H20.4669L20.5477 26.4646C21.3905 26.4465 24.3687 26.3617 27.2911 26.0203C32.1914 25.4479 33.2246 24.5756 33.4045 24.1064C34.1271 22.2215 32.334 16.1948 30.9587 14.0261C28.6707 10.4178 25.7505 8.86017 20.5386 8.4714L20.4653 8.4661H20.4638Z" fill="white"/>
<path d="M20.4652 8.29663C20.4652 8.29663 20.3328 9.02273 20.1787 10.0905C20.0246 11.1583 19.8485 12.5681 19.7606 13.9352C19.6727 15.3023 19.6289 18.4998 19.6068 21.3552C19.5848 24.2107 19.5848 26.7244 19.5848 26.7244L19.0566 26.6362C19.0566 26.6362 19.0793 22.6481 19.2663 18.3616C19.3595 16.2186 19.495 14.0007 19.6885 12.1691C19.7854 11.2534 19.897 10.4347 20.0256 9.76847C20.1542 9.10223 20.3005 8.59499 20.4652 8.29663Z" fill="white"/>
<path d="M20.4647 8.30273C20.4647 8.30273 20.2248 8.96336 19.9157 9.94012C19.8266 10.2226 19.7315 10.5325 19.633 10.8586C19.3885 11.6714 19.1611 12.6045 18.9356 13.5086C18.81 14.0213 18.7141 14.5408 18.6482 15.0646C18.4516 16.605 18.2292 18.8825 18.094 20.9314C18.053 21.549 18.0176 22.1438 17.999 22.6869C17.9368 24.7218 17.9285 26.3748 17.9272 26.464C17.9272 26.4811 17.8005 26.4693 17.8005 26.4693L17.4121 26.3894C17.4121 26.3894 17.4069 24.7405 17.5249 22.6112C17.6032 21.2509 17.7424 19.5699 17.9477 17.8577C18.0512 16.9988 18.1751 16.1327 18.3071 15.2913C18.5032 14.0386 18.8061 12.8542 19.1111 11.8135C19.2096 11.4768 19.3019 11.1532 19.3972 10.8489C19.5392 10.3965 19.6703 9.98096 19.8169 9.62493C20.006 9.17147 20.2223 8.72993 20.4647 8.30273Z" fill="white"/>
<path d="M20.4633 8.30273C20.4633 8.30273 20.1154 8.89789 19.6522 9.78362C19.5177 10.0408 19.3726 10.3233 19.2229 10.621C18.8445 11.3693 18.4817 12.2422 18.1101 13.078C17.8948 13.5582 17.7247 14.0576 17.6019 14.5695C17.2496 16.0601 16.8321 18.4242 16.5804 20.503C16.5025 21.1474 16.4344 21.7601 16.4018 22.3035C16.2822 24.295 16.2717 26.0209 16.2689 26.2005C16.2689 26.2345 16.1632 26.2358 16.1632 26.2358L15.7662 26.14C15.7662 26.14 15.7466 24.3384 15.933 22.2255C16.0573 20.8616 16.2847 19.1147 16.627 17.3495C16.7964 16.4766 16.9998 15.6036 17.2148 14.7584C17.5255 13.5447 18.0325 12.4293 18.5317 11.4537C18.687 11.1485 18.8327 10.8517 18.9803 10.5755C19.1977 10.1677 19.3953 9.7886 19.6062 9.47622C19.9939 8.90257 20.3459 8.51598 20.4633 8.30273Z" fill="white"/>
<path d="M20.4654 8.30273C20.4654 8.30273 20.0078 8.83273 19.3918 9.62711C19.2116 9.85937 19.019 10.1147 18.8158 10.3841C18.302 11.07 17.7907 11.8805 17.288 12.6462C17.0221 13.0515 16.754 13.5264 16.5589 14.0735C16.0454 15.5148 15.435 17.9646 15.0699 20.074C14.9541 20.7446 14.8556 21.3753 14.8077 21.9187C14.6356 23.8676 14.6179 25.6662 14.6139 25.9337C14.6139 25.9848 14.5288 25.9988 14.5288 25.9988L14.1249 25.8869C14.1249 25.8869 14.0876 23.9343 14.3464 21.8389C14.5588 20.1533 14.8808 18.4835 15.3104 16.8401C15.544 15.9544 15.8245 15.0705 16.1262 14.2247C16.5455 13.05 17.2551 12.0028 17.9559 11.093C18.1675 10.8187 18.3669 10.5496 18.5673 10.3011C18.8603 9.93794 19.1287 9.59656 19.3996 9.32595C19.928 8.79844 20.3713 8.47327 20.4654 8.30273Z" fill="white"/>
<path d="M20.4651 8.2998C20.4651 8.2998 19.8972 8.7634 19.1293 9.46736C18.9031 9.67438 18.6599 9.90383 18.4067 10.1439C17.7543 10.7631 17.0852 11.5082 16.4635 12.2115C16.1057 12.6168 15.7627 13.0651 15.5135 13.5746C14.8329 14.9647 14.0329 17.5028 13.5564 19.6418C13.4011 20.3386 13.274 20.9871 13.2103 21.5311C12.9873 23.4366 12.9618 25.3081 12.9556 25.6648C12.9543 25.6847 12.9477 25.7039 12.9364 25.7204C12.9252 25.7369 12.9097 25.75 12.8916 25.7583L12.4775 25.6302C12.4775 25.6302 12.4265 23.5261 12.7534 21.4475C12.9708 20.0758 13.3706 18.1965 13.9901 16.3262C14.2886 15.4273 14.6372 14.5459 15.0342 13.6862C15.5592 12.5488 16.4685 11.5662 17.3769 10.7275C17.6415 10.4828 17.8972 10.2421 18.1504 10.0223C18.5185 9.70275 18.8615 9.40283 19.1895 9.17119C19.8652 8.69762 20.3946 8.42763 20.4651 8.2998Z" fill="white"/>
<path d="M20.465 8.2998C20.465 8.2998 19.7866 8.69668 18.8667 9.31086C18.5946 9.4923 18.3016 9.69339 17.9969 9.90664C17.2081 10.4597 16.3768 11.1313 15.639 11.7797C15.186 12.1778 14.7691 12.6056 14.4681 13.0785C13.615 14.4148 12.629 17.0411 12.045 19.2125C11.8505 19.9355 11.6949 20.6024 11.6153 21.1454C11.3426 23.0076 11.3047 24.9521 11.2994 25.3976C11.3013 25.4432 11.2858 25.4877 11.2562 25.5223L10.8334 25.3789C10.8334 25.3789 10.7732 23.1239 11.164 21.0616C11.4299 19.6864 11.9117 17.7407 12.6725 15.8183C13.0344 14.9014 13.46 14.0111 13.9462 13.154C14.5737 12.0522 15.6831 11.1313 16.8018 10.3681C17.1193 10.1514 17.4315 9.94062 17.7378 9.74951C18.1805 9.47329 18.5986 9.21795 18.9835 9.02279C19.804 8.60596 20.4178 8.38523 20.465 8.2998Z" fill="white"/>
<path d="M20.4655 8.29663C20.4655 8.29663 19.6745 8.62398 18.6046 9.15087C18.2862 9.30675 17.9439 9.48009 17.5888 9.66621C16.663 10.1513 15.6686 10.7434 14.8149 11.3448C14.266 11.7313 13.7761 12.1413 13.4232 12.579C12.394 13.8573 11.2237 16.5765 10.5341 18.78C10.2992 19.5283 10.1165 20.2141 10.0206 20.7588C9.69902 22.5786 9.6518 24.5951 9.64373 25.1297C9.64488 25.1826 9.63732 25.2353 9.62136 25.2856L9.19017 25.1254C9.19017 25.1254 9.11468 22.7179 9.57383 20.6715C9.88666 19.2913 10.4474 17.2761 11.3527 15.3045C11.776 14.367 12.2781 13.4674 12.8537 12.6155C13.5816 11.5474 14.8932 10.6844 16.2222 10.0026C16.5922 9.81274 16.9609 9.63285 17.3207 9.47042C17.8376 9.23754 18.3306 9.02928 18.7727 8.8681C19.7429 8.51549 20.4418 8.33903 20.4655 8.29663Z" fill="white"/>
<path d="M20.4658 8.29663C19.2614 8.52242 18.0722 8.82365 16.9053 9.19857C14.9935 9.81461 12.818 10.7611 11.763 12.0843C9.65397 14.7302 8.51137 18.2572 7.98388 20.2871C7.45638 22.317 7.54461 24.8738 7.54461 24.8738L7.98388 25.0502C7.98388 25.0502 7.98388 22.4938 8.42346 20.3753C8.86303 18.2569 10.7518 13.7167 12.3784 12.0843C13.3893 11.0698 15.4111 10.1233 17.1799 9.43021C18.9488 8.73715 20.4658 8.29663 20.4658 8.29663Z" fill="white"/>
<path d="M20.5449 8.29663C20.5449 8.29663 20.6769 9.02273 20.831 10.0905C20.9851 11.1583 21.1613 12.5681 21.2492 13.9352C21.3371 15.3023 21.3812 18.4998 21.403 21.3552C21.4247 24.2107 21.425 26.7244 21.425 26.7244L21.9531 26.6362C21.9531 26.6362 21.9286 22.6484 21.7422 18.362C21.649 16.2189 21.5139 14.001 21.32 12.1694C21.2234 11.2537 21.1116 10.435 20.9833 9.76878C20.855 9.10254 20.7096 8.59499 20.5449 8.29663Z" fill="white"/>
<path d="M20.5469 8.30273C20.5469 8.30273 20.7864 8.96336 21.0955 9.94012C21.185 10.2226 21.28 10.5325 21.3782 10.8586C21.623 11.6714 21.8501 12.6045 22.0756 13.5086C22.2013 14.0212 22.2973 14.5408 22.363 15.0646C22.5596 16.605 22.7821 18.8825 22.9175 20.9314C22.9582 21.549 22.9936 22.1438 23.0107 22.6869C23.0728 24.7218 23.0812 26.3748 23.0825 26.464C23.0825 26.4811 23.2092 26.4693 23.2092 26.4693L23.5978 26.3894C23.5978 26.3894 23.6028 24.7405 23.4851 22.6112C23.4068 21.2509 23.2676 19.5699 23.062 17.8577C22.9585 16.9988 22.8346 16.1327 22.7028 15.2913C22.5065 14.0386 22.2039 12.8542 21.8989 11.8135C21.8001 11.4768 21.7081 11.1532 21.6127 10.8489C21.4705 10.3965 21.3394 9.98096 21.193 9.62493C21.0044 9.17151 20.7887 8.72997 20.5469 8.30273Z" fill="white"/>
<path d="M20.5469 8.30273C20.5469 8.30273 20.8948 8.89789 21.358 9.78362C21.4928 10.0408 21.6376 10.3233 21.7873 10.621C22.1657 11.3693 22.5289 12.2422 22.9001 13.078C23.1155 13.5582 23.2857 14.0575 23.4083 14.5695C23.7609 16.0601 24.1785 18.4242 24.4301 20.503C24.5081 21.1474 24.5758 21.7601 24.6087 22.3035C24.728 24.295 24.7386 26.0209 24.7414 26.2005C24.7414 26.2345 24.8473 26.2358 24.8473 26.2358L25.244 26.14C25.244 26.14 25.2633 24.3396 25.0769 22.2268C24.9526 20.8628 24.7252 19.116 24.3829 17.3508C24.2139 16.4778 24.0101 15.6049 23.7954 14.7597C23.4848 13.546 22.9778 12.4305 22.4785 11.455C22.3232 11.1498 22.1772 10.853 22.0296 10.5767C21.8122 10.169 21.6146 9.78985 21.4037 9.47746C21.0166 8.90257 20.6646 8.51598 20.5469 8.30273Z" fill="white"/>
<path d="M20.5449 8.30273C20.5449 8.30273 21.0025 8.83273 21.6186 9.62711C21.7987 9.85937 21.9913 10.1147 22.1945 10.3841C22.7083 11.07 23.2197 11.8805 23.7226 12.6462C23.9886 13.0515 24.2566 13.5264 24.4514 14.0735C24.9653 15.5148 25.5757 17.9646 25.9404 20.074C26.0566 20.7446 26.1548 21.3753 26.2026 21.9187C26.3747 23.8676 26.3924 25.6662 26.3968 25.9337C26.3968 25.9848 26.4816 25.9988 26.4816 25.9988L26.8854 25.8869C26.8854 25.8869 26.923 23.9343 26.6639 21.8389C26.451 20.1533 26.1285 18.4835 25.6987 16.8401C25.4648 15.9544 25.1846 15.0705 24.8826 14.2247C24.4632 13.05 23.754 12.0028 23.0529 11.093C22.8416 10.8187 22.6422 10.5496 22.4418 10.3011C22.1485 9.93794 21.8801 9.59656 21.6092 9.32595C21.0824 8.79844 20.6391 8.47327 20.5449 8.30273Z" fill="white"/>
<path d="M20.5449 8.2998C20.5449 8.2998 21.1128 8.7634 21.8807 9.46736C22.1069 9.67438 22.3501 9.90383 22.6033 10.1439C23.2557 10.7631 23.9249 11.5082 24.5468 12.2115C24.9044 12.6168 25.2473 13.0651 25.4968 13.5746C26.1771 14.9647 26.9771 17.5028 27.4539 19.6418C27.6093 20.3386 27.7363 20.9871 27.8 21.5311C28.0231 23.4366 28.0485 25.3081 28.0547 25.6648C28.0561 25.6847 28.0628 25.704 28.0741 25.7204C28.0854 25.7369 28.1009 25.75 28.119 25.7583L28.5328 25.6302C28.5328 25.6302 28.5841 23.5261 28.257 21.4475C28.0395 20.0758 27.6397 18.1965 27.0206 16.3262C26.7218 15.4273 26.3731 14.5459 25.9761 13.6862C25.4511 12.5488 24.5421 11.5662 23.6335 10.7275C23.3688 10.4828 23.1131 10.2421 22.8599 10.0223C22.4918 9.70275 22.1492 9.40283 21.8208 9.17119C21.1451 8.69762 20.6154 8.42763 20.5449 8.2998Z" fill="white"/>
<path d="M20.5469 8.2998C20.5469 8.2998 21.2257 8.69668 22.1449 9.31086C22.417 9.4923 22.71 9.69339 23.0147 9.90664C23.8029 10.4597 24.6351 11.1309 25.3732 11.7797C25.8259 12.1778 26.2431 12.6056 26.5438 13.0785C27.3969 14.4148 28.3832 17.0411 28.9669 19.2125C29.1614 19.9355 29.317 20.6024 29.3969 21.1454C29.6696 23.0076 29.7057 24.9521 29.7125 25.3976C29.7107 25.4432 29.7262 25.4878 29.756 25.5223L30.1785 25.3783C30.1785 25.3783 30.2387 23.1233 29.8479 21.061C29.582 19.6848 29.1002 17.7391 28.3403 15.8168C27.9784 14.8998 27.5528 14.0095 27.0666 13.1524C26.4391 12.0506 25.3298 11.1297 24.2111 10.3665C23.8936 10.1498 23.5814 9.93906 23.2751 9.74795C22.8327 9.47173 22.4142 9.21639 22.0296 9.02123C21.2076 8.60596 20.5944 8.38523 20.5469 8.2998Z" fill="white"/>
<path d="M20.5449 8.29663C20.5449 8.29663 21.3355 8.62398 22.4054 9.15087C22.7239 9.30675 23.0665 9.48009 23.4213 9.66621C24.3474 10.1513 25.3415 10.7434 26.1951 11.3448C26.7441 11.7313 27.2343 12.1413 27.5869 12.579C28.6164 13.8573 29.7863 16.5765 30.476 18.78C30.7109 19.5283 30.8935 20.2141 30.9898 20.7588C31.3114 22.5786 31.3583 24.5951 31.3663 25.1297C31.3652 25.1826 31.3728 25.2353 31.389 25.2856L31.8199 25.1254C31.8199 25.1254 31.8941 22.7189 31.435 20.6737C31.1222 19.2935 30.5614 17.2783 29.6562 15.3067C29.2329 14.3692 28.7308 13.4696 28.1554 12.6177C27.4275 11.5496 26.1159 10.6866 24.7869 10.0048C24.4166 9.81492 24.0479 9.63504 23.6881 9.47261C23.1712 9.23972 22.6782 9.03146 22.2364 8.87028C21.2675 8.51549 20.5682 8.33903 20.5449 8.29663Z" fill="white"/>
<path d="M20.5449 8.29663C21.7492 8.52244 22.9383 8.82368 24.1051 9.19857C26.0171 9.81461 28.1927 10.7611 29.2474 12.0843C31.3567 14.7302 32.4993 18.2572 33.0265 20.2871C33.5537 22.317 33.4661 24.8738 33.4661 24.8738L33.0265 25.0502C33.0265 25.0502 33.0265 22.4938 32.5872 20.3753C32.148 18.2569 30.2573 13.7167 28.6319 12.0843C27.6214 11.0698 25.5996 10.1233 23.8304 9.43021C22.0612 8.73715 20.5449 8.29663 20.5449 8.29663Z" fill="white"/>
<path d="M6.33405 18.274C5.33777 17.1327 3.7062 16.9908 2.17715 17.9124C1.37938 18.3931 0.733213 19.0971 0.357318 19.8958C-0.066107 20.7956 -0.114258 21.7353 0.218456 22.6175C1.48097 25.9618 4.57946 27.1191 4.71055 27.1665L4.88701 27.2307L4.98331 27.0689C4.99543 27.0483 6.2219 25.0004 7.4375 23.9937L7.48348 23.955L7.50491 23.8986C7.55151 23.7764 8.60805 20.8795 6.33405 18.274Z" fill="white"/>
<path d="M4.48574 25.9146C3.61187 25.4444 1.97564 24.327 1.19278 22.2498C0.959479 21.6315 0.995205 20.9902 1.29965 20.3439C1.58856 19.7301 2.09089 19.1851 2.71438 18.8091C3.12911 18.5597 3.56309 18.4057 3.96881 18.3652C4.4146 18.3206 5.05145 18.3882 5.55316 18.9641C7.13969 20.781 6.75975 22.7517 6.59138 23.3515C5.74049 24.115 4.94272 25.2259 4.48574 25.9146Z" fill="#7D330A"/>
<path d="M4.53956 26.1335L4.40473 26.0624C3.48861 25.5699 1.83187 24.4269 1.03224 22.3088C0.782164 21.646 0.819753 20.9604 1.14439 20.2708C1.44728 19.6273 1.97291 19.0565 2.62467 18.6636C3.05959 18.4008 3.51874 18.2393 3.94931 18.196C4.02817 18.1879 4.10739 18.1839 4.18665 18.1838C4.78063 18.1838 5.29601 18.4149 5.67781 18.8513C7.32677 20.7406 6.9164 22.8076 6.75144 23.3962L6.73746 23.4436L6.70111 23.4748C5.84494 24.2436 5.03226 25.3903 4.62406 26.0054L4.53956 26.1335ZM4.18665 18.5205C4.11955 18.5205 4.0509 18.524 3.98255 18.5308C3.60138 18.5689 3.19162 18.7145 2.79802 18.9517C2.2028 19.3106 1.72345 19.8296 1.44883 20.4139C1.16458 21.0172 1.13041 21.6139 1.34725 22.1875C2.07077 24.1043 3.53769 25.1839 4.43021 25.6883C4.93161 24.9445 5.6601 23.9658 6.43985 23.2566C6.59952 22.6536 6.92074 20.7868 5.42431 19.0727C5.10433 18.7064 4.68712 18.5205 4.18665 18.5205Z" fill="white"/>
<path d="M6.33405 18.274C5.33777 17.1327 3.7062 16.9908 2.17715 17.9124C1.37938 18.3931 0.733213 19.0971 0.357318 19.8958C-0.066107 20.7956 -0.114258 21.7353 0.218456 22.6175C1.48097 25.9618 4.57946 27.1191 4.71055 27.1665L4.88701 27.2307L4.98331 27.0689C4.99543 27.0483 6.2219 25.0004 7.4375 23.9937L7.48348 23.955L7.50491 23.8986C7.55151 23.7764 8.60805 20.8795 6.33405 18.274ZM7.09857 23.6832C6.03644 24.5848 5.01717 26.1498 4.69564 26.6667C4.04047 26.3765 1.66674 25.1647 0.643744 22.4557C0.0205664 20.8049 1.06127 19.1174 2.41138 18.3037C2.8463 18.0424 3.37442 17.8391 3.92211 17.7846C4.6506 17.7119 5.4058 17.9037 5.99201 18.5749C6.86713 19.5775 7.31727 20.7479 7.32784 22.0536C7.33591 22.6054 7.25835 23.1552 7.09795 23.6832H7.09857Z" fill="#7D330A"/>
<path d="M34.6671 18.274C35.6633 17.1327 37.2949 16.9908 38.824 17.9124C39.6217 18.3931 40.2679 19.0971 40.6438 19.8958C41.0672 20.7956 41.1154 21.7353 40.7827 22.6175C39.5201 25.9618 36.422 27.1191 36.2906 27.1665L36.1141 27.2307L36.0178 27.0689C36.0057 27.0483 34.7792 25.0004 33.5636 23.9937L33.517 23.955L33.4959 23.8986C33.4496 23.7764 32.3934 20.8795 34.6671 18.274Z" fill="white"/>
<path d="M36.5161 25.9146C37.39 25.4444 39.0262 24.327 39.8091 22.2498C40.0424 21.6315 40.0067 20.9902 39.7022 20.3439C39.4133 19.7301 38.911 19.1851 38.2875 18.8091C37.8725 18.5597 37.4388 18.4057 37.0331 18.3652C36.5873 18.3206 35.9504 18.3882 35.4487 18.9641C33.8622 20.781 34.2421 22.7517 34.4102 23.3515C35.2614 24.115 36.0592 25.2259 36.5161 25.9146Z" fill="#7D330A"/>
<path d="M36.46 26.1332L36.3751 26.0054C35.9669 25.3903 35.1543 24.2436 34.2981 23.4748L34.2617 23.4436L34.2484 23.3962C34.0834 22.8076 33.673 20.7406 35.322 18.8513C35.7032 18.4149 36.2189 18.1838 36.8132 18.1838C36.8925 18.1839 36.9719 18.1879 37.0508 18.196C37.4811 18.239 37.939 18.4005 38.3752 18.6636C39.0275 19.0565 39.5525 19.6273 39.8554 20.2708C40.1801 20.9604 40.2177 21.646 39.9676 22.3088C39.168 24.4269 37.5112 25.5699 36.5951 26.0624L36.46 26.1332ZM34.5597 23.2563C35.3394 23.9665 36.0679 24.9451 36.5693 25.688C37.4634 25.1823 38.9303 24.1024 39.6523 22.186C39.8697 21.6123 39.8349 21.0156 39.5507 20.4123C39.2761 19.8281 38.7967 19.309 38.2015 18.9502C37.8079 18.7129 37.3981 18.5673 37.017 18.5293C36.9486 18.5224 36.88 18.519 36.8129 18.519C36.3118 18.519 35.8952 18.706 35.5752 19.0714C34.0788 20.7868 34.4 22.6536 34.5597 23.2563Z" fill="white"/>
<path d="M33.4959 23.8985L33.517 23.9549L33.5636 23.9936C34.7798 25.0003 36.0063 27.0489 36.0178 27.0688L36.1141 27.2306L36.2906 27.1664C36.422 27.119 39.5214 25.9617 40.7827 22.6174C41.1154 21.7364 41.0672 20.7955 40.6438 19.8957C40.2679 19.0973 39.6217 18.393 38.824 17.9123C37.2949 16.9907 35.6633 17.1329 34.6671 18.2739C32.3934 20.8794 33.4496 23.7763 33.4959 23.8985ZM33.6723 22.0535C33.6845 20.7478 34.1346 19.5774 35.01 18.5748C35.5959 17.9036 36.3511 17.7118 37.0796 17.7845C37.6261 17.839 38.157 18.0423 38.5903 18.3036C39.9405 19.1173 40.9824 20.8048 40.358 22.4556C39.335 25.1646 36.9613 26.3764 36.3061 26.6666C35.9839 26.1497 34.9653 24.5847 33.9028 23.6831C33.7425 23.1551 33.6649 22.6053 33.673 22.0535H33.6723Z" fill="#7D330A"/>
<path d="M3.99314 34.1064C4.52716 33.3008 4.98724 32.6582 4.8549 31.6001C4.79494 31.1175 4.73747 30.5685 4.06397 30.3431C3.47061 30.1448 2.94343 30.6078 2.67968 31.0046C2.18263 31.7529 2.07079 32.1582 2.02047 33.0551C2.00866 33.2687 2.07017 33.7768 2.22612 33.9227C2.47465 34.1547 2.88409 33.9898 3.12858 33.755C3.50306 33.3917 3.72819 32.9007 3.75952 32.3789C3.77133 32.1666 3.69739 31.8935 3.48552 31.8738C3.49659 32.3422 3.32272 32.7959 3.00183 33.1362C2.931 33.2104 2.80705 33.2786 2.73684 33.2035C2.71407 33.1739 2.70007 33.1385 2.69646 33.1012C2.57779 32.4615 2.68683 31.7073 3.21339 31.3279C3.30659 31.2603 3.42339 31.2054 3.53554 31.2344C3.61289 31.2534 3.67596 31.3092 3.73001 31.3681C4.07173 31.7398 4.16493 32.2897 4.08385 32.7882C3.922 33.77 2.28421 35.5701 1.625 36.43C2.06272 36.1045 3.68621 34.5697 3.99314 34.1064Z" fill="white"/>
<path d="M37.0507 34.1064C36.517 33.3008 36.0566 32.6582 36.189 31.6001C36.2492 31.1175 36.3064 30.5685 36.9799 30.3431C37.5732 30.1448 38.1004 30.6078 38.3642 31.0046C38.8612 31.7529 38.9731 32.1582 39.0234 33.0551C39.0352 33.2687 38.9737 33.7768 38.818 33.9227C38.5695 34.1547 38.1598 33.9898 37.9171 33.755C37.5424 33.3919 37.3171 32.9008 37.2859 32.3789C37.2741 32.1666 37.348 31.8935 37.5602 31.8738C37.5488 32.3422 37.7226 32.796 38.0436 33.1362C38.1144 33.2104 38.2384 33.2786 38.3086 33.2035C38.3315 33.174 38.3455 33.1385 38.349 33.1012C38.4676 32.4615 38.3589 31.7073 37.832 31.3279C37.7388 31.2603 37.622 31.2054 37.5099 31.2344C37.4325 31.2534 37.3695 31.3092 37.3154 31.3681C36.9737 31.7398 36.8805 32.2897 36.9616 32.7882C37.1234 33.77 38.7612 35.5701 39.4204 36.43C38.9811 36.1045 37.3576 34.5697 37.0507 34.1064Z" fill="white"/>
<path d="M4.06499 43.5084C4.06499 43.5084 3.93327 41.9209 6.23959 40.5317C6.23959 40.5317 4.26226 39.4075 3.27344 37.9521C3.27344 37.9521 4.32812 40.0026 5.3828 40.4656C5.3828 40.4656 3.80062 41.6565 3.60304 43.244L4.06499 43.5084Z" fill="white"/>
<path d="M36.9558 43.5084C36.9558 43.5084 37.0876 41.9209 34.7812 40.5317C34.7812 40.5317 36.7586 39.4075 37.7474 37.9521C37.7474 37.9521 36.6912 40.0026 35.638 40.4656C35.638 40.4656 37.2199 41.6565 37.4178 43.244L36.9558 43.5084Z" fill="white"/>
<path d="M7.22852 43.1118C7.22852 43.1118 8.94241 45.2942 10.5246 45.4931C10.5246 45.4931 8.71501 46.6987 8.59851 47.9813L8.15179 47.5448C8.15179 47.5448 8.6799 46.2881 9.40404 45.8251C9.40373 45.8239 7.55843 44.1699 7.22852 43.1118Z" fill="white"/>
<path d="M33.5497 43.1118C33.5497 43.1118 31.8361 45.2942 30.2539 45.4931C30.2539 45.4931 32.0632 46.6987 32.18 47.9813L32.6267 47.5448C32.6267 47.5448 32.0986 46.2881 31.3741 45.8251C31.3744 45.8239 33.2201 44.1699 33.5497 43.1118Z" fill="white"/>
<path d="M20.5018 10.3522C21.849 10.3522 22.9411 9.78941 22.9411 9.09517C22.9411 8.40093 21.849 7.83813 20.5018 7.83813C19.1546 7.83813 18.0625 8.40093 18.0625 9.09517C18.0625 9.78941 19.1546 10.3522 20.5018 10.3522Z" fill="#7D330A"/>
<path d="M20.5002 10.52C19.0383 10.52 17.8926 9.89366 17.8926 9.09398C17.8926 8.2943 19.0401 7.66797 20.5002 7.66797C21.9603 7.66797 23.1097 8.29337 23.1097 9.09398C23.1097 9.89459 21.9628 10.52 20.5002 10.52ZM20.5002 8.00592C19.2694 8.00592 18.2293 8.50474 18.2293 9.09398C18.2293 9.68322 19.2694 10.182 20.5002 10.182C21.7311 10.182 22.7711 9.68322 22.7711 9.09398C22.7711 8.50474 21.7317 8.00592 20.5002 8.00592Z" fill="white"/>
<path d="M33.6209 24.1672C33.6209 24.1672 32.7243 24.4896 31.0207 25.1961C29.4105 25.8629 21.3931 26.6043 20.5183 26.632C19.6435 26.6043 11.6261 25.8629 10.0159 25.1961C8.31259 24.4905 7.41603 24.1672 7.41603 24.1672C7.41603 24.1672 4.45702 26.1077 4.99508 28.6657C5.52662 31.1935 16.0399 32.6011 20.4409 32.6341H20.5963C24.997 32.6011 35.5103 31.1935 36.0418 28.6657C36.5796 26.1077 33.6209 24.1672 33.6209 24.1672Z" fill="white"/>
<path d="M20.597 32.8026H20.2736V32.7998C18.1804 32.7686 14.529 32.4322 11.2335 31.7498C9.45315 31.381 8.01108 30.961 6.94646 30.5027C5.67805 29.9546 4.96571 29.3492 4.82964 28.7004C4.59852 27.6021 4.95981 26.4429 5.87407 25.3486C6.29615 24.8449 6.78343 24.4 7.32298 24.0258L7.39318 23.98L7.47178 24.008C7.48079 24.0115 8.39164 24.3401 10.0794 25.039C11.6613 25.6938 19.639 26.4326 20.5175 26.4623C21.3964 26.4311 29.374 25.6944 30.9556 25.039C32.6431 24.3401 33.5539 24.0102 33.5629 24.008L33.6418 23.98L33.7117 24.0258C34.2523 24.3993 34.7406 24.8436 35.1637 25.3471C36.078 26.4414 36.4374 27.6005 36.2082 28.6989C36.0718 29.3464 35.3598 29.9531 34.091 30.5012C33.0277 30.9607 31.5859 31.3806 29.804 31.7482C26.5091 32.4307 22.8577 32.7668 20.7639 32.7982V32.8004L20.597 32.8026ZM20.5187 32.4643H20.5958C22.6415 32.4491 26.374 32.1155 29.7369 31.419C33.4818 30.6436 35.663 29.6529 35.8779 28.63C36.3411 26.428 34.0289 24.6621 33.5977 24.355C33.3414 24.4486 32.4812 24.7725 31.0861 25.3505C29.4296 26.0364 21.4119 26.7712 20.5237 26.7993H20.5132C19.6262 26.7712 11.6082 26.0367 9.95082 25.3505C8.55566 24.7725 7.69514 24.4495 7.43885 24.355C7.00766 24.6621 4.69575 26.428 5.15863 28.63C5.37392 29.6529 7.55473 30.6436 11.3 31.419C14.6619 32.1155 18.3951 32.4478 20.4411 32.4643H20.5166H20.5187Z" fill="#20297B"/>
<path d="M12.9064 26.105C12.9064 26.105 11.2363 28.1336 11.2363 29.6332C11.2363 31.1328 14.3118 31.4549 15.543 31.6313C15.543 31.6313 12.7306 31.1325 12.3789 29.4568C12.0273 27.781 12.9064 26.105 12.9064 26.105Z" fill="#7D330A"/>
<path d="M17.7382 32.6514L17.0352 29.7632C17.0352 29.7632 18.5835 31.7323 18.7245 32.7221L17.7382 32.6514Z" fill="#7D330A"/>
<path d="M7.41642 24.1672L11.674 28.5775L6.83984 24.7845L7.41642 24.1672Z" fill="#7D330A"/>
<path d="M18.6543 32.7925L19.0131 26.1191L19.7112 32.7925H18.6543Z" fill="#7D330A"/>
<path d="M22.7422 32.6514L23.4449 29.7632C23.4449 29.7632 21.8969 31.7323 21.7559 32.7221L22.7422 32.6514Z" fill="#7D330A"/>
<path d="M21.8264 32.7925L21.4676 26.1191L20.7695 32.7925H21.8264Z" fill="#7D330A"/>
<path d="M6.75275 25.5774C6.75275 25.5774 5.2588 27.1652 5.61015 28.4883C5.9615 29.8115 9.65335 30.6935 9.65335 30.6935C9.65335 30.6935 6.49024 29.4586 6.13765 28.4001C5.78505 27.3417 6.75275 25.5774 6.75275 25.5774Z" fill="#7D330A"/>
<path d="M7.22963 26.3589C7.22963 26.3589 6.21844 27.4335 6.45609 28.3289C6.69375 29.2243 9.1936 29.8213 9.1936 29.8213C9.1936 29.8213 7.05193 28.9855 6.81397 28.2694C6.57601 27.5533 7.22963 26.3589 7.22963 26.3589Z" fill="#7D330A"/>
<path d="M7.9423 26.1191C7.9423 26.1191 6.93111 27.1935 7.16907 28.0892C7.40704 28.9849 9.90565 29.5816 9.90565 29.5816C9.90565 29.5816 7.76429 28.7458 7.52633 28.0293C7.28836 27.3129 7.9423 26.1191 7.9423 26.1191Z" fill="#7D330A"/>
<path d="M8.65932 25.8831C8.65932 25.8831 7.64813 26.9577 7.88578 27.8531C8.12343 28.7485 10.6217 29.3455 10.6217 29.3455C10.6217 29.3455 8.48007 28.51 8.24211 27.7936C8.00414 27.0771 8.65932 25.8831 8.65932 25.8831Z" fill="#7D330A"/>
<path d="M33.908 26.3589C33.908 26.3589 34.9195 27.4335 34.6816 28.3289C34.4436 29.2243 31.9453 29.8213 31.9453 29.8213C31.9453 29.8213 34.0867 28.9855 34.3246 28.2694C34.5626 27.5533 33.908 26.3589 33.908 26.3589Z" fill="#7D330A"/>
<path d="M33.1935 26.1191C33.1935 26.1191 34.2047 27.1935 33.9667 28.0892C33.7288 28.9849 31.2305 29.5816 31.2305 29.5816C31.2305 29.5816 33.3718 28.7458 33.6098 28.0293C33.8478 27.3129 33.1935 26.1191 33.1935 26.1191Z" fill="#7D330A"/>
<path d="M32.4787 25.8831C32.4787 25.8831 33.4902 26.9577 33.2522 27.8531C33.0142 28.7485 30.5156 29.3455 30.5156 29.3455C30.5156 29.3455 32.6573 28.51 32.8953 27.7936C33.1332 27.0771 32.4787 25.8831 32.4787 25.8831Z" fill="#7D330A"/>
<path d="M28.2404 26.105C28.2404 26.105 29.9105 28.1336 29.9105 29.6332C29.9105 31.1328 26.835 31.4549 25.6035 31.6313C25.6035 31.6313 28.4162 31.1325 28.7676 29.4568C29.1189 27.781 28.2404 26.105 28.2404 26.105Z" fill="#7D330A"/>
<path d="M33.7263 24.1672L29.4688 28.5775L34.3026 24.7845L33.7263 24.1672Z" fill="#7D330A"/>
<path d="M34.3925 25.5774C34.3925 25.5774 35.8867 27.1652 35.5351 28.4883C35.1834 29.8115 31.4922 30.6935 31.4922 30.6935C31.4922 30.6935 34.6562 29.4586 35.0079 28.4001C35.3596 27.3417 34.3925 25.5774 34.3925 25.5774Z" fill="#7D330A"/>
<path d="M19.709 32.732L20.2287 26.0042L20.7658 33.0042L19.709 32.732Z" fill="#7D330A"/>
<path d="M32.015 13.8454C32.015 13.8454 31.5754 19.4905 29.4676 19.8431C27.3598 20.1957 26.6552 18.9614 27.3582 16.8442C28.0613 14.727 28.5008 13.0516 29.8193 11.9049C31.1377 10.7583 32.718 8.72929 31.3996 5.64282C30.0812 2.55635 26.7416 2.90833 26.7416 2.90833C26.7416 2.90833 29.6419 4.31969 29.8171 7.0548C29.9923 9.78992 26.9168 7.76033 26.1256 5.8199C25.3343 3.87948 26.0376 0.615925 26.0376 0.615925C26.0376 0.615925 23.2253 3.1724 23.9283 5.8199C24.6313 8.46741 26.3014 8.37637 25.9497 11.2003C25.5981 14.0243 23.7524 14.6404 22.8742 12.9643C21.996 11.2883 23.9289 9.87783 23.9289 9.87783C23.9289 9.87783 20.3253 10.2308 21.2044 13.4061C22.0836 16.5814 24.2799 15.8756 24.2799 19.2273C24.2799 22.3625 20.5893 22.4881 20.1122 22.4912H20.0612C19.5841 22.4881 15.8934 22.3625 15.8934 19.2273C15.8934 15.8756 18.0907 16.5811 18.969 13.4061C19.8472 10.2311 16.2454 9.87627 16.2454 9.87627C16.2454 9.87627 18.1793 11.2876 17.3017 12.9627C16.4241 14.6379 14.5772 14.0227 14.2262 11.1988C13.8751 8.37481 15.5424 8.46491 16.2454 5.81897C16.9484 3.17302 14.1364 0.61499 14.1364 0.61499C14.1364 0.61499 14.8394 3.87823 14.0481 5.81897C13.2569 7.7597 10.1811 9.78929 10.3569 7.05387C10.5328 4.31844 13.4324 2.9074 13.4324 2.9074C13.4324 2.9074 10.0944 2.55635 8.77475 5.64282C7.45508 8.72929 9.03819 10.7583 10.3569 11.9049C11.6757 13.0516 12.1137 14.7273 12.8179 16.8442C13.5222 18.9611 12.8179 20.196 10.7086 19.8431C8.59923 19.4902 8.1612 13.8454 8.1612 13.8454C8.1612 13.8454 6.13976 17.2854 7.45818 20.196C8.77661 23.1066 12.9935 23.4596 12.9935 23.4596C12.9935 23.4596 13.7847 23.9896 15.0149 25.5764C16.1643 27.0576 18.8509 27.5483 20.2318 27.5483C21.5757 27.5483 24.0115 27.0576 25.1594 25.5764C26.3899 23.9889 27.1809 23.4596 27.1809 23.4596C27.1809 23.4596 31.3996 23.1069 32.718 20.196C34.0364 17.2851 32.015 13.8454 32.015 13.8454Z" fill="white"/>
<path d="M20.2315 27.766C18.7062 27.766 16.0128 27.2185 14.8441 25.7102C13.8115 24.3781 13.0901 23.8016 12.9146 23.6704C12.139 23.5783 11.377 23.3947 10.6443 23.1235C8.99318 22.5115 7.82263 21.5304 7.25816 20.2865C6.69898 19.0491 6.64461 17.5224 7.10283 15.8712C7.44704 14.6342 7.94968 13.7715 7.97081 13.7353L8.31937 13.143L8.37311 13.8289C8.49178 15.3518 9.14975 19.363 10.7416 19.6293C10.95 19.6655 11.161 19.6846 11.3725 19.6863C11.9553 19.6863 12.3728 19.5167 12.613 19.1822C12.9488 18.7145 12.9478 17.9301 12.6102 16.9135C12.5381 16.6967 12.4684 16.4847 12.4011 16.2775C11.8146 14.4795 11.3511 13.0594 10.2128 12.0687C9.329 11.3002 8.70955 10.4624 8.37249 9.5789C7.89749 8.33434 7.96522 6.98097 8.57348 5.55714C9.05749 4.42387 9.85308 3.60674 10.9382 3.12818C11.8245 2.73723 12.6847 2.67893 13.1184 2.67893C13.324 2.67893 13.448 2.69171 13.4533 2.69233L14.1864 2.76965C14.1474 2.06141 14.0592 1.35677 13.9224 0.660874L13.782 0.000244141L14.2812 0.454173C14.7982 0.948462 15.2534 1.50394 15.6369 2.1084C16.4757 3.43028 16.7577 4.73283 16.4542 5.87514C16.1507 7.01744 15.6732 7.66965 15.2511 8.24143C14.6878 9.00775 14.243 9.6132 14.4374 11.172C14.6509 12.8867 15.4275 13.6689 16.0584 13.6689C16.4623 13.6689 16.8351 13.3821 17.1072 12.8618C17.8898 11.3697 16.1346 10.0646 16.1169 10.0515L15.4738 9.58233L16.265 9.65996C16.3387 9.66713 18.0805 9.85045 18.9056 11.0585C19.348 11.7051 19.439 12.5139 19.1765 13.4622C18.7615 14.9649 18.055 15.6399 17.4312 16.2345C16.6931 16.9378 16.11 17.493 16.11 19.2274C16.11 21.9753 19.2181 22.2459 19.9482 22.2715L20.0877 22.274L20.2216 22.2715C20.9438 22.2468 24.0638 21.9806 24.0638 19.2274C24.0638 17.4943 23.481 16.9387 22.7429 16.2345C22.1187 15.6399 21.4117 14.9659 20.9957 13.4629C20.7332 12.5145 20.8242 11.7058 21.2663 11.0592C22.092 9.85107 23.8339 9.66775 23.9069 9.66058L24.6981 9.58295L24.0551 10.0522C23.7411 10.2975 23.4676 10.5909 23.2446 10.9217C22.8019 11.5932 22.7416 12.2464 23.0647 12.8624C23.3375 13.3827 23.7099 13.6696 24.1132 13.6696C24.7441 13.6696 25.5207 12.888 25.7342 11.1726C25.9283 9.61382 25.4838 9.00775 24.9206 8.24205C24.4993 7.66872 24.0221 7.019 23.7183 5.87576C23.4145 4.73252 23.6975 3.4309 24.536 2.10902C24.9194 1.50461 25.3745 0.949136 25.8914 0.454797L26.3918 0.000244141L26.2483 0.661185C26.1115 1.35708 26.0234 2.06173 25.9846 2.76996L26.7171 2.69264C26.7224 2.69264 26.8466 2.67924 27.0523 2.67924C27.4872 2.67924 28.3459 2.73754 29.2328 3.12849C30.3176 3.60705 31.1132 4.42418 31.5972 5.55745C32.2055 6.98159 32.2729 8.33496 31.7979 9.57921C31.4608 10.4628 30.8417 11.3005 29.9579 12.069C28.8196 13.0591 28.3561 14.4789 27.7696 16.2778C27.7019 16.4856 27.6322 16.6978 27.5605 16.9144C27.2228 17.9311 27.2216 18.7158 27.5574 19.1834C27.7979 19.5176 28.2151 19.6872 28.7979 19.6872C29.0094 19.6856 29.2204 19.6665 29.4288 19.6302C31.0225 19.3639 31.6792 15.3528 31.7976 13.8298L31.851 13.1439L32.1999 13.7363C32.221 13.7724 32.7236 14.6351 33.0678 15.8722C33.5273 17.5245 33.4739 19.05 32.9125 20.2874C32.349 21.5313 31.1787 22.5125 29.5264 23.1245C28.7936 23.3956 28.0316 23.5792 27.2561 23.6713C27.0809 23.8022 26.3595 24.3784 25.3266 25.7112C24.07 27.3364 21.444 27.766 20.2315 27.766ZM8.02486 14.6039C7.52968 15.7166 6.72942 18.067 7.65208 20.1066C8.9034 22.8694 12.969 23.2401 13.01 23.2435L13.0656 23.2482L13.1122 23.2794C13.1457 23.3018 13.9466 23.8465 15.1846 25.4434C16.2504 26.8189 18.845 27.3314 20.2303 27.3314C21.5543 27.3314 23.9137 26.8288 24.987 25.4434C26.225 23.8465 27.0259 23.3018 27.0594 23.2794L27.1057 23.2482L27.1613 23.2435C27.2023 23.2401 31.2701 22.8654 32.5195 20.1066C33.4434 18.067 32.6438 15.7166 32.1467 14.6039C32.0535 15.3323 31.9171 16.0545 31.7382 16.7666C31.2194 18.7887 30.4645 19.8961 29.499 20.0579C29.267 20.0979 29.0321 20.1187 28.7966 20.1203C28.0771 20.1203 27.5267 19.8837 27.2051 19.4344C26.7845 18.8489 26.7649 17.9289 27.1486 16.7741C27.2204 16.5581 27.2893 16.3467 27.357 16.14C27.9644 14.2784 28.4443 12.8082 29.673 11.7394C31.6534 10.0169 32.1663 7.99389 31.198 5.72643C30.3393 3.71586 28.5953 3.23231 27.5341 3.13441C27.8252 3.33493 28.1014 3.55623 28.3608 3.7966C29.3797 4.74405 29.9582 5.86547 30.0337 7.03895C30.0716 7.62913 29.9669 8.06123 29.723 8.32311C29.5546 8.50331 29.3216 8.59871 29.0492 8.59871C28.0284 8.59871 26.4822 7.26218 25.9271 5.90008C25.3403 4.46128 25.5385 2.36997 25.7019 1.28191C24.9563 2.13583 23.6568 3.94687 24.1389 5.76197C24.4216 6.82571 24.873 7.4402 25.2713 7.98235C25.8674 8.79294 26.3819 9.49379 26.1663 11.2247C25.9178 13.2122 24.9581 14.1017 24.116 14.102C23.5524 14.102 23.0305 13.7232 22.6845 13.0629C22.2859 12.3031 22.3583 11.4754 22.8935 10.6695C22.9908 10.5236 23.0978 10.3846 23.2138 10.2532C22.6928 10.4141 22.02 10.7243 21.6242 11.3045C21.2585 11.8404 21.1893 12.5266 21.4145 13.3447C21.7985 14.7317 22.431 15.3347 23.0426 15.9174C23.7913 16.6307 24.4987 17.3047 24.4987 19.2243C24.4987 22.3192 21.1517 22.6637 20.28 22.7011V22.7064H20.0902H19.8979V22.7008C19.0243 22.6655 15.6773 22.3226 15.6773 19.2261C15.6773 17.3066 16.3846 16.6326 17.133 15.9193C17.745 15.3366 18.3775 14.7346 18.7615 13.3466C18.9879 12.5279 18.9168 11.8408 18.5505 11.3048C18.1532 10.7249 17.4809 10.4132 16.9597 10.2539C17.076 10.3856 17.1833 10.525 17.2809 10.6713C17.8165 11.4772 17.8888 12.305 17.4903 13.0647C17.1442 13.7251 16.6204 14.1039 16.0584 14.1039C15.2159 14.1039 14.2566 13.2141 14.0081 11.2266C13.7925 9.49504 14.307 8.79481 14.9028 7.98423C15.3011 7.44207 15.7528 6.82758 16.0352 5.76384C16.5195 3.94469 15.22 2.13521 14.4744 1.28191C14.6378 2.36997 14.8363 4.46191 14.2495 5.90133C13.6944 7.26311 12.1479 8.59965 11.1271 8.59996C10.8546 8.59996 10.6216 8.50456 10.4533 8.32436C10.2088 8.06279 10.1041 7.63068 10.1426 7.0402C10.2181 5.86547 10.795 4.74406 11.8155 3.79785C12.0739 3.55815 12.3493 3.33748 12.6394 3.13753C11.5782 3.23636 9.83382 3.71897 8.97361 5.72954C8.00529 7.99576 8.51819 10.0188 10.498 11.7413C11.727 12.81 12.2066 14.2806 12.8143 16.1422C12.882 16.3488 12.9514 16.56 13.0224 16.776C13.4061 17.9295 13.3865 18.8505 12.9659 19.4363C12.6443 19.884 12.0942 20.1222 11.3744 20.1222C11.139 20.1206 10.9042 20.0997 10.6723 20.0598C9.70521 19.898 8.95186 18.7906 8.43276 16.7685C8.25415 16.0557 8.11795 15.3329 8.02486 14.6039ZM25.9852 2.78087C25.9333 3.75857 25.9802 4.88747 26.3269 5.73703C26.8081 6.91737 28.207 8.16567 29.0486 8.16536C29.2039 8.16536 29.3201 8.12016 29.4071 8.02725C29.5624 7.8589 29.6314 7.52843 29.6022 7.06826C29.4366 4.49527 26.6751 3.11758 26.6472 3.10386L25.9852 2.78087ZM14.1892 2.78087L13.5272 3.10293C13.4996 3.11664 10.7378 4.49433 10.5726 7.06733C10.543 7.52655 10.6105 7.85827 10.7677 8.02631C10.8546 8.11984 10.9718 8.16442 11.1258 8.16442C11.9677 8.16442 13.3666 6.91737 13.8478 5.73609C14.1948 4.88747 14.2408 3.75888 14.1892 2.78181V2.78087Z" fill="#7D330A"/>
<path d="M13.0827 2.82176C12.4797 3.03844 11.8786 3.38076 11.3514 3.74459C10.859 4.08472 10.4039 4.49095 10.0696 4.99164C9.42034 5.96435 9.15535 7.33705 9.53311 8.46314C9.91242 9.59423 11.2007 9.84364 12.2023 9.41746C13.3079 8.947 14.1501 7.88451 14.6676 6.82825C15.2392 5.6681 15.4274 4.35531 15.2048 3.08053C15.1979 3.04249 15.1768 3.07024 15.1805 3.0958C15.4912 5.22516 14.5642 7.60797 12.7298 8.78707C11.8885 9.32798 10.621 9.56648 9.89844 8.68263C9.51509 8.21311 9.48806 7.48888 9.55392 6.91087C9.62257 6.31838 9.82049 5.74836 10.1336 5.24137C10.4666 4.70233 10.9227 4.26648 11.4418 3.91013C11.9699 3.54661 12.558 3.2919 13.0982 2.9499C13.1293 2.93026 13.1293 2.80555 13.0827 2.82176Z" fill="#7D330A"/>
<path d="M8.93787 9.10629C9.1662 10.5688 10.8382 11.1611 11.6567 12.2264C12.2554 13.0058 12.5517 13.9991 12.858 14.9191C13.0275 15.4279 13.1862 15.94 13.3343 16.4552C13.4794 16.959 13.6294 17.4684 13.6813 17.9922C13.7388 18.5696 13.6502 19.1457 13.2958 19.6174C12.9972 20.0128 12.6036 20.2778 12.0997 20.2784C12.0566 20.2784 12.0553 20.4174 12.0997 20.4202C12.8991 20.472 13.5182 19.8151 13.7291 19.0937C14.0177 18.106 13.6617 17.0298 13.384 16.083C13.0833 15.0585 12.7683 14.0141 12.3371 13.0361C12.1445 12.5996 11.9093 12.1756 11.5946 11.8152C11.3417 11.5256 11.0432 11.2824 10.7384 11.0501C10.0218 10.5036 9.19416 10.0213 8.96552 9.07979C8.95558 9.03926 8.93445 9.08571 8.93787 9.10629Z" fill="#7D330A"/>
<path d="M7.75414 16.3022C7.39782 17.5779 7.57085 19.0239 8.17477 20.1971C8.8489 21.5065 10.0322 22.4006 11.4767 22.6815C12.373 22.8491 13.2962 22.7973 14.1683 22.5306C14.2031 22.52 14.1975 22.3897 14.1605 22.3959C12.7004 22.6347 11.1751 22.544 9.88929 21.7381C8.79236 21.0522 8.06697 19.8853 7.79173 18.6304C7.62553 17.8722 7.63423 17.1078 7.78894 16.3486C7.79453 16.3209 7.77061 16.2436 7.75414 16.3022Z" fill="#7D330A"/>
<path d="M13.5728 22.5244C13.7282 23.1052 14.132 23.6804 14.4852 24.1577C14.857 24.664 15.2944 25.1182 15.7859 25.5083C16.7937 26.3011 18.1469 26.8654 19.447 26.708C19.5023 26.7014 19.5033 26.5324 19.447 26.5287C18.137 26.4386 16.9307 26.0314 15.8894 25.214C15.4031 24.827 14.9654 24.3821 14.5862 23.889C14.4102 23.6633 14.2445 23.4294 14.0891 23.1875C13.9372 22.949 13.8055 22.636 13.6123 22.4327C13.5719 22.39 13.5669 22.5057 13.5719 22.5244H13.5728Z" fill="#7D330A"/>
<path d="M15.4783 17.624C15.687 17.1389 15.9418 16.7236 16.3171 16.3492C16.6662 16.0019 17.0536 15.6966 17.4044 15.3515C18.0533 14.7171 18.7038 13.8551 18.5777 12.8886C18.5659 12.7985 18.5128 12.8406 18.51 12.9095C18.469 13.9695 17.7284 14.7367 17.0092 15.4329C16.4012 16.0212 15.6507 16.7049 15.4423 17.5616C15.4373 17.581 15.455 17.6717 15.4764 17.6218L15.4783 17.624Z" fill="#7D330A"/>
<path d="M17.5716 10.9245C17.9382 11.4723 18.1578 12.0746 17.9686 12.7352C17.8077 13.2983 17.4203 13.716 16.9434 14.0325C16.9124 14.0537 16.9124 14.1883 16.9599 14.169C18.159 13.6559 18.5318 11.7703 17.5927 10.8425C17.5616 10.8113 17.5592 10.9048 17.5716 10.9245Z" fill="#7D330A"/>
<path d="M15.7611 4.16637C15.8913 5.13097 15.6648 5.99612 15.2289 6.85004C15.2156 6.87654 15.2345 7.00873 15.2668 6.96134C15.8108 6.16135 15.9596 5.0789 15.8064 4.138C15.7946 4.06629 15.7546 4.11867 15.7611 4.16637Z" fill="#7D330A"/>
<path d="M27.1899 2.9499C27.6627 3.24919 28.1772 3.47522 28.65 3.7795C29.1346 4.09127 29.5798 4.45447 29.9321 4.91557C30.6202 5.81595 31.0359 7.21951 30.6009 8.32036C30.1735 9.40062 28.7991 9.44271 27.9079 8.99096C26.9501 8.50461 26.171 7.61546 25.696 6.65865C25.1564 5.5709 24.933 4.30077 25.1088 3.0958C25.1126 3.07055 25.0914 3.04218 25.0846 3.08053C24.8859 4.20617 25.0091 5.36526 25.4397 6.42358C25.8811 7.51476 26.6401 8.57476 27.6562 9.19486C28.5618 9.7473 29.9551 9.87139 30.5851 8.83539C30.8998 8.31911 30.9436 7.63915 30.9041 7.0496C30.8661 6.45425 30.7039 5.87356 30.4279 5.34519C30.1172 4.75283 29.6581 4.27895 29.1272 3.88176C28.5553 3.45371 27.8777 3.06338 27.2051 2.82176C27.1598 2.80555 27.1585 2.93026 27.1896 2.9499H27.1899Z" fill="#7D330A"/>
<path d="M31.3222 9.08077C31.1196 9.91474 30.4523 10.3715 29.8086 10.856C29.1199 11.3729 28.5287 11.8935 28.1246 12.6723C27.6427 13.601 27.3414 14.6464 27.0357 15.6437C26.7356 16.6242 26.347 17.6954 26.4862 18.7371C26.6002 19.5922 27.2411 20.4829 28.1879 20.4206C28.2321 20.4178 28.2314 20.279 28.1879 20.2787C27.232 20.2772 26.6228 19.3148 26.5902 18.4359C26.5703 17.8978 26.7008 17.3659 26.8419 16.8506C26.9794 16.3495 27.1278 15.8514 27.287 15.3563C27.5884 14.4148 27.8773 13.4034 28.4026 12.5576C28.8409 11.8517 29.5064 11.4115 30.1202 10.8784C30.6726 10.3986 31.2318 9.86361 31.3501 9.10665C31.3532 9.08638 31.3321 9.03868 31.3222 9.08015V9.08077Z" fill="#7D330A"/>
<path d="M32.4989 16.3486C32.767 17.6633 32.5707 19.0488 31.8776 20.2067C31.1578 21.4101 29.9515 22.1899 28.5769 22.4249C27.7512 22.5662 26.9509 22.5306 26.1267 22.3959C26.0891 22.3897 26.0848 22.5206 26.1187 22.5306C27.6036 22.9873 29.3563 22.8312 30.6446 21.9208C31.7512 21.1383 32.4396 19.8653 32.6462 18.5372C32.7608 17.8005 32.7341 17.0217 32.5331 16.3022C32.5166 16.2436 32.4927 16.3209 32.4983 16.3486H32.4989Z" fill="#7D330A"/>
<path d="M26.6739 22.4327C26.4893 22.627 26.3632 22.9263 26.2178 23.1545C26.0579 23.4076 25.8856 23.6525 25.7009 23.889C25.3208 24.3819 24.8827 24.8268 24.3961 25.214C23.357 26.0327 22.1494 26.438 20.8407 26.5287C20.7847 26.5324 20.785 26.7014 20.8407 26.708C22.1398 26.8638 23.4952 26.3027 24.5017 25.5083C24.9827 25.1264 25.4121 24.6832 25.7789 24.1898C26.1414 23.7044 26.5555 23.1171 26.7149 22.5244C26.7198 22.5057 26.7149 22.39 26.6745 22.4327H26.6739Z" fill="#7D330A"/>
<path d="M24.8427 17.5651C24.6343 16.7084 23.8837 16.0247 23.2758 15.4364C22.5566 14.7402 21.8157 13.9732 21.775 12.9129C21.7722 12.8468 21.7194 12.7988 21.7073 12.892C21.5808 13.8585 22.232 14.7193 22.8806 15.355C23.2326 15.6979 23.6197 16.0041 23.9679 16.3526C24.3441 16.7267 24.5986 17.1423 24.8067 17.6274C24.8281 17.6776 24.8455 17.586 24.8409 17.5673L24.8427 17.5651Z" fill="#7D330A"/>
<path d="M22.695 10.8422C21.7559 11.77 22.1287 13.6556 23.3278 14.1687C23.3741 14.1887 23.3772 14.0537 23.3443 14.0322C22.8668 13.7154 22.4807 13.2983 22.3191 12.7349C22.1296 12.0746 22.3502 11.4717 22.7162 10.9242C22.7286 10.9061 22.7261 10.8117 22.6953 10.8422H22.695Z" fill="#7D330A"/>
<path d="M24.4826 4.13799C24.3295 5.07889 24.4783 6.16134 25.0222 6.96133C25.0551 7.00965 25.0729 6.87528 25.0601 6.85003C24.6252 5.9961 24.3981 5.13096 24.528 4.16636C24.5345 4.11928 24.4944 4.06597 24.4826 4.13799Z" fill="#7D330A"/>
<path d="M4.20481 23.2796C4.35796 22.672 4.92988 22.1623 4.84259 21.5418C4.7904 21.1705 4.51143 20.8806 4.31447 20.5629C4.11751 20.2452 4.01003 19.79 4.27346 19.5244C3.71118 19.8674 3.41978 20.6016 3.59375 21.2391C3.16504 20.7914 2.3477 20.817 1.94727 21.2906C2.55336 21.2086 3.18026 21.6796 3.27253 22.2863C3.3126 22.5479 3.26445 22.8142 3.26942 23.0788C3.28247 23.7513 3.69906 24.5055 4.3328 24.7334C4.27533 24.2707 4.08272 23.7644 4.20481 23.2796Z" fill="white"/>
<path d="M5.67222 21.53C5.53988 22.002 5.17237 22.3656 4.92664 22.7905C4.68091 23.2154 4.59207 23.8237 4.96113 24.1454L5.56007 23.2694C5.86669 22.7606 5.77598 22.1155 5.67222 21.53Z" fill="white"/>
<path d="M36.887 23.2796C36.7338 22.672 36.1622 22.1623 36.2492 21.5418C36.3014 21.1705 36.5803 20.8806 36.7773 20.5629C36.9743 20.2452 37.0821 19.79 36.8183 19.5244C37.3806 19.8674 37.6723 20.6016 37.498 21.2391C37.927 20.7914 38.7444 20.817 39.1445 21.2906C38.5387 21.2086 37.9118 21.6796 37.8192 22.2863C37.7795 22.5479 37.8276 22.8142 37.8224 23.0788C37.8093 23.7513 37.393 24.5055 36.7593 24.7334C36.8164 24.2707 37.0094 23.7644 36.887 23.2796Z" fill="white"/>
<path d="M35.4217 21.53C35.5544 22.002 35.9219 22.3656 36.1673 22.7905C36.4127 23.2154 36.5019 23.8237 36.1328 24.1454L35.5335 23.2694C35.2275 22.7606 35.3189 22.1155 35.4217 21.53Z" fill="white"/>
<defs>
<linearGradient id="paint0_linear_565_86224" x1="20.5063" y1="40.0679" x2="20.5063" y2="47.9787" gradientUnits="userSpaceOnUse">
<stop stop-color="#72006D"/>
<stop offset="1"/>
</linearGradient>
<linearGradient id="paint1_linear_565_86224" x1="20.5066" y1="34.5715" x2="20.5066" y2="43.6571" gradientUnits="userSpaceOnUse">
<stop stop-color="#72006D"/>
<stop offset="1"/>
</linearGradient>
<linearGradient id="paint2_linear_565_86224" x1="20.5057" y1="29.4575" x2="20.5057" y2="38.1012" gradientUnits="userSpaceOnUse">
<stop stop-color="#72006D"/>
<stop offset="1"/>
</linearGradient>
<linearGradient id="paint3_linear_565_86224" x1="20.2934" y1="29.9822" x2="20.2934" y2="37.3197" gradientUnits="userSpaceOnUse">
<stop stop-color="#BABABA"/>
<stop offset="1"/>
</linearGradient>
</defs>
</svg>
