<svg width="39" height="39" viewBox="0 0 39 39" fill="none" xmlns="http://www.w3.org/2000/svg">
<g clip-path="url(#clip0_565_94238)">
<g filter="url(#filter0_dd_565_94238)">
<path d="M0 3.46426L3.46426 0H19.0534H34.6426L38.1068 3.46426V19.0534V34.6426L34.6426 38.1068H19.0534H3.46426L0 34.6426V19.0534V3.46426Z" fill="#F8F8F8"/>
<path d="M0.433032 19.0534V3.64362L3.64362 0.433032H19.0534H34.4632L37.6738 3.64362V19.0534V34.4632L34.4632 37.6738H19.0534H3.64362L0.433032 34.4632V19.0534Z" stroke="#D0D5DD" stroke-width="0.866064"/>
</g>
<path d="M22.5072 25.0368C20.8641 24.7838 19.0872 25.069 18.884 25.1033C18.6811 25.069 16.9038 24.7838 15.2607 25.0368C13.5153 25.3055 12.6426 26.1493 12.6426 26.1493C12.6426 26.1493 12.9461 27.6848 13.7423 28.3758C13.7423 28.3758 16.7967 27.6127 18.8834 27.6081C20.9698 27.6127 24.0244 28.3758 24.0244 28.3758C24.8212 27.6848 25.1241 26.1493 25.1241 26.1493C25.1241 26.1493 24.2526 25.3055 22.5072 25.0368Z" fill="#6A0067"/>
<path d="M24.0425 28.4588L24.0061 28.4498C23.9757 28.4422 20.936 27.6888 18.8828 27.6842C16.8295 27.6888 13.7899 28.4422 13.7595 28.4498L13.7232 28.4588L13.6947 28.4342C12.8881 27.7348 12.583 26.2302 12.5704 26.1665L12.5625 26.1268L12.5913 26.0989C12.6277 26.0639 13.5008 25.2353 15.2489 24.9663C15.6993 24.897 16.2 24.8618 16.7376 24.8618C17.8045 24.8618 18.6874 24.9983 18.8835 25.0309C19.0794 24.9983 19.9625 24.8618 21.0294 24.8618C21.5658 24.8618 22.0673 24.897 22.5181 24.9663C24.2662 25.2353 25.1393 26.0639 25.1756 26.0989L25.2045 26.1268L25.1967 26.1665C25.1841 26.2302 24.8788 27.7348 24.0722 28.4342L24.0425 28.4588ZM12.7212 26.1784C12.7748 26.4212 13.0833 27.6844 13.761 28.298C14.116 28.2116 16.9346 27.5416 18.8823 27.5373C20.8303 27.5416 23.649 28.2116 24.004 28.298C24.6817 27.6838 24.9897 26.4212 25.0439 26.1784C24.8778 26.034 24.0199 25.3464 22.4947 25.1116C22.0522 25.0438 21.5582 25.0088 21.0283 25.0088C19.9495 25.0088 19.0616 25.1497 18.8945 25.1779L18.8825 25.18L18.8705 25.1779C18.7035 25.1497 17.8156 25.0088 16.7367 25.0088C16.2069 25.0088 15.7135 25.0433 15.2702 25.1116C13.7452 25.3464 12.8873 26.0339 12.7212 26.1784Z" fill="#F8F8F8"/>
<path d="M26.8318 23.7599C26.8318 23.7599 25.4655 23.363 23.6818 22.887C22.0418 22.449 19.3106 22.5478 18.8823 22.5668C18.454 22.5481 15.7228 22.449 14.0828 22.887C12.299 23.363 10.9334 23.7599 10.9334 23.7599C10.9334 23.7599 10.8575 25.4264 11.6923 26.4978C11.6923 26.4978 13.931 25.4667 15.6006 25.3074C17.164 25.1581 18.6942 25.1145 18.8823 25.1094C19.0701 25.1145 20.6005 25.1587 22.1641 25.3074C23.8336 25.4661 26.0723 26.4978 26.0723 26.4978C26.9076 25.4264 26.8318 23.7599 26.8318 23.7599Z" fill="#6A0067"/>
<path d="M26.097 26.5862L26.0451 26.5624C26.0229 26.552 23.7981 25.5339 22.1601 25.3782C20.6006 25.23 19.0651 25.1855 18.8852 25.1806C18.7053 25.1855 17.1699 25.2299 15.6102 25.3782C13.9722 25.5339 11.7476 26.552 11.7253 26.5624L11.6734 26.5862L11.638 26.5409C10.7962 25.4604 10.8601 23.8234 10.8638 23.7542L10.8661 23.7014L10.9162 23.6869C10.9296 23.6829 12.3034 23.2845 14.0672 22.8136C15.136 22.5286 16.6579 22.4683 17.7466 22.4683C18.3033 22.4683 18.7256 22.484 18.8852 22.4909C19.0443 22.484 19.467 22.4683 20.0238 22.4683C21.1124 22.4683 22.6344 22.5282 23.7032 22.8136C25.4669 23.2845 26.8405 23.6829 26.8541 23.6869L26.9043 23.7014L26.9067 23.7542C26.9098 23.8234 26.9738 25.4604 26.1323 26.5409L26.097 26.5862ZM11.0077 23.8133C11.0042 24.0982 11.0254 25.4729 11.7178 26.4047C12.0675 26.2487 14.0763 25.3764 15.5967 25.2318C17.1666 25.0826 18.7122 25.0382 18.8826 25.0336H18.8864C19.0574 25.0382 20.6032 25.0826 22.173 25.2318C23.6934 25.3764 25.7022 26.2494 26.0518 26.4047C26.7443 25.4729 26.7655 24.0982 26.7627 23.8133C26.4975 23.7368 25.2367 23.375 23.6661 22.9557C22.6124 22.6743 21.1038 22.6153 20.0238 22.6153C19.4662 22.6153 19.0447 22.6312 18.8883 22.638H18.8827C18.7271 22.6312 18.3049 22.6153 17.7472 22.6153C16.6672 22.6153 15.1588 22.6743 14.1049 22.9557C12.5335 23.3751 11.2728 23.7363 11.0077 23.8133Z" fill="#F8F8F8"/>
<path d="M27.0986 21.8497L26.6054 20.6983L25.4291 20.3145L18.8842 21.6848L12.3392 20.3145L11.1629 20.6983L10.6696 21.8497L10.3281 24.076C10.3281 24.076 12.4909 23.27 14.6917 22.9245C16.3063 22.6711 18.3292 22.6844 18.8268 22.6921V22.6943L18.8842 22.6931L18.9415 22.6943V22.6921C19.439 22.6844 21.4619 22.6711 23.0766 22.9245C25.2773 23.27 27.4401 24.076 27.4401 24.076L27.0986 21.8497Z" fill="#6A0067"/>
<path d="M27.5301 24.189L27.4142 24.1458C27.3926 24.1378 25.2325 23.3383 23.0647 22.998C21.7637 22.7937 20.1945 22.7632 19.3764 22.7632C19.2277 22.7632 19.1046 22.7643 19.0143 22.7654V22.7704L18.9399 22.7685L18.8843 22.7674L18.8287 22.7685L18.7542 22.7704V22.7654C18.6636 22.7643 18.5396 22.7632 18.3921 22.7632C17.5729 22.7632 16.0048 22.7937 14.7039 22.998C12.5359 23.3383 10.3758 24.1377 10.3542 24.1458L10.2383 24.189L10.6004 21.83L10.6042 21.8213L11.1105 20.6392L12.3364 20.2393L12.3551 20.2432L18.8854 21.61L25.4344 20.2397L26.6602 20.6396L27.1699 21.8304L27.1714 21.8397L27.5301 24.189ZM19.3757 22.6163C20.199 22.6163 21.7758 22.6469 23.0867 22.8527C24.9819 23.1503 26.8699 23.7959 27.3485 23.9661L27.0266 21.8711L26.5501 20.7586L25.4235 20.3909L18.8827 21.76L18.868 21.7569L12.3418 20.3909L11.2152 20.7586L10.7387 21.8711L10.418 23.9666C10.8967 23.7965 12.7848 23.1508 14.6799 22.8533C15.9907 22.6475 17.5676 22.6168 18.3909 22.6168C18.5842 22.6168 18.7349 22.6184 18.8272 22.6199L18.8835 22.6207L18.9397 22.6199C19.032 22.6179 19.1826 22.6163 19.376 22.6163H19.3757Z" fill="#F8F8F8"/>
<path d="M13.8933 20.9556L14.2177 22.5148C14.2177 22.5148 15.1297 23.5611 16.3876 23.6432C17.6455 23.7253 21.3562 23.8482 22.1268 23.5405C22.8974 23.2328 23.5058 22.1866 23.5058 22.1866L23.7086 20.5449L13.873 20.5856L13.8933 20.9556Z" fill="#6A0067"/>
<path d="M17.8038 22.1559C17.652 22.6549 17.6519 22.9236 17.2346 23.0771C16.9218 23.1922 16.631 23.3288 16.3603 23.3093C16.3602 23.3086 16.3602 23.3078 16.3603 23.3071L16.3593 23.3093C16.2667 23.3032 16.1767 23.2763 16.0956 23.2306C15.754 23.0387 15.2229 22.7317 14.9572 22.7317C14.6916 22.7317 14.5399 21.8104 14.3123 21.7337C14.0847 21.657 13.8569 21.8871 13.8948 22.1559C13.9223 22.3499 14.1873 23.5454 14.3323 24.1943C14.3209 24.2148 14.3107 24.236 14.3017 24.2578L14.3443 24.2487C14.3934 24.4678 14.426 24.6124 14.426 24.6124C14.426 24.6124 14.5706 25.3615 14.872 26.0403C14.8762 26.0635 14.8805 26.0864 14.8854 26.1093L14.8988 26.0989C15.0294 26.3824 15.1877 26.6494 15.3749 26.8388C15.4073 26.8715 15.4373 26.9036 15.4652 26.9352C15.4606 26.9668 15.4559 26.9987 15.4508 27.0301C15.299 27.9898 15.8682 29.41 15.8682 29.41C15.8682 29.41 15.8682 28.6807 15.8302 27.9898C15.8249 27.8922 15.834 27.7716 15.8521 27.6354C15.9301 27.891 15.9702 28.1132 16.2098 28.3353C16.4936 28.5985 16.6447 28.6826 16.7184 28.7088C16.7608 28.7238 16.7961 28.7545 16.8171 28.7947C16.9956 29.1365 17.7851 30.5178 18.8637 30.4863C20.0944 30.522 20.9486 28.7191 20.9486 28.7191C20.9486 28.7191 21.0624 28.7575 21.5178 28.3353C21.7379 28.1318 21.7895 27.9269 21.8571 27.6968C21.8699 27.7939 21.8746 27.8919 21.8713 27.9898C21.8333 28.6807 21.8333 29.41 21.8333 29.41C21.8333 29.41 22.4025 27.9898 22.2507 27.0301C22.247 27.0067 22.2435 26.9833 22.2401 26.96C22.2742 26.9204 22.3115 26.8798 22.3525 26.8379C22.9976 26.1853 23.3011 24.6115 23.3011 24.6115C23.3011 24.6115 23.3332 24.4693 23.3816 24.2529L23.3996 24.2568C23.3956 24.2472 23.3914 24.2378 23.3871 24.2286C23.5302 23.5888 23.8045 22.3526 23.8324 22.155C23.8703 21.8862 23.6426 21.656 23.415 21.7328C23.1874 21.8095 23.0356 22.7308 22.7699 22.7308C22.5042 22.7308 21.9731 23.0378 21.6316 23.2296C21.543 23.2794 21.4438 23.3068 21.3425 23.3096L21.341 23.3062C21.3414 23.3073 21.3418 23.3084 21.3421 23.3096C21.0792 23.3192 20.7962 23.1874 20.4932 23.0762C20.0759 22.9226 20.0759 22.654 19.924 22.155L17.8038 22.1559Z" fill="#F8F8F8"/>
<path d="M21.9497 24.9191C21.9497 24.9191 21.2133 24.804 20.9809 25.2262L20.9034 26.0706C20.9034 26.0706 20.012 26.3394 19.8957 26.1858C19.8957 26.1858 19.1983 26.4164 18.8496 26.2626V27.0686L19.6247 27.0302L20.2836 26.8768L20.8649 26.8L20.9811 27.2613C20.9811 27.2613 21.5624 26.9157 21.8725 27.4531C21.8725 27.4531 21.5624 26.3784 21.5624 25.8026C21.5624 25.2268 21.9497 24.9191 21.9497 24.9191Z" fill="#6A0067"/>
<path d="M18.9041 30.5632C18.8919 30.5632 18.8796 30.5632 18.8672 30.5632H18.8596C17.8403 30.5632 17.1233 29.3437 16.8881 28.943C16.8659 28.9055 16.8434 28.8671 16.8284 28.8435C16.7604 28.828 16.5541 28.7533 16.1653 28.3928C15.9406 28.1844 15.8795 27.9749 15.8148 27.7531C15.7403 27.4969 15.663 27.2322 15.3283 26.8936C14.6786 26.2364 14.376 24.7113 14.3599 24.6306C14.3361 24.5257 13.8652 22.4363 13.8273 22.1685C13.8175 22.101 13.822 22.0322 13.8407 21.9666C13.8594 21.9011 13.8918 21.8404 13.9357 21.7886C13.9714 21.7454 14.0158 21.7105 14.066 21.6861C14.1162 21.6618 14.171 21.6486 14.2266 21.6475C14.2651 21.6475 14.3032 21.6538 14.3397 21.6662C14.4762 21.7122 14.5658 21.9293 14.6695 22.1807C14.7482 22.3717 14.8673 22.6605 14.9617 22.6605C15.2329 22.6605 15.7239 22.937 16.0825 23.139L16.1354 23.1687C16.2215 23.2168 16.3186 23.2414 16.417 23.2399C16.6132 23.2399 16.829 23.157 17.0576 23.0694C17.1091 23.0496 17.1611 23.0296 17.2137 23.0104C17.5273 22.895 17.5758 22.7184 17.6726 22.3666C17.6916 22.2977 17.7129 22.2196 17.7382 22.1359C17.8723 21.6969 18.5488 21.5335 18.8337 21.4836L18.846 21.4814L18.8585 21.4836C19.2296 21.5486 19.8712 21.7198 19.9985 22.1359C20.0239 22.2191 20.0453 22.2971 20.0642 22.3666C20.1609 22.7184 20.2095 22.8957 20.5231 23.0104C20.5758 23.0296 20.6278 23.0497 20.6793 23.0694C20.9073 23.1572 21.1236 23.2399 21.3198 23.2399C21.4183 23.2414 21.5154 23.2169 21.6015 23.1687L21.6543 23.139C22.013 22.937 22.504 22.6605 22.7752 22.6605C22.869 22.6605 22.9887 22.3717 23.0675 22.1807C23.1712 21.9293 23.2607 21.7122 23.3973 21.6662C23.4337 21.6538 23.4719 21.6475 23.5103 21.6475C23.5659 21.6486 23.6207 21.6617 23.6709 21.6861C23.7211 21.7104 23.7656 21.7454 23.8013 21.7886C23.8452 21.8404 23.8776 21.9011 23.8963 21.9666C23.9149 22.0322 23.9195 22.101 23.9095 22.1685C23.8718 22.4362 23.401 24.526 23.3775 24.63C23.3619 24.7114 23.0588 26.2359 22.4092 26.8931C22.0745 27.2322 21.9973 27.4964 21.9226 27.7526C21.8579 27.9744 21.7969 28.1839 21.5721 28.3923C21.3527 28.5958 21.1793 28.7241 21.0567 28.774C21.0198 28.7885 20.9892 28.8157 20.9701 28.8507C20.7563 29.2524 19.9787 30.5632 18.9041 30.5632ZM18.8692 30.4156H18.8706C18.8819 30.4156 18.8933 30.4156 18.9045 30.4156C19.8985 30.4156 20.6383 29.1642 20.8415 28.7807C20.8768 28.7152 20.9338 28.6643 21.0024 28.637C21.0622 28.6127 21.2036 28.5344 21.4738 28.2833C21.6687 28.1026 21.7217 27.9208 21.7831 27.7105C21.8591 27.4495 21.9454 27.1542 22.3062 26.7879C22.9283 26.1585 23.2316 24.615 23.2348 24.5995V24.5972C23.2397 24.5753 23.7278 22.4092 23.765 22.1465C23.7719 22.0999 23.7688 22.0523 23.756 22.007C23.7432 21.9616 23.7209 21.9196 23.6907 21.8837C23.6245 21.8067 23.5297 21.7752 23.4424 21.8045C23.3686 21.8293 23.2715 22.0644 23.201 22.2362C23.0803 22.5294 22.9659 22.806 22.7745 22.806C22.5411 22.806 22.0496 23.0829 21.7243 23.2661L21.6715 23.2958C21.5639 23.3562 21.4425 23.3872 21.3194 23.3856C21.0965 23.3856 20.8687 23.2981 20.6274 23.2055C20.5766 23.186 20.5251 23.1662 20.473 23.1471C20.0892 23.0059 20.0233 22.7672 19.9231 22.4046C19.9036 22.3333 19.8829 22.2595 19.8586 22.1784C19.7525 21.8299 19.1249 21.6798 18.8458 21.6299C18.6312 21.6687 17.9874 21.8144 17.8768 22.1784C17.8521 22.2598 17.8318 22.3333 17.8121 22.4047C17.7126 22.7667 17.6468 23.0059 17.2622 23.1471C17.2103 23.1662 17.1588 23.1859 17.108 23.2055C16.8666 23.2981 16.6386 23.3855 16.416 23.3856C16.2929 23.3872 16.1715 23.3563 16.0639 23.2958L16.0103 23.266C15.6851 23.0828 15.1936 22.806 14.9602 22.806C14.769 22.806 14.6547 22.5293 14.5339 22.2362C14.4631 22.0644 14.3661 21.8292 14.2925 21.8045C14.2058 21.7753 14.1105 21.8067 14.0443 21.8837C14.0141 21.9196 13.9918 21.9616 13.9789 22.0069C13.9661 22.0523 13.9631 22.0999 13.97 22.1465C14.0071 22.4092 14.4953 24.5751 14.5002 24.5972V24.5995C14.5032 24.615 14.8072 26.1589 15.4288 26.7879C15.7898 27.1529 15.876 27.4488 15.9519 27.7105C16.0132 27.9208 16.0662 28.1026 16.2612 28.2833C16.6012 28.5986 16.7842 28.6768 16.8421 28.6947C16.8472 28.6935 16.8526 28.6929 16.8579 28.6929C16.9083 28.6929 16.9219 28.716 17.0105 28.8667C17.2357 29.2497 17.9212 30.415 18.8576 30.415L18.8692 30.4156Z" fill="#6A0067"/>
<path d="M15.9422 29.7864L15.8022 29.437C15.7785 29.3783 15.2272 27.9867 15.3804 27.018C15.5279 26.0807 15.4194 25.3594 15.4183 25.352L15.4167 25.3421L15.4179 25.3321C15.4201 25.3135 15.4741 24.8774 15.7666 24.8774C15.8596 24.8774 15.9583 24.9226 16.0684 25.0154C16.3903 25.2868 16.2226 26.1115 16.0605 26.909C15.9734 27.3371 15.8913 27.7415 15.9046 27.985C15.9423 28.6701 15.9427 29.402 15.9427 29.4096L15.9422 29.7864ZM15.5636 25.3405C15.5779 25.4401 15.6674 26.1342 15.5233 27.0412C15.426 27.657 15.6368 28.4793 15.7916 28.9677C15.7869 28.698 15.7773 28.3397 15.7583 27.9936C15.7439 27.7309 15.8279 27.3175 15.917 26.8798C16.056 26.1955 16.2292 25.3439 15.9741 25.1288C15.8936 25.061 15.8213 25.0249 15.7654 25.0249C15.6203 25.0242 15.5713 25.2884 15.5632 25.3405H15.5636Z" fill="#6A0067"/>
<path d="M18.4747 26.4229C18.1866 26.4229 17.8638 26.3041 17.768 26.2661C17.7051 26.2876 17.639 26.2981 17.5726 26.2973C17.3615 26.2973 17.1552 26.2065 17.1032 26.182L16.7129 26.138L16.6582 25.1426L16.8028 25.3362C16.8036 25.3371 16.9082 25.4719 17.1441 25.5397C17.3539 25.6005 18.406 25.6136 18.7938 25.6136H18.8665V26.2997L18.8374 26.3217C18.749 26.3885 18.6268 26.4229 18.4747 26.4229ZM17.7684 26.1065L17.7969 26.1186C17.8006 26.1201 18.169 26.2752 18.4748 26.2753C18.5776 26.2753 18.66 26.2578 18.7205 26.2234V25.7607C18.4255 25.7595 17.3434 25.7505 17.1037 25.6812C17.005 25.6534 16.9113 25.6096 16.8264 25.5515L16.8513 26.0049L17.1445 26.038L17.1562 26.0439C17.1582 26.0448 17.3688 26.1497 17.5728 26.1497C17.63 26.1509 17.687 26.1404 17.7401 26.1187L17.7684 26.1065Z" fill="#6A0067"/>
<path d="M17.8626 27.7409L17.8357 27.7372C17.7311 27.7229 16.8088 27.5895 16.644 27.2978L16.6378 27.2868L16.6355 27.2744C16.6265 27.224 16.5543 26.7796 16.8067 26.7286C16.8414 26.722 16.8767 26.7189 16.9121 26.7193C17.1123 26.7193 17.3797 26.7977 17.4083 26.8064L18.0448 26.9578L18.9422 26.9985V27.6043L18.8678 27.6025C18.8678 27.6025 18.8369 27.6017 18.7873 27.6017C18.3438 27.6017 17.9984 27.6489 17.8859 27.7249L17.8626 27.7409ZM16.7762 27.2347C16.8885 27.3991 17.4669 27.5359 17.8298 27.5874C18.0365 27.4725 18.5138 27.4549 18.787 27.4549H18.7971V27.139L18.025 27.1035L17.369 26.9473C17.3663 26.9465 17.098 26.8659 16.9119 26.8659C16.8862 26.8656 16.8605 26.8677 16.8351 26.8723C16.7533 26.8891 16.7558 27.1091 16.7762 27.2347Z" fill="#6A0067"/>
<path d="M15.7578 24.9191C15.7578 24.9191 16.5014 24.804 16.7361 25.2262L16.8144 26.0706C16.8144 26.0706 17.7143 26.3394 17.8318 26.1858C17.8318 26.1858 18.5361 26.4164 18.8883 26.2626V27.0686L18.1057 27.0302L17.4405 26.8768L16.8536 26.8L16.7361 27.2613C16.7361 27.2613 16.1492 26.9157 15.8361 27.4531C15.8361 27.4531 16.1492 26.3784 16.1492 25.8026C16.1492 25.2268 15.7578 24.9191 15.7578 24.9191Z" fill="#6A0067"/>
<path d="M17.0139 28.068C16.892 28.0669 16.7706 28.0523 16.6518 28.0245C15.9101 27.8579 16.0255 27.1038 16.0267 27.0962L16.1702 27.1202C16.166 27.1457 16.0774 27.7443 16.6833 27.8809C17.171 27.9907 17.4033 27.8583 17.6278 27.7302C17.7007 27.6859 17.777 27.6474 17.8558 27.6151C18.1699 27.496 18.8433 27.5322 18.8719 27.5337L18.8638 27.6805C18.8571 27.6805 18.1924 27.6444 17.9068 27.7527C17.8348 27.7825 17.7653 27.8177 17.6986 27.8581C17.5302 27.9543 17.3307 28.068 17.0139 28.068Z" fill="#6A0067"/>
<path d="M16.9703 28.7787C16.8596 28.7787 16.7845 28.7729 16.7754 28.7722L16.7837 28.6675C16.7905 28.6675 17.4598 28.7196 17.8203 28.5007C18.207 28.2661 18.8384 28.2458 18.8651 28.2451L18.868 28.3501C18.8617 28.3501 18.2369 28.3703 17.8737 28.5908C17.6083 28.752 17.2075 28.7787 16.9703 28.7787Z" fill="#6A0067"/>
<path d="M17.7352 25.6816L17.6973 26.1807L17.8422 26.1919L17.8802 25.6929L17.7352 25.6816Z" fill="#6A0067"/>
<path d="M17.1942 25.6108H17.0488V26.1098H17.1942V25.6108Z" fill="#6A0067"/>
<path d="M17.325 26.8433L17.0215 27.4575L17.1515 27.5233L17.455 26.9091L17.325 26.8433Z" fill="#6A0067"/>
<path d="M18.1083 27.0303H17.9629V27.5677H18.1083V27.0303Z" fill="#6A0067"/>
<path d="M17.9596 23.594C17.9998 23.3529 17.7535 23.1327 17.5241 23.1989C17.2406 23.2803 17.0807 23.6157 17.0259 23.8845C16.9677 24.1694 17.0196 24.4964 17.2496 24.6915C17.3703 24.7938 17.521 24.819 17.6742 24.819C17.7525 24.819 17.8308 24.8137 17.9092 24.8166C17.9929 24.8197 18.081 24.8562 18.1624 24.8487C18.2026 24.8451 18.1968 24.7449 18.177 24.724C18.0288 24.5672 17.7328 24.6562 17.5411 24.6333C17.4178 24.618 17.3039 24.5588 17.2197 24.4663C17.1356 24.3739 17.0866 24.2542 17.0817 24.1286C17.0715 23.8878 17.1936 23.5918 17.3901 23.4484C17.4764 23.3859 17.5761 23.3551 17.6818 23.3731C17.7948 23.3927 17.9151 23.4533 17.9204 23.5819C17.922 23.621 17.9502 23.6471 17.9591 23.594H17.9596Z" fill="#6A0067"/>
<path d="M17.0921 24.4135C17.3051 24.3683 17.5282 24.2817 17.7392 24.388C17.9109 24.4742 17.9908 24.6562 18.0905 24.8106C18.1876 24.9608 18.2993 25.0947 18.4575 25.1815C18.6123 25.2664 18.8234 25.3321 18.9874 25.2413C19.0157 25.2257 19.0128 25.1418 18.981 25.1328C18.8891 25.1057 18.7951 25.1045 18.702 25.0845C18.5988 25.0623 18.5005 25.0209 18.4122 24.9624C18.2491 24.8539 18.1644 24.69 18.0494 24.5377C17.9511 24.4075 17.8382 24.2812 17.6772 24.2345C17.4864 24.1792 17.2639 24.2387 17.0863 24.3159C17.0629 24.3262 17.0655 24.4192 17.0921 24.4136V24.4135Z" fill="#6A0067"/>
<path d="M18.8594 24.4684C18.7416 24.3669 18.6056 24.2872 18.4871 24.1848C18.3687 24.0824 18.2554 23.9697 18.1626 23.8407C18.0742 23.7186 17.9965 23.5829 17.9537 23.4364C17.9154 23.3052 17.9328 23.2155 18.0476 23.1367C18.0864 23.1096 18.1013 22.9446 18.0362 22.942C17.8765 22.9358 17.8367 23.1622 17.8325 23.2836C17.8259 23.4707 17.889 23.6517 17.9787 23.8128C18.0739 23.9837 18.2074 24.132 18.3534 24.2605C18.4891 24.3795 18.6737 24.524 18.8545 24.559C18.8845 24.5647 18.8735 24.4806 18.8597 24.4688L18.8594 24.4684Z" fill="#6A0067"/>
<path d="M18.8641 23.7341C18.6776 23.5217 18.4276 23.3739 18.2393 23.16C18.147 23.0553 18.0515 22.9318 18.0113 22.7963C17.9611 22.6325 18.0601 22.5548 18.1638 22.4513C18.1872 22.4278 18.1906 22.3212 18.1478 22.3156C18.0087 22.297 17.9332 22.5079 17.9182 22.6154C17.8941 22.7834 17.9437 22.9457 18.0307 23.0879C18.1238 23.2402 18.2453 23.3657 18.381 23.4798C18.5252 23.6019 18.682 23.7376 18.8478 23.8278C18.8801 23.8453 18.8781 23.7493 18.8648 23.7342L18.8641 23.7341Z" fill="#6A0067"/>
<path d="M18.8644 23.2007C18.58 22.9318 17.7735 22.0663 18.462 21.8153C18.5078 21.7988 18.4988 21.6593 18.4521 21.6478C18.2955 21.6091 18.177 21.7453 18.1236 21.8798C18.053 22.0577 18.0754 22.2669 18.1403 22.4426C18.2729 22.8017 18.5586 23.1222 18.8448 23.3651C18.8819 23.3968 18.9014 23.2354 18.8645 23.2006L18.8644 23.2007Z" fill="#6A0067"/>
<path d="M18.5047 21.6056C18.2633 21.9884 18.5759 22.446 18.8321 22.7267C18.8675 22.7656 18.8857 22.6427 18.8604 22.6154C18.6309 22.3639 18.3714 22.0274 18.526 21.6691C18.5322 21.6547 18.5223 21.5778 18.5047 21.6056Z" fill="#6A0067"/>
<path d="M17.1957 23.5614C17.5254 23.6457 17.7463 23.9397 17.8863 24.2367C17.9574 24.3873 18.0162 24.544 18.0837 24.6962C18.1431 24.8303 18.2112 24.9902 18.3235 25.0876C18.3443 25.1057 18.3462 25.0286 18.3409 25.0186C18.2536 24.8509 18.1532 24.693 18.0752 24.5198C18.0047 24.3642 17.9368 24.2078 17.8529 24.0586C17.7053 23.7972 17.4952 23.5595 17.1957 23.4875C17.1772 23.483 17.1717 23.5553 17.1957 23.5613V23.5614Z" fill="#6A0067"/>
<path d="M14.9022 26.1037C14.8402 25.7618 14.8217 25.3761 14.9789 25.0558C15.1034 24.8011 15.341 24.584 15.6251 24.5421C15.7954 24.517 15.9662 24.5569 16.1242 24.6204C16.2675 24.6781 16.3996 24.765 16.5476 24.8103C16.6652 24.8467 16.798 24.8472 16.8943 24.7597C16.9869 24.6756 17.0297 24.5427 17.0831 24.4329C17.105 24.388 17.0611 24.2777 17.0404 24.3571C16.9946 24.5334 16.8896 24.7098 16.6858 24.7065C16.5148 24.7032 16.3595 24.5889 16.2076 24.5214C15.925 24.3959 15.6175 24.349 15.3408 24.5133C14.7842 24.8432 14.7515 25.5599 14.8765 26.1279C14.8848 26.1654 14.906 26.123 14.9022 26.1028V26.1037Z" fill="#6A0067"/>
<path d="M14.8958 23.8456C14.9003 23.66 14.907 23.4744 14.9092 23.2894C14.9117 23.1148 14.9309 22.9294 14.905 22.7565C14.8975 22.7061 14.8648 22.7063 14.8571 22.7565C14.8313 22.9296 14.8504 23.1148 14.8528 23.2894C14.8555 23.4751 14.8621 23.6607 14.8663 23.8456C14.8672 23.8847 14.894 23.8851 14.895 23.8456H14.8958Z" fill="#6A0067"/>
<path d="M15.9942 24.2276C16.0783 24.0852 16.1538 23.938 16.2205 23.7866C16.2815 23.645 16.3754 23.4805 16.3899 23.3263C16.3915 23.3086 16.3801 23.2065 16.3462 23.2491C16.3045 23.3013 16.2979 23.3727 16.2782 23.4355C16.2503 23.5239 16.2165 23.6105 16.1812 23.6963C16.1164 23.854 16.0482 24.0113 15.9731 24.1642C15.965 24.1806 15.979 24.2541 15.9942 24.2276Z" fill="#6A0067"/>
<path d="M17.58 28.708C17.9153 28.7289 18.1702 28.8936 18.2919 29.2202C18.3492 29.3743 18.427 29.6592 18.3091 29.8006C18.2052 29.9248 18.0157 29.9091 17.8888 29.8352C17.7473 29.7527 17.6109 29.5895 17.5898 29.4208C17.57 29.2611 17.7087 29.11 17.8671 29.1088C18.028 29.1088 18.1022 29.266 18.1361 29.4025C18.1486 29.453 18.1605 29.5207 18.1227 29.5653C18.093 29.601 18.0173 29.5877 17.9829 29.5703C17.8979 29.5275 17.8779 29.4298 17.8566 29.3446C17.8401 29.2785 17.8076 29.3547 17.8121 29.3878C17.8302 29.5245 17.8979 29.7201 18.0689 29.7008C18.2273 29.6832 18.2125 29.4838 18.1871 29.3698C18.1545 29.225 18.1023 29.0428 17.9482 28.9882C17.8101 28.9393 17.6594 29.0267 17.5873 29.1457C17.4072 29.4424 17.6354 29.8783 17.9322 29.9924C18.0784 30.0489 18.2595 30.0167 18.3514 29.879C18.4432 29.7413 18.4203 29.5478 18.3935 29.3949C18.3243 29.0015 18.0323 28.5525 17.5799 28.6141C17.5516 28.618 17.5511 28.7049 17.5799 28.7068L17.58 28.708Z" fill="#6A0067"/>
<path d="M14.3184 24.2896C14.4461 24.0065 14.7506 23.8738 15.0472 23.8743C15.4043 23.8743 15.7043 24.0586 15.9967 24.2432C16.2393 24.396 16.519 24.5127 16.7758 24.3227C16.977 24.1735 17.1028 23.9116 17.1678 23.6741C17.1728 23.6559 17.1599 23.5762 17.1371 23.6198C17.0164 23.8504 16.924 24.1519 16.656 24.2494C16.3234 24.3705 16.0289 24.0812 15.7619 23.9303C15.4949 23.7795 15.1718 23.6793 14.865 23.753C14.6183 23.8123 14.3929 23.9917 14.2917 24.2279C14.2824 24.2494 14.2992 24.3315 14.3185 24.2891L14.3184 24.2896Z" fill="#6A0067"/>
<path d="M15.2531 24.6081C15.0706 24.7753 14.9983 25.0567 15.0451 25.2978C15.09 25.5273 15.2826 25.8214 15.5328 25.8531C15.5695 25.8578 15.5643 25.7483 15.5397 25.7342C15.4583 25.6869 15.3764 25.6563 15.3041 25.5928C15.225 25.5235 15.1633 25.4362 15.124 25.3381C15.0301 25.1023 15.1127 24.8633 15.2657 24.6764C15.2767 24.6629 15.2692 24.5934 15.2531 24.6086V24.6081Z" fill="#6A0067"/>
<path d="M21.7639 29.7867V29.4096C21.7639 29.4023 21.7639 28.6703 21.802 27.985C21.8154 27.7408 21.7332 27.3371 21.6462 26.909C21.484 26.1115 21.3164 25.2869 21.6383 25.0154C21.7484 24.9226 21.8471 24.8774 21.94 24.8774C22.232 24.8774 22.2861 25.3135 22.2888 25.3321L22.29 25.3421L22.2883 25.352C22.2873 25.3594 22.1782 26.0824 22.3263 27.018C22.4795 27.9867 21.9281 29.3787 21.9045 29.437L21.7639 29.7867ZM21.9396 25.0245C21.8837 25.0245 21.8116 25.0605 21.731 25.1284C21.4761 25.3435 21.649 26.1951 21.7881 26.8794C21.8771 27.3171 21.9611 27.7305 21.9467 27.9932C21.9277 28.3393 21.9183 28.6975 21.9136 28.9671C22.0683 28.4786 22.2791 27.6566 22.1819 27.0412C22.0384 26.1342 22.1282 25.4402 22.1416 25.3405C22.1344 25.2888 22.0856 25.0245 21.9396 25.0245Z" fill="#6A0067"/>
<path d="M19.233 26.4228C19.0807 26.4228 18.9587 26.389 18.8709 26.3224L18.8418 26.3004V25.6143H18.9145C19.3022 25.6143 20.3542 25.6007 20.5641 25.5404C20.7998 25.4725 20.9045 25.3381 20.9055 25.3369L21.0495 25.1426L20.9948 26.138L20.6045 26.182C20.5525 26.2065 20.3462 26.2973 20.1351 26.2973C20.0687 26.2981 20.0026 26.2876 19.9397 26.2661C19.8439 26.3033 19.5211 26.4228 19.233 26.4228ZM18.9873 26.2239C19.0478 26.2584 19.1303 26.2759 19.233 26.2759C19.5389 26.2759 19.9072 26.1206 19.911 26.1192L19.9394 26.1071L19.9679 26.1193C20.021 26.1409 20.0779 26.1515 20.1351 26.1502C20.3391 26.1502 20.5497 26.0454 20.5518 26.0443L20.5633 26.0386L20.8565 26.0055L20.8815 25.552C20.7965 25.6101 20.7029 25.6539 20.6041 25.6817C20.3644 25.7511 19.2824 25.76 18.9873 25.7612V26.2239Z" fill="#6A0067"/>
<path d="M19.8262 27.7401L19.8036 27.7249C19.6979 27.6535 19.4066 27.6125 19.0045 27.6125C18.9077 27.6125 18.8419 27.6153 18.8413 27.6153L18.7656 27.6182V26.9985L19.663 26.9578L20.2995 26.8064C20.3284 26.7977 20.5959 26.7193 20.7958 26.7193C20.8311 26.7189 20.8664 26.722 20.9012 26.7286C21.1536 26.7796 21.0813 27.224 21.0723 27.2745L21.07 27.2868L21.0639 27.2978C20.899 27.5896 19.9595 27.723 19.8529 27.7372L19.8262 27.7401ZM19.0045 27.4656C19.2995 27.4656 19.6792 27.4872 19.8594 27.5877C20.2295 27.5358 20.8192 27.3987 20.9323 27.235C20.9521 27.1096 20.9547 26.8895 20.8736 26.8731C20.8482 26.8685 20.8224 26.8664 20.7966 26.8667C20.6101 26.8667 20.3422 26.9475 20.3395 26.9482L20.3352 26.9492L19.6835 27.1043L18.9114 27.1399V27.4671C18.9369 27.4659 18.9684 27.4656 19.0045 27.4656Z" fill="#6A0067"/>
<path d="M20.6932 28.0679C20.3763 28.0679 20.177 27.9542 20.0092 27.8581C19.9425 27.8177 19.873 27.7825 19.8011 27.7527C19.5151 27.6442 18.8507 27.6801 18.844 27.6805L18.8359 27.5337C18.8645 27.5321 19.5379 27.4959 19.852 27.6151C19.9309 27.6474 20.0071 27.6859 20.08 27.7302C20.3045 27.8583 20.536 27.9907 21.0245 27.8809C21.6304 27.7453 21.5418 27.1457 21.5377 27.1202L21.6811 27.0962C21.6823 27.1038 21.7977 27.8579 21.056 28.0245C20.937 28.0523 20.8153 28.0669 20.6932 28.0679Z" fill="#6A0067"/>
<path d="M20.8164 28.7751C20.6018 28.7751 20.1286 28.7528 19.8289 28.5715C19.4701 28.353 18.8568 28.3501 18.8379 28.3501V28.2451C18.8647 28.2451 19.4951 28.2451 19.8831 28.4802C20.2444 28.6995 20.9158 28.6677 20.9224 28.6673L20.9277 28.7722C20.9203 28.7732 20.8797 28.7751 20.8164 28.7751Z" fill="#6A0067"/>
<path d="M20.0809 25.6938L19.9355 25.7056L19.9751 26.2061L20.1205 26.1943L20.0809 25.6938Z" fill="#6A0067"/>
<path d="M20.6571 25.6108H20.5117V26.1098H20.6571V25.6108Z" fill="#6A0067"/>
<path d="M20.3839 26.8424L20.2539 26.9082L20.5575 27.5223L20.6875 27.4565L20.3839 26.8424Z" fill="#6A0067"/>
<path d="M19.745 27.0303H19.5996V27.5677H19.745V27.0303Z" fill="#6A0067"/>
<path d="M19.7867 23.5823C19.797 23.3336 20.1552 23.3371 20.305 23.4403C20.509 23.5805 20.6374 23.8843 20.626 24.1289C20.6143 24.3802 20.4307 24.5963 20.1834 24.6309C19.9877 24.6581 19.6823 24.5639 19.5312 24.7239C19.5111 24.745 19.5053 24.8449 19.5458 24.8485C19.6272 24.856 19.7153 24.8195 19.799 24.8164C19.8773 24.8135 19.9557 24.8191 20.034 24.8188C20.1873 24.8188 20.3379 24.7937 20.4586 24.6913C20.6885 24.4963 20.7402 24.1688 20.6824 23.8843C20.6275 23.6154 20.4679 23.2797 20.1841 23.1988C19.9546 23.1332 19.7082 23.3526 19.7486 23.5938C19.7572 23.6453 19.7856 23.6223 19.7872 23.5818L19.7867 23.5823Z" fill="#6A0067"/>
<path d="M20.6193 24.3162C20.4427 24.2388 20.2224 24.1805 20.0322 24.233C19.8695 24.2786 19.7552 24.4064 19.6566 24.5374C19.5452 24.6851 19.4626 24.8458 19.3069 24.9534C19.2197 25.0135 19.1221 25.0567 19.0193 25.0807C18.9215 25.1033 18.8218 25.1032 18.7251 25.1325C18.6934 25.1421 18.6903 25.2261 18.7186 25.241C18.8788 25.3296 19.0818 25.2682 19.2347 25.1884C19.3997 25.1018 19.5154 24.9651 19.6156 24.8103C19.7124 24.6602 19.79 24.4824 19.9541 24.3939C20.1676 24.2787 20.3967 24.3668 20.614 24.4132C20.6408 24.4189 20.6428 24.3257 20.6197 24.3155L20.6193 24.3162Z" fill="#6A0067"/>
<path d="M18.8546 24.5586C19.0303 24.5248 19.2103 24.3859 19.3432 24.2712C19.4944 24.1407 19.6325 23.9886 19.7303 23.813C19.8178 23.6555 19.8799 23.4794 19.8769 23.2968C19.8747 23.1733 19.8366 22.9356 19.6729 22.942C19.6081 22.9446 19.6227 23.1101 19.6613 23.1367C19.776 23.2157 19.7933 23.3052 19.7552 23.4364C19.7124 23.5824 19.6345 23.7183 19.5464 23.8407C19.4536 23.9696 19.3413 24.0814 19.2218 24.1848C19.1023 24.2882 18.967 24.3669 18.8495 24.4683C18.8361 24.4802 18.8251 24.5643 18.8549 24.5586H18.8546Z" fill="#6A0067"/>
<path d="M18.8601 23.8278C19.021 23.7409 19.1733 23.6083 19.3136 23.491C19.4538 23.3736 19.5809 23.2453 19.6771 23.0879C19.7615 22.9499 19.8113 22.7929 19.7913 22.6296C19.7779 22.5189 19.7044 22.2964 19.5599 22.3156C19.5165 22.3215 19.5208 22.4282 19.544 22.4513C19.6379 22.5453 19.7414 22.6214 19.7037 22.7733C19.6679 22.9176 19.5641 23.0508 19.4678 23.1601C19.28 23.3739 19.0295 23.5218 18.8429 23.7341C18.8295 23.7497 18.8282 23.8449 18.8601 23.8277V23.8278Z" fill="#6A0067"/>
<path d="M18.8647 23.3652C19.1508 23.1222 19.4366 22.8016 19.5692 22.4427C19.6329 22.2699 19.654 22.0697 19.5907 21.8937C19.5397 21.7541 19.419 21.6073 19.2581 21.648C19.2117 21.6595 19.2025 21.799 19.2481 21.8156C19.9363 22.0666 19.13 22.9319 18.8458 23.2009C18.8096 23.2353 18.8278 23.3977 18.8655 23.3655L18.8647 23.3652Z" fill="#6A0067"/>
<path d="M19.1838 21.6692C19.3384 22.0273 19.0788 22.3642 18.8494 22.6156C18.8249 22.6427 18.8419 22.766 18.8777 22.7268C19.1339 22.4461 19.446 21.9886 19.2051 21.6058C19.1873 21.5774 19.1783 21.6557 19.1838 21.6692Z" fill="#6A0067"/>
<path d="M20.5125 23.475C20.2112 23.5468 19.9991 23.7853 19.8509 24.0481C19.7671 24.1973 19.6982 24.3515 19.6274 24.5064C19.5482 24.6793 19.4427 24.8369 19.363 25.0084C19.357 25.022 19.3548 25.1233 19.3863 25.1005C19.5044 25.0156 19.5741 24.8393 19.6304 24.7095C19.6975 24.5562 19.7558 24.3981 19.8264 24.2467C19.9643 23.9511 20.1856 23.6578 20.5125 23.5734C20.5442 23.5651 20.5378 23.4689 20.5125 23.4749V23.475Z" fill="#6A0067"/>
<path d="M22.8318 26.1273C22.9568 25.5587 22.9241 24.842 22.3675 24.5128C22.0904 24.3485 21.7833 24.3953 21.5007 24.5208C21.3479 24.5887 21.1942 24.7017 21.0224 24.706C20.8195 24.7111 20.7139 24.5318 20.6678 24.3565C20.6476 24.2785 20.603 24.3871 20.6252 24.4324C20.6788 24.542 20.7215 24.6748 20.814 24.7592C20.91 24.8469 21.0433 24.8462 21.1607 24.8098C21.3082 24.764 21.4409 24.6774 21.5841 24.6199C21.742 24.5562 21.9128 24.5165 22.0832 24.5416C22.3674 24.5834 22.6055 24.8005 22.7295 25.0553C22.8855 25.3764 22.8681 25.7608 22.8061 26.1032C22.8024 26.1229 22.8235 26.1666 22.8318 26.1283V26.1273Z" fill="#6A0067"/>
<path d="M22.8373 23.8456C22.8419 23.66 22.8484 23.4744 22.8507 23.2894C22.8531 23.1148 22.8723 22.9294 22.8464 22.7565C22.8389 22.7061 22.8062 22.7063 22.7985 22.7565C22.7727 22.9296 22.7918 23.1148 22.7944 23.2894C22.7971 23.4751 22.8036 23.6607 22.8078 23.8456C22.8087 23.8847 22.8354 23.8851 22.8365 23.8456H22.8373Z" fill="#6A0067"/>
<path d="M21.7314 24.1628C21.6563 24.0099 21.5879 23.8527 21.5233 23.6949C21.4905 23.6152 21.4589 23.5349 21.4323 23.4528C21.4106 23.385 21.403 23.3036 21.3583 23.2477C21.3238 23.2044 21.3131 23.3092 21.3146 23.3249C21.3291 23.4794 21.423 23.6435 21.484 23.7852C21.5507 23.9366 21.6262 24.0839 21.7102 24.2262C21.7257 24.2533 21.7392 24.1786 21.7314 24.1628Z" fill="#6A0067"/>
<path d="M20.1286 28.5965C19.742 28.5455 19.446 28.9171 19.3482 29.253C19.2677 29.5287 19.2347 30.0594 19.6624 30.0233C20.0055 29.9942 20.2593 29.554 20.1587 29.233C20.1171 29.0999 19.996 28.9848 19.8538 28.9772C19.6995 28.9689 19.606 29.1007 19.5606 29.2334C19.5192 29.3544 19.4346 29.6173 19.5947 29.6926C19.7807 29.78 19.8781 29.5272 19.8963 29.3908C19.9006 29.3583 19.8684 29.2803 19.8517 29.3475C19.8306 29.4319 19.8114 29.5316 19.7253 29.5732C19.592 29.638 19.5427 29.5229 19.5723 29.4047C19.6052 29.2737 19.6752 29.1179 19.8289 29.1109C19.9918 29.1034 20.139 29.259 20.1186 29.4229C20.0975 29.5916 19.961 29.7549 19.8196 29.8373C19.6928 29.9111 19.5032 29.9271 19.3993 29.8027C19.2856 29.6662 19.356 29.3996 19.4073 29.249C19.5207 28.9167 19.7842 28.7124 20.1284 28.6895C20.1571 28.6876 20.1569 28.6007 20.1284 28.5969L20.1286 28.5965Z" fill="#6A0067"/>
<path d="M23.4142 24.2278C23.3129 23.9906 23.0878 23.8121 22.8409 23.7529C22.5343 23.6787 22.2119 23.7789 21.944 23.9303C21.6762 24.0817 21.3825 24.3705 21.0499 24.2494C20.7816 24.1518 20.6891 23.8505 20.5688 23.6197C20.546 23.5762 20.5334 23.6565 20.5381 23.674C20.6023 23.9083 20.7246 24.1634 20.9192 24.3146C21.1769 24.5148 21.4623 24.3986 21.7091 24.2431C21.9973 24.0615 22.2905 23.8816 22.6412 23.8746C22.9431 23.8687 23.2572 24.0005 23.3876 24.2895C23.4067 24.332 23.4236 24.2502 23.4144 24.2283L23.4142 24.2278Z" fill="#6A0067"/>
<path d="M22.4399 24.6769C22.593 24.8631 22.6749 25.1028 22.5817 25.3386C22.5456 25.4285 22.4907 25.5093 22.4208 25.5756C22.3439 25.6488 22.2559 25.6828 22.1659 25.7346C22.1413 25.7482 22.1364 25.8582 22.1729 25.8536C22.423 25.8219 22.6155 25.528 22.6606 25.2983C22.7078 25.0572 22.6351 24.7758 22.4525 24.6085C22.4361 24.5935 22.4293 24.664 22.4399 24.6764V24.6769Z" fill="#6A0067"/>
<path d="M18.8292 25.6804C18.8202 25.8147 18.8254 25.9498 18.8292 26.0844C18.8329 26.219 18.8292 26.3558 18.849 26.4878C18.8555 26.5316 18.8875 26.5343 18.8921 26.4878C18.9047 26.3543 18.8966 26.2183 18.8936 26.0844C18.8905 25.9505 18.8902 25.8142 18.8746 25.6804C18.8693 25.6344 18.8329 25.6321 18.8297 25.6804H18.8292Z" fill="#6A0067"/>
<path d="M16.3885 27.4463C16.4944 27.4574 16.6816 27.4298 16.7417 27.329C16.7477 27.3189 16.7586 27.2488 16.733 27.2542C16.6792 27.2659 16.6401 27.3222 16.5889 27.3465C16.5256 27.3752 16.4578 27.3921 16.3885 27.3963C16.3731 27.3975 16.3731 27.4447 16.3885 27.4463Z" fill="#6A0067"/>
<path d="M16.5528 27.6475C16.6815 27.628 16.787 27.5855 16.8832 27.4934C16.9114 27.4662 16.895 27.3547 16.864 27.3887C16.78 27.4807 16.6678 27.5623 16.5502 27.6043C16.5396 27.6081 16.5408 27.6494 16.5528 27.6475Z" fill="#6A0067"/>
<path d="M16.7546 27.7634C16.8755 27.7311 16.9904 27.6624 17.0544 27.5508C17.061 27.5387 17.0653 27.5254 17.0668 27.5116C17.0684 27.4979 17.0673 27.484 17.0635 27.4707C17.0597 27.4589 17.0427 27.4251 17.0287 27.4496C16.9615 27.5675 16.8763 27.666 16.7523 27.7246C16.743 27.729 16.7445 27.7654 16.7546 27.7634Z" fill="#6A0067"/>
<path d="M17.0239 27.8565C17.1482 27.818 17.2953 27.6959 17.2752 27.5497C17.2737 27.5396 17.269 27.5164 17.2542 27.5225C17.233 27.5312 17.2273 27.5576 17.2201 27.5769C17.2078 27.6116 17.192 27.645 17.1729 27.6765C17.1339 27.7349 17.0809 27.7824 17.0189 27.8146C17.0083 27.8205 17.009 27.8611 17.0239 27.8565Z" fill="#6A0067"/>
<path d="M17.4051 27.8317C17.4825 27.7957 17.5286 27.7421 17.564 27.6656C17.5747 27.6423 17.5787 27.5904 17.5586 27.5695C17.5352 27.545 17.5224 27.587 17.5195 27.606C17.5093 27.6748 17.4542 27.7429 17.3985 27.7803C17.3866 27.7886 17.3878 27.8397 17.4047 27.8317H17.4051Z" fill="#6A0067"/>
<path d="M18.3762 28.9468C18.5164 29.2894 18.6378 30.0611 18.1327 30.1721C18.0823 30.1831 18.0954 30.3325 18.1327 30.323C18.7011 30.1793 18.5666 29.3069 18.3897 28.9162C18.38 28.8949 18.372 28.9361 18.3762 28.9468Z" fill="#6A0067"/>
<path d="M18.5646 28.9407C18.6436 29.1905 18.6812 29.449 18.6524 29.7108C18.6413 29.8283 18.6176 29.9441 18.5817 30.0564C18.5454 30.1649 18.4656 30.2363 18.4228 30.336C18.4146 30.3551 18.4083 30.4174 18.4382 30.4217C18.5336 30.4374 18.6073 30.2271 18.6315 30.156C18.6751 30.0236 18.701 29.8859 18.7085 29.7465C18.726 29.4644 18.6857 29.1776 18.5784 28.916C18.5703 28.8962 18.5617 28.9321 18.565 28.9407H18.5646Z" fill="#6A0067"/>
<path d="M19.3015 28.9376C19.1244 29.3284 18.9899 30.2008 19.5584 30.3446C19.5951 30.3538 19.6093 30.2047 19.5584 30.1936C19.0534 30.0827 19.1746 29.3108 19.3147 28.9683C19.319 28.9577 19.3111 28.9163 19.3013 28.9376H19.3015Z" fill="#6A0067"/>
<path d="M19.1125 28.9161C19.0052 29.1777 18.965 29.4645 18.9824 29.7465C18.9899 29.8859 19.0158 30.0236 19.0594 30.156C19.0834 30.2261 19.1579 30.4372 19.2527 30.4218C19.2826 30.4169 19.2764 30.3552 19.2682 30.336C19.2288 30.2443 19.1532 30.1772 19.117 30.0799C19.0734 29.9627 19.0522 29.8349 19.0385 29.7108C19.0097 29.449 19.0474 29.1905 19.1263 28.9408C19.1292 28.9318 19.1206 28.8963 19.1129 28.9161H19.1125Z" fill="#6A0067"/>
<path d="M18.8236 28.9292C18.8041 29.1719 18.8052 29.4198 18.8016 29.6635C18.7977 29.92 18.7979 30.1766 18.7969 30.4331C18.7969 30.5281 18.8668 30.5289 18.8665 30.4331C18.8665 30.1766 18.8665 29.92 18.8637 29.6635C18.8607 29.4192 18.8622 29.1719 18.8434 28.9292C18.8418 28.9083 18.8253 28.9084 18.8236 28.9292Z" fill="#6A0067"/>
<path d="M16.4022 28.194C16.4751 28.3322 16.5777 28.4518 16.6925 28.5564C16.7815 28.6378 16.9594 28.8277 17.0873 28.7523C17.1029 28.7432 17.1038 28.6905 17.0834 28.6866C16.932 28.6569 16.8175 28.5916 16.7006 28.4881C16.5897 28.3899 16.5033 28.274 16.4151 28.1558C16.4028 28.1394 16.3978 28.1856 16.4017 28.194H16.4022Z" fill="#6A0067"/>
<path d="M16.7107 28.2966C16.8204 28.436 16.9593 28.5568 17.1246 28.6222C17.264 28.6778 17.4651 28.7333 17.6105 28.6771C17.6301 28.6697 17.628 28.6054 17.6061 28.6017C17.5246 28.5881 17.4395 28.6017 17.3566 28.5906C17.2756 28.5797 17.1963 28.5587 17.1204 28.5283C16.9672 28.4668 16.8304 28.3818 16.7211 28.2553C16.7084 28.2407 16.7028 28.286 16.7107 28.296V28.2966Z" fill="#6A0067"/>
<path d="M17.0338 28.2579C17.1597 28.4207 17.3423 28.5321 17.5402 28.5817C17.7169 28.6259 17.9843 28.6177 18.1216 28.48C18.1328 28.4688 18.1373 28.3998 18.1125 28.4024C18.0201 28.4115 17.934 28.4614 17.8411 28.4758C17.7507 28.4885 17.6591 28.4888 17.5687 28.4769C17.3681 28.4556 17.1821 28.361 17.0456 28.2109C17.0299 28.1939 17.0248 28.2465 17.0335 28.2579H17.0338Z" fill="#6A0067"/>
<path d="M17.332 28.2104C17.6594 28.4478 18.2073 28.5755 18.5391 28.272C18.5505 28.2615 18.5604 28.1858 18.5344 28.1921C18.3332 28.2397 18.1542 28.3157 17.9443 28.3173C17.7344 28.3189 17.5195 28.2721 17.3378 28.1592C17.3234 28.1504 17.319 28.2014 17.3316 28.2105L17.332 28.2104Z" fill="#6A0067"/>
<path d="M21.4103 28.1558C21.3221 28.274 21.236 28.3895 21.1246 28.488C21.008 28.592 20.894 28.6568 20.742 28.6865C20.7216 28.6905 20.7226 28.7431 20.7381 28.7522C20.8657 28.8274 21.045 28.6363 21.133 28.5563C21.2478 28.4518 21.3502 28.3322 21.4232 28.1939C21.4278 28.1851 21.4224 28.1396 21.4098 28.1558H21.4103Z" fill="#6A0067"/>
<path d="M21.102 28.2549C20.9926 28.3815 20.8561 28.4663 20.7026 28.5279C20.6268 28.5584 20.5475 28.5793 20.4666 28.5902C20.3837 28.6013 20.2985 28.5877 20.2171 28.6013C20.1951 28.605 20.1931 28.6691 20.2126 28.6767C20.3584 28.733 20.5589 28.6775 20.6986 28.6218C20.8639 28.556 21.0028 28.4352 21.1125 28.2962C21.1203 28.2861 21.1149 28.2404 21.102 28.2555V28.2549Z" fill="#6A0067"/>
<path d="M20.7784 28.2109C20.6419 28.3609 20.4559 28.4555 20.2554 28.4769C20.1648 28.4889 20.0731 28.4885 19.9827 28.4759C19.8899 28.4615 19.8038 28.4115 19.7114 28.4025C19.6864 28.3999 19.6914 28.4691 19.7023 28.4801C19.8397 28.6178 20.1069 28.6259 20.2837 28.5817C20.4822 28.5322 20.6642 28.4214 20.7901 28.258C20.7987 28.2468 20.7939 28.1938 20.7782 28.2109H20.7784Z" fill="#6A0067"/>
<path d="M20.4861 28.1592C20.3048 28.2723 20.0918 28.3192 19.8803 28.3174C19.6688 28.3157 19.4904 28.2398 19.2902 28.1922C19.2634 28.186 19.2741 28.2617 19.2855 28.2721C19.6177 28.5756 20.1656 28.4485 20.4926 28.2105C20.505 28.2016 20.501 28.1503 20.4864 28.1592H20.4861Z" fill="#6A0067"/>
<path d="M17.7712 28.0122C18.0841 28.2586 18.4669 28.3243 18.854 28.3301C19.0393 28.3328 19.2271 28.325 19.4087 28.2855C19.5696 28.2502 19.7634 28.1862 19.8668 28.0486C19.8745 28.0386 19.8817 27.9649 19.8579 27.9722C19.7872 27.9936 19.7271 28.0384 19.66 28.0689C19.5742 28.1063 19.4846 28.1341 19.3929 28.1518C19.2157 28.1886 19.0342 28.1942 18.854 28.194C18.489 28.194 18.0874 28.1742 17.7778 27.9573C17.7636 27.9472 17.7578 28.0018 17.7712 28.0116V28.0122Z" fill="#6A0067"/>
<path d="M22.0255 24.3228C22.3292 24.3006 22.6281 24.4486 22.8125 24.6932C23.0329 24.9856 22.9983 25.3659 22.992 25.7108C22.992 25.7329 23.0093 25.7467 23.0136 25.7174C23.0663 25.361 23.0849 24.9547 22.8847 24.6385C22.7027 24.3513 22.3514 24.2241 22.0255 24.2874C22.0148 24.2895 22.0151 24.323 22.0255 24.3222V24.3228Z" fill="#6A0067"/>
<path d="M22.3691 24.1482C22.6296 24.1714 22.8455 24.3532 22.9841 24.5688C23.1549 24.8341 23.145 25.1301 23.1521 25.4324C23.1521 25.4576 23.1777 25.5033 23.1887 25.4553C23.3198 24.887 23.0353 24.0968 22.3691 24.1075C22.3565 24.1075 22.3557 24.1482 22.3691 24.1482Z" fill="#6A0067"/>
<path d="M22.7311 24.0176C22.9263 24.0795 23.0827 24.2746 23.1737 24.453C23.2836 24.6691 23.2911 24.9007 23.3561 25.129C23.3732 25.1891 23.4036 25.1345 23.4036 25.0993C23.4036 24.8432 23.3404 24.5521 23.2146 24.3287C23.1039 24.1317 22.9475 24.0279 22.7342 23.9738C22.7231 23.9709 22.7208 24.0145 22.7317 24.0176H22.7311Z" fill="#6A0067"/>
<path d="M15.7518 24.2894C15.4259 24.226 15.0747 24.3533 14.8927 24.6405C14.6923 24.9566 14.7111 25.363 14.7636 25.7194C14.7678 25.7476 14.7856 25.7359 14.7852 25.7127C14.7791 25.367 14.745 24.987 14.9647 24.6952C15.1491 24.451 15.4475 24.3025 15.7518 24.3248C15.7621 24.3256 15.7625 24.2921 15.7518 24.2901V24.2894Z" fill="#6A0067"/>
<path d="M15.4093 24.1056C14.7433 24.0949 14.4587 24.885 14.5897 25.4534C14.6008 25.5014 14.6258 25.4558 14.6265 25.4304C14.6341 25.1272 14.6246 24.8335 14.7945 24.5669C14.9317 24.3517 15.1498 24.1702 15.4093 24.1463C15.4227 24.1451 15.4227 24.1056 15.4093 24.1056Z" fill="#6A0067"/>
<path d="M15.0463 23.9738C14.8331 24.028 14.677 24.1317 14.5661 24.3287C14.4401 24.5521 14.3764 24.8433 14.377 25.0993C14.377 25.1343 14.4075 25.1893 14.4246 25.129C14.4895 24.9008 14.497 24.669 14.6068 24.453C14.6975 24.2746 14.8539 24.0795 15.0494 24.0176C15.061 24.0139 15.0577 23.9709 15.0467 23.9738H15.0463Z" fill="#6A0067"/>
<path d="M15.0747 25.6418C15.1198 25.874 15.3112 26.0066 15.5372 26.0196C15.5693 26.0214 15.5663 25.9141 15.5372 25.9185C15.344 25.9476 15.1514 25.8009 15.0918 25.6186C15.0823 25.5893 15.072 25.6282 15.0747 25.6418Z" fill="#6A0067"/>
<path d="M15.0883 25.9602C15.1789 26.1206 15.3337 26.224 15.5198 26.1945C15.5601 26.1881 15.5537 26.0637 15.5198 26.0695C15.3688 26.0958 15.1914 26.049 15.0988 25.9193C15.0873 25.9033 15.0827 25.9503 15.0883 25.9601V25.9602Z" fill="#6A0067"/>
<path d="M15.1866 26.2107C15.2255 26.2786 15.2792 26.3367 15.3435 26.3806C15.3916 26.4127 15.4929 26.4768 15.5429 26.4286C15.5615 26.4108 15.5682 26.3573 15.5482 26.3372C15.5031 26.2922 15.4244 26.3111 15.3639 26.2907C15.2966 26.2674 15.2386 26.2225 15.1987 26.163C15.1862 26.1446 15.1793 26.1984 15.1866 26.2107Z" fill="#6A0067"/>
<path d="M15.2864 26.489C15.3061 26.5432 15.336 26.593 15.3744 26.6357C15.3929 26.6543 15.4127 26.6716 15.4337 26.6873C15.4577 26.706 15.472 26.725 15.5021 26.7076C15.5269 26.6933 15.5216 26.6349 15.5073 26.615C15.4804 26.5778 15.433 26.5812 15.3944 26.5562C15.3549 26.5331 15.3219 26.5001 15.2989 26.4602C15.2886 26.4402 15.2824 26.4794 15.2864 26.489Z" fill="#6A0067"/>
<path d="M16.1991 24.322C16.2956 24.1563 16.3828 23.9862 16.4823 23.8222C16.5717 23.675 16.6859 23.5033 16.7248 23.3347C16.7272 23.3241 16.7264 23.2397 16.6999 23.26C16.6435 23.3027 16.6194 23.3773 16.5876 23.4393C16.5399 23.5343 16.4923 23.628 16.4497 23.7242C16.3665 23.9142 16.2726 24.0969 16.1867 24.2848C16.1826 24.2938 16.19 24.3371 16.1991 24.3215V24.322Z" fill="#6A0067"/>
<path d="M16.4371 24.3304C16.6848 24.0174 16.868 23.6358 17.0175 23.2664C17.031 23.2341 17.0385 23.1755 17.0175 23.1442C17.0006 23.1196 16.9799 23.1078 16.9647 23.1442C16.8854 23.3342 16.8164 23.5296 16.7359 23.7195C16.6529 23.9153 16.5422 24.1021 16.4238 24.2779C16.4152 24.2906 16.4214 24.3498 16.4372 24.33L16.4371 24.3304Z" fill="#6A0067"/>
<path d="M17.2915 23.1181C17.1747 23.412 17.0517 23.7076 16.9465 24.0057C16.9423 24.0174 16.9495 24.0915 16.9662 24.0645C17.1301 23.7983 17.2425 23.4761 17.3231 23.1743C17.3283 23.155 17.3097 23.0723 17.2915 23.1181Z" fill="#6A0067"/>
<path d="M16.0543 23.4999C16.0254 23.5891 15.9882 23.6754 15.9434 23.7577C15.9008 23.8338 15.8376 23.8933 15.7959 23.9681C15.7905 23.9779 15.7908 24.0469 15.812 24.0317C15.8809 23.9825 15.923 23.8825 15.963 23.808C16.0102 23.7202 16.0467 23.6269 16.0718 23.5303C16.0746 23.5193 16.0629 23.4748 16.0545 23.4996L16.0543 23.4999Z" fill="#6A0067"/>
<path d="M15.8681 23.5227C15.8108 23.6579 15.727 23.7508 15.6146 23.84C15.584 23.8644 15.6063 23.972 15.6281 23.9522C15.7435 23.8484 15.8306 23.7016 15.882 23.5552C15.8859 23.5444 15.8777 23.4994 15.8679 23.5227H15.8681Z" fill="#6A0067"/>
<path d="M15.6647 23.4872C15.6427 23.5595 15.6027 23.625 15.5486 23.6773C15.4945 23.7297 15.4281 23.7671 15.3557 23.7862C15.3049 23.8009 15.3278 23.9372 15.3635 23.9181C15.4406 23.8753 15.5085 23.8174 15.5633 23.7478C15.6182 23.6782 15.6587 23.5983 15.6827 23.5127C15.687 23.4972 15.6741 23.4571 15.6643 23.4878L15.6647 23.4872Z" fill="#6A0067"/>
<path d="M21.5173 24.2855C21.4315 24.0976 21.3376 23.9143 21.2543 23.7249C21.2141 23.6344 21.1705 23.5461 21.1258 23.4579C21.0919 23.3913 21.0649 23.3062 21.0042 23.2601C20.9773 23.2392 20.9773 23.3255 20.9792 23.3348C21.0181 23.5036 21.1324 23.6752 21.2216 23.8223C21.3212 23.9863 21.4084 24.1565 21.505 24.3221C21.5142 24.338 21.5212 24.2941 21.5173 24.2855Z" fill="#6A0067"/>
<path d="M21.2764 24.2788C21.158 24.1024 21.0474 23.9162 20.9643 23.7204C20.8839 23.5304 20.8148 23.3356 20.7355 23.1451C20.7205 23.1092 20.6999 23.1215 20.6827 23.1451C20.6616 23.174 20.6702 23.2362 20.6827 23.2672C20.8322 23.6367 21.0153 24.0183 21.2632 24.3313C21.2787 24.3509 21.2852 24.2923 21.2766 24.2792L21.2764 24.2788Z" fill="#6A0067"/>
<path d="M21.6292 23.5324C21.6543 23.6291 21.6908 23.7223 21.738 23.8101C21.7782 23.8843 21.8201 23.9846 21.889 24.0338C21.9103 24.0492 21.9103 23.9796 21.9051 23.9702C21.8632 23.8948 21.8001 23.836 21.7576 23.7598C21.7127 23.6775 21.6755 23.5912 21.6465 23.502C21.6381 23.4772 21.6265 23.5221 21.6293 23.5327L21.6292 23.5324Z" fill="#6A0067"/>
<path d="M21.8193 23.5551C21.8709 23.7015 21.958 23.8484 22.0734 23.9522C22.0949 23.9716 22.118 23.8647 22.0868 23.8399C21.9746 23.7508 21.8906 23.6576 21.8335 23.5227C21.8237 23.4995 21.8155 23.5443 21.8193 23.5551Z" fill="#6A0067"/>
<path d="M22.0188 23.5114C22.0428 23.597 22.0835 23.677 22.1383 23.7465C22.1931 23.8161 22.2611 23.874 22.3382 23.9168C22.3745 23.9362 22.3957 23.7994 22.346 23.7849C22.2735 23.7659 22.2071 23.7284 22.153 23.6761C22.0989 23.6237 22.0589 23.5583 22.0369 23.4859C22.0271 23.4552 22.0142 23.4953 22.0184 23.5108L22.0188 23.5114Z" fill="#6A0067"/>
<path d="M25.7325 18.4556C25.7325 18.4556 26.6431 19.7529 27.0602 20.9322C27.4773 22.1114 27.4396 24.0768 27.4396 24.0768C27.4396 24.0768 25.6942 22.6224 25.3148 22.1502C25.3148 22.1502 25.125 20.6957 25.4287 20.2237C25.7323 19.7517 25.0078 18.533 25.0078 18.533L25.7325 18.4556Z" fill="#6A0067"/>
<path d="M27.5078 24.2307L27.392 24.1341C27.3205 24.0745 25.6365 22.6696 25.2568 22.1976L25.2434 22.1814L25.2407 22.1607C25.2328 22.1004 25.0511 20.6737 25.3657 20.1849C25.5937 19.8296 25.1377 18.9002 24.9434 18.5722L24.8848 18.4734L25.7647 18.3784L25.7894 18.4136C25.7985 18.4271 26.7106 19.7326 27.1265 20.9078C27.5437 22.0862 27.5119 23.998 27.5103 24.0787L27.5078 24.2307ZM25.3827 22.1208C25.718 22.5238 26.9733 23.5906 27.3662 23.9215C27.3646 23.4365 27.3311 21.9202 26.9907 20.9573C26.6192 19.9079 25.843 18.7487 25.696 18.5338L25.1251 18.5954C25.2941 18.9035 25.7632 19.8381 25.4884 20.2651C25.2215 20.6792 25.3614 21.9431 25.3827 22.1208Z" fill="#F8F8F8"/>
<path d="M12.0362 18.4556C12.0362 18.4556 11.1255 19.7529 10.7084 20.9322C10.2913 22.1114 10.329 24.0768 10.329 24.0768C10.329 24.0768 12.0744 22.6224 12.4538 22.1502C12.4538 22.1502 12.6436 20.6957 12.3401 20.2237C12.0366 19.7517 12.6385 18.7177 12.6385 18.7177L12.0362 18.4556Z" fill="#6A0067"/>
<path d="M10.256 24.23L10.2531 24.078C10.2516 23.9966 10.2197 22.0855 10.6368 20.9071C11.0525 19.7318 11.9645 18.4259 11.9739 18.4128L12.008 18.3643L12.7396 18.6836L12.6979 18.7554C12.537 19.0323 12.1691 19.8289 12.3977 20.1842C12.7122 20.6726 12.5305 22.0996 12.5226 22.16L12.5201 22.1806L12.5066 22.1969C12.127 22.6689 10.4431 24.0738 10.3716 24.1334L10.256 24.23ZM12.059 18.5466C11.8912 18.793 11.1377 19.9279 10.7736 20.9566C10.4326 21.9199 10.3992 23.4359 10.398 23.9208C10.791 23.5899 12.0466 22.5233 12.3814 22.1201C12.4027 21.9424 12.5423 20.6784 12.2762 20.2644C11.9971 19.8302 12.3987 19.0041 12.5328 18.7534L12.059 18.5466Z" fill="#F8F8F8"/>
<path d="M23.4576 13.5621C22.4073 11.8924 21.0601 11.2733 18.9031 11.111V11.1055L18.8658 11.1083L18.8284 11.1055V11.111C16.6713 11.2738 15.3243 11.8924 14.2738 13.5621C13.6533 14.5486 12.8938 17.1792 13.2115 18.0148C13.5644 18.9428 18.1828 19.0743 18.8284 19.0881V19.0895L18.8658 19.0888L18.9031 19.0895V19.0881C19.5487 19.0745 24.1672 18.9428 24.5201 18.0148C24.8376 17.1792 24.0781 14.5486 23.4576 13.5621Z" fill="#6A0067"/>
<path d="M18.7536 19.1625V19.1581C18.3125 19.1474 17.0959 19.1063 15.8997 18.9655C14.2049 18.766 13.3027 18.4635 13.1416 18.0394C12.8103 17.1679 13.5879 14.511 14.2105 13.5206C14.7422 12.6755 15.3429 12.0982 16.1016 11.7039C16.7983 11.3414 17.6426 11.1302 18.7543 11.0409V11.0249L18.8644 11.0325L18.9744 11.0249V11.0409C20.0862 11.1302 20.9304 11.3414 21.6272 11.7039C22.3851 12.0982 22.9859 12.6755 23.5175 13.5206C24.1401 14.511 24.9178 17.1677 24.5864 18.0386C24.4255 18.4623 23.5231 18.7652 21.8284 18.9647C20.6321 19.1055 19.4155 19.1466 18.9744 19.1573V19.1602H18.9006H18.8644L18.7536 19.1625ZM18.8633 11.1802L18.8317 11.1826C16.5823 11.3517 15.321 12.0296 14.3332 13.5999C13.7395 14.5436 12.9652 17.1663 13.2772 17.9866C13.3548 18.1908 13.8009 18.57 15.9165 18.8195C17.1785 18.9687 18.4639 19.005 18.8278 19.0128L18.8627 19.0136H18.8647L18.8995 19.0128C19.2634 19.005 20.5492 18.9681 21.8108 18.8195C23.9264 18.5704 24.3725 18.1908 24.4502 17.9866C24.7621 17.1663 23.988 14.5436 23.3942 13.5999C22.4065 12.0296 21.1458 11.3517 18.8957 11.1826L18.864 11.1802H18.8633Z" fill="#F8F8F8"/>
<path d="M18.864 11.1084C18.864 11.1084 18.8068 11.4244 18.7403 11.8891C18.6738 12.3537 18.5977 12.9673 18.5598 13.5622C18.5218 14.1571 18.5029 15.5486 18.4934 16.7912C18.4839 18.0339 18.4839 19.1278 18.4839 19.1278L18.2559 19.0894C18.2559 19.0894 18.2656 17.3539 18.3464 15.4885C18.3866 14.5559 18.4451 13.5907 18.5287 12.7936C18.5705 12.3951 18.6186 12.0388 18.6742 11.7489C18.7297 11.459 18.7929 11.2382 18.864 11.1084Z" fill="#F8F8F8"/>
<path d="M18.8667 11.1104C18.8667 11.1104 18.7631 11.3978 18.6297 11.8229C18.5912 11.9458 18.5502 12.0807 18.5077 12.2226C18.4021 12.5763 18.3039 12.9824 18.2066 13.3758C18.1524 13.5989 18.1109 13.825 18.0825 14.053C17.9976 14.7233 17.9016 15.7144 17.8432 16.6061C17.8255 16.8749 17.8102 17.1337 17.8022 17.3701C17.7754 18.2556 17.7717 18.975 17.7712 19.0138C17.7712 19.0212 17.7165 19.0161 17.7165 19.0161L17.5488 18.9813C17.5488 18.9813 17.5466 18.2637 17.5975 17.3371C17.6313 16.7452 17.6914 16.0136 17.7801 15.2685C17.8247 14.8947 17.8782 14.5178 17.9352 14.1516C18.0199 13.6065 18.1506 13.0911 18.2823 12.6382C18.3249 12.4916 18.3647 12.3508 18.4059 12.2184C18.4671 12.0215 18.5237 11.8407 18.5871 11.6857C18.6687 11.4884 18.7621 11.2963 18.8667 11.1104Z" fill="#F8F8F8"/>
<path d="M18.866 11.1104C18.866 11.1104 18.7158 11.3694 18.5158 11.7548C18.4578 11.8667 18.3951 11.9897 18.3305 12.1192C18.1671 12.4448 18.0105 12.8247 17.8501 13.1885C17.7571 13.3974 17.6837 13.6147 17.6306 13.8375C17.4786 14.4862 17.2983 15.515 17.1897 16.4197C17.156 16.7001 17.1266 16.9667 17.1126 17.2032C17.0609 18.0699 17.0564 18.821 17.0551 18.8991C17.0551 18.9139 17.0095 18.9144 17.0095 18.9144L16.8381 18.8728C16.8381 18.8728 16.8297 18.0887 16.9102 17.1693C16.9638 16.5757 17.062 15.8155 17.2098 15.0473C17.2829 14.6674 17.3707 14.2876 17.4635 13.9197C17.5977 13.3916 17.8165 12.9061 18.0321 12.4816C18.0991 12.3488 18.162 12.2196 18.2257 12.0994C18.3196 11.922 18.4049 11.757 18.496 11.621C18.6634 11.3714 18.8153 11.2032 18.866 11.1104Z" fill="#F8F8F8"/>
<path d="M18.8651 11.1104C18.8651 11.1104 18.6676 11.341 18.4016 11.6867C18.3238 11.7878 18.2407 11.8989 18.1529 12.0161C17.9311 12.3146 17.7104 12.6673 17.4933 13.0006C17.3785 13.1769 17.2628 13.3836 17.1786 13.6217C16.9569 14.2489 16.6933 15.315 16.5357 16.233C16.4857 16.5248 16.4432 16.7993 16.4225 17.0358C16.3482 17.8839 16.3406 18.6666 16.3389 18.783C16.3389 18.8052 16.3021 18.8113 16.3021 18.8113L16.1278 18.7626C16.1278 18.7626 16.1117 17.9129 16.2234 17.001C16.3151 16.2675 16.4541 15.5408 16.6396 14.8256C16.7404 14.4402 16.8615 14.0556 16.9917 13.6875C17.1728 13.1763 17.4791 12.7205 17.7817 12.3246C17.873 12.2052 17.9591 12.0882 18.0456 11.98C18.1721 11.822 18.288 11.6734 18.4049 11.5556C18.6331 11.3261 18.8245 11.1846 18.8651 11.1104Z" fill="#F8F8F8"/>
<path d="M18.8657 11.1084C18.8657 11.1084 18.6205 11.3101 18.289 11.6165C18.1914 11.7066 18.0863 11.8064 17.977 11.9109C17.6954 12.1804 17.4065 12.5046 17.1381 12.8107C16.9836 12.9871 16.8356 13.1822 16.728 13.4039C16.4341 14.0088 16.0888 15.1134 15.8831 16.0442C15.816 16.3474 15.7611 16.6296 15.7336 16.8664C15.6373 17.6956 15.6263 18.5101 15.6237 18.6653C15.6231 18.674 15.6203 18.6823 15.6154 18.6895C15.6105 18.6967 15.6038 18.7024 15.596 18.706L15.4173 18.6502C15.4173 18.6502 15.3953 17.7346 15.5364 16.83C15.6302 16.2331 15.8028 15.4152 16.0703 14.6013C16.1992 14.2101 16.3497 13.8266 16.5211 13.4524C16.7477 12.9575 17.1403 12.5299 17.5324 12.1649C17.6467 12.0584 17.7571 11.9536 17.8664 11.858C18.0253 11.7189 18.1734 11.5884 18.315 11.4876C18.6067 11.2815 18.8353 11.164 18.8657 11.1084Z" fill="#F8F8F8"/>
<path d="M18.8667 11.1084C18.8667 11.1084 18.5738 11.2811 18.1766 11.5484C18.0591 11.6274 17.9327 11.7149 17.8011 11.8077C17.4606 12.0483 17.1017 12.3406 16.7831 12.6228C16.5876 12.796 16.4076 12.9822 16.2777 13.188C15.9094 13.7695 15.4837 14.9124 15.2315 15.8574C15.1476 16.172 15.0804 16.4622 15.0461 16.6986C14.9283 17.5089 14.9119 18.3551 14.9097 18.549C14.9105 18.5688 14.9038 18.5882 14.891 18.6033L14.7085 18.5409C14.7085 18.5409 14.6825 17.5595 14.8512 16.6621C14.966 16.0636 15.174 15.2169 15.5025 14.3803C15.6587 13.9813 15.8424 13.5938 16.0523 13.2208C16.3233 12.7414 16.8022 12.3406 17.2852 12.0085C17.4222 11.9142 17.557 11.8224 17.6893 11.7393C17.8804 11.6191 18.0609 11.508 18.2271 11.423C18.5813 11.2416 18.8463 11.1456 18.8667 11.1084Z" fill="#F8F8F8"/>
<path d="M18.8659 11.1084C18.8659 11.1084 18.5244 11.2509 18.0625 11.4801C17.9251 11.548 17.7773 11.6234 17.624 11.7044C17.2243 11.9155 16.795 12.1732 16.4264 12.4349C16.1894 12.6031 15.9779 12.7815 15.8256 12.972C15.3812 13.5283 14.876 14.7116 14.5783 15.6706C14.4769 15.9962 14.398 16.2947 14.3566 16.5317C14.2178 17.3236 14.1974 18.2011 14.1939 18.4338C14.1944 18.4568 14.1911 18.4797 14.1842 18.5017L13.9981 18.4319C13.9981 18.4319 13.9655 17.3843 14.1637 16.4937C14.2988 15.8931 14.5409 15.0161 14.9317 14.1581C15.1144 13.7501 15.3312 13.3586 15.5797 12.9879C15.894 12.5231 16.4602 12.1475 17.034 11.8508C17.1937 11.7682 17.3529 11.6899 17.5082 11.6192C17.7314 11.5179 17.9442 11.4272 18.1351 11.3571C18.5539 11.2036 18.8557 11.1269 18.8659 11.1084Z" fill="#F8F8F8"/>
<path d="M18.864 11.1084C18.344 11.2067 17.8306 11.3377 17.3268 11.5009C16.5015 11.769 15.5622 12.1809 15.1068 12.7567C14.1963 13.9082 13.703 15.443 13.4752 16.3264C13.2475 17.2098 13.2856 18.3224 13.2856 18.3224L13.4752 18.3992C13.4752 18.3992 13.4752 17.2867 13.665 16.3648C13.8548 15.4429 14.6702 13.4671 15.3725 12.7567C15.8089 12.3152 16.6817 11.9033 17.4454 11.6017C18.2091 11.3001 18.864 11.1084 18.864 11.1084Z" fill="#F8F8F8"/>
<path d="M18.9023 11.1084C18.9023 11.1084 18.9593 11.4244 19.0259 11.8891C19.0924 12.3537 19.1684 12.9673 19.2064 13.5622C19.2443 14.1571 19.2634 15.5486 19.2728 16.7912C19.2822 18.0339 19.2823 19.1278 19.2823 19.1278L19.5103 19.0894C19.5103 19.0894 19.4997 17.354 19.4192 15.4886C19.379 14.556 19.3207 13.5908 19.237 12.7937C19.1953 12.3953 19.147 12.039 19.0916 11.749C19.0362 11.4591 18.9734 11.2382 18.9023 11.1084Z" fill="#F8F8F8"/>
<path d="M18.9023 11.1104C18.9023 11.1104 19.0057 11.3978 19.1392 11.8229C19.1778 11.9458 19.2189 12.0807 19.2612 12.2226C19.3669 12.5763 19.465 12.9824 19.5623 13.3758C19.6166 13.5989 19.658 13.825 19.6864 14.053C19.7713 14.7233 19.8673 15.7144 19.9258 16.6061C19.9434 16.8749 19.9587 17.1337 19.966 17.3701C19.9929 18.2556 19.9965 18.975 19.997 19.0138C19.997 19.0212 20.0517 19.0161 20.0517 19.0161L20.2195 18.9813C20.2195 18.9813 20.2217 18.2637 20.1708 17.3371C20.137 16.7452 20.077 16.0136 19.9882 15.2685C19.9435 14.8947 19.89 14.5178 19.8331 14.1516C19.7484 13.6065 19.6177 13.0911 19.486 12.6382C19.4434 12.4916 19.4037 12.3508 19.3625 12.2184C19.3011 12.0215 19.2445 11.8407 19.1813 11.6857C19.0999 11.4884 19.0067 11.2963 18.9023 11.1104Z" fill="#F8F8F8"/>
<path d="M18.9023 11.1104C18.9023 11.1104 19.0526 11.3694 19.2525 11.7548C19.3107 11.8667 19.3732 11.9897 19.4379 12.1192C19.6012 12.4448 19.758 12.8247 19.9183 13.1885C20.0113 13.3974 20.0848 13.6147 20.1377 13.8375C20.2899 14.4862 20.4702 15.515 20.5788 16.4197C20.6125 16.7001 20.6417 16.9667 20.6559 17.2032C20.7074 18.0699 20.712 18.821 20.7132 18.8991C20.7132 18.9139 20.7589 18.9144 20.7589 18.9144L20.9302 18.8728C20.9302 18.8728 20.9385 18.0893 20.8581 17.1698C20.8044 16.5762 20.7062 15.8161 20.5584 15.0479C20.4855 14.668 20.3975 14.2881 20.3048 13.9203C20.1707 13.3921 19.9518 12.9067 19.7363 12.4821C19.6692 12.3493 19.6062 12.2202 19.5425 12.1C19.4486 11.9225 19.3633 11.7575 19.2722 11.6216C19.1051 11.3714 18.9532 11.2032 18.9023 11.1104Z" fill="#F8F8F8"/>
<path d="M18.9023 11.1104C18.9023 11.1104 19.0999 11.341 19.3659 11.6867C19.4436 11.7878 19.5268 11.8989 19.6145 12.0161C19.8363 12.3146 20.0571 12.6673 20.2742 13.0006C20.389 13.1769 20.5048 13.3836 20.5889 13.6217C20.8107 14.2489 21.0743 15.315 21.2317 16.233C21.2819 16.5248 21.3242 16.7993 21.3449 17.0358C21.4192 17.8839 21.4268 18.6666 21.4287 18.783C21.4287 18.8052 21.4653 18.8113 21.4653 18.8113L21.6397 18.7626C21.6397 18.7626 21.6559 17.9129 21.5441 17.001C21.4521 16.2675 21.3129 15.5408 21.1274 14.8256C21.0264 14.4402 20.9054 14.0556 20.775 13.6875C20.594 13.1763 20.2878 12.7205 19.9851 12.3246C19.8939 12.2052 19.8078 12.0882 19.7213 11.98C19.5947 11.822 19.4788 11.6734 19.3618 11.5556C19.1344 11.3261 18.943 11.1846 18.9023 11.1104Z" fill="#F8F8F8"/>
<path d="M18.9023 11.1084C18.9023 11.1084 19.1475 11.3101 19.4791 11.6165C19.5767 11.7066 19.6817 11.8064 19.791 11.9109C20.0727 12.1804 20.3615 12.5046 20.6301 12.8107C20.7844 12.9871 20.9325 13.1822 21.0402 13.4039C21.3339 14.0088 21.6793 15.1134 21.8851 16.0442C21.9522 16.3474 22.007 16.6296 22.0345 16.8664C22.1308 17.6956 22.1418 18.5101 22.1445 18.6653C22.1451 18.674 22.148 18.6823 22.1529 18.6895C22.1578 18.6967 22.1645 18.7024 22.1723 18.706L22.3509 18.6502C22.3509 18.6502 22.373 17.7346 22.2318 16.83C22.1379 16.2331 21.9653 15.4152 21.698 14.6013C21.569 14.2101 21.4185 13.8266 21.2471 13.4524C21.0205 12.9575 20.628 12.5299 20.2357 12.1649C20.1215 12.0584 20.0111 11.9536 19.9018 11.858C19.7429 11.7189 19.5949 11.5884 19.4532 11.4876C19.1615 11.2815 18.9328 11.164 18.9023 11.1084Z" fill="#F8F8F8"/>
<path d="M18.9023 11.1084C18.9023 11.1084 19.1954 11.2811 19.5922 11.5484C19.7097 11.6274 19.8362 11.7149 19.9678 11.8077C20.308 12.0483 20.6673 12.3405 20.986 12.6228C21.1814 12.796 21.3615 12.9822 21.4914 13.188C21.8596 13.7695 22.2855 14.9124 22.5375 15.8574C22.6214 16.172 22.6886 16.4622 22.7231 16.6986C22.8409 17.5089 22.8564 18.3551 22.8594 18.549C22.8586 18.5689 22.8653 18.5883 22.8781 18.6033L23.0605 18.5406C23.0605 18.5406 23.0866 17.5593 22.9178 16.6618C22.803 16.0629 22.595 15.2162 22.267 14.3796C22.1107 13.9806 21.927 13.5931 21.7171 13.2202C21.4462 12.7407 20.9672 12.3399 20.4843 12.0078C20.3472 11.9135 20.2124 11.8218 20.0802 11.7386C19.8892 11.6184 19.7085 11.5073 19.5425 11.4223C19.1876 11.2416 18.9229 11.1456 18.9023 11.1084Z" fill="#F8F8F8"/>
<path d="M18.9023 11.1084C18.9023 11.1084 19.2437 11.2509 19.7056 11.4801C19.843 11.548 19.991 11.6234 20.1441 11.7044C20.5439 11.9155 20.9731 12.1732 21.3417 12.4349C21.5787 12.6031 21.7903 12.7815 21.9425 12.972C22.387 13.5283 22.8921 14.7116 23.1898 15.6706C23.2912 15.9962 23.3701 16.2947 23.4117 16.5317C23.5505 17.3236 23.5707 18.2011 23.5742 18.4338C23.5737 18.4568 23.577 18.4798 23.584 18.5017L23.77 18.4319C23.77 18.4319 23.8021 17.3847 23.6039 16.4946C23.4688 15.894 23.2267 15.017 22.8359 14.159C22.6531 13.7511 22.4364 13.3596 22.188 12.9888C21.8737 12.524 21.3075 12.1485 20.7337 11.8518C20.5739 11.7691 20.4147 11.6908 20.2594 11.6202C20.0362 11.5188 19.8233 11.4282 19.6326 11.358C19.2143 11.2036 18.9124 11.1269 18.9023 11.1084Z" fill="#F8F8F8"/>
<path d="M18.9023 11.1084C19.4223 11.2067 19.9356 11.3378 20.4393 11.5009C21.2648 11.769 22.2041 12.1809 22.6594 12.7567C23.5701 13.9082 24.0633 15.443 24.2909 16.3264C24.5185 17.2098 24.4807 18.3224 24.4807 18.3224L24.2909 18.3992C24.2909 18.3992 24.2909 17.2867 24.1013 16.3648C23.9117 15.4429 23.0954 13.4671 22.3937 12.7567C21.9574 12.3152 21.0846 11.9033 20.3208 11.6017C19.557 11.3001 18.9023 11.1084 18.9023 11.1084Z" fill="#F8F8F8"/>
<path d="M12.7658 15.4492C12.3357 14.9525 11.6313 14.8907 10.9712 15.2918C10.6268 15.501 10.3478 15.8073 10.1855 16.1549C10.0027 16.5465 9.98192 16.9554 10.1256 17.3394C10.6706 18.7947 12.0083 19.2984 12.0649 19.319L12.1411 19.3469L12.1827 19.2765C12.1879 19.2676 12.7174 18.3763 13.2422 17.9382L13.262 17.9214L13.2713 17.8969C13.2914 17.8437 13.7476 16.583 12.7658 15.4492Z" fill="#F8F8F8"/>
<path d="M11.9676 18.7731C11.5904 18.5685 10.884 18.0823 10.546 17.1783C10.4453 16.9092 10.4607 16.6301 10.5921 16.3489C10.7169 16.0817 10.9337 15.8446 11.2029 15.681C11.3819 15.5724 11.5693 15.5054 11.7445 15.4878C11.9369 15.4684 12.2119 15.4978 12.4285 15.7484C13.1134 16.5391 12.9494 17.3967 12.8767 17.6577C12.5093 17.99 12.1649 18.4734 11.9676 18.7731Z" fill="#6A0067"/>
<path d="M11.9889 18.8692L11.9307 18.8383C11.5352 18.6239 10.8199 18.1265 10.4747 17.2048C10.3667 16.9163 10.383 16.618 10.5231 16.3179C10.6539 16.0378 10.8808 15.7894 11.1622 15.6185C11.35 15.5041 11.5482 15.4338 11.7341 15.415C11.7681 15.4115 11.8023 15.4097 11.8365 15.4097C12.093 15.4097 12.3155 15.5102 12.4803 15.7001C13.1922 16.5223 13.015 17.4218 12.9438 17.678L12.9378 17.6986L12.9221 17.7122C12.5525 18.0468 12.2016 18.5458 12.0254 18.8135L11.9889 18.8692ZM11.8365 15.5562C11.8076 15.5562 11.7779 15.5577 11.7484 15.5607C11.5839 15.5772 11.407 15.6406 11.237 15.7438C10.9801 15.9 10.7731 16.1259 10.6546 16.3801C10.5318 16.6427 10.5171 16.9024 10.6107 17.152C10.9231 17.9861 11.5564 18.456 11.9417 18.6755C12.1582 18.3518 12.4727 17.9259 12.8093 17.6172C12.8782 17.3548 13.0169 16.5424 12.3709 15.7965C12.2327 15.6371 12.0526 15.5562 11.8365 15.5562Z" fill="#F8F8F8"/>
<path d="M12.7658 15.4492C12.3357 14.9525 11.6313 14.8907 10.9712 15.2918C10.6268 15.501 10.3478 15.8073 10.1855 16.1549C10.0027 16.5465 9.98192 16.9554 10.1256 17.3394C10.6706 18.7947 12.0083 19.2984 12.0649 19.319L12.1411 19.3469L12.1827 19.2765C12.1879 19.2676 12.7174 18.3763 13.2422 17.9382L13.262 17.9214L13.2713 17.8969C13.2914 17.8437 13.7476 16.583 12.7658 15.4492ZM13.0959 17.8031C12.6373 18.1955 12.1973 18.8766 12.0585 19.1015C11.7756 18.9752 10.7508 18.4478 10.3092 17.269C10.0401 16.5506 10.4894 15.8162 11.0723 15.4621C11.2601 15.3484 11.4881 15.2599 11.7245 15.2362C12.039 15.2045 12.3651 15.288 12.6181 15.5801C12.996 16.0164 13.1903 16.5257 13.1949 17.0939C13.1983 17.3341 13.1649 17.5734 13.0956 17.8031H13.0959Z" fill="#6A0067"/>
<path d="M24.9958 15.4492C25.4259 14.9525 26.1303 14.8907 26.7905 15.2918C27.1349 15.501 27.4138 15.8073 27.5761 16.1549C27.7589 16.5465 27.7797 16.9554 27.6361 17.3394C27.091 18.7947 25.7535 19.2984 25.6967 19.319L25.6206 19.3469L25.579 19.2765C25.5737 19.2676 25.0442 18.3763 24.5194 17.9382L24.4993 17.9214L24.4902 17.8969C24.4702 17.8437 24.0142 16.583 24.9958 15.4492Z" fill="#F8F8F8"/>
<path d="M25.7945 18.7731C26.1718 18.5685 26.8782 18.0823 27.2161 17.1783C27.3169 16.9092 27.3014 16.6301 27.17 16.3489C27.0453 16.0817 26.8284 15.8446 26.5592 15.681C26.38 15.5724 26.1928 15.5054 26.0177 15.4878C25.8252 15.4684 25.5503 15.4978 25.3337 15.7484C24.6487 16.5391 24.8127 17.3967 24.8853 17.6577C25.2528 17.99 25.5972 18.4734 25.7945 18.7731Z" fill="#6A0067"/>
<path d="M25.7716 18.8691L25.735 18.8134C25.5587 18.5458 25.2079 18.0468 24.8383 17.7122L24.8226 17.6986L24.8168 17.678C24.7456 17.4218 24.5684 16.5223 25.2803 15.7001C25.4449 15.5102 25.6675 15.4097 25.9241 15.4097C25.9583 15.4097 25.9926 15.4115 26.0267 15.415C26.2124 15.4337 26.4101 15.504 26.5984 15.6185C26.8801 15.7894 27.1067 16.0378 27.2375 16.3179C27.3777 16.618 27.3939 16.9163 27.2859 17.2048C26.9407 18.1265 26.2254 18.6239 25.8299 18.8383L25.7716 18.8691ZM24.9512 17.6171C25.2878 17.9261 25.6023 18.352 25.8188 18.6753C26.2048 18.4553 26.8381 17.9853 27.1498 17.1513C27.2437 16.9017 27.2286 16.642 27.1059 16.3795C26.9874 16.1252 26.7804 15.8993 26.5235 15.7432C26.3535 15.6399 26.1766 15.5765 26.0121 15.56C25.9826 15.557 25.9529 15.5555 25.9239 15.5555C25.7076 15.5555 25.5278 15.6369 25.3896 15.7959C24.7436 16.5424 24.8823 17.3548 24.9512 17.6171Z" fill="#F8F8F8"/>
<path d="M24.4902 17.8968L24.4993 17.9214L24.5194 17.9382C25.0445 18.3763 25.574 19.2678 25.579 19.2765L25.6206 19.3469L25.6967 19.3189C25.7535 19.2983 27.0916 18.7947 27.6361 17.3393C27.7797 16.9559 27.7589 16.5464 27.5761 16.1549C27.4138 15.8074 27.1349 15.5009 26.7905 15.2917C26.1303 14.8907 25.4259 14.9526 24.9958 15.4491C24.0142 16.5829 24.4702 17.8436 24.4902 17.8968ZM24.5664 17.0939C24.5716 16.5257 24.766 16.0164 25.1439 15.58C25.3968 15.2879 25.7229 15.2045 26.0374 15.2361C26.2733 15.2599 26.5025 15.3483 26.6896 15.462C27.2725 15.8161 27.7223 16.5505 27.4527 17.2689C27.0111 18.4478 25.9863 18.9751 25.7034 19.1015C25.5644 18.8765 25.1246 18.1954 24.6659 17.8031C24.5967 17.5733 24.5632 17.3341 24.5667 17.0939H24.5664Z" fill="#6A0067"/>
<path d="M11.7548 22.3371C11.9854 21.9865 12.184 21.7069 12.1268 21.2464C12.101 21.0364 12.0762 20.7974 11.7854 20.6993C11.5292 20.6131 11.3016 20.8145 11.1878 20.9872C10.9732 21.3129 10.9249 21.4892 10.9032 21.8796C10.8981 21.9725 10.9246 22.1937 10.9919 22.2571C11.0992 22.3581 11.276 22.2863 11.3816 22.1842C11.5432 22.026 11.6404 21.8124 11.6539 21.5853C11.659 21.4929 11.6271 21.374 11.5357 21.3655C11.5404 21.5693 11.4654 21.7668 11.3268 21.9148C11.2963 21.9471 11.2427 21.9768 11.2124 21.9441C11.2026 21.9313 11.1966 21.9158 11.195 21.8996C11.1438 21.6212 11.1908 21.2931 11.4182 21.1279C11.4584 21.0985 11.5088 21.0746 11.5572 21.0872C11.5906 21.0955 11.6179 21.1198 11.6412 21.1454C11.7887 21.3072 11.829 21.5465 11.794 21.7634C11.7241 22.1907 11.017 22.974 10.7324 23.3482C10.9214 23.2066 11.6223 22.5387 11.7548 22.3371Z" fill="#F8F8F8"/>
<path d="M26.0245 22.3371C25.7941 21.9865 25.5953 21.7069 25.6525 21.2464C25.6785 21.0364 25.7032 20.7974 25.9939 20.6993C26.2501 20.6131 26.4777 20.8145 26.5916 20.9872C26.8062 21.3129 26.8544 21.4892 26.8762 21.8796C26.8813 21.9725 26.8547 22.1937 26.7875 22.2571C26.6802 22.3581 26.5033 22.2863 26.3986 22.1842C26.2368 22.0261 26.1395 21.8124 26.1261 21.5853C26.121 21.4929 26.1529 21.374 26.2445 21.3655C26.2396 21.5693 26.3146 21.7668 26.4532 21.9148C26.4837 21.9471 26.5373 21.9768 26.5676 21.9441C26.5775 21.9313 26.5835 21.9159 26.585 21.8996C26.6362 21.6212 26.5893 21.2931 26.3618 21.1279C26.3216 21.0985 26.2712 21.0746 26.2228 21.0872C26.1894 21.0955 26.1621 21.1198 26.1388 21.1454C25.9913 21.3072 25.951 21.5465 25.986 21.7634C26.0559 22.1907 26.763 22.974 27.0476 23.3482C26.8579 23.2066 26.157 22.5387 26.0245 22.3371Z" fill="#F8F8F8"/>
<path d="M11.7831 26.4307C11.7831 26.4307 11.7263 25.7398 12.722 25.1353C12.722 25.1353 11.8683 24.646 11.4414 24.0127C11.4414 24.0127 11.8967 24.905 12.3521 25.1065C12.3521 25.1065 11.669 25.6248 11.5837 26.3156L11.7831 26.4307Z" fill="#F8F8F8"/>
<path d="M25.9877 26.4307C25.9877 26.4307 26.0445 25.7398 25.0488 25.1353C25.0488 25.1353 25.9025 24.646 26.3294 24.0127C26.3294 24.0127 25.8734 24.905 25.4187 25.1065C25.4187 25.1065 26.1017 25.6248 26.1871 26.3156L25.9877 26.4307Z" fill="#F8F8F8"/>
<path d="M13.1504 26.2583C13.1504 26.2583 13.8903 27.208 14.5734 27.2946C14.5734 27.2946 13.7921 27.8192 13.7419 28.3774L13.549 28.1874C13.549 28.1874 13.777 27.6405 14.0896 27.4391C14.0895 27.4385 13.2928 26.7188 13.1504 26.2583Z" fill="#F8F8F8"/>
<path d="M24.5147 26.2583C24.5147 26.2583 23.7749 27.208 23.0918 27.2946C23.0918 27.2946 23.8729 27.8192 23.9233 28.3774L24.1162 28.1874C24.1162 28.1874 23.8882 27.6405 23.5754 27.4391C23.5756 27.4385 24.3724 26.7188 24.5147 26.2583Z" fill="#F8F8F8"/>
<path d="M18.8793 12.0023C19.4609 12.0023 19.9324 11.7574 19.9324 11.4552C19.9324 11.1531 19.4609 10.9082 18.8793 10.9082C18.2977 10.9082 17.8262 11.1531 17.8262 11.4552C17.8262 11.7574 18.2977 12.0023 18.8793 12.0023Z" fill="#6A0067"/>
<path d="M18.8816 12.0746C18.2505 12.0746 17.7559 11.8021 17.7559 11.4541C17.7559 11.1061 18.2513 10.8335 18.8816 10.8335C19.512 10.8335 20.0082 11.1057 20.0082 11.4541C20.0082 11.8025 19.5131 12.0746 18.8816 12.0746ZM18.8816 10.9806C18.3503 10.9806 17.9012 11.1976 17.9012 11.4541C17.9012 11.7105 18.3503 11.9276 18.8816 11.9276C19.413 11.9276 19.862 11.7105 19.862 11.4541C19.862 11.1976 19.4133 10.9806 18.8816 10.9806Z" fill="#F8F8F8"/>
<path d="M24.5449 18.0132C24.5449 18.0132 24.1578 18.1535 23.4223 18.4609C22.7272 18.7511 19.2659 19.0737 18.8882 19.0858C18.5105 19.0737 15.0492 18.7511 14.3541 18.4609C13.6187 18.1539 13.2316 18.0132 13.2316 18.0132C13.2316 18.0132 11.9541 18.8576 12.1864 19.9708C12.4159 21.0709 16.9547 21.6834 18.8548 21.6978H18.9218C20.8218 21.6834 25.3606 21.0709 25.5901 19.9708C25.8222 18.8576 24.5449 18.0132 24.5449 18.0132Z" fill="#F8F8F8"/>
<path d="M18.9244 21.7696H18.7848V21.7684C17.8811 21.7548 16.3046 21.6084 14.8819 21.3114C14.1133 21.1509 13.4907 20.9682 13.0311 20.7687C12.4835 20.5302 12.176 20.2667 12.1172 19.9844C12.0174 19.5064 12.1734 19.002 12.5681 18.5258C12.7503 18.3066 12.9607 18.113 13.1936 17.9501L13.224 17.9302L13.2579 17.9424C13.2618 17.9439 13.655 18.0869 14.3837 18.3911C15.0666 18.676 18.5108 18.9975 18.89 19.0104C19.2695 18.9968 22.7136 18.6762 23.3964 18.3911C24.1249 18.0869 24.5182 17.9433 24.5221 17.9424L24.5561 17.9302L24.5863 17.9501C24.8197 18.1126 25.0305 18.306 25.2132 18.5251C25.6079 19.0013 25.7631 19.5058 25.6641 19.9837C25.6052 20.2655 25.2978 20.5295 24.7501 20.7681C24.291 20.968 23.6685 21.1508 22.8992 21.3108C21.4768 21.6077 19.9004 21.754 18.9964 21.7677V21.7687L18.9244 21.7696ZM18.8906 21.6224H18.9238C19.807 21.6158 21.4184 21.4706 22.8703 21.1675C24.4871 20.8301 25.4287 20.3989 25.5215 19.9537C25.7215 18.9955 24.7232 18.227 24.5371 18.0934C24.4264 18.1341 24.0551 18.2751 23.4527 18.5266C22.7376 18.8251 19.2762 19.1449 18.8927 19.1571H18.8882C18.5053 19.1449 15.0437 18.8252 14.3282 18.5266C13.7258 18.2751 13.3543 18.1345 13.2437 18.0934C13.0575 18.227 12.0594 18.9955 12.2592 19.9537C12.3522 20.3989 13.2937 20.8301 14.9106 21.1675C16.3621 21.4706 17.9737 21.6152 18.857 21.6224H18.8896H18.8906Z" fill="#6A0067"/>
<path d="M15.6019 18.8574C15.6019 18.8574 14.8809 19.7403 14.8809 20.3928C14.8809 21.0454 16.2086 21.1856 16.7401 21.2624C16.7401 21.2624 15.526 21.0453 15.3741 20.3161C15.2223 19.5868 15.6019 18.8574 15.6019 18.8574Z" fill="#6A0067"/>
<path d="M17.6883 21.7051L17.3848 20.4482C17.3848 20.4482 18.0532 21.3052 18.1141 21.7359L17.6883 21.7051Z" fill="#6A0067"/>
<path d="M13.2333 18.0132L15.0714 19.9324L12.9844 18.2818L13.2333 18.0132Z" fill="#6A0067"/>
<path d="M18.084 21.7674L18.2389 18.8633L18.5403 21.7674H18.084Z" fill="#6A0067"/>
<path d="M19.8497 21.7051L20.153 20.4482C20.153 20.4482 19.4847 21.3052 19.4238 21.7359L19.8497 21.7051Z" fill="#6A0067"/>
<path d="M19.4524 21.7674L19.2975 18.8633L18.9961 21.7674H19.4524Z" fill="#6A0067"/>
<path d="M12.9461 18.627C12.9461 18.627 12.3011 19.3179 12.4528 19.8937C12.6045 20.4695 14.1983 20.8534 14.1983 20.8534C14.1983 20.8534 12.8327 20.316 12.6805 19.8553C12.5283 19.3947 12.9461 18.627 12.9461 18.627Z" fill="#6A0067"/>
<path d="M13.1523 18.9683C13.1523 18.9683 12.7158 19.4359 12.8184 19.8256C12.921 20.2152 14.0002 20.4751 14.0002 20.4751C14.0002 20.4751 13.0756 20.1113 12.9729 19.7997C12.8701 19.488 13.1523 18.9683 13.1523 18.9683Z" fill="#6A0067"/>
<path d="M13.4608 18.8633C13.4608 18.8633 13.0242 19.3308 13.127 19.7206C13.2297 20.1104 14.3084 20.3701 14.3084 20.3701C14.3084 20.3701 13.384 20.0063 13.2812 19.6946C13.1785 19.3828 13.4608 18.8633 13.4608 18.8633Z" fill="#6A0067"/>
<path d="M13.7695 18.7593C13.7695 18.7593 13.3329 19.2269 13.4355 19.6166C13.5381 20.0063 14.6167 20.2661 14.6167 20.2661C14.6167 20.2661 13.6921 19.9025 13.5894 19.5907C13.4866 19.2789 13.7695 18.7593 13.7695 18.7593Z" fill="#6A0067"/>
<path d="M24.6696 18.9683C24.6696 18.9683 25.1063 19.4359 25.0036 19.8256C24.9008 20.2152 23.8223 20.4751 23.8223 20.4751C23.8223 20.4751 24.7467 20.1113 24.8495 19.7997C24.9522 19.488 24.6696 18.9683 24.6696 18.9683Z" fill="#6A0067"/>
<path d="M24.3612 18.8633C24.3612 18.8633 24.7977 19.3308 24.695 19.7206C24.5922 20.1104 23.5137 20.3701 23.5137 20.3701C23.5137 20.3701 24.4381 20.0063 24.5409 19.6946C24.6436 19.3828 24.3612 18.8633 24.3612 18.8633Z" fill="#6A0067"/>
<path d="M24.0526 18.7593C24.0526 18.7593 24.4893 19.2269 24.3865 19.6166C24.2838 20.0063 23.2051 20.2661 23.2051 20.2661C23.2051 20.2661 24.1297 19.9025 24.2324 19.5907C24.3352 19.2789 24.0526 18.7593 24.0526 18.7593Z" fill="#6A0067"/>
<path d="M22.2224 18.8574C22.2224 18.8574 22.9434 19.7403 22.9434 20.3928C22.9434 21.0454 21.6156 21.1856 21.084 21.2624C21.084 21.2624 22.2983 21.0453 22.45 20.3161C22.6017 19.5868 22.2224 18.8574 22.2224 18.8574Z" fill="#6A0067"/>
<path d="M24.59 18.0132L22.752 19.9324L24.8388 18.2818L24.59 18.0132Z" fill="#6A0067"/>
<path d="M24.8771 18.627C24.8771 18.627 25.5222 19.3179 25.3704 19.8937C25.2186 20.4695 23.625 20.8534 23.625 20.8534C23.625 20.8534 24.991 20.316 25.1428 19.8553C25.2946 19.3947 24.8771 18.627 24.8771 18.627Z" fill="#6A0067"/>
<path d="M18.5391 21.7428L18.7634 18.8149L18.9953 21.8612L18.5391 21.7428Z" fill="#6A0067"/>
<path d="M23.8512 13.5222C23.8512 13.5222 23.6614 15.9789 22.7514 16.1323C21.8414 16.2858 21.5372 15.7486 21.8407 14.8273C22.1442 13.9059 22.334 13.1768 22.9032 12.6778C23.4724 12.1788 24.1547 11.2958 23.5855 9.95266C23.0163 8.60949 21.5745 8.76266 21.5745 8.76266C21.5745 8.76266 22.8266 9.37686 22.9023 10.5671C22.9779 11.7574 21.6501 10.8742 21.3085 10.0297C20.9669 9.18529 21.2706 7.76506 21.2706 7.76506C21.2706 7.76506 20.0564 8.87758 20.3599 10.0297C20.6634 11.1819 21.3845 11.1422 21.2326 12.3712C21.0808 13.6001 20.284 13.8682 19.9049 13.1388C19.5257 12.4094 20.3602 11.7957 20.3602 11.7957C20.3602 11.7957 18.8044 11.9492 19.184 13.3311C19.5635 14.7129 20.5117 14.4057 20.5117 15.8644C20.5117 17.2287 18.9184 17.2834 18.7124 17.2847H18.6904C18.4844 17.2834 16.8911 17.2287 16.8911 15.8644C16.8911 14.4057 17.8397 14.7128 18.2189 13.3311C18.598 11.9494 17.0431 11.795 17.0431 11.795C17.0431 11.795 17.8779 12.4092 17.4991 13.1381C17.1202 13.8671 16.3228 13.5994 16.1713 12.3705C16.0197 11.1416 16.7395 11.1808 17.0431 10.0293C17.3466 8.87785 16.1325 7.76465 16.1325 7.76465C16.1325 7.76465 16.436 9.18475 16.0944 10.0293C15.7528 10.8739 14.4249 11.7571 14.5008 10.5667C14.5768 9.37632 15.8286 8.76226 15.8286 8.76226C15.8286 8.76226 14.3875 8.60949 13.8178 9.95266C13.248 11.2958 13.9315 12.1788 14.5008 12.6778C15.0702 13.1768 15.2593 13.9061 15.5633 14.8273C15.8674 15.7485 15.5633 16.2859 14.6527 16.1323C13.742 15.9787 13.5529 13.5222 13.5529 13.5222C13.5529 13.5222 12.6802 15.0193 13.2494 16.2859C13.8186 17.5526 15.6391 17.7061 15.6391 17.7061C15.6391 17.7061 15.9807 17.9368 16.5118 18.6274C17.008 19.272 18.1679 19.4855 18.7641 19.4855C19.3443 19.4855 20.3959 19.272 20.8914 18.6274C21.4227 17.9365 21.7641 17.7061 21.7641 17.7061C21.7641 17.7061 23.5855 17.5527 24.1547 16.2859C24.7239 15.0191 23.8512 13.5222 23.8512 13.5222Z" fill="#F8F8F8"/>
<path d="M18.7618 19.5811C18.1033 19.5811 16.9405 19.3429 16.436 18.6865C15.9901 18.1068 15.6787 17.8559 15.6029 17.7988C15.2681 17.7587 14.9391 17.6789 14.6228 17.5608C13.91 17.2945 13.4046 16.8675 13.1609 16.3262C12.9195 15.7877 12.896 15.1233 13.0939 14.4048C13.2425 13.8664 13.4595 13.491 13.4686 13.4753L13.6191 13.2175L13.6423 13.516C13.6935 14.1788 13.9776 15.9243 14.6648 16.0402C14.7548 16.056 14.8459 16.0643 14.9372 16.065C15.1888 16.065 15.369 15.9912 15.4727 15.8456C15.6177 15.6421 15.6173 15.3008 15.4715 14.8583C15.4404 14.764 15.4103 14.6717 15.3813 14.5816C15.128 13.7991 14.9279 13.1811 14.4365 12.75C14.055 12.4155 13.7875 12.051 13.642 11.6665C13.4369 11.1249 13.4662 10.5359 13.7288 9.91629C13.9377 9.42312 14.2812 9.06752 14.7497 8.85926C15.1323 8.68913 15.5037 8.66376 15.6909 8.66376C15.7797 8.66376 15.8332 8.66932 15.8355 8.66959L16.152 8.70324C16.1352 8.39503 16.0971 8.08838 16.038 7.78554L15.9774 7.49805L16.1929 7.69559C16.4161 7.91069 16.6127 8.15242 16.7782 8.41547C17.1403 8.99073 17.2621 9.55757 17.1311 10.0547C17.0001 10.5518 16.7939 10.8356 16.6117 11.0844C16.3685 11.4179 16.1764 11.6814 16.2604 12.3598C16.3525 13.106 16.6878 13.4464 16.9602 13.4464C17.1346 13.4464 17.2955 13.3216 17.413 13.0951C17.7509 12.4458 16.9931 11.8779 16.9854 11.8722L16.7078 11.668L17.0494 11.7018C17.0812 11.7049 17.8332 11.7847 18.1894 12.3104C18.3804 12.5918 18.4197 12.9437 18.3064 13.3564C18.1272 14.0104 17.8222 14.3041 17.5529 14.5628C17.2342 14.8689 16.9825 15.1106 16.9825 15.8653C16.9825 17.0611 18.3243 17.1789 18.6395 17.19L18.6997 17.1911L18.7575 17.19C19.0694 17.1793 20.4163 17.0634 20.4163 15.8653C20.4163 15.1111 20.1647 14.8693 19.846 14.5628C19.5766 14.3041 19.2713 14.0108 19.0918 13.3567C18.9784 12.944 19.0177 12.5921 19.2086 12.3107C19.5651 11.7849 20.3171 11.7052 20.3486 11.702L20.6902 11.6682L20.4126 11.8724C20.277 11.9792 20.1589 12.1069 20.0626 12.2508C19.8715 12.5431 19.8455 12.8273 19.985 13.0954C20.1027 13.3218 20.2636 13.4467 20.4376 13.4467C20.71 13.4467 21.0453 13.1065 21.1375 12.36C21.2213 11.6817 21.0294 11.4179 20.7862 11.0847C20.6043 10.8352 20.3983 10.5525 20.2672 10.055C20.136 9.55744 20.2582 8.991 20.6202 8.41574C20.7857 8.15271 20.9822 7.91099 21.2053 7.69586L21.4214 7.49805L21.3594 7.78568C21.3004 8.08852 21.2623 8.39516 21.2456 8.70337L21.5618 8.66972C21.5641 8.66972 21.6177 8.66389 21.7065 8.66389C21.8943 8.66389 22.265 8.68926 22.6479 8.8594C23.1162 9.06766 23.4597 9.42326 23.6687 9.91643C23.9313 10.5362 23.9604 11.1251 23.7553 11.6666C23.6098 12.0511 23.3425 12.4157 22.9609 12.7501C22.4695 13.181 22.2694 13.7989 22.0162 14.5817C21.987 14.6722 21.9569 14.7645 21.9259 14.8588C21.7802 15.3012 21.7796 15.6427 21.9246 15.8462C22.0284 15.9916 22.2085 16.0654 22.4601 16.0654C22.5515 16.0647 22.6426 16.0564 22.7325 16.0406C23.4206 15.9247 23.7041 14.1792 23.7552 13.5164L23.7782 13.2179L23.9289 13.4757C23.938 13.4914 24.155 13.8668 24.3036 14.4052C24.5019 15.1243 24.4789 15.7881 24.2365 16.3266C23.9932 16.8679 23.488 17.2949 22.7746 17.5612C22.4583 17.6793 22.1293 17.7591 21.7945 17.7992C21.7189 17.8562 21.4074 18.1069 20.9615 18.6869C20.419 19.3942 19.2853 19.5811 18.7618 19.5811ZM13.4919 13.8533C13.2781 14.3375 12.9327 15.3603 13.331 16.2479C13.8712 17.4503 15.6264 17.6116 15.6441 17.6131L15.6681 17.6151L15.6882 17.6287C15.7027 17.6384 16.0485 17.8755 16.583 18.5704C17.0431 19.169 18.1633 19.392 18.7613 19.392C19.3329 19.392 20.3515 19.1733 20.8149 18.5704C21.3494 17.8755 21.6951 17.6384 21.7096 17.6287L21.7296 17.6151L21.7536 17.6131C21.7713 17.6116 23.5274 17.4485 24.0669 16.2479C24.4657 15.3603 24.1205 14.3375 23.9059 13.8533C23.8657 14.1703 23.8068 14.4845 23.7296 14.7944C23.5056 15.6744 23.1797 16.1563 22.7628 16.2267C22.6627 16.2441 22.5612 16.2532 22.4596 16.2539C22.149 16.2539 21.9113 16.1509 21.7725 15.9554C21.5909 15.7006 21.5825 15.3002 21.7481 14.7977C21.7791 14.7037 21.8089 14.6117 21.8381 14.5217C22.1003 13.7116 22.3075 13.0718 22.8379 12.6067C23.6929 11.8571 23.9144 10.9767 23.4963 9.98997C23.1256 9.11501 22.3727 8.90458 21.9145 8.86197C22.0402 8.94923 22.1595 9.04554 22.2714 9.15015C22.7113 9.56246 22.9611 10.0505 22.9937 10.5612C23.01 10.818 22.9648 11.006 22.8595 11.12C22.7868 11.1984 22.6863 11.2399 22.5686 11.2399C22.1279 11.2399 21.4604 10.6583 21.2208 10.0655C20.9674 9.4394 21.053 8.5293 21.1235 8.0558C20.8016 8.42741 20.2406 9.21554 20.4488 10.0054C20.5708 10.4684 20.7657 10.7358 20.9376 10.9717C21.195 11.3245 21.4171 11.6294 21.324 12.3827C21.2167 13.2476 20.8024 13.6347 20.4388 13.6348C20.1956 13.6348 19.9702 13.47 19.8208 13.1826C19.6488 12.852 19.68 12.4918 19.9111 12.1411C19.9531 12.0776 19.9993 12.0171 20.0494 11.9599C19.8244 12.03 19.5339 12.165 19.3631 12.4174C19.2052 12.6507 19.1753 12.9493 19.2726 13.3053C19.4383 13.9089 19.7114 14.1713 19.9755 14.4249C20.2987 14.7353 20.6041 15.0286 20.6041 15.864C20.6041 17.2108 19.1591 17.3607 18.7828 17.377V17.3793H18.7008H18.6178V17.3769C18.2406 17.3615 16.7957 17.2123 16.7957 15.8648C16.7957 15.0294 17.101 14.7361 17.4241 14.4257C17.6884 14.1721 17.9614 13.9101 18.1272 13.3061C18.225 12.9498 18.1942 12.6508 18.0361 12.4176C17.8646 12.1652 17.5744 12.0295 17.3493 11.9602C17.3995 12.0175 17.4459 12.0782 17.488 12.1419C17.7192 12.4926 17.7504 12.8528 17.5784 13.1835C17.429 13.4708 17.2028 13.6357 16.9602 13.6357C16.5965 13.6357 16.1823 13.2484 16.075 12.3835C15.982 11.63 16.2041 11.3253 16.4613 10.9725C16.6332 10.7366 16.8283 10.4692 16.9502 10.0062C17.1593 9.21459 16.5982 8.42714 16.2764 8.0558C16.3469 8.5293 16.4326 9.43967 16.1793 10.0661C15.9396 10.6587 15.2719 11.2403 14.8312 11.2405C14.7136 11.2405 14.613 11.199 14.5403 11.1205C14.4348 11.0067 14.3896 10.8187 14.4062 10.5617C14.4388 10.0505 14.6879 9.56246 15.1284 9.15069C15.24 9.04638 15.3589 8.95034 15.4841 8.86333C15.026 8.90634 14.2729 9.11636 13.9015 9.99132C13.4835 10.9775 13.7049 11.8579 14.5596 12.6075C15.0902 13.0726 15.2973 13.7126 15.5596 14.5227C15.5889 14.6126 15.6188 14.7045 15.6495 14.7985C15.8151 15.3005 15.8067 15.7013 15.6251 15.9562C15.4863 16.151 15.2487 16.2547 14.938 16.2547C14.8364 16.254 14.735 16.2449 14.6349 16.2276C14.2174 16.1571 13.8921 15.6752 13.668 14.7953C13.5909 14.4851 13.5321 14.1705 13.4919 13.8533ZM21.2458 8.70812C21.2234 9.13359 21.2437 9.62487 21.3934 9.99458C21.6011 10.5082 22.205 11.0515 22.5684 11.0513C22.6354 11.0513 22.6856 11.0317 22.7231 10.9912C22.7902 10.918 22.82 10.7742 22.8074 10.5739C22.7359 9.45419 21.5437 8.85465 21.5316 8.84868L21.2458 8.70812ZM16.1532 8.70812L15.8674 8.84827C15.8555 8.85424 14.6632 9.45378 14.5918 10.5735C14.5791 10.7733 14.6082 10.9177 14.6761 10.9908C14.7136 11.0315 14.7642 11.0509 14.8307 11.0509C15.1942 11.0509 15.7981 10.5082 16.0058 9.99417C16.1557 9.62487 16.1755 9.13373 16.1532 8.70853V8.70812Z" fill="#6A0067"/>
<path d="M15.6797 8.72524C15.4194 8.81953 15.1599 8.9685 14.9323 9.12683C14.7197 9.27485 14.5232 9.45164 14.3789 9.66953C14.0986 10.0928 13.9842 10.6902 14.1473 11.1803C14.311 11.6725 14.8672 11.781 15.2996 11.5956C15.7769 11.3908 16.1405 10.9284 16.364 10.4688C16.6107 9.96391 16.692 9.39261 16.5959 8.83785C16.5929 8.8213 16.5838 8.83337 16.5854 8.8445C16.7195 9.77115 16.3193 10.8081 15.5273 11.3212C15.1642 11.5566 14.617 11.6604 14.305 11.2758C14.1395 11.0714 14.1278 10.7563 14.1563 10.5047C14.1859 10.2469 14.2713 9.99884 14.4065 9.7782C14.5503 9.54362 14.7472 9.35395 14.9713 9.19888C15.1993 9.04068 15.4532 8.92984 15.6864 8.781C15.6998 8.77245 15.6998 8.71819 15.6797 8.72524Z" fill="#6A0067"/>
<path d="M13.8869 11.4599C13.9855 12.0964 14.7073 12.3542 15.0607 12.8178C15.3191 13.1569 15.4471 13.5892 15.5793 13.9896C15.6525 14.211 15.721 14.4338 15.7849 14.658C15.8475 14.8773 15.9123 15.099 15.9347 15.3269C15.9595 15.5782 15.9213 15.8289 15.7683 16.0342C15.6394 16.2062 15.4695 16.3215 15.2519 16.3218C15.2333 16.3218 15.2328 16.3823 15.2519 16.3835C15.597 16.4061 15.8643 16.1202 15.9554 15.8062C16.08 15.3764 15.9263 14.9081 15.8064 14.496C15.6765 14.0502 15.5406 13.5957 15.3544 13.1701C15.2712 12.9802 15.1697 12.7956 15.0339 12.6388C14.9247 12.5128 14.7958 12.4069 14.6642 12.3059C14.3548 12.068 13.9975 11.8581 13.8988 11.4484C13.8945 11.4308 13.8854 11.451 13.8869 11.4599Z" fill="#6A0067"/>
<path d="M13.3801 14.5913C13.2263 15.1465 13.301 15.7758 13.5617 16.2863C13.8528 16.8562 14.3636 17.2453 14.9873 17.3675C15.3742 17.4404 15.7728 17.4179 16.1493 17.3018C16.1643 17.2972 16.1619 17.2405 16.1459 17.2432C15.5156 17.3472 14.8571 17.3077 14.3019 16.957C13.8284 16.6585 13.5152 16.1506 13.3964 15.6046C13.3246 15.2746 13.3284 14.9419 13.3952 14.6116C13.3976 14.5995 13.3873 14.5658 13.3801 14.5913Z" fill="#6A0067"/>
<path d="M15.8917 17.2998C15.9588 17.5526 16.1331 17.8029 16.2856 18.0106C16.4461 18.2309 16.635 18.4286 16.8472 18.5984C17.2822 18.9434 17.8665 19.189 18.4278 19.1204C18.4516 19.1176 18.452 19.0441 18.4278 19.0424C17.8622 19.0032 17.3414 18.826 16.8918 18.4703C16.6819 18.3019 16.4929 18.1083 16.3292 17.8937C16.2532 17.7955 16.1817 17.6937 16.1146 17.5884C16.049 17.4846 15.9922 17.3484 15.9087 17.2599C15.8913 17.2414 15.8892 17.2917 15.8913 17.2998H15.8917Z" fill="#6A0067"/>
<path d="M16.7132 15.1671C16.8033 14.956 16.9133 14.7753 17.0753 14.6123C17.2261 14.4612 17.3933 14.3284 17.5447 14.1782C17.8249 13.9021 18.1057 13.527 18.0513 13.1064C18.0462 13.0672 18.0233 13.0855 18.022 13.1155C18.0043 13.5767 17.6846 13.9106 17.3741 14.2136C17.1117 14.4696 16.7876 14.7671 16.6976 15.14C16.6955 15.1484 16.7031 15.1879 16.7124 15.1662L16.7132 15.1671Z" fill="#6A0067"/>
<path d="M17.6184 12.2518C17.7766 12.4902 17.8715 12.7523 17.7898 13.0398C17.7203 13.2848 17.5531 13.4666 17.3472 13.6043C17.3338 13.6136 17.3338 13.6722 17.3543 13.6638C17.872 13.4404 18.0329 12.6199 17.6275 12.2161C17.6141 12.2026 17.613 12.2433 17.6184 12.2518Z" fill="#6A0067"/>
<path d="M16.8351 9.31136C16.8913 9.73114 16.7936 10.1076 16.6054 10.4792C16.5996 10.4908 16.6078 10.5483 16.6217 10.5277C16.8566 10.1795 16.9208 9.70848 16.8547 9.29902C16.8496 9.26781 16.8323 9.2906 16.8351 9.31136Z" fill="#6A0067"/>
<path d="M21.7691 8.781C21.9733 8.91125 22.1954 9.00961 22.3995 9.14203C22.6087 9.2777 22.8009 9.43576 22.953 9.63642C23.2501 10.0283 23.4295 10.6391 23.2417 11.1181C23.0572 11.5882 22.4639 11.6065 22.0791 11.41C21.6656 11.1983 21.3292 10.8114 21.1242 10.395C20.8912 9.92161 20.7948 9.36888 20.8707 8.8445C20.8723 8.83351 20.8632 8.82116 20.8602 8.83785C20.7744 9.32771 20.8276 9.83212 21.0135 10.2927C21.2041 10.7675 21.5317 11.2288 21.9704 11.4987C22.3614 11.7391 22.9629 11.7931 23.2349 11.3423C23.3708 11.1176 23.3897 10.8217 23.3726 10.5651C23.3562 10.306 23.2862 10.0533 23.167 9.82338C23.0329 9.5656 22.8347 9.35938 22.6055 9.18653C22.3586 9.00025 22.0661 8.83039 21.7757 8.72524C21.7561 8.71819 21.7556 8.77245 21.769 8.781H21.7691Z" fill="#6A0067"/>
<path d="M23.5535 11.4488C23.4661 11.8118 23.178 12.0105 22.9001 12.2214C22.6028 12.4463 22.3475 12.6729 22.173 13.0118C21.965 13.416 21.8349 13.8709 21.703 14.3049C21.5734 14.7316 21.4056 15.1978 21.4657 15.651C21.5149 16.0232 21.7916 16.4108 22.2004 16.3837C22.2194 16.3825 22.2192 16.3221 22.2004 16.322C21.7877 16.3213 21.5247 15.9025 21.5106 15.52C21.502 15.2858 21.5584 15.0544 21.6193 14.8301C21.6786 14.612 21.7427 14.3953 21.8115 14.1798C21.9416 13.7701 22.0663 13.3299 22.2931 12.9619C22.4823 12.6547 22.7696 12.4631 23.0346 12.2311C23.2731 12.0223 23.5145 11.7895 23.5656 11.4601C23.5669 11.4513 23.5578 11.4305 23.5535 11.4486V11.4488Z" fill="#6A0067"/>
<path d="M24.0593 14.6116C24.1751 15.1837 24.0903 15.7866 23.7911 16.2905C23.4804 16.8142 22.9596 17.1535 22.3661 17.2558C22.0096 17.3173 21.6641 17.3018 21.3083 17.2432C21.2921 17.2405 21.2902 17.2975 21.3048 17.3018C21.9459 17.5006 22.7026 17.4326 23.2588 17.0365C23.7365 16.6959 24.0337 16.142 24.1229 15.564C24.1724 15.2434 24.1609 14.9045 24.0741 14.5913C24.067 14.5658 24.0567 14.5995 24.0591 14.6116H24.0593Z" fill="#6A0067"/>
<path d="M21.5462 17.2599C21.4665 17.3445 21.412 17.4747 21.3493 17.574C21.2802 17.6842 21.2059 17.7907 21.1261 17.8937C20.962 18.1082 20.7729 18.3018 20.5628 18.4703C20.1142 18.8266 19.5929 19.0029 19.0278 19.0424C19.0037 19.0441 19.0038 19.1176 19.0278 19.1204C19.5887 19.1883 20.1739 18.9441 20.6084 18.5984C20.8161 18.4322 21.0014 18.2393 21.1598 18.0246C21.3163 17.8134 21.4951 17.5578 21.5639 17.2998C21.566 17.2917 21.5639 17.2414 21.5464 17.2599H21.5462Z" fill="#6A0067"/>
<path d="M20.757 15.1402C20.667 14.7674 20.343 14.4698 20.0805 14.2138C19.77 13.9109 19.4501 13.5771 19.4326 13.1157C19.4314 13.0869 19.4086 13.066 19.4033 13.1066C19.3487 13.5272 19.6299 13.9018 19.9099 14.1784C20.0619 14.3277 20.229 14.4609 20.3793 14.6126C20.5417 14.7754 20.6516 14.9562 20.7414 15.1673C20.7507 15.1892 20.7582 15.1493 20.7562 15.1412L20.757 15.1402Z" fill="#6A0067"/>
<path d="M19.828 12.216C19.4226 12.6198 19.5835 13.4403 20.1012 13.6636C20.1212 13.6723 20.1225 13.6136 20.1083 13.6042C19.9022 13.4664 19.7355 13.2848 19.6657 13.0397C19.5839 12.7523 19.6791 12.4899 19.8371 12.2517C19.8425 12.2438 19.8414 12.2027 19.8281 12.216H19.828Z" fill="#6A0067"/>
<path d="M20.5988 9.29901C20.5326 9.70847 20.5969 10.1795 20.8317 10.5277C20.8459 10.5487 20.8536 10.4902 20.8481 10.4792C20.6603 10.1076 20.5623 9.73113 20.6183 9.31136C20.6211 9.29087 20.6038 9.26767 20.5988 9.29901Z" fill="#6A0067"/>
<path d="M11.8457 17.6288C11.9118 17.3644 12.1588 17.1426 12.1211 16.8726C12.0985 16.711 11.9781 16.5848 11.8931 16.4466C11.808 16.3083 11.7616 16.1102 11.8754 15.9946C11.6326 16.1439 11.5068 16.4634 11.5819 16.7408C11.3968 16.546 11.044 16.5571 10.8711 16.7632C11.1328 16.7275 11.4034 16.9325 11.4432 17.1966C11.4605 17.3104 11.4398 17.4263 11.4419 17.5414C11.4475 17.8341 11.6274 18.1623 11.901 18.2615C11.8762 18.0601 11.793 17.8398 11.8457 17.6288Z" fill="#F8F8F8"/>
<path d="M12.4767 16.8657C12.4195 17.0711 12.2609 17.2293 12.1548 17.4143C12.0487 17.5992 12.0103 17.8639 12.1697 18.0039L12.4282 17.6226C12.5606 17.4012 12.5215 17.1205 12.4767 16.8657Z" fill="#F8F8F8"/>
<path d="M25.9569 17.6288C25.8908 17.3644 25.644 17.1426 25.6816 16.8726C25.7041 16.711 25.8246 16.5848 25.9096 16.4466C25.9946 16.3083 26.0412 16.1102 25.9273 15.9946C26.1701 16.1439 26.296 16.4634 26.2208 16.7408C26.406 16.546 26.7588 16.5571 26.9316 16.7632C26.6701 16.7275 26.3994 16.9325 26.3594 17.1966C26.3423 17.3104 26.3631 17.4263 26.3608 17.5414C26.3551 17.8341 26.1754 18.1623 25.9018 18.2615C25.9265 18.0601 26.0098 17.8398 25.9569 17.6288Z" fill="#F8F8F8"/>
<path d="M25.3233 16.8657C25.3806 17.0711 25.5393 17.2293 25.6452 17.4143C25.7512 17.5992 25.7897 17.8639 25.6303 18.0039L25.3716 17.6226C25.2395 17.4012 25.2789 17.1205 25.3233 16.8657Z" fill="#F8F8F8"/>
</g>
<defs>
<filter id="filter0_dd_565_94238" x="-6" y="-2" width="50.1074" height="50.1069" filterUnits="userSpaceOnUse" color-interpolation-filters="sRGB">
<feFlood flood-opacity="0" result="BackgroundImageFix"/>
<feColorMatrix in="SourceAlpha" type="matrix" values="0 0 0 0 0 0 0 0 0 0 0 0 0 0 0 0 0 0 127 0" result="hardAlpha"/>
<feMorphology radius="2" operator="erode" in="SourceAlpha" result="effect1_dropShadow_565_94238"/>
<feOffset dy="2"/>
<feGaussianBlur stdDeviation="2"/>
<feColorMatrix type="matrix" values="0 0 0 0 0.0627451 0 0 0 0 0.0941176 0 0 0 0 0.156863 0 0 0 0.06 0"/>
<feBlend mode="normal" in2="BackgroundImageFix" result="effect1_dropShadow_565_94238"/>
<feColorMatrix in="SourceAlpha" type="matrix" values="0 0 0 0 0 0 0 0 0 0 0 0 0 0 0 0 0 0 127 0" result="hardAlpha"/>
<feMorphology radius="2" operator="erode" in="SourceAlpha" result="effect2_dropShadow_565_94238"/>
<feOffset dy="4"/>
<feGaussianBlur stdDeviation="4"/>
<feColorMatrix type="matrix" values="0 0 0 0 0.0627451 0 0 0 0 0.0941176 0 0 0 0 0.156863 0 0 0 0.1 0"/>
<feBlend mode="normal" in2="effect1_dropShadow_565_94238" result="effect2_dropShadow_565_94238"/>
<feBlend mode="normal" in="SourceGraphic" in2="effect2_dropShadow_565_94238" result="shape"/>
</filter>
<clipPath id="clip0_565_94238">
<rect width="38.1068" height="38.1068" fill="white"/>
</clipPath>
</defs>
</svg>
