<svg width="105" height="105" viewBox="0 0 105 105" fill="none" xmlns="http://www.w3.org/2000/svg">
<g clip-path="url(#clip0_565_64699)">
<path d="M31.7188 30.625H73.2812V21.875C73.2812 13.125 70 8.75 60.1562 8.75H44.8438C35 8.75 31.7188 13.125 31.7188 21.875V30.625Z" stroke="url(#paint0_linear_565_64699)" stroke-width="4" stroke-miterlimit="10" stroke-linecap="round" stroke-linejoin="round"/>
<path d="M70 65.625V83.125C70 91.875 65.625 96.25 56.875 96.25H48.125C39.375 96.25 35 91.875 35 83.125V65.625H70Z" stroke="url(#paint1_linear_565_64699)" stroke-width="4" stroke-miterlimit="10" stroke-linecap="round" stroke-linejoin="round"/>
<path d="M91.875 43.75V65.625C91.875 74.375 87.5 78.75 78.75 78.75H70V65.625H35V78.75H26.25C17.5 78.75 13.125 74.375 13.125 65.625V43.75C13.125 35 17.5 30.625 26.25 30.625H78.75C87.5 30.625 91.875 35 91.875 43.75Z" stroke="url(#paint2_linear_565_64699)" stroke-width="4" stroke-miterlimit="10" stroke-linecap="round" stroke-linejoin="round"/>
<path d="M74.375 65.625H69.0812H30.625" stroke="url(#paint3_linear_565_64699)" stroke-width="6.5625" stroke-miterlimit="10" stroke-linecap="round" stroke-linejoin="round"/>
<path d="M30.625 48.125H43.75" stroke="url(#paint4_linear_565_64699)" stroke-width="4" stroke-miterlimit="10" stroke-linecap="round" stroke-linejoin="round"/>
</g>
<defs>
<linearGradient id="paint0_linear_565_64699" x1="52.5" y1="8.75" x2="52.5" y2="30.625" gradientUnits="userSpaceOnUse">
<stop stop-color="#9227C6"/>
<stop offset="1" stop-color="#53007B"/>
</linearGradient>
<linearGradient id="paint1_linear_565_64699" x1="52.5" y1="65.625" x2="52.5" y2="96.25" gradientUnits="userSpaceOnUse">
<stop stop-color="#9227C6"/>
<stop offset="1" stop-color="#53007B"/>
</linearGradient>
<linearGradient id="paint2_linear_565_64699" x1="52.5" y1="30.625" x2="52.5" y2="78.75" gradientUnits="userSpaceOnUse">
<stop stop-color="#9227C6"/>
<stop offset="1" stop-color="#53007B"/>
</linearGradient>
<linearGradient id="paint3_linear_565_64699" x1="52.5" y1="65.625" x2="52.5" y2="66.625" gradientUnits="userSpaceOnUse">
<stop stop-color="#9227C6"/>
<stop offset="1" stop-color="#53007B"/>
</linearGradient>
<linearGradient id="paint4_linear_565_64699" x1="37.1875" y1="48.125" x2="37.1875" y2="49.125" gradientUnits="userSpaceOnUse">
<stop stop-color="#9227C6"/>
<stop offset="1" stop-color="#53007B"/>
</linearGradient>
<clipPath id="clip0_565_64699">
<rect width="105" height="105" fill="white"/>
</clipPath>
</defs>
</svg>
