<svg width="39" height="39" viewBox="0 0 39 39" fill="none" xmlns="http://www.w3.org/2000/svg">
<g clip-path="url(#clip0_565_85507)">
<g filter="url(#filter0_dd_565_85507)">
<path d="M0.105469 3.46426L3.56972 0H19.1589H34.748L38.2123 3.46426V19.0534V34.6426L34.748 38.1068H19.1589H3.56972L0.105469 34.6426V19.0534V3.46426Z" fill="#F8F8F8"/>
<path d="M0.538501 19.0534V3.64362L3.74909 0.433032H19.1589H34.5687L37.7792 3.64362V19.0534V34.4632L34.5687 37.6738H19.1589H3.74909L0.538501 34.4632V19.0534Z" stroke="#D0D5DD" stroke-width="0.866064"/>
</g>
<path d="M13.0215 13.1617C13.0215 11.7878 13.0215 11.1008 13.2889 10.576C13.5241 10.1144 13.8994 9.73915 14.3609 9.50395C14.8857 9.23657 15.5727 9.23657 16.9466 9.23657H21.3623C22.7362 9.23657 23.4232 9.23657 23.948 9.50395C24.4096 9.73915 24.7849 10.1144 25.0201 10.576C25.2874 11.1008 25.2874 11.7878 25.2874 13.1617V28.8621L21.7622 25.7285C20.8395 24.9083 20.3781 24.4983 19.8575 24.3425C19.3988 24.2053 18.9101 24.2053 18.4514 24.3425C17.9308 24.4983 17.4695 24.9083 16.5468 25.7285L13.0215 28.8621V13.1617Z" stroke="#6A0067" stroke-width="1.85564" stroke-linecap="round" stroke-linejoin="round"/>
</g>
<defs>
<filter id="filter0_dd_565_85507" x="-5.89453" y="-2" width="50.1074" height="50.1067" filterUnits="userSpaceOnUse" color-interpolation-filters="sRGB">
<feFlood flood-opacity="0" result="BackgroundImageFix"/>
<feColorMatrix in="SourceAlpha" type="matrix" values="0 0 0 0 0 0 0 0 0 0 0 0 0 0 0 0 0 0 127 0" result="hardAlpha"/>
<feMorphology radius="2" operator="erode" in="SourceAlpha" result="effect1_dropShadow_565_85507"/>
<feOffset dy="2"/>
<feGaussianBlur stdDeviation="2"/>
<feColorMatrix type="matrix" values="0 0 0 0 0.0627451 0 0 0 0 0.0941176 0 0 0 0 0.156863 0 0 0 0.06 0"/>
<feBlend mode="normal" in2="BackgroundImageFix" result="effect1_dropShadow_565_85507"/>
<feColorMatrix in="SourceAlpha" type="matrix" values="0 0 0 0 0 0 0 0 0 0 0 0 0 0 0 0 0 0 127 0" result="hardAlpha"/>
<feMorphology radius="2" operator="erode" in="SourceAlpha" result="effect2_dropShadow_565_85507"/>
<feOffset dy="4"/>
<feGaussianBlur stdDeviation="4"/>
<feColorMatrix type="matrix" values="0 0 0 0 0.0627451 0 0 0 0 0.0941176 0 0 0 0 0.156863 0 0 0 0.1 0"/>
<feBlend mode="normal" in2="effect1_dropShadow_565_85507" result="effect2_dropShadow_565_85507"/>
<feBlend mode="normal" in="SourceGraphic" in2="effect2_dropShadow_565_85507" result="shape"/>
</filter>
<clipPath id="clip0_565_85507">
<rect width="38.1068" height="38.1068" fill="white" transform="translate(0.105469)"/>
</clipPath>
</defs>
</svg>
