<svg width="39" height="39" viewBox="0 0 39 39" fill="none" xmlns="http://www.w3.org/2000/svg">
<g clip-path="url(#clip0_565_85510)">
<g filter="url(#filter0_dd_565_85510)">
<path d="M0.425781 3.46401L3.89004 -0.000244141H19.4792H35.0683L38.5326 3.46401V19.0532V34.6423L35.0683 38.1066H19.4792H3.89004L0.425781 34.6423V19.0532V3.46401Z" fill="#F8F8F8"/>
<path d="M0.858813 19.0532V3.64338L4.0694 0.432788H19.4792H34.889L38.0996 3.64338V19.0532V34.4629L34.889 37.6735H19.4792H4.0694L0.858813 34.4629V19.0532Z" stroke="#D0D5DD" stroke-width="0.866064"/>
</g>
<path d="M17.0234 17.8228V25.1823" stroke="#6A0067" stroke-width="1.85564" stroke-linecap="round" stroke-linejoin="round"/>
<path d="M21.9297 17.8228V25.1823" stroke="#6A0067" stroke-width="1.85564" stroke-linecap="round" stroke-linejoin="round"/>
<path d="M9.66406 12.916H29.2896" stroke="#6A0067" stroke-width="2.45319" stroke-linecap="round" stroke-linejoin="round"/>
<path d="M12.1152 12.916H19.4748H26.8344V26.4086C26.8344 28.4408 25.1869 30.0883 23.1546 30.0883H15.795C13.7627 30.0883 12.1152 28.4409 12.1152 26.4086V12.916Z" stroke="#6A0067" stroke-width="1.85564" stroke-linecap="round" stroke-linejoin="round"/>
<path d="M15.7949 10.4632C15.7949 9.10834 16.8933 8.01001 18.2481 8.01001H20.7013C22.0562 8.01001 23.1545 9.10834 23.1545 10.4632V12.9164H15.7949V10.4632Z" stroke="#6A0067" stroke-width="1.85564" stroke-linecap="round" stroke-linejoin="round"/>
</g>
<defs>
<filter id="filter0_dd_565_85510" x="-5.57422" y="-2.00024" width="50.1074" height="50.1067" filterUnits="userSpaceOnUse" color-interpolation-filters="sRGB">
<feFlood flood-opacity="0" result="BackgroundImageFix"/>
<feColorMatrix in="SourceAlpha" type="matrix" values="0 0 0 0 0 0 0 0 0 0 0 0 0 0 0 0 0 0 127 0" result="hardAlpha"/>
<feMorphology radius="2" operator="erode" in="SourceAlpha" result="effect1_dropShadow_565_85510"/>
<feOffset dy="2"/>
<feGaussianBlur stdDeviation="2"/>
<feColorMatrix type="matrix" values="0 0 0 0 0.0627451 0 0 0 0 0.0941176 0 0 0 0 0.156863 0 0 0 0.06 0"/>
<feBlend mode="normal" in2="BackgroundImageFix" result="effect1_dropShadow_565_85510"/>
<feColorMatrix in="SourceAlpha" type="matrix" values="0 0 0 0 0 0 0 0 0 0 0 0 0 0 0 0 0 0 127 0" result="hardAlpha"/>
<feMorphology radius="2" operator="erode" in="SourceAlpha" result="effect2_dropShadow_565_85510"/>
<feOffset dy="4"/>
<feGaussianBlur stdDeviation="4"/>
<feColorMatrix type="matrix" values="0 0 0 0 0.0627451 0 0 0 0 0.0941176 0 0 0 0 0.156863 0 0 0 0.1 0"/>
<feBlend mode="normal" in2="effect1_dropShadow_565_85510" result="effect2_dropShadow_565_85510"/>
<feBlend mode="normal" in="SourceGraphic" in2="effect2_dropShadow_565_85510" result="shape"/>
</filter>
<clipPath id="clip0_565_85510">
<rect width="38.1068" height="38.1068" fill="white" transform="translate(0.425781)"/>
</clipPath>
</defs>
</svg>
