<svg width="39" height="39" viewBox="0 0 39 39" fill="none" xmlns="http://www.w3.org/2000/svg">
<g clip-path="url(#clip0_937_80782)">
<g filter="url(#filter0_dd_937_80782)">
<path d="M0 3.81435L3.46426 0.350098H19.0534H34.6426L38.1068 3.81435V19.4035V34.9927L34.6426 38.4569H19.0534H3.46426L0 34.9927V19.4035V3.81435Z" fill="#F8F8F8"/>
<path d="M0.433032 19.4035V3.99372L3.64362 0.78313H19.0534H34.4632L37.6738 3.99372V19.4035V34.8133L34.4632 38.0239H19.0534H3.64362L0.433032 34.8133V19.4035Z" stroke="#D0D5DD" stroke-width="0.866064"/>
</g>
<path d="M8.00977 27.9858V26.7592C8.00977 24.0495 10.2064 21.8528 12.9161 21.8528H17.8225C20.5322 21.8528 22.7289 24.0495 22.7289 26.7592V27.9858M22.7289 18.173C24.7612 18.173 26.4087 16.5256 26.4087 14.4933C26.4087 12.461 24.7612 10.8135 22.7289 10.8135M30.0885 27.9858V26.7592C30.0885 24.0495 27.8918 21.8528 25.1821 21.8528H24.5688M19.0491 14.4933C19.0491 16.5256 17.4016 18.173 15.3693 18.173C13.337 18.173 11.6896 16.5256 11.6896 14.4933C11.6896 12.461 13.337 10.8135 15.3693 10.8135C17.4016 10.8135 19.0491 12.461 19.0491 14.4933Z" stroke="#6A0067" stroke-width="1.85564" stroke-linecap="round" stroke-linejoin="round"/>
</g>
<defs>
<filter id="filter0_dd_937_80782" x="-6" y="-1.6499" width="50.1074" height="50.1069" filterUnits="userSpaceOnUse" color-interpolation-filters="sRGB">
<feFlood flood-opacity="0" result="BackgroundImageFix"/>
<feColorMatrix in="SourceAlpha" type="matrix" values="0 0 0 0 0 0 0 0 0 0 0 0 0 0 0 0 0 0 127 0" result="hardAlpha"/>
<feMorphology radius="2" operator="erode" in="SourceAlpha" result="effect1_dropShadow_937_80782"/>
<feOffset dy="2"/>
<feGaussianBlur stdDeviation="2"/>
<feColorMatrix type="matrix" values="0 0 0 0 0.0627451 0 0 0 0 0.0941176 0 0 0 0 0.156863 0 0 0 0.06 0"/>
<feBlend mode="normal" in2="BackgroundImageFix" result="effect1_dropShadow_937_80782"/>
<feColorMatrix in="SourceAlpha" type="matrix" values="0 0 0 0 0 0 0 0 0 0 0 0 0 0 0 0 0 0 127 0" result="hardAlpha"/>
<feMorphology radius="2" operator="erode" in="SourceAlpha" result="effect2_dropShadow_937_80782"/>
<feOffset dy="4"/>
<feGaussianBlur stdDeviation="4"/>
<feColorMatrix type="matrix" values="0 0 0 0 0.0627451 0 0 0 0 0.0941176 0 0 0 0 0.156863 0 0 0 0.1 0"/>
<feBlend mode="normal" in2="effect1_dropShadow_937_80782" result="effect2_dropShadow_937_80782"/>
<feBlend mode="normal" in="SourceGraphic" in2="effect2_dropShadow_937_80782" result="shape"/>
</filter>
<clipPath id="clip0_937_80782">
<rect width="38.1068" height="38.1068" fill="white" transform="translate(0 0.350098)"/>
</clipPath>
</defs>
</svg>
