<svg width="39" height="39" viewBox="0 0 39 39" fill="none" xmlns="http://www.w3.org/2000/svg">
<g clip-path="url(#clip0_937_80753)">
<g filter="url(#filter0_dd_937_80753)">
<path d="M0 3.46426L3.46426 0H19.0534H34.6426L38.1068 3.46426V19.0534V34.6426L34.6426 38.1068H19.0534H3.46426L0 34.6426V19.0534V3.46426Z" fill="#F8F8F8"/>
<path d="M37.6738 19.0534V34.4632L34.4632 37.6738H19.0534H3.64362L0.433032 34.4632V19.0534V3.64362L3.64362 0.433032H19.0534H34.4632L37.6738 3.64362V19.0534Z" stroke="#D0D5DD" stroke-width="0.866064"/>
</g>
<path d="M8.00977 27.6357V26.4091C8.00977 23.6994 10.2064 21.5027 12.9161 21.5027H17.8225C20.5322 21.5027 22.7289 23.6994 22.7289 26.4091V27.6357M22.7289 17.8229C24.7612 17.8229 26.4087 16.1755 26.4087 14.1432C26.4087 12.1109 24.7612 10.4634 22.7289 10.4634M30.0885 27.6357V26.4091C30.0885 23.6994 27.8918 21.5027 25.1821 21.5027H24.5688M19.0491 14.1432C19.0491 16.1755 17.4016 17.8229 15.3693 17.8229C13.337 17.8229 11.6896 16.1755 11.6896 14.1432C11.6896 12.1109 13.337 10.4634 15.3693 10.4634C17.4016 10.4634 19.0491 12.1109 19.0491 14.1432Z" stroke="#6A0067" stroke-width="1.85564" stroke-linecap="round" stroke-linejoin="round"/>
</g>
<defs>
<filter id="filter0_dd_937_80753" x="-6" y="-2" width="50.1074" height="50.1069" filterUnits="userSpaceOnUse" color-interpolation-filters="sRGB">
<feFlood flood-opacity="0" result="BackgroundImageFix"/>
<feColorMatrix in="SourceAlpha" type="matrix" values="0 0 0 0 0 0 0 0 0 0 0 0 0 0 0 0 0 0 127 0" result="hardAlpha"/>
<feMorphology radius="2" operator="erode" in="SourceAlpha" result="effect1_dropShadow_937_80753"/>
<feOffset dy="2"/>
<feGaussianBlur stdDeviation="2"/>
<feColorMatrix type="matrix" values="0 0 0 0 0.0627451 0 0 0 0 0.0941176 0 0 0 0 0.156863 0 0 0 0.06 0"/>
<feBlend mode="normal" in2="BackgroundImageFix" result="effect1_dropShadow_937_80753"/>
<feColorMatrix in="SourceAlpha" type="matrix" values="0 0 0 0 0 0 0 0 0 0 0 0 0 0 0 0 0 0 127 0" result="hardAlpha"/>
<feMorphology radius="2" operator="erode" in="SourceAlpha" result="effect2_dropShadow_937_80753"/>
<feOffset dy="4"/>
<feGaussianBlur stdDeviation="4"/>
<feColorMatrix type="matrix" values="0 0 0 0 0.0627451 0 0 0 0 0.0941176 0 0 0 0 0.156863 0 0 0 0.1 0"/>
<feBlend mode="normal" in2="effect1_dropShadow_937_80753" result="effect2_dropShadow_937_80753"/>
<feBlend mode="normal" in="SourceGraphic" in2="effect2_dropShadow_937_80753" result="shape"/>
</filter>
<clipPath id="clip0_937_80753">
<rect width="38.1068" height="38.1068" fill="white"/>
</clipPath>
</defs>
</svg>
