<svg width="63" height="63" viewBox="0 0 63 63" fill="none" xmlns="http://www.w3.org/2000/svg">
<path d="M0.5 31.0554V5.85355L5.85355 0.5H31.0554H56.2573L61.6108 5.85355V31.0554V56.2573L56.2573 61.6108H31.0554H5.85355L0.5 56.2573V31.0554Z" fill="#F8F8F8" stroke="#D0D5DD"/>
<path d="M37.5762 41.3214C34.7739 40.8899 31.7433 41.3763 31.3968 41.4348C31.0507 41.3763 28.0195 40.8899 25.2172 41.3214C22.2404 41.7796 20.752 43.2188 20.752 43.2188C20.752 43.2188 21.2696 45.8375 22.6276 47.016C22.6276 47.016 27.8369 45.7146 31.3956 45.7068C34.9541 45.7146 40.1637 47.016 40.1637 47.016C41.5226 45.8375 42.0393 43.2188 42.0393 43.2188C42.0393 43.2188 40.553 41.7796 37.5762 41.3214Z" fill="#6A0067"/>
<path d="M40.1944 47.1574L40.1324 47.1421C40.0805 47.1292 34.8963 45.8442 31.3946 45.8364C27.8926 45.8442 22.7087 47.1292 22.6567 47.1421L22.5947 47.1574L22.5463 47.1155C21.1706 45.9227 20.6502 43.3565 20.6287 43.2478L20.6152 43.1802L20.6644 43.1325C20.7264 43.0728 22.2155 41.6597 25.1969 41.2009C25.965 41.0826 26.8191 41.0227 27.7359 41.0227C29.5555 41.0227 31.0613 41.2555 31.3957 41.311C31.7299 41.2555 33.2359 41.0227 35.0555 41.0227C35.9705 41.0227 36.8258 41.0826 37.5946 41.2009C40.5759 41.6597 42.065 43.0728 42.127 43.1325L42.1762 43.1802L42.1629 43.2478C42.1414 43.3565 41.6208 45.9227 40.2452 47.1155L40.1944 47.1574ZM20.8858 43.2681C20.9773 43.6823 21.5034 45.8366 22.6592 46.8832C23.2647 46.7358 28.0719 45.5932 31.3937 45.5858C34.7161 45.5932 39.5233 46.7358 40.1288 46.8832C41.2846 45.8357 41.81 43.6823 41.9024 43.2681C41.619 43.0219 40.156 41.8492 37.5548 41.4487C36.7999 41.333 35.9575 41.2733 35.0537 41.2733C33.2137 41.2733 31.6995 41.5137 31.4145 41.5618L31.3941 41.5653L31.3735 41.5618C31.0887 41.5137 29.5745 41.2733 27.7343 41.2733C26.8308 41.2733 25.9892 41.3323 25.2333 41.4487C22.6323 41.8492 21.1692 43.0217 20.8858 43.2681Z" fill="#F8F8F8"/>
<path d="M44.9538 39.1427C44.9538 39.1427 42.6236 38.4658 39.5814 37.6539C36.7843 36.9069 32.1263 37.0754 31.3959 37.1078C30.6653 37.0759 26.0073 36.9069 23.2103 37.6539C20.168 38.4658 17.839 39.1427 17.839 39.1427C17.839 39.1427 17.7095 41.9848 19.1332 43.8122C19.1332 43.8122 22.9513 42.0536 25.7989 41.7819C28.4653 41.5274 31.075 41.4529 31.3959 41.4443C31.7162 41.4529 34.3263 41.5283 36.9929 41.7819C39.8403 42.0526 43.6584 43.8122 43.6584 43.8122C45.083 41.9848 44.9538 39.1427 44.9538 39.1427Z" fill="#6A0067"/>
<path d="M43.6995 43.9639L43.6109 43.9232C43.573 43.9056 39.7786 42.1692 36.985 41.9036C34.3253 41.6509 31.7064 41.575 31.3997 41.5667C31.0927 41.575 28.4741 41.6507 25.8141 41.9036C23.0205 42.1692 19.2264 43.9056 19.1884 43.9232L19.0999 43.9639L19.0395 43.8866C17.6037 42.0438 17.7128 39.2518 17.719 39.1338L17.7229 39.0438L17.8084 39.019C17.8313 39.0123 20.1743 38.3327 23.1824 37.5296C25.0053 37.0436 27.601 36.9407 29.4577 36.9407C30.4072 36.9407 31.1275 36.9675 31.3997 36.9793C31.671 36.9675 32.3919 36.9407 33.3414 36.9407C35.1981 36.9407 37.7939 37.0429 39.6167 37.5296C42.6248 38.3327 44.9674 39.0123 44.9907 39.019L45.0762 39.0438L45.0804 39.1338C45.0856 39.2518 45.1947 42.0438 43.7596 43.8866L43.6995 43.9639ZM17.9644 39.2347C17.9585 39.7206 17.9946 42.0651 19.1756 43.6543C19.7719 43.3882 23.198 41.9006 25.791 41.6539C28.4686 41.3994 31.1046 41.3237 31.3951 41.3158H31.4017C31.6934 41.3237 34.3296 41.3994 37.007 41.6539C39.6 41.9006 43.026 43.3894 43.6224 43.6543C44.8033 42.0651 44.8395 39.7206 44.8347 39.2347C44.3825 39.1042 42.2321 38.4871 39.5536 37.7721C37.7563 37.2922 35.1835 37.1915 33.3414 37.1915C32.3906 37.1915 31.6716 37.2186 31.4049 37.2301H31.3953C31.13 37.2186 30.4099 37.1915 29.4588 37.1915C27.6168 37.1915 25.0442 37.2922 23.2467 37.7721C20.5668 38.4873 18.4167 39.1033 17.9644 39.2347Z" fill="#F8F8F8"/>
<path d="M45.4069 35.8855L44.5656 33.9217L42.5596 33.2671L31.3971 35.6042L20.2346 33.2671L18.2284 33.9217L17.3871 35.8855L16.8047 39.6824C16.8047 39.6824 20.4933 38.3077 24.2467 37.7186C27.0005 37.2864 30.4506 37.3091 31.2992 37.3222V37.3259L31.3971 37.3239L31.4948 37.3259V37.3222C32.3434 37.3091 35.7935 37.2864 38.5473 37.7186C42.3007 38.3077 45.9893 39.6824 45.9893 39.6824L45.4069 35.8855Z" fill="#6A0067"/>
<path d="M46.1437 39.8752L45.9461 39.8016C45.9092 39.788 42.2252 38.4244 38.5278 37.844C36.3091 37.4956 33.6328 37.4435 32.2375 37.4435C31.9838 37.4435 31.7738 37.4454 31.6199 37.4472V37.4558L31.4929 37.4525L31.3983 37.4507L31.3033 37.4525L31.1764 37.4558V37.4472C31.0217 37.4454 30.8104 37.4435 30.5588 37.4435C29.1616 37.4435 26.4872 37.4956 24.2684 37.844C20.5709 38.4244 16.8868 39.7877 16.85 39.8016L16.6523 39.8752L17.2699 35.852L17.2763 35.8372L18.1398 33.8211L20.2307 33.1389L20.2625 33.1456L31.4001 35.4767L42.5694 33.1396L44.6601 33.8218L45.5293 35.8527L45.5318 35.8684L46.1437 39.8752ZM32.2364 37.1929C33.6404 37.1929 36.3296 37.2452 38.5653 37.5962C41.7977 38.1037 45.0176 39.2049 45.834 39.495L45.285 35.9221L44.4723 34.0247L42.5509 33.3976L31.3955 35.7326L31.3703 35.7273L20.2399 33.3976L18.3185 34.0247L17.5058 35.9221L16.9589 39.496C17.7752 39.2058 20.9954 38.1046 24.2275 37.5972C26.4632 37.2461 29.1525 37.1938 30.5567 37.1938C30.8863 37.1938 31.1434 37.1966 31.3008 37.1992L31.3969 37.2005L31.4927 37.1992C31.6501 37.1957 31.907 37.1929 32.2368 37.1929H32.2364Z" fill="#F8F8F8"/>
<path d="M22.8861 34.3606L23.4394 37.0197C23.4394 37.0197 24.9948 38.8042 27.1402 38.9442C29.2855 39.0842 35.6141 39.2939 36.9284 38.7691C38.2427 38.2443 39.2803 36.46 39.2803 36.46L39.6262 33.6602L22.8516 33.7296L22.8861 34.3606Z" fill="#6A0067"/>
<path d="M29.5548 36.4074C29.2958 37.2585 29.2958 37.7166 28.584 37.9786C28.0506 38.1748 27.5547 38.4078 27.0928 38.3745C27.0927 38.3733 27.0927 38.372 27.0928 38.3708L27.0912 38.3745C26.9333 38.3641 26.7797 38.3183 26.6415 38.2403C26.0589 37.9131 25.1531 37.3894 24.7 37.3894C24.2469 37.3894 23.9882 35.8181 23.6 35.6873C23.2118 35.5566 22.8234 35.949 22.8879 36.4074C22.9348 36.7383 23.3868 38.7771 23.6341 39.8839C23.6147 39.9189 23.5973 39.9551 23.5819 39.9921L23.6547 39.9766C23.7384 40.3503 23.794 40.597 23.794 40.597C23.794 40.597 24.0405 41.8745 24.5545 43.0322C24.5618 43.0718 24.5692 43.1109 24.5774 43.15L24.6003 43.1321C24.8231 43.6158 25.093 44.0711 25.4123 44.3942C25.4675 44.4498 25.5188 44.5046 25.5662 44.5584C25.5585 44.6124 25.5504 44.6667 25.5418 44.7204C25.2828 46.3571 26.2536 48.7793 26.2536 48.7793C26.2536 48.7793 26.2536 47.5355 26.1889 46.3571C26.1797 46.1907 26.1953 45.985 26.2261 45.7527C26.3593 46.1886 26.4277 46.5676 26.8362 46.9464C27.3202 47.3953 27.578 47.5388 27.7036 47.5834C27.776 47.609 27.8361 47.6613 27.8719 47.7299C28.1764 48.3128 29.523 50.6686 31.3625 50.6149C33.4614 50.6758 34.9182 47.601 34.9182 47.601C34.9182 47.601 35.1124 47.6665 35.889 46.9464C36.2644 46.5993 36.3524 46.2499 36.4677 45.8575C36.4895 46.023 36.4976 46.1901 36.492 46.3571C36.4272 47.5355 36.4272 48.7793 36.4272 48.7793C36.4272 48.7793 37.398 46.3571 37.1391 44.7204C37.1327 44.6804 37.1267 44.6406 37.121 44.6008C37.1791 44.5332 37.2427 44.464 37.3127 44.3925C38.4129 43.2795 38.9306 40.5954 38.9306 40.5954C38.9306 40.5954 38.9852 40.3529 39.0678 39.9838L39.0984 39.9905C39.0916 39.9741 39.0845 39.9581 39.0772 39.9424C39.3212 38.8512 39.789 36.7429 39.8366 36.4058C39.9013 35.9474 39.5129 35.5547 39.1248 35.6857C38.7366 35.8167 38.4776 37.3878 38.0245 37.3878C37.5714 37.3878 36.6656 37.9115 36.0832 38.2387C35.932 38.3235 35.7629 38.3703 35.59 38.3749L35.5875 38.3692C35.5882 38.3711 35.5889 38.373 35.5894 38.3749C35.141 38.3914 34.6584 38.1667 34.1417 37.9769C33.4298 37.715 33.4298 37.2569 33.1709 36.4058L29.5548 36.4074Z" fill="#F8F8F8"/>
<path d="M36.6252 41.1204C36.6252 41.1204 35.3692 40.924 34.9728 41.6441L34.8406 43.0843C34.8406 43.0843 33.3204 43.5426 33.1221 43.2807C33.1221 43.2807 31.9326 43.6741 31.3379 43.4117V44.7864L32.6598 44.7209L33.7836 44.4592L34.7749 44.3282L34.9732 45.115C34.9732 45.115 35.9646 44.5256 36.4934 45.4421C36.4934 45.4421 35.9646 43.6093 35.9646 42.6273C35.9646 41.6452 36.6252 41.1204 36.6252 41.1204Z" fill="#6A0067"/>
<path d="M31.4308 50.7465C31.41 50.7465 31.3889 50.7465 31.3679 50.7465H31.3549C29.6164 50.7465 28.3936 48.6668 27.9924 47.9832C27.9547 47.9194 27.9162 47.8539 27.8906 47.8136C27.7746 47.7872 27.4228 47.6597 26.7597 47.0449C26.3766 46.6895 26.2723 46.3322 26.162 45.9539C26.0348 45.517 25.9031 45.0656 25.3322 44.488C24.2241 43.3672 23.7081 40.7661 23.6807 40.6284C23.6399 40.4496 22.8368 36.8861 22.7723 36.4293C22.7555 36.3143 22.7633 36.1969 22.7952 36.0851C22.827 35.9733 22.8823 35.8698 22.9572 35.7814C23.018 35.7078 23.0938 35.6481 23.1794 35.6066C23.265 35.5651 23.3584 35.5427 23.4533 35.5408C23.5189 35.5408 23.584 35.5516 23.6461 35.5727C23.879 35.6512 24.0318 36.0214 24.2086 36.4502C24.3429 36.776 24.546 37.2684 24.707 37.2684C25.1695 37.2684 26.0069 37.7399 26.6186 38.0845L26.7087 38.1352C26.8556 38.2173 27.0212 38.2591 27.1891 38.2566C27.5237 38.2566 27.8917 38.1153 28.2815 37.9658C28.3694 37.932 28.4581 37.898 28.5478 37.8651C29.0826 37.6684 29.1654 37.3672 29.3305 36.7672C29.3628 36.6496 29.3991 36.5166 29.4424 36.3738C29.6711 35.625 30.8249 35.3464 31.3107 35.2613L31.3318 35.2576L31.353 35.2613C31.986 35.3721 33.0802 35.6641 33.2973 36.3738C33.3405 36.5156 33.3771 36.6487 33.4094 36.7672C33.5743 37.3672 33.6571 37.6696 34.1919 37.8651C34.2818 37.898 34.3706 37.9322 34.4584 37.9658C34.8473 38.1155 35.2162 38.2566 35.5509 38.2566C35.7187 38.2592 35.8843 38.2173 36.0312 38.1352L36.1213 38.0845C36.733 37.7399 37.5704 37.2684 38.0329 37.2684C38.193 37.2684 38.3971 36.776 38.5316 36.4502C38.7084 36.0214 38.8609 35.6512 39.094 35.5727C39.1561 35.5516 39.2211 35.5408 39.2866 35.5408C39.3816 35.5426 39.475 35.5651 39.5606 35.6066C39.6463 35.6481 39.7221 35.7077 39.783 35.7814C39.8579 35.8697 39.9131 35.9733 39.945 36.0851C39.9768 36.1969 39.9845 36.3143 39.9676 36.4293C39.9033 36.8859 39.1002 40.45 39.0602 40.6275C39.0336 40.7663 38.5167 43.3663 37.4087 44.4871C36.838 45.0656 36.7062 45.5161 36.5788 45.953C36.4686 46.3313 36.3645 46.6886 35.9811 47.044C35.6069 47.3911 35.3111 47.61 35.1021 47.6951C35.0392 47.7198 34.9869 47.7661 34.9543 47.8259C34.5897 48.511 33.2635 50.7465 31.4308 50.7465ZM31.3713 50.4948H31.3736C31.3928 50.4948 31.4123 50.4948 31.4315 50.4948C33.1267 50.4948 34.3884 48.3606 34.7349 47.7065C34.7952 47.5948 34.8924 47.508 35.0094 47.4614C35.1114 47.42 35.3525 47.2865 35.8134 46.8582C36.1458 46.55 36.2362 46.2399 36.3409 45.8813C36.4706 45.4361 36.6177 44.9326 37.233 44.3078C38.2941 43.2344 38.8113 40.6018 38.8168 40.5754V40.5715C38.8253 40.5342 39.6576 36.8398 39.721 36.3919C39.7328 36.3123 39.7276 36.2312 39.7058 36.1538C39.6839 36.0765 39.6459 36.0048 39.5943 35.9436C39.4815 35.8122 39.3198 35.7585 39.1709 35.8085C39.0451 35.8509 38.8795 36.2519 38.7592 36.5448C38.5533 37.0448 38.3582 37.5167 38.0318 37.5167C37.6338 37.5167 36.7954 37.9889 36.2407 38.3013L36.1506 38.352C35.9671 38.4551 35.7601 38.5079 35.5502 38.5052C35.17 38.5052 34.7814 38.3559 34.3699 38.1979C34.2832 38.1648 34.1953 38.131 34.1066 38.0984C33.4519 37.8575 33.3396 37.4505 33.1688 36.832C33.1354 36.7105 33.1001 36.5846 33.0587 36.4462C32.8778 35.8518 31.8073 35.5959 31.3313 35.5107C30.9653 35.5769 29.8674 35.8254 29.6787 36.4462C29.6366 36.5851 29.602 36.7105 29.5684 36.8322C29.3987 37.4496 29.2864 37.8575 28.6306 38.0984C28.5421 38.131 28.4542 38.1646 28.3675 38.1979C27.9558 38.3559 27.5669 38.5049 27.1872 38.5052C26.9773 38.5079 26.7703 38.4551 26.5868 38.352L26.4953 38.3011C25.9408 37.9887 25.1025 37.5167 24.7045 37.5167C24.3783 37.5167 24.1834 37.0446 23.9773 36.5448C23.8566 36.2519 23.6912 35.8506 23.5656 35.8085C23.4178 35.7588 23.2552 35.8122 23.1424 35.9436C23.0908 36.0048 23.0527 36.0765 23.0309 36.1538C23.009 36.2311 23.0038 36.3123 23.0157 36.3919C23.0788 36.8398 23.9115 40.5338 23.9199 40.5715V40.5754C23.925 40.6018 24.4435 43.2351 25.5037 44.3078C26.1192 44.9302 26.2663 45.4349 26.3958 45.8813C26.5003 46.2399 26.5907 46.55 26.9233 46.8582C27.5031 47.396 27.8153 47.5292 27.9139 47.5598C27.9228 47.5578 27.9318 47.5567 27.9409 47.5568C28.0269 47.5568 28.05 47.5961 28.2012 47.8532C28.5853 48.5064 29.7544 50.4938 31.3514 50.4938L31.3713 50.4948Z" fill="#6A0067"/>
<path d="M26.3809 49.422L26.1421 48.8262C26.1019 48.726 25.1615 46.3526 25.4227 44.7005C25.6743 43.102 25.4893 41.8717 25.4875 41.8592L25.4847 41.8423L25.4868 41.8252C25.4904 41.7935 25.5826 41.0498 26.0815 41.0498C26.24 41.0498 26.4084 41.1269 26.5962 41.2851C27.1451 41.7479 26.8592 43.1546 26.5827 44.5147C26.4342 45.2447 26.2942 45.9345 26.3169 46.3498C26.3811 47.5181 26.3818 48.7665 26.3818 48.7795L26.3809 49.422ZM25.7352 41.8395C25.7597 42.0094 25.9122 43.1932 25.6666 44.7401C25.5005 45.7903 25.8601 47.1928 26.124 48.0258C26.116 47.5658 26.0998 46.9547 26.0673 46.3644C26.0428 45.9165 26.186 45.2114 26.3379 44.4649C26.5751 43.2978 26.8704 41.8453 26.4354 41.4786C26.2981 41.3629 26.1748 41.3013 26.0794 41.3013C25.8319 41.3002 25.7484 41.7507 25.7345 41.8395H25.7352Z" fill="#6A0067"/>
<path d="M30.6977 43.6846C30.2063 43.6846 29.6557 43.4819 29.4924 43.4171C29.3851 43.4538 29.2724 43.4718 29.1592 43.4704C28.7991 43.4704 28.4473 43.3156 28.3586 43.2737L27.6929 43.1987L27.5996 41.501L27.8462 41.8312C27.8476 41.8328 28.026 42.0626 28.4283 42.1783C28.7861 42.2819 30.5805 42.3044 31.2418 42.3044H31.3658V43.4745L31.3162 43.512C31.1654 43.6259 30.957 43.6846 30.6977 43.6846ZM29.4931 43.145L29.5416 43.1656C29.548 43.1682 30.1764 43.4326 30.6979 43.4329C30.8731 43.4329 31.0138 43.403 31.1169 43.3443V42.5552C30.6137 42.5531 28.7682 42.5378 28.3595 42.4196C28.191 42.3722 28.0313 42.2975 27.8864 42.1984L27.929 42.9717L28.429 43.0282L28.4489 43.0381C28.4523 43.0397 28.8115 43.2186 29.1594 43.2186C29.2571 43.2207 29.3542 43.2027 29.4448 43.1658L29.4931 43.145Z" fill="#6A0067"/>
<path d="M29.6558 45.9326L29.6101 45.9264C29.4317 45.9019 27.8586 45.6744 27.5775 45.1769L27.567 45.1582L27.5631 45.1371C27.5478 45.051 27.4245 44.2932 27.855 44.2062C27.9142 44.1949 27.9745 44.1896 28.0348 44.1902C28.3763 44.1902 28.8324 44.324 28.8811 44.3388L29.9667 44.597L31.4972 44.6665V45.6996L31.3702 45.6966C31.3702 45.6966 31.3176 45.6952 31.233 45.6952C30.4766 45.6952 29.8876 45.7757 29.6956 45.9053L29.6558 45.9326ZM27.8031 45.0693C27.9945 45.3498 28.9811 45.583 29.6 45.6709C29.9525 45.4749 30.7666 45.4449 31.2325 45.4449H31.2497V44.9062L29.9328 44.8455L28.8141 44.5792C28.8095 44.5778 28.3518 44.4404 28.0345 44.4404C27.9906 44.4398 27.9467 44.4434 27.9035 44.4513C27.7639 44.4799 27.7683 44.855 27.8031 45.0693Z" fill="#6A0067"/>
<path d="M26.0664 41.1204C26.0664 41.1204 27.3345 40.924 27.7348 41.6441L27.8684 43.0843C27.8684 43.0843 29.4033 43.5426 29.6036 43.2807C29.6036 43.2807 30.8047 43.6741 31.4054 43.4117V44.7864L30.0707 44.7209L28.9362 44.4592L27.9352 44.3282L27.7348 45.115C27.7348 45.115 26.7339 44.5256 26.2 45.4421C26.2 45.4421 26.7339 43.6093 26.7339 42.6273C26.7339 41.6452 26.0664 41.1204 26.0664 41.1204Z" fill="#6A0067"/>
<path d="M28.2096 46.4907C28.0017 46.4888 27.7946 46.4639 27.592 46.4164C26.3271 46.1323 26.5238 44.8462 26.5259 44.8333L26.7706 44.8742C26.7636 44.9177 26.6124 45.9386 27.6458 46.1716C28.4775 46.3588 28.8737 46.133 29.2566 45.9146C29.381 45.839 29.511 45.7734 29.6454 45.7183C30.1811 45.5152 31.3296 45.5769 31.3784 45.5795L31.3646 45.8299C31.3532 45.8299 30.2196 45.7683 29.7324 45.953C29.6097 46.0037 29.491 46.0638 29.3774 46.1328C29.0901 46.2968 28.7499 46.4907 28.2096 46.4907Z" fill="#6A0067"/>
<path d="M28.1331 47.7035C27.9444 47.7035 27.8163 47.6936 27.8008 47.6924L27.815 47.5138C27.8266 47.5138 28.968 47.6026 29.5829 47.2294C30.2423 46.8293 31.3192 46.7946 31.3648 46.7935L31.3698 46.9726C31.359 46.9726 30.2934 47.007 29.6739 47.383C29.2213 47.6579 28.5378 47.7035 28.1331 47.7035Z" fill="#6A0067"/>
<path d="M29.4358 42.4206L29.3711 43.2717L29.6183 43.291L29.6831 42.4399L29.4358 42.4206Z" fill="#6A0067"/>
<path d="M28.5175 42.3H28.2695V43.1511H28.5175V42.3Z" fill="#6A0067"/>
<path d="M28.7364 44.4017L28.2188 45.4492L28.4405 45.5614L28.9582 44.5139L28.7364 44.4017Z" fill="#6A0067"/>
<path d="M30.0761 44.7209H29.8281V45.6375H30.0761V44.7209Z" fill="#6A0067"/>
<path d="M29.8194 38.8604C29.888 38.4492 29.4678 38.0737 29.0767 38.1866C28.5931 38.3254 28.3205 38.8974 28.2269 39.3558C28.1276 39.8418 28.2161 40.3994 28.6084 40.7321C28.8143 40.9066 29.0714 40.9497 29.3326 40.9497C29.4662 40.9497 29.5998 40.9406 29.7334 40.9455C29.8761 40.9508 30.0264 41.0131 30.1652 41.0003C30.2339 40.9941 30.224 40.8233 30.1902 40.7877C29.9374 40.5202 29.4326 40.672 29.1057 40.6329C28.8954 40.6068 28.7011 40.5058 28.5575 40.3482C28.414 40.1905 28.3305 39.9863 28.3221 39.7721C28.3047 39.3614 28.513 38.8567 28.8482 38.6121C28.9952 38.5055 29.1654 38.4529 29.3457 38.4837C29.5383 38.517 29.7434 38.6205 29.7526 38.8398C29.7553 38.9065 29.8034 38.9509 29.8185 38.8604H29.8194Z" fill="#6A0067"/>
<path d="M28.3418 40.2586C28.7051 40.1815 29.0857 40.0339 29.4455 40.2151C29.7383 40.3623 29.8746 40.6725 30.0446 40.9359C30.2102 41.192 30.4007 41.4204 30.6706 41.5685C30.9346 41.7134 31.2946 41.8253 31.5744 41.6705C31.6226 41.6439 31.6176 41.5007 31.5634 41.4854C31.4067 41.4391 31.2464 41.4371 31.0876 41.4031C30.9115 41.3652 30.7439 41.2946 30.5933 41.1948C30.3152 41.0097 30.1706 40.7302 29.9746 40.4705C29.8069 40.2484 29.6143 40.033 29.3398 39.9534C29.0143 39.859 28.6348 39.9606 28.332 40.0922C28.292 40.1098 28.2965 40.2683 28.3418 40.2588V40.2586Z" fill="#6A0067"/>
<path d="M31.3558 40.3512C31.1547 40.1781 30.9228 40.0423 30.7208 39.8676C30.5188 39.6929 30.3255 39.5008 30.1672 39.2808C30.0165 39.0725 29.8841 38.8411 29.8111 38.5912C29.7457 38.3675 29.7754 38.2145 29.9712 38.0801C30.0373 38.0338 30.0627 37.7524 29.9518 37.748C29.6793 37.7374 29.6114 38.1236 29.6043 38.3307C29.5931 38.6498 29.7006 38.9584 29.8536 39.2331C30.016 39.5247 30.2436 39.7776 30.4927 39.9967C30.7242 40.1996 31.039 40.4461 31.3473 40.5058C31.3985 40.5155 31.3798 40.372 31.3562 40.3519L31.3558 40.3512Z" fill="#6A0067"/>
<path d="M31.3659 39.0994C31.0477 38.7373 30.6213 38.485 30.3002 38.1204C30.1428 37.9417 29.9799 37.7312 29.9113 37.5C29.8258 37.2207 29.9946 37.0881 30.1714 36.9116C30.2114 36.8715 30.2172 36.6897 30.1442 36.6802C29.907 36.6485 29.7782 37.0081 29.7526 37.1916C29.7114 37.478 29.796 37.7548 29.9445 37.9973C30.1032 38.2571 30.3105 38.4712 30.542 38.6658C30.7879 38.874 31.0553 39.1054 31.338 39.2593C31.3931 39.2891 31.3897 39.1253 31.367 39.0996L31.3659 39.0994Z" fill="#6A0067"/>
<path d="M31.363 38.1897C30.8781 37.7311 29.5025 36.255 30.6768 35.8269C30.7548 35.7987 30.7395 35.5608 30.6599 35.5412C30.3927 35.4752 30.1907 35.7075 30.0997 35.9368C29.9791 36.2402 30.0173 36.597 30.1281 36.8967C30.3543 37.5092 30.8415 38.0557 31.3296 38.4701C31.393 38.524 31.4262 38.2489 31.3633 38.1895L31.363 38.1897Z" fill="#6A0067"/>
<path d="M30.7495 35.469C30.3377 36.1217 30.8709 36.9022 31.3078 37.381C31.3682 37.4474 31.3993 37.2378 31.3561 37.1912C30.9647 36.7622 30.5221 36.1884 30.7858 35.5773C30.7964 35.5528 30.7794 35.4216 30.7495 35.469Z" fill="#6A0067"/>
<path d="M28.5175 38.8044C29.0798 38.9481 29.4565 39.4495 29.6953 39.9561C29.8165 40.2129 29.917 40.4802 30.032 40.7398C30.1334 40.9684 30.2496 41.2412 30.441 41.4074C30.4765 41.4381 30.4797 41.3067 30.4707 41.2896C30.3218 41.0036 30.1505 40.7342 30.0176 40.439C29.8973 40.1736 29.7816 39.9068 29.6384 39.6522C29.3867 39.2066 29.0283 38.8012 28.5175 38.6783C28.486 38.6707 28.4766 38.794 28.5175 38.8042V38.8044Z" fill="#6A0067"/>
<path d="M24.6053 43.1404C24.4996 42.5573 24.4681 41.8994 24.7362 41.3531C24.9484 40.9188 25.3537 40.5486 25.8382 40.4771C26.1287 40.4343 26.4199 40.5023 26.6894 40.6106C26.9339 40.7089 27.1592 40.8572 27.4115 40.9345C27.6121 40.9965 27.8385 40.9975 28.0028 40.8482C28.1608 40.7047 28.2338 40.478 28.3248 40.2908C28.3621 40.2142 28.2873 40.0261 28.2521 40.1614C28.1739 40.4622 27.9948 40.7631 27.6473 40.7575C27.3557 40.7517 27.0908 40.5569 26.8316 40.4417C26.3497 40.2276 25.8252 40.1478 25.3533 40.428C24.404 40.9905 24.3482 42.213 24.5614 43.1816C24.5756 43.2457 24.6117 43.1732 24.6053 43.1388V43.1404Z" fill="#6A0067"/>
<path d="M24.5965 39.2893C24.6043 38.9728 24.6157 38.6563 24.6194 38.3406C24.6237 38.0428 24.6565 37.7268 24.6123 37.4317C24.5995 37.3459 24.5437 37.3461 24.5307 37.4317C24.4865 37.727 24.5192 38.0428 24.5233 38.3406C24.5279 38.6574 24.5391 38.974 24.5462 39.2893C24.5478 39.356 24.5936 39.3567 24.5952 39.2893H24.5965Z" fill="#6A0067"/>
<path d="M26.4698 39.941C26.6131 39.6983 26.742 39.4472 26.8557 39.189C26.9598 38.9474 27.1199 38.667 27.1446 38.4039C27.1474 38.3738 27.1279 38.1996 27.0701 38.2722C26.9989 38.3613 26.9877 38.483 26.9541 38.5901C26.9065 38.741 26.8489 38.8886 26.7887 39.0349C26.6782 39.304 26.5618 39.5722 26.4337 39.833C26.42 39.8609 26.4438 39.9864 26.4698 39.941Z" fill="#6A0067"/>
<path d="M29.1727 47.5824C29.7446 47.6181 30.1792 47.899 30.3869 48.456C30.4845 48.7188 30.6172 49.2047 30.4161 49.4459C30.2389 49.6578 29.9157 49.631 29.6993 49.5049C29.4579 49.3642 29.2253 49.0858 29.1894 48.7982C29.1556 48.5258 29.3921 48.2681 29.6622 48.266C29.9367 48.266 30.0632 48.5342 30.1211 48.7669C30.1423 48.853 30.1627 48.9685 30.0982 49.0446C30.0476 49.1055 29.9184 49.0828 29.8598 49.0532C29.7148 48.9801 29.6807 48.8135 29.6444 48.6681C29.6162 48.5555 29.5609 48.6855 29.5684 48.742C29.5993 48.975 29.7148 49.3086 30.0065 49.2758C30.2766 49.2457 30.2514 48.9056 30.208 48.7112C30.1524 48.4643 30.0634 48.1535 29.8006 48.0603C29.565 47.977 29.3081 48.126 29.1851 48.3289C28.8779 48.835 29.2672 49.5784 29.7734 49.773C30.0227 49.8693 30.3315 49.8145 30.4882 49.5796C30.6449 49.3447 30.6058 49.0148 30.56 48.754C30.442 48.083 29.944 47.3173 29.1725 47.4223C29.1242 47.429 29.1233 47.5771 29.1725 47.5804L29.1727 47.5824Z" fill="#6A0067"/>
<path d="M23.6086 40.0469C23.8263 39.564 24.3458 39.3376 24.8515 39.3386C25.4607 39.3386 25.9724 39.6528 26.471 39.9677C26.8848 40.2283 27.3617 40.4273 27.7998 40.1033C28.1429 39.8488 28.3574 39.4022 28.4684 38.997C28.4768 38.966 28.4549 38.8302 28.416 38.9045C28.2101 39.2978 28.0525 39.812 27.5955 39.9784C27.0282 40.1848 26.5259 39.6914 26.0705 39.4341C25.6151 39.1768 25.064 39.0061 24.5409 39.1317C24.12 39.2328 23.7358 39.5387 23.5631 39.9416C23.5473 39.9784 23.5759 40.1184 23.6088 40.0459L23.6086 40.0469Z" fill="#6A0067"/>
<path d="M25.2065 40.5894C24.8952 40.8747 24.7719 41.3546 24.8518 41.7658C24.9284 42.1571 25.2569 42.6588 25.6835 42.7129C25.7461 42.7208 25.7372 42.5341 25.6954 42.51C25.5565 42.4295 25.4168 42.3772 25.2935 42.2689C25.1586 42.1507 25.0533 42.0018 24.9863 41.8346C24.8262 41.4324 24.9671 41.0247 25.228 40.7061C25.2468 40.6829 25.234 40.5644 25.2065 40.5904V40.5894Z" fill="#6A0067"/>
<path d="M36.31 49.4225V48.7795C36.31 48.767 36.31 47.5186 36.3749 46.3498C36.3978 45.9333 36.2576 45.2447 36.1091 44.5147C35.8326 43.1546 35.5467 41.7481 36.0957 41.2851C36.2834 41.1269 36.4518 41.0498 36.6103 41.0498C37.1083 41.0498 37.2005 41.7935 37.205 41.8252L37.2071 41.8423L37.2043 41.8592C37.2025 41.8717 37.0166 43.1048 37.2691 44.7005C37.5303 46.3526 36.59 48.7267 36.5497 48.8262L36.31 49.4225ZM36.6096 41.3006C36.5142 41.3006 36.3912 41.362 36.2537 41.4779C35.8191 41.8446 36.1139 43.2971 36.3512 44.4642C36.503 45.2107 36.6462 45.9158 36.6218 46.3637C36.5893 46.954 36.5733 47.5649 36.5653 48.0247C36.829 47.1917 37.1886 45.7896 37.0227 44.7401C36.778 43.1932 36.9312 42.0096 36.9541 41.8395C36.9418 41.7514 36.8585 41.3006 36.6096 41.3006Z" fill="#6A0067"/>
<path d="M31.9934 43.6844C31.7336 43.6844 31.5256 43.6268 31.3758 43.5132L31.3262 43.4757V42.3055H31.4501C32.1114 42.3055 33.9057 42.2824 34.2636 42.1794C34.6655 42.0637 34.8442 41.8344 34.8458 41.8323L35.0914 41.501L34.9981 43.1987L34.3325 43.2737C34.2437 43.3156 33.8919 43.4704 33.5319 43.4704C33.4186 43.4718 33.306 43.4538 33.1986 43.4171C33.0353 43.4805 32.4847 43.6844 31.9934 43.6844ZM31.5744 43.3452C31.6775 43.4039 31.8182 43.4338 31.9934 43.4338C32.5152 43.4338 33.1433 43.1691 33.1497 43.1665L33.1982 43.1459L33.2467 43.1668C33.3372 43.2037 33.4343 43.2216 33.5319 43.2195C33.8798 43.2195 34.2389 43.0407 34.2426 43.0388L34.2623 43.0291L34.7623 42.9726L34.8048 42.1993C34.66 42.2984 34.5002 42.3731 34.3318 42.4205C33.923 42.5388 32.0776 42.554 31.5744 42.5561V43.3452Z" fill="#6A0067"/>
<path d="M33.0042 45.9312L32.9655 45.9053C32.7853 45.7836 32.2885 45.7137 31.6027 45.7137C31.4375 45.7137 31.3255 45.7184 31.3243 45.7184L31.1953 45.7235V44.6664L32.7258 44.597L33.8114 44.3388C33.8606 44.324 34.3169 44.1902 34.6577 44.1902C34.718 44.1896 34.7783 44.1949 34.8375 44.2062C35.268 44.2932 35.1447 45.051 35.1294 45.1371L35.1255 45.1582L35.115 45.1769C34.8339 45.6746 33.2315 45.9021 33.0497 45.9264L33.0042 45.9312ZM31.6027 45.4631C32.1059 45.4631 32.7535 45.4999 33.0607 45.6714C33.692 45.5828 34.6978 45.3491 34.8906 45.0698C34.9244 44.856 34.9288 44.4806 34.7904 44.4526C34.7471 44.4448 34.7031 44.4412 34.6591 44.4418C34.3412 44.4418 33.8841 44.5794 33.8796 44.5806L33.8722 44.5825L32.7608 44.8469L31.444 44.9076V45.4657C31.4874 45.4636 31.5412 45.4631 31.6027 45.4631Z" fill="#6A0067"/>
<path d="M34.482 46.4905C33.9415 46.4905 33.6016 46.2966 33.3155 46.1328C33.2018 46.0638 33.0831 46.0037 32.9605 45.953C32.4728 45.7678 31.3396 45.8292 31.3282 45.8299L31.3145 45.5795C31.3632 45.5767 32.5117 45.5149 33.0474 45.7183C33.1819 45.7734 33.3119 45.839 33.4362 45.9146C33.8191 46.133 34.214 46.3588 35.047 46.1716C36.0805 45.9402 35.9293 44.9177 35.9224 44.8742L36.1669 44.8333C36.169 44.8462 36.3657 46.1323 35.1008 46.4164C34.8978 46.4639 34.6903 46.4888 34.482 46.4905Z" fill="#6A0067"/>
<path d="M34.6947 47.6973C34.3287 47.6973 33.5217 47.6593 33.0105 47.3502C32.3986 46.9774 31.3526 46.9726 31.3203 46.9726V46.7935C31.3661 46.7935 32.4411 46.7935 33.1029 47.1945C33.7191 47.5684 34.8642 47.5142 34.8754 47.5136L34.8845 47.6924C34.8719 47.694 34.8026 47.6973 34.6947 47.6973Z" fill="#6A0067"/>
<path d="M33.4394 42.4416L33.1914 42.4617L33.2589 43.3153L33.5069 43.2952L33.4394 42.4416Z" fill="#6A0067"/>
<path d="M34.4218 42.3H34.1738V43.1511H34.4218V42.3Z" fill="#6A0067"/>
<path d="M33.9561 44.4003L33.7344 44.5125L34.2522 45.5599L34.4739 45.4477L33.9561 44.4003Z" fill="#6A0067"/>
<path d="M32.8651 44.7209H32.6172V45.6375H32.8651V44.7209Z" fill="#6A0067"/>
<path d="M32.9388 38.8404C32.9564 38.4163 33.5674 38.4223 33.8229 38.5982C34.1708 38.8374 34.3897 39.3555 34.3703 39.7727C34.3504 40.2012 34.0372 40.5699 33.6154 40.6289C33.2817 40.6751 32.7609 40.5146 32.5031 40.7874C32.4688 40.8235 32.4589 40.9938 32.528 41C32.6669 41.0127 32.8171 40.9505 32.9599 40.9452C33.0935 40.9403 33.227 40.9498 33.3606 40.9493C33.6221 40.9493 33.8789 40.9065 34.0848 40.7318C34.4769 40.3993 34.5652 39.8407 34.4666 39.3555C34.3728 38.8969 34.1006 38.3244 33.6166 38.1863C33.2252 38.0745 32.805 38.4487 32.8739 38.8601C32.8885 38.9478 32.937 38.9087 32.9397 38.8395L32.9388 38.8404Z" fill="#6A0067"/>
<path d="M34.3568 40.0926C34.0556 39.9607 33.6798 39.8612 33.3554 39.9508C33.0779 40.0285 32.8831 40.2465 32.7149 40.47C32.5248 40.7218 32.3839 40.996 32.1184 41.1795C31.9696 41.282 31.8033 41.3556 31.628 41.3965C31.4612 41.4352 31.291 41.4349 31.1261 41.4849C31.0721 41.5013 31.0669 41.6446 31.1151 41.67C31.3882 41.8211 31.7346 41.7163 31.9953 41.5803C32.2767 41.4326 32.4741 41.1994 32.6449 40.9354C32.8101 40.6794 32.9423 40.3761 33.2223 40.2252C33.5864 40.0288 33.9771 40.1789 34.3477 40.2581C34.3934 40.2678 34.3968 40.1088 34.3575 40.0915L34.3568 40.0926Z" fill="#6A0067"/>
<path d="M31.3463 40.5051C31.646 40.4474 31.9529 40.2105 32.1796 40.015C32.4374 39.7924 32.673 39.533 32.8397 39.2336C32.9891 38.9649 33.095 38.6646 33.0898 38.3531C33.0861 38.1425 33.0211 37.7371 32.7418 37.748C32.6314 37.7524 32.6563 38.0347 32.7222 38.0801C32.9177 38.2147 32.9473 38.3675 32.8823 38.5912C32.8093 38.8402 32.6764 39.072 32.5261 39.2808C32.3679 39.5006 32.1764 39.6913 31.9726 39.8676C31.7688 40.0439 31.538 40.1781 31.3376 40.3512C31.3147 40.3713 31.296 40.5148 31.3468 40.5051H31.3463Z" fill="#6A0067"/>
<path d="M31.357 39.2593C31.6315 39.111 31.8911 38.8849 32.1304 38.6848C32.3697 38.4846 32.5863 38.2657 32.7505 37.9973C32.8944 37.762 32.9793 37.4943 32.9452 37.2157C32.9223 37.0269 32.797 36.6474 32.5506 36.6802C32.4765 36.6902 32.4838 36.8723 32.5234 36.9116C32.6835 37.072 32.8601 37.2018 32.7958 37.4607C32.7347 37.7069 32.5577 37.9341 32.3935 38.1204C32.0732 38.4851 31.6459 38.7373 31.3278 39.0994C31.3049 39.126 31.3026 39.2885 31.357 39.2591V39.2593Z" fill="#6A0067"/>
<path d="M31.3645 38.4703C31.8524 38.0559 32.3399 37.5091 32.5661 36.8968C32.6747 36.6023 32.7107 36.2607 32.6027 35.9606C32.5158 35.7225 32.3099 35.4721 32.0354 35.5416C31.9563 35.5612 31.9407 35.7991 32.0185 35.8273C33.1922 36.2554 31.817 37.7312 31.3323 38.1901C31.2705 38.2486 31.3016 38.5256 31.3659 38.4707L31.3645 38.4703Z" fill="#6A0067"/>
<path d="M31.9063 35.5775C32.1701 36.1882 31.7272 36.7627 31.3361 37.1915C31.2942 37.2377 31.3233 37.4481 31.3843 37.3812C31.8212 36.9025 32.3535 36.1222 31.9427 35.4692C31.9123 35.4209 31.897 35.5544 31.9063 35.5775Z" fill="#6A0067"/>
<path d="M34.1738 38.6572C33.6598 38.7796 33.2981 39.1864 33.0454 39.6346C32.9024 39.8891 32.7849 40.152 32.6641 40.4162C32.5291 40.711 32.3491 40.9799 32.2132 41.2724C32.2029 41.2955 32.1993 41.4684 32.253 41.4295C32.4543 41.2846 32.5733 40.9841 32.6693 40.7626C32.7837 40.5011 32.8832 40.2316 33.0035 39.9733C33.2387 39.4691 33.6161 38.9689 34.1738 38.8249C34.2277 38.8108 34.2168 38.6468 34.1738 38.6569V38.6572Z" fill="#6A0067"/>
<path d="M38.1311 43.1807C38.3443 42.2109 38.2885 40.9885 37.3392 40.4271C36.8667 40.1469 36.3429 40.2267 35.8609 40.4408C35.6004 40.5565 35.3382 40.7492 35.0452 40.7566C34.6991 40.7652 34.5191 40.4595 34.4404 40.1606C34.4059 40.0275 34.3299 40.2126 34.3677 40.2899C34.4592 40.4769 34.5319 40.7034 34.6898 40.8473C34.8535 40.9968 35.0809 40.9957 35.281 40.9336C35.5327 40.8554 35.7589 40.7078 36.0032 40.6097C36.2724 40.5012 36.5638 40.4334 36.8543 40.4762C37.339 40.5474 37.7453 40.9177 37.9566 41.3522C38.2226 41.8999 38.1931 42.5555 38.0872 43.1395C38.081 43.1731 38.117 43.2476 38.1311 43.1823V43.1807Z" fill="#6A0067"/>
<path d="M38.1397 39.2893C38.1475 38.9728 38.1587 38.6563 38.1626 38.3406C38.1667 38.0428 38.1994 37.7268 38.1553 37.4317C38.1425 37.3459 38.0866 37.3461 38.0736 37.4317C38.0295 37.727 38.0622 38.0428 38.0665 38.3406C38.0711 38.6574 38.0823 38.974 38.0894 39.2893C38.091 39.356 38.1365 39.3567 38.1383 39.2893H38.1397Z" fill="#6A0067"/>
<path d="M36.2522 39.83C36.1241 39.5692 36.0074 39.301 35.8972 39.0319C35.8413 38.8961 35.7874 38.7591 35.7421 38.6191C35.705 38.5034 35.692 38.3645 35.6158 38.2692C35.557 38.1954 35.5387 38.374 35.5412 38.4009C35.5659 38.6644 35.7261 38.9442 35.8301 39.186C35.9439 39.4442 36.0728 39.6953 36.216 39.938C36.2423 39.9843 36.2654 39.8568 36.2522 39.83Z" fill="#6A0067"/>
<path d="M33.5188 47.3928C32.8593 47.3058 32.3545 47.9396 32.1877 48.5125C32.0505 48.9827 31.9942 49.8877 32.7237 49.8261C33.3088 49.7766 33.7415 49.0258 33.57 48.4783C33.4991 48.2513 33.2925 48.0551 33.0501 48.0421C32.7868 48.028 32.6274 48.2527 32.55 48.479C32.4794 48.6854 32.335 49.1338 32.6081 49.2622C32.9254 49.4113 33.0915 48.9802 33.1226 48.7474C33.1299 48.6921 33.075 48.559 33.0464 48.6736C33.0105 48.8175 32.9778 48.9876 32.8309 49.0586C32.6036 49.169 32.5194 48.9728 32.5699 48.7712C32.626 48.5477 32.7454 48.2821 33.0075 48.27C33.2854 48.2573 33.5364 48.5227 33.5016 48.8022C33.4657 49.0899 33.2328 49.3685 32.9917 49.5089C32.7754 49.6348 32.4521 49.6621 32.2749 49.4499C32.0809 49.2171 32.201 48.7624 32.2886 48.5056C32.4819 47.9389 32.9314 47.5904 33.5183 47.5513C33.5672 47.5481 33.567 47.4 33.5183 47.3935L33.5188 47.3928Z" fill="#6A0067"/>
<path d="M39.1218 39.9415C38.9489 39.537 38.5651 39.2325 38.144 39.1316C37.6211 39.005 37.0712 39.1758 36.6144 39.434C36.1576 39.6923 35.6566 40.1849 35.0894 39.9783C34.6319 39.8119 34.4741 39.298 34.2689 38.9044C34.23 38.8301 34.2085 38.9671 34.2165 38.9969C34.3261 39.3965 34.5347 39.8316 34.8666 40.0896C35.306 40.4309 35.7927 40.2328 36.2136 39.9676C36.7052 39.6578 37.2052 39.351 37.8034 39.3391C38.3183 39.329 38.854 39.5539 39.0763 40.0467C39.109 40.1192 39.1378 39.9796 39.122 39.9424L39.1218 39.9415Z" fill="#6A0067"/>
<path d="M37.4634 40.7069C37.7244 41.0243 37.8641 41.4332 37.7052 41.8354C37.6436 41.9886 37.55 42.1265 37.4307 42.2396C37.2996 42.3643 37.1496 42.4224 36.9961 42.5108C36.954 42.5339 36.9457 42.7216 37.008 42.7137C37.4346 42.6596 37.7628 42.1584 37.8397 41.7666C37.9202 41.3555 37.7962 40.8756 37.4849 40.5902C37.4568 40.5646 37.4453 40.6849 37.4634 40.7059V40.7069Z" fill="#6A0067"/>
<path d="M31.3053 42.4185C31.29 42.6475 31.2989 42.878 31.3053 43.1076C31.3117 43.3371 31.3053 43.5703 31.3392 43.7955C31.3502 43.8702 31.4048 43.8749 31.4126 43.7955C31.4341 43.5678 31.4204 43.3359 31.4151 43.1076C31.4099 42.8792 31.4094 42.6466 31.3829 42.4185C31.3737 42.34 31.3117 42.3361 31.3063 42.4185H31.3053Z" fill="#6A0067"/>
<path d="M27.1409 45.4304C27.3215 45.4494 27.6407 45.4023 27.7432 45.2303C27.7535 45.2132 27.772 45.0935 27.7283 45.1028C27.6366 45.1227 27.5699 45.2187 27.4826 45.2602C27.3747 45.3092 27.2589 45.3379 27.1409 45.3451C27.1145 45.3472 27.1145 45.4276 27.1409 45.4304Z" fill="#6A0067"/>
<path d="M27.4191 45.7734C27.6386 45.74 27.8185 45.6676 27.9826 45.5105C28.0307 45.4641 28.0028 45.274 27.9498 45.3319C27.8066 45.4889 27.6152 45.628 27.4147 45.6996C27.3966 45.7061 27.3987 45.7766 27.4191 45.7734Z" fill="#6A0067"/>
<path d="M27.7644 45.9713C27.9707 45.9164 28.1667 45.799 28.2757 45.6087C28.2871 45.5881 28.2944 45.5654 28.297 45.542C28.2997 45.5186 28.2978 45.4948 28.2913 45.4722C28.2849 45.452 28.2558 45.3945 28.232 45.4362C28.1174 45.6372 27.9721 45.8053 27.7605 45.9052C27.7447 45.9127 27.7473 45.9748 27.7644 45.9713Z" fill="#6A0067"/>
<path d="M28.2239 46.1297C28.4359 46.0641 28.6868 45.8559 28.6525 45.6064C28.6499 45.5893 28.6419 45.5496 28.6167 45.5601C28.5805 45.5749 28.5709 45.6199 28.5585 45.6528C28.5376 45.7121 28.5106 45.7691 28.4781 45.8227C28.4114 45.9223 28.3211 46.0033 28.2154 46.0583C28.1973 46.0683 28.1985 46.1376 28.2239 46.1297Z" fill="#6A0067"/>
<path d="M28.8743 46.0883C29.0064 46.0269 29.085 45.9356 29.1452 45.805C29.1636 45.7654 29.1705 45.6768 29.1361 45.6411C29.0962 45.5994 29.0744 45.671 29.0694 45.7035C29.052 45.8208 28.958 45.937 28.8631 46.0007C28.8427 46.0149 28.8448 46.102 28.8737 46.0883H28.8743Z" fill="#6A0067"/>
<path d="M30.5323 47.9901C30.7714 48.5743 30.9784 49.8905 30.117 50.0798C30.031 50.0985 30.0534 50.3533 30.117 50.3371C31.0864 50.092 30.8569 48.6042 30.5552 47.9378C30.5388 47.9014 30.525 47.9718 30.5323 47.9901Z" fill="#6A0067"/>
<path d="M30.851 47.9796C30.9857 48.4056 31.05 48.8464 31.0008 49.293C30.9819 49.4933 30.9414 49.6909 30.8803 49.8824C30.8183 50.0675 30.6822 50.1892 30.6092 50.3593C30.5953 50.3919 30.5845 50.4981 30.6355 50.5055C30.7982 50.5321 30.924 50.1735 30.9651 50.0522C31.0395 49.8264 31.0837 49.5915 31.0964 49.3539C31.1264 48.8728 31.0576 48.3837 30.8746 47.9375C30.8608 47.9037 30.8462 47.9648 30.8517 47.9796H30.851Z" fill="#6A0067"/>
<path d="M32.1087 47.9744C31.8067 48.6408 31.5773 50.1286 32.5469 50.3739C32.6094 50.3896 32.6336 50.1353 32.5469 50.1164C31.6855 49.9273 31.8923 48.6107 32.1313 48.0267C32.1386 48.0086 32.1251 47.938 32.1084 47.9744H32.1087Z" fill="#6A0067"/>
<path d="M31.7852 47.9376C31.6022 48.3837 31.5336 48.8729 31.5633 49.3539C31.576 49.5916 31.6202 49.8265 31.6946 50.0523C31.7356 50.1719 31.8625 50.532 32.0242 50.5056C32.0752 50.4972 32.0647 50.392 32.0508 50.3593C31.9835 50.2029 31.8545 50.0884 31.7928 49.9225C31.7184 49.7225 31.6823 49.5046 31.6589 49.2931C31.6098 48.8465 31.674 48.4057 31.8088 47.9797C31.8136 47.9644 31.7989 47.9038 31.7859 47.9376H31.7852Z" fill="#6A0067"/>
<path d="M31.2916 47.9597C31.2584 48.3737 31.2603 48.7965 31.2541 49.212C31.2475 49.6496 31.2479 50.0872 31.2461 50.5247C31.2461 50.6867 31.3653 50.6881 31.3648 50.5247C31.3648 50.0872 31.3648 49.6496 31.36 49.212C31.355 48.7955 31.3575 48.3737 31.3255 47.9597C31.3227 47.9241 31.2946 47.9243 31.2916 47.9597Z" fill="#6A0067"/>
<path d="M27.1633 46.706C27.2875 46.9418 27.4625 47.1457 27.6583 47.3241C27.8102 47.4629 28.1135 47.7868 28.3317 47.6582C28.3582 47.6427 28.3598 47.5529 28.3251 47.5462C28.0668 47.4955 27.8715 47.3842 27.6722 47.2077C27.4831 47.0401 27.3358 46.8425 27.1852 46.641C27.1642 46.613 27.1557 46.6917 27.1624 46.706H27.1633Z" fill="#6A0067"/>
<path d="M27.6918 46.8807C27.8789 47.1186 28.1158 47.3245 28.3977 47.436C28.6355 47.5309 28.9784 47.6255 29.2264 47.5297C29.2598 47.517 29.2563 47.4073 29.2188 47.4011C29.08 47.378 28.9347 47.4011 28.7934 47.3821C28.6553 47.3635 28.52 47.3278 28.3906 47.2759C28.1293 47.1711 27.896 47.026 27.7096 46.8103C27.6879 46.7854 27.6783 46.8626 27.6918 46.8798V46.8807Z" fill="#6A0067"/>
<path d="M28.2421 46.815C28.4568 47.0927 28.7682 47.2826 29.1058 47.3671C29.407 47.4425 29.8631 47.4286 30.0974 47.1938C30.1163 47.1746 30.1241 47.057 30.0818 47.0614C29.9242 47.0769 29.7773 47.1621 29.6188 47.1866C29.4648 47.2082 29.3085 47.2088 29.1543 47.1885C28.8122 47.152 28.4951 46.9907 28.2622 46.7347C28.2354 46.7058 28.2267 46.7955 28.2416 46.815H28.2421Z" fill="#6A0067"/>
<path d="M28.7516 46.7335C29.31 47.1384 30.2444 47.3562 30.8103 46.8386C30.8297 46.8207 30.8466 46.6916 30.8022 46.7023C30.4591 46.7835 30.1538 46.9131 29.7958 46.9158C29.4378 46.9186 29.0714 46.8388 28.7614 46.6463C28.737 46.6312 28.7294 46.7182 28.7509 46.7337L28.7516 46.7335Z" fill="#6A0067"/>
<path d="M35.7052 46.6409C35.5547 46.8424 35.4079 47.0396 35.218 47.2076C35.019 47.3848 34.8246 47.4954 34.5654 47.5461C34.5306 47.5528 34.5322 47.6426 34.5588 47.6581C34.7763 47.7863 35.0821 47.4605 35.2322 47.3239C35.428 47.1458 35.6027 46.9417 35.7272 46.7059C35.735 46.6909 35.7258 46.6133 35.7043 46.6409H35.7052Z" fill="#6A0067"/>
<path d="M35.1785 46.8096C34.9918 47.0255 34.7589 47.1701 34.4973 47.2752C34.3679 47.3272 34.2327 47.3629 34.0947 47.3814C33.9533 47.4004 33.8081 47.3772 33.6692 47.4004C33.6317 47.4066 33.6283 47.5161 33.6615 47.529C33.9101 47.6251 34.2521 47.5304 34.4904 47.4353C34.7722 47.3231 35.0092 47.1172 35.1963 46.88C35.2096 46.8629 35.2004 46.7849 35.1785 46.8106V46.8096Z" fill="#6A0067"/>
<path d="M34.628 46.7347C34.395 46.9907 34.0779 47.152 33.7359 47.1885C33.5815 47.2088 33.4251 47.2082 33.2708 47.1867C33.1126 47.1621 32.9657 47.077 32.8081 47.0615C32.7656 47.0571 32.774 47.1751 32.7925 47.1938C33.027 47.4287 33.4827 47.4426 33.7841 47.3671C34.1227 47.2827 34.4331 47.0939 34.6479 46.815C34.6625 46.7961 34.6543 46.7056 34.6275 46.7347H34.628Z" fill="#6A0067"/>
<path d="M34.1288 46.6463C33.8196 46.8391 33.4563 46.9191 33.0956 46.9161C32.7349 46.9131 32.4307 46.7838 32.0891 46.7025C32.0434 46.6919 32.0617 46.821 32.0811 46.8388C32.6477 47.3565 33.5821 47.1396 34.1398 46.7338C34.1611 46.7185 34.1542 46.631 34.1293 46.6463H34.1288Z" fill="#6A0067"/>
<path d="M29.4993 46.3959C30.0329 46.8161 30.6857 46.9281 31.3459 46.938C31.662 46.9426 31.9822 46.9292 32.2919 46.8619C32.5664 46.8017 32.8969 46.6925 33.0733 46.4579C33.0863 46.4407 33.0987 46.3151 33.058 46.3276C32.9374 46.3642 32.835 46.4405 32.7206 46.4926C32.5742 46.5564 32.4215 46.6038 32.2649 46.634C31.9628 46.6967 31.6533 46.7062 31.3459 46.7059C30.7235 46.7059 30.0384 46.6721 29.5105 46.3021C29.4862 46.285 29.4764 46.378 29.4993 46.3947V46.3959Z" fill="#6A0067"/>
<path d="M36.7577 40.1034C37.2756 40.0655 37.7854 40.3179 38.0999 40.7351C38.4758 41.2338 38.4167 41.8824 38.406 42.4706C38.406 42.5083 38.4355 42.5319 38.4428 42.4819C38.5327 41.8741 38.5645 41.181 38.223 40.6419C37.9126 40.152 37.3135 39.935 36.7577 40.0431C36.7394 40.0465 36.7399 40.1037 36.7577 40.1023V40.1034Z" fill="#6A0067"/>
<path d="M37.3428 39.8054C37.787 39.845 38.1553 40.1551 38.3916 40.5228C38.683 40.9751 38.6661 41.48 38.6782 41.9956C38.6782 42.0386 38.7219 42.1166 38.7406 42.0347C38.9641 41.0654 38.479 39.7177 37.3428 39.736C37.3213 39.736 37.3199 39.8054 37.3428 39.8054Z" fill="#6A0067"/>
<path d="M37.9584 39.5823C38.2912 39.6878 38.5579 40.0205 38.7133 40.3248C38.9006 40.6934 38.9134 41.0884 39.0243 41.4779C39.0534 41.5804 39.1053 41.4871 39.1053 41.4272C39.1053 40.9903 38.9976 40.494 38.783 40.1129C38.5941 39.7769 38.3274 39.5999 37.9637 39.5076C37.9447 39.5027 37.9408 39.577 37.9593 39.5823H37.9584Z" fill="#6A0067"/>
<path d="M26.0538 40.0462C25.498 39.9382 24.8989 40.1552 24.5885 40.6451C24.2468 41.1842 24.2788 41.8772 24.3685 42.4851C24.3756 42.5332 24.406 42.5133 24.4053 42.4738C24.3948 41.8842 24.3367 41.236 24.7114 40.7383C25.0259 40.3218 25.5348 40.0687 26.0538 40.1066C26.0715 40.108 26.0721 40.0509 26.0538 40.0474V40.0462Z" fill="#6A0067"/>
<path d="M25.4724 39.7329C24.3365 39.7146 23.8511 41.0622 24.0746 42.0315C24.0935 42.1134 24.1361 42.0357 24.1372 41.9924C24.1503 41.4752 24.134 40.9743 24.4238 40.5196C24.6578 40.1526 25.0298 39.843 25.4724 39.8023C25.4953 39.8002 25.4953 39.7329 25.4724 39.7329Z" fill="#6A0067"/>
<path d="M24.8526 39.5076C24.4889 39.6001 24.2226 39.7769 24.0335 40.1129C23.8187 40.494 23.71 40.9905 23.7109 41.4272C23.7109 41.4869 23.7631 41.5806 23.7921 41.4779C23.9029 41.0887 23.9157 40.6932 24.103 40.3248C24.2576 40.0206 24.5243 39.6878 24.8578 39.5823C24.8775 39.576 24.872 39.5027 24.8533 39.5076H24.8526Z" fill="#6A0067"/>
<path d="M24.9011 42.3522C24.9782 42.7483 25.3046 42.9744 25.69 42.9966C25.7447 42.9996 25.7397 42.8166 25.69 42.8242C25.3604 42.8737 25.032 42.6236 24.9304 42.3126C24.9142 42.2626 24.8966 42.329 24.9011 42.3522Z" fill="#6A0067"/>
<path d="M24.9221 42.896C25.0766 43.1695 25.3406 43.3457 25.658 43.2954C25.7267 43.2845 25.7157 43.0724 25.658 43.0824C25.4004 43.1271 25.0979 43.0474 24.94 42.8262C24.9202 42.7988 24.9125 42.8791 24.9221 42.8957V42.896Z" fill="#6A0067"/>
<path d="M25.091 43.3229C25.1575 43.4387 25.249 43.5378 25.3587 43.6127C25.4407 43.6674 25.6135 43.7769 25.6988 43.6946C25.7304 43.6642 25.7419 43.5731 25.7077 43.5388C25.6309 43.462 25.4966 43.4943 25.3935 43.4595C25.2787 43.4196 25.1798 43.3431 25.1116 43.2415C25.0903 43.2103 25.0786 43.3021 25.091 43.3229Z" fill="#6A0067"/>
<path d="M25.2619 43.7977C25.2955 43.8901 25.3465 43.9751 25.412 44.0479C25.4435 44.0797 25.4773 44.1091 25.5131 44.136C25.5541 44.1677 25.5784 44.2002 25.6297 44.1705C25.6721 44.1462 25.663 44.0465 25.6387 44.0126C25.5928 43.9491 25.5119 43.9549 25.4462 43.9122C25.3787 43.873 25.3225 43.8166 25.2832 43.7486C25.2656 43.7145 25.255 43.7813 25.2619 43.7977Z" fill="#6A0067"/>
<path d="M26.816 40.1016C26.9807 39.819 27.1294 39.5289 27.2991 39.2491C27.4515 38.9981 27.6464 38.7053 27.7127 38.4177C27.7168 38.3997 27.7154 38.2557 27.6702 38.2902C27.5741 38.3631 27.5329 38.4904 27.4787 38.5961C27.3973 38.7581 27.3161 38.918 27.2436 39.082C27.1015 39.406 26.9414 39.7177 26.795 40.0382C26.7879 40.0534 26.8005 40.1272 26.816 40.1006V40.1016Z" fill="#6A0067"/>
<path d="M27.2246 40.1158C27.6471 39.582 27.9595 38.931 28.2146 38.301C28.2374 38.2459 28.2502 38.1459 28.2146 38.0927C28.1857 38.0506 28.1503 38.0305 28.1244 38.0927C27.9893 38.4167 27.8715 38.7499 27.7342 39.0738C27.5926 39.4077 27.4039 39.7263 27.2019 40.0262C27.1873 40.0477 27.1978 40.1489 27.2248 40.1151L27.2246 40.1158Z" fill="#6A0067"/>
<path d="M28.6823 38.0487C28.4831 38.5499 28.2733 39.0541 28.0938 39.5624C28.0867 39.5823 28.099 39.7087 28.1274 39.6626C28.4069 39.2086 28.5986 38.6591 28.7361 38.1445C28.745 38.1116 28.7132 37.9705 28.6823 38.0487Z" fill="#6A0067"/>
<path d="M26.5708 38.6999C26.5213 38.8521 26.458 38.9992 26.3816 39.1395C26.3089 39.2693 26.2011 39.3709 26.13 39.4984C26.1208 39.5151 26.1213 39.6329 26.1574 39.607C26.275 39.523 26.3468 39.3524 26.415 39.2254C26.4954 39.0756 26.5577 38.9166 26.6005 38.7517C26.6053 38.733 26.5854 38.6571 26.571 38.6994L26.5708 38.6999Z" fill="#6A0067"/>
<path d="M26.2528 38.7388C26.1551 38.9694 26.0121 39.1278 25.8205 39.2799C25.7683 39.3216 25.8063 39.505 25.8434 39.4714C26.0403 39.2942 26.1888 39.0439 26.2766 38.7942C26.2832 38.7759 26.2693 38.6991 26.2525 38.7388H26.2528Z" fill="#6A0067"/>
<path d="M25.9055 38.6777C25.8679 38.8011 25.7997 38.9128 25.7075 39.002C25.6152 39.0913 25.502 39.1552 25.3784 39.1878C25.2918 39.2128 25.331 39.4454 25.3917 39.4127C25.5233 39.3397 25.6391 39.241 25.7326 39.1223C25.8261 39.0036 25.8953 38.8673 25.9363 38.7213C25.9436 38.6949 25.9216 38.6265 25.9049 38.6789L25.9055 38.6777Z" fill="#6A0067"/>
<path d="M35.8877 40.0393C35.7413 39.7188 35.5811 39.4062 35.4391 39.0832C35.3705 38.9289 35.2961 38.7782 35.22 38.6278C35.1621 38.5142 35.1161 38.3691 35.0125 38.2905C34.9667 38.2548 34.9667 38.402 34.9699 38.418C35.0363 38.7058 35.2312 38.9985 35.3833 39.2493C35.5532 39.5291 35.7019 39.8193 35.8666 40.1018C35.8824 40.1289 35.8943 40.0539 35.8877 40.0393Z" fill="#6A0067"/>
<path d="M35.4758 40.0277C35.2738 39.7269 35.0851 39.4092 34.9435 39.0753C34.8063 38.7513 34.6885 38.419 34.5533 38.0942C34.5277 38.0328 34.4925 38.0539 34.4632 38.0942C34.4273 38.1434 34.4419 38.2494 34.4632 38.3024C34.7182 38.9325 35.0305 39.5834 35.4532 40.1172C35.4797 40.1505 35.4907 40.0506 35.476 40.0284L35.4758 40.0277Z" fill="#6A0067"/>
<path d="M36.0806 38.7553C36.1234 38.9202 36.1857 39.0792 36.2661 39.229C36.3347 39.3556 36.4061 39.5266 36.5237 39.6106C36.56 39.6367 36.56 39.518 36.5511 39.502C36.4797 39.3734 36.372 39.2732 36.2995 39.1431C36.223 39.0029 36.1596 38.8557 36.1101 38.7035C36.0957 38.6612 36.076 38.7378 36.0808 38.7558L36.0806 38.7553Z" fill="#6A0067"/>
<path d="M36.402 38.7941C36.49 39.0438 36.6385 39.2942 36.8354 39.4713C36.872 39.5045 36.9115 39.322 36.8583 39.2798C36.6669 39.1277 36.5237 38.9689 36.4263 38.7387C36.4095 38.6993 36.3956 38.7756 36.402 38.7941Z" fill="#6A0067"/>
<path d="M36.7423 38.7193C36.7833 38.8653 36.8526 39.0016 36.9461 39.1203C37.0396 39.239 37.1555 39.3377 37.2871 39.4107C37.3489 39.4438 37.3851 39.2104 37.3004 39.1858C37.1768 39.1533 37.0635 39.0894 36.9712 39.0001C36.8789 38.9109 36.8108 38.7992 36.7732 38.6757C36.7565 38.6233 36.7345 38.6917 36.7416 38.7182L36.7423 38.7193Z" fill="#6A0067"/>
<path d="M43.0757 30.0972C43.0757 30.0972 44.6289 32.3097 45.3402 34.321C46.0516 36.3323 45.9873 39.6842 45.9873 39.6842C45.9873 39.6842 43.0105 37.2037 42.3634 36.3984C42.3634 36.3984 42.0398 33.9177 42.5576 33.1127C43.0755 32.3077 41.8398 30.2293 41.8398 30.2293L43.0757 30.0972Z" fill="#6A0067"/>
<path d="M46.1065 39.9462L45.9089 39.7815C45.7869 39.6799 42.9149 37.2838 42.2673 36.4788L42.2445 36.451L42.2399 36.4158C42.2264 36.3129 41.9164 33.8798 42.4531 33.0461C42.8419 32.4401 42.0642 30.855 41.7328 30.2955L41.6328 30.1271L43.1336 29.9651L43.1757 30.025C43.1912 30.0482 44.7469 32.2746 45.4562 34.2789C46.1676 36.2888 46.1134 39.5494 46.1106 39.687L46.1065 39.9462ZM42.4821 36.3478C43.054 37.0351 45.1947 38.8545 45.8649 39.4189C45.8622 38.5916 45.805 36.0056 45.2245 34.3634C44.5909 32.5736 43.2672 30.5966 43.0165 30.23L42.0427 30.3351C42.3309 30.8606 43.1311 32.4546 42.6624 33.1828C42.2072 33.889 42.4458 36.0447 42.4821 36.3478Z" fill="#F8F8F8"/>
<path d="M19.7178 30.0972C19.7178 30.0972 18.1647 32.3097 17.4533 34.321C16.7419 36.3323 16.8062 39.6842 16.8062 39.6842C16.8062 39.6842 19.783 37.2037 20.4301 36.3984C20.4301 36.3984 20.7538 33.9177 20.2361 33.1127C19.7185 32.3077 20.7451 30.5442 20.7451 30.5442L19.7178 30.0972Z" fill="#6A0067"/>
<path d="M16.6827 39.9452L16.6777 39.686C16.6751 39.5472 16.6207 36.2878 17.3321 34.2779C18.0412 32.2736 19.5966 30.0462 19.6126 30.024L19.6707 29.9412L20.9185 30.4859L20.8473 30.6083C20.5729 31.0805 19.9454 32.439 20.3354 33.0451C20.8718 33.8781 20.5619 36.3119 20.5484 36.4148L20.544 36.45L20.5212 36.4778C19.8736 37.2828 17.0018 39.6789 16.8799 39.7804L16.6827 39.9452ZM19.7576 30.2522C19.4715 30.6724 18.1864 32.608 17.5654 34.3624C16.9839 36.0053 16.927 38.5908 16.9249 39.4178C17.5951 38.8535 19.7366 37.0345 20.3075 36.3468C20.3439 36.0437 20.582 33.888 20.1282 33.1818C19.6522 32.4414 20.337 31.0324 20.5658 30.6048L19.7576 30.2522Z" fill="#F8F8F8"/>
<path d="M39.198 21.7506C37.4067 18.9029 35.109 17.847 31.4302 17.5703V17.5608L31.3666 17.5657L31.3028 17.5608V17.5703C27.624 17.8479 25.3266 18.9029 23.5351 21.7506C22.4767 23.4331 21.1813 27.9195 21.7232 29.3447C22.325 30.9274 30.2019 31.1516 31.3028 31.1752V31.1775L31.3666 31.1764L31.4302 31.1775V31.1752C32.5314 31.1521 40.4083 30.9274 41.0101 29.3447C41.5517 27.9195 40.2564 23.4331 39.198 21.7506Z" fill="#6A0067"/>
<path d="M31.175 31.3025V31.2951C30.4227 31.2768 28.3478 31.2067 26.3077 30.9665C23.4171 30.6264 21.8784 30.1104 21.6036 29.3871C21.0387 27.9008 22.3649 23.3695 23.4267 21.6803C24.3334 20.2389 25.3579 19.2544 26.6519 18.5819C27.8402 17.9637 29.2801 17.6034 31.1761 17.4511V17.4238L31.3639 17.4368L31.5515 17.4238V17.4511C33.4478 17.6034 34.8874 17.9637 36.076 18.5819C37.3686 19.2544 38.3931 20.2389 39.2998 21.6803C40.3616 23.3695 41.6881 27.9004 41.1229 29.3857C40.8484 30.1083 39.3094 30.625 36.4191 30.9651C34.3787 31.2053 32.3038 31.2754 31.5515 31.2937V31.2986H31.4257H31.3639L31.175 31.3025ZM31.3621 17.6888L31.3081 17.6927C27.4717 17.9813 25.3206 19.1373 23.636 21.8154C22.6234 23.425 21.3028 27.898 21.8349 29.297C21.9673 29.6453 22.7281 30.292 26.3363 30.7176C28.4887 30.9721 30.6809 31.0339 31.3015 31.0473L31.361 31.0487H31.3644L31.4239 31.0473C32.0444 31.0339 34.2374 30.9709 36.3891 30.7176C39.9973 30.2927 40.758 29.6453 40.8905 29.297C41.4225 27.898 40.1022 23.425 39.0896 21.8154C37.405 19.1373 35.2548 17.9813 31.4172 17.6927L31.3633 17.6888H31.3621Z" fill="#F8F8F8"/>
<path d="M31.3633 17.5664C31.3633 17.5664 31.2658 18.1053 31.1524 18.8978C31.0389 19.6904 30.9092 20.7367 30.8445 21.7514C30.7798 22.766 30.7475 25.1392 30.7313 27.2585C30.715 29.3778 30.715 31.2436 30.715 31.2436L30.3262 31.1781C30.3262 31.1781 30.3429 28.2181 30.4806 25.0367C30.5492 23.4461 30.6489 21.8 30.7914 20.4405C30.8628 19.7609 30.9449 19.1533 31.0396 18.6588C31.1343 18.1643 31.242 17.7878 31.3633 17.5664Z" fill="#F8F8F8"/>
<path d="M31.3668 17.5696C31.3668 17.5696 31.1902 18.0599 30.9626 18.7849C30.8969 18.9945 30.8269 19.2245 30.7544 19.4665C30.5744 20.0698 30.407 20.7623 30.2409 21.4334C30.1485 21.8139 30.0778 22.1995 30.0293 22.5883C29.8845 23.7316 29.7208 25.4219 29.6212 26.9426C29.5911 27.401 29.565 27.8425 29.5513 28.2456C29.5055 29.7559 29.4993 30.9827 29.4984 31.0489C29.4984 31.0616 29.4051 31.0528 29.4051 31.0528L29.1192 30.9936C29.1192 30.9936 29.1153 29.7697 29.2022 28.1893C29.2598 27.1798 29.3623 25.9321 29.5135 24.6613C29.5897 24.0238 29.681 23.381 29.7782 22.7565C29.9225 21.8267 30.1455 20.9477 30.3701 20.1753C30.4427 19.9254 30.5106 19.6852 30.5808 19.4594C30.6853 19.1236 30.7819 18.8152 30.8898 18.5509C31.0291 18.2144 31.1883 17.8866 31.3668 17.5696Z" fill="#F8F8F8"/>
<path d="M31.3672 17.5696C31.3672 17.5696 31.111 18.0113 30.7699 18.6687C30.6709 18.8596 30.5641 19.0692 30.4538 19.2902C30.1752 19.8456 29.908 20.4935 29.6345 21.1138C29.476 21.4702 29.3507 21.8408 29.2603 22.2208C29.0009 23.3271 28.6934 25.0817 28.5082 26.6247C28.4507 27.103 28.4007 27.5576 28.3766 27.961C28.2886 29.4391 28.2808 30.7201 28.2787 30.8534C28.2787 30.8786 28.201 30.8795 28.201 30.8795L27.9086 30.8085C27.9086 30.8085 27.8942 29.4713 28.0315 27.9031C28.123 26.8908 28.2904 25.5943 28.5425 24.2841C28.6671 23.6362 28.817 22.9883 28.9752 22.361C29.204 21.4602 29.5773 20.6323 29.9449 19.9083C30.0592 19.6817 30.1665 19.4614 30.2752 19.2564C30.4353 18.9538 30.5808 18.6724 30.7361 18.4405C31.0215 18.0148 31.2807 17.7279 31.3672 17.5696Z" fill="#F8F8F8"/>
<path d="M31.3672 17.5696C31.3672 17.5696 31.0303 17.9629 30.5767 18.5525C30.444 18.7249 30.3022 18.9144 30.1526 19.1144C29.7743 19.6234 29.3978 20.225 29.0277 20.7933C28.8319 21.0941 28.6345 21.4466 28.4908 21.8527C28.1127 22.9224 27.6632 24.7407 27.3945 26.3063C27.3091 26.804 27.2366 27.2721 27.2014 27.6754C27.0747 29.1219 27.0616 30.4568 27.0587 30.6553C27.0587 30.6932 26.996 30.7036 26.996 30.7036L26.6986 30.6206C26.6986 30.6206 26.6712 29.1714 26.8617 27.6162C27.0181 26.3651 27.2552 25.1258 27.5715 23.906C27.7435 23.2486 27.9501 22.5926 28.1722 21.9649C28.481 21.093 29.0034 20.3157 29.5195 19.6405C29.6752 19.4369 29.8221 19.2372 29.9696 19.0528C30.1853 18.7832 30.3829 18.5299 30.5824 18.329C30.9715 17.9375 31.2979 17.6962 31.3672 17.5696Z" fill="#F8F8F8"/>
<path d="M31.3678 17.5664C31.3678 17.5664 30.9497 17.9105 30.3843 18.433C30.2177 18.5866 30.0386 18.7569 29.8522 18.9351C29.3719 19.3946 28.8792 19.9477 28.4214 20.4697C28.1579 20.7705 27.9054 21.1032 27.722 21.4813C27.2208 22.5131 26.6318 24.3969 26.2809 25.9845C26.1665 26.5016 26.073 26.9829 26.0261 27.3867C25.8619 28.801 25.8431 30.19 25.8385 30.4547C25.8376 30.4695 25.8327 30.4838 25.8244 30.496C25.8161 30.5082 25.8047 30.518 25.7914 30.5242L25.4865 30.4291C25.4865 30.4291 25.449 28.8674 25.6896 27.3247C25.8497 26.3066 26.1441 24.9117 26.6002 23.5236C26.8201 22.8564 27.0767 22.2023 27.369 21.5642C27.7556 20.7201 28.4251 19.9907 29.0939 19.3683C29.2888 19.1866 29.4771 19.008 29.6635 18.8448C29.9346 18.6077 30.1871 18.3851 30.4286 18.2131C30.9261 17.8617 31.3159 17.6613 31.3678 17.5664Z" fill="#F8F8F8"/>
<path d="M31.3658 17.5664C31.3658 17.5664 30.8662 17.861 30.1889 18.3168C29.9885 18.4515 29.7728 18.6007 29.5484 18.759C28.9677 19.1695 28.3556 19.6679 27.8123 20.1492C27.4788 20.4447 27.1718 20.7622 26.9502 21.1132C26.3221 22.1049 25.5961 24.0542 25.166 25.6658C25.0228 26.2024 24.9082 26.6974 24.8497 27.1005C24.6489 28.4826 24.6209 29.9258 24.6171 30.2564C24.6184 30.2902 24.6071 30.3233 24.5853 30.349L24.274 30.2425C24.274 30.2425 24.2296 28.5689 24.5173 27.0382C24.7131 26.0176 25.0679 24.5734 25.6281 23.1467C25.8945 22.4661 26.2079 21.8053 26.5659 21.1692C27.028 20.3514 27.8448 19.6679 28.6685 19.1015C28.9023 18.9406 29.1321 18.7842 29.3577 18.6424C29.6836 18.4374 29.9915 18.2479 30.2749 18.103C30.879 17.7936 31.331 17.6298 31.3658 17.5664Z" fill="#F8F8F8"/>
<path d="M31.366 17.5664C31.366 17.5664 30.7837 17.8094 29.9959 18.2004C29.7614 18.3161 29.5094 18.4448 29.2479 18.5829C28.5663 18.943 27.8341 19.3824 27.2055 19.8287C26.8013 20.1157 26.4406 20.4199 26.1808 20.7448C25.4229 21.6935 24.5613 23.7117 24.0535 25.3472C23.8805 25.9026 23.7461 26.4116 23.6754 26.8159C23.4386 28.1665 23.4039 29.6631 23.3979 30.06C23.3988 30.0992 23.3932 30.1383 23.3814 30.1757L23.064 30.0567C23.064 30.0567 23.0084 28.2699 23.3464 26.7511C23.5768 25.7267 23.9897 24.231 24.6562 22.7676C24.9679 22.0718 25.3376 21.4042 25.7615 20.7719C26.2974 19.9791 27.2631 19.3386 28.2417 18.8326C28.5141 18.6917 28.7856 18.5582 29.0505 18.4376C29.4311 18.2647 29.7941 18.1102 30.1196 17.9905C30.834 17.7288 31.3487 17.5979 31.366 17.5664Z" fill="#F8F8F8"/>
<path d="M31.3637 17.5664C30.4769 17.734 29.6014 17.9576 28.7422 18.2358C27.3345 18.6931 25.7326 19.3956 24.9558 20.3776C23.4029 22.3414 22.5616 24.9592 22.1732 26.4658C21.7848 27.9724 21.8498 29.87 21.8498 29.87L22.1732 30.001C22.1732 30.001 22.1732 28.1036 22.4969 26.5312C22.8206 24.9589 24.2113 21.5892 25.409 20.3776C26.1533 19.6246 27.6419 18.9221 28.9444 18.4077C30.2468 17.8934 31.3637 17.5664 31.3637 17.5664Z" fill="#F8F8F8"/>
<path d="M31.4277 17.5664C31.4277 17.5664 31.5249 18.1053 31.6384 18.8978C31.7519 19.6904 31.8816 20.7367 31.9463 21.7514C32.011 22.766 32.0435 25.1392 32.0595 27.2585C32.0755 29.3778 32.0758 31.2436 32.0758 31.2436L32.4646 31.1781C32.4646 31.1781 32.4465 28.2183 32.3093 25.0369C32.2407 23.4463 32.1412 21.8002 31.9984 20.4408C31.9273 19.7612 31.845 19.1535 31.7505 18.659C31.656 18.1646 31.549 17.7878 31.4277 17.5664Z" fill="#F8F8F8"/>
<path d="M31.4277 17.5696C31.4277 17.5696 31.6041 18.0599 31.8317 18.7849C31.8976 18.9945 31.9676 19.2245 32.0398 19.4665C32.2201 20.0698 32.3873 20.7623 32.5534 21.4334C32.6459 21.8139 32.7166 22.1995 32.7649 22.5883C32.9097 23.7316 33.0735 25.4219 33.1732 26.9426C33.2032 27.401 33.2293 27.8425 33.2419 28.2456C33.2876 29.7559 33.2938 30.9827 33.2947 31.0489C33.2947 31.0616 33.388 31.0528 33.388 31.0528L33.6742 30.9936C33.6742 30.9936 33.6778 29.7697 33.5912 28.1893C33.5335 27.1798 33.431 25.9321 33.2796 24.6613C33.2034 24.0238 33.1122 23.381 33.0152 22.7565C32.8706 21.8267 32.6478 20.9477 32.4232 20.1753C32.3505 19.9254 32.2828 19.6852 32.2125 19.4594C32.1078 19.1236 32.0112 18.8152 31.9035 18.5509C31.7646 18.2144 31.6058 17.8867 31.4277 17.5696Z" fill="#F8F8F8"/>
<path d="M31.4277 17.5696C31.4277 17.5696 31.6839 18.0113 32.025 18.6687C32.1242 18.8596 32.2308 19.0692 32.3411 19.2902C32.6197 19.8456 32.8871 20.4935 33.1604 21.1138C33.3191 21.4702 33.4443 21.8408 33.5347 22.2208C33.7943 23.3271 34.1017 25.0817 34.287 26.6247C34.3444 27.103 34.3943 27.5576 34.4185 27.961C34.5063 29.4391 34.5141 30.7201 34.5162 30.8534C34.5162 30.8786 34.5942 30.8795 34.5942 30.8795L34.8863 30.8085C34.8863 30.8085 34.9005 29.4722 34.7632 27.904C34.6717 26.8917 34.5043 25.5952 34.2522 24.2851C34.1278 23.6372 33.9777 22.9893 33.8197 22.362C33.5909 21.4611 33.2176 20.6332 32.85 19.9092C32.7357 19.6827 32.6282 19.4624 32.5195 19.2574C32.3594 18.9547 32.2139 18.6733 32.0586 18.4415C31.7736 18.0148 31.5144 17.7279 31.4277 17.5696Z" fill="#F8F8F8"/>
<path d="M31.4277 17.5696C31.4277 17.5696 31.7647 17.9629 32.2183 18.5525C32.3509 18.7249 32.4927 18.9144 32.6423 19.1144C33.0207 19.6234 33.3972 20.225 33.7675 20.7933C33.9633 21.0941 34.1607 21.4466 34.3041 21.8527C34.6825 22.9224 35.1319 24.7407 35.4005 26.3063C35.486 26.804 35.5583 27.2721 35.5935 27.6754C35.7203 29.1219 35.7333 30.4568 35.7365 30.6553C35.7365 30.6932 35.7989 30.7036 35.7989 30.7036L36.0963 30.6206C36.0963 30.6206 36.124 29.1714 35.9332 27.6162C35.7764 26.3651 35.539 25.1258 35.2225 23.906C35.0503 23.2486 34.844 22.5926 34.6216 21.9649C34.3128 21.093 33.7906 20.3157 33.2743 19.6405C33.1188 19.4369 32.972 19.2372 32.8244 19.0528C32.6085 18.7832 32.4109 18.5299 32.2114 18.329C31.8235 17.9375 31.497 17.6962 31.4277 17.5696Z" fill="#F8F8F8"/>
<path d="M31.4277 17.5664C31.4277 17.5664 31.8459 17.9105 32.4113 18.433C32.5778 18.5866 32.7569 18.7569 32.9434 18.9351C33.4237 19.3946 33.9164 19.9477 34.3744 20.4697C34.6376 20.7705 34.8902 21.1032 35.0738 21.4813C35.5748 22.5131 36.1638 24.3969 36.5149 25.9845C36.6293 26.5016 36.7228 26.9829 36.7697 27.3867C36.9339 28.801 36.9527 30.19 36.9573 30.4547C36.9583 30.4695 36.9632 30.4838 36.9715 30.496C36.9799 30.5082 36.9913 30.518 37.0046 30.5242L37.3093 30.4291C37.3093 30.4291 37.347 28.8674 37.1062 27.3247C36.9461 26.3066 36.6517 24.9117 36.1958 23.5236C35.9758 22.8565 35.7191 22.2023 35.4268 21.5642C35.0402 20.7201 34.3709 19.9907 33.7019 19.3683C33.507 19.1866 33.3187 19.008 33.1323 18.8448C32.8612 18.6077 32.6089 18.3851 32.3672 18.2131C31.8697 17.8617 31.4797 17.6613 31.4277 17.5664Z" fill="#F8F8F8"/>
<path d="M31.4277 17.5664C31.4277 17.5664 31.9275 17.861 32.6044 18.3168C32.8047 18.4515 33.0204 18.6007 33.2448 18.759C33.8252 19.1695 34.4379 19.6677 34.9814 20.1492C35.3147 20.4447 35.6219 20.7622 35.8433 21.1132C36.4714 22.1049 37.1977 24.0542 37.6275 25.6658C37.7707 26.2024 37.8853 26.6974 37.9441 27.1005C38.1449 28.4826 38.1714 29.9258 38.1765 30.2564C38.1751 30.2903 38.1866 30.3234 38.2085 30.349L38.5196 30.2421C38.5196 30.2421 38.5639 28.5684 38.2762 27.0378C38.0804 26.0164 37.7256 24.5723 37.1661 23.1455C36.8997 22.4649 36.5863 21.8042 36.2283 21.168C35.7662 20.3503 34.9494 19.6668 34.1257 19.1003C33.8919 18.9395 33.6621 18.7831 33.4365 18.6412C33.1108 18.4362 32.8027 18.2467 32.5195 18.1018C31.9143 17.7936 31.4627 17.6298 31.4277 17.5664Z" fill="#F8F8F8"/>
<path d="M31.4277 17.5664C31.4277 17.5664 32.0099 17.8094 32.7977 18.2004C33.0321 18.3161 33.2844 18.4448 33.5456 18.5829C34.2275 18.943 34.9595 19.3824 35.588 19.8287C35.9922 20.1157 36.3532 20.4199 36.6128 20.7448C37.3708 21.6935 38.2323 23.7117 38.7401 25.3472C38.913 25.9026 39.0475 26.4116 39.1184 26.8159C39.3552 28.1665 39.3897 29.6631 39.3956 30.06C39.3948 30.0992 39.4004 30.1383 39.4123 30.1757L39.7296 30.0567C39.7296 30.0567 39.7843 28.2706 39.4462 26.7527C39.2158 25.7283 38.803 24.2326 38.1364 22.7693C37.8247 22.0735 37.4551 21.4058 37.0314 20.7735C36.4955 19.9808 35.5297 19.3403 34.5512 18.8342C34.2785 18.6933 34.007 18.5598 33.7421 18.4392C33.3615 18.2664 32.9985 18.1118 32.6732 17.9922C31.9598 17.7288 31.4449 17.5979 31.4277 17.5664Z" fill="#F8F8F8"/>
<path d="M31.4277 17.5664C32.3145 17.734 33.19 17.9576 34.0491 18.2358C35.457 18.6931 37.0588 19.3956 37.8354 20.3776C39.3885 22.3414 40.2299 24.9592 40.618 26.4658C41.0062 27.9724 40.9417 29.87 40.9417 29.87L40.618 30.001C40.618 30.001 40.618 28.1036 40.2946 26.5312C39.9711 24.9589 38.579 21.5892 37.3823 20.3776C36.6382 19.6246 35.1496 18.9221 33.8469 18.4077C32.5442 17.8934 31.4277 17.5664 31.4277 17.5664Z" fill="#F8F8F8"/>
<path d="M20.9626 24.9694C20.2291 24.1222 19.0277 24.0169 17.9019 24.7009C17.3145 25.0578 16.8387 25.5802 16.5619 26.1731C16.2502 26.8409 16.2147 27.5383 16.4597 28.1931C17.3893 30.6753 19.6707 31.5342 19.7672 31.5694L19.8972 31.617L19.9681 31.4969C19.977 31.4817 20.8801 29.9617 21.7751 29.2145L21.809 29.1858L21.8248 29.1439C21.8591 29.0532 22.637 26.9031 20.9626 24.9694Z" fill="#F8F8F8"/>
<path d="M19.6008 30.6383C18.9574 30.2894 17.7526 29.4601 17.1762 27.9183C17.0044 27.4594 17.0307 26.9835 17.2549 26.5038C17.4676 26.0482 17.8375 25.6437 18.2966 25.3646C18.6019 25.1795 18.9215 25.0652 19.2202 25.0351C19.5485 25.0021 20.0174 25.0523 20.3868 25.4796C21.555 26.8282 21.2752 28.2908 21.1512 28.736C20.5247 29.3027 19.9373 30.1272 19.6008 30.6383Z" fill="#6A0067"/>
<path d="M19.6381 30.8021L19.5388 30.7494C18.8643 30.3838 17.6444 29.5355 17.0556 27.9634C16.8715 27.4715 16.8992 26.9626 17.1382 26.4508C17.3612 25.9732 17.7483 25.5495 18.2282 25.258C18.5484 25.0629 18.8865 24.943 19.2035 24.9109C19.2616 24.9049 19.3199 24.9019 19.3783 24.9019C19.8156 24.9019 20.1951 25.0733 20.4762 25.3973C21.6904 26.7995 21.3882 28.3336 21.2667 28.7705L21.2564 28.8057L21.2297 28.8288C20.5993 29.3994 20.0009 30.2505 19.7003 30.707L19.6381 30.8021ZM19.3783 25.1518C19.3289 25.1518 19.2783 25.1543 19.228 25.1594C18.9473 25.1876 18.6456 25.2957 18.3558 25.4718C17.9175 25.7381 17.5646 26.1234 17.3624 26.557C17.1531 27.0048 17.1279 27.4476 17.2876 27.8734C17.8203 29.296 18.9004 30.0973 19.5576 30.4717C19.9268 29.9196 20.4632 29.1933 21.0373 28.6668C21.1549 28.2193 21.3914 26.8338 20.2896 25.5616C20.054 25.2897 19.7468 25.1518 19.3783 25.1518Z" fill="#F8F8F8"/>
<path d="M20.9626 24.9694C20.2291 24.1222 19.0277 24.0169 17.9019 24.7009C17.3145 25.0578 16.8387 25.5802 16.5619 26.1731C16.2502 26.8409 16.2147 27.5383 16.4597 28.1931C17.3893 30.6753 19.6707 31.5342 19.7672 31.5694L19.8972 31.617L19.9681 31.4969C19.977 31.4817 20.8801 29.9617 21.7751 29.2145L21.809 29.1858L21.8248 29.1439C21.8591 29.0532 22.637 26.9031 20.9626 24.9694ZM21.5256 28.984C20.7435 29.6532 19.993 30.8148 19.7563 31.1984C19.2739 30.983 17.5261 30.0836 16.7728 28.073C16.314 26.8478 17.0802 25.5953 18.0743 24.9913C18.3946 24.7974 18.7834 24.6466 19.1867 24.6061C19.7231 24.5522 20.2792 24.6945 20.7108 25.1927C21.3552 25.9368 21.6866 26.8055 21.6944 27.7745C21.7003 28.1841 21.6432 28.5922 21.5251 28.984H21.5256Z" fill="#6A0067"/>
<path d="M41.8222 24.9694C42.5557 24.1222 43.7571 24.0169 44.8829 24.7009C45.4703 25.0578 45.9461 25.5802 46.2229 26.1731C46.5346 26.8409 46.5701 27.5383 46.3251 28.1931C45.3955 30.6753 43.1143 31.5342 43.0175 31.5694L42.8876 31.617L42.8167 31.4969C42.8078 31.4817 41.9047 29.9617 41.0097 29.2145L40.9754 29.1858L40.9598 29.1439C40.9257 29.0532 40.148 26.9031 41.8222 24.9694Z" fill="#F8F8F8"/>
<path d="M43.1812 30.6383C43.8247 30.2894 45.0294 29.4601 45.6059 27.9183C45.7776 27.4594 45.7513 26.9835 45.5272 26.5038C45.3144 26.0482 44.9446 25.6437 44.4855 25.3646C44.1799 25.1795 43.8606 25.0652 43.5618 25.0351C43.2336 25.0021 42.7647 25.0523 42.3953 25.4796C41.2271 26.8282 41.5068 28.2908 41.6306 28.736C42.2573 29.3027 42.8447 30.1272 43.1812 30.6383Z" fill="#6A0067"/>
<path d="M43.1449 30.8019L43.0825 30.707C42.7819 30.2505 42.1835 29.3994 41.5531 28.8288L41.5263 28.8057L41.5165 28.7705C41.395 28.3336 41.0929 26.7995 42.307 25.3973C42.5877 25.0733 42.9674 24.9019 43.405 24.9019C43.4634 24.9019 43.5218 24.9049 43.58 24.9109C43.8968 24.9428 44.2339 25.0627 44.5551 25.258C45.0354 25.5495 45.422 25.9732 45.645 26.4508C45.8841 26.9626 45.9117 27.4715 45.7276 27.9634C45.1388 29.5355 43.919 30.3838 43.2444 30.7494L43.1449 30.8019ZM41.7457 28.6666C42.3198 29.1937 42.8562 29.9201 43.2254 30.4715C43.8837 30.0962 44.9638 29.2946 45.4954 27.8722C45.6555 27.4465 45.6299 27.0036 45.4206 26.5558C45.2184 26.1222 44.8655 25.737 44.4272 25.4706C44.1374 25.2945 43.8357 25.1865 43.555 25.1582C43.5047 25.1531 43.4542 25.1506 43.4047 25.1506C43.0358 25.1506 42.7291 25.2894 42.4935 25.5606C41.3916 26.8338 41.6281 28.2193 41.7457 28.6666Z" fill="#F8F8F8"/>
<path d="M40.9598 29.1438L40.9754 29.1857L41.0097 29.2144C41.9052 29.9616 42.8083 31.4821 42.8167 31.4969L42.8876 31.617L43.0175 31.5693C43.1143 31.5341 45.3964 30.6752 46.3251 28.193C46.5701 27.5391 46.5346 26.8408 46.2229 26.173C45.9461 25.5804 45.4703 25.0577 44.8829 24.7009C43.7571 24.0169 42.5557 24.1224 41.8222 24.9693C40.148 26.903 40.9257 29.0531 40.9598 29.1438ZM41.0897 27.7745C41.0987 26.8054 41.4301 25.9367 42.0747 25.1926C42.5061 24.6944 43.0622 24.5521 43.5985 24.606C44.0009 24.6465 44.3918 24.7974 44.7109 24.9913C45.705 25.5952 46.4722 26.8477 46.0124 28.073C45.2592 30.0835 43.5114 30.9829 43.029 31.1984C42.7918 30.8147 42.0417 29.6531 41.2595 28.9839C41.1414 28.5921 41.0843 28.1841 41.0902 27.7745H41.0897Z" fill="#6A0067"/>
<path d="M19.2359 36.717C19.6291 36.1191 19.9678 35.6422 19.8704 34.8568C19.8262 34.4986 19.7839 34.0912 19.288 33.9239C18.8511 33.7767 18.463 34.1203 18.2688 34.4149C17.9028 34.9702 17.8204 35.271 17.7834 35.9367C17.7747 36.0952 17.82 36.4724 17.9348 36.5807C18.1178 36.7529 18.4193 36.6305 18.5993 36.4562C18.875 36.1866 19.0408 35.8221 19.0639 35.4349C19.0725 35.2773 19.0181 35.0746 18.8621 35.06C18.8703 35.4076 18.7422 35.7444 18.506 35.9969C18.4538 36.052 18.3625 36.1027 18.3108 36.0469C18.2941 36.0249 18.2838 35.9986 18.2811 35.971C18.1937 35.4962 18.274 34.9364 18.6617 34.6548C18.7304 34.6046 18.8164 34.5639 18.8989 34.5854C18.9559 34.5995 19.0023 34.6409 19.0421 34.6847C19.2937 34.9605 19.3624 35.3687 19.3027 35.7387C19.1835 36.4673 17.9776 37.8034 17.4922 38.4416C17.8145 38.2 19.0099 37.0608 19.2359 36.717Z" fill="#F8F8F8"/>
<path d="M43.5772 36.717C43.1842 36.1191 42.8452 35.6422 42.9427 34.8568C42.987 34.4986 43.0291 34.0912 43.525 33.9239C43.9619 33.7767 44.3501 34.1203 44.5443 34.4149C44.9103 34.9702 44.9926 35.271 45.0297 35.9367C45.0384 36.0952 44.9931 36.4724 44.8785 36.5807C44.6955 36.7529 44.3938 36.6305 44.2152 36.4562C43.9392 36.1867 43.7733 35.8222 43.7504 35.4349C43.7417 35.2773 43.7961 35.0746 43.9523 35.06C43.944 35.4076 44.0719 35.7444 44.3082 35.9969C44.3604 36.052 44.4517 36.1027 44.5034 36.0469C44.5202 36.025 44.5305 35.9986 44.5331 35.971C44.6205 35.4962 44.5404 34.9364 44.1525 34.6548C44.0839 34.6046 43.9978 34.5639 43.9153 34.5854C43.8583 34.5995 43.8119 34.6409 43.7721 34.6847C43.5205 34.9605 43.4518 35.3687 43.5115 35.7387C43.6307 36.4673 44.8366 37.8034 45.322 38.4416C44.9986 38.2 43.8032 37.0608 43.5772 36.717Z" fill="#F8F8F8"/>
<path d="M19.2879 43.6981C19.2879 43.6981 19.1909 42.5198 20.8891 41.4888C20.8891 41.4888 19.4332 40.6544 18.7051 39.5742C18.7051 39.5742 19.4816 41.0961 20.2582 41.4397C20.2582 41.4397 19.0932 42.3236 18.9478 43.5019L19.2879 43.6981Z" fill="#F8F8F8"/>
<path d="M43.5113 43.6981C43.5113 43.6981 43.6083 42.5198 41.9102 41.4888C41.9102 41.4888 43.3661 40.6544 44.0942 39.5742C44.0942 39.5742 43.3164 41.0961 42.541 41.4397C42.541 41.4397 43.7058 42.3236 43.8515 43.5019L43.5113 43.6981Z" fill="#F8F8F8"/>
<path d="M21.6191 43.4038C21.6191 43.4038 22.8811 45.0236 24.0461 45.1712C24.0461 45.1712 22.7137 46.066 22.6279 47.0179L22.299 46.694C22.299 46.694 22.6878 45.7612 23.221 45.4176C23.2208 45.4167 21.8621 44.1892 21.6191 43.4038Z" fill="#F8F8F8"/>
<path d="M41.0029 43.4038C41.0029 43.4038 39.7411 45.0236 38.5762 45.1712C38.5762 45.1712 39.9083 46.066 39.9944 47.0179L40.3233 46.694C40.3233 46.694 39.9344 45.7612 39.401 45.4176C39.4012 45.4167 40.7602 44.1892 41.0029 43.4038Z" fill="#F8F8F8"/>
<path d="M31.3879 19.0908C32.3798 19.0908 33.1839 18.6731 33.1839 18.1578C33.1839 17.6426 32.3798 17.2249 31.3879 17.2249C30.3959 17.2249 29.5918 17.6426 29.5918 18.1578C29.5918 18.6731 30.3959 19.0908 31.3879 19.0908Z" fill="#6A0067"/>
<path d="M31.3927 19.2137C30.3162 19.2137 29.4727 18.7488 29.4727 18.1553C29.4727 17.5618 30.3176 17.0969 31.3927 17.0969C32.4678 17.0969 33.3141 17.5611 33.3141 18.1553C33.3141 18.7495 32.4696 19.2137 31.3927 19.2137ZM31.3927 17.3478C30.4864 17.3478 29.7206 17.718 29.7206 18.1553C29.7206 18.5926 30.4864 18.9629 31.3927 18.9629C32.299 18.9629 33.0648 18.5926 33.0648 18.1553C33.0648 17.718 32.2994 17.3478 31.3927 17.3478Z" fill="#F8F8F8"/>
<path d="M41.0533 29.3428C41.0533 29.3428 40.3932 29.582 39.1388 30.1064C37.9532 30.6013 32.0499 31.1516 31.4058 31.1722C30.7616 31.1516 24.8583 30.6013 23.6728 30.1064C22.4186 29.5827 21.7585 29.3428 21.7585 29.3428C21.7585 29.3428 19.5797 30.783 19.9759 32.6815C20.3673 34.5577 28.1083 35.6024 31.3488 35.6269H31.4632C34.7035 35.6024 42.4445 34.5577 42.8359 32.6815C43.2318 30.783 41.0533 29.3428 41.0533 29.3428Z" fill="#F8F8F8"/>
<path d="M31.4663 35.7484H31.2282V35.7463C29.687 35.7232 26.9984 35.4735 24.5719 34.967C23.261 34.6932 22.1992 34.3815 21.4153 34.0414C20.4813 33.6346 19.9568 33.1852 19.8567 32.7037C19.6865 31.8885 19.9525 31.0282 20.6257 30.216C20.9365 29.8421 21.2952 29.5119 21.6925 29.2342L21.7442 29.2002L21.8021 29.221C21.8087 29.2236 22.4794 29.4675 23.7221 29.9862C24.8869 30.4722 30.7609 31.0206 31.4078 31.0425C32.0549 31.0194 37.9289 30.4726 39.0934 29.9862C40.3359 29.4675 41.0066 29.2226 41.0132 29.221L41.0713 29.2002L41.1228 29.2342C41.5208 29.5114 41.8804 29.8412 42.1919 30.2149C42.8651 31.027 43.1297 31.8874 42.9609 32.7026C42.8605 33.1832 42.3362 33.6334 41.4021 34.0402C40.6191 34.3813 39.5575 34.693 38.2455 34.9658C35.8195 35.4723 33.1309 35.7218 31.5891 35.7451V35.7467L31.4663 35.7484ZM31.4087 35.4973H31.4654C32.9716 35.486 35.72 35.2384 38.1961 34.7215C40.9535 34.146 42.5595 33.4106 42.7178 32.6514C43.0588 31.0171 41.3563 29.7065 41.0388 29.4786C40.8501 29.548 40.2167 29.7884 39.1895 30.2174C37.9698 30.7265 32.0663 31.2719 31.4123 31.2927H31.4046C30.7515 31.2719 24.8477 30.7267 23.6274 30.2174C22.6002 29.7884 21.9665 29.5487 21.7778 29.4786C21.4603 29.7065 19.7581 31.0171 20.0989 32.6514C20.2574 33.4106 21.8632 34.146 24.6208 34.7215C27.0963 35.2384 29.845 35.485 31.3515 35.4973H31.4071H31.4087Z" fill="#6A0067"/>
<path d="M25.8 30.7825C25.8 30.7825 24.5703 32.2881 24.5703 33.4011C24.5703 34.5141 26.8348 34.7532 27.7413 34.8841C27.7413 34.8841 25.6705 34.5139 25.4116 33.2702C25.1527 32.0264 25.8 30.7825 25.8 30.7825Z" fill="#6A0067"/>
<path d="M29.3594 35.639L28.8418 33.4954C28.8418 33.4954 29.9818 34.9568 30.0857 35.6915L29.3594 35.639Z" fill="#6A0067"/>
<path d="M21.7605 29.3428L24.8953 32.6161L21.3359 29.8009L21.7605 29.3428Z" fill="#6A0067"/>
<path d="M30.0332 35.7449L30.2974 30.792L30.8114 35.7449H30.0332Z" fill="#6A0067"/>
<path d="M33.0446 35.639L33.562 33.4954C33.562 33.4954 32.4222 34.9568 32.3184 35.6915L33.0446 35.639Z" fill="#6A0067"/>
<path d="M32.3661 35.7449L32.1019 30.792L31.5879 35.7449H32.3661Z" fill="#6A0067"/>
<path d="M21.2694 30.3892C21.2694 30.3892 20.1694 31.5676 20.4281 32.5497C20.6868 33.5317 23.4051 34.1863 23.4051 34.1863C23.4051 34.1863 21.0761 33.2698 20.8165 32.4842C20.5569 31.6986 21.2694 30.3892 21.2694 30.3892Z" fill="#6A0067"/>
<path d="M21.6216 30.9709C21.6216 30.9709 20.877 31.7686 21.052 32.4331C21.227 33.0977 23.0677 33.5408 23.0677 33.5408C23.0677 33.5408 21.4907 32.9204 21.3155 32.3889C21.1403 31.8574 21.6216 30.9709 21.6216 30.9709Z" fill="#6A0067"/>
<path d="M22.1488 30.792C22.1488 30.792 21.4042 31.5894 21.5794 32.2542C21.7546 32.919 23.5944 33.3618 23.5944 33.3618C23.5944 33.3618 22.0177 32.7415 21.8425 32.2097C21.6673 31.678 22.1488 30.792 22.1488 30.792Z" fill="#6A0067"/>
<path d="M22.6743 30.6145C22.6743 30.6145 21.9298 31.4121 22.1048 32.0767C22.2797 32.7412 24.1193 33.1843 24.1193 33.1843C24.1193 33.1843 22.5423 32.5642 22.3671 32.0325C22.1919 31.5007 22.6743 30.6145 22.6743 30.6145Z" fill="#6A0067"/>
<path d="M41.2655 30.9709C41.2655 30.9709 42.0103 31.7686 41.835 32.4331C41.6598 33.0977 39.8203 33.5408 39.8203 33.5408C39.8203 33.5408 41.397 32.9204 41.5722 32.3889C41.7474 31.8574 41.2655 30.9709 41.2655 30.9709Z" fill="#6A0067"/>
<path d="M40.7384 30.792C40.7384 30.792 41.4829 31.5894 41.3077 32.2542C41.1325 32.919 39.293 33.3618 39.293 33.3618C39.293 33.3618 40.8697 32.7415 41.0449 32.2097C41.2201 31.678 40.7384 30.792 40.7384 30.792Z" fill="#6A0067"/>
<path d="M40.213 30.6145C40.213 30.6145 40.9578 31.4121 40.7825 32.0767C40.6073 32.7412 38.7676 33.1843 38.7676 33.1843C38.7676 33.1843 40.3445 32.5642 40.5197 32.0325C40.6949 31.5007 40.213 30.6145 40.213 30.6145Z" fill="#6A0067"/>
<path d="M37.0919 30.7825C37.0919 30.7825 38.3216 32.2881 38.3216 33.4011C38.3216 34.5141 36.0571 34.7532 35.1504 34.8841C35.1504 34.8841 37.2214 34.5139 37.4801 33.2702C37.7388 32.0264 37.0919 30.7825 37.0919 30.7825Z" fill="#6A0067"/>
<path d="M41.1271 29.3428L37.9922 32.6161L41.5514 29.8009L41.1271 29.3428Z" fill="#6A0067"/>
<path d="M41.6179 30.3892C41.6179 30.3892 42.7182 31.5676 42.4592 32.5497C42.2003 33.5317 39.4824 34.1863 39.4824 34.1863C39.4824 34.1863 41.8121 33.2698 42.0711 32.4842C42.33 31.6986 41.6179 30.3892 41.6179 30.3892Z" fill="#6A0067"/>
<path d="M30.8086 35.7027L31.1913 30.7092L31.5868 35.9047L30.8086 35.7027Z" fill="#6A0067"/>
<path d="M39.8672 21.6829C39.8672 21.6829 39.5435 25.8727 37.9915 26.1344C36.4395 26.3961 35.9207 25.48 36.4383 23.9086C36.956 22.3373 37.2797 21.0938 38.2504 20.2427C39.2212 19.3916 40.3848 17.8857 39.414 15.5949C38.4433 13.3042 35.9843 13.5654 35.9843 13.5654C35.9843 13.5654 38.1198 14.6129 38.2488 16.6429C38.3778 18.6729 36.1133 17.1666 35.5307 15.7264C34.9481 14.2862 35.466 11.864 35.466 11.864C35.466 11.864 33.3952 13.7614 33.9128 15.7264C34.4305 17.6914 35.6602 17.6238 35.4012 19.7198C35.1423 21.8157 33.7834 22.2729 33.1367 21.029C32.4901 19.785 33.9133 18.7382 33.9133 18.7382C33.9133 18.7382 31.2599 19.0001 31.9073 21.3569C32.5546 23.7136 34.1718 23.1897 34.1718 25.6774C34.1718 28.0043 31.4543 28.0975 31.103 28.0999H31.0655C30.7141 28.0975 27.9967 28.0043 27.9967 25.6774C27.9967 23.1897 29.6146 23.7134 30.2612 21.3569C30.9079 19.0004 28.2559 18.737 28.2559 18.737C28.2559 18.737 29.6798 19.7845 29.0336 21.0278C28.3874 22.2711 27.0276 21.8145 26.7691 19.7186C26.5106 17.6226 27.7383 17.6895 28.2559 15.7257C28.7735 13.7619 26.703 11.8633 26.703 11.8633C26.703 11.8633 27.2206 14.2853 26.638 15.7257C26.0554 17.1661 23.7907 18.6725 23.9201 16.6422C24.0496 14.612 26.1847 13.5647 26.1847 13.5647C26.1847 13.5647 23.7268 13.3042 22.7552 15.5949C21.7835 17.8857 22.9491 19.3916 23.9201 20.2427C24.8911 21.0938 25.2137 22.3375 25.7322 23.9086C26.2508 25.4798 25.7322 26.3963 24.1791 26.1344C22.6259 25.8725 22.3034 21.6829 22.3034 21.6829C22.3034 21.6829 20.815 24.2361 21.7858 26.3963C22.7565 28.5566 25.8614 28.8186 25.8614 28.8186C25.8614 28.8186 26.444 29.2119 27.3499 30.3897C28.1962 31.4891 30.1743 31.8533 31.1911 31.8533C32.1806 31.8533 33.9741 31.4891 34.8193 30.3897C35.7254 29.2115 36.3077 28.8186 36.3077 28.8186C36.3077 28.8186 39.414 28.5569 40.3848 26.3963C41.3556 24.2358 39.8672 21.6829 39.8672 21.6829Z" fill="#F8F8F8"/>
<path d="M31.1884 32.0167C30.0653 32.0167 28.0821 31.6104 27.2216 30.4909C26.4613 29.5022 25.9301 29.0744 25.8009 28.9769C25.2298 28.9086 24.6688 28.7724 24.1293 28.5711C22.9135 28.1169 22.0516 27.3887 21.636 26.4654C21.2243 25.547 21.1842 24.4139 21.5216 23.1884C21.7751 22.2703 22.1452 21.63 22.1607 21.6032L22.4174 21.1635L22.457 21.6726C22.5443 22.8029 23.0288 25.78 24.2009 25.9776C24.3543 26.0045 24.5097 26.0187 24.6654 26.02C25.0945 26.02 25.402 25.8941 25.5788 25.6458C25.8261 25.2987 25.8254 24.7165 25.5767 23.962C25.5237 23.8011 25.4723 23.6437 25.4228 23.4899C24.9909 22.1555 24.6496 21.1015 23.8115 20.3661C23.1608 19.7958 22.7047 19.174 22.4565 18.5182C22.1068 17.5945 22.1566 16.59 22.6045 15.5333C22.9609 14.6922 23.5467 14.0857 24.3457 13.7305C24.9982 13.4403 25.6316 13.3971 25.9509 13.3971C26.1024 13.3971 26.1936 13.4065 26.1975 13.407L26.7374 13.4644C26.7086 12.9387 26.6437 12.4158 26.5429 11.8993L26.4395 11.4089L26.8071 11.7458C27.1878 12.1127 27.523 12.525 27.8053 12.9736C28.4229 13.9547 28.6306 14.9215 28.4071 15.7693C28.1837 16.6171 27.8321 17.1012 27.5212 17.5256C27.1065 18.0943 26.779 18.5437 26.9222 19.7007C27.0793 20.9733 27.6512 21.5539 28.1157 21.5539C28.4131 21.5539 28.6876 21.341 28.888 20.9548C29.4642 19.8474 28.1718 18.8787 28.1587 18.869L27.6852 18.5208L28.2678 18.5784C28.3221 18.5837 29.6046 18.7198 30.2121 19.6164C30.5379 20.0963 30.6049 20.6966 30.4116 21.4005C30.106 22.5158 29.5858 23.0167 29.1265 23.458C28.583 23.98 28.1537 24.3921 28.1537 25.6794C28.1537 27.7189 30.4422 27.9197 30.9798 27.9387L31.0825 27.9405L31.1811 27.9387C31.7129 27.9204 34.0101 27.7228 34.0101 25.6794C34.0101 24.3931 33.581 23.9807 33.0375 23.458C32.578 23.0167 32.0574 22.5165 31.7511 21.4009C31.5578 20.697 31.6248 20.0968 31.9503 19.6169C32.5583 18.7202 33.8408 18.5842 33.8946 18.5789L34.4772 18.5212L34.0037 18.8695C33.7725 19.0516 33.5711 19.2694 33.4069 19.5148C33.081 20.0133 33.0366 20.498 33.2745 20.9553C33.4753 21.3415 33.7496 21.5543 34.0465 21.5543C34.5111 21.5543 35.0829 20.9742 35.24 19.7011C35.383 18.5442 35.0557 18.0943 34.641 17.526C34.3308 17.1005 33.9795 16.6183 33.7558 15.7698C33.5321 14.9212 33.7404 13.9552 34.3578 12.9741C34.6401 12.5255 34.9752 12.1132 35.3558 11.7463L35.7243 11.4089L35.6186 11.8995C35.5179 12.416 35.453 12.939 35.4244 13.4646L35.9638 13.4072C35.9677 13.4072 36.0592 13.3973 36.2106 13.3973C36.5308 13.3973 37.1631 13.4406 37.8161 13.7307C38.6149 14.0859 39.2007 14.6924 39.557 15.5335C40.0049 16.5905 40.0546 17.595 39.7048 18.5185C39.4566 19.1742 39.0007 19.796 38.35 20.3664C37.5119 21.1013 37.1706 22.155 36.7387 23.4902C36.6889 23.6444 36.6376 23.8019 36.5848 23.9627C36.3362 24.7172 36.3352 25.2997 36.5825 25.6467C36.7596 25.8948 37.0668 26.0207 37.4959 26.0207C37.6516 26.0194 37.807 26.0053 37.9604 25.9783C39.1339 25.7807 39.6174 22.8036 39.7046 21.6733L39.7439 21.1642L40.0008 21.6039C40.0163 21.6307 40.3864 22.271 40.6399 23.1891C40.9782 24.4155 40.9389 25.5477 40.5255 26.4661C40.1106 27.3894 39.2489 28.1175 38.0323 28.5718C37.4928 28.7731 36.9317 28.9093 36.3606 28.9776C36.2316 29.0748 35.7005 29.5024 34.9399 30.4916C34.0147 31.6979 32.0812 32.0167 31.1884 32.0167ZM22.2005 22.2478C21.8359 23.0737 21.2467 24.8181 21.9261 26.3319C22.8474 28.3825 25.8409 28.6576 25.8711 28.6602L25.9121 28.6636L25.9464 28.6868C25.9711 28.7034 26.5608 29.1077 27.4723 30.2929C28.2571 31.3138 30.1675 31.6942 31.1875 31.6942C32.1624 31.6942 33.8996 31.3212 34.6899 30.2929C35.6015 29.1077 36.1911 28.7034 36.2158 28.6868L36.2499 28.6636L36.2909 28.6602C36.3211 28.6576 39.3162 28.3795 40.2362 26.3319C40.9164 24.8181 40.3277 23.0737 39.9617 22.2478C39.893 22.7884 39.7926 23.3245 39.6609 23.853C39.2789 25.3538 38.7231 26.1757 38.0121 26.2958C37.8413 26.3254 37.6683 26.3409 37.495 26.3421C36.9652 26.3421 36.5599 26.1664 36.3231 25.833C36.0134 25.3985 35.999 24.7156 36.2815 23.8585C36.3343 23.6982 36.3851 23.5413 36.435 23.3879C36.8822 22.0062 37.2356 20.915 38.1402 20.1218C39.5984 18.8433 39.9761 17.3418 39.2631 15.6589C38.6309 14.1667 37.3467 13.8078 36.5654 13.7351C36.7797 13.8839 36.9831 14.0482 37.174 14.2266C37.9243 14.9298 38.3502 15.7621 38.4058 16.6331C38.4337 17.0711 38.3566 17.3918 38.1771 17.5862C38.0531 17.7199 37.8815 17.7907 37.6809 17.7907C36.9293 17.7907 35.7909 16.7988 35.3821 15.7878C34.95 14.7199 35.0959 13.1677 35.2163 12.3602C34.6673 12.994 33.7105 14.3381 34.0655 15.6853C34.2736 16.4748 34.606 16.9309 34.8992 17.3333C35.3382 17.9349 35.717 18.4551 35.5582 19.7398C35.3752 21.2149 34.6687 21.875 34.0485 21.8753C33.6336 21.8753 33.2493 21.5941 32.9945 21.104C32.701 20.5401 32.7543 19.9258 33.1485 19.3276C33.2201 19.2194 33.2989 19.1162 33.3843 19.0187C33.0007 19.1381 32.5052 19.3684 32.2138 19.799C31.9446 20.1968 31.8936 20.7061 32.0594 21.3132C32.3421 22.3427 32.8079 22.7902 33.2583 23.2227C33.8095 23.7521 34.3304 24.2524 34.3304 25.6771C34.3304 27.9741 31.8659 28.2298 31.2241 28.2575V28.2615H31.0843H30.9427V28.2573C30.2995 28.2312 27.8351 27.9766 27.8351 25.6784C27.8351 24.2538 28.3559 23.7535 28.9069 23.2241C29.3576 22.7916 29.8233 22.3448 30.106 21.3146C30.2727 20.707 30.2204 20.197 29.9507 19.7992C29.6581 19.3688 29.1631 19.1374 28.7793 19.0192C28.865 19.1169 28.944 19.2205 29.0158 19.329C29.4102 19.9272 29.4635 20.5415 29.17 21.1054C28.9152 21.5955 28.5295 21.8767 28.1157 21.8767C27.4954 21.8767 26.789 21.2163 26.6061 19.7411C26.4473 18.456 26.8261 17.9363 27.2648 17.3347C27.5581 16.9323 27.8907 16.4762 28.0986 15.6867C28.4552 14.3365 27.4984 12.9935 26.9494 12.3602C27.0697 13.1677 27.2159 14.7204 26.7838 15.7887C26.375 16.7995 25.2364 17.7914 24.4847 17.7917C24.2841 17.7917 24.1126 17.7209 23.9886 17.5871C23.8086 17.393 23.7315 17.0723 23.7599 16.634C23.8154 15.7621 24.2402 14.9298 24.9916 14.2275C25.1819 14.0496 25.3846 13.8858 25.5982 13.7374C24.8169 13.8108 23.5325 14.169 22.8991 15.6612C22.1861 17.3432 22.5638 18.8447 24.0215 20.1232C24.9264 20.9164 25.2796 22.0079 25.727 23.3895C25.7769 23.5428 25.828 23.6997 25.8803 23.8599C26.1628 24.7161 26.1483 25.3996 25.8386 25.8344C25.6019 26.1667 25.1968 26.3435 24.6668 26.3435C24.4935 26.3423 24.3206 26.3268 24.1499 26.2972C23.4378 26.1771 22.8831 25.3552 22.5009 23.8544C22.3694 23.3254 22.2691 22.7889 22.2005 22.2478ZM35.4249 13.4727C35.3867 14.1984 35.4212 15.0362 35.6765 15.6668C36.0308 16.5428 37.0608 17.4693 37.6805 17.4691C37.7948 17.4691 37.8804 17.4356 37.9444 17.3666C38.0588 17.2416 38.1096 16.9964 38.0881 16.6548C37.9662 14.7452 35.9329 13.7226 35.9123 13.7124L35.4249 13.4727ZM26.7394 13.4727L26.252 13.7118C26.2316 13.7219 24.1981 14.7445 24.0764 16.6541C24.0547 16.995 24.1043 17.2412 24.2201 17.3659C24.2841 17.4353 24.3704 17.4684 24.4838 17.4684C25.1037 17.4684 26.1337 16.5428 26.488 15.6661C26.7435 15.0362 26.7774 14.1986 26.7394 13.4734V13.4727Z" fill="#6A0067"/>
<path d="M25.9309 13.5013C25.487 13.6621 25.0444 13.9162 24.6562 14.1862C24.2936 14.4387 23.9585 14.7402 23.7124 15.1118C23.2343 15.8338 23.0392 16.8526 23.3174 17.6884C23.5967 18.5279 24.5452 18.713 25.2827 18.3967C26.0968 18.0475 26.7169 17.2589 27.098 16.4749C27.5188 15.6139 27.6574 14.6395 27.4935 13.6934C27.4884 13.6651 27.4729 13.6857 27.4756 13.7047C27.7044 15.2851 27.0218 17.0537 25.6711 17.9288C25.0517 18.3303 24.1184 18.5073 23.5864 17.8513C23.3041 17.5028 23.2842 16.9653 23.3327 16.5363C23.3832 16.0965 23.529 15.6734 23.7595 15.2972C24.0047 14.8971 24.3405 14.5736 24.7227 14.3091C25.1116 14.0393 25.5446 13.8503 25.9424 13.5964C25.9653 13.5818 25.9653 13.4893 25.9309 13.5013Z" fill="#6A0067"/>
<path d="M22.8753 18.1654C23.0434 19.2508 24.2745 19.6905 24.8772 20.4812C25.318 21.0596 25.5362 21.7969 25.7617 22.4797C25.8865 22.8573 26.0034 23.2374 26.1124 23.6198C26.2192 23.9937 26.3297 24.3718 26.3679 24.7605C26.4102 25.1891 26.345 25.6167 26.084 25.9668C25.8642 26.2602 25.5744 26.4569 25.2034 26.4573C25.1716 26.4573 25.1707 26.5605 25.2034 26.5626C25.7919 26.601 26.2478 26.1135 26.4031 25.578C26.6156 24.845 26.3535 24.0462 26.149 23.3435C25.9276 22.5831 25.6956 21.808 25.3781 21.0821C25.2363 20.7581 25.0632 20.4434 24.8314 20.176C24.6453 19.961 24.4254 19.7805 24.201 19.6081C23.6733 19.2025 23.064 18.8445 22.8956 18.1457C22.8883 18.1156 22.8728 18.1501 22.8753 18.1654Z" fill="#6A0067"/>
<path d="M22.0084 23.5059C21.746 24.4527 21.8734 25.5259 22.3181 26.3967C22.8145 27.3685 23.6857 28.0322 24.7494 28.2406C25.4093 28.365 26.0891 28.3266 26.7312 28.1286C26.7568 28.1208 26.7527 28.0241 26.7255 28.0287C25.6504 28.2059 24.5273 28.1386 23.5805 27.5404C22.7728 27.0314 22.2387 26.1653 22.0361 25.2339C21.9137 24.6712 21.9201 24.1038 22.034 23.5404C22.0381 23.5198 22.0205 23.4624 22.0084 23.5059Z" fill="#6A0067"/>
<path d="M26.2929 28.126C26.4072 28.5571 26.7046 28.984 26.9647 29.3383C27.2384 29.714 27.5605 30.0511 27.9224 30.3407C28.6644 30.9291 29.6608 31.3479 30.6181 31.2311C30.6588 31.2262 30.6595 31.1008 30.6181 31.098C29.6535 31.0312 28.7653 30.729 27.9986 30.1223C27.6405 29.835 27.3183 29.5048 27.039 29.1388C26.9094 28.9713 26.7874 28.7978 26.673 28.6182C26.5612 28.4412 26.4642 28.2089 26.3219 28.058C26.2922 28.0263 26.2885 28.1121 26.2922 28.126H26.2929Z" fill="#6A0067"/>
<path d="M27.6951 24.4881C27.8488 24.128 28.0364 23.8198 28.3127 23.5419C28.5698 23.2842 28.8551 23.0576 29.1133 22.8015C29.5911 22.3306 30.0701 21.6908 29.9773 20.9735C29.9686 20.9066 29.9294 20.9378 29.9274 20.989C29.8972 21.7757 29.3519 22.3452 28.8224 22.8619C28.3747 23.2985 27.8221 23.8059 27.6686 24.4418C27.6649 24.4562 27.678 24.5235 27.6938 24.4865L27.6951 24.4881Z" fill="#6A0067"/>
<path d="M29.2382 19.5165C29.5081 19.923 29.6698 20.3701 29.5305 20.8604C29.412 21.2783 29.1268 21.5884 28.7756 21.8232C28.7528 21.839 28.7528 21.9389 28.7878 21.9246C29.6707 21.5437 29.9452 20.1442 29.2537 19.4556C29.2308 19.4325 29.229 19.5019 29.2382 19.5165Z" fill="#6A0067"/>
<path d="M27.9009 14.5011C27.9967 15.217 27.83 15.8591 27.509 16.4929C27.4992 16.5125 27.5132 16.6107 27.537 16.5755C27.9375 15.9817 28.047 15.1783 27.9343 14.48C27.9256 14.4268 27.8961 14.4656 27.9009 14.5011Z" fill="#6A0067"/>
<path d="M36.3174 13.5964C36.6656 13.8186 37.0444 13.9863 37.3925 14.2122C37.7493 14.4435 38.0771 14.7131 38.3365 15.0554C38.8432 15.7236 39.1492 16.7653 38.829 17.5824C38.5142 18.3842 37.5023 18.4154 36.846 18.0801C36.1408 17.7191 35.5672 17.0592 35.2174 16.3491C34.8201 15.5417 34.6556 14.599 34.7851 13.7047C34.7879 13.686 34.7723 13.6649 34.7673 13.6934C34.621 14.5288 34.7116 15.3891 35.0287 16.1746C35.3538 16.9845 35.9126 17.7712 36.6608 18.2314C37.3275 18.6415 38.3534 18.7336 38.8173 17.9647C39.049 17.5815 39.0813 17.0768 39.0522 16.6392C39.0243 16.1974 38.9048 15.7664 38.7016 15.3742C38.4728 14.9346 38.1348 14.5828 37.7438 14.2881C37.3227 13.9704 36.8239 13.6806 36.3286 13.5013C36.2952 13.4893 36.2943 13.5818 36.3172 13.5964H36.3174Z" fill="#6A0067"/>
<path d="M39.3615 18.1464C39.2124 18.7654 38.7211 19.1044 38.2471 19.464C37.74 19.8476 37.3047 20.2341 37.0071 20.8121C36.6523 21.5014 36.4305 22.2773 36.2054 23.0175C35.9844 23.7452 35.6983 24.5403 35.8007 25.3134C35.8847 25.9481 36.3566 26.6092 37.0538 26.5629C37.0863 26.5608 37.0858 26.4578 37.0538 26.4576C36.3499 26.4564 35.9014 25.7421 35.8774 25.0898C35.8627 24.6905 35.9588 24.2957 36.0627 23.9132C36.1639 23.5413 36.2732 23.1716 36.3904 22.8041C36.6123 22.1053 36.825 21.3547 37.2118 20.7269C37.5346 20.2031 38.0245 19.8763 38.4765 19.4807C38.8832 19.1245 39.295 18.7275 39.3821 18.1656C39.3844 18.1506 39.3688 18.1152 39.3615 18.146V18.1464Z" fill="#6A0067"/>
<path d="M40.2226 23.5404C40.42 24.5161 40.2754 25.5445 39.7651 26.4038C39.2351 27.297 38.3469 27.8757 37.3347 28.0502C36.7267 28.155 36.1375 28.1286 35.5307 28.0287C35.503 28.0241 35.4998 28.1212 35.5247 28.1286C36.6181 28.4676 37.9086 28.3517 38.8572 27.676C39.672 27.0952 40.1789 26.1505 40.331 25.1647C40.4154 24.618 40.3957 24.0399 40.2477 23.5059C40.2356 23.4624 40.218 23.5198 40.2221 23.5404H40.2226Z" fill="#6A0067"/>
<path d="M35.9372 28.058C35.8013 28.2022 35.7084 28.4243 35.6014 28.5937C35.4836 28.7816 35.3568 28.9633 35.2207 29.1388C34.9409 29.5046 34.6183 29.8349 34.26 30.1223C33.4949 30.7299 32.6058 31.0307 31.6421 31.098C31.6009 31.1008 31.6012 31.2262 31.6421 31.2311C32.5987 31.3468 33.5967 30.9303 34.3378 30.3407C34.692 30.0572 35.0081 29.7283 35.2782 29.3621C35.5451 29.0018 35.85 28.5659 35.9674 28.126C35.971 28.1121 35.9674 28.0263 35.9376 28.058H35.9372Z" fill="#6A0067"/>
<path d="M34.5918 24.4422C34.4383 23.8063 33.8857 23.2989 33.4381 22.8623C32.9085 22.3456 32.363 21.7763 32.333 20.9894C32.331 20.9403 32.2921 20.9047 32.2832 20.9739C32.1901 21.6912 32.6695 22.3301 33.1471 22.8019C33.4063 23.0564 33.6913 23.2836 33.9477 23.5423C34.2247 23.82 34.412 24.1284 34.5653 24.4885C34.5811 24.5257 34.5939 24.4577 34.5905 24.4438L34.5918 24.4422Z" fill="#6A0067"/>
<path d="M33.0067 19.4554C32.3152 20.144 32.5897 21.5435 33.4726 21.9244C33.5067 21.9392 33.509 21.839 33.4848 21.823C33.1332 21.5879 32.8489 21.2783 32.7299 20.8602C32.5904 20.3701 32.7528 19.9226 33.0223 19.5163C33.0314 19.5028 33.0296 19.4327 33.0069 19.4554H33.0067Z" fill="#6A0067"/>
<path d="M34.3231 14.48C34.2103 15.1783 34.3199 15.9817 34.7204 16.5755C34.7447 16.6113 34.7577 16.5116 34.7483 16.4929C34.4281 15.8591 34.2609 15.217 34.3565 14.501C34.3613 14.4661 34.3318 14.4265 34.3231 14.48Z" fill="#6A0067"/>
<path d="M19.3947 28.686C19.5074 28.2351 19.9285 27.8567 19.8643 27.3963C19.8258 27.1207 19.6204 26.9055 19.4754 26.6697C19.3304 26.4339 19.2513 26.0961 19.4452 25.8989C19.0312 26.1535 18.8166 26.6984 18.9447 27.1716C18.6291 26.8393 18.0273 26.8583 17.7324 27.2098C18.1787 27.1489 18.6403 27.4985 18.7082 27.9488C18.7377 28.143 18.7023 28.3406 18.7059 28.537C18.7155 29.0361 19.0223 29.5959 19.4889 29.765C19.4466 29.4216 19.3048 29.0459 19.3947 28.686Z" fill="#F8F8F8"/>
<path d="M20.47 27.3857C20.3726 27.7361 20.102 28.0059 19.9211 28.3213C19.7401 28.6366 19.6747 29.0881 19.9464 29.3269L20.3875 28.6767C20.6132 28.299 20.5464 27.8203 20.47 27.3857Z" fill="#F8F8F8"/>
<path d="M43.4606 28.686C43.3478 28.2351 42.9269 27.8567 42.991 27.3963C43.0294 27.1207 43.2348 26.9055 43.3798 26.6697C43.5248 26.4339 43.6042 26.0961 43.41 25.8989C43.824 26.1535 44.0388 26.6984 43.9105 27.1716C44.2264 26.8393 44.8282 26.8583 45.1228 27.2098C44.6768 27.1489 44.2152 27.4985 44.147 27.9488C44.1177 28.143 44.1532 28.3406 44.1493 28.537C44.1397 29.0361 43.8332 29.5959 43.3666 29.765C43.4086 29.4216 43.5507 29.0459 43.4606 28.686Z" fill="#F8F8F8"/>
<path d="M42.3804 27.3857C42.478 27.7361 42.7486 28.0059 42.9293 28.3213C43.1101 28.6366 43.1757 29.0881 42.904 29.3269L42.4627 28.6767C42.2374 28.299 42.3047 27.8203 42.3804 27.3857Z" fill="#F8F8F8"/>
</svg>
