<svg width="63" height="63" viewBox="0 0 63 63" fill="none" xmlns="http://www.w3.org/2000/svg">
<path d="M0.5 31.1658V5.9639L5.85355 0.610352H31.0554H56.2573L61.6108 5.9639V31.1658V56.3676L56.2573 61.7212H31.0554H5.85355L0.5 56.3676V31.1658Z" fill="#F8F8F8" stroke="#D0D5DD"/>
<g clip-path="url(#clip0_637_29928)">
<path d="M31.3128 11.9865C35.6805 11.9865 40.0482 11.9865 44.4156 11.9865C44.7535 11.9865 45.0913 11.9751 45.4292 11.9712C47.2406 11.9518 48.4238 13.0175 48.613 14.8485C48.6401 15.11 48.6406 15.3741 48.6434 15.637C48.6833 18.5565 48.7156 21.4763 48.7608 24.3956C48.8235 28.4486 48.9026 32.5013 48.9614 36.5541C49.0045 39.5361 48.6094 42.4871 48.2916 45.4417C48.1722 46.5524 47.4196 47.2573 46.5655 47.8551C46.3754 47.9936 46.1652 48.1014 45.9424 48.175C44.6795 48.5573 43.4409 48.9905 42.0786 48.9677C34.7214 48.8429 27.3638 48.7434 20.0058 48.669C19.1002 48.6686 18.1951 48.7155 17.2943 48.8097C15.3926 48.9875 13.8159 48.3953 12.6078 46.8751C12.2584 46.4423 12.0722 45.8979 12.0824 45.339C12.1162 42.2875 12.1554 39.2364 12.2001 36.1853C12.2727 31.7113 12.3621 27.2376 12.4365 22.7636C12.4721 20.6319 12.3967 18.4933 12.5429 16.3699C12.6786 14.4004 13.7561 13.1695 15.4414 12.715C16.8539 12.3339 18.275 12.3643 19.6934 12.3195C23.5652 12.1964 27.4395 12.1475 31.3128 12.069V11.9865ZM31.2143 22.3426C31.222 22.4013 31.2331 22.4594 31.2477 22.5168C32.2848 25.6829 33.3324 28.8457 34.3489 32.0187C34.4742 32.4094 34.7255 32.5356 35.0372 32.6838C37.1064 33.6677 39.1697 34.6643 41.2352 35.656C41.3959 35.733 41.5596 35.8037 41.6839 35.8602C41.762 35.831 41.7931 35.8294 41.8089 35.812C43.2831 34.2543 44.7612 32.7004 46.2205 31.1285C46.3702 30.9524 46.4542 30.729 46.458 30.4968C46.4428 28.918 46.4694 27.3335 46.3445 25.762C46.1814 23.3984 46.1752 21.0263 46.3257 18.6618C46.3693 17.6137 46.3124 16.5638 46.1561 15.5268C46.0285 14.5985 45.9007 14.4086 45.0223 14.3289C44.6111 14.2916 44.2017 14.2075 43.7913 14.1975C42.8817 14.1753 41.97 14.2128 41.0617 14.1728C40.8696 14.164 40.6776 14.1957 40.4982 14.2661C40.3188 14.3364 40.1558 14.4439 40.0196 14.5815C37.1041 17.1613 34.181 19.7307 31.2143 22.3426ZM22.7692 14.203C21.594 14.203 20.454 14.1985 19.3139 14.2048C18.7168 14.2082 18.1156 14.1895 17.5233 14.251C15.4177 14.4685 14.4183 15.612 14.5539 17.9116C14.7455 21.164 14.8052 24.4285 14.7991 27.6877C14.7934 30.8166 14.6308 33.945 14.5408 37.0736C14.5353 37.2632 14.5631 37.4535 14.5762 37.6561L27.5549 29.0922C26.1658 24.0723 24.5127 19.1834 22.7692 14.203ZM28.1549 31.4373C28.0441 31.4905 28.0193 31.4996 27.9974 31.5134C23.5571 34.3332 19.1162 37.1518 14.6745 39.9691C14.5735 40.0263 14.4907 40.1116 14.4362 40.2151C14.3816 40.3185 14.3575 40.4354 14.3668 40.5524C14.371 41.7884 14.3239 43.0266 14.3829 44.2598C14.4394 45.4421 15.1029 46.337 16.09 46.5294C17.1546 46.7635 18.2382 46.8986 19.3271 46.9327C23.6394 46.9599 27.952 46.9137 32.2643 46.8919C32.4827 46.8908 32.7009 46.8623 32.9682 46.8433C30.9748 41.8012 29.7976 36.5765 28.1549 31.4373ZM35.4811 35.0595L35.2875 35.194C36.5985 39.0845 37.9094 42.975 39.2466 46.9442C40.5921 46.9442 41.9185 46.994 43.2386 46.9233C43.9099 46.866 44.5693 46.7102 45.196 46.4604C45.8866 46.2064 46.4076 45.7026 46.4524 44.9008C46.5197 43.6967 46.5542 42.4914 46.5559 41.2849C46.5559 41.1232 46.3127 40.9092 46.133 40.808C45.158 40.2579 44.1685 39.7346 43.1828 39.2039C40.6159 37.8212 38.0488 36.4403 35.4811 35.0595ZM24.6987 14.2741C24.7668 14.4966 24.8081 14.6675 24.8704 14.8303C25.4428 16.3247 26.0455 17.8077 26.5877 19.3128C27.8777 22.8904 28.9679 26.5306 29.9815 30.1993C31.0011 33.8901 32.1407 37.5475 33.2673 41.2071C33.8523 43.1074 34.5228 44.9805 35.1462 46.8403H36.8381C32.7121 36.1342 29.791 25.089 26.0999 14.2741H24.6987ZM30.5207 20.3291L37.8105 14.2269H28.236C29.0185 16.3165 29.7684 18.3198 30.5207 20.3291ZM46.5971 38.5161V33.5539L46.4492 33.5059L43.581 36.9023L46.5971 38.5161Z" fill="#6A0067"/>
<path d="M39.7407 25.7248C39.9122 25.7933 40.0786 25.8738 40.2388 25.9659C41.7155 26.8905 43.1897 27.8197 44.6613 28.7531C45.2692 29.1365 45.4122 29.6597 45.0654 30.2917C44.9614 30.4736 44.8401 30.6447 44.7032 30.8027C44.0161 31.6236 43.3292 32.4448 42.6277 33.2529C42.459 33.4471 42.2236 33.58 42.038 33.7607C41.5454 34.2417 41.0198 34.2058 40.4736 33.8824C39.7128 33.4311 38.9544 32.9763 38.1985 32.5181C37.7096 32.2208 37.2151 31.9304 36.745 31.6045C35.9813 31.0748 35.8108 30.3305 36.3289 29.571C37.1096 28.4264 37.9366 27.3141 38.7512 26.1933C38.8576 26.0306 39.0062 25.9008 39.1809 25.8181C39.3555 25.7355 39.5492 25.7031 39.7407 25.7248ZM39.7117 27.5218L37.6144 30.1568L41.0286 32.0774L43.1804 29.6092L39.7117 27.5218Z" fill="#6A0067"/>
<path d="M23.5798 24.0664C23.8976 24.2643 24.2897 24.4008 24.5213 24.6757C24.9581 25.1934 25.3408 25.7554 25.6632 26.3529C25.8794 26.7747 25.9426 27.2599 25.8419 27.724C25.7412 28.1881 25.4829 28.6018 25.112 28.893C24.3249 29.4906 23.5048 30.0425 22.6557 30.5458C21.8072 31.0463 21.0974 30.7765 20.6987 29.8549C20.3974 29.1593 20.1438 28.4521 19.5892 27.8951C19.3171 27.6216 19.3642 27.2578 19.692 26.9103C20.0206 26.5762 20.374 26.268 20.749 25.9885C21.4061 25.4785 22.0731 24.9816 22.7499 24.498C23.0168 24.3356 23.294 24.1915 23.5798 24.0664ZM22.1044 28.5858L23.9625 27.3786L23.233 26.363L21.3298 27.5843L22.1044 28.5858Z" fill="#6A0067"/>
<path d="M21.121 36.9087C21.7061 36.8689 22.0679 37.0512 22.2761 37.4022C22.7273 38.1654 23.1998 38.9301 23.5259 39.7505C23.8475 40.5595 23.3782 41.2862 22.8219 41.7768C22.0058 42.4684 21.1321 43.0873 20.2105 43.6263C19.4912 44.0654 18.9188 43.8843 18.4832 43.168C18.0347 42.4295 17.6188 41.6695 17.221 40.9016C16.8794 40.2419 16.9979 39.6172 17.5476 39.1206C17.8429 38.8635 18.1586 38.6316 18.4917 38.4272C19.1727 37.9927 19.8612 37.5703 20.5572 37.1603C20.7388 37.0624 20.9272 36.9784 21.121 36.9087ZM21.0071 39.0013L18.7479 40.2073L19.8773 41.5837L21.6466 40.4177L21.0071 39.0013Z" fill="#6A0067"/>
</g>
<defs>
<clipPath id="clip0_637_29928">
<rect width="37.082" height="37.082" fill="white" transform="translate(12 11.8889)"/>
</clipPath>
</defs>
</svg>
