<svg width="63" height="63" viewBox="0 0 63 63" fill="none" xmlns="http://www.w3.org/2000/svg">
<path d="M0.5 31.2771V6.07523L5.85355 0.72168H31.0554H56.2573L61.6108 6.07523V31.2771V56.479L56.2573 61.8325H31.0554H5.85355L0.5 56.479V31.2771Z" fill="#F8F8F8" stroke="#D0D5DD"/>
<path d="M13.0547 45.2651V43.2658C13.0547 38.8492 16.6351 35.2688 21.0517 35.2688H29.0486C33.4653 35.2688 37.0456 38.8492 37.0456 43.2658V45.2651M37.0456 29.2711C40.3581 29.2711 43.0434 26.5858 43.0434 23.2734C43.0434 19.9609 40.3581 17.2756 37.0456 17.2756M49.0411 45.2651V43.2658C49.0411 38.8492 45.4607 35.2688 41.0441 35.2688H40.0445M31.0479 23.2734C31.0479 26.5858 28.3626 29.2711 25.0502 29.2711C21.7377 29.2711 19.0524 26.5858 19.0524 23.2734C19.0524 19.9609 21.7377 17.2756 25.0502 17.2756C28.3626 17.2756 31.0479 19.9609 31.0479 23.2734Z" stroke="#6A0067" stroke-width="3" stroke-linecap="round" stroke-linejoin="round"/>
</svg>
