<svg width="63" height="63" viewBox="0 0 63 63" fill="none" xmlns="http://www.w3.org/2000/svg">
<path d="M0.5 31.3879V6.18607L5.85355 0.83252H31.0554H56.2573L61.6108 6.18607V31.3879V56.5898L56.2573 61.9434H31.0554H5.85355L0.5 56.5898V31.3879Z" fill="#F8F8F8" stroke="#D0D5DD"/>
<path d="M15.056 27.3823C15.056 25.174 16.8462 23.3838 19.0545 23.3838H43.0455C45.2538 23.3838 47.044 25.174 47.044 27.3823V27.3823C47.044 30.6947 44.3587 33.38 41.0462 33.38H21.0538C17.7413 33.38 15.056 30.6947 15.056 27.3823V27.3823Z" stroke="#6A0067" stroke-width="3" stroke-linecap="round" stroke-linejoin="round"/>
<path d="M25.0504 19.3857C25.0504 17.1774 26.8406 15.3872 29.0489 15.3872H33.0474C35.2557 15.3872 37.0459 17.1774 37.0459 19.3857V23.3842H25.0504V19.3857Z" stroke="#6A0067" stroke-width="3.02453" stroke-linecap="round" stroke-linejoin="round"/>
<rect x="15.056" y="23.3838" width="31.9879" height="23.9909" rx="3.99849" stroke="#6A0067" stroke-width="3.02453" stroke-linecap="round" stroke-linejoin="round"/>
<path d="M25.0504 31.3823V35.3808" stroke="#6A0067" stroke-width="3.02453" stroke-linecap="round" stroke-linejoin="round"/>
<path d="M37.0455 31.3823V35.3808" stroke="#6A0067" stroke-width="3.02453" stroke-linecap="round" stroke-linejoin="round"/>
</svg>
