<svg width="63" height="63" viewBox="0 0 63 63" fill="none" xmlns="http://www.w3.org/2000/svg">
<path d="M0.5 31.4988V6.29691L5.85355 0.943359H31.0554H56.2573L61.6108 6.29691V31.4988V56.7007L56.2573 62.0542H31.0554H5.85355L0.5 56.7007V31.4988Z" fill="#F8F8F8" stroke="#D0D5DD"/>
<path d="M21.663 25.4362H16.5695C14.7019 25.4362 13.1738 23.9082 13.1738 22.0406V18.6449C13.1738 16.7773 14.7019 15.2493 16.5695 15.2493H21.663C23.5306 15.2493 25.0586 16.7773 25.0586 18.6449V22.0406C25.0586 23.9082 23.5306 25.4362 21.663 25.4362Z" stroke="#6A0067" stroke-width="2.54674" stroke-linecap="round" stroke-linejoin="round"/>
<path d="M45.0949 23.7381H38.9827C37.8621 23.7381 36.9453 22.8212 36.9453 21.7007V18.9842C36.9453 17.8636 37.8621 16.9468 38.9827 16.9468H45.0949C46.2155 16.9468 47.1323 17.8636 47.1323 18.9842V21.7007C47.1323 22.8212 46.2155 23.7381 45.0949 23.7381Z" stroke="#6A0067" stroke-width="2.54674" stroke-linecap="round" stroke-linejoin="round"/>
<path d="M45.0949 36.4717H38.9827C37.8621 36.4717 36.9453 35.5549 36.9453 34.4343V31.7178C36.9453 30.5973 37.8621 29.6804 38.9827 29.6804H45.0949C46.2155 29.6804 47.1323 30.5973 47.1323 31.7178V34.4343C47.1323 35.5549 46.2155 36.4717 45.0949 36.4717Z" stroke="#6A0067" stroke-width="2.54674" stroke-linecap="round" stroke-linejoin="round"/>
<path d="M25.0605 20.3425H36.9453" stroke="#6A0067" stroke-width="2.54674" stroke-miterlimit="10" stroke-linecap="round" stroke-linejoin="round"/>
<path d="M31.002 20.3425V42.4143C31.002 44.2819 32.53 45.8099 34.3976 45.8099H36.9444" fill="white"/>
<path d="M31.002 20.3425V42.4143C31.002 44.2819 32.53 45.8099 34.3976 45.8099H36.9444" stroke="#6A0067" stroke-width="2.54674" stroke-miterlimit="10" stroke-linecap="round" stroke-linejoin="round"/>
<path d="M31.002 33.0764H36.9444" stroke="#6A0067" stroke-width="2.54674" stroke-miterlimit="10" stroke-linecap="round" stroke-linejoin="round"/>
<path d="M45.0949 49.2054H38.9827C37.8621 49.2054 36.9453 48.2885 36.9453 47.168V44.4515C36.9453 43.3309 37.8621 42.4141 38.9827 42.4141H45.0949C46.2155 42.4141 47.1323 43.3309 47.1323 44.4515V47.168C47.1323 48.2885 46.2155 49.2054 45.0949 49.2054Z" stroke="#6A0067" stroke-width="2.54674" stroke-linecap="round" stroke-linejoin="round"/>
</svg>
