<svg width="63" height="63" viewBox="0 0 63 63" fill="none" xmlns="http://www.w3.org/2000/svg">
<path d="M0.5 31.6091V6.40726L5.85355 1.05371H31.0554H56.2573L61.6108 6.40726V31.6091V56.811L56.2573 62.1646H31.0554H5.85355L0.5 56.811V31.6091Z" fill="#F8F8F8" stroke="#D0D5DD"/>
<path d="M15.0586 17.6086C15.0586 16.5045 15.9537 15.6094 17.0578 15.6094H25.0548C26.159 15.6094 27.0541 16.5045 27.0541 17.6086V25.6056C27.0541 26.7098 26.159 27.6048 25.0548 27.6048H17.0578C15.9537 27.6048 15.0586 26.7098 15.0586 25.6056V17.6086Z" stroke="#6A0067" stroke-width="3" stroke-linecap="round" stroke-linejoin="round"/>
<path d="M15.0586 37.6011C15.0586 36.4969 15.9537 35.6018 17.0578 35.6018H25.0548C26.159 35.6018 27.0541 36.4969 27.0541 37.6011V45.5981C27.0541 46.7022 26.159 47.5973 25.0548 47.5973H17.0578C15.9537 47.5973 15.0586 46.7022 15.0586 45.5981V37.6011Z" stroke="#6A0067" stroke-width="3" stroke-linecap="round" stroke-linejoin="round"/>
<path d="M35.051 17.6086C35.051 16.5045 35.9461 15.6094 37.0503 15.6094H45.0473C46.1514 15.6094 47.0465 16.5045 47.0465 17.6086V25.6056C47.0465 26.7098 46.1514 27.6048 45.0473 27.6048H37.0503C35.9461 27.6048 35.051 26.7098 35.051 25.6056V17.6086Z" stroke="#6A0067" stroke-width="3" stroke-linecap="round" stroke-linejoin="round"/>
<path d="M35.051 37.6011C35.051 36.4969 35.9461 35.6018 37.0503 35.6018H45.0473C46.1514 35.6018 47.0465 36.4969 47.0465 37.6011V45.5981C47.0465 46.7022 46.1514 47.5973 45.0473 47.5973H37.0503C35.9461 47.5973 35.051 46.7022 35.051 45.5981V37.6011Z" stroke="#6A0067" stroke-width="3" stroke-linecap="round" stroke-linejoin="round"/>
</svg>
