<svg width="63" height="63" viewBox="0 0 63 63" fill="none" xmlns="http://www.w3.org/2000/svg">
<path d="M0.499756 31.7205V6.51859L5.8533 1.16504H31.0552H56.2571L61.6106 6.51859V31.7205V56.9223L56.2571 62.2759H31.0552H5.8533L0.499756 56.9223V31.7205Z" fill="#F8F8F8" stroke="#D0D5DD"/>
<path d="M13.0569 19.717C13.0569 16.4045 15.7422 13.7192 19.0546 13.7192H35.0486C38.361 13.7192 41.0463 16.4045 41.0463 19.717V35.7109C41.0463 39.0234 38.361 41.7087 35.0486 41.7087H19.0546C15.7422 41.7087 13.0569 39.0234 13.0569 35.7109V19.717Z" stroke="#6A0067" stroke-width="3" stroke-linecap="round" stroke-linejoin="round"/>
<path d="M49.0403 21.7173V43.709C49.0403 47.0214 46.3551 49.7067 43.0426 49.7067H21.0509" stroke="#6A0067" stroke-width="3" stroke-linecap="round" stroke-linejoin="round"/>
</svg>
